<?xml version="1.0" encoding="utf-8" standalone="no"?>
<!DOCTYPE svg PUBLIC "-//W3C//DTD SVG 1.1//EN"
  "http://www.w3.org/Graphics/SVG/1.1/DTD/svg11.dtd">
<svg xmlns:xlink="http://www.w3.org/1999/xlink" width="460.8pt" height="345.6pt" viewBox="0 0 460.8 345.6" xmlns="http://www.w3.org/2000/svg" version="1.1">
 <metadata>
  <rdf:RDF xmlns:dc="http://purl.org/dc/elements/1.1/" xmlns:cc="http://creativecommons.org/ns#" xmlns:rdf="http://www.w3.org/1999/02/22-rdf-syntax-ns#">
   <cc:Work>
    <dc:type rdf:resource="http://purl.org/dc/dcmitype/StillImage"/>
    <dc:date>2022-01-18T08:47:17.377270</dc:date>
    <dc:format>image/svg+xml</dc:format>
    <dc:creator>
     <cc:Agent>
      <dc:title>Matplotlib v3.5.1, https://matplotlib.org/</dc:title>
     </cc:Agent>
    </dc:creator>
   </cc:Work>
  </rdf:RDF>
 </metadata>
 <defs>
  <style type="text/css">*{stroke-linejoin: round; stroke-linecap: butt}</style>
 </defs>
 <g id="figure_1">
  <g id="patch_1">
   <path d="M 0 345.6 
L 460.8 345.6 
L 460.8 0 
L 0 0 
z
" style="fill: #491d88"/>
  </g>
  <g id="axes_1">
   <g id="patch_2">
    <path d="M 57.6 276.48 
L 414.72 276.48 
L 414.72 41.472 
L 57.6 41.472 
z
" style="fill: #fec859"/>
   </g>
   <g id="PolyCollection_1">
    <path d="M 73.832727 276.48 
L 73.832727 276.48 
L 73.832727 276.48 
L 73.832727 276.48 
L 74.31962 276.48 
L 74.31962 276.48 
L 74.806514 276.48 
L 74.806514 276.48 
L 75.293407 276.48 
L 75.293407 276.48 
L 75.7803 276.48 
L 75.7803 276.48 
L 76.267193 276.48 
L 76.267193 276.48 
L 76.754086 276.48 
L 76.754086 276.48 
L 77.240979 276.48 
L 77.240979 276.48 
L 77.727872 276.48 
L 77.727872 276.48 
L 78.214765 276.48 
L 78.214765 276.48 
L 78.701658 276.48 
L 78.701658 276.48 
L 79.188552 276.48 
L 79.188552 276.48 
L 79.675445 276.48 
L 79.675445 276.48 
L 80.162338 276.48 
L 80.162338 276.48 
L 80.649231 276.48 
L 80.649231 276.48 
L 81.136124 276.48 
L 81.136124 276.48 
L 81.623017 276.48 
L 81.623017 276.48 
L 82.596803 276.48 
L 82.596803 276.48 
L 83.083697 276.48 
L 83.083697 276.48 
L 83.57059 276.48 
L 83.57059 276.48 
L 84.057483 276.48 
L 84.057483 276.48 
L 84.544376 276.48 
L 84.544376 276.48 
L 85.031269 276.48 
L 85.031269 276.48 
L 85.518162 276.48 
L 85.518162 276.48 
L 86.005055 276.48 
L 86.005055 276.48 
L 86.491948 276.48 
L 86.491948 276.48 
L 86.978841 276.48 
L 86.978841 276.48 
L 87.952628 276.48 
L 87.952628 276.48 
L 88.926414 276.48 
L 88.926414 276.48 
L 89.413307 276.48 
L 89.413307 276.48 
L 89.9002 276.48 
L 89.9002 276.48 
L 93.308452 276.48 
L 93.308452 276.48 
L 93.795345 276.48 
L 93.795345 276.48 
L 94.282238 276.48 
L 94.282238 276.48 
L 94.769131 276.48 
L 94.769131 276.48 
L 95.256024 276.48 
L 95.256024 276.48 
L 95.742918 276.48 
L 95.742918 276.48 
L 96.229811 276.48 
L 96.229811 276.48 
L 96.716704 276.48 
L 96.716704 276.48 
L 97.203597 276.48 
L 97.203597 276.48 
L 97.69049 276.48 
L 97.69049 276.48 
L 98.177383 276.48 
L 98.177383 276.48 
L 98.664276 276.48 
L 98.664276 276.48 
L 99.151169 276.48 
L 99.151169 276.48 
L 99.638063 276.48 
L 99.638063 276.48 
L 100.124956 276.48 
L 100.124956 276.48 
L 100.611849 276.48 
L 100.611849 276.48 
L 101.098742 276.48 
L 101.098742 276.48 
L 101.585635 276.48 
L 101.585635 276.48 
L 104.506994 276.48 
L 104.506994 276.48 
L 105.967673 276.48 
L 105.967673 276.48 
L 106.454566 276.48 
L 106.454566 276.48 
L 106.941459 276.48 
L 106.941459 276.48 
L 107.915246 276.48 
L 107.915246 276.48 
L 108.402139 276.48 
L 108.402139 276.48 
L 108.889032 276.48 
L 108.889032 276.48 
L 109.375925 276.48 
L 109.375925 276.48 
L 109.862818 276.48 
L 109.862818 276.48 
L 110.349711 276.48 
L 110.349711 276.48 
L 110.836604 276.48 
L 110.836604 276.48 
L 111.323497 276.48 
L 111.323497 276.48 
L 111.81039 276.48 
L 111.81039 276.48 
L 112.297284 276.48 
L 112.297284 276.48 
L 112.784177 276.48 
L 112.784177 276.48 
L 113.27107 276.48 
L 113.27107 276.48 
L 117.653108 276.48 
L 117.653108 276.48 
L 118.626894 276.48 
L 118.626894 276.48 
L 119.113787 276.48 
L 119.113787 276.48 
L 119.60068 276.48 
L 119.60068 276.48 
L 120.087573 276.48 
L 120.087573 276.48 
L 122.035146 276.48 
L 122.035146 276.48 
L 130.312329 276.48 
L 130.312329 276.48 
L 131.286115 276.48 
L 131.286115 276.48 
L 131.773008 276.48 
L 131.773008 276.48 
L 132.746795 276.48 
L 132.746795 276.48 
L 133.233688 276.48 
L 133.233688 276.48 
L 134.694367 276.48 
L 134.694367 276.48 
L 136.641939 276.48 
L 136.641939 276.48 
L 137.128833 276.48 
L 137.128833 276.48 
L 141.023978 276.48 
L 141.023978 276.48 
L 141.510871 276.48 
L 141.510871 276.48 
L 141.997764 276.48 
L 141.997764 276.48 
L 142.484657 276.48 
L 142.484657 276.48 
L 142.97155 276.48 
L 142.97155 276.48 
L 143.458443 276.48 
L 143.458443 276.48 
L 143.945336 276.48 
L 143.945336 276.48 
L 144.432229 276.48 
L 144.432229 276.48 
L 144.919122 276.48 
L 144.919122 276.48 
L 145.892909 276.48 
L 145.892909 276.48 
L 146.379802 276.48 
L 146.379802 276.48 
L 146.866695 276.48 
L 146.866695 276.48 
L 147.353588 276.48 
L 147.353588 276.48 
L 147.840481 276.48 
L 147.840481 276.48 
L 148.327374 276.48 
L 148.327374 276.48 
L 149.301161 276.48 
L 149.301161 276.48 
L 151.248733 276.48 
L 151.248733 276.48 
L 153.196305 276.48 
L 153.196305 276.48 
L 154.170092 276.48 
L 154.170092 276.48 
L 155.143878 276.48 
L 155.143878 276.48 
L 156.117664 276.48 
L 156.117664 276.48 
L 156.604557 276.48 
L 156.604557 276.48 
L 157.578344 276.48 
L 157.578344 276.48 
L 158.065237 276.48 
L 158.065237 276.48 
L 158.55213 276.48 
L 158.55213 276.48 
L 159.039023 276.48 
L 159.039023 276.48 
L 159.525916 276.48 
L 159.525916 276.48 
L 160.012809 276.48 
L 160.012809 276.48 
L 163.907954 276.48 
L 163.907954 276.48 
L 164.394847 276.48 
L 164.394847 276.48 
L 164.88174 276.48 
L 164.88174 276.48 
L 165.368633 276.48 
L 165.368633 276.48 
L 165.855527 276.48 
L 165.855527 276.48 
L 166.34242 276.48 
L 166.34242 276.48 
L 166.829313 276.48 
L 166.829313 276.48 
L 167.316206 276.48 
L 167.316206 276.48 
L 168.289992 276.48 
L 168.289992 276.48 
L 169.263778 276.48 
L 169.263778 276.48 
L 170.237565 276.48 
L 170.237565 276.48 
L 170.724458 276.48 
L 170.724458 276.48 
L 171.211351 276.48 
L 171.211351 276.48 
L 171.698244 276.48 
L 171.698244 276.48 
L 172.67203 276.48 
L 172.67203 276.48 
L 173.158923 276.48 
L 173.158923 276.48 
L 173.645816 276.48 
L 173.645816 276.48 
L 175.593389 276.48 
L 175.593389 276.48 
L 177.054068 276.48 
L 177.054068 276.48 
L 177.540961 276.48 
L 177.540961 276.48 
L 179.488534 276.48 
L 179.488534 276.48 
L 180.46232 276.48 
L 180.46232 276.48 
L 180.949213 276.48 
L 180.949213 276.48 
L 181.436106 276.48 
L 181.436106 276.48 
L 181.922999 276.48 
L 181.922999 276.48 
L 182.409893 276.48 
L 182.409893 276.48 
L 182.896786 276.48 
L 182.896786 276.48 
L 183.870572 276.48 
L 183.870572 276.48 
L 186.791931 276.48 
L 186.791931 276.48 
L 187.278824 276.48 
L 187.278824 276.48 
L 187.765717 276.48 
L 187.765717 276.48 
L 188.739503 276.48 
L 188.739503 276.48 
L 189.226396 276.48 
L 189.226396 276.48 
L 190.200182 276.48 
L 190.200182 276.48 
L 190.687076 276.48 
L 190.687076 276.48 
L 192.147755 276.48 
L 192.147755 276.48 
L 192.634648 276.48 
L 192.634648 276.48 
L 193.608434 276.48 
L 193.608434 276.48 
L 194.095327 276.48 
L 194.095327 276.48 
L 194.58222 276.48 
L 194.58222 276.48 
L 195.069114 276.48 
L 195.069114 276.48 
L 195.556007 276.48 
L 195.556007 276.48 
L 200.424938 276.48 
L 200.424938 276.48 
L 201.398724 276.48 
L 201.398724 276.48 
L 201.885617 276.48 
L 201.885617 276.48 
L 203.346297 276.48 
L 203.346297 276.48 
L 203.83319 276.48 
L 203.83319 276.48 
L 204.320083 276.48 
L 204.320083 276.48 
L 205.780762 276.48 
L 205.780762 276.48 
L 206.267655 276.48 
L 206.267655 276.48 
L 211.136586 276.48 
L 211.136586 276.48 
L 212.110373 276.48 
L 212.110373 276.48 
L 213.084159 276.48 
L 213.084159 276.48 
L 213.571052 276.48 
L 213.571052 276.48 
L 214.057945 276.48 
L 214.057945 276.48 
L 214.544838 276.48 
L 214.544838 276.48 
L 215.031731 276.48 
L 215.031731 276.48 
L 216.005518 276.48 
L 216.005518 276.48 
L 216.979304 276.48 
L 216.979304 276.48 
L 217.95309 276.48 
L 217.95309 276.48 
L 218.439983 276.48 
L 218.439983 276.48 
L 218.926876 276.48 
L 218.926876 276.48 
L 222.822021 276.48 
L 222.822021 276.48 
L 224.282701 276.48 
L 224.282701 276.48 
L 224.769594 276.48 
L 224.769594 276.48 
L 226.230273 276.48 
L 226.230273 276.48 
L 227.204059 276.48 
L 227.204059 276.48 
L 227.690952 276.48 
L 227.690952 276.48 
L 228.177846 276.48 
L 228.177846 276.48 
L 228.664739 276.48 
L 228.664739 276.48 
L 229.638525 276.48 
L 229.638525 276.48 
L 234.020563 276.48 
L 234.020563 276.48 
L 236.455029 276.48 
L 236.455029 276.48 
L 236.941922 276.48 
L 236.941922 276.48 
L 238.402601 276.48 
L 238.402601 276.48 
L 239.376387 276.48 
L 239.376387 276.48 
L 239.86328 276.48 
L 239.86328 276.48 
L 240.350174 276.48 
L 240.350174 276.48 
L 240.837067 276.48 
L 240.837067 276.48 
L 241.32396 276.48 
L 241.32396 276.48 
L 241.810853 276.48 
L 241.810853 276.48 
L 245.705998 276.48 
L 245.705998 276.48 
L 246.679784 276.48 
L 246.679784 276.48 
L 247.166677 276.48 
L 247.166677 276.48 
L 247.65357 276.48 
L 247.65357 276.48 
L 248.140463 276.48 
L 248.140463 276.48 
L 248.627357 276.48 
L 248.627357 276.48 
L 249.11425 276.48 
L 249.11425 276.48 
L 249.601143 276.48 
L 249.601143 276.48 
L 250.088036 276.48 
L 250.088036 276.48 
L 251.061822 276.48 
L 251.061822 276.48 
L 257.391433 276.48 
L 257.391433 276.48 
L 259.339005 276.48 
L 259.339005 276.48 
L 260.312791 276.48 
L 260.312791 276.48 
L 260.799684 276.48 
L 260.799684 276.48 
L 262.260364 276.48 
L 262.260364 276.48 
L 262.747257 276.48 
L 262.747257 276.48 
L 263.23415 276.48 
L 263.23415 276.48 
L 264.694829 276.48 
L 264.694829 276.48 
L 266.155509 276.48 
L 266.155509 276.48 
L 269.563761 276.48 
L 269.563761 276.48 
L 270.050654 276.48 
L 270.050654 276.48 
L 270.537547 276.48 
L 270.537547 276.48 
L 271.02444 276.48 
L 271.02444 276.48 
L 271.511333 276.48 
L 271.511333 276.48 
L 272.972012 276.48 
L 272.972012 276.48 
L 274.432692 276.48 
L 274.432692 276.48 
L 275.893371 276.48 
L 275.893371 276.48 
L 283.683661 276.48 
L 283.683661 276.48 
L 285.631233 276.48 
L 285.631233 276.48 
L 286.118127 276.48 
L 286.118127 276.48 
L 294.882203 276.48 
L 294.882203 276.48 
L 295.369096 276.48 
L 295.369096 276.48 
L 295.855989 276.48 
L 295.855989 276.48 
L 296.829775 276.48 
L 296.829775 276.48 
L 297.316668 276.48 
L 297.316668 276.48 
L 297.803561 276.48 
L 297.803561 276.48 
L 298.777348 276.48 
L 298.777348 276.48 
L 303.159386 276.48 
L 303.159386 276.48 
L 304.133172 276.48 
L 304.133172 276.48 
L 305.593851 276.48 
L 305.593851 276.48 
L 306.567638 276.48 
L 306.567638 276.48 
L 308.51521 276.48 
L 308.51521 276.48 
L 311.436569 276.48 
L 311.436569 276.48 
L 317.766179 276.48 
L 317.766179 276.48 
L 318.253072 276.48 
L 318.253072 276.48 
L 319.713752 276.48 
L 319.713752 276.48 
L 320.687538 276.48 
L 320.687538 276.48 
L 321.174431 276.48 
L 321.174431 276.48 
L 322.148217 276.48 
L 322.148217 276.48 
L 326.530255 276.48 
L 326.530255 276.48 
L 327.990935 276.48 
L 327.990935 276.48 
L 328.964721 276.48 
L 328.964721 276.48 
L 329.451614 276.48 
L 329.451614 276.48 
L 329.938507 276.48 
L 329.938507 276.48 
L 331.88608 276.48 
L 331.88608 276.48 
L 333.346759 276.48 
L 333.346759 276.48 
L 333.833652 276.48 
L 333.833652 276.48 
L 334.320545 276.48 
L 334.320545 276.48 
L 334.807438 276.48 
L 334.807438 276.48 
L 339.67637 276.48 
L 339.67637 276.48 
L 340.650156 276.48 
L 340.650156 276.48 
L 343.084621 276.48 
L 343.084621 276.48 
L 345.519087 276.48 
L 345.519087 276.48 
L 346.00598 276.48 
L 346.00598 276.48 
L 346.492873 276.48 
L 346.492873 276.48 
L 347.466659 276.48 
L 347.466659 276.48 
L 349.901125 276.48 
L 349.901125 276.48 
L 350.874911 276.48 
L 350.874911 276.48 
L 352.822484 276.48 
L 352.822484 276.48 
L 356.717629 276.48 
L 356.717629 276.48 
L 358.665201 276.48 
L 358.665201 276.48 
L 361.531702 276.48 
L 361.531702 276.48 
L 361.731306 276.48 
L 361.731306 276.48 
L 361.905499 276.48 
L 361.905499 276.48 
L 362.250866 276.48 
L 362.250866 276.48 
L 362.469887 276.48 
L 362.469887 276.48 
L 362.699747 276.48 
L 362.699747 276.48 
L 362.87189 276.48 
L 362.87189 276.48 
L 363.226922 276.48 
L 363.226922 276.48 
L 363.420473 276.48 
L 363.420473 276.48 
L 363.681024 276.48 
L 363.681024 276.48 
L 363.872469 276.48 
L 363.872469 276.48 
L 364.177258 276.48 
L 364.177258 276.48 
L 364.368922 276.48 
L 364.368922 276.48 
L 364.627006 276.48 
L 364.627006 276.48 
L 364.807635 276.48 
L 364.807635 276.48 
L 365.230477 276.48 
L 365.230477 276.48 
L 365.504963 276.48 
L 365.504963 276.48 
L 365.82112 276.48 
L 365.82112 276.48 
L 365.84518 276.48 
L 365.84518 276.48 
L 365.859353 276.48 
L 365.859353 276.48 
L 366.099776 276.48 
L 366.099776 276.48 
L 366.283505 276.48 
L 366.283505 276.48 
L 366.606345 276.48 
L 366.606345 276.48 
L 366.815052 276.48 
L 366.815052 276.48 
L 367.166372 276.48 
L 367.166372 276.48 
L 367.860692 276.48 
L 367.860692 276.48 
L 367.88079 276.48 
L 367.88079 276.48 
L 367.905627 276.48 
L 367.905627 276.48 
L 368.088082 276.48 
L 368.088082 276.48 
L 368.294549 276.48 
L 368.294549 276.48 
L 368.51878 276.48 
L 368.51878 276.48 
L 368.703557 276.48 
L 368.703557 276.48 
L 369.042698 276.48 
L 369.042698 276.48 
L 369.499737 276.48 
L 369.499737 276.48 
L 374.908511 276.48 
L 374.908511 276.48 
L 376.311688 276.48 
L 376.311688 276.48 
L 377.507547 276.48 
L 377.507547 276.48 
L 377.785045 276.48 
L 377.785045 276.48 
L 379.146264 276.48 
L 379.146264 276.48 
L 379.491422 276.48 
L 379.491422 276.48 
L 379.770305 276.48 
L 379.770305 276.48 
L 380.205647 276.48 
L 380.205647 276.48 
L 387.558659 276.48 
L 387.558659 276.48 
L 390.549307 276.48 
L 390.549307 276.48 
L 392.603972 276.48 
L 392.603972 276.48 
L 392.87634 276.48 
L 392.87634 276.48 
L 393.871156 276.48 
L 393.871156 276.48 
L 394.727817 276.48 
L 394.727817 276.48 
L 398.487273 276.48 
L 398.487273 276.48 
L 398.487273 200.083749 
L 398.487273 200.083749 
L 398.487273 200.083749 
L 394.727817 200.083749 
L 394.727817 200.083749 
L 393.871156 200.083749 
L 393.871156 200.083749 
L 392.87634 200.083749 
L 392.87634 200.083749 
L 392.603972 200.083749 
L 392.603972 200.083749 
L 390.549307 200.083749 
L 390.549307 200.083749 
L 387.558659 200.083749 
L 387.558659 200.083749 
L 380.205647 200.083749 
L 380.205647 200.083749 
L 379.770305 200.083749 
L 379.770305 200.083749 
L 379.491422 200.083749 
L 379.491422 200.083749 
L 379.146264 200.083749 
L 379.146264 200.083749 
L 377.785045 200.083749 
L 377.785045 200.083749 
L 377.507547 200.083749 
L 377.507547 200.083749 
L 376.311688 200.083749 
L 376.311688 200.083749 
L 374.908511 200.083749 
L 374.908511 200.083749 
L 369.499737 200.083749 
L 369.499737 200.083749 
L 369.042698 200.083749 
L 369.042698 200.083749 
L 368.703557 200.083749 
L 368.703557 200.083749 
L 368.51878 200.083749 
L 368.51878 200.083749 
L 368.294549 200.083749 
L 368.294549 200.083749 
L 368.088082 200.083749 
L 368.088082 200.083749 
L 367.905627 200.083749 
L 367.905627 200.083749 
L 367.88079 200.083749 
L 367.88079 200.083749 
L 367.860692 200.083749 
L 367.860692 200.083749 
L 367.166372 200.083749 
L 367.166372 200.083749 
L 366.815052 200.083749 
L 366.815052 200.083749 
L 366.606345 200.083749 
L 366.606345 200.083749 
L 366.283505 200.083749 
L 366.283505 200.083749 
L 366.099776 200.083749 
L 366.099776 200.083749 
L 365.859353 200.083749 
L 365.859353 200.083749 
L 365.84518 200.083749 
L 365.84518 200.083749 
L 365.82112 200.083749 
L 365.82112 200.083749 
L 365.504963 200.083749 
L 365.504963 200.083749 
L 365.230477 200.083749 
L 365.230477 200.083749 
L 364.807635 200.083749 
L 364.807635 200.083749 
L 364.627006 200.083749 
L 364.627006 200.083749 
L 364.368922 200.083749 
L 364.368922 200.083749 
L 364.177258 200.083749 
L 364.177258 200.083749 
L 363.872469 200.083749 
L 363.872469 200.083749 
L 363.681024 200.083749 
L 363.681024 200.083749 
L 363.420473 200.083749 
L 363.420473 200.083749 
L 363.226922 200.083749 
L 363.226922 200.083749 
L 362.87189 200.083749 
L 362.87189 200.083749 
L 362.699747 200.083749 
L 362.699747 200.083749 
L 362.469887 200.083749 
L 362.469887 200.083749 
L 362.250866 200.083749 
L 362.250866 200.083749 
L 361.905499 200.083749 
L 361.905499 200.083749 
L 361.731306 200.083749 
L 361.731306 200.083749 
L 361.531702 200.083749 
L 361.531702 202.023497 
L 358.665201 202.023497 
L 358.665201 202.023497 
L 356.717629 202.023497 
L 356.717629 202.023497 
L 352.822484 202.023497 
L 352.822484 202.023497 
L 350.874911 202.023497 
L 350.874911 202.023497 
L 349.901125 202.023497 
L 349.901125 202.023497 
L 347.466659 202.023497 
L 347.466659 202.023497 
L 346.492873 202.023497 
L 346.492873 202.023497 
L 346.00598 202.023497 
L 346.00598 202.023497 
L 345.519087 202.023497 
L 345.519087 202.023497 
L 343.084621 202.023497 
L 343.084621 202.023497 
L 340.650156 202.023497 
L 340.650156 202.023497 
L 339.67637 202.023497 
L 339.67637 202.023497 
L 334.807438 202.023497 
L 334.807438 202.023497 
L 334.320545 202.023497 
L 334.320545 202.023497 
L 333.833652 202.023497 
L 333.833652 202.023497 
L 333.346759 202.023497 
L 333.346759 202.023497 
L 331.88608 202.023497 
L 331.88608 202.023497 
L 329.938507 202.023497 
L 329.938507 202.023497 
L 329.451614 202.023497 
L 329.451614 202.023497 
L 328.964721 202.023497 
L 328.964721 202.023497 
L 327.990935 202.023497 
L 327.990935 202.023497 
L 326.530255 202.023497 
L 326.530255 202.023497 
L 322.148217 202.023497 
L 322.148217 202.023497 
L 321.174431 202.023497 
L 321.174431 202.023497 
L 320.687538 202.023497 
L 320.687538 202.023497 
L 319.713752 202.023497 
L 319.713752 202.023497 
L 318.253072 202.023497 
L 318.253072 202.023497 
L 317.766179 202.023497 
L 317.766179 202.023497 
L 311.436569 202.023497 
L 311.436569 202.023497 
L 308.51521 202.023497 
L 308.51521 202.023497 
L 306.567638 202.023497 
L 306.567638 202.023497 
L 305.593851 202.023497 
L 305.593851 202.023497 
L 304.133172 202.023497 
L 304.133172 202.023497 
L 303.159386 202.023497 
L 303.159386 202.023497 
L 298.777348 202.023497 
L 298.777348 202.023497 
L 297.803561 202.023497 
L 297.803561 202.023497 
L 297.316668 202.023497 
L 297.316668 202.023497 
L 296.829775 202.023497 
L 296.829775 202.023497 
L 295.855989 202.023497 
L 295.855989 202.023497 
L 295.369096 202.023497 
L 295.369096 202.023497 
L 294.882203 202.023497 
L 294.882203 202.023497 
L 286.118127 202.023497 
L 286.118127 202.023497 
L 285.631233 202.023497 
L 285.631233 202.023497 
L 283.683661 202.023497 
L 283.683661 202.023497 
L 275.893371 202.023497 
L 275.893371 202.023497 
L 274.432692 202.023497 
L 274.432692 202.023497 
L 272.972012 202.023497 
L 272.972012 202.023497 
L 271.511333 202.023497 
L 271.511333 202.023497 
L 271.02444 202.023497 
L 271.02444 202.023497 
L 270.537547 202.023497 
L 270.537547 202.023497 
L 270.050654 202.023497 
L 270.050654 202.023497 
L 269.563761 202.023497 
L 269.563761 202.023497 
L 266.155509 202.023497 
L 266.155509 202.023497 
L 264.694829 202.023497 
L 264.694829 202.023497 
L 263.23415 202.023497 
L 263.23415 202.023497 
L 262.747257 202.023497 
L 262.747257 202.023497 
L 262.260364 202.023497 
L 262.260364 202.023497 
L 260.799684 202.023497 
L 260.799684 202.023497 
L 260.312791 202.023497 
L 260.312791 202.023497 
L 259.339005 202.023497 
L 259.339005 202.023497 
L 257.391433 202.023497 
L 257.391433 202.023497 
L 251.061822 202.023497 
L 251.061822 202.023497 
L 250.088036 202.023497 
L 250.088036 202.023497 
L 249.601143 202.023497 
L 249.601143 202.023497 
L 249.11425 202.023497 
L 249.11425 202.023497 
L 248.627357 202.023497 
L 248.627357 202.023497 
L 248.140463 202.023497 
L 248.140463 202.023497 
L 247.65357 202.023497 
L 247.65357 202.023497 
L 247.166677 202.023497 
L 247.166677 202.023497 
L 246.679784 202.023497 
L 246.679784 202.023497 
L 245.705998 202.023497 
L 245.705998 202.023497 
L 241.810853 202.023497 
L 241.810853 202.023497 
L 241.32396 202.023497 
L 241.32396 202.023497 
L 240.837067 202.023497 
L 240.837067 202.023497 
L 240.350174 202.023497 
L 240.350174 202.023497 
L 239.86328 202.023497 
L 239.86328 202.023497 
L 239.376387 202.023497 
L 239.376387 202.023497 
L 238.402601 202.023497 
L 238.402601 202.023497 
L 236.941922 202.023497 
L 236.941922 202.023497 
L 236.455029 202.023497 
L 236.455029 202.023497 
L 234.020563 202.023497 
L 234.020563 202.023497 
L 229.638525 202.023497 
L 229.638525 202.023497 
L 228.664739 202.023497 
L 228.664739 202.023497 
L 228.177846 202.023497 
L 228.177846 202.023497 
L 227.690952 202.023497 
L 227.690952 202.023497 
L 227.204059 202.023497 
L 227.204059 202.023497 
L 226.230273 202.023497 
L 226.230273 202.023497 
L 224.769594 202.023497 
L 224.769594 202.023497 
L 224.282701 202.023497 
L 224.282701 202.023497 
L 222.822021 202.023497 
L 222.822021 202.023497 
L 218.926876 202.023497 
L 218.926876 202.023497 
L 218.439983 202.023497 
L 218.439983 202.023497 
L 217.95309 202.023497 
L 217.95309 202.023497 
L 216.979304 202.023497 
L 216.979304 202.023497 
L 216.005518 202.023497 
L 216.005518 202.023497 
L 215.031731 202.023497 
L 215.031731 202.023497 
L 214.544838 202.023497 
L 214.544838 202.023497 
L 214.057945 202.023497 
L 214.057945 202.023497 
L 213.571052 202.023497 
L 213.571052 202.023497 
L 213.084159 202.023497 
L 213.084159 202.023497 
L 212.110373 202.023497 
L 212.110373 202.023497 
L 211.136586 202.023497 
L 211.136586 202.023497 
L 206.267655 202.023497 
L 206.267655 202.023497 
L 205.780762 202.023497 
L 205.780762 202.023497 
L 204.320083 202.023497 
L 204.320083 202.172709 
L 203.83319 202.172709 
L 203.83319 202.471131 
L 203.346297 202.471131 
L 203.346297 202.620343 
L 201.885617 202.620343 
L 201.885617 203.067977 
L 201.398724 203.067977 
L 201.398724 203.217189 
L 200.424938 203.217189 
L 200.424938 203.3664 
L 195.556007 203.3664 
L 195.556007 203.664823 
L 195.069114 203.664823 
L 195.069114 203.664823 
L 194.58222 203.664823 
L 194.58222 203.963246 
L 194.095327 203.963246 
L 194.095327 204.41088 
L 193.608434 204.41088 
L 193.608434 204.41088 
L 192.634648 204.41088 
L 192.634648 204.709303 
L 192.147755 204.709303 
L 192.147755 204.858514 
L 190.687076 204.858514 
L 190.687076 205.156937 
L 190.200182 205.156937 
L 190.200182 206.649051 
L 189.226396 206.649051 
L 189.226396 206.947474 
L 188.739503 206.947474 
L 188.739503 207.096686 
L 187.765717 207.096686 
L 187.765717 207.693531 
L 187.278824 207.693531 
L 187.278824 207.693531 
L 186.791931 207.693531 
L 186.791931 207.842743 
L 183.870572 207.842743 
L 183.870572 208.141166 
L 182.896786 208.141166 
L 182.896786 208.5888 
L 182.409893 208.5888 
L 182.409893 208.887223 
L 181.922999 208.887223 
L 181.922999 209.782491 
L 181.436106 209.782491 
L 181.436106 210.230126 
L 180.949213 210.230126 
L 180.949213 211.125394 
L 180.46232 211.125394 
L 180.46232 211.573029 
L 179.488534 211.573029 
L 179.488534 211.72224 
L 177.540961 211.72224 
L 177.540961 211.871451 
L 177.054068 211.871451 
L 177.054068 212.169874 
L 175.593389 212.169874 
L 175.593389 212.169874 
L 173.645816 212.169874 
L 173.645816 212.468297 
L 173.158923 212.468297 
L 173.158923 212.617509 
L 172.67203 212.617509 
L 172.67203 212.76672 
L 171.698244 212.76672 
L 171.698244 213.214354 
L 171.211351 213.214354 
L 171.211351 213.214354 
L 170.724458 213.214354 
L 170.724458 213.512777 
L 170.237565 213.512777 
L 170.237565 214.258834 
L 169.263778 214.258834 
L 169.263778 214.557257 
L 168.289992 214.557257 
L 168.289992 214.557257 
L 167.316206 214.557257 
L 167.316206 214.706469 
L 166.829313 214.706469 
L 166.829313 214.85568 
L 166.34242 214.85568 
L 166.34242 215.154103 
L 165.855527 215.154103 
L 165.855527 215.303314 
L 165.368633 215.303314 
L 165.368633 215.452526 
L 164.88174 215.452526 
L 164.88174 215.750949 
L 164.394847 215.750949 
L 164.394847 215.750949 
L 163.907954 215.750949 
L 163.907954 215.90016 
L 160.012809 215.90016 
L 160.012809 215.90016 
L 159.525916 215.90016 
L 159.525916 216.198583 
L 159.039023 216.198583 
L 159.039023 216.347794 
L 158.55213 216.347794 
L 158.55213 216.497006 
L 158.065237 216.497006 
L 158.065237 216.646217 
L 157.578344 216.646217 
L 157.578344 216.94464 
L 156.604557 216.94464 
L 156.604557 216.94464 
L 156.117664 216.94464 
L 156.117664 217.243063 
L 155.143878 217.243063 
L 155.143878 217.541486 
L 154.170092 217.541486 
L 154.170092 217.98912 
L 153.196305 217.98912 
L 153.196305 218.287543 
L 151.248733 218.287543 
L 151.248733 218.287543 
L 149.301161 218.287543 
L 149.301161 218.436754 
L 148.327374 218.436754 
L 148.327374 218.735177 
L 147.840481 218.735177 
L 147.840481 218.884389 
L 147.353588 218.884389 
L 147.353588 219.182811 
L 146.866695 219.182811 
L 146.866695 219.481234 
L 146.379802 219.481234 
L 146.379802 219.779657 
L 145.892909 219.779657 
L 145.892909 219.928869 
L 144.919122 219.928869 
L 144.919122 220.227291 
L 144.432229 220.227291 
L 144.432229 220.525714 
L 143.945336 220.525714 
L 143.945336 220.973349 
L 143.458443 220.973349 
L 143.458443 221.271771 
L 142.97155 221.271771 
L 142.97155 221.570194 
L 142.484657 221.570194 
L 142.484657 221.719406 
L 141.997764 221.719406 
L 141.997764 222.316251 
L 141.510871 222.316251 
L 141.510871 222.465463 
L 141.023978 222.465463 
L 141.023978 222.763886 
L 137.128833 222.763886 
L 137.128833 223.509943 
L 136.641939 223.509943 
L 136.641939 223.659154 
L 134.694367 223.659154 
L 134.694367 224.256 
L 133.233688 224.256 
L 133.233688 224.554423 
L 132.746795 224.554423 
L 132.746795 225.002057 
L 131.773008 225.002057 
L 131.773008 225.151269 
L 131.286115 225.151269 
L 131.286115 225.30048 
L 130.312329 225.30048 
L 130.312329 225.449691 
L 122.035146 225.449691 
L 122.035146 225.598903 
L 120.087573 225.598903 
L 120.087573 225.748114 
L 119.60068 225.748114 
L 119.60068 226.046537 
L 119.113787 226.046537 
L 119.113787 226.195749 
L 118.626894 226.195749 
L 118.626894 226.34496 
L 117.653108 226.34496 
L 117.653108 226.643383 
L 113.27107 226.643383 
L 113.27107 227.240229 
L 112.784177 227.240229 
L 112.784177 227.38944 
L 112.297284 227.38944 
L 112.297284 227.538651 
L 111.81039 227.538651 
L 111.81039 227.687863 
L 111.323497 227.687863 
L 111.323497 227.837074 
L 110.836604 227.837074 
L 110.836604 227.837074 
L 110.349711 227.837074 
L 110.349711 228.135497 
L 109.862818 228.135497 
L 109.862818 228.43392 
L 109.375925 228.43392 
L 109.375925 228.732343 
L 108.889032 228.732343 
L 108.889032 229.179977 
L 108.402139 229.179977 
L 108.402139 229.627611 
L 107.915246 229.627611 
L 107.915246 229.926034 
L 106.941459 229.926034 
L 106.941459 230.224457 
L 106.454566 230.224457 
L 106.454566 230.373669 
L 105.967673 230.373669 
L 105.967673 230.52288 
L 104.506994 230.52288 
L 104.506994 230.672091 
L 101.585635 230.672091 
L 101.585635 231.119726 
L 101.098742 231.119726 
L 101.098742 231.268937 
L 100.611849 231.268937 
L 100.611849 231.418149 
L 100.124956 231.418149 
L 100.124956 231.716571 
L 99.638063 231.716571 
L 99.638063 232.014994 
L 99.151169 232.014994 
L 99.151169 232.61184 
L 98.664276 232.61184 
L 98.664276 232.910263 
L 98.177383 232.910263 
L 98.177383 233.65632 
L 97.69049 233.65632 
L 97.69049 234.103954 
L 97.203597 234.103954 
L 97.203597 234.850011 
L 96.716704 234.850011 
L 96.716704 234.999223 
L 96.229811 234.999223 
L 96.229811 235.297646 
L 95.742918 235.297646 
L 95.742918 236.043703 
L 95.256024 236.043703 
L 95.256024 236.342126 
L 94.769131 236.342126 
L 94.769131 236.640549 
L 94.282238 236.640549 
L 94.282238 236.78976 
L 93.795345 236.78976 
L 93.795345 237.088183 
L 93.308452 237.088183 
L 93.308452 237.237394 
L 89.9002 237.237394 
L 89.9002 237.386606 
L 89.413307 237.386606 
L 89.413307 237.685029 
L 88.926414 237.685029 
L 88.926414 238.281874 
L 87.952628 238.281874 
L 87.952628 238.87872 
L 86.978841 238.87872 
L 86.978841 239.326354 
L 86.491948 239.326354 
L 86.491948 239.773989 
L 86.005055 239.773989 
L 86.005055 239.773989 
L 85.518162 239.773989 
L 85.518162 240.370834 
L 85.031269 240.370834 
L 85.031269 241.713737 
L 84.544376 241.713737 
L 84.544376 242.310583 
L 84.057483 242.310583 
L 84.057483 243.205851 
L 83.57059 243.205851 
L 83.57059 244.250331 
L 83.083697 244.250331 
L 83.083697 244.548754 
L 82.596803 244.548754 
L 82.596803 245.1456 
L 81.623017 245.1456 
L 81.623017 245.444023 
L 81.136124 245.444023 
L 81.136124 245.593234 
L 80.649231 245.593234 
L 80.649231 245.742446 
L 80.162338 245.742446 
L 80.162338 245.742446 
L 79.675445 245.742446 
L 79.675445 246.040869 
L 79.188552 246.040869 
L 79.188552 246.19008 
L 78.701658 246.19008 
L 78.701658 246.339291 
L 78.214765 246.339291 
L 78.214765 247.532983 
L 77.727872 247.532983 
L 77.727872 249.025097 
L 77.240979 249.025097 
L 77.240979 252.009326 
L 76.754086 252.009326 
L 76.754086 254.396709 
L 76.267193 254.396709 
L 76.267193 257.380937 
L 75.7803 257.380937 
L 75.7803 261.708069 
L 75.293407 261.708069 
L 75.293407 269.019429 
L 74.806514 269.019429 
L 74.806514 273.794194 
L 74.31962 273.794194 
L 74.31962 275.584731 
L 73.832727 275.584731 
L 73.832727 276.48 
L 73.832727 276.48 
z
" clip-path="url(#p9f41249eea)" style="fill: #fa448c; fill-opacity: 0.8"/>
   </g>
   <g id="PolyCollection_2">
    <path d="M 73.832727 276.48 
L 73.832727 276.48 
L 73.832727 276.48 
L 73.832727 275.584731 
L 74.31962 275.584731 
L 74.31962 273.794194 
L 74.806514 273.794194 
L 74.806514 269.019429 
L 75.293407 269.019429 
L 75.293407 261.708069 
L 75.7803 261.708069 
L 75.7803 257.380937 
L 76.267193 257.380937 
L 76.267193 254.396709 
L 76.754086 254.396709 
L 76.754086 252.009326 
L 77.240979 252.009326 
L 77.240979 249.025097 
L 77.727872 249.025097 
L 77.727872 247.532983 
L 78.214765 247.532983 
L 78.214765 246.339291 
L 78.701658 246.339291 
L 78.701658 246.19008 
L 79.188552 246.19008 
L 79.188552 246.040869 
L 79.675445 246.040869 
L 79.675445 245.742446 
L 80.162338 245.742446 
L 80.162338 245.742446 
L 80.649231 245.742446 
L 80.649231 245.593234 
L 81.136124 245.593234 
L 81.136124 245.444023 
L 81.623017 245.444023 
L 81.623017 245.1456 
L 82.596803 245.1456 
L 82.596803 244.548754 
L 83.083697 244.548754 
L 83.083697 244.250331 
L 83.57059 244.250331 
L 83.57059 243.205851 
L 84.057483 243.205851 
L 84.057483 242.310583 
L 84.544376 242.310583 
L 84.544376 241.713737 
L 85.031269 241.713737 
L 85.031269 240.370834 
L 85.518162 240.370834 
L 85.518162 239.773989 
L 86.005055 239.773989 
L 86.005055 239.773989 
L 86.491948 239.773989 
L 86.491948 239.326354 
L 86.978841 239.326354 
L 86.978841 238.87872 
L 87.952628 238.87872 
L 87.952628 238.281874 
L 88.926414 238.281874 
L 88.926414 237.685029 
L 89.413307 237.685029 
L 89.413307 237.386606 
L 89.9002 237.386606 
L 89.9002 237.237394 
L 93.308452 237.237394 
L 93.308452 237.088183 
L 93.795345 237.088183 
L 93.795345 236.78976 
L 94.282238 236.78976 
L 94.282238 236.640549 
L 94.769131 236.640549 
L 94.769131 236.342126 
L 95.256024 236.342126 
L 95.256024 236.043703 
L 95.742918 236.043703 
L 95.742918 235.297646 
L 96.229811 235.297646 
L 96.229811 234.999223 
L 96.716704 234.999223 
L 96.716704 234.850011 
L 97.203597 234.850011 
L 97.203597 234.103954 
L 97.69049 234.103954 
L 97.69049 233.65632 
L 98.177383 233.65632 
L 98.177383 232.910263 
L 98.664276 232.910263 
L 98.664276 232.61184 
L 99.151169 232.61184 
L 99.151169 232.014994 
L 99.638063 232.014994 
L 99.638063 231.716571 
L 100.124956 231.716571 
L 100.124956 231.418149 
L 100.611849 231.418149 
L 100.611849 231.268937 
L 101.098742 231.268937 
L 101.098742 231.119726 
L 101.585635 231.119726 
L 101.585635 230.672091 
L 104.506994 230.672091 
L 104.506994 230.52288 
L 105.967673 230.52288 
L 105.967673 230.373669 
L 106.454566 230.373669 
L 106.454566 230.224457 
L 106.941459 230.224457 
L 106.941459 229.926034 
L 107.915246 229.926034 
L 107.915246 229.627611 
L 108.402139 229.627611 
L 108.402139 229.179977 
L 108.889032 229.179977 
L 108.889032 228.732343 
L 109.375925 228.732343 
L 109.375925 228.43392 
L 109.862818 228.43392 
L 109.862818 228.135497 
L 110.349711 228.135497 
L 110.349711 227.837074 
L 110.836604 227.837074 
L 110.836604 227.837074 
L 111.323497 227.837074 
L 111.323497 227.687863 
L 111.81039 227.687863 
L 111.81039 227.538651 
L 112.297284 227.538651 
L 112.297284 227.38944 
L 112.784177 227.38944 
L 112.784177 227.240229 
L 113.27107 227.240229 
L 113.27107 226.643383 
L 117.653108 226.643383 
L 117.653108 226.34496 
L 118.626894 226.34496 
L 118.626894 226.195749 
L 119.113787 226.195749 
L 119.113787 226.046537 
L 119.60068 226.046537 
L 119.60068 225.748114 
L 120.087573 225.748114 
L 120.087573 225.598903 
L 122.035146 225.598903 
L 122.035146 225.449691 
L 130.312329 225.449691 
L 130.312329 225.30048 
L 131.286115 225.30048 
L 131.286115 225.151269 
L 131.773008 225.151269 
L 131.773008 225.002057 
L 132.746795 225.002057 
L 132.746795 224.554423 
L 133.233688 224.554423 
L 133.233688 224.256 
L 134.694367 224.256 
L 134.694367 223.659154 
L 136.641939 223.659154 
L 136.641939 223.509943 
L 137.128833 223.509943 
L 137.128833 222.763886 
L 141.023978 222.763886 
L 141.023978 222.465463 
L 141.510871 222.465463 
L 141.510871 222.316251 
L 141.997764 222.316251 
L 141.997764 221.719406 
L 142.484657 221.719406 
L 142.484657 221.570194 
L 142.97155 221.570194 
L 142.97155 221.271771 
L 143.458443 221.271771 
L 143.458443 220.973349 
L 143.945336 220.973349 
L 143.945336 220.525714 
L 144.432229 220.525714 
L 144.432229 220.227291 
L 144.919122 220.227291 
L 144.919122 219.928869 
L 145.892909 219.928869 
L 145.892909 219.779657 
L 146.379802 219.779657 
L 146.379802 219.481234 
L 146.866695 219.481234 
L 146.866695 219.182811 
L 147.353588 219.182811 
L 147.353588 218.884389 
L 147.840481 218.884389 
L 147.840481 218.735177 
L 148.327374 218.735177 
L 148.327374 218.436754 
L 149.301161 218.436754 
L 149.301161 218.287543 
L 151.248733 218.287543 
L 151.248733 218.287543 
L 153.196305 218.287543 
L 153.196305 217.98912 
L 154.170092 217.98912 
L 154.170092 217.541486 
L 155.143878 217.541486 
L 155.143878 217.243063 
L 156.117664 217.243063 
L 156.117664 216.94464 
L 156.604557 216.94464 
L 156.604557 216.94464 
L 157.578344 216.94464 
L 157.578344 216.646217 
L 158.065237 216.646217 
L 158.065237 216.497006 
L 158.55213 216.497006 
L 158.55213 216.347794 
L 159.039023 216.347794 
L 159.039023 216.198583 
L 159.525916 216.198583 
L 159.525916 215.90016 
L 160.012809 215.90016 
L 160.012809 215.90016 
L 163.907954 215.90016 
L 163.907954 215.750949 
L 164.394847 215.750949 
L 164.394847 215.750949 
L 164.88174 215.750949 
L 164.88174 215.452526 
L 165.368633 215.452526 
L 165.368633 215.303314 
L 165.855527 215.303314 
L 165.855527 215.154103 
L 166.34242 215.154103 
L 166.34242 214.85568 
L 166.829313 214.85568 
L 166.829313 214.706469 
L 167.316206 214.706469 
L 167.316206 214.557257 
L 168.289992 214.557257 
L 168.289992 214.557257 
L 169.263778 214.557257 
L 169.263778 214.258834 
L 170.237565 214.258834 
L 170.237565 213.512777 
L 170.724458 213.512777 
L 170.724458 213.214354 
L 171.211351 213.214354 
L 171.211351 213.214354 
L 171.698244 213.214354 
L 171.698244 212.76672 
L 172.67203 212.76672 
L 172.67203 212.617509 
L 173.158923 212.617509 
L 173.158923 212.468297 
L 173.645816 212.468297 
L 173.645816 212.169874 
L 175.593389 212.169874 
L 175.593389 212.169874 
L 177.054068 212.169874 
L 177.054068 211.871451 
L 177.540961 211.871451 
L 177.540961 211.72224 
L 179.488534 211.72224 
L 179.488534 211.573029 
L 180.46232 211.573029 
L 180.46232 211.125394 
L 180.949213 211.125394 
L 180.949213 210.230126 
L 181.436106 210.230126 
L 181.436106 209.782491 
L 181.922999 209.782491 
L 181.922999 208.887223 
L 182.409893 208.887223 
L 182.409893 208.5888 
L 182.896786 208.5888 
L 182.896786 208.141166 
L 183.870572 208.141166 
L 183.870572 207.842743 
L 186.791931 207.842743 
L 186.791931 207.693531 
L 187.278824 207.693531 
L 187.278824 207.693531 
L 187.765717 207.693531 
L 187.765717 207.096686 
L 188.739503 207.096686 
L 188.739503 206.947474 
L 189.226396 206.947474 
L 189.226396 206.649051 
L 190.200182 206.649051 
L 190.200182 205.156937 
L 190.687076 205.156937 
L 190.687076 204.858514 
L 192.147755 204.858514 
L 192.147755 204.709303 
L 192.634648 204.709303 
L 192.634648 204.41088 
L 193.608434 204.41088 
L 193.608434 204.41088 
L 194.095327 204.41088 
L 194.095327 203.963246 
L 194.58222 203.963246 
L 194.58222 203.664823 
L 195.069114 203.664823 
L 195.069114 203.664823 
L 195.556007 203.664823 
L 195.556007 203.3664 
L 200.424938 203.3664 
L 200.424938 203.217189 
L 201.398724 203.217189 
L 201.398724 203.067977 
L 201.885617 203.067977 
L 201.885617 202.620343 
L 203.346297 202.620343 
L 203.346297 202.471131 
L 203.83319 202.471131 
L 203.83319 202.172709 
L 204.320083 202.172709 
L 204.320083 202.023497 
L 205.780762 202.023497 
L 205.780762 202.023497 
L 206.267655 202.023497 
L 206.267655 202.023497 
L 211.136586 202.023497 
L 211.136586 202.023497 
L 212.110373 202.023497 
L 212.110373 202.023497 
L 213.084159 202.023497 
L 213.084159 202.023497 
L 213.571052 202.023497 
L 213.571052 202.023497 
L 214.057945 202.023497 
L 214.057945 202.023497 
L 214.544838 202.023497 
L 214.544838 202.023497 
L 215.031731 202.023497 
L 215.031731 202.023497 
L 216.005518 202.023497 
L 216.005518 202.023497 
L 216.979304 202.023497 
L 216.979304 202.023497 
L 217.95309 202.023497 
L 217.95309 202.023497 
L 218.439983 202.023497 
L 218.439983 202.023497 
L 218.926876 202.023497 
L 218.926876 202.023497 
L 222.822021 202.023497 
L 222.822021 202.023497 
L 224.282701 202.023497 
L 224.282701 202.023497 
L 224.769594 202.023497 
L 224.769594 202.023497 
L 226.230273 202.023497 
L 226.230273 202.023497 
L 227.204059 202.023497 
L 227.204059 202.023497 
L 227.690952 202.023497 
L 227.690952 202.023497 
L 228.177846 202.023497 
L 228.177846 202.023497 
L 228.664739 202.023497 
L 228.664739 202.023497 
L 229.638525 202.023497 
L 229.638525 202.023497 
L 234.020563 202.023497 
L 234.020563 202.023497 
L 236.455029 202.023497 
L 236.455029 202.023497 
L 236.941922 202.023497 
L 236.941922 202.023497 
L 238.402601 202.023497 
L 238.402601 202.023497 
L 239.376387 202.023497 
L 239.376387 202.023497 
L 239.86328 202.023497 
L 239.86328 202.023497 
L 240.350174 202.023497 
L 240.350174 202.023497 
L 240.837067 202.023497 
L 240.837067 202.023497 
L 241.32396 202.023497 
L 241.32396 202.023497 
L 241.810853 202.023497 
L 241.810853 202.023497 
L 245.705998 202.023497 
L 245.705998 202.023497 
L 246.679784 202.023497 
L 246.679784 202.023497 
L 247.166677 202.023497 
L 247.166677 202.023497 
L 247.65357 202.023497 
L 247.65357 202.023497 
L 248.140463 202.023497 
L 248.140463 202.023497 
L 248.627357 202.023497 
L 248.627357 202.023497 
L 249.11425 202.023497 
L 249.11425 202.023497 
L 249.601143 202.023497 
L 249.601143 202.023497 
L 250.088036 202.023497 
L 250.088036 202.023497 
L 251.061822 202.023497 
L 251.061822 202.023497 
L 257.391433 202.023497 
L 257.391433 202.023497 
L 259.339005 202.023497 
L 259.339005 202.023497 
L 260.312791 202.023497 
L 260.312791 202.023497 
L 260.799684 202.023497 
L 260.799684 202.023497 
L 262.260364 202.023497 
L 262.260364 202.023497 
L 262.747257 202.023497 
L 262.747257 202.023497 
L 263.23415 202.023497 
L 263.23415 202.023497 
L 264.694829 202.023497 
L 264.694829 202.023497 
L 266.155509 202.023497 
L 266.155509 202.023497 
L 269.563761 202.023497 
L 269.563761 202.023497 
L 270.050654 202.023497 
L 270.050654 202.023497 
L 270.537547 202.023497 
L 270.537547 202.023497 
L 271.02444 202.023497 
L 271.02444 202.023497 
L 271.511333 202.023497 
L 271.511333 202.023497 
L 272.972012 202.023497 
L 272.972012 202.023497 
L 274.432692 202.023497 
L 274.432692 202.023497 
L 275.893371 202.023497 
L 275.893371 202.023497 
L 283.683661 202.023497 
L 283.683661 202.023497 
L 285.631233 202.023497 
L 285.631233 202.023497 
L 286.118127 202.023497 
L 286.118127 202.023497 
L 294.882203 202.023497 
L 294.882203 202.023497 
L 295.369096 202.023497 
L 295.369096 202.023497 
L 295.855989 202.023497 
L 295.855989 202.023497 
L 296.829775 202.023497 
L 296.829775 202.023497 
L 297.316668 202.023497 
L 297.316668 202.023497 
L 297.803561 202.023497 
L 297.803561 202.023497 
L 298.777348 202.023497 
L 298.777348 202.023497 
L 303.159386 202.023497 
L 303.159386 202.023497 
L 304.133172 202.023497 
L 304.133172 202.023497 
L 305.593851 202.023497 
L 305.593851 202.023497 
L 306.567638 202.023497 
L 306.567638 202.023497 
L 308.51521 202.023497 
L 308.51521 202.023497 
L 311.436569 202.023497 
L 311.436569 202.023497 
L 317.766179 202.023497 
L 317.766179 202.023497 
L 318.253072 202.023497 
L 318.253072 202.023497 
L 319.713752 202.023497 
L 319.713752 202.023497 
L 320.687538 202.023497 
L 320.687538 202.023497 
L 321.174431 202.023497 
L 321.174431 202.023497 
L 322.148217 202.023497 
L 322.148217 202.023497 
L 326.530255 202.023497 
L 326.530255 202.023497 
L 327.990935 202.023497 
L 327.990935 202.023497 
L 328.964721 202.023497 
L 328.964721 202.023497 
L 329.451614 202.023497 
L 329.451614 202.023497 
L 329.938507 202.023497 
L 329.938507 202.023497 
L 331.88608 202.023497 
L 331.88608 202.023497 
L 333.346759 202.023497 
L 333.346759 202.023497 
L 333.833652 202.023497 
L 333.833652 202.023497 
L 334.320545 202.023497 
L 334.320545 202.023497 
L 334.807438 202.023497 
L 334.807438 202.023497 
L 339.67637 202.023497 
L 339.67637 202.023497 
L 340.650156 202.023497 
L 340.650156 202.023497 
L 343.084621 202.023497 
L 343.084621 202.023497 
L 345.519087 202.023497 
L 345.519087 202.023497 
L 346.00598 202.023497 
L 346.00598 202.023497 
L 346.492873 202.023497 
L 346.492873 202.023497 
L 347.466659 202.023497 
L 347.466659 202.023497 
L 349.901125 202.023497 
L 349.901125 202.023497 
L 350.874911 202.023497 
L 350.874911 202.023497 
L 352.822484 202.023497 
L 352.822484 202.023497 
L 356.717629 202.023497 
L 356.717629 202.023497 
L 358.665201 202.023497 
L 358.665201 202.023497 
L 361.531702 202.023497 
L 361.531702 200.083749 
L 361.731306 200.083749 
L 361.731306 200.083749 
L 361.905499 200.083749 
L 361.905499 200.083749 
L 362.250866 200.083749 
L 362.250866 200.083749 
L 362.469887 200.083749 
L 362.469887 200.083749 
L 362.699747 200.083749 
L 362.699747 200.083749 
L 362.87189 200.083749 
L 362.87189 200.083749 
L 363.226922 200.083749 
L 363.226922 200.083749 
L 363.420473 200.083749 
L 363.420473 200.083749 
L 363.681024 200.083749 
L 363.681024 200.083749 
L 363.872469 200.083749 
L 363.872469 200.083749 
L 364.177258 200.083749 
L 364.177258 200.083749 
L 364.368922 200.083749 
L 364.368922 200.083749 
L 364.627006 200.083749 
L 364.627006 200.083749 
L 364.807635 200.083749 
L 364.807635 200.083749 
L 365.230477 200.083749 
L 365.230477 200.083749 
L 365.504963 200.083749 
L 365.504963 200.083749 
L 365.82112 200.083749 
L 365.82112 200.083749 
L 365.84518 200.083749 
L 365.84518 200.083749 
L 365.859353 200.083749 
L 365.859353 200.083749 
L 366.099776 200.083749 
L 366.099776 200.083749 
L 366.283505 200.083749 
L 366.283505 200.083749 
L 366.606345 200.083749 
L 366.606345 200.083749 
L 366.815052 200.083749 
L 366.815052 200.083749 
L 367.166372 200.083749 
L 367.166372 200.083749 
L 367.860692 200.083749 
L 367.860692 200.083749 
L 367.88079 200.083749 
L 367.88079 200.083749 
L 367.905627 200.083749 
L 367.905627 200.083749 
L 368.088082 200.083749 
L 368.088082 200.083749 
L 368.294549 200.083749 
L 368.294549 200.083749 
L 368.51878 200.083749 
L 368.51878 200.083749 
L 368.703557 200.083749 
L 368.703557 200.083749 
L 369.042698 200.083749 
L 369.042698 200.083749 
L 369.499737 200.083749 
L 369.499737 200.083749 
L 374.908511 200.083749 
L 374.908511 200.083749 
L 376.311688 200.083749 
L 376.311688 200.083749 
L 377.507547 200.083749 
L 377.507547 200.083749 
L 377.785045 200.083749 
L 377.785045 200.083749 
L 379.146264 200.083749 
L 379.146264 200.083749 
L 379.491422 200.083749 
L 379.491422 200.083749 
L 379.770305 200.083749 
L 379.770305 200.083749 
L 380.205647 200.083749 
L 380.205647 200.083749 
L 387.558659 200.083749 
L 387.558659 200.083749 
L 390.549307 200.083749 
L 390.549307 200.083749 
L 392.603972 200.083749 
L 392.603972 200.083749 
L 392.87634 200.083749 
L 392.87634 200.083749 
L 393.871156 200.083749 
L 393.871156 200.083749 
L 394.727817 200.083749 
L 394.727817 200.083749 
L 398.487273 200.083749 
L 398.487273 200.083749 
L 398.487273 147.859749 
L 398.487273 147.859749 
L 398.487273 147.859749 
L 394.727817 147.859749 
L 394.727817 148.00896 
L 393.871156 148.00896 
L 393.871156 146.367634 
L 392.87634 146.367634 
L 392.87634 146.815269 
L 392.603972 146.815269 
L 392.603972 146.96448 
L 390.549307 146.96448 
L 390.549307 147.113691 
L 387.558659 147.113691 
L 387.558659 147.262903 
L 380.205647 147.262903 
L 380.205647 147.561326 
L 379.770305 147.561326 
L 379.770305 147.710537 
L 379.491422 147.710537 
L 379.491422 148.00896 
L 379.146264 148.00896 
L 379.146264 148.158171 
L 377.785045 148.158171 
L 377.785045 148.307383 
L 377.507547 148.307383 
L 377.507547 148.456594 
L 376.311688 148.456594 
L 376.311688 148.605806 
L 374.908511 148.605806 
L 374.908511 148.755017 
L 369.499737 148.755017 
L 369.499737 149.05344 
L 369.042698 149.05344 
L 369.042698 149.202651 
L 368.703557 149.202651 
L 368.703557 149.202651 
L 368.51878 149.202651 
L 368.51878 149.202651 
L 368.294549 149.202651 
L 368.294549 149.202651 
L 368.088082 149.202651 
L 368.088082 149.202651 
L 367.905627 149.202651 
L 367.905627 149.202651 
L 367.88079 149.202651 
L 367.88079 149.202651 
L 367.860692 149.202651 
L 367.860692 149.202651 
L 367.166372 149.202651 
L 367.166372 149.202651 
L 366.815052 149.202651 
L 366.815052 149.202651 
L 366.606345 149.202651 
L 366.606345 149.202651 
L 366.283505 149.202651 
L 366.283505 149.202651 
L 366.099776 149.202651 
L 366.099776 149.202651 
L 365.859353 149.202651 
L 365.859353 149.202651 
L 365.84518 149.202651 
L 365.84518 149.202651 
L 365.82112 149.202651 
L 365.82112 149.202651 
L 365.504963 149.202651 
L 365.504963 149.501074 
L 365.230477 149.501074 
L 365.230477 149.650286 
L 364.807635 149.650286 
L 364.807635 149.650286 
L 364.627006 149.650286 
L 364.627006 150.247131 
L 364.368922 150.247131 
L 364.368922 150.396343 
L 364.177258 150.396343 
L 364.177258 150.396343 
L 363.872469 150.396343 
L 363.872469 150.396343 
L 363.681024 150.396343 
L 363.681024 150.396343 
L 363.420473 150.396343 
L 363.420473 150.396343 
L 363.226922 150.396343 
L 363.226922 150.396343 
L 362.87189 150.396343 
L 362.87189 150.396343 
L 362.699747 150.396343 
L 362.699747 150.396343 
L 362.469887 150.396343 
L 362.469887 150.396343 
L 362.250866 150.396343 
L 362.250866 150.396343 
L 361.905499 150.396343 
L 361.905499 150.396343 
L 361.731306 150.396343 
L 361.731306 150.396343 
L 361.531702 150.396343 
L 361.531702 153.828206 
L 358.665201 153.828206 
L 358.665201 153.977417 
L 356.717629 153.977417 
L 356.717629 153.977417 
L 352.822484 153.977417 
L 352.822484 154.126629 
L 350.874911 154.126629 
L 350.874911 154.27584 
L 349.901125 154.27584 
L 349.901125 154.425051 
L 347.466659 154.425051 
L 347.466659 154.872686 
L 346.492873 154.872686 
L 346.492873 154.872686 
L 346.00598 154.872686 
L 346.00598 155.171109 
L 345.519087 155.171109 
L 345.519087 156.514011 
L 343.084621 156.514011 
L 343.084621 156.961646 
L 340.650156 156.961646 
L 340.650156 157.110857 
L 339.67637 157.110857 
L 339.67637 157.260069 
L 334.807438 157.260069 
L 334.807438 157.707703 
L 334.320545 157.707703 
L 334.320545 158.155337 
L 333.833652 158.155337 
L 333.833652 158.45376 
L 333.346759 158.45376 
L 333.346759 158.602971 
L 331.88608 158.602971 
L 331.88608 158.752183 
L 329.938507 158.752183 
L 329.938507 158.752183 
L 329.451614 158.752183 
L 329.451614 158.901394 
L 328.964721 158.901394 
L 328.964721 159.050606 
L 327.990935 159.050606 
L 327.990935 159.199817 
L 326.530255 159.199817 
L 326.530255 159.349029 
L 322.148217 159.349029 
L 322.148217 159.49824 
L 321.174431 159.49824 
L 321.174431 159.796663 
L 320.687538 159.796663 
L 320.687538 160.095086 
L 319.713752 160.095086 
L 319.713752 160.54272 
L 318.253072 160.54272 
L 318.253072 160.691931 
L 317.766179 160.691931 
L 317.766179 160.691931 
L 311.436569 160.691931 
L 311.436569 160.841143 
L 308.51521 160.841143 
L 308.51521 160.990354 
L 306.567638 160.990354 
L 306.567638 161.288777 
L 305.593851 161.288777 
L 305.593851 161.288777 
L 304.133172 161.288777 
L 304.133172 161.5872 
L 303.159386 161.5872 
L 303.159386 161.5872 
L 298.777348 161.5872 
L 298.777348 161.885623 
L 297.803561 161.885623 
L 297.803561 162.034834 
L 297.316668 162.034834 
L 297.316668 162.333257 
L 296.829775 162.333257 
L 296.829775 162.333257 
L 295.855989 162.333257 
L 295.855989 162.333257 
L 295.369096 162.333257 
L 295.369096 162.780891 
L 294.882203 162.780891 
L 294.882203 162.780891 
L 286.118127 162.780891 
L 286.118127 162.930103 
L 285.631233 162.930103 
L 285.631233 163.079314 
L 283.683661 163.079314 
L 283.683661 163.228526 
L 275.893371 163.228526 
L 275.893371 163.377737 
L 274.432692 163.377737 
L 274.432692 163.526949 
L 272.972012 163.526949 
L 272.972012 163.974583 
L 271.511333 163.974583 
L 271.511333 164.72064 
L 271.02444 164.72064 
L 271.02444 165.019063 
L 270.537547 165.019063 
L 270.537547 165.168274 
L 270.050654 165.168274 
L 270.050654 165.168274 
L 269.563761 165.168274 
L 269.563761 165.317486 
L 266.155509 165.317486 
L 266.155509 165.317486 
L 264.694829 165.317486 
L 264.694829 165.914331 
L 263.23415 165.914331 
L 263.23415 166.063543 
L 262.747257 166.063543 
L 262.747257 166.511177 
L 262.260364 166.511177 
L 262.260364 166.660389 
L 260.799684 166.660389 
L 260.799684 166.8096 
L 260.312791 166.8096 
L 260.312791 167.108023 
L 259.339005 167.108023 
L 259.339005 167.108023 
L 257.391433 167.108023 
L 257.391433 167.406446 
L 251.061822 167.406446 
L 251.061822 167.406446 
L 250.088036 167.406446 
L 250.088036 167.555657 
L 249.601143 167.555657 
L 249.601143 167.704869 
L 249.11425 167.704869 
L 249.11425 167.85408 
L 248.627357 167.85408 
L 248.627357 168.003291 
L 248.140463 168.003291 
L 248.140463 168.152503 
L 247.65357 168.152503 
L 247.65357 168.450926 
L 247.166677 168.450926 
L 247.166677 169.495406 
L 246.679784 169.495406 
L 246.679784 170.092251 
L 245.705998 170.092251 
L 245.705998 170.539886 
L 241.810853 170.539886 
L 241.810853 170.689097 
L 241.32396 170.689097 
L 241.32396 170.838309 
L 240.837067 170.838309 
L 240.837067 171.136731 
L 240.350174 171.136731 
L 240.350174 171.584366 
L 239.86328 171.584366 
L 239.86328 172.181211 
L 239.376387 172.181211 
L 239.376387 172.927269 
L 238.402601 172.927269 
L 238.402601 173.374903 
L 236.941922 173.374903 
L 236.941922 173.524114 
L 236.455029 173.524114 
L 236.455029 173.822537 
L 234.020563 173.822537 
L 234.020563 173.971749 
L 229.638525 173.971749 
L 229.638525 174.12096 
L 228.664739 174.12096 
L 228.664739 174.270171 
L 228.177846 174.270171 
L 228.177846 174.419383 
L 227.690952 174.419383 
L 227.690952 174.568594 
L 227.204059 174.568594 
L 227.204059 174.867017 
L 226.230273 174.867017 
L 226.230273 175.463863 
L 224.769594 175.463863 
L 224.769594 175.613074 
L 224.282701 175.613074 
L 224.282701 175.762286 
L 222.822021 175.762286 
L 222.822021 176.060709 
L 218.926876 176.060709 
L 218.926876 176.20992 
L 218.439983 176.20992 
L 218.439983 176.359131 
L 217.95309 176.359131 
L 217.95309 176.359131 
L 216.979304 176.359131 
L 216.979304 176.508343 
L 216.005518 176.508343 
L 216.005518 176.657554 
L 215.031731 176.657554 
L 215.031731 177.2544 
L 214.544838 177.2544 
L 214.544838 177.851246 
L 214.057945 177.851246 
L 214.057945 178.149669 
L 213.571052 178.149669 
L 213.571052 178.448091 
L 213.084159 178.448091 
L 213.084159 178.746514 
L 212.110373 178.746514 
L 212.110373 179.044937 
L 211.136586 179.044937 
L 211.136586 179.194149 
L 206.267655 179.194149 
L 206.267655 179.492571 
L 205.780762 179.492571 
L 205.780762 179.940206 
L 204.320083 179.940206 
L 204.320083 180.089417 
L 203.83319 180.089417 
L 203.83319 180.537051 
L 203.346297 180.537051 
L 203.346297 180.686263 
L 201.885617 180.686263 
L 201.885617 181.133897 
L 201.398724 181.133897 
L 201.398724 181.283109 
L 200.424938 181.283109 
L 200.424938 181.43232 
L 195.556007 181.43232 
L 195.556007 182.029166 
L 195.069114 182.029166 
L 195.069114 182.029166 
L 194.58222 182.029166 
L 194.58222 182.4768 
L 194.095327 182.4768 
L 194.095327 182.924434 
L 193.608434 182.924434 
L 193.608434 183.073646 
L 192.634648 183.073646 
L 192.634648 183.670491 
L 192.147755 183.670491 
L 192.147755 183.819703 
L 190.687076 183.819703 
L 190.687076 184.118126 
L 190.200182 184.118126 
L 190.200182 185.759451 
L 189.226396 185.759451 
L 189.226396 186.057874 
L 188.739503 186.057874 
L 188.739503 186.207086 
L 187.765717 186.207086 
L 187.765717 186.803931 
L 187.278824 186.803931 
L 187.278824 186.953143 
L 186.791931 186.953143 
L 186.791931 187.102354 
L 183.870572 187.102354 
L 183.870572 187.400777 
L 182.896786 187.400777 
L 182.896786 187.848411 
L 182.409893 187.848411 
L 182.409893 188.445257 
L 181.922999 188.445257 
L 181.922999 189.340526 
L 181.436106 189.340526 
L 181.436106 189.937371 
L 180.949213 189.937371 
L 180.949213 190.83264 
L 180.46232 190.83264 
L 180.46232 192.026331 
L 179.488534 192.026331 
L 179.488534 192.175543 
L 177.540961 192.175543 
L 177.540961 192.324754 
L 177.054068 192.324754 
L 177.054068 192.623177 
L 175.593389 192.623177 
L 175.593389 192.772389 
L 173.645816 192.772389 
L 173.645816 193.070811 
L 173.158923 193.070811 
L 173.158923 193.220023 
L 172.67203 193.220023 
L 172.67203 193.369234 
L 171.698244 193.369234 
L 171.698244 193.816869 
L 171.211351 193.816869 
L 171.211351 194.264503 
L 170.724458 194.264503 
L 170.724458 194.861349 
L 170.237565 194.861349 
L 170.237565 195.607406 
L 169.263778 195.607406 
L 169.263778 195.905829 
L 168.289992 195.905829 
L 168.289992 196.05504 
L 167.316206 196.05504 
L 167.316206 196.204251 
L 166.829313 196.204251 
L 166.829313 196.502674 
L 166.34242 196.502674 
L 166.34242 196.801097 
L 165.855527 196.801097 
L 165.855527 196.950309 
L 165.368633 196.950309 
L 165.368633 197.09952 
L 164.88174 197.09952 
L 164.88174 197.397943 
L 164.394847 197.397943 
L 164.394847 197.547154 
L 163.907954 197.547154 
L 163.907954 197.696366 
L 160.012809 197.696366 
L 160.012809 197.845577 
L 159.525916 197.845577 
L 159.525916 198.144 
L 159.039023 198.144 
L 159.039023 198.293211 
L 158.55213 198.293211 
L 158.55213 198.442423 
L 158.065237 198.442423 
L 158.065237 198.591634 
L 157.578344 198.591634 
L 157.578344 199.337691 
L 156.604557 199.337691 
L 156.604557 199.486903 
L 156.117664 199.486903 
L 156.117664 199.934537 
L 155.143878 199.934537 
L 155.143878 200.23296 
L 154.170092 200.23296 
L 154.170092 200.979017 
L 153.196305 200.979017 
L 153.196305 201.575863 
L 151.248733 201.575863 
L 151.248733 201.874286 
L 149.301161 201.874286 
L 149.301161 202.023497 
L 148.327374 202.023497 
L 148.327374 202.32192 
L 147.840481 202.32192 
L 147.840481 202.620343 
L 147.353588 202.620343 
L 147.353588 203.067977 
L 146.866695 203.067977 
L 146.866695 203.3664 
L 146.379802 203.3664 
L 146.379802 203.814034 
L 145.892909 203.814034 
L 145.892909 203.963246 
L 144.919122 203.963246 
L 144.919122 204.261669 
L 144.432229 204.261669 
L 144.432229 204.560091 
L 143.945336 204.560091 
L 143.945336 205.156937 
L 143.458443 205.156937 
L 143.458443 205.45536 
L 142.97155 205.45536 
L 142.97155 205.753783 
L 142.484657 205.753783 
L 142.484657 205.902994 
L 141.997764 205.902994 
L 141.997764 206.649051 
L 141.510871 206.649051 
L 141.510871 206.798263 
L 141.023978 206.798263 
L 141.023978 207.096686 
L 137.128833 207.096686 
L 137.128833 207.991954 
L 136.641939 207.991954 
L 136.641939 208.141166 
L 134.694367 208.141166 
L 134.694367 209.036434 
L 133.233688 209.036434 
L 133.233688 209.334857 
L 132.746795 209.334857 
L 132.746795 209.931703 
L 131.773008 209.931703 
L 131.773008 210.080914 
L 131.286115 210.080914 
L 131.286115 210.230126 
L 130.312329 210.230126 
L 130.312329 210.379337 
L 122.035146 210.379337 
L 122.035146 210.528549 
L 120.087573 210.528549 
L 120.087573 210.67776 
L 119.60068 210.67776 
L 119.60068 210.976183 
L 119.113787 210.976183 
L 119.113787 211.125394 
L 118.626894 211.125394 
L 118.626894 211.274606 
L 117.653108 211.274606 
L 117.653108 211.573029 
L 113.27107 211.573029 
L 113.27107 212.319086 
L 112.784177 212.319086 
L 112.784177 213.065143 
L 112.297284 213.065143 
L 112.297284 213.214354 
L 111.81039 213.214354 
L 111.81039 213.363566 
L 111.323497 213.363566 
L 111.323497 213.512777 
L 110.836604 213.512777 
L 110.836604 213.661989 
L 110.349711 213.661989 
L 110.349711 214.109623 
L 109.862818 214.109623 
L 109.862818 214.408046 
L 109.375925 214.408046 
L 109.375925 214.85568 
L 108.889032 214.85568 
L 108.889032 215.303314 
L 108.402139 215.303314 
L 108.402139 215.750949 
L 107.915246 215.750949 
L 107.915246 216.049371 
L 106.941459 216.049371 
L 106.941459 216.795429 
L 106.454566 216.795429 
L 106.454566 216.94464 
L 105.967673 216.94464 
L 105.967673 217.093851 
L 104.506994 217.093851 
L 104.506994 217.243063 
L 101.585635 217.243063 
L 101.585635 217.690697 
L 101.098742 217.690697 
L 101.098742 217.98912 
L 100.611849 217.98912 
L 100.611849 218.138331 
L 100.124956 218.138331 
L 100.124956 219.182811 
L 99.638063 219.182811 
L 99.638063 219.481234 
L 99.151169 219.481234 
L 99.151169 220.07808 
L 98.664276 220.07808 
L 98.664276 220.525714 
L 98.177383 220.525714 
L 98.177383 221.420983 
L 97.69049 221.420983 
L 97.69049 221.868617 
L 97.203597 221.868617 
L 97.203597 222.614674 
L 96.716704 222.614674 
L 96.716704 222.763886 
L 96.229811 222.763886 
L 96.229811 223.21152 
L 95.742918 223.21152 
L 95.742918 223.957577 
L 95.256024 223.957577 
L 95.256024 224.256 
L 94.769131 224.256 
L 94.769131 224.554423 
L 94.282238 224.554423 
L 94.282238 224.703634 
L 93.795345 224.703634 
L 93.795345 225.151269 
L 93.308452 225.151269 
L 93.308452 225.30048 
L 89.9002 225.30048 
L 89.9002 225.449691 
L 89.413307 225.449691 
L 89.413307 225.748114 
L 88.926414 225.748114 
L 88.926414 226.34496 
L 87.952628 226.34496 
L 87.952628 226.941806 
L 86.978841 226.941806 
L 86.978841 227.38944 
L 86.491948 227.38944 
L 86.491948 227.986286 
L 86.005055 227.986286 
L 86.005055 228.284709 
L 85.518162 228.284709 
L 85.518162 228.881554 
L 85.031269 228.881554 
L 85.031269 230.373669 
L 84.544376 230.373669 
L 84.544376 231.268937 
L 84.057483 231.268937 
L 84.057483 233.208686 
L 83.57059 233.208686 
L 83.57059 234.253166 
L 83.083697 234.253166 
L 83.083697 235.446857 
L 82.596803 235.446857 
L 82.596803 236.192914 
L 81.623017 236.192914 
L 81.623017 236.938971 
L 81.136124 236.938971 
L 81.136124 237.088183 
L 80.649231 237.088183 
L 80.649231 237.237394 
L 80.162338 237.237394 
L 80.162338 237.386606 
L 79.675445 237.386606 
L 79.675445 237.685029 
L 79.188552 237.685029 
L 79.188552 237.83424 
L 78.701658 237.83424 
L 78.701658 237.983451 
L 78.214765 237.983451 
L 78.214765 239.177143 
L 77.727872 239.177143 
L 77.727872 241.564526 
L 77.240979 241.564526 
L 77.240979 245.593234 
L 76.754086 245.593234 
L 76.754086 248.428251 
L 76.267193 248.428251 
L 76.267193 252.158537 
L 75.7803 252.158537 
L 75.7803 257.380937 
L 75.293407 257.380937 
L 75.293407 266.0352 
L 74.806514 266.0352 
L 74.806514 272.749714 
L 74.31962 272.749714 
L 74.31962 275.43552 
L 73.832727 275.43552 
L 73.832727 276.48 
L 73.832727 276.48 
z
" clip-path="url(#p9f41249eea)" style="fill: #43b5a0; fill-opacity: 0.8"/>
   </g>
   <g id="matplotlib.axis_1">
    <g id="xtick_1">
     <g id="line2d_1">
      <defs>
       <path id="m26df729e87" d="M 0 0 
L 0 3.5 
" style="stroke: #ffffff; stroke-width: 0.8"/>
      </defs>
      <g>
       <use xlink:href="#m26df729e87" x="102.072528" y="276.48" style="fill: #ffffff; stroke: #ffffff; stroke-width: 0.8"/>
      </g>
     </g>
     <g id="text_1">
      <!-- Fri 12/24 -->
      <g style="fill: #ffffff" transform="translate(63.003344 312.01669)rotate(-30)scale(0.1 -0.1)">
       <defs>
        <path id="DejaVuSans-46" d="M 628 4666 
L 3309 4666 
L 3309 4134 
L 1259 4134 
L 1259 2759 
L 3109 2759 
L 3109 2228 
L 1259 2228 
L 1259 0 
L 628 0 
L 628 4666 
z
" transform="scale(0.015625)"/>
        <path id="DejaVuSans-72" d="M 2631 2963 
Q 2534 3019 2420 3045 
Q 2306 3072 2169 3072 
Q 1681 3072 1420 2755 
Q 1159 2438 1159 1844 
L 1159 0 
L 581 0 
L 581 3500 
L 1159 3500 
L 1159 2956 
Q 1341 3275 1631 3429 
Q 1922 3584 2338 3584 
Q 2397 3584 2469 3576 
Q 2541 3569 2628 3553 
L 2631 2963 
z
" transform="scale(0.015625)"/>
        <path id="DejaVuSans-69" d="M 603 3500 
L 1178 3500 
L 1178 0 
L 603 0 
L 603 3500 
z
M 603 4863 
L 1178 4863 
L 1178 4134 
L 603 4134 
L 603 4863 
z
" transform="scale(0.015625)"/>
        <path id="DejaVuSans-20" transform="scale(0.015625)"/>
        <path id="DejaVuSans-31" d="M 794 531 
L 1825 531 
L 1825 4091 
L 703 3866 
L 703 4441 
L 1819 4666 
L 2450 4666 
L 2450 531 
L 3481 531 
L 3481 0 
L 794 0 
L 794 531 
z
" transform="scale(0.015625)"/>
        <path id="DejaVuSans-32" d="M 1228 531 
L 3431 531 
L 3431 0 
L 469 0 
L 469 531 
Q 828 903 1448 1529 
Q 2069 2156 2228 2338 
Q 2531 2678 2651 2914 
Q 2772 3150 2772 3378 
Q 2772 3750 2511 3984 
Q 2250 4219 1831 4219 
Q 1534 4219 1204 4116 
Q 875 4013 500 3803 
L 500 4441 
Q 881 4594 1212 4672 
Q 1544 4750 1819 4750 
Q 2544 4750 2975 4387 
Q 3406 4025 3406 3419 
Q 3406 3131 3298 2873 
Q 3191 2616 2906 2266 
Q 2828 2175 2409 1742 
Q 1991 1309 1228 531 
z
" transform="scale(0.015625)"/>
        <path id="DejaVuSans-2f" d="M 1625 4666 
L 2156 4666 
L 531 -594 
L 0 -594 
L 1625 4666 
z
" transform="scale(0.015625)"/>
        <path id="DejaVuSans-34" d="M 2419 4116 
L 825 1625 
L 2419 1625 
L 2419 4116 
z
M 2253 4666 
L 3047 4666 
L 3047 1625 
L 3713 1625 
L 3713 1100 
L 3047 1100 
L 3047 0 
L 2419 0 
L 2419 1100 
L 313 1100 
L 313 1709 
L 2253 4666 
z
" transform="scale(0.015625)"/>
       </defs>
       <use xlink:href="#DejaVuSans-46"/>
       <use xlink:href="#DejaVuSans-72" x="50.269531"/>
       <use xlink:href="#DejaVuSans-69" x="91.382812"/>
       <use xlink:href="#DejaVuSans-20" x="119.166016"/>
       <use xlink:href="#DejaVuSans-31" x="150.953125"/>
       <use xlink:href="#DejaVuSans-32" x="214.576172"/>
       <use xlink:href="#DejaVuSans-2f" x="278.199219"/>
       <use xlink:href="#DejaVuSans-32" x="311.890625"/>
       <use xlink:href="#DejaVuSans-34" x="375.513672"/>
      </g>
     </g>
    </g>
    <g id="xtick_2">
     <g id="line2d_2">
      <g>
       <use xlink:href="#m26df729e87" x="137.128833" y="276.48" style="fill: #ffffff; stroke: #ffffff; stroke-width: 0.8"/>
      </g>
     </g>
     <g id="text_2">
      <!-- Mon 12/27 -->
      <g style="fill: #ffffff" transform="translate(90.119278 316.601065)rotate(-30)scale(0.1 -0.1)">
       <defs>
        <path id="DejaVuSans-4d" d="M 628 4666 
L 1569 4666 
L 2759 1491 
L 3956 4666 
L 4897 4666 
L 4897 0 
L 4281 0 
L 4281 4097 
L 3078 897 
L 2444 897 
L 1241 4097 
L 1241 0 
L 628 0 
L 628 4666 
z
" transform="scale(0.015625)"/>
        <path id="DejaVuSans-6f" d="M 1959 3097 
Q 1497 3097 1228 2736 
Q 959 2375 959 1747 
Q 959 1119 1226 758 
Q 1494 397 1959 397 
Q 2419 397 2687 759 
Q 2956 1122 2956 1747 
Q 2956 2369 2687 2733 
Q 2419 3097 1959 3097 
z
M 1959 3584 
Q 2709 3584 3137 3096 
Q 3566 2609 3566 1747 
Q 3566 888 3137 398 
Q 2709 -91 1959 -91 
Q 1206 -91 779 398 
Q 353 888 353 1747 
Q 353 2609 779 3096 
Q 1206 3584 1959 3584 
z
" transform="scale(0.015625)"/>
        <path id="DejaVuSans-6e" d="M 3513 2113 
L 3513 0 
L 2938 0 
L 2938 2094 
Q 2938 2591 2744 2837 
Q 2550 3084 2163 3084 
Q 1697 3084 1428 2787 
Q 1159 2491 1159 1978 
L 1159 0 
L 581 0 
L 581 3500 
L 1159 3500 
L 1159 2956 
Q 1366 3272 1645 3428 
Q 1925 3584 2291 3584 
Q 2894 3584 3203 3211 
Q 3513 2838 3513 2113 
z
" transform="scale(0.015625)"/>
        <path id="DejaVuSans-37" d="M 525 4666 
L 3525 4666 
L 3525 4397 
L 1831 0 
L 1172 0 
L 2766 4134 
L 525 4134 
L 525 4666 
z
" transform="scale(0.015625)"/>
       </defs>
       <use xlink:href="#DejaVuSans-4d"/>
       <use xlink:href="#DejaVuSans-6f" x="86.279297"/>
       <use xlink:href="#DejaVuSans-6e" x="147.460938"/>
       <use xlink:href="#DejaVuSans-20" x="210.839844"/>
       <use xlink:href="#DejaVuSans-31" x="242.626953"/>
       <use xlink:href="#DejaVuSans-32" x="306.25"/>
       <use xlink:href="#DejaVuSans-2f" x="369.873047"/>
       <use xlink:href="#DejaVuSans-32" x="403.564453"/>
       <use xlink:href="#DejaVuSans-37" x="467.1875"/>
      </g>
     </g>
    </g>
    <g id="xtick_3">
     <g id="line2d_3">
      <g>
       <use xlink:href="#m26df729e87" x="183.870572" y="276.48" style="fill: #ffffff; stroke: #ffffff; stroke-width: 0.8"/>
      </g>
     </g>
     <g id="text_3">
      <!-- Fri 12/31 -->
      <g style="fill: #ffffff" transform="translate(144.801388 312.01669)rotate(-30)scale(0.1 -0.1)">
       <defs>
        <path id="DejaVuSans-33" d="M 2597 2516 
Q 3050 2419 3304 2112 
Q 3559 1806 3559 1356 
Q 3559 666 3084 287 
Q 2609 -91 1734 -91 
Q 1441 -91 1130 -33 
Q 819 25 488 141 
L 488 750 
Q 750 597 1062 519 
Q 1375 441 1716 441 
Q 2309 441 2620 675 
Q 2931 909 2931 1356 
Q 2931 1769 2642 2001 
Q 2353 2234 1838 2234 
L 1294 2234 
L 1294 2753 
L 1863 2753 
Q 2328 2753 2575 2939 
Q 2822 3125 2822 3475 
Q 2822 3834 2567 4026 
Q 2313 4219 1838 4219 
Q 1578 4219 1281 4162 
Q 984 4106 628 3988 
L 628 4550 
Q 988 4650 1302 4700 
Q 1616 4750 1894 4750 
Q 2613 4750 3031 4423 
Q 3450 4097 3450 3541 
Q 3450 3153 3228 2886 
Q 3006 2619 2597 2516 
z
" transform="scale(0.015625)"/>
       </defs>
       <use xlink:href="#DejaVuSans-46"/>
       <use xlink:href="#DejaVuSans-72" x="50.269531"/>
       <use xlink:href="#DejaVuSans-69" x="91.382812"/>
       <use xlink:href="#DejaVuSans-20" x="119.166016"/>
       <use xlink:href="#DejaVuSans-31" x="150.953125"/>
       <use xlink:href="#DejaVuSans-32" x="214.576172"/>
       <use xlink:href="#DejaVuSans-2f" x="278.199219"/>
       <use xlink:href="#DejaVuSans-33" x="311.890625"/>
       <use xlink:href="#DejaVuSans-31" x="375.513672"/>
      </g>
     </g>
    </g>
    <g id="xtick_4">
     <g id="line2d_4">
      <g>
       <use xlink:href="#m26df729e87" x="218.926876" y="276.48" style="fill: #ffffff; stroke: #ffffff; stroke-width: 0.8"/>
      </g>
     </g>
     <g id="text_4">
      <!-- Mon 01/03 -->
      <g style="fill: #ffffff" transform="translate(171.917322 316.601065)rotate(-30)scale(0.1 -0.1)">
       <defs>
        <path id="DejaVuSans-30" d="M 2034 4250 
Q 1547 4250 1301 3770 
Q 1056 3291 1056 2328 
Q 1056 1369 1301 889 
Q 1547 409 2034 409 
Q 2525 409 2770 889 
Q 3016 1369 3016 2328 
Q 3016 3291 2770 3770 
Q 2525 4250 2034 4250 
z
M 2034 4750 
Q 2819 4750 3233 4129 
Q 3647 3509 3647 2328 
Q 3647 1150 3233 529 
Q 2819 -91 2034 -91 
Q 1250 -91 836 529 
Q 422 1150 422 2328 
Q 422 3509 836 4129 
Q 1250 4750 2034 4750 
z
" transform="scale(0.015625)"/>
       </defs>
       <use xlink:href="#DejaVuSans-4d"/>
       <use xlink:href="#DejaVuSans-6f" x="86.279297"/>
       <use xlink:href="#DejaVuSans-6e" x="147.460938"/>
       <use xlink:href="#DejaVuSans-20" x="210.839844"/>
       <use xlink:href="#DejaVuSans-30" x="242.626953"/>
       <use xlink:href="#DejaVuSans-31" x="306.25"/>
       <use xlink:href="#DejaVuSans-2f" x="369.873047"/>
       <use xlink:href="#DejaVuSans-30" x="403.564453"/>
       <use xlink:href="#DejaVuSans-33" x="467.1875"/>
      </g>
     </g>
    </g>
    <g id="xtick_5">
     <g id="line2d_5">
      <g>
       <use xlink:href="#m26df729e87" x="265.668616" y="276.48" style="fill: #ffffff; stroke: #ffffff; stroke-width: 0.8"/>
      </g>
     </g>
     <g id="text_5">
      <!-- Fri 01/07 -->
      <g style="fill: #ffffff" transform="translate(226.599431 312.01669)rotate(-30)scale(0.1 -0.1)">
       <use xlink:href="#DejaVuSans-46"/>
       <use xlink:href="#DejaVuSans-72" x="50.269531"/>
       <use xlink:href="#DejaVuSans-69" x="91.382812"/>
       <use xlink:href="#DejaVuSans-20" x="119.166016"/>
       <use xlink:href="#DejaVuSans-30" x="150.953125"/>
       <use xlink:href="#DejaVuSans-31" x="214.576172"/>
       <use xlink:href="#DejaVuSans-2f" x="278.199219"/>
       <use xlink:href="#DejaVuSans-30" x="311.890625"/>
       <use xlink:href="#DejaVuSans-37" x="375.513672"/>
      </g>
     </g>
    </g>
    <g id="xtick_6">
     <g id="line2d_6">
      <g>
       <use xlink:href="#m26df729e87" x="300.72492" y="276.48" style="fill: #ffffff; stroke: #ffffff; stroke-width: 0.8"/>
      </g>
     </g>
     <g id="text_6">
      <!-- Mon 01/10 -->
      <g style="fill: #ffffff" transform="translate(253.715365 316.601065)rotate(-30)scale(0.1 -0.1)">
       <use xlink:href="#DejaVuSans-4d"/>
       <use xlink:href="#DejaVuSans-6f" x="86.279297"/>
       <use xlink:href="#DejaVuSans-6e" x="147.460938"/>
       <use xlink:href="#DejaVuSans-20" x="210.839844"/>
       <use xlink:href="#DejaVuSans-30" x="242.626953"/>
       <use xlink:href="#DejaVuSans-31" x="306.25"/>
       <use xlink:href="#DejaVuSans-2f" x="369.873047"/>
       <use xlink:href="#DejaVuSans-31" x="403.564453"/>
       <use xlink:href="#DejaVuSans-30" x="467.1875"/>
      </g>
     </g>
    </g>
    <g id="xtick_7">
     <g id="line2d_7">
      <g>
       <use xlink:href="#m26df729e87" x="347.466659" y="276.48" style="fill: #ffffff; stroke: #ffffff; stroke-width: 0.8"/>
      </g>
     </g>
     <g id="text_7">
      <!-- Fri 01/14 -->
      <g style="fill: #ffffff" transform="translate(308.397475 312.01669)rotate(-30)scale(0.1 -0.1)">
       <use xlink:href="#DejaVuSans-46"/>
       <use xlink:href="#DejaVuSans-72" x="50.269531"/>
       <use xlink:href="#DejaVuSans-69" x="91.382812"/>
       <use xlink:href="#DejaVuSans-20" x="119.166016"/>
       <use xlink:href="#DejaVuSans-30" x="150.953125"/>
       <use xlink:href="#DejaVuSans-31" x="214.576172"/>
       <use xlink:href="#DejaVuSans-2f" x="278.199219"/>
       <use xlink:href="#DejaVuSans-31" x="311.890625"/>
       <use xlink:href="#DejaVuSans-34" x="375.513672"/>
      </g>
     </g>
    </g>
    <g id="xtick_8">
     <g id="line2d_8">
      <g>
       <use xlink:href="#m26df729e87" x="382.522964" y="276.48" style="fill: #ffffff; stroke: #ffffff; stroke-width: 0.8"/>
      </g>
     </g>
     <g id="text_8">
      <!-- Mon 01/17 -->
      <g style="fill: #ffffff" transform="translate(335.513409 316.601065)rotate(-30)scale(0.1 -0.1)">
       <use xlink:href="#DejaVuSans-4d"/>
       <use xlink:href="#DejaVuSans-6f" x="86.279297"/>
       <use xlink:href="#DejaVuSans-6e" x="147.460938"/>
       <use xlink:href="#DejaVuSans-20" x="210.839844"/>
       <use xlink:href="#DejaVuSans-30" x="242.626953"/>
       <use xlink:href="#DejaVuSans-31" x="306.25"/>
       <use xlink:href="#DejaVuSans-2f" x="369.873047"/>
       <use xlink:href="#DejaVuSans-31" x="403.564453"/>
       <use xlink:href="#DejaVuSans-37" x="467.1875"/>
      </g>
     </g>
    </g>
    <g id="xtick_9">
     <g id="line2d_9">
      <defs>
       <path id="m9b04a45e40" d="M 0 0 
L 0 2 
" style="stroke: #ffffff; stroke-width: 0.6"/>
      </defs>
      <g>
       <use xlink:href="#m9b04a45e40" x="67.016224" y="276.48" style="fill: #ffffff; stroke: #ffffff; stroke-width: 0.6"/>
      </g>
     </g>
    </g>
    <g id="xtick_10">
     <g id="line2d_10">
      <g>
       <use xlink:href="#m9b04a45e40" x="78.701658" y="276.48" style="fill: #ffffff; stroke: #ffffff; stroke-width: 0.6"/>
      </g>
     </g>
    </g>
    <g id="xtick_11">
     <g id="line2d_11">
      <g>
       <use xlink:href="#m9b04a45e40" x="90.387093" y="276.48" style="fill: #ffffff; stroke: #ffffff; stroke-width: 0.6"/>
      </g>
     </g>
    </g>
    <g id="xtick_12">
     <g id="line2d_12">
      <g>
       <use xlink:href="#m9b04a45e40" x="113.757963" y="276.48" style="fill: #ffffff; stroke: #ffffff; stroke-width: 0.6"/>
      </g>
     </g>
    </g>
    <g id="xtick_13">
     <g id="line2d_13">
      <g>
       <use xlink:href="#m9b04a45e40" x="125.443398" y="276.48" style="fill: #ffffff; stroke: #ffffff; stroke-width: 0.6"/>
      </g>
     </g>
    </g>
    <g id="xtick_14">
     <g id="line2d_14">
      <g>
       <use xlink:href="#m9b04a45e40" x="148.814267" y="276.48" style="fill: #ffffff; stroke: #ffffff; stroke-width: 0.6"/>
      </g>
     </g>
    </g>
    <g id="xtick_15">
     <g id="line2d_15">
      <g>
       <use xlink:href="#m9b04a45e40" x="160.499702" y="276.48" style="fill: #ffffff; stroke: #ffffff; stroke-width: 0.6"/>
      </g>
     </g>
    </g>
    <g id="xtick_16">
     <g id="line2d_16">
      <g>
       <use xlink:href="#m9b04a45e40" x="172.185137" y="276.48" style="fill: #ffffff; stroke: #ffffff; stroke-width: 0.6"/>
      </g>
     </g>
    </g>
    <g id="xtick_17">
     <g id="line2d_17">
      <g>
       <use xlink:href="#m9b04a45e40" x="195.556007" y="276.48" style="fill: #ffffff; stroke: #ffffff; stroke-width: 0.6"/>
      </g>
     </g>
    </g>
    <g id="xtick_18">
     <g id="line2d_18">
      <g>
       <use xlink:href="#m9b04a45e40" x="207.241442" y="276.48" style="fill: #ffffff; stroke: #ffffff; stroke-width: 0.6"/>
      </g>
     </g>
    </g>
    <g id="xtick_19">
     <g id="line2d_19">
      <g>
       <use xlink:href="#m9b04a45e40" x="230.612311" y="276.48" style="fill: #ffffff; stroke: #ffffff; stroke-width: 0.6"/>
      </g>
     </g>
    </g>
    <g id="xtick_20">
     <g id="line2d_20">
      <g>
       <use xlink:href="#m9b04a45e40" x="242.297746" y="276.48" style="fill: #ffffff; stroke: #ffffff; stroke-width: 0.6"/>
      </g>
     </g>
    </g>
    <g id="xtick_21">
     <g id="line2d_21">
      <g>
       <use xlink:href="#m9b04a45e40" x="253.983181" y="276.48" style="fill: #ffffff; stroke: #ffffff; stroke-width: 0.6"/>
      </g>
     </g>
    </g>
    <g id="xtick_22">
     <g id="line2d_22">
      <g>
       <use xlink:href="#m9b04a45e40" x="277.35405" y="276.48" style="fill: #ffffff; stroke: #ffffff; stroke-width: 0.6"/>
      </g>
     </g>
    </g>
    <g id="xtick_23">
     <g id="line2d_23">
      <g>
       <use xlink:href="#m9b04a45e40" x="289.039485" y="276.48" style="fill: #ffffff; stroke: #ffffff; stroke-width: 0.6"/>
      </g>
     </g>
    </g>
    <g id="xtick_24">
     <g id="line2d_24">
      <g>
       <use xlink:href="#m9b04a45e40" x="312.410355" y="276.48" style="fill: #ffffff; stroke: #ffffff; stroke-width: 0.6"/>
      </g>
     </g>
    </g>
    <g id="xtick_25">
     <g id="line2d_25">
      <g>
       <use xlink:href="#m9b04a45e40" x="324.09579" y="276.48" style="fill: #ffffff; stroke: #ffffff; stroke-width: 0.6"/>
      </g>
     </g>
    </g>
    <g id="xtick_26">
     <g id="line2d_26">
      <g>
       <use xlink:href="#m9b04a45e40" x="335.781225" y="276.48" style="fill: #ffffff; stroke: #ffffff; stroke-width: 0.6"/>
      </g>
     </g>
    </g>
    <g id="xtick_27">
     <g id="line2d_27">
      <g>
       <use xlink:href="#m9b04a45e40" x="359.152094" y="276.48" style="fill: #ffffff; stroke: #ffffff; stroke-width: 0.6"/>
      </g>
     </g>
    </g>
    <g id="xtick_28">
     <g id="line2d_28">
      <g>
       <use xlink:href="#m9b04a45e40" x="370.837529" y="276.48" style="fill: #ffffff; stroke: #ffffff; stroke-width: 0.6"/>
      </g>
     </g>
    </g>
    <g id="xtick_29">
     <g id="line2d_29">
      <g>
       <use xlink:href="#m9b04a45e40" x="394.208399" y="276.48" style="fill: #ffffff; stroke: #ffffff; stroke-width: 0.6"/>
      </g>
     </g>
    </g>
    <g id="xtick_30">
     <g id="line2d_30">
      <g>
       <use xlink:href="#m9b04a45e40" x="405.893834" y="276.48" style="fill: #ffffff; stroke: #ffffff; stroke-width: 0.6"/>
      </g>
     </g>
    </g>
   </g>
   <g id="matplotlib.axis_2">
    <g id="ytick_1">
     <g id="line2d_31">
      <defs>
       <path id="mc53c044a22" d="M 0 0 
L -3.5 0 
" style="stroke: #ffffff; stroke-width: 0.8"/>
      </defs>
      <g>
       <use xlink:href="#mc53c044a22" x="57.6" y="276.48" style="fill: #ffffff; stroke: #ffffff; stroke-width: 0.8"/>
      </g>
     </g>
     <g id="text_9">
      <!-- 0 -->
      <g style="fill: #ffffff" transform="translate(44.2375 280.279219)scale(0.1 -0.1)">
       <use xlink:href="#DejaVuSans-30"/>
      </g>
     </g>
    </g>
    <g id="ytick_2">
     <g id="line2d_32">
      <g>
       <use xlink:href="#mc53c044a22" x="57.6" y="246.637714" style="fill: #ffffff; stroke: #ffffff; stroke-width: 0.8"/>
      </g>
     </g>
     <g id="text_10">
      <!-- 200 -->
      <g style="fill: #ffffff" transform="translate(31.5125 250.436933)scale(0.1 -0.1)">
       <use xlink:href="#DejaVuSans-32"/>
       <use xlink:href="#DejaVuSans-30" x="63.623047"/>
       <use xlink:href="#DejaVuSans-30" x="127.246094"/>
      </g>
     </g>
    </g>
    <g id="ytick_3">
     <g id="line2d_33">
      <g>
       <use xlink:href="#mc53c044a22" x="57.6" y="216.795429" style="fill: #ffffff; stroke: #ffffff; stroke-width: 0.8"/>
      </g>
     </g>
     <g id="text_11">
      <!-- 400 -->
      <g style="fill: #ffffff" transform="translate(31.5125 220.594647)scale(0.1 -0.1)">
       <use xlink:href="#DejaVuSans-34"/>
       <use xlink:href="#DejaVuSans-30" x="63.623047"/>
       <use xlink:href="#DejaVuSans-30" x="127.246094"/>
      </g>
     </g>
    </g>
    <g id="ytick_4">
     <g id="line2d_34">
      <g>
       <use xlink:href="#mc53c044a22" x="57.6" y="186.953143" style="fill: #ffffff; stroke: #ffffff; stroke-width: 0.8"/>
      </g>
     </g>
     <g id="text_12">
      <!-- 600 -->
      <g style="fill: #ffffff" transform="translate(31.5125 190.752362)scale(0.1 -0.1)">
       <defs>
        <path id="DejaVuSans-36" d="M 2113 2584 
Q 1688 2584 1439 2293 
Q 1191 2003 1191 1497 
Q 1191 994 1439 701 
Q 1688 409 2113 409 
Q 2538 409 2786 701 
Q 3034 994 3034 1497 
Q 3034 2003 2786 2293 
Q 2538 2584 2113 2584 
z
M 3366 4563 
L 3366 3988 
Q 3128 4100 2886 4159 
Q 2644 4219 2406 4219 
Q 1781 4219 1451 3797 
Q 1122 3375 1075 2522 
Q 1259 2794 1537 2939 
Q 1816 3084 2150 3084 
Q 2853 3084 3261 2657 
Q 3669 2231 3669 1497 
Q 3669 778 3244 343 
Q 2819 -91 2113 -91 
Q 1303 -91 875 529 
Q 447 1150 447 2328 
Q 447 3434 972 4092 
Q 1497 4750 2381 4750 
Q 2619 4750 2861 4703 
Q 3103 4656 3366 4563 
z
" transform="scale(0.015625)"/>
       </defs>
       <use xlink:href="#DejaVuSans-36"/>
       <use xlink:href="#DejaVuSans-30" x="63.623047"/>
       <use xlink:href="#DejaVuSans-30" x="127.246094"/>
      </g>
     </g>
    </g>
    <g id="ytick_5">
     <g id="line2d_35">
      <g>
       <use xlink:href="#mc53c044a22" x="57.6" y="157.110857" style="fill: #ffffff; stroke: #ffffff; stroke-width: 0.8"/>
      </g>
     </g>
     <g id="text_13">
      <!-- 800 -->
      <g style="fill: #ffffff" transform="translate(31.5125 160.910076)scale(0.1 -0.1)">
       <defs>
        <path id="DejaVuSans-38" d="M 2034 2216 
Q 1584 2216 1326 1975 
Q 1069 1734 1069 1313 
Q 1069 891 1326 650 
Q 1584 409 2034 409 
Q 2484 409 2743 651 
Q 3003 894 3003 1313 
Q 3003 1734 2745 1975 
Q 2488 2216 2034 2216 
z
M 1403 2484 
Q 997 2584 770 2862 
Q 544 3141 544 3541 
Q 544 4100 942 4425 
Q 1341 4750 2034 4750 
Q 2731 4750 3128 4425 
Q 3525 4100 3525 3541 
Q 3525 3141 3298 2862 
Q 3072 2584 2669 2484 
Q 3125 2378 3379 2068 
Q 3634 1759 3634 1313 
Q 3634 634 3220 271 
Q 2806 -91 2034 -91 
Q 1263 -91 848 271 
Q 434 634 434 1313 
Q 434 1759 690 2068 
Q 947 2378 1403 2484 
z
M 1172 3481 
Q 1172 3119 1398 2916 
Q 1625 2713 2034 2713 
Q 2441 2713 2670 2916 
Q 2900 3119 2900 3481 
Q 2900 3844 2670 4047 
Q 2441 4250 2034 4250 
Q 1625 4250 1398 4047 
Q 1172 3844 1172 3481 
z
" transform="scale(0.015625)"/>
       </defs>
       <use xlink:href="#DejaVuSans-38"/>
       <use xlink:href="#DejaVuSans-30" x="63.623047"/>
       <use xlink:href="#DejaVuSans-30" x="127.246094"/>
      </g>
     </g>
    </g>
    <g id="ytick_6">
     <g id="line2d_36">
      <g>
       <use xlink:href="#mc53c044a22" x="57.6" y="127.268571" style="fill: #ffffff; stroke: #ffffff; stroke-width: 0.8"/>
      </g>
     </g>
     <g id="text_14">
      <!-- 1000 -->
      <g style="fill: #ffffff" transform="translate(25.15 131.06779)scale(0.1 -0.1)">
       <use xlink:href="#DejaVuSans-31"/>
       <use xlink:href="#DejaVuSans-30" x="63.623047"/>
       <use xlink:href="#DejaVuSans-30" x="127.246094"/>
       <use xlink:href="#DejaVuSans-30" x="190.869141"/>
      </g>
     </g>
    </g>
    <g id="ytick_7">
     <g id="line2d_37">
      <g>
       <use xlink:href="#mc53c044a22" x="57.6" y="97.426286" style="fill: #ffffff; stroke: #ffffff; stroke-width: 0.8"/>
      </g>
     </g>
     <g id="text_15">
      <!-- 1200 -->
      <g style="fill: #ffffff" transform="translate(25.15 101.225504)scale(0.1 -0.1)">
       <use xlink:href="#DejaVuSans-31"/>
       <use xlink:href="#DejaVuSans-32" x="63.623047"/>
       <use xlink:href="#DejaVuSans-30" x="127.246094"/>
       <use xlink:href="#DejaVuSans-30" x="190.869141"/>
      </g>
     </g>
    </g>
    <g id="ytick_8">
     <g id="line2d_38">
      <g>
       <use xlink:href="#mc53c044a22" x="57.6" y="67.584" style="fill: #ffffff; stroke: #ffffff; stroke-width: 0.8"/>
      </g>
     </g>
     <g id="text_16">
      <!-- 1400 -->
      <g style="fill: #ffffff" transform="translate(25.15 71.383219)scale(0.1 -0.1)">
       <use xlink:href="#DejaVuSans-31"/>
       <use xlink:href="#DejaVuSans-34" x="63.623047"/>
       <use xlink:href="#DejaVuSans-30" x="127.246094"/>
       <use xlink:href="#DejaVuSans-30" x="190.869141"/>
      </g>
     </g>
    </g>
    <g id="text_17">
     <!-- Number of tickets sold -->
     <g style="fill: #ffffff" transform="translate(19.070312 215.329906)rotate(-90)scale(0.1 -0.1)">
      <defs>
       <path id="DejaVuSans-4e" d="M 628 4666 
L 1478 4666 
L 3547 763 
L 3547 4666 
L 4159 4666 
L 4159 0 
L 3309 0 
L 1241 3903 
L 1241 0 
L 628 0 
L 628 4666 
z
" transform="scale(0.015625)"/>
       <path id="DejaVuSans-75" d="M 544 1381 
L 544 3500 
L 1119 3500 
L 1119 1403 
Q 1119 906 1312 657 
Q 1506 409 1894 409 
Q 2359 409 2629 706 
Q 2900 1003 2900 1516 
L 2900 3500 
L 3475 3500 
L 3475 0 
L 2900 0 
L 2900 538 
Q 2691 219 2414 64 
Q 2138 -91 1772 -91 
Q 1169 -91 856 284 
Q 544 659 544 1381 
z
M 1991 3584 
L 1991 3584 
z
" transform="scale(0.015625)"/>
       <path id="DejaVuSans-6d" d="M 3328 2828 
Q 3544 3216 3844 3400 
Q 4144 3584 4550 3584 
Q 5097 3584 5394 3201 
Q 5691 2819 5691 2113 
L 5691 0 
L 5113 0 
L 5113 2094 
Q 5113 2597 4934 2840 
Q 4756 3084 4391 3084 
Q 3944 3084 3684 2787 
Q 3425 2491 3425 1978 
L 3425 0 
L 2847 0 
L 2847 2094 
Q 2847 2600 2669 2842 
Q 2491 3084 2119 3084 
Q 1678 3084 1418 2786 
Q 1159 2488 1159 1978 
L 1159 0 
L 581 0 
L 581 3500 
L 1159 3500 
L 1159 2956 
Q 1356 3278 1631 3431 
Q 1906 3584 2284 3584 
Q 2666 3584 2933 3390 
Q 3200 3197 3328 2828 
z
" transform="scale(0.015625)"/>
       <path id="DejaVuSans-62" d="M 3116 1747 
Q 3116 2381 2855 2742 
Q 2594 3103 2138 3103 
Q 1681 3103 1420 2742 
Q 1159 2381 1159 1747 
Q 1159 1113 1420 752 
Q 1681 391 2138 391 
Q 2594 391 2855 752 
Q 3116 1113 3116 1747 
z
M 1159 2969 
Q 1341 3281 1617 3432 
Q 1894 3584 2278 3584 
Q 2916 3584 3314 3078 
Q 3713 2572 3713 1747 
Q 3713 922 3314 415 
Q 2916 -91 2278 -91 
Q 1894 -91 1617 61 
Q 1341 213 1159 525 
L 1159 0 
L 581 0 
L 581 4863 
L 1159 4863 
L 1159 2969 
z
" transform="scale(0.015625)"/>
       <path id="DejaVuSans-65" d="M 3597 1894 
L 3597 1613 
L 953 1613 
Q 991 1019 1311 708 
Q 1631 397 2203 397 
Q 2534 397 2845 478 
Q 3156 559 3463 722 
L 3463 178 
Q 3153 47 2828 -22 
Q 2503 -91 2169 -91 
Q 1331 -91 842 396 
Q 353 884 353 1716 
Q 353 2575 817 3079 
Q 1281 3584 2069 3584 
Q 2775 3584 3186 3129 
Q 3597 2675 3597 1894 
z
M 3022 2063 
Q 3016 2534 2758 2815 
Q 2500 3097 2075 3097 
Q 1594 3097 1305 2825 
Q 1016 2553 972 2059 
L 3022 2063 
z
" transform="scale(0.015625)"/>
       <path id="DejaVuSans-66" d="M 2375 4863 
L 2375 4384 
L 1825 4384 
Q 1516 4384 1395 4259 
Q 1275 4134 1275 3809 
L 1275 3500 
L 2222 3500 
L 2222 3053 
L 1275 3053 
L 1275 0 
L 697 0 
L 697 3053 
L 147 3053 
L 147 3500 
L 697 3500 
L 697 3744 
Q 697 4328 969 4595 
Q 1241 4863 1831 4863 
L 2375 4863 
z
" transform="scale(0.015625)"/>
       <path id="DejaVuSans-74" d="M 1172 4494 
L 1172 3500 
L 2356 3500 
L 2356 3053 
L 1172 3053 
L 1172 1153 
Q 1172 725 1289 603 
Q 1406 481 1766 481 
L 2356 481 
L 2356 0 
L 1766 0 
Q 1100 0 847 248 
Q 594 497 594 1153 
L 594 3053 
L 172 3053 
L 172 3500 
L 594 3500 
L 594 4494 
L 1172 4494 
z
" transform="scale(0.015625)"/>
       <path id="DejaVuSans-63" d="M 3122 3366 
L 3122 2828 
Q 2878 2963 2633 3030 
Q 2388 3097 2138 3097 
Q 1578 3097 1268 2742 
Q 959 2388 959 1747 
Q 959 1106 1268 751 
Q 1578 397 2138 397 
Q 2388 397 2633 464 
Q 2878 531 3122 666 
L 3122 134 
Q 2881 22 2623 -34 
Q 2366 -91 2075 -91 
Q 1284 -91 818 406 
Q 353 903 353 1747 
Q 353 2603 823 3093 
Q 1294 3584 2113 3584 
Q 2378 3584 2631 3529 
Q 2884 3475 3122 3366 
z
" transform="scale(0.015625)"/>
       <path id="DejaVuSans-6b" d="M 581 4863 
L 1159 4863 
L 1159 1991 
L 2875 3500 
L 3609 3500 
L 1753 1863 
L 3688 0 
L 2938 0 
L 1159 1709 
L 1159 0 
L 581 0 
L 581 4863 
z
" transform="scale(0.015625)"/>
       <path id="DejaVuSans-73" d="M 2834 3397 
L 2834 2853 
Q 2591 2978 2328 3040 
Q 2066 3103 1784 3103 
Q 1356 3103 1142 2972 
Q 928 2841 928 2578 
Q 928 2378 1081 2264 
Q 1234 2150 1697 2047 
L 1894 2003 
Q 2506 1872 2764 1633 
Q 3022 1394 3022 966 
Q 3022 478 2636 193 
Q 2250 -91 1575 -91 
Q 1294 -91 989 -36 
Q 684 19 347 128 
L 347 722 
Q 666 556 975 473 
Q 1284 391 1588 391 
Q 1994 391 2212 530 
Q 2431 669 2431 922 
Q 2431 1156 2273 1281 
Q 2116 1406 1581 1522 
L 1381 1569 
Q 847 1681 609 1914 
Q 372 2147 372 2553 
Q 372 3047 722 3315 
Q 1072 3584 1716 3584 
Q 2034 3584 2315 3537 
Q 2597 3491 2834 3397 
z
" transform="scale(0.015625)"/>
       <path id="DejaVuSans-6c" d="M 603 4863 
L 1178 4863 
L 1178 0 
L 603 0 
L 603 4863 
z
" transform="scale(0.015625)"/>
       <path id="DejaVuSans-64" d="M 2906 2969 
L 2906 4863 
L 3481 4863 
L 3481 0 
L 2906 0 
L 2906 525 
Q 2725 213 2448 61 
Q 2172 -91 1784 -91 
Q 1150 -91 751 415 
Q 353 922 353 1747 
Q 353 2572 751 3078 
Q 1150 3584 1784 3584 
Q 2172 3584 2448 3432 
Q 2725 3281 2906 2969 
z
M 947 1747 
Q 947 1113 1208 752 
Q 1469 391 1925 391 
Q 2381 391 2643 752 
Q 2906 1113 2906 1747 
Q 2906 2381 2643 2742 
Q 2381 3103 1925 3103 
Q 1469 3103 1208 2742 
Q 947 2381 947 1747 
z
" transform="scale(0.015625)"/>
      </defs>
      <use xlink:href="#DejaVuSans-4e"/>
      <use xlink:href="#DejaVuSans-75" x="74.804688"/>
      <use xlink:href="#DejaVuSans-6d" x="138.183594"/>
      <use xlink:href="#DejaVuSans-62" x="235.595703"/>
      <use xlink:href="#DejaVuSans-65" x="299.072266"/>
      <use xlink:href="#DejaVuSans-72" x="360.595703"/>
      <use xlink:href="#DejaVuSans-20" x="401.708984"/>
      <use xlink:href="#DejaVuSans-6f" x="433.496094"/>
      <use xlink:href="#DejaVuSans-66" x="494.677734"/>
      <use xlink:href="#DejaVuSans-20" x="529.882812"/>
      <use xlink:href="#DejaVuSans-74" x="561.669922"/>
      <use xlink:href="#DejaVuSans-69" x="600.878906"/>
      <use xlink:href="#DejaVuSans-63" x="628.662109"/>
      <use xlink:href="#DejaVuSans-6b" x="683.642578"/>
      <use xlink:href="#DejaVuSans-65" x="737.927734"/>
      <use xlink:href="#DejaVuSans-74" x="799.451172"/>
      <use xlink:href="#DejaVuSans-73" x="838.660156"/>
      <use xlink:href="#DejaVuSans-20" x="890.759766"/>
      <use xlink:href="#DejaVuSans-73" x="922.546875"/>
      <use xlink:href="#DejaVuSans-6f" x="974.646484"/>
      <use xlink:href="#DejaVuSans-6c" x="1035.828125"/>
      <use xlink:href="#DejaVuSans-64" x="1063.611328"/>
     </g>
    </g>
   </g>
   <g id="line2d_39">
    <path d="M 57.6 52.662857 
L 414.72 52.662857 
" clip-path="url(#p9f41249eea)" style="fill: none; stroke-dasharray: 5.55,2.4; stroke-dashoffset: 0; stroke: #32cd32; stroke-width: 1.5"/>
   </g>
   <g id="patch_3">
    <path d="M 57.6 276.48 
L 57.6 41.472 
" style="fill: none; stroke: #000000; stroke-width: 0.8; stroke-linejoin: miter; stroke-linecap: square"/>
   </g>
   <g id="patch_4">
    <path d="M 414.72 276.48 
L 414.72 41.472 
" style="fill: none; stroke: #000000; stroke-width: 0.8; stroke-linejoin: miter; stroke-linecap: square"/>
   </g>
   <g id="patch_5">
    <path d="M 57.6 276.48 
L 414.72 276.48 
" style="fill: none; stroke: #000000; stroke-width: 0.8; stroke-linejoin: miter; stroke-linecap: square"/>
   </g>
   <g id="patch_6">
    <path d="M 57.6 41.472 
L 414.72 41.472 
" style="fill: none; stroke: #000000; stroke-width: 0.8; stroke-linejoin: miter; stroke-linecap: square"/>
   </g>
   <g id="text_18">
    <!-- MCH Tickets -->
    <g style="fill: #ffffff" transform="translate(199.504687 35.472)scale(0.12 -0.12)">
     <defs>
      <path id="DejaVuSans-43" d="M 4122 4306 
L 4122 3641 
Q 3803 3938 3442 4084 
Q 3081 4231 2675 4231 
Q 1875 4231 1450 3742 
Q 1025 3253 1025 2328 
Q 1025 1406 1450 917 
Q 1875 428 2675 428 
Q 3081 428 3442 575 
Q 3803 722 4122 1019 
L 4122 359 
Q 3791 134 3420 21 
Q 3050 -91 2638 -91 
Q 1578 -91 968 557 
Q 359 1206 359 2328 
Q 359 3453 968 4101 
Q 1578 4750 2638 4750 
Q 3056 4750 3426 4639 
Q 3797 4528 4122 4306 
z
" transform="scale(0.015625)"/>
      <path id="DejaVuSans-48" d="M 628 4666 
L 1259 4666 
L 1259 2753 
L 3553 2753 
L 3553 4666 
L 4184 4666 
L 4184 0 
L 3553 0 
L 3553 2222 
L 1259 2222 
L 1259 0 
L 628 0 
L 628 4666 
z
" transform="scale(0.015625)"/>
      <path id="DejaVuSans-54" d="M -19 4666 
L 3928 4666 
L 3928 4134 
L 2272 4134 
L 2272 0 
L 1638 0 
L 1638 4134 
L -19 4134 
L -19 4666 
z
" transform="scale(0.015625)"/>
     </defs>
     <use xlink:href="#DejaVuSans-4d"/>
     <use xlink:href="#DejaVuSans-43" x="86.279297"/>
     <use xlink:href="#DejaVuSans-48" x="156.103516"/>
     <use xlink:href="#DejaVuSans-20" x="231.298828"/>
     <use xlink:href="#DejaVuSans-54" x="263.085938"/>
     <use xlink:href="#DejaVuSans-69" x="321.044922"/>
     <use xlink:href="#DejaVuSans-63" x="348.828125"/>
     <use xlink:href="#DejaVuSans-6b" x="403.808594"/>
     <use xlink:href="#DejaVuSans-65" x="458.09375"/>
     <use xlink:href="#DejaVuSans-74" x="519.617188"/>
     <use xlink:href="#DejaVuSans-73" x="558.826172"/>
    </g>
   </g>
   <g id="legend_1">
    <g id="patch_7">
     <path d="M 64.6 93.506375 
L 244.389062 93.506375 
Q 246.389062 93.506375 246.389062 91.506375 
L 246.389062 48.472 
Q 246.389062 46.472 244.389062 46.472 
L 64.6 46.472 
Q 62.6 46.472 62.6 48.472 
L 62.6 91.506375 
Q 62.6 93.506375 64.6 93.506375 
z
" style="fill: #ffffff; opacity: 0.8; stroke: #cccccc; stroke-linejoin: miter"/>
    </g>
    <g id="patch_8">
     <path d="M 66.6 58.070437 
L 86.6 58.070437 
L 86.6 51.070437 
L 66.6 51.070437 
z
" style="fill: #fa448c; fill-opacity: 0.8"/>
    </g>
    <g id="text_19">
     <!-- Early-BirdTickets -->
     <g transform="translate(94.6 58.070437)scale(0.1 -0.1)">
      <defs>
       <path id="DejaVuSans-45" d="M 628 4666 
L 3578 4666 
L 3578 4134 
L 1259 4134 
L 1259 2753 
L 3481 2753 
L 3481 2222 
L 1259 2222 
L 1259 531 
L 3634 531 
L 3634 0 
L 628 0 
L 628 4666 
z
" transform="scale(0.015625)"/>
       <path id="DejaVuSans-61" d="M 2194 1759 
Q 1497 1759 1228 1600 
Q 959 1441 959 1056 
Q 959 750 1161 570 
Q 1363 391 1709 391 
Q 2188 391 2477 730 
Q 2766 1069 2766 1631 
L 2766 1759 
L 2194 1759 
z
M 3341 1997 
L 3341 0 
L 2766 0 
L 2766 531 
Q 2569 213 2275 61 
Q 1981 -91 1556 -91 
Q 1019 -91 701 211 
Q 384 513 384 1019 
Q 384 1609 779 1909 
Q 1175 2209 1959 2209 
L 2766 2209 
L 2766 2266 
Q 2766 2663 2505 2880 
Q 2244 3097 1772 3097 
Q 1472 3097 1187 3025 
Q 903 2953 641 2809 
L 641 3341 
Q 956 3463 1253 3523 
Q 1550 3584 1831 3584 
Q 2591 3584 2966 3190 
Q 3341 2797 3341 1997 
z
" transform="scale(0.015625)"/>
       <path id="DejaVuSans-79" d="M 2059 -325 
Q 1816 -950 1584 -1140 
Q 1353 -1331 966 -1331 
L 506 -1331 
L 506 -850 
L 844 -850 
Q 1081 -850 1212 -737 
Q 1344 -625 1503 -206 
L 1606 56 
L 191 3500 
L 800 3500 
L 1894 763 
L 2988 3500 
L 3597 3500 
L 2059 -325 
z
" transform="scale(0.015625)"/>
       <path id="DejaVuSans-2d" d="M 313 2009 
L 1997 2009 
L 1997 1497 
L 313 1497 
L 313 2009 
z
" transform="scale(0.015625)"/>
       <path id="DejaVuSans-42" d="M 1259 2228 
L 1259 519 
L 2272 519 
Q 2781 519 3026 730 
Q 3272 941 3272 1375 
Q 3272 1813 3026 2020 
Q 2781 2228 2272 2228 
L 1259 2228 
z
M 1259 4147 
L 1259 2741 
L 2194 2741 
Q 2656 2741 2882 2914 
Q 3109 3088 3109 3444 
Q 3109 3797 2882 3972 
Q 2656 4147 2194 4147 
L 1259 4147 
z
M 628 4666 
L 2241 4666 
Q 2963 4666 3353 4366 
Q 3744 4066 3744 3513 
Q 3744 3084 3544 2831 
Q 3344 2578 2956 2516 
Q 3422 2416 3680 2098 
Q 3938 1781 3938 1306 
Q 3938 681 3513 340 
Q 3088 0 2303 0 
L 628 0 
L 628 4666 
z
" transform="scale(0.015625)"/>
      </defs>
      <use xlink:href="#DejaVuSans-45"/>
      <use xlink:href="#DejaVuSans-61" x="63.183594"/>
      <use xlink:href="#DejaVuSans-72" x="124.462891"/>
      <use xlink:href="#DejaVuSans-6c" x="165.576172"/>
      <use xlink:href="#DejaVuSans-79" x="193.359375"/>
      <use xlink:href="#DejaVuSans-2d" x="250.789062"/>
      <use xlink:href="#DejaVuSans-42" x="283.248047"/>
      <use xlink:href="#DejaVuSans-69" x="351.851562"/>
      <use xlink:href="#DejaVuSans-72" x="379.634766"/>
      <use xlink:href="#DejaVuSans-64" x="418.998047"/>
      <use xlink:href="#DejaVuSans-54" x="482.474609"/>
      <use xlink:href="#DejaVuSans-69" x="540.433594"/>
      <use xlink:href="#DejaVuSans-63" x="568.216797"/>
      <use xlink:href="#DejaVuSans-6b" x="623.197266"/>
      <use xlink:href="#DejaVuSans-65" x="677.482422"/>
      <use xlink:href="#DejaVuSans-74" x="739.005859"/>
      <use xlink:href="#DejaVuSans-73" x="778.214844"/>
     </g>
    </g>
    <g id="patch_9">
     <path d="M 66.6 72.748562 
L 86.6 72.748562 
L 86.6 65.748562 
L 66.6 65.748562 
z
" style="fill: #43b5a0; fill-opacity: 0.8"/>
    </g>
    <g id="text_20">
     <!-- RegularTickets -->
     <g transform="translate(94.6 72.748562)scale(0.1 -0.1)">
      <defs>
       <path id="DejaVuSans-52" d="M 2841 2188 
Q 3044 2119 3236 1894 
Q 3428 1669 3622 1275 
L 4263 0 
L 3584 0 
L 2988 1197 
Q 2756 1666 2539 1819 
Q 2322 1972 1947 1972 
L 1259 1972 
L 1259 0 
L 628 0 
L 628 4666 
L 2053 4666 
Q 2853 4666 3247 4331 
Q 3641 3997 3641 3322 
Q 3641 2881 3436 2590 
Q 3231 2300 2841 2188 
z
M 1259 4147 
L 1259 2491 
L 2053 2491 
Q 2509 2491 2742 2702 
Q 2975 2913 2975 3322 
Q 2975 3731 2742 3939 
Q 2509 4147 2053 4147 
L 1259 4147 
z
" transform="scale(0.015625)"/>
       <path id="DejaVuSans-67" d="M 2906 1791 
Q 2906 2416 2648 2759 
Q 2391 3103 1925 3103 
Q 1463 3103 1205 2759 
Q 947 2416 947 1791 
Q 947 1169 1205 825 
Q 1463 481 1925 481 
Q 2391 481 2648 825 
Q 2906 1169 2906 1791 
z
M 3481 434 
Q 3481 -459 3084 -895 
Q 2688 -1331 1869 -1331 
Q 1566 -1331 1297 -1286 
Q 1028 -1241 775 -1147 
L 775 -588 
Q 1028 -725 1275 -790 
Q 1522 -856 1778 -856 
Q 2344 -856 2625 -561 
Q 2906 -266 2906 331 
L 2906 616 
Q 2728 306 2450 153 
Q 2172 0 1784 0 
Q 1141 0 747 490 
Q 353 981 353 1791 
Q 353 2603 747 3093 
Q 1141 3584 1784 3584 
Q 2172 3584 2450 3431 
Q 2728 3278 2906 2969 
L 2906 3500 
L 3481 3500 
L 3481 434 
z
" transform="scale(0.015625)"/>
      </defs>
      <use xlink:href="#DejaVuSans-52"/>
      <use xlink:href="#DejaVuSans-65" x="64.982422"/>
      <use xlink:href="#DejaVuSans-67" x="126.505859"/>
      <use xlink:href="#DejaVuSans-75" x="189.982422"/>
      <use xlink:href="#DejaVuSans-6c" x="253.361328"/>
      <use xlink:href="#DejaVuSans-61" x="281.144531"/>
      <use xlink:href="#DejaVuSans-72" x="342.423828"/>
      <use xlink:href="#DejaVuSans-54" x="383.537109"/>
      <use xlink:href="#DejaVuSans-69" x="441.496094"/>
      <use xlink:href="#DejaVuSans-63" x="469.279297"/>
      <use xlink:href="#DejaVuSans-6b" x="524.259766"/>
      <use xlink:href="#DejaVuSans-65" x="578.544922"/>
      <use xlink:href="#DejaVuSans-74" x="640.068359"/>
      <use xlink:href="#DejaVuSans-73" x="679.277344"/>
     </g>
    </g>
    <g id="line2d_40">
     <path d="M 66.6 83.926687 
L 76.6 83.926687 
L 86.6 83.926687 
" style="fill: none; stroke-dasharray: 5.55,2.4; stroke-dashoffset: 0; stroke: #32cd32; stroke-width: 1.5"/>
    </g>
    <g id="text_21">
     <!-- Required tickets w/ donations -->
     <g transform="translate(94.6 87.426687)scale(0.1 -0.1)">
      <defs>
       <path id="DejaVuSans-71" d="M 947 1747 
Q 947 1113 1208 752 
Q 1469 391 1925 391 
Q 2381 391 2643 752 
Q 2906 1113 2906 1747 
Q 2906 2381 2643 2742 
Q 2381 3103 1925 3103 
Q 1469 3103 1208 2742 
Q 947 2381 947 1747 
z
M 2906 525 
Q 2725 213 2448 61 
Q 2172 -91 1784 -91 
Q 1150 -91 751 415 
Q 353 922 353 1747 
Q 353 2572 751 3078 
Q 1150 3584 1784 3584 
Q 2172 3584 2448 3432 
Q 2725 3281 2906 2969 
L 2906 3500 
L 3481 3500 
L 3481 -1331 
L 2906 -1331 
L 2906 525 
z
" transform="scale(0.015625)"/>
       <path id="DejaVuSans-77" d="M 269 3500 
L 844 3500 
L 1563 769 
L 2278 3500 
L 2956 3500 
L 3675 769 
L 4391 3500 
L 4966 3500 
L 4050 0 
L 3372 0 
L 2619 2869 
L 1863 0 
L 1184 0 
L 269 3500 
z
" transform="scale(0.015625)"/>
      </defs>
      <use xlink:href="#DejaVuSans-52"/>
      <use xlink:href="#DejaVuSans-65" x="64.982422"/>
      <use xlink:href="#DejaVuSans-71" x="126.505859"/>
      <use xlink:href="#DejaVuSans-75" x="189.982422"/>
      <use xlink:href="#DejaVuSans-69" x="253.361328"/>
      <use xlink:href="#DejaVuSans-72" x="281.144531"/>
      <use xlink:href="#DejaVuSans-65" x="320.007812"/>
      <use xlink:href="#DejaVuSans-64" x="381.53125"/>
      <use xlink:href="#DejaVuSans-20" x="445.007812"/>
      <use xlink:href="#DejaVuSans-74" x="476.794922"/>
      <use xlink:href="#DejaVuSans-69" x="516.003906"/>
      <use xlink:href="#DejaVuSans-63" x="543.787109"/>
      <use xlink:href="#DejaVuSans-6b" x="598.767578"/>
      <use xlink:href="#DejaVuSans-65" x="653.052734"/>
      <use xlink:href="#DejaVuSans-74" x="714.576172"/>
      <use xlink:href="#DejaVuSans-73" x="753.785156"/>
      <use xlink:href="#DejaVuSans-20" x="805.884766"/>
      <use xlink:href="#DejaVuSans-77" x="837.671875"/>
      <use xlink:href="#DejaVuSans-2f" x="919.458984"/>
      <use xlink:href="#DejaVuSans-20" x="953.150391"/>
      <use xlink:href="#DejaVuSans-64" x="984.9375"/>
      <use xlink:href="#DejaVuSans-6f" x="1048.414062"/>
      <use xlink:href="#DejaVuSans-6e" x="1109.595703"/>
      <use xlink:href="#DejaVuSans-61" x="1172.974609"/>
      <use xlink:href="#DejaVuSans-74" x="1234.253906"/>
      <use xlink:href="#DejaVuSans-69" x="1273.462891"/>
      <use xlink:href="#DejaVuSans-6f" x="1301.246094"/>
      <use xlink:href="#DejaVuSans-6e" x="1362.427734"/>
      <use xlink:href="#DejaVuSans-73" x="1425.806641"/>
     </g>
    </g>
   </g>
  </g>
 </g>
 <defs>
  <clipPath id="p9f41249eea">
   <rect x="57.6" y="41.472" width="357.12" height="235.008"/>
  </clipPath>
 </defs>
</svg>
