<?xml version="1.0" encoding="utf-8" standalone="no"?>
<!DOCTYPE svg PUBLIC "-//W3C//DTD SVG 1.1//EN"
  "http://www.w3.org/Graphics/SVG/1.1/DTD/svg11.dtd">
<svg xmlns:xlink="http://www.w3.org/1999/xlink" width="460.8pt" height="345.6pt" viewBox="0 0 460.8 345.6" xmlns="http://www.w3.org/2000/svg" version="1.1">
 <metadata>
  <rdf:RDF xmlns:dc="http://purl.org/dc/elements/1.1/" xmlns:cc="http://creativecommons.org/ns#" xmlns:rdf="http://www.w3.org/1999/02/22-rdf-syntax-ns#">
   <cc:Work>
    <dc:type rdf:resource="http://purl.org/dc/dcmitype/StillImage"/>
    <dc:date>2022-01-17T22:17:52.385515</dc:date>
    <dc:format>image/svg+xml</dc:format>
    <dc:creator>
     <cc:Agent>
      <dc:title>Matplotlib v3.5.1, https://matplotlib.org/</dc:title>
     </cc:Agent>
    </dc:creator>
   </cc:Work>
  </rdf:RDF>
 </metadata>
 <defs>
  <style type="text/css">*{stroke-linejoin: round; stroke-linecap: butt}</style>
 </defs>
 <g id="figure_1">
  <g id="patch_1">
   <path d="M 0 345.6 
L 460.8 345.6 
L 460.8 0 
L 0 0 
z
" style="fill: #491d88"/>
  </g>
  <g id="axes_1">
   <g id="patch_2">
    <path d="M 57.6 276.48 
L 414.72 276.48 
L 414.72 41.472 
L 57.6 41.472 
z
" style="fill: #fec859"/>
   </g>
   <g id="PolyCollection_1">
    <path d="M 73.832727 276.48 
L 73.832727 276.48 
L 73.832727 276.48 
L 73.832727 276.48 
L 74.327403 276.48 
L 74.327403 276.48 
L 74.822079 276.48 
L 74.822079 276.48 
L 75.316754 276.48 
L 75.316754 276.48 
L 75.81143 276.48 
L 75.81143 276.48 
L 76.306105 276.48 
L 76.306105 276.48 
L 76.800781 276.48 
L 76.800781 276.48 
L 77.295457 276.48 
L 77.295457 276.48 
L 77.790132 276.48 
L 77.790132 276.48 
L 78.284808 276.48 
L 78.284808 276.48 
L 78.779484 276.48 
L 78.779484 276.48 
L 79.274159 276.48 
L 79.274159 276.48 
L 79.768835 276.48 
L 79.768835 276.48 
L 80.26351 276.48 
L 80.26351 276.48 
L 80.758186 276.48 
L 80.758186 276.48 
L 81.252862 276.48 
L 81.252862 276.48 
L 81.747537 276.48 
L 81.747537 276.48 
L 82.736889 276.48 
L 82.736889 276.48 
L 83.231564 276.48 
L 83.231564 276.48 
L 83.72624 276.48 
L 83.72624 276.48 
L 84.220915 276.48 
L 84.220915 276.48 
L 84.715591 276.48 
L 84.715591 276.48 
L 85.210267 276.48 
L 85.210267 276.48 
L 85.704942 276.48 
L 85.704942 276.48 
L 86.199618 276.48 
L 86.199618 276.48 
L 86.694294 276.48 
L 86.694294 276.48 
L 87.188969 276.48 
L 87.188969 276.48 
L 88.17832 276.48 
L 88.17832 276.48 
L 89.167672 276.48 
L 89.167672 276.48 
L 89.662347 276.48 
L 89.662347 276.48 
L 90.157023 276.48 
L 90.157023 276.48 
L 93.619752 276.48 
L 93.619752 276.48 
L 94.114428 276.48 
L 94.114428 276.48 
L 94.609104 276.48 
L 94.609104 276.48 
L 95.103779 276.48 
L 95.103779 276.48 
L 95.598455 276.48 
L 95.598455 276.48 
L 96.09313 276.48 
L 96.09313 276.48 
L 96.587806 276.48 
L 96.587806 276.48 
L 97.082482 276.48 
L 97.082482 276.48 
L 97.577157 276.48 
L 97.577157 276.48 
L 98.071833 276.48 
L 98.071833 276.48 
L 98.566509 276.48 
L 98.566509 276.48 
L 99.061184 276.48 
L 99.061184 276.48 
L 99.55586 276.48 
L 99.55586 276.48 
L 100.050535 276.48 
L 100.050535 276.48 
L 100.545211 276.48 
L 100.545211 276.48 
L 101.039887 276.48 
L 101.039887 276.48 
L 101.534562 276.48 
L 101.534562 276.48 
L 102.029238 276.48 
L 102.029238 276.48 
L 104.997292 276.48 
L 104.997292 276.48 
L 106.481319 276.48 
L 106.481319 276.48 
L 106.975994 276.48 
L 106.975994 276.48 
L 107.47067 276.48 
L 107.47067 276.48 
L 108.460021 276.48 
L 108.460021 276.48 
L 108.954697 276.48 
L 108.954697 276.48 
L 109.449372 276.48 
L 109.449372 276.48 
L 109.944048 276.48 
L 109.944048 276.48 
L 110.438724 276.48 
L 110.438724 276.48 
L 110.933399 276.48 
L 110.933399 276.48 
L 111.428075 276.48 
L 111.428075 276.48 
L 111.92275 276.48 
L 111.92275 276.48 
L 112.417426 276.48 
L 112.417426 276.48 
L 112.912102 276.48 
L 112.912102 276.48 
L 113.406777 276.48 
L 113.406777 276.48 
L 113.901453 276.48 
L 113.901453 276.48 
L 118.353534 276.48 
L 118.353534 276.48 
L 119.342885 276.48 
L 119.342885 276.48 
L 119.83756 276.48 
L 119.83756 276.48 
L 120.332236 276.48 
L 120.332236 276.48 
L 120.826912 276.48 
L 120.826912 276.48 
L 122.805614 276.48 
L 122.805614 276.48 
L 131.2151 276.48 
L 131.2151 276.48 
L 132.204451 276.48 
L 132.204451 276.48 
L 132.699127 276.48 
L 132.699127 276.48 
L 133.688478 276.48 
L 133.688478 276.48 
L 134.183154 276.48 
L 134.183154 276.48 
L 135.667181 276.48 
L 135.667181 276.48 
L 137.645883 276.48 
L 137.645883 276.48 
L 138.140559 276.48 
L 138.140559 276.48 
L 142.097964 276.48 
L 142.097964 276.48 
L 142.592639 276.48 
L 142.592639 276.48 
L 143.087315 276.48 
L 143.087315 276.48 
L 143.581991 276.48 
L 143.581991 276.48 
L 144.076666 276.48 
L 144.076666 276.48 
L 144.571342 276.48 
L 144.571342 276.48 
L 145.066017 276.48 
L 145.066017 276.48 
L 145.560693 276.48 
L 145.560693 276.48 
L 146.055369 276.48 
L 146.055369 276.48 
L 147.04472 276.48 
L 147.04472 276.48 
L 147.539396 276.48 
L 147.539396 276.48 
L 148.034071 276.48 
L 148.034071 276.48 
L 148.528747 276.48 
L 148.528747 276.48 
L 149.023422 276.48 
L 149.023422 276.48 
L 149.518098 276.48 
L 149.518098 276.48 
L 150.507449 276.48 
L 150.507449 276.48 
L 152.486152 276.48 
L 152.486152 276.48 
L 154.464854 276.48 
L 154.464854 276.48 
L 155.454206 276.48 
L 155.454206 276.48 
L 156.443557 276.48 
L 156.443557 276.48 
L 157.432908 276.48 
L 157.432908 276.48 
L 157.927584 276.48 
L 157.927584 276.48 
L 158.916935 276.48 
L 158.916935 276.48 
L 159.411611 276.48 
L 159.411611 276.48 
L 159.906286 276.48 
L 159.906286 276.48 
L 160.400962 276.48 
L 160.400962 276.48 
L 160.895637 276.48 
L 160.895637 276.48 
L 161.390313 276.48 
L 161.390313 276.48 
L 165.347718 276.48 
L 165.347718 276.48 
L 165.842394 276.48 
L 165.842394 276.48 
L 166.337069 276.48 
L 166.337069 276.48 
L 166.831745 276.48 
L 166.831745 276.48 
L 167.326421 276.48 
L 167.326421 276.48 
L 167.821096 276.48 
L 167.821096 276.48 
L 168.315772 276.48 
L 168.315772 276.48 
L 168.810447 276.48 
L 168.810447 276.48 
L 169.799799 276.48 
L 169.799799 276.48 
L 170.78915 276.48 
L 170.78915 276.48 
L 171.778501 276.48 
L 171.778501 276.48 
L 172.273177 276.48 
L 172.273177 276.48 
L 172.767852 276.48 
L 172.767852 276.48 
L 173.262528 276.48 
L 173.262528 276.48 
L 174.251879 276.48 
L 174.251879 276.48 
L 174.746555 276.48 
L 174.746555 276.48 
L 175.241231 276.48 
L 175.241231 276.48 
L 177.219933 276.48 
L 177.219933 276.48 
L 178.70396 276.48 
L 178.70396 276.48 
L 179.198636 276.48 
L 179.198636 276.48 
L 181.177338 276.48 
L 181.177338 276.48 
L 182.166689 276.48 
L 182.166689 276.48 
L 182.661365 276.48 
L 182.661365 276.48 
L 183.156041 276.48 
L 183.156041 276.48 
L 183.650716 276.48 
L 183.650716 276.48 
L 184.145392 276.48 
L 184.145392 276.48 
L 184.640067 276.48 
L 184.640067 276.48 
L 185.629419 276.48 
L 185.629419 276.48 
L 188.597472 276.48 
L 188.597472 276.48 
L 189.092148 276.48 
L 189.092148 276.48 
L 189.586824 276.48 
L 189.586824 276.48 
L 190.576175 276.48 
L 190.576175 276.48 
L 191.070851 276.48 
L 191.070851 276.48 
L 192.060202 276.48 
L 192.060202 276.48 
L 192.554877 276.48 
L 192.554877 276.48 
L 194.038904 276.48 
L 194.038904 276.48 
L 194.53358 276.48 
L 194.53358 276.48 
L 195.522931 276.48 
L 195.522931 276.48 
L 196.017607 276.48 
L 196.017607 276.48 
L 196.512282 276.48 
L 196.512282 276.48 
L 197.006958 276.48 
L 197.006958 276.48 
L 197.501634 276.48 
L 197.501634 276.48 
L 202.44839 276.48 
L 202.44839 276.48 
L 203.437741 276.48 
L 203.437741 276.48 
L 203.932417 276.48 
L 203.932417 276.48 
L 205.416444 276.48 
L 205.416444 276.48 
L 205.911119 276.48 
L 205.911119 276.48 
L 206.405795 276.48 
L 206.405795 276.48 
L 207.889822 276.48 
L 207.889822 276.48 
L 208.384497 276.48 
L 208.384497 276.48 
L 213.331254 276.48 
L 213.331254 276.48 
L 214.320605 276.48 
L 214.320605 276.48 
L 215.309956 276.48 
L 215.309956 276.48 
L 215.804632 276.48 
L 215.804632 276.48 
L 216.299308 276.48 
L 216.299308 276.48 
L 216.793983 276.48 
L 216.793983 276.48 
L 217.288659 276.48 
L 217.288659 276.48 
L 218.27801 276.48 
L 218.27801 276.48 
L 219.267361 276.48 
L 219.267361 276.48 
L 220.256713 276.48 
L 220.256713 276.48 
L 220.751388 276.48 
L 220.751388 276.48 
L 221.246064 276.48 
L 221.246064 276.48 
L 225.203469 276.48 
L 225.203469 276.48 
L 226.687496 276.48 
L 226.687496 276.48 
L 227.182171 276.48 
L 227.182171 276.48 
L 228.666198 276.48 
L 228.666198 276.48 
L 229.655549 276.48 
L 229.655549 276.48 
L 230.150225 276.48 
L 230.150225 276.48 
L 230.644901 276.48 
L 230.644901 276.48 
L 231.139576 276.48 
L 231.139576 276.48 
L 232.128928 276.48 
L 232.128928 276.48 
L 236.581008 276.48 
L 236.581008 276.48 
L 239.054386 276.48 
L 239.054386 276.48 
L 239.549062 276.48 
L 239.549062 276.48 
L 241.033089 276.48 
L 241.033089 276.48 
L 242.02244 276.48 
L 242.02244 276.48 
L 242.517116 276.48 
L 242.517116 276.48 
L 243.011791 276.48 
L 243.011791 276.48 
L 243.506467 276.48 
L 243.506467 276.48 
L 244.001143 276.48 
L 244.001143 276.48 
L 244.495818 276.48 
L 244.495818 276.48 
L 248.453223 276.48 
L 248.453223 276.48 
L 249.442574 276.48 
L 249.442574 276.48 
L 249.93725 276.48 
L 249.93725 276.48 
L 250.431926 276.48 
L 250.431926 276.48 
L 250.926601 276.48 
L 250.926601 276.48 
L 251.421277 276.48 
L 251.421277 276.48 
L 251.915953 276.48 
L 251.915953 276.48 
L 252.410628 276.48 
L 252.410628 276.48 
L 252.905304 276.48 
L 252.905304 276.48 
L 253.894655 276.48 
L 253.894655 276.48 
L 260.325438 276.48 
L 260.325438 276.48 
L 262.304141 276.48 
L 262.304141 276.48 
L 263.293492 276.48 
L 263.293492 276.48 
L 263.788168 276.48 
L 263.788168 276.48 
L 265.272194 276.48 
L 265.272194 276.48 
L 265.76687 276.48 
L 265.76687 276.48 
L 266.261546 276.48 
L 266.261546 276.48 
L 267.745573 276.48 
L 267.745573 276.48 
L 269.229599 276.48 
L 269.229599 276.48 
L 272.692329 276.48 
L 272.692329 276.48 
L 273.187004 276.48 
L 273.187004 276.48 
L 273.68168 276.48 
L 273.68168 276.48 
L 274.176356 276.48 
L 274.176356 276.48 
L 274.671031 276.48 
L 274.671031 276.48 
L 276.155058 276.48 
L 276.155058 276.48 
L 277.639085 276.48 
L 277.639085 276.48 
L 279.123112 276.48 
L 279.123112 276.48 
L 287.037922 276.48 
L 287.037922 276.48 
L 289.016625 276.48 
L 289.016625 276.48 
L 289.5113 276.48 
L 289.5113 276.48 
L 298.415461 276.48 
L 298.415461 276.48 
L 298.910137 276.48 
L 298.910137 276.48 
L 299.404813 276.48 
L 299.404813 276.48 
L 300.394164 276.48 
L 300.394164 276.48 
L 300.88884 276.48 
L 300.88884 276.48 
L 301.383515 276.48 
L 301.383515 276.48 
L 302.372866 276.48 
L 302.372866 276.48 
L 306.824947 276.48 
L 306.824947 276.48 
L 307.814298 276.48 
L 307.814298 276.48 
L 309.298325 276.48 
L 309.298325 276.48 
L 310.287676 276.48 
L 310.287676 276.48 
L 312.266379 276.48 
L 312.266379 276.48 
L 315.234433 276.48 
L 315.234433 276.48 
L 321.665216 276.48 
L 321.665216 276.48 
L 322.159891 276.48 
L 322.159891 276.48 
L 323.643918 276.48 
L 323.643918 276.48 
L 324.63327 276.48 
L 324.63327 276.48 
L 325.127945 276.48 
L 325.127945 276.48 
L 326.117296 276.48 
L 326.117296 276.48 
L 330.569377 276.48 
L 330.569377 276.48 
L 332.053404 276.48 
L 332.053404 276.48 
L 333.042755 276.48 
L 333.042755 276.48 
L 333.537431 276.48 
L 333.537431 276.48 
L 334.032106 276.48 
L 334.032106 276.48 
L 336.010809 276.48 
L 336.010809 276.48 
L 337.494836 276.48 
L 337.494836 276.48 
L 337.989511 276.48 
L 337.989511 276.48 
L 338.484187 276.48 
L 338.484187 276.48 
L 338.978863 276.48 
L 338.978863 276.48 
L 343.925619 276.48 
L 343.925619 276.48 
L 344.91497 276.48 
L 344.91497 276.48 
L 347.388348 276.48 
L 347.388348 276.48 
L 349.861726 276.48 
L 349.861726 276.48 
L 350.356402 276.48 
L 350.356402 276.48 
L 350.851078 276.48 
L 350.851078 276.48 
L 351.840429 276.48 
L 351.840429 276.48 
L 354.313807 276.48 
L 354.313807 276.48 
L 355.303158 276.48 
L 355.303158 276.48 
L 357.281861 276.48 
L 357.281861 276.48 
L 361.239266 276.48 
L 361.239266 276.48 
L 363.217968 276.48 
L 363.217968 276.48 
L 366.130288 276.48 
L 366.130288 276.48 
L 366.333081 276.48 
L 366.333081 276.48 
L 366.510059 276.48 
L 366.510059 276.48 
L 366.860946 276.48 
L 366.860946 276.48 
L 367.083468 276.48 
L 367.083468 276.48 
L 367.317003 276.48 
L 367.317003 276.48 
L 367.491897 276.48 
L 367.491897 276.48 
L 367.852604 276.48 
L 367.852604 276.48 
L 368.049248 276.48 
L 368.049248 276.48 
L 368.313965 276.48 
L 368.313965 276.48 
L 368.50847 276.48 
L 368.50847 276.48 
L 368.81813 276.48 
L 368.81813 276.48 
L 369.012858 276.48 
L 369.012858 276.48 
L 369.275067 276.48 
L 369.275067 276.48 
L 369.458583 276.48 
L 369.458583 276.48 
L 369.888184 276.48 
L 369.888184 276.48 
L 370.167057 276.48 
L 370.167057 276.48 
L 370.488268 276.48 
L 370.488268 276.48 
L 370.512712 276.48 
L 370.512712 276.48 
L 370.527112 276.48 
L 370.527112 276.48 
L 370.771377 276.48 
L 370.771377 276.48 
L 370.958043 276.48 
L 370.958043 276.48 
L 371.286043 276.48 
L 371.286043 276.48 
L 371.498086 276.48 
L 371.498086 276.48 
L 371.855022 276.48 
L 371.855022 276.48 
L 372.56044 276.48 
L 372.56044 276.48 
L 372.58086 276.48 
L 372.58086 276.48 
L 372.606094 276.48 
L 372.606094 276.48 
L 372.791465 276.48 
L 372.791465 276.48 
L 373.001231 276.48 
L 373.001231 276.48 
L 373.229047 276.48 
L 373.229047 276.48 
L 373.416777 276.48 
L 373.416777 276.48 
L 373.761339 276.48 
L 373.761339 276.48 
L 374.225684 276.48 
L 374.225684 276.48 
L 379.720912 276.48 
L 379.720912 276.48 
L 381.146517 276.48 
L 381.146517 276.48 
L 382.36149 276.48 
L 382.36149 276.48 
L 382.643424 276.48 
L 382.643424 276.48 
L 384.026401 276.48 
L 384.026401 276.48 
L 384.377076 276.48 
L 384.377076 276.48 
L 384.660416 276.48 
L 384.660416 276.48 
L 385.102718 276.48 
L 385.102718 276.48 
L 392.57326 276.48 
L 392.57326 276.48 
L 395.611711 276.48 
L 395.611711 276.48 
L 397.699217 276.48 
L 397.699217 276.48 
L 397.975938 276.48 
L 397.975938 276.48 
L 398.487273 276.48 
L 398.487273 276.48 
L 398.487273 200.083749 
L 398.487273 200.083749 
L 398.487273 200.083749 
L 397.975938 200.083749 
L 397.975938 200.083749 
L 397.699217 200.083749 
L 397.699217 200.083749 
L 395.611711 200.083749 
L 395.611711 200.083749 
L 392.57326 200.083749 
L 392.57326 200.083749 
L 385.102718 200.083749 
L 385.102718 200.083749 
L 384.660416 200.083749 
L 384.660416 200.083749 
L 384.377076 200.083749 
L 384.377076 200.083749 
L 384.026401 200.083749 
L 384.026401 200.083749 
L 382.643424 200.083749 
L 382.643424 200.083749 
L 382.36149 200.083749 
L 382.36149 200.083749 
L 381.146517 200.083749 
L 381.146517 200.083749 
L 379.720912 200.083749 
L 379.720912 200.083749 
L 374.225684 200.083749 
L 374.225684 200.083749 
L 373.761339 200.083749 
L 373.761339 200.083749 
L 373.416777 200.083749 
L 373.416777 200.083749 
L 373.229047 200.083749 
L 373.229047 200.083749 
L 373.001231 200.083749 
L 373.001231 200.083749 
L 372.791465 200.083749 
L 372.791465 200.083749 
L 372.606094 200.083749 
L 372.606094 200.083749 
L 372.58086 200.083749 
L 372.58086 200.083749 
L 372.56044 200.083749 
L 372.56044 200.083749 
L 371.855022 200.083749 
L 371.855022 200.083749 
L 371.498086 200.083749 
L 371.498086 200.083749 
L 371.286043 200.083749 
L 371.286043 200.083749 
L 370.958043 200.083749 
L 370.958043 200.083749 
L 370.771377 200.083749 
L 370.771377 200.083749 
L 370.527112 200.083749 
L 370.527112 200.083749 
L 370.512712 200.083749 
L 370.512712 200.083749 
L 370.488268 200.083749 
L 370.488268 200.083749 
L 370.167057 200.083749 
L 370.167057 200.083749 
L 369.888184 200.083749 
L 369.888184 200.083749 
L 369.458583 200.083749 
L 369.458583 200.083749 
L 369.275067 200.083749 
L 369.275067 200.083749 
L 369.012858 200.083749 
L 369.012858 200.083749 
L 368.81813 200.083749 
L 368.81813 200.083749 
L 368.50847 200.083749 
L 368.50847 200.083749 
L 368.313965 200.083749 
L 368.313965 200.083749 
L 368.049248 200.083749 
L 368.049248 200.083749 
L 367.852604 200.083749 
L 367.852604 200.083749 
L 367.491897 200.083749 
L 367.491897 200.083749 
L 367.317003 200.083749 
L 367.317003 200.083749 
L 367.083468 200.083749 
L 367.083468 200.083749 
L 366.860946 200.083749 
L 366.860946 200.083749 
L 366.510059 200.083749 
L 366.510059 200.083749 
L 366.333081 200.083749 
L 366.333081 200.083749 
L 366.130288 200.083749 
L 366.130288 202.023497 
L 363.217968 202.023497 
L 363.217968 202.023497 
L 361.239266 202.023497 
L 361.239266 202.023497 
L 357.281861 202.023497 
L 357.281861 202.023497 
L 355.303158 202.023497 
L 355.303158 202.023497 
L 354.313807 202.023497 
L 354.313807 202.023497 
L 351.840429 202.023497 
L 351.840429 202.023497 
L 350.851078 202.023497 
L 350.851078 202.023497 
L 350.356402 202.023497 
L 350.356402 202.023497 
L 349.861726 202.023497 
L 349.861726 202.023497 
L 347.388348 202.023497 
L 347.388348 202.023497 
L 344.91497 202.023497 
L 344.91497 202.023497 
L 343.925619 202.023497 
L 343.925619 202.023497 
L 338.978863 202.023497 
L 338.978863 202.023497 
L 338.484187 202.023497 
L 338.484187 202.023497 
L 337.989511 202.023497 
L 337.989511 202.023497 
L 337.494836 202.023497 
L 337.494836 202.023497 
L 336.010809 202.023497 
L 336.010809 202.023497 
L 334.032106 202.023497 
L 334.032106 202.023497 
L 333.537431 202.023497 
L 333.537431 202.023497 
L 333.042755 202.023497 
L 333.042755 202.023497 
L 332.053404 202.023497 
L 332.053404 202.023497 
L 330.569377 202.023497 
L 330.569377 202.023497 
L 326.117296 202.023497 
L 326.117296 202.023497 
L 325.127945 202.023497 
L 325.127945 202.023497 
L 324.63327 202.023497 
L 324.63327 202.023497 
L 323.643918 202.023497 
L 323.643918 202.023497 
L 322.159891 202.023497 
L 322.159891 202.023497 
L 321.665216 202.023497 
L 321.665216 202.023497 
L 315.234433 202.023497 
L 315.234433 202.023497 
L 312.266379 202.023497 
L 312.266379 202.023497 
L 310.287676 202.023497 
L 310.287676 202.023497 
L 309.298325 202.023497 
L 309.298325 202.023497 
L 307.814298 202.023497 
L 307.814298 202.023497 
L 306.824947 202.023497 
L 306.824947 202.023497 
L 302.372866 202.023497 
L 302.372866 202.023497 
L 301.383515 202.023497 
L 301.383515 202.023497 
L 300.88884 202.023497 
L 300.88884 202.023497 
L 300.394164 202.023497 
L 300.394164 202.023497 
L 299.404813 202.023497 
L 299.404813 202.023497 
L 298.910137 202.023497 
L 298.910137 202.023497 
L 298.415461 202.023497 
L 298.415461 202.023497 
L 289.5113 202.023497 
L 289.5113 202.023497 
L 289.016625 202.023497 
L 289.016625 202.023497 
L 287.037922 202.023497 
L 287.037922 202.023497 
L 279.123112 202.023497 
L 279.123112 202.023497 
L 277.639085 202.023497 
L 277.639085 202.023497 
L 276.155058 202.023497 
L 276.155058 202.023497 
L 274.671031 202.023497 
L 274.671031 202.023497 
L 274.176356 202.023497 
L 274.176356 202.023497 
L 273.68168 202.023497 
L 273.68168 202.023497 
L 273.187004 202.023497 
L 273.187004 202.023497 
L 272.692329 202.023497 
L 272.692329 202.023497 
L 269.229599 202.023497 
L 269.229599 202.023497 
L 267.745573 202.023497 
L 267.745573 202.023497 
L 266.261546 202.023497 
L 266.261546 202.023497 
L 265.76687 202.023497 
L 265.76687 202.023497 
L 265.272194 202.023497 
L 265.272194 202.023497 
L 263.788168 202.023497 
L 263.788168 202.023497 
L 263.293492 202.023497 
L 263.293492 202.023497 
L 262.304141 202.023497 
L 262.304141 202.023497 
L 260.325438 202.023497 
L 260.325438 202.023497 
L 253.894655 202.023497 
L 253.894655 202.023497 
L 252.905304 202.023497 
L 252.905304 202.023497 
L 252.410628 202.023497 
L 252.410628 202.023497 
L 251.915953 202.023497 
L 251.915953 202.023497 
L 251.421277 202.023497 
L 251.421277 202.023497 
L 250.926601 202.023497 
L 250.926601 202.023497 
L 250.431926 202.023497 
L 250.431926 202.023497 
L 249.93725 202.023497 
L 249.93725 202.023497 
L 249.442574 202.023497 
L 249.442574 202.023497 
L 248.453223 202.023497 
L 248.453223 202.023497 
L 244.495818 202.023497 
L 244.495818 202.023497 
L 244.001143 202.023497 
L 244.001143 202.023497 
L 243.506467 202.023497 
L 243.506467 202.023497 
L 243.011791 202.023497 
L 243.011791 202.023497 
L 242.517116 202.023497 
L 242.517116 202.023497 
L 242.02244 202.023497 
L 242.02244 202.023497 
L 241.033089 202.023497 
L 241.033089 202.023497 
L 239.549062 202.023497 
L 239.549062 202.023497 
L 239.054386 202.023497 
L 239.054386 202.023497 
L 236.581008 202.023497 
L 236.581008 202.023497 
L 232.128928 202.023497 
L 232.128928 202.023497 
L 231.139576 202.023497 
L 231.139576 202.023497 
L 230.644901 202.023497 
L 230.644901 202.023497 
L 230.150225 202.023497 
L 230.150225 202.023497 
L 229.655549 202.023497 
L 229.655549 202.023497 
L 228.666198 202.023497 
L 228.666198 202.023497 
L 227.182171 202.023497 
L 227.182171 202.023497 
L 226.687496 202.023497 
L 226.687496 202.023497 
L 225.203469 202.023497 
L 225.203469 202.023497 
L 221.246064 202.023497 
L 221.246064 202.023497 
L 220.751388 202.023497 
L 220.751388 202.023497 
L 220.256713 202.023497 
L 220.256713 202.023497 
L 219.267361 202.023497 
L 219.267361 202.023497 
L 218.27801 202.023497 
L 218.27801 202.023497 
L 217.288659 202.023497 
L 217.288659 202.023497 
L 216.793983 202.023497 
L 216.793983 202.023497 
L 216.299308 202.023497 
L 216.299308 202.023497 
L 215.804632 202.023497 
L 215.804632 202.023497 
L 215.309956 202.023497 
L 215.309956 202.023497 
L 214.320605 202.023497 
L 214.320605 202.023497 
L 213.331254 202.023497 
L 213.331254 202.023497 
L 208.384497 202.023497 
L 208.384497 202.023497 
L 207.889822 202.023497 
L 207.889822 202.023497 
L 206.405795 202.023497 
L 206.405795 202.172709 
L 205.911119 202.172709 
L 205.911119 202.471131 
L 205.416444 202.471131 
L 205.416444 202.620343 
L 203.932417 202.620343 
L 203.932417 203.067977 
L 203.437741 203.067977 
L 203.437741 203.217189 
L 202.44839 203.217189 
L 202.44839 203.3664 
L 197.501634 203.3664 
L 197.501634 203.664823 
L 197.006958 203.664823 
L 197.006958 203.664823 
L 196.512282 203.664823 
L 196.512282 203.963246 
L 196.017607 203.963246 
L 196.017607 204.41088 
L 195.522931 204.41088 
L 195.522931 204.41088 
L 194.53358 204.41088 
L 194.53358 204.709303 
L 194.038904 204.709303 
L 194.038904 204.858514 
L 192.554877 204.858514 
L 192.554877 205.156937 
L 192.060202 205.156937 
L 192.060202 206.649051 
L 191.070851 206.649051 
L 191.070851 206.947474 
L 190.576175 206.947474 
L 190.576175 207.096686 
L 189.586824 207.096686 
L 189.586824 207.693531 
L 189.092148 207.693531 
L 189.092148 207.693531 
L 188.597472 207.693531 
L 188.597472 207.842743 
L 185.629419 207.842743 
L 185.629419 208.141166 
L 184.640067 208.141166 
L 184.640067 208.5888 
L 184.145392 208.5888 
L 184.145392 208.887223 
L 183.650716 208.887223 
L 183.650716 209.782491 
L 183.156041 209.782491 
L 183.156041 210.230126 
L 182.661365 210.230126 
L 182.661365 211.125394 
L 182.166689 211.125394 
L 182.166689 211.573029 
L 181.177338 211.573029 
L 181.177338 211.72224 
L 179.198636 211.72224 
L 179.198636 211.871451 
L 178.70396 211.871451 
L 178.70396 212.169874 
L 177.219933 212.169874 
L 177.219933 212.169874 
L 175.241231 212.169874 
L 175.241231 212.468297 
L 174.746555 212.468297 
L 174.746555 212.617509 
L 174.251879 212.617509 
L 174.251879 212.76672 
L 173.262528 212.76672 
L 173.262528 213.214354 
L 172.767852 213.214354 
L 172.767852 213.214354 
L 172.273177 213.214354 
L 172.273177 213.512777 
L 171.778501 213.512777 
L 171.778501 214.258834 
L 170.78915 214.258834 
L 170.78915 214.557257 
L 169.799799 214.557257 
L 169.799799 214.557257 
L 168.810447 214.557257 
L 168.810447 214.706469 
L 168.315772 214.706469 
L 168.315772 214.85568 
L 167.821096 214.85568 
L 167.821096 215.154103 
L 167.326421 215.154103 
L 167.326421 215.303314 
L 166.831745 215.303314 
L 166.831745 215.452526 
L 166.337069 215.452526 
L 166.337069 215.750949 
L 165.842394 215.750949 
L 165.842394 215.750949 
L 165.347718 215.750949 
L 165.347718 215.90016 
L 161.390313 215.90016 
L 161.390313 215.90016 
L 160.895637 215.90016 
L 160.895637 216.198583 
L 160.400962 216.198583 
L 160.400962 216.347794 
L 159.906286 216.347794 
L 159.906286 216.497006 
L 159.411611 216.497006 
L 159.411611 216.646217 
L 158.916935 216.646217 
L 158.916935 216.94464 
L 157.927584 216.94464 
L 157.927584 216.94464 
L 157.432908 216.94464 
L 157.432908 217.243063 
L 156.443557 217.243063 
L 156.443557 217.541486 
L 155.454206 217.541486 
L 155.454206 217.98912 
L 154.464854 217.98912 
L 154.464854 218.287543 
L 152.486152 218.287543 
L 152.486152 218.287543 
L 150.507449 218.287543 
L 150.507449 218.436754 
L 149.518098 218.436754 
L 149.518098 218.735177 
L 149.023422 218.735177 
L 149.023422 218.884389 
L 148.528747 218.884389 
L 148.528747 219.182811 
L 148.034071 219.182811 
L 148.034071 219.481234 
L 147.539396 219.481234 
L 147.539396 219.779657 
L 147.04472 219.779657 
L 147.04472 219.928869 
L 146.055369 219.928869 
L 146.055369 220.227291 
L 145.560693 220.227291 
L 145.560693 220.525714 
L 145.066017 220.525714 
L 145.066017 220.973349 
L 144.571342 220.973349 
L 144.571342 221.271771 
L 144.076666 221.271771 
L 144.076666 221.570194 
L 143.581991 221.570194 
L 143.581991 221.719406 
L 143.087315 221.719406 
L 143.087315 222.316251 
L 142.592639 222.316251 
L 142.592639 222.465463 
L 142.097964 222.465463 
L 142.097964 222.763886 
L 138.140559 222.763886 
L 138.140559 223.509943 
L 137.645883 223.509943 
L 137.645883 223.659154 
L 135.667181 223.659154 
L 135.667181 224.256 
L 134.183154 224.256 
L 134.183154 224.554423 
L 133.688478 224.554423 
L 133.688478 225.002057 
L 132.699127 225.002057 
L 132.699127 225.151269 
L 132.204451 225.151269 
L 132.204451 225.30048 
L 131.2151 225.30048 
L 131.2151 225.449691 
L 122.805614 225.449691 
L 122.805614 225.598903 
L 120.826912 225.598903 
L 120.826912 225.748114 
L 120.332236 225.748114 
L 120.332236 226.046537 
L 119.83756 226.046537 
L 119.83756 226.195749 
L 119.342885 226.195749 
L 119.342885 226.34496 
L 118.353534 226.34496 
L 118.353534 226.643383 
L 113.901453 226.643383 
L 113.901453 227.240229 
L 113.406777 227.240229 
L 113.406777 227.38944 
L 112.912102 227.38944 
L 112.912102 227.538651 
L 112.417426 227.538651 
L 112.417426 227.687863 
L 111.92275 227.687863 
L 111.92275 227.837074 
L 111.428075 227.837074 
L 111.428075 227.837074 
L 110.933399 227.837074 
L 110.933399 228.135497 
L 110.438724 228.135497 
L 110.438724 228.43392 
L 109.944048 228.43392 
L 109.944048 228.732343 
L 109.449372 228.732343 
L 109.449372 229.179977 
L 108.954697 229.179977 
L 108.954697 229.627611 
L 108.460021 229.627611 
L 108.460021 229.926034 
L 107.47067 229.926034 
L 107.47067 230.224457 
L 106.975994 230.224457 
L 106.975994 230.373669 
L 106.481319 230.373669 
L 106.481319 230.52288 
L 104.997292 230.52288 
L 104.997292 230.672091 
L 102.029238 230.672091 
L 102.029238 231.119726 
L 101.534562 231.119726 
L 101.534562 231.268937 
L 101.039887 231.268937 
L 101.039887 231.418149 
L 100.545211 231.418149 
L 100.545211 231.716571 
L 100.050535 231.716571 
L 100.050535 232.014994 
L 99.55586 232.014994 
L 99.55586 232.61184 
L 99.061184 232.61184 
L 99.061184 232.910263 
L 98.566509 232.910263 
L 98.566509 233.65632 
L 98.071833 233.65632 
L 98.071833 234.103954 
L 97.577157 234.103954 
L 97.577157 234.850011 
L 97.082482 234.850011 
L 97.082482 234.999223 
L 96.587806 234.999223 
L 96.587806 235.297646 
L 96.09313 235.297646 
L 96.09313 236.043703 
L 95.598455 236.043703 
L 95.598455 236.342126 
L 95.103779 236.342126 
L 95.103779 236.640549 
L 94.609104 236.640549 
L 94.609104 236.78976 
L 94.114428 236.78976 
L 94.114428 237.088183 
L 93.619752 237.088183 
L 93.619752 237.237394 
L 90.157023 237.237394 
L 90.157023 237.386606 
L 89.662347 237.386606 
L 89.662347 237.685029 
L 89.167672 237.685029 
L 89.167672 238.281874 
L 88.17832 238.281874 
L 88.17832 238.87872 
L 87.188969 238.87872 
L 87.188969 239.326354 
L 86.694294 239.326354 
L 86.694294 239.773989 
L 86.199618 239.773989 
L 86.199618 239.773989 
L 85.704942 239.773989 
L 85.704942 240.370834 
L 85.210267 240.370834 
L 85.210267 241.713737 
L 84.715591 241.713737 
L 84.715591 242.310583 
L 84.220915 242.310583 
L 84.220915 243.205851 
L 83.72624 243.205851 
L 83.72624 244.250331 
L 83.231564 244.250331 
L 83.231564 244.548754 
L 82.736889 244.548754 
L 82.736889 245.1456 
L 81.747537 245.1456 
L 81.747537 245.444023 
L 81.252862 245.444023 
L 81.252862 245.593234 
L 80.758186 245.593234 
L 80.758186 245.742446 
L 80.26351 245.742446 
L 80.26351 245.742446 
L 79.768835 245.742446 
L 79.768835 246.040869 
L 79.274159 246.040869 
L 79.274159 246.19008 
L 78.779484 246.19008 
L 78.779484 246.339291 
L 78.284808 246.339291 
L 78.284808 247.532983 
L 77.790132 247.532983 
L 77.790132 249.025097 
L 77.295457 249.025097 
L 77.295457 252.009326 
L 76.800781 252.009326 
L 76.800781 254.396709 
L 76.306105 254.396709 
L 76.306105 257.380937 
L 75.81143 257.380937 
L 75.81143 261.708069 
L 75.316754 261.708069 
L 75.316754 269.019429 
L 74.822079 269.019429 
L 74.822079 273.794194 
L 74.327403 273.794194 
L 74.327403 275.584731 
L 73.832727 275.584731 
L 73.832727 276.48 
L 73.832727 276.48 
z
" clip-path="url(#p0bbd8e8e7b)" style="fill: #fa448c; fill-opacity: 0.8"/>
   </g>
   <g id="PolyCollection_2">
    <path d="M 73.832727 276.48 
L 73.832727 276.48 
L 73.832727 276.48 
L 73.832727 275.584731 
L 74.327403 275.584731 
L 74.327403 273.794194 
L 74.822079 273.794194 
L 74.822079 269.019429 
L 75.316754 269.019429 
L 75.316754 261.708069 
L 75.81143 261.708069 
L 75.81143 257.380937 
L 76.306105 257.380937 
L 76.306105 254.396709 
L 76.800781 254.396709 
L 76.800781 252.009326 
L 77.295457 252.009326 
L 77.295457 249.025097 
L 77.790132 249.025097 
L 77.790132 247.532983 
L 78.284808 247.532983 
L 78.284808 246.339291 
L 78.779484 246.339291 
L 78.779484 246.19008 
L 79.274159 246.19008 
L 79.274159 246.040869 
L 79.768835 246.040869 
L 79.768835 245.742446 
L 80.26351 245.742446 
L 80.26351 245.742446 
L 80.758186 245.742446 
L 80.758186 245.593234 
L 81.252862 245.593234 
L 81.252862 245.444023 
L 81.747537 245.444023 
L 81.747537 245.1456 
L 82.736889 245.1456 
L 82.736889 244.548754 
L 83.231564 244.548754 
L 83.231564 244.250331 
L 83.72624 244.250331 
L 83.72624 243.205851 
L 84.220915 243.205851 
L 84.220915 242.310583 
L 84.715591 242.310583 
L 84.715591 241.713737 
L 85.210267 241.713737 
L 85.210267 240.370834 
L 85.704942 240.370834 
L 85.704942 239.773989 
L 86.199618 239.773989 
L 86.199618 239.773989 
L 86.694294 239.773989 
L 86.694294 239.326354 
L 87.188969 239.326354 
L 87.188969 238.87872 
L 88.17832 238.87872 
L 88.17832 238.281874 
L 89.167672 238.281874 
L 89.167672 237.685029 
L 89.662347 237.685029 
L 89.662347 237.386606 
L 90.157023 237.386606 
L 90.157023 237.237394 
L 93.619752 237.237394 
L 93.619752 237.088183 
L 94.114428 237.088183 
L 94.114428 236.78976 
L 94.609104 236.78976 
L 94.609104 236.640549 
L 95.103779 236.640549 
L 95.103779 236.342126 
L 95.598455 236.342126 
L 95.598455 236.043703 
L 96.09313 236.043703 
L 96.09313 235.297646 
L 96.587806 235.297646 
L 96.587806 234.999223 
L 97.082482 234.999223 
L 97.082482 234.850011 
L 97.577157 234.850011 
L 97.577157 234.103954 
L 98.071833 234.103954 
L 98.071833 233.65632 
L 98.566509 233.65632 
L 98.566509 232.910263 
L 99.061184 232.910263 
L 99.061184 232.61184 
L 99.55586 232.61184 
L 99.55586 232.014994 
L 100.050535 232.014994 
L 100.050535 231.716571 
L 100.545211 231.716571 
L 100.545211 231.418149 
L 101.039887 231.418149 
L 101.039887 231.268937 
L 101.534562 231.268937 
L 101.534562 231.119726 
L 102.029238 231.119726 
L 102.029238 230.672091 
L 104.997292 230.672091 
L 104.997292 230.52288 
L 106.481319 230.52288 
L 106.481319 230.373669 
L 106.975994 230.373669 
L 106.975994 230.224457 
L 107.47067 230.224457 
L 107.47067 229.926034 
L 108.460021 229.926034 
L 108.460021 229.627611 
L 108.954697 229.627611 
L 108.954697 229.179977 
L 109.449372 229.179977 
L 109.449372 228.732343 
L 109.944048 228.732343 
L 109.944048 228.43392 
L 110.438724 228.43392 
L 110.438724 228.135497 
L 110.933399 228.135497 
L 110.933399 227.837074 
L 111.428075 227.837074 
L 111.428075 227.837074 
L 111.92275 227.837074 
L 111.92275 227.687863 
L 112.417426 227.687863 
L 112.417426 227.538651 
L 112.912102 227.538651 
L 112.912102 227.38944 
L 113.406777 227.38944 
L 113.406777 227.240229 
L 113.901453 227.240229 
L 113.901453 226.643383 
L 118.353534 226.643383 
L 118.353534 226.34496 
L 119.342885 226.34496 
L 119.342885 226.195749 
L 119.83756 226.195749 
L 119.83756 226.046537 
L 120.332236 226.046537 
L 120.332236 225.748114 
L 120.826912 225.748114 
L 120.826912 225.598903 
L 122.805614 225.598903 
L 122.805614 225.449691 
L 131.2151 225.449691 
L 131.2151 225.30048 
L 132.204451 225.30048 
L 132.204451 225.151269 
L 132.699127 225.151269 
L 132.699127 225.002057 
L 133.688478 225.002057 
L 133.688478 224.554423 
L 134.183154 224.554423 
L 134.183154 224.256 
L 135.667181 224.256 
L 135.667181 223.659154 
L 137.645883 223.659154 
L 137.645883 223.509943 
L 138.140559 223.509943 
L 138.140559 222.763886 
L 142.097964 222.763886 
L 142.097964 222.465463 
L 142.592639 222.465463 
L 142.592639 222.316251 
L 143.087315 222.316251 
L 143.087315 221.719406 
L 143.581991 221.719406 
L 143.581991 221.570194 
L 144.076666 221.570194 
L 144.076666 221.271771 
L 144.571342 221.271771 
L 144.571342 220.973349 
L 145.066017 220.973349 
L 145.066017 220.525714 
L 145.560693 220.525714 
L 145.560693 220.227291 
L 146.055369 220.227291 
L 146.055369 219.928869 
L 147.04472 219.928869 
L 147.04472 219.779657 
L 147.539396 219.779657 
L 147.539396 219.481234 
L 148.034071 219.481234 
L 148.034071 219.182811 
L 148.528747 219.182811 
L 148.528747 218.884389 
L 149.023422 218.884389 
L 149.023422 218.735177 
L 149.518098 218.735177 
L 149.518098 218.436754 
L 150.507449 218.436754 
L 150.507449 218.287543 
L 152.486152 218.287543 
L 152.486152 218.287543 
L 154.464854 218.287543 
L 154.464854 217.98912 
L 155.454206 217.98912 
L 155.454206 217.541486 
L 156.443557 217.541486 
L 156.443557 217.243063 
L 157.432908 217.243063 
L 157.432908 216.94464 
L 157.927584 216.94464 
L 157.927584 216.94464 
L 158.916935 216.94464 
L 158.916935 216.646217 
L 159.411611 216.646217 
L 159.411611 216.497006 
L 159.906286 216.497006 
L 159.906286 216.347794 
L 160.400962 216.347794 
L 160.400962 216.198583 
L 160.895637 216.198583 
L 160.895637 215.90016 
L 161.390313 215.90016 
L 161.390313 215.90016 
L 165.347718 215.90016 
L 165.347718 215.750949 
L 165.842394 215.750949 
L 165.842394 215.750949 
L 166.337069 215.750949 
L 166.337069 215.452526 
L 166.831745 215.452526 
L 166.831745 215.303314 
L 167.326421 215.303314 
L 167.326421 215.154103 
L 167.821096 215.154103 
L 167.821096 214.85568 
L 168.315772 214.85568 
L 168.315772 214.706469 
L 168.810447 214.706469 
L 168.810447 214.557257 
L 169.799799 214.557257 
L 169.799799 214.557257 
L 170.78915 214.557257 
L 170.78915 214.258834 
L 171.778501 214.258834 
L 171.778501 213.512777 
L 172.273177 213.512777 
L 172.273177 213.214354 
L 172.767852 213.214354 
L 172.767852 213.214354 
L 173.262528 213.214354 
L 173.262528 212.76672 
L 174.251879 212.76672 
L 174.251879 212.617509 
L 174.746555 212.617509 
L 174.746555 212.468297 
L 175.241231 212.468297 
L 175.241231 212.169874 
L 177.219933 212.169874 
L 177.219933 212.169874 
L 178.70396 212.169874 
L 178.70396 211.871451 
L 179.198636 211.871451 
L 179.198636 211.72224 
L 181.177338 211.72224 
L 181.177338 211.573029 
L 182.166689 211.573029 
L 182.166689 211.125394 
L 182.661365 211.125394 
L 182.661365 210.230126 
L 183.156041 210.230126 
L 183.156041 209.782491 
L 183.650716 209.782491 
L 183.650716 208.887223 
L 184.145392 208.887223 
L 184.145392 208.5888 
L 184.640067 208.5888 
L 184.640067 208.141166 
L 185.629419 208.141166 
L 185.629419 207.842743 
L 188.597472 207.842743 
L 188.597472 207.693531 
L 189.092148 207.693531 
L 189.092148 207.693531 
L 189.586824 207.693531 
L 189.586824 207.096686 
L 190.576175 207.096686 
L 190.576175 206.947474 
L 191.070851 206.947474 
L 191.070851 206.649051 
L 192.060202 206.649051 
L 192.060202 205.156937 
L 192.554877 205.156937 
L 192.554877 204.858514 
L 194.038904 204.858514 
L 194.038904 204.709303 
L 194.53358 204.709303 
L 194.53358 204.41088 
L 195.522931 204.41088 
L 195.522931 204.41088 
L 196.017607 204.41088 
L 196.017607 203.963246 
L 196.512282 203.963246 
L 196.512282 203.664823 
L 197.006958 203.664823 
L 197.006958 203.664823 
L 197.501634 203.664823 
L 197.501634 203.3664 
L 202.44839 203.3664 
L 202.44839 203.217189 
L 203.437741 203.217189 
L 203.437741 203.067977 
L 203.932417 203.067977 
L 203.932417 202.620343 
L 205.416444 202.620343 
L 205.416444 202.471131 
L 205.911119 202.471131 
L 205.911119 202.172709 
L 206.405795 202.172709 
L 206.405795 202.023497 
L 207.889822 202.023497 
L 207.889822 202.023497 
L 208.384497 202.023497 
L 208.384497 202.023497 
L 213.331254 202.023497 
L 213.331254 202.023497 
L 214.320605 202.023497 
L 214.320605 202.023497 
L 215.309956 202.023497 
L 215.309956 202.023497 
L 215.804632 202.023497 
L 215.804632 202.023497 
L 216.299308 202.023497 
L 216.299308 202.023497 
L 216.793983 202.023497 
L 216.793983 202.023497 
L 217.288659 202.023497 
L 217.288659 202.023497 
L 218.27801 202.023497 
L 218.27801 202.023497 
L 219.267361 202.023497 
L 219.267361 202.023497 
L 220.256713 202.023497 
L 220.256713 202.023497 
L 220.751388 202.023497 
L 220.751388 202.023497 
L 221.246064 202.023497 
L 221.246064 202.023497 
L 225.203469 202.023497 
L 225.203469 202.023497 
L 226.687496 202.023497 
L 226.687496 202.023497 
L 227.182171 202.023497 
L 227.182171 202.023497 
L 228.666198 202.023497 
L 228.666198 202.023497 
L 229.655549 202.023497 
L 229.655549 202.023497 
L 230.150225 202.023497 
L 230.150225 202.023497 
L 230.644901 202.023497 
L 230.644901 202.023497 
L 231.139576 202.023497 
L 231.139576 202.023497 
L 232.128928 202.023497 
L 232.128928 202.023497 
L 236.581008 202.023497 
L 236.581008 202.023497 
L 239.054386 202.023497 
L 239.054386 202.023497 
L 239.549062 202.023497 
L 239.549062 202.023497 
L 241.033089 202.023497 
L 241.033089 202.023497 
L 242.02244 202.023497 
L 242.02244 202.023497 
L 242.517116 202.023497 
L 242.517116 202.023497 
L 243.011791 202.023497 
L 243.011791 202.023497 
L 243.506467 202.023497 
L 243.506467 202.023497 
L 244.001143 202.023497 
L 244.001143 202.023497 
L 244.495818 202.023497 
L 244.495818 202.023497 
L 248.453223 202.023497 
L 248.453223 202.023497 
L 249.442574 202.023497 
L 249.442574 202.023497 
L 249.93725 202.023497 
L 249.93725 202.023497 
L 250.431926 202.023497 
L 250.431926 202.023497 
L 250.926601 202.023497 
L 250.926601 202.023497 
L 251.421277 202.023497 
L 251.421277 202.023497 
L 251.915953 202.023497 
L 251.915953 202.023497 
L 252.410628 202.023497 
L 252.410628 202.023497 
L 252.905304 202.023497 
L 252.905304 202.023497 
L 253.894655 202.023497 
L 253.894655 202.023497 
L 260.325438 202.023497 
L 260.325438 202.023497 
L 262.304141 202.023497 
L 262.304141 202.023497 
L 263.293492 202.023497 
L 263.293492 202.023497 
L 263.788168 202.023497 
L 263.788168 202.023497 
L 265.272194 202.023497 
L 265.272194 202.023497 
L 265.76687 202.023497 
L 265.76687 202.023497 
L 266.261546 202.023497 
L 266.261546 202.023497 
L 267.745573 202.023497 
L 267.745573 202.023497 
L 269.229599 202.023497 
L 269.229599 202.023497 
L 272.692329 202.023497 
L 272.692329 202.023497 
L 273.187004 202.023497 
L 273.187004 202.023497 
L 273.68168 202.023497 
L 273.68168 202.023497 
L 274.176356 202.023497 
L 274.176356 202.023497 
L 274.671031 202.023497 
L 274.671031 202.023497 
L 276.155058 202.023497 
L 276.155058 202.023497 
L 277.639085 202.023497 
L 277.639085 202.023497 
L 279.123112 202.023497 
L 279.123112 202.023497 
L 287.037922 202.023497 
L 287.037922 202.023497 
L 289.016625 202.023497 
L 289.016625 202.023497 
L 289.5113 202.023497 
L 289.5113 202.023497 
L 298.415461 202.023497 
L 298.415461 202.023497 
L 298.910137 202.023497 
L 298.910137 202.023497 
L 299.404813 202.023497 
L 299.404813 202.023497 
L 300.394164 202.023497 
L 300.394164 202.023497 
L 300.88884 202.023497 
L 300.88884 202.023497 
L 301.383515 202.023497 
L 301.383515 202.023497 
L 302.372866 202.023497 
L 302.372866 202.023497 
L 306.824947 202.023497 
L 306.824947 202.023497 
L 307.814298 202.023497 
L 307.814298 202.023497 
L 309.298325 202.023497 
L 309.298325 202.023497 
L 310.287676 202.023497 
L 310.287676 202.023497 
L 312.266379 202.023497 
L 312.266379 202.023497 
L 315.234433 202.023497 
L 315.234433 202.023497 
L 321.665216 202.023497 
L 321.665216 202.023497 
L 322.159891 202.023497 
L 322.159891 202.023497 
L 323.643918 202.023497 
L 323.643918 202.023497 
L 324.63327 202.023497 
L 324.63327 202.023497 
L 325.127945 202.023497 
L 325.127945 202.023497 
L 326.117296 202.023497 
L 326.117296 202.023497 
L 330.569377 202.023497 
L 330.569377 202.023497 
L 332.053404 202.023497 
L 332.053404 202.023497 
L 333.042755 202.023497 
L 333.042755 202.023497 
L 333.537431 202.023497 
L 333.537431 202.023497 
L 334.032106 202.023497 
L 334.032106 202.023497 
L 336.010809 202.023497 
L 336.010809 202.023497 
L 337.494836 202.023497 
L 337.494836 202.023497 
L 337.989511 202.023497 
L 337.989511 202.023497 
L 338.484187 202.023497 
L 338.484187 202.023497 
L 338.978863 202.023497 
L 338.978863 202.023497 
L 343.925619 202.023497 
L 343.925619 202.023497 
L 344.91497 202.023497 
L 344.91497 202.023497 
L 347.388348 202.023497 
L 347.388348 202.023497 
L 349.861726 202.023497 
L 349.861726 202.023497 
L 350.356402 202.023497 
L 350.356402 202.023497 
L 350.851078 202.023497 
L 350.851078 202.023497 
L 351.840429 202.023497 
L 351.840429 202.023497 
L 354.313807 202.023497 
L 354.313807 202.023497 
L 355.303158 202.023497 
L 355.303158 202.023497 
L 357.281861 202.023497 
L 357.281861 202.023497 
L 361.239266 202.023497 
L 361.239266 202.023497 
L 363.217968 202.023497 
L 363.217968 202.023497 
L 366.130288 202.023497 
L 366.130288 200.083749 
L 366.333081 200.083749 
L 366.333081 200.083749 
L 366.510059 200.083749 
L 366.510059 200.083749 
L 366.860946 200.083749 
L 366.860946 200.083749 
L 367.083468 200.083749 
L 367.083468 200.083749 
L 367.317003 200.083749 
L 367.317003 200.083749 
L 367.491897 200.083749 
L 367.491897 200.083749 
L 367.852604 200.083749 
L 367.852604 200.083749 
L 368.049248 200.083749 
L 368.049248 200.083749 
L 368.313965 200.083749 
L 368.313965 200.083749 
L 368.50847 200.083749 
L 368.50847 200.083749 
L 368.81813 200.083749 
L 368.81813 200.083749 
L 369.012858 200.083749 
L 369.012858 200.083749 
L 369.275067 200.083749 
L 369.275067 200.083749 
L 369.458583 200.083749 
L 369.458583 200.083749 
L 369.888184 200.083749 
L 369.888184 200.083749 
L 370.167057 200.083749 
L 370.167057 200.083749 
L 370.488268 200.083749 
L 370.488268 200.083749 
L 370.512712 200.083749 
L 370.512712 200.083749 
L 370.527112 200.083749 
L 370.527112 200.083749 
L 370.771377 200.083749 
L 370.771377 200.083749 
L 370.958043 200.083749 
L 370.958043 200.083749 
L 371.286043 200.083749 
L 371.286043 200.083749 
L 371.498086 200.083749 
L 371.498086 200.083749 
L 371.855022 200.083749 
L 371.855022 200.083749 
L 372.56044 200.083749 
L 372.56044 200.083749 
L 372.58086 200.083749 
L 372.58086 200.083749 
L 372.606094 200.083749 
L 372.606094 200.083749 
L 372.791465 200.083749 
L 372.791465 200.083749 
L 373.001231 200.083749 
L 373.001231 200.083749 
L 373.229047 200.083749 
L 373.229047 200.083749 
L 373.416777 200.083749 
L 373.416777 200.083749 
L 373.761339 200.083749 
L 373.761339 200.083749 
L 374.225684 200.083749 
L 374.225684 200.083749 
L 379.720912 200.083749 
L 379.720912 200.083749 
L 381.146517 200.083749 
L 381.146517 200.083749 
L 382.36149 200.083749 
L 382.36149 200.083749 
L 382.643424 200.083749 
L 382.643424 200.083749 
L 384.026401 200.083749 
L 384.026401 200.083749 
L 384.377076 200.083749 
L 384.377076 200.083749 
L 384.660416 200.083749 
L 384.660416 200.083749 
L 385.102718 200.083749 
L 385.102718 200.083749 
L 392.57326 200.083749 
L 392.57326 200.083749 
L 395.611711 200.083749 
L 395.611711 200.083749 
L 397.699217 200.083749 
L 397.699217 200.083749 
L 397.975938 200.083749 
L 397.975938 200.083749 
L 398.487273 200.083749 
L 398.487273 200.083749 
L 398.487273 146.367634 
L 398.487273 146.367634 
L 398.487273 146.367634 
L 397.975938 146.367634 
L 397.975938 146.815269 
L 397.699217 146.815269 
L 397.699217 146.96448 
L 395.611711 146.96448 
L 395.611711 147.113691 
L 392.57326 147.113691 
L 392.57326 147.262903 
L 385.102718 147.262903 
L 385.102718 147.561326 
L 384.660416 147.561326 
L 384.660416 147.710537 
L 384.377076 147.710537 
L 384.377076 148.00896 
L 384.026401 148.00896 
L 384.026401 148.158171 
L 382.643424 148.158171 
L 382.643424 148.307383 
L 382.36149 148.307383 
L 382.36149 148.456594 
L 381.146517 148.456594 
L 381.146517 148.605806 
L 379.720912 148.605806 
L 379.720912 148.755017 
L 374.225684 148.755017 
L 374.225684 149.05344 
L 373.761339 149.05344 
L 373.761339 149.202651 
L 373.416777 149.202651 
L 373.416777 149.202651 
L 373.229047 149.202651 
L 373.229047 149.202651 
L 373.001231 149.202651 
L 373.001231 149.202651 
L 372.791465 149.202651 
L 372.791465 149.202651 
L 372.606094 149.202651 
L 372.606094 149.202651 
L 372.58086 149.202651 
L 372.58086 149.202651 
L 372.56044 149.202651 
L 372.56044 149.202651 
L 371.855022 149.202651 
L 371.855022 149.202651 
L 371.498086 149.202651 
L 371.498086 149.202651 
L 371.286043 149.202651 
L 371.286043 149.202651 
L 370.958043 149.202651 
L 370.958043 149.202651 
L 370.771377 149.202651 
L 370.771377 149.202651 
L 370.527112 149.202651 
L 370.527112 149.202651 
L 370.512712 149.202651 
L 370.512712 149.202651 
L 370.488268 149.202651 
L 370.488268 149.202651 
L 370.167057 149.202651 
L 370.167057 149.501074 
L 369.888184 149.501074 
L 369.888184 149.650286 
L 369.458583 149.650286 
L 369.458583 149.650286 
L 369.275067 149.650286 
L 369.275067 150.247131 
L 369.012858 150.247131 
L 369.012858 150.396343 
L 368.81813 150.396343 
L 368.81813 150.396343 
L 368.50847 150.396343 
L 368.50847 150.396343 
L 368.313965 150.396343 
L 368.313965 150.396343 
L 368.049248 150.396343 
L 368.049248 150.396343 
L 367.852604 150.396343 
L 367.852604 150.396343 
L 367.491897 150.396343 
L 367.491897 150.396343 
L 367.317003 150.396343 
L 367.317003 150.396343 
L 367.083468 150.396343 
L 367.083468 150.396343 
L 366.860946 150.396343 
L 366.860946 150.396343 
L 366.510059 150.396343 
L 366.510059 150.396343 
L 366.333081 150.396343 
L 366.333081 150.396343 
L 366.130288 150.396343 
L 366.130288 153.828206 
L 363.217968 153.828206 
L 363.217968 153.977417 
L 361.239266 153.977417 
L 361.239266 153.977417 
L 357.281861 153.977417 
L 357.281861 154.126629 
L 355.303158 154.126629 
L 355.303158 154.27584 
L 354.313807 154.27584 
L 354.313807 154.425051 
L 351.840429 154.425051 
L 351.840429 154.872686 
L 350.851078 154.872686 
L 350.851078 154.872686 
L 350.356402 154.872686 
L 350.356402 155.171109 
L 349.861726 155.171109 
L 349.861726 156.514011 
L 347.388348 156.514011 
L 347.388348 156.961646 
L 344.91497 156.961646 
L 344.91497 157.110857 
L 343.925619 157.110857 
L 343.925619 157.260069 
L 338.978863 157.260069 
L 338.978863 157.707703 
L 338.484187 157.707703 
L 338.484187 158.155337 
L 337.989511 158.155337 
L 337.989511 158.45376 
L 337.494836 158.45376 
L 337.494836 158.602971 
L 336.010809 158.602971 
L 336.010809 158.752183 
L 334.032106 158.752183 
L 334.032106 158.752183 
L 333.537431 158.752183 
L 333.537431 158.901394 
L 333.042755 158.901394 
L 333.042755 159.050606 
L 332.053404 159.050606 
L 332.053404 159.199817 
L 330.569377 159.199817 
L 330.569377 159.349029 
L 326.117296 159.349029 
L 326.117296 159.49824 
L 325.127945 159.49824 
L 325.127945 159.796663 
L 324.63327 159.796663 
L 324.63327 160.095086 
L 323.643918 160.095086 
L 323.643918 160.54272 
L 322.159891 160.54272 
L 322.159891 160.691931 
L 321.665216 160.691931 
L 321.665216 160.691931 
L 315.234433 160.691931 
L 315.234433 160.841143 
L 312.266379 160.841143 
L 312.266379 160.990354 
L 310.287676 160.990354 
L 310.287676 161.288777 
L 309.298325 161.288777 
L 309.298325 161.288777 
L 307.814298 161.288777 
L 307.814298 161.5872 
L 306.824947 161.5872 
L 306.824947 161.5872 
L 302.372866 161.5872 
L 302.372866 161.885623 
L 301.383515 161.885623 
L 301.383515 162.034834 
L 300.88884 162.034834 
L 300.88884 162.333257 
L 300.394164 162.333257 
L 300.394164 162.333257 
L 299.404813 162.333257 
L 299.404813 162.333257 
L 298.910137 162.333257 
L 298.910137 162.780891 
L 298.415461 162.780891 
L 298.415461 162.780891 
L 289.5113 162.780891 
L 289.5113 162.930103 
L 289.016625 162.930103 
L 289.016625 163.079314 
L 287.037922 163.079314 
L 287.037922 163.228526 
L 279.123112 163.228526 
L 279.123112 163.377737 
L 277.639085 163.377737 
L 277.639085 163.526949 
L 276.155058 163.526949 
L 276.155058 163.974583 
L 274.671031 163.974583 
L 274.671031 164.72064 
L 274.176356 164.72064 
L 274.176356 165.019063 
L 273.68168 165.019063 
L 273.68168 165.168274 
L 273.187004 165.168274 
L 273.187004 165.168274 
L 272.692329 165.168274 
L 272.692329 165.317486 
L 269.229599 165.317486 
L 269.229599 165.317486 
L 267.745573 165.317486 
L 267.745573 165.914331 
L 266.261546 165.914331 
L 266.261546 166.063543 
L 265.76687 166.063543 
L 265.76687 166.511177 
L 265.272194 166.511177 
L 265.272194 166.660389 
L 263.788168 166.660389 
L 263.788168 166.8096 
L 263.293492 166.8096 
L 263.293492 167.108023 
L 262.304141 167.108023 
L 262.304141 167.108023 
L 260.325438 167.108023 
L 260.325438 167.406446 
L 253.894655 167.406446 
L 253.894655 167.406446 
L 252.905304 167.406446 
L 252.905304 167.555657 
L 252.410628 167.555657 
L 252.410628 167.704869 
L 251.915953 167.704869 
L 251.915953 167.85408 
L 251.421277 167.85408 
L 251.421277 168.003291 
L 250.926601 168.003291 
L 250.926601 168.152503 
L 250.431926 168.152503 
L 250.431926 168.450926 
L 249.93725 168.450926 
L 249.93725 169.495406 
L 249.442574 169.495406 
L 249.442574 170.092251 
L 248.453223 170.092251 
L 248.453223 170.539886 
L 244.495818 170.539886 
L 244.495818 170.689097 
L 244.001143 170.689097 
L 244.001143 170.838309 
L 243.506467 170.838309 
L 243.506467 171.136731 
L 243.011791 171.136731 
L 243.011791 171.584366 
L 242.517116 171.584366 
L 242.517116 172.181211 
L 242.02244 172.181211 
L 242.02244 172.927269 
L 241.033089 172.927269 
L 241.033089 173.374903 
L 239.549062 173.374903 
L 239.549062 173.524114 
L 239.054386 173.524114 
L 239.054386 173.822537 
L 236.581008 173.822537 
L 236.581008 173.971749 
L 232.128928 173.971749 
L 232.128928 174.12096 
L 231.139576 174.12096 
L 231.139576 174.270171 
L 230.644901 174.270171 
L 230.644901 174.419383 
L 230.150225 174.419383 
L 230.150225 174.568594 
L 229.655549 174.568594 
L 229.655549 174.867017 
L 228.666198 174.867017 
L 228.666198 175.463863 
L 227.182171 175.463863 
L 227.182171 175.613074 
L 226.687496 175.613074 
L 226.687496 175.762286 
L 225.203469 175.762286 
L 225.203469 176.060709 
L 221.246064 176.060709 
L 221.246064 176.20992 
L 220.751388 176.20992 
L 220.751388 176.359131 
L 220.256713 176.359131 
L 220.256713 176.359131 
L 219.267361 176.359131 
L 219.267361 176.508343 
L 218.27801 176.508343 
L 218.27801 176.657554 
L 217.288659 176.657554 
L 217.288659 177.2544 
L 216.793983 177.2544 
L 216.793983 177.851246 
L 216.299308 177.851246 
L 216.299308 178.149669 
L 215.804632 178.149669 
L 215.804632 178.448091 
L 215.309956 178.448091 
L 215.309956 178.746514 
L 214.320605 178.746514 
L 214.320605 179.044937 
L 213.331254 179.044937 
L 213.331254 179.194149 
L 208.384497 179.194149 
L 208.384497 179.492571 
L 207.889822 179.492571 
L 207.889822 179.940206 
L 206.405795 179.940206 
L 206.405795 180.089417 
L 205.911119 180.089417 
L 205.911119 180.537051 
L 205.416444 180.537051 
L 205.416444 180.686263 
L 203.932417 180.686263 
L 203.932417 181.133897 
L 203.437741 181.133897 
L 203.437741 181.283109 
L 202.44839 181.283109 
L 202.44839 181.43232 
L 197.501634 181.43232 
L 197.501634 182.029166 
L 197.006958 182.029166 
L 197.006958 182.029166 
L 196.512282 182.029166 
L 196.512282 182.4768 
L 196.017607 182.4768 
L 196.017607 182.924434 
L 195.522931 182.924434 
L 195.522931 183.073646 
L 194.53358 183.073646 
L 194.53358 183.670491 
L 194.038904 183.670491 
L 194.038904 183.819703 
L 192.554877 183.819703 
L 192.554877 184.118126 
L 192.060202 184.118126 
L 192.060202 185.759451 
L 191.070851 185.759451 
L 191.070851 186.057874 
L 190.576175 186.057874 
L 190.576175 186.207086 
L 189.586824 186.207086 
L 189.586824 186.803931 
L 189.092148 186.803931 
L 189.092148 186.953143 
L 188.597472 186.953143 
L 188.597472 187.102354 
L 185.629419 187.102354 
L 185.629419 187.400777 
L 184.640067 187.400777 
L 184.640067 187.848411 
L 184.145392 187.848411 
L 184.145392 188.445257 
L 183.650716 188.445257 
L 183.650716 189.340526 
L 183.156041 189.340526 
L 183.156041 189.937371 
L 182.661365 189.937371 
L 182.661365 190.83264 
L 182.166689 190.83264 
L 182.166689 192.026331 
L 181.177338 192.026331 
L 181.177338 192.175543 
L 179.198636 192.175543 
L 179.198636 192.324754 
L 178.70396 192.324754 
L 178.70396 192.623177 
L 177.219933 192.623177 
L 177.219933 192.772389 
L 175.241231 192.772389 
L 175.241231 193.070811 
L 174.746555 193.070811 
L 174.746555 193.220023 
L 174.251879 193.220023 
L 174.251879 193.369234 
L 173.262528 193.369234 
L 173.262528 193.816869 
L 172.767852 193.816869 
L 172.767852 194.264503 
L 172.273177 194.264503 
L 172.273177 194.861349 
L 171.778501 194.861349 
L 171.778501 195.607406 
L 170.78915 195.607406 
L 170.78915 195.905829 
L 169.799799 195.905829 
L 169.799799 196.05504 
L 168.810447 196.05504 
L 168.810447 196.204251 
L 168.315772 196.204251 
L 168.315772 196.502674 
L 167.821096 196.502674 
L 167.821096 196.801097 
L 167.326421 196.801097 
L 167.326421 196.950309 
L 166.831745 196.950309 
L 166.831745 197.09952 
L 166.337069 197.09952 
L 166.337069 197.397943 
L 165.842394 197.397943 
L 165.842394 197.547154 
L 165.347718 197.547154 
L 165.347718 197.696366 
L 161.390313 197.696366 
L 161.390313 197.845577 
L 160.895637 197.845577 
L 160.895637 198.144 
L 160.400962 198.144 
L 160.400962 198.293211 
L 159.906286 198.293211 
L 159.906286 198.442423 
L 159.411611 198.442423 
L 159.411611 198.591634 
L 158.916935 198.591634 
L 158.916935 199.337691 
L 157.927584 199.337691 
L 157.927584 199.486903 
L 157.432908 199.486903 
L 157.432908 199.934537 
L 156.443557 199.934537 
L 156.443557 200.23296 
L 155.454206 200.23296 
L 155.454206 200.979017 
L 154.464854 200.979017 
L 154.464854 201.575863 
L 152.486152 201.575863 
L 152.486152 201.874286 
L 150.507449 201.874286 
L 150.507449 202.023497 
L 149.518098 202.023497 
L 149.518098 202.32192 
L 149.023422 202.32192 
L 149.023422 202.620343 
L 148.528747 202.620343 
L 148.528747 203.067977 
L 148.034071 203.067977 
L 148.034071 203.3664 
L 147.539396 203.3664 
L 147.539396 203.814034 
L 147.04472 203.814034 
L 147.04472 203.963246 
L 146.055369 203.963246 
L 146.055369 204.261669 
L 145.560693 204.261669 
L 145.560693 204.560091 
L 145.066017 204.560091 
L 145.066017 205.156937 
L 144.571342 205.156937 
L 144.571342 205.45536 
L 144.076666 205.45536 
L 144.076666 205.753783 
L 143.581991 205.753783 
L 143.581991 205.902994 
L 143.087315 205.902994 
L 143.087315 206.649051 
L 142.592639 206.649051 
L 142.592639 206.798263 
L 142.097964 206.798263 
L 142.097964 207.096686 
L 138.140559 207.096686 
L 138.140559 207.991954 
L 137.645883 207.991954 
L 137.645883 208.141166 
L 135.667181 208.141166 
L 135.667181 209.036434 
L 134.183154 209.036434 
L 134.183154 209.334857 
L 133.688478 209.334857 
L 133.688478 209.931703 
L 132.699127 209.931703 
L 132.699127 210.080914 
L 132.204451 210.080914 
L 132.204451 210.230126 
L 131.2151 210.230126 
L 131.2151 210.379337 
L 122.805614 210.379337 
L 122.805614 210.528549 
L 120.826912 210.528549 
L 120.826912 210.67776 
L 120.332236 210.67776 
L 120.332236 210.976183 
L 119.83756 210.976183 
L 119.83756 211.125394 
L 119.342885 211.125394 
L 119.342885 211.274606 
L 118.353534 211.274606 
L 118.353534 211.573029 
L 113.901453 211.573029 
L 113.901453 212.319086 
L 113.406777 212.319086 
L 113.406777 213.065143 
L 112.912102 213.065143 
L 112.912102 213.214354 
L 112.417426 213.214354 
L 112.417426 213.363566 
L 111.92275 213.363566 
L 111.92275 213.512777 
L 111.428075 213.512777 
L 111.428075 213.661989 
L 110.933399 213.661989 
L 110.933399 214.109623 
L 110.438724 214.109623 
L 110.438724 214.408046 
L 109.944048 214.408046 
L 109.944048 214.85568 
L 109.449372 214.85568 
L 109.449372 215.303314 
L 108.954697 215.303314 
L 108.954697 215.750949 
L 108.460021 215.750949 
L 108.460021 216.049371 
L 107.47067 216.049371 
L 107.47067 216.795429 
L 106.975994 216.795429 
L 106.975994 216.94464 
L 106.481319 216.94464 
L 106.481319 217.093851 
L 104.997292 217.093851 
L 104.997292 217.243063 
L 102.029238 217.243063 
L 102.029238 217.690697 
L 101.534562 217.690697 
L 101.534562 217.98912 
L 101.039887 217.98912 
L 101.039887 218.138331 
L 100.545211 218.138331 
L 100.545211 219.182811 
L 100.050535 219.182811 
L 100.050535 219.481234 
L 99.55586 219.481234 
L 99.55586 220.07808 
L 99.061184 220.07808 
L 99.061184 220.525714 
L 98.566509 220.525714 
L 98.566509 221.420983 
L 98.071833 221.420983 
L 98.071833 221.868617 
L 97.577157 221.868617 
L 97.577157 222.614674 
L 97.082482 222.614674 
L 97.082482 222.763886 
L 96.587806 222.763886 
L 96.587806 223.21152 
L 96.09313 223.21152 
L 96.09313 223.957577 
L 95.598455 223.957577 
L 95.598455 224.256 
L 95.103779 224.256 
L 95.103779 224.554423 
L 94.609104 224.554423 
L 94.609104 224.703634 
L 94.114428 224.703634 
L 94.114428 225.151269 
L 93.619752 225.151269 
L 93.619752 225.30048 
L 90.157023 225.30048 
L 90.157023 225.449691 
L 89.662347 225.449691 
L 89.662347 225.748114 
L 89.167672 225.748114 
L 89.167672 226.34496 
L 88.17832 226.34496 
L 88.17832 226.941806 
L 87.188969 226.941806 
L 87.188969 227.38944 
L 86.694294 227.38944 
L 86.694294 227.986286 
L 86.199618 227.986286 
L 86.199618 228.284709 
L 85.704942 228.284709 
L 85.704942 228.881554 
L 85.210267 228.881554 
L 85.210267 230.373669 
L 84.715591 230.373669 
L 84.715591 231.268937 
L 84.220915 231.268937 
L 84.220915 233.208686 
L 83.72624 233.208686 
L 83.72624 234.253166 
L 83.231564 234.253166 
L 83.231564 235.446857 
L 82.736889 235.446857 
L 82.736889 236.192914 
L 81.747537 236.192914 
L 81.747537 236.938971 
L 81.252862 236.938971 
L 81.252862 237.088183 
L 80.758186 237.088183 
L 80.758186 237.237394 
L 80.26351 237.237394 
L 80.26351 237.386606 
L 79.768835 237.386606 
L 79.768835 237.685029 
L 79.274159 237.685029 
L 79.274159 237.83424 
L 78.779484 237.83424 
L 78.779484 237.983451 
L 78.284808 237.983451 
L 78.284808 239.177143 
L 77.790132 239.177143 
L 77.790132 241.564526 
L 77.295457 241.564526 
L 77.295457 245.593234 
L 76.800781 245.593234 
L 76.800781 248.428251 
L 76.306105 248.428251 
L 76.306105 252.158537 
L 75.81143 252.158537 
L 75.81143 257.380937 
L 75.316754 257.380937 
L 75.316754 266.0352 
L 74.822079 266.0352 
L 74.822079 272.749714 
L 74.327403 272.749714 
L 74.327403 275.43552 
L 73.832727 275.43552 
L 73.832727 276.48 
L 73.832727 276.48 
z
" clip-path="url(#p0bbd8e8e7b)" style="fill: #43b5a0; fill-opacity: 0.8"/>
   </g>
   <g id="matplotlib.axis_1">
    <g id="xtick_1">
     <g id="line2d_1">
      <defs>
       <path id="mde4ad9991f" d="M 0 0 
L 0 3.5 
" style="stroke: #ffffff; stroke-width: 0.8"/>
      </defs>
      <g>
       <use xlink:href="#mde4ad9991f" x="102.523914" y="276.48" style="fill: #ffffff; stroke: #ffffff; stroke-width: 0.8"/>
      </g>
     </g>
     <g id="text_1">
      <!-- Fri 12/24 -->
      <g style="fill: #ffffff" transform="translate(63.454729 312.01669)rotate(-30)scale(0.1 -0.1)">
       <defs>
        <path id="DejaVuSans-46" d="M 628 4666 
L 3309 4666 
L 3309 4134 
L 1259 4134 
L 1259 2759 
L 3109 2759 
L 3109 2228 
L 1259 2228 
L 1259 0 
L 628 0 
L 628 4666 
z
" transform="scale(0.015625)"/>
        <path id="DejaVuSans-72" d="M 2631 2963 
Q 2534 3019 2420 3045 
Q 2306 3072 2169 3072 
Q 1681 3072 1420 2755 
Q 1159 2438 1159 1844 
L 1159 0 
L 581 0 
L 581 3500 
L 1159 3500 
L 1159 2956 
Q 1341 3275 1631 3429 
Q 1922 3584 2338 3584 
Q 2397 3584 2469 3576 
Q 2541 3569 2628 3553 
L 2631 2963 
z
" transform="scale(0.015625)"/>
        <path id="DejaVuSans-69" d="M 603 3500 
L 1178 3500 
L 1178 0 
L 603 0 
L 603 3500 
z
M 603 4863 
L 1178 4863 
L 1178 4134 
L 603 4134 
L 603 4863 
z
" transform="scale(0.015625)"/>
        <path id="DejaVuSans-20" transform="scale(0.015625)"/>
        <path id="DejaVuSans-31" d="M 794 531 
L 1825 531 
L 1825 4091 
L 703 3866 
L 703 4441 
L 1819 4666 
L 2450 4666 
L 2450 531 
L 3481 531 
L 3481 0 
L 794 0 
L 794 531 
z
" transform="scale(0.015625)"/>
        <path id="DejaVuSans-32" d="M 1228 531 
L 3431 531 
L 3431 0 
L 469 0 
L 469 531 
Q 828 903 1448 1529 
Q 2069 2156 2228 2338 
Q 2531 2678 2651 2914 
Q 2772 3150 2772 3378 
Q 2772 3750 2511 3984 
Q 2250 4219 1831 4219 
Q 1534 4219 1204 4116 
Q 875 4013 500 3803 
L 500 4441 
Q 881 4594 1212 4672 
Q 1544 4750 1819 4750 
Q 2544 4750 2975 4387 
Q 3406 4025 3406 3419 
Q 3406 3131 3298 2873 
Q 3191 2616 2906 2266 
Q 2828 2175 2409 1742 
Q 1991 1309 1228 531 
z
" transform="scale(0.015625)"/>
        <path id="DejaVuSans-2f" d="M 1625 4666 
L 2156 4666 
L 531 -594 
L 0 -594 
L 1625 4666 
z
" transform="scale(0.015625)"/>
        <path id="DejaVuSans-34" d="M 2419 4116 
L 825 1625 
L 2419 1625 
L 2419 4116 
z
M 2253 4666 
L 3047 4666 
L 3047 1625 
L 3713 1625 
L 3713 1100 
L 3047 1100 
L 3047 0 
L 2419 0 
L 2419 1100 
L 313 1100 
L 313 1709 
L 2253 4666 
z
" transform="scale(0.015625)"/>
       </defs>
       <use xlink:href="#DejaVuSans-46"/>
       <use xlink:href="#DejaVuSans-72" x="50.269531"/>
       <use xlink:href="#DejaVuSans-69" x="91.382812"/>
       <use xlink:href="#DejaVuSans-20" x="119.166016"/>
       <use xlink:href="#DejaVuSans-31" x="150.953125"/>
       <use xlink:href="#DejaVuSans-32" x="214.576172"/>
       <use xlink:href="#DejaVuSans-2f" x="278.199219"/>
       <use xlink:href="#DejaVuSans-32" x="311.890625"/>
       <use xlink:href="#DejaVuSans-34" x="375.513672"/>
      </g>
     </g>
    </g>
    <g id="xtick_2">
     <g id="line2d_2">
      <g>
       <use xlink:href="#mde4ad9991f" x="138.140559" y="276.48" style="fill: #ffffff; stroke: #ffffff; stroke-width: 0.8"/>
      </g>
     </g>
     <g id="text_2">
      <!-- Mon 12/27 -->
      <g style="fill: #ffffff" transform="translate(91.131004 316.601065)rotate(-30)scale(0.1 -0.1)">
       <defs>
        <path id="DejaVuSans-4d" d="M 628 4666 
L 1569 4666 
L 2759 1491 
L 3956 4666 
L 4897 4666 
L 4897 0 
L 4281 0 
L 4281 4097 
L 3078 897 
L 2444 897 
L 1241 4097 
L 1241 0 
L 628 0 
L 628 4666 
z
" transform="scale(0.015625)"/>
        <path id="DejaVuSans-6f" d="M 1959 3097 
Q 1497 3097 1228 2736 
Q 959 2375 959 1747 
Q 959 1119 1226 758 
Q 1494 397 1959 397 
Q 2419 397 2687 759 
Q 2956 1122 2956 1747 
Q 2956 2369 2687 2733 
Q 2419 3097 1959 3097 
z
M 1959 3584 
Q 2709 3584 3137 3096 
Q 3566 2609 3566 1747 
Q 3566 888 3137 398 
Q 2709 -91 1959 -91 
Q 1206 -91 779 398 
Q 353 888 353 1747 
Q 353 2609 779 3096 
Q 1206 3584 1959 3584 
z
" transform="scale(0.015625)"/>
        <path id="DejaVuSans-6e" d="M 3513 2113 
L 3513 0 
L 2938 0 
L 2938 2094 
Q 2938 2591 2744 2837 
Q 2550 3084 2163 3084 
Q 1697 3084 1428 2787 
Q 1159 2491 1159 1978 
L 1159 0 
L 581 0 
L 581 3500 
L 1159 3500 
L 1159 2956 
Q 1366 3272 1645 3428 
Q 1925 3584 2291 3584 
Q 2894 3584 3203 3211 
Q 3513 2838 3513 2113 
z
" transform="scale(0.015625)"/>
        <path id="DejaVuSans-37" d="M 525 4666 
L 3525 4666 
L 3525 4397 
L 1831 0 
L 1172 0 
L 2766 4134 
L 525 4134 
L 525 4666 
z
" transform="scale(0.015625)"/>
       </defs>
       <use xlink:href="#DejaVuSans-4d"/>
       <use xlink:href="#DejaVuSans-6f" x="86.279297"/>
       <use xlink:href="#DejaVuSans-6e" x="147.460938"/>
       <use xlink:href="#DejaVuSans-20" x="210.839844"/>
       <use xlink:href="#DejaVuSans-31" x="242.626953"/>
       <use xlink:href="#DejaVuSans-32" x="306.25"/>
       <use xlink:href="#DejaVuSans-2f" x="369.873047"/>
       <use xlink:href="#DejaVuSans-32" x="403.564453"/>
       <use xlink:href="#DejaVuSans-37" x="467.1875"/>
      </g>
     </g>
    </g>
    <g id="xtick_3">
     <g id="line2d_3">
      <g>
       <use xlink:href="#mde4ad9991f" x="185.629419" y="276.48" style="fill: #ffffff; stroke: #ffffff; stroke-width: 0.8"/>
      </g>
     </g>
     <g id="text_3">
      <!-- Fri 12/31 -->
      <g style="fill: #ffffff" transform="translate(146.560234 312.01669)rotate(-30)scale(0.1 -0.1)">
       <defs>
        <path id="DejaVuSans-33" d="M 2597 2516 
Q 3050 2419 3304 2112 
Q 3559 1806 3559 1356 
Q 3559 666 3084 287 
Q 2609 -91 1734 -91 
Q 1441 -91 1130 -33 
Q 819 25 488 141 
L 488 750 
Q 750 597 1062 519 
Q 1375 441 1716 441 
Q 2309 441 2620 675 
Q 2931 909 2931 1356 
Q 2931 1769 2642 2001 
Q 2353 2234 1838 2234 
L 1294 2234 
L 1294 2753 
L 1863 2753 
Q 2328 2753 2575 2939 
Q 2822 3125 2822 3475 
Q 2822 3834 2567 4026 
Q 2313 4219 1838 4219 
Q 1578 4219 1281 4162 
Q 984 4106 628 3988 
L 628 4550 
Q 988 4650 1302 4700 
Q 1616 4750 1894 4750 
Q 2613 4750 3031 4423 
Q 3450 4097 3450 3541 
Q 3450 3153 3228 2886 
Q 3006 2619 2597 2516 
z
" transform="scale(0.015625)"/>
       </defs>
       <use xlink:href="#DejaVuSans-46"/>
       <use xlink:href="#DejaVuSans-72" x="50.269531"/>
       <use xlink:href="#DejaVuSans-69" x="91.382812"/>
       <use xlink:href="#DejaVuSans-20" x="119.166016"/>
       <use xlink:href="#DejaVuSans-31" x="150.953125"/>
       <use xlink:href="#DejaVuSans-32" x="214.576172"/>
       <use xlink:href="#DejaVuSans-2f" x="278.199219"/>
       <use xlink:href="#DejaVuSans-33" x="311.890625"/>
       <use xlink:href="#DejaVuSans-31" x="375.513672"/>
      </g>
     </g>
    </g>
    <g id="xtick_4">
     <g id="line2d_4">
      <g>
       <use xlink:href="#mde4ad9991f" x="221.246064" y="276.48" style="fill: #ffffff; stroke: #ffffff; stroke-width: 0.8"/>
      </g>
     </g>
     <g id="text_4">
      <!-- Mon 01/03 -->
      <g style="fill: #ffffff" transform="translate(174.236509 316.601065)rotate(-30)scale(0.1 -0.1)">
       <defs>
        <path id="DejaVuSans-30" d="M 2034 4250 
Q 1547 4250 1301 3770 
Q 1056 3291 1056 2328 
Q 1056 1369 1301 889 
Q 1547 409 2034 409 
Q 2525 409 2770 889 
Q 3016 1369 3016 2328 
Q 3016 3291 2770 3770 
Q 2525 4250 2034 4250 
z
M 2034 4750 
Q 2819 4750 3233 4129 
Q 3647 3509 3647 2328 
Q 3647 1150 3233 529 
Q 2819 -91 2034 -91 
Q 1250 -91 836 529 
Q 422 1150 422 2328 
Q 422 3509 836 4129 
Q 1250 4750 2034 4750 
z
" transform="scale(0.015625)"/>
       </defs>
       <use xlink:href="#DejaVuSans-4d"/>
       <use xlink:href="#DejaVuSans-6f" x="86.279297"/>
       <use xlink:href="#DejaVuSans-6e" x="147.460938"/>
       <use xlink:href="#DejaVuSans-20" x="210.839844"/>
       <use xlink:href="#DejaVuSans-30" x="242.626953"/>
       <use xlink:href="#DejaVuSans-31" x="306.25"/>
       <use xlink:href="#DejaVuSans-2f" x="369.873047"/>
       <use xlink:href="#DejaVuSans-30" x="403.564453"/>
       <use xlink:href="#DejaVuSans-33" x="467.1875"/>
      </g>
     </g>
    </g>
    <g id="xtick_5">
     <g id="line2d_5">
      <g>
       <use xlink:href="#mde4ad9991f" x="268.734924" y="276.48" style="fill: #ffffff; stroke: #ffffff; stroke-width: 0.8"/>
      </g>
     </g>
     <g id="text_5">
      <!-- Fri 01/07 -->
      <g style="fill: #ffffff" transform="translate(229.66574 312.01669)rotate(-30)scale(0.1 -0.1)">
       <use xlink:href="#DejaVuSans-46"/>
       <use xlink:href="#DejaVuSans-72" x="50.269531"/>
       <use xlink:href="#DejaVuSans-69" x="91.382812"/>
       <use xlink:href="#DejaVuSans-20" x="119.166016"/>
       <use xlink:href="#DejaVuSans-30" x="150.953125"/>
       <use xlink:href="#DejaVuSans-31" x="214.576172"/>
       <use xlink:href="#DejaVuSans-2f" x="278.199219"/>
       <use xlink:href="#DejaVuSans-30" x="311.890625"/>
       <use xlink:href="#DejaVuSans-37" x="375.513672"/>
      </g>
     </g>
    </g>
    <g id="xtick_6">
     <g id="line2d_6">
      <g>
       <use xlink:href="#mde4ad9991f" x="304.351569" y="276.48" style="fill: #ffffff; stroke: #ffffff; stroke-width: 0.8"/>
      </g>
     </g>
     <g id="text_6">
      <!-- Mon 01/10 -->
      <g style="fill: #ffffff" transform="translate(257.342014 316.601065)rotate(-30)scale(0.1 -0.1)">
       <use xlink:href="#DejaVuSans-4d"/>
       <use xlink:href="#DejaVuSans-6f" x="86.279297"/>
       <use xlink:href="#DejaVuSans-6e" x="147.460938"/>
       <use xlink:href="#DejaVuSans-20" x="210.839844"/>
       <use xlink:href="#DejaVuSans-30" x="242.626953"/>
       <use xlink:href="#DejaVuSans-31" x="306.25"/>
       <use xlink:href="#DejaVuSans-2f" x="369.873047"/>
       <use xlink:href="#DejaVuSans-31" x="403.564453"/>
       <use xlink:href="#DejaVuSans-30" x="467.1875"/>
      </g>
     </g>
    </g>
    <g id="xtick_7">
     <g id="line2d_7">
      <g>
       <use xlink:href="#mde4ad9991f" x="351.840429" y="276.48" style="fill: #ffffff; stroke: #ffffff; stroke-width: 0.8"/>
      </g>
     </g>
     <g id="text_7">
      <!-- Fri 01/14 -->
      <g style="fill: #ffffff" transform="translate(312.771245 312.01669)rotate(-30)scale(0.1 -0.1)">
       <use xlink:href="#DejaVuSans-46"/>
       <use xlink:href="#DejaVuSans-72" x="50.269531"/>
       <use xlink:href="#DejaVuSans-69" x="91.382812"/>
       <use xlink:href="#DejaVuSans-20" x="119.166016"/>
       <use xlink:href="#DejaVuSans-30" x="150.953125"/>
       <use xlink:href="#DejaVuSans-31" x="214.576172"/>
       <use xlink:href="#DejaVuSans-2f" x="278.199219"/>
       <use xlink:href="#DejaVuSans-31" x="311.890625"/>
       <use xlink:href="#DejaVuSans-34" x="375.513672"/>
      </g>
     </g>
    </g>
    <g id="xtick_8">
     <g id="line2d_8">
      <g>
       <use xlink:href="#mde4ad9991f" x="387.457074" y="276.48" style="fill: #ffffff; stroke: #ffffff; stroke-width: 0.8"/>
      </g>
     </g>
     <g id="text_8">
      <!-- Mon 01/17 -->
      <g style="fill: #ffffff" transform="translate(340.447519 316.601065)rotate(-30)scale(0.1 -0.1)">
       <use xlink:href="#DejaVuSans-4d"/>
       <use xlink:href="#DejaVuSans-6f" x="86.279297"/>
       <use xlink:href="#DejaVuSans-6e" x="147.460938"/>
       <use xlink:href="#DejaVuSans-20" x="210.839844"/>
       <use xlink:href="#DejaVuSans-30" x="242.626953"/>
       <use xlink:href="#DejaVuSans-31" x="306.25"/>
       <use xlink:href="#DejaVuSans-2f" x="369.873047"/>
       <use xlink:href="#DejaVuSans-31" x="403.564453"/>
       <use xlink:href="#DejaVuSans-37" x="467.1875"/>
      </g>
     </g>
    </g>
    <g id="xtick_9">
     <g id="line2d_9">
      <defs>
       <path id="mca908d7382" d="M 0 0 
L 0 2 
" style="stroke: #ffffff; stroke-width: 0.6"/>
      </defs>
      <g>
       <use xlink:href="#mca908d7382" x="66.907269" y="276.48" style="fill: #ffffff; stroke: #ffffff; stroke-width: 0.6"/>
      </g>
     </g>
    </g>
    <g id="xtick_10">
     <g id="line2d_10">
      <g>
       <use xlink:href="#mca908d7382" x="78.779484" y="276.48" style="fill: #ffffff; stroke: #ffffff; stroke-width: 0.6"/>
      </g>
     </g>
    </g>
    <g id="xtick_11">
     <g id="line2d_11">
      <g>
       <use xlink:href="#mca908d7382" x="90.651699" y="276.48" style="fill: #ffffff; stroke: #ffffff; stroke-width: 0.6"/>
      </g>
     </g>
    </g>
    <g id="xtick_12">
     <g id="line2d_12">
      <g>
       <use xlink:href="#mca908d7382" x="114.396129" y="276.48" style="fill: #ffffff; stroke: #ffffff; stroke-width: 0.6"/>
      </g>
     </g>
    </g>
    <g id="xtick_13">
     <g id="line2d_13">
      <g>
       <use xlink:href="#mca908d7382" x="126.268344" y="276.48" style="fill: #ffffff; stroke: #ffffff; stroke-width: 0.6"/>
      </g>
     </g>
    </g>
    <g id="xtick_14">
     <g id="line2d_14">
      <g>
       <use xlink:href="#mca908d7382" x="150.012774" y="276.48" style="fill: #ffffff; stroke: #ffffff; stroke-width: 0.6"/>
      </g>
     </g>
    </g>
    <g id="xtick_15">
     <g id="line2d_15">
      <g>
       <use xlink:href="#mca908d7382" x="161.884989" y="276.48" style="fill: #ffffff; stroke: #ffffff; stroke-width: 0.6"/>
      </g>
     </g>
    </g>
    <g id="xtick_16">
     <g id="line2d_16">
      <g>
       <use xlink:href="#mca908d7382" x="173.757204" y="276.48" style="fill: #ffffff; stroke: #ffffff; stroke-width: 0.6"/>
      </g>
     </g>
    </g>
    <g id="xtick_17">
     <g id="line2d_17">
      <g>
       <use xlink:href="#mca908d7382" x="197.501634" y="276.48" style="fill: #ffffff; stroke: #ffffff; stroke-width: 0.6"/>
      </g>
     </g>
    </g>
    <g id="xtick_18">
     <g id="line2d_18">
      <g>
       <use xlink:href="#mca908d7382" x="209.373849" y="276.48" style="fill: #ffffff; stroke: #ffffff; stroke-width: 0.6"/>
      </g>
     </g>
    </g>
    <g id="xtick_19">
     <g id="line2d_19">
      <g>
       <use xlink:href="#mca908d7382" x="233.118279" y="276.48" style="fill: #ffffff; stroke: #ffffff; stroke-width: 0.6"/>
      </g>
     </g>
    </g>
    <g id="xtick_20">
     <g id="line2d_20">
      <g>
       <use xlink:href="#mca908d7382" x="244.990494" y="276.48" style="fill: #ffffff; stroke: #ffffff; stroke-width: 0.6"/>
      </g>
     </g>
    </g>
    <g id="xtick_21">
     <g id="line2d_21">
      <g>
       <use xlink:href="#mca908d7382" x="256.862709" y="276.48" style="fill: #ffffff; stroke: #ffffff; stroke-width: 0.6"/>
      </g>
     </g>
    </g>
    <g id="xtick_22">
     <g id="line2d_22">
      <g>
       <use xlink:href="#mca908d7382" x="280.607139" y="276.48" style="fill: #ffffff; stroke: #ffffff; stroke-width: 0.6"/>
      </g>
     </g>
    </g>
    <g id="xtick_23">
     <g id="line2d_23">
      <g>
       <use xlink:href="#mca908d7382" x="292.479354" y="276.48" style="fill: #ffffff; stroke: #ffffff; stroke-width: 0.6"/>
      </g>
     </g>
    </g>
    <g id="xtick_24">
     <g id="line2d_24">
      <g>
       <use xlink:href="#mca908d7382" x="316.223784" y="276.48" style="fill: #ffffff; stroke: #ffffff; stroke-width: 0.6"/>
      </g>
     </g>
    </g>
    <g id="xtick_25">
     <g id="line2d_25">
      <g>
       <use xlink:href="#mca908d7382" x="328.095999" y="276.48" style="fill: #ffffff; stroke: #ffffff; stroke-width: 0.6"/>
      </g>
     </g>
    </g>
    <g id="xtick_26">
     <g id="line2d_26">
      <g>
       <use xlink:href="#mca908d7382" x="339.968214" y="276.48" style="fill: #ffffff; stroke: #ffffff; stroke-width: 0.6"/>
      </g>
     </g>
    </g>
    <g id="xtick_27">
     <g id="line2d_27">
      <g>
       <use xlink:href="#mca908d7382" x="363.712644" y="276.48" style="fill: #ffffff; stroke: #ffffff; stroke-width: 0.6"/>
      </g>
     </g>
    </g>
    <g id="xtick_28">
     <g id="line2d_28">
      <g>
       <use xlink:href="#mca908d7382" x="375.584859" y="276.48" style="fill: #ffffff; stroke: #ffffff; stroke-width: 0.6"/>
      </g>
     </g>
    </g>
    <g id="xtick_29">
     <g id="line2d_29">
      <g>
       <use xlink:href="#mca908d7382" x="399.329289" y="276.48" style="fill: #ffffff; stroke: #ffffff; stroke-width: 0.6"/>
      </g>
     </g>
    </g>
    <g id="xtick_30">
     <g id="line2d_30">
      <g>
       <use xlink:href="#mca908d7382" x="411.201504" y="276.48" style="fill: #ffffff; stroke: #ffffff; stroke-width: 0.6"/>
      </g>
     </g>
    </g>
   </g>
   <g id="matplotlib.axis_2">
    <g id="ytick_1">
     <g id="line2d_31">
      <defs>
       <path id="m1b793d79ab" d="M 0 0 
L -3.5 0 
" style="stroke: #ffffff; stroke-width: 0.8"/>
      </defs>
      <g>
       <use xlink:href="#m1b793d79ab" x="57.6" y="276.48" style="fill: #ffffff; stroke: #ffffff; stroke-width: 0.8"/>
      </g>
     </g>
     <g id="text_9">
      <!-- 0 -->
      <g style="fill: #ffffff" transform="translate(44.2375 280.279219)scale(0.1 -0.1)">
       <use xlink:href="#DejaVuSans-30"/>
      </g>
     </g>
    </g>
    <g id="ytick_2">
     <g id="line2d_32">
      <g>
       <use xlink:href="#m1b793d79ab" x="57.6" y="246.637714" style="fill: #ffffff; stroke: #ffffff; stroke-width: 0.8"/>
      </g>
     </g>
     <g id="text_10">
      <!-- 200 -->
      <g style="fill: #ffffff" transform="translate(31.5125 250.436933)scale(0.1 -0.1)">
       <use xlink:href="#DejaVuSans-32"/>
       <use xlink:href="#DejaVuSans-30" x="63.623047"/>
       <use xlink:href="#DejaVuSans-30" x="127.246094"/>
      </g>
     </g>
    </g>
    <g id="ytick_3">
     <g id="line2d_33">
      <g>
       <use xlink:href="#m1b793d79ab" x="57.6" y="216.795429" style="fill: #ffffff; stroke: #ffffff; stroke-width: 0.8"/>
      </g>
     </g>
     <g id="text_11">
      <!-- 400 -->
      <g style="fill: #ffffff" transform="translate(31.5125 220.594647)scale(0.1 -0.1)">
       <use xlink:href="#DejaVuSans-34"/>
       <use xlink:href="#DejaVuSans-30" x="63.623047"/>
       <use xlink:href="#DejaVuSans-30" x="127.246094"/>
      </g>
     </g>
    </g>
    <g id="ytick_4">
     <g id="line2d_34">
      <g>
       <use xlink:href="#m1b793d79ab" x="57.6" y="186.953143" style="fill: #ffffff; stroke: #ffffff; stroke-width: 0.8"/>
      </g>
     </g>
     <g id="text_12">
      <!-- 600 -->
      <g style="fill: #ffffff" transform="translate(31.5125 190.752362)scale(0.1 -0.1)">
       <defs>
        <path id="DejaVuSans-36" d="M 2113 2584 
Q 1688 2584 1439 2293 
Q 1191 2003 1191 1497 
Q 1191 994 1439 701 
Q 1688 409 2113 409 
Q 2538 409 2786 701 
Q 3034 994 3034 1497 
Q 3034 2003 2786 2293 
Q 2538 2584 2113 2584 
z
M 3366 4563 
L 3366 3988 
Q 3128 4100 2886 4159 
Q 2644 4219 2406 4219 
Q 1781 4219 1451 3797 
Q 1122 3375 1075 2522 
Q 1259 2794 1537 2939 
Q 1816 3084 2150 3084 
Q 2853 3084 3261 2657 
Q 3669 2231 3669 1497 
Q 3669 778 3244 343 
Q 2819 -91 2113 -91 
Q 1303 -91 875 529 
Q 447 1150 447 2328 
Q 447 3434 972 4092 
Q 1497 4750 2381 4750 
Q 2619 4750 2861 4703 
Q 3103 4656 3366 4563 
z
" transform="scale(0.015625)"/>
       </defs>
       <use xlink:href="#DejaVuSans-36"/>
       <use xlink:href="#DejaVuSans-30" x="63.623047"/>
       <use xlink:href="#DejaVuSans-30" x="127.246094"/>
      </g>
     </g>
    </g>
    <g id="ytick_5">
     <g id="line2d_35">
      <g>
       <use xlink:href="#m1b793d79ab" x="57.6" y="157.110857" style="fill: #ffffff; stroke: #ffffff; stroke-width: 0.8"/>
      </g>
     </g>
     <g id="text_13">
      <!-- 800 -->
      <g style="fill: #ffffff" transform="translate(31.5125 160.910076)scale(0.1 -0.1)">
       <defs>
        <path id="DejaVuSans-38" d="M 2034 2216 
Q 1584 2216 1326 1975 
Q 1069 1734 1069 1313 
Q 1069 891 1326 650 
Q 1584 409 2034 409 
Q 2484 409 2743 651 
Q 3003 894 3003 1313 
Q 3003 1734 2745 1975 
Q 2488 2216 2034 2216 
z
M 1403 2484 
Q 997 2584 770 2862 
Q 544 3141 544 3541 
Q 544 4100 942 4425 
Q 1341 4750 2034 4750 
Q 2731 4750 3128 4425 
Q 3525 4100 3525 3541 
Q 3525 3141 3298 2862 
Q 3072 2584 2669 2484 
Q 3125 2378 3379 2068 
Q 3634 1759 3634 1313 
Q 3634 634 3220 271 
Q 2806 -91 2034 -91 
Q 1263 -91 848 271 
Q 434 634 434 1313 
Q 434 1759 690 2068 
Q 947 2378 1403 2484 
z
M 1172 3481 
Q 1172 3119 1398 2916 
Q 1625 2713 2034 2713 
Q 2441 2713 2670 2916 
Q 2900 3119 2900 3481 
Q 2900 3844 2670 4047 
Q 2441 4250 2034 4250 
Q 1625 4250 1398 4047 
Q 1172 3844 1172 3481 
z
" transform="scale(0.015625)"/>
       </defs>
       <use xlink:href="#DejaVuSans-38"/>
       <use xlink:href="#DejaVuSans-30" x="63.623047"/>
       <use xlink:href="#DejaVuSans-30" x="127.246094"/>
      </g>
     </g>
    </g>
    <g id="ytick_6">
     <g id="line2d_36">
      <g>
       <use xlink:href="#m1b793d79ab" x="57.6" y="127.268571" style="fill: #ffffff; stroke: #ffffff; stroke-width: 0.8"/>
      </g>
     </g>
     <g id="text_14">
      <!-- 1000 -->
      <g style="fill: #ffffff" transform="translate(25.15 131.06779)scale(0.1 -0.1)">
       <use xlink:href="#DejaVuSans-31"/>
       <use xlink:href="#DejaVuSans-30" x="63.623047"/>
       <use xlink:href="#DejaVuSans-30" x="127.246094"/>
       <use xlink:href="#DejaVuSans-30" x="190.869141"/>
      </g>
     </g>
    </g>
    <g id="ytick_7">
     <g id="line2d_37">
      <g>
       <use xlink:href="#m1b793d79ab" x="57.6" y="97.426286" style="fill: #ffffff; stroke: #ffffff; stroke-width: 0.8"/>
      </g>
     </g>
     <g id="text_15">
      <!-- 1200 -->
      <g style="fill: #ffffff" transform="translate(25.15 101.225504)scale(0.1 -0.1)">
       <use xlink:href="#DejaVuSans-31"/>
       <use xlink:href="#DejaVuSans-32" x="63.623047"/>
       <use xlink:href="#DejaVuSans-30" x="127.246094"/>
       <use xlink:href="#DejaVuSans-30" x="190.869141"/>
      </g>
     </g>
    </g>
    <g id="ytick_8">
     <g id="line2d_38">
      <g>
       <use xlink:href="#m1b793d79ab" x="57.6" y="67.584" style="fill: #ffffff; stroke: #ffffff; stroke-width: 0.8"/>
      </g>
     </g>
     <g id="text_16">
      <!-- 1400 -->
      <g style="fill: #ffffff" transform="translate(25.15 71.383219)scale(0.1 -0.1)">
       <use xlink:href="#DejaVuSans-31"/>
       <use xlink:href="#DejaVuSans-34" x="63.623047"/>
       <use xlink:href="#DejaVuSans-30" x="127.246094"/>
       <use xlink:href="#DejaVuSans-30" x="190.869141"/>
      </g>
     </g>
    </g>
    <g id="text_17">
     <!-- Number of tickets sold -->
     <g style="fill: #ffffff" transform="translate(19.070312 215.329906)rotate(-90)scale(0.1 -0.1)">
      <defs>
       <path id="DejaVuSans-4e" d="M 628 4666 
L 1478 4666 
L 3547 763 
L 3547 4666 
L 4159 4666 
L 4159 0 
L 3309 0 
L 1241 3903 
L 1241 0 
L 628 0 
L 628 4666 
z
" transform="scale(0.015625)"/>
       <path id="DejaVuSans-75" d="M 544 1381 
L 544 3500 
L 1119 3500 
L 1119 1403 
Q 1119 906 1312 657 
Q 1506 409 1894 409 
Q 2359 409 2629 706 
Q 2900 1003 2900 1516 
L 2900 3500 
L 3475 3500 
L 3475 0 
L 2900 0 
L 2900 538 
Q 2691 219 2414 64 
Q 2138 -91 1772 -91 
Q 1169 -91 856 284 
Q 544 659 544 1381 
z
M 1991 3584 
L 1991 3584 
z
" transform="scale(0.015625)"/>
       <path id="DejaVuSans-6d" d="M 3328 2828 
Q 3544 3216 3844 3400 
Q 4144 3584 4550 3584 
Q 5097 3584 5394 3201 
Q 5691 2819 5691 2113 
L 5691 0 
L 5113 0 
L 5113 2094 
Q 5113 2597 4934 2840 
Q 4756 3084 4391 3084 
Q 3944 3084 3684 2787 
Q 3425 2491 3425 1978 
L 3425 0 
L 2847 0 
L 2847 2094 
Q 2847 2600 2669 2842 
Q 2491 3084 2119 3084 
Q 1678 3084 1418 2786 
Q 1159 2488 1159 1978 
L 1159 0 
L 581 0 
L 581 3500 
L 1159 3500 
L 1159 2956 
Q 1356 3278 1631 3431 
Q 1906 3584 2284 3584 
Q 2666 3584 2933 3390 
Q 3200 3197 3328 2828 
z
" transform="scale(0.015625)"/>
       <path id="DejaVuSans-62" d="M 3116 1747 
Q 3116 2381 2855 2742 
Q 2594 3103 2138 3103 
Q 1681 3103 1420 2742 
Q 1159 2381 1159 1747 
Q 1159 1113 1420 752 
Q 1681 391 2138 391 
Q 2594 391 2855 752 
Q 3116 1113 3116 1747 
z
M 1159 2969 
Q 1341 3281 1617 3432 
Q 1894 3584 2278 3584 
Q 2916 3584 3314 3078 
Q 3713 2572 3713 1747 
Q 3713 922 3314 415 
Q 2916 -91 2278 -91 
Q 1894 -91 1617 61 
Q 1341 213 1159 525 
L 1159 0 
L 581 0 
L 581 4863 
L 1159 4863 
L 1159 2969 
z
" transform="scale(0.015625)"/>
       <path id="DejaVuSans-65" d="M 3597 1894 
L 3597 1613 
L 953 1613 
Q 991 1019 1311 708 
Q 1631 397 2203 397 
Q 2534 397 2845 478 
Q 3156 559 3463 722 
L 3463 178 
Q 3153 47 2828 -22 
Q 2503 -91 2169 -91 
Q 1331 -91 842 396 
Q 353 884 353 1716 
Q 353 2575 817 3079 
Q 1281 3584 2069 3584 
Q 2775 3584 3186 3129 
Q 3597 2675 3597 1894 
z
M 3022 2063 
Q 3016 2534 2758 2815 
Q 2500 3097 2075 3097 
Q 1594 3097 1305 2825 
Q 1016 2553 972 2059 
L 3022 2063 
z
" transform="scale(0.015625)"/>
       <path id="DejaVuSans-66" d="M 2375 4863 
L 2375 4384 
L 1825 4384 
Q 1516 4384 1395 4259 
Q 1275 4134 1275 3809 
L 1275 3500 
L 2222 3500 
L 2222 3053 
L 1275 3053 
L 1275 0 
L 697 0 
L 697 3053 
L 147 3053 
L 147 3500 
L 697 3500 
L 697 3744 
Q 697 4328 969 4595 
Q 1241 4863 1831 4863 
L 2375 4863 
z
" transform="scale(0.015625)"/>
       <path id="DejaVuSans-74" d="M 1172 4494 
L 1172 3500 
L 2356 3500 
L 2356 3053 
L 1172 3053 
L 1172 1153 
Q 1172 725 1289 603 
Q 1406 481 1766 481 
L 2356 481 
L 2356 0 
L 1766 0 
Q 1100 0 847 248 
Q 594 497 594 1153 
L 594 3053 
L 172 3053 
L 172 3500 
L 594 3500 
L 594 4494 
L 1172 4494 
z
" transform="scale(0.015625)"/>
       <path id="DejaVuSans-63" d="M 3122 3366 
L 3122 2828 
Q 2878 2963 2633 3030 
Q 2388 3097 2138 3097 
Q 1578 3097 1268 2742 
Q 959 2388 959 1747 
Q 959 1106 1268 751 
Q 1578 397 2138 397 
Q 2388 397 2633 464 
Q 2878 531 3122 666 
L 3122 134 
Q 2881 22 2623 -34 
Q 2366 -91 2075 -91 
Q 1284 -91 818 406 
Q 353 903 353 1747 
Q 353 2603 823 3093 
Q 1294 3584 2113 3584 
Q 2378 3584 2631 3529 
Q 2884 3475 3122 3366 
z
" transform="scale(0.015625)"/>
       <path id="DejaVuSans-6b" d="M 581 4863 
L 1159 4863 
L 1159 1991 
L 2875 3500 
L 3609 3500 
L 1753 1863 
L 3688 0 
L 2938 0 
L 1159 1709 
L 1159 0 
L 581 0 
L 581 4863 
z
" transform="scale(0.015625)"/>
       <path id="DejaVuSans-73" d="M 2834 3397 
L 2834 2853 
Q 2591 2978 2328 3040 
Q 2066 3103 1784 3103 
Q 1356 3103 1142 2972 
Q 928 2841 928 2578 
Q 928 2378 1081 2264 
Q 1234 2150 1697 2047 
L 1894 2003 
Q 2506 1872 2764 1633 
Q 3022 1394 3022 966 
Q 3022 478 2636 193 
Q 2250 -91 1575 -91 
Q 1294 -91 989 -36 
Q 684 19 347 128 
L 347 722 
Q 666 556 975 473 
Q 1284 391 1588 391 
Q 1994 391 2212 530 
Q 2431 669 2431 922 
Q 2431 1156 2273 1281 
Q 2116 1406 1581 1522 
L 1381 1569 
Q 847 1681 609 1914 
Q 372 2147 372 2553 
Q 372 3047 722 3315 
Q 1072 3584 1716 3584 
Q 2034 3584 2315 3537 
Q 2597 3491 2834 3397 
z
" transform="scale(0.015625)"/>
       <path id="DejaVuSans-6c" d="M 603 4863 
L 1178 4863 
L 1178 0 
L 603 0 
L 603 4863 
z
" transform="scale(0.015625)"/>
       <path id="DejaVuSans-64" d="M 2906 2969 
L 2906 4863 
L 3481 4863 
L 3481 0 
L 2906 0 
L 2906 525 
Q 2725 213 2448 61 
Q 2172 -91 1784 -91 
Q 1150 -91 751 415 
Q 353 922 353 1747 
Q 353 2572 751 3078 
Q 1150 3584 1784 3584 
Q 2172 3584 2448 3432 
Q 2725 3281 2906 2969 
z
M 947 1747 
Q 947 1113 1208 752 
Q 1469 391 1925 391 
Q 2381 391 2643 752 
Q 2906 1113 2906 1747 
Q 2906 2381 2643 2742 
Q 2381 3103 1925 3103 
Q 1469 3103 1208 2742 
Q 947 2381 947 1747 
z
" transform="scale(0.015625)"/>
      </defs>
      <use xlink:href="#DejaVuSans-4e"/>
      <use xlink:href="#DejaVuSans-75" x="74.804688"/>
      <use xlink:href="#DejaVuSans-6d" x="138.183594"/>
      <use xlink:href="#DejaVuSans-62" x="235.595703"/>
      <use xlink:href="#DejaVuSans-65" x="299.072266"/>
      <use xlink:href="#DejaVuSans-72" x="360.595703"/>
      <use xlink:href="#DejaVuSans-20" x="401.708984"/>
      <use xlink:href="#DejaVuSans-6f" x="433.496094"/>
      <use xlink:href="#DejaVuSans-66" x="494.677734"/>
      <use xlink:href="#DejaVuSans-20" x="529.882812"/>
      <use xlink:href="#DejaVuSans-74" x="561.669922"/>
      <use xlink:href="#DejaVuSans-69" x="600.878906"/>
      <use xlink:href="#DejaVuSans-63" x="628.662109"/>
      <use xlink:href="#DejaVuSans-6b" x="683.642578"/>
      <use xlink:href="#DejaVuSans-65" x="737.927734"/>
      <use xlink:href="#DejaVuSans-74" x="799.451172"/>
      <use xlink:href="#DejaVuSans-73" x="838.660156"/>
      <use xlink:href="#DejaVuSans-20" x="890.759766"/>
      <use xlink:href="#DejaVuSans-73" x="922.546875"/>
      <use xlink:href="#DejaVuSans-6f" x="974.646484"/>
      <use xlink:href="#DejaVuSans-6c" x="1035.828125"/>
      <use xlink:href="#DejaVuSans-64" x="1063.611328"/>
     </g>
    </g>
   </g>
   <g id="line2d_39">
    <path d="M 57.6 52.662857 
L 414.72 52.662857 
" clip-path="url(#p0bbd8e8e7b)" style="fill: none; stroke-dasharray: 5.55,2.4; stroke-dashoffset: 0; stroke: #32cd32; stroke-width: 1.5"/>
   </g>
   <g id="patch_3">
    <path d="M 57.6 276.48 
L 57.6 41.472 
" style="fill: none; stroke: #000000; stroke-width: 0.8; stroke-linejoin: miter; stroke-linecap: square"/>
   </g>
   <g id="patch_4">
    <path d="M 414.72 276.48 
L 414.72 41.472 
" style="fill: none; stroke: #000000; stroke-width: 0.8; stroke-linejoin: miter; stroke-linecap: square"/>
   </g>
   <g id="patch_5">
    <path d="M 57.6 276.48 
L 414.72 276.48 
" style="fill: none; stroke: #000000; stroke-width: 0.8; stroke-linejoin: miter; stroke-linecap: square"/>
   </g>
   <g id="patch_6">
    <path d="M 57.6 41.472 
L 414.72 41.472 
" style="fill: none; stroke: #000000; stroke-width: 0.8; stroke-linejoin: miter; stroke-linecap: square"/>
   </g>
   <g id="text_18">
    <!-- MCH Tickets -->
    <g style="fill: #ffffff" transform="translate(199.504687 35.472)scale(0.12 -0.12)">
     <defs>
      <path id="DejaVuSans-43" d="M 4122 4306 
L 4122 3641 
Q 3803 3938 3442 4084 
Q 3081 4231 2675 4231 
Q 1875 4231 1450 3742 
Q 1025 3253 1025 2328 
Q 1025 1406 1450 917 
Q 1875 428 2675 428 
Q 3081 428 3442 575 
Q 3803 722 4122 1019 
L 4122 359 
Q 3791 134 3420 21 
Q 3050 -91 2638 -91 
Q 1578 -91 968 557 
Q 359 1206 359 2328 
Q 359 3453 968 4101 
Q 1578 4750 2638 4750 
Q 3056 4750 3426 4639 
Q 3797 4528 4122 4306 
z
" transform="scale(0.015625)"/>
      <path id="DejaVuSans-48" d="M 628 4666 
L 1259 4666 
L 1259 2753 
L 3553 2753 
L 3553 4666 
L 4184 4666 
L 4184 0 
L 3553 0 
L 3553 2222 
L 1259 2222 
L 1259 0 
L 628 0 
L 628 4666 
z
" transform="scale(0.015625)"/>
      <path id="DejaVuSans-54" d="M -19 4666 
L 3928 4666 
L 3928 4134 
L 2272 4134 
L 2272 0 
L 1638 0 
L 1638 4134 
L -19 4134 
L -19 4666 
z
" transform="scale(0.015625)"/>
     </defs>
     <use xlink:href="#DejaVuSans-4d"/>
     <use xlink:href="#DejaVuSans-43" x="86.279297"/>
     <use xlink:href="#DejaVuSans-48" x="156.103516"/>
     <use xlink:href="#DejaVuSans-20" x="231.298828"/>
     <use xlink:href="#DejaVuSans-54" x="263.085938"/>
     <use xlink:href="#DejaVuSans-69" x="321.044922"/>
     <use xlink:href="#DejaVuSans-63" x="348.828125"/>
     <use xlink:href="#DejaVuSans-6b" x="403.808594"/>
     <use xlink:href="#DejaVuSans-65" x="458.09375"/>
     <use xlink:href="#DejaVuSans-74" x="519.617188"/>
     <use xlink:href="#DejaVuSans-73" x="558.826172"/>
    </g>
   </g>
   <g id="legend_1">
    <g id="patch_7">
     <path d="M 64.6 93.506375 
L 244.389062 93.506375 
Q 246.389062 93.506375 246.389062 91.506375 
L 246.389062 48.472 
Q 246.389062 46.472 244.389062 46.472 
L 64.6 46.472 
Q 62.6 46.472 62.6 48.472 
L 62.6 91.506375 
Q 62.6 93.506375 64.6 93.506375 
z
" style="fill: #ffffff; opacity: 0.8; stroke: #cccccc; stroke-linejoin: miter"/>
    </g>
    <g id="patch_8">
     <path d="M 66.6 58.070437 
L 86.6 58.070437 
L 86.6 51.070437 
L 66.6 51.070437 
z
" style="fill: #fa448c; fill-opacity: 0.8"/>
    </g>
    <g id="text_19">
     <!-- Early-BirdTickets -->
     <g transform="translate(94.6 58.070437)scale(0.1 -0.1)">
      <defs>
       <path id="DejaVuSans-45" d="M 628 4666 
L 3578 4666 
L 3578 4134 
L 1259 4134 
L 1259 2753 
L 3481 2753 
L 3481 2222 
L 1259 2222 
L 1259 531 
L 3634 531 
L 3634 0 
L 628 0 
L 628 4666 
z
" transform="scale(0.015625)"/>
       <path id="DejaVuSans-61" d="M 2194 1759 
Q 1497 1759 1228 1600 
Q 959 1441 959 1056 
Q 959 750 1161 570 
Q 1363 391 1709 391 
Q 2188 391 2477 730 
Q 2766 1069 2766 1631 
L 2766 1759 
L 2194 1759 
z
M 3341 1997 
L 3341 0 
L 2766 0 
L 2766 531 
Q 2569 213 2275 61 
Q 1981 -91 1556 -91 
Q 1019 -91 701 211 
Q 384 513 384 1019 
Q 384 1609 779 1909 
Q 1175 2209 1959 2209 
L 2766 2209 
L 2766 2266 
Q 2766 2663 2505 2880 
Q 2244 3097 1772 3097 
Q 1472 3097 1187 3025 
Q 903 2953 641 2809 
L 641 3341 
Q 956 3463 1253 3523 
Q 1550 3584 1831 3584 
Q 2591 3584 2966 3190 
Q 3341 2797 3341 1997 
z
" transform="scale(0.015625)"/>
       <path id="DejaVuSans-79" d="M 2059 -325 
Q 1816 -950 1584 -1140 
Q 1353 -1331 966 -1331 
L 506 -1331 
L 506 -850 
L 844 -850 
Q 1081 -850 1212 -737 
Q 1344 -625 1503 -206 
L 1606 56 
L 191 3500 
L 800 3500 
L 1894 763 
L 2988 3500 
L 3597 3500 
L 2059 -325 
z
" transform="scale(0.015625)"/>
       <path id="DejaVuSans-2d" d="M 313 2009 
L 1997 2009 
L 1997 1497 
L 313 1497 
L 313 2009 
z
" transform="scale(0.015625)"/>
       <path id="DejaVuSans-42" d="M 1259 2228 
L 1259 519 
L 2272 519 
Q 2781 519 3026 730 
Q 3272 941 3272 1375 
Q 3272 1813 3026 2020 
Q 2781 2228 2272 2228 
L 1259 2228 
z
M 1259 4147 
L 1259 2741 
L 2194 2741 
Q 2656 2741 2882 2914 
Q 3109 3088 3109 3444 
Q 3109 3797 2882 3972 
Q 2656 4147 2194 4147 
L 1259 4147 
z
M 628 4666 
L 2241 4666 
Q 2963 4666 3353 4366 
Q 3744 4066 3744 3513 
Q 3744 3084 3544 2831 
Q 3344 2578 2956 2516 
Q 3422 2416 3680 2098 
Q 3938 1781 3938 1306 
Q 3938 681 3513 340 
Q 3088 0 2303 0 
L 628 0 
L 628 4666 
z
" transform="scale(0.015625)"/>
      </defs>
      <use xlink:href="#DejaVuSans-45"/>
      <use xlink:href="#DejaVuSans-61" x="63.183594"/>
      <use xlink:href="#DejaVuSans-72" x="124.462891"/>
      <use xlink:href="#DejaVuSans-6c" x="165.576172"/>
      <use xlink:href="#DejaVuSans-79" x="193.359375"/>
      <use xlink:href="#DejaVuSans-2d" x="250.789062"/>
      <use xlink:href="#DejaVuSans-42" x="283.248047"/>
      <use xlink:href="#DejaVuSans-69" x="351.851562"/>
      <use xlink:href="#DejaVuSans-72" x="379.634766"/>
      <use xlink:href="#DejaVuSans-64" x="418.998047"/>
      <use xlink:href="#DejaVuSans-54" x="482.474609"/>
      <use xlink:href="#DejaVuSans-69" x="540.433594"/>
      <use xlink:href="#DejaVuSans-63" x="568.216797"/>
      <use xlink:href="#DejaVuSans-6b" x="623.197266"/>
      <use xlink:href="#DejaVuSans-65" x="677.482422"/>
      <use xlink:href="#DejaVuSans-74" x="739.005859"/>
      <use xlink:href="#DejaVuSans-73" x="778.214844"/>
     </g>
    </g>
    <g id="patch_9">
     <path d="M 66.6 72.748562 
L 86.6 72.748562 
L 86.6 65.748562 
L 66.6 65.748562 
z
" style="fill: #43b5a0; fill-opacity: 0.8"/>
    </g>
    <g id="text_20">
     <!-- RegularTickets -->
     <g transform="translate(94.6 72.748562)scale(0.1 -0.1)">
      <defs>
       <path id="DejaVuSans-52" d="M 2841 2188 
Q 3044 2119 3236 1894 
Q 3428 1669 3622 1275 
L 4263 0 
L 3584 0 
L 2988 1197 
Q 2756 1666 2539 1819 
Q 2322 1972 1947 1972 
L 1259 1972 
L 1259 0 
L 628 0 
L 628 4666 
L 2053 4666 
Q 2853 4666 3247 4331 
Q 3641 3997 3641 3322 
Q 3641 2881 3436 2590 
Q 3231 2300 2841 2188 
z
M 1259 4147 
L 1259 2491 
L 2053 2491 
Q 2509 2491 2742 2702 
Q 2975 2913 2975 3322 
Q 2975 3731 2742 3939 
Q 2509 4147 2053 4147 
L 1259 4147 
z
" transform="scale(0.015625)"/>
       <path id="DejaVuSans-67" d="M 2906 1791 
Q 2906 2416 2648 2759 
Q 2391 3103 1925 3103 
Q 1463 3103 1205 2759 
Q 947 2416 947 1791 
Q 947 1169 1205 825 
Q 1463 481 1925 481 
Q 2391 481 2648 825 
Q 2906 1169 2906 1791 
z
M 3481 434 
Q 3481 -459 3084 -895 
Q 2688 -1331 1869 -1331 
Q 1566 -1331 1297 -1286 
Q 1028 -1241 775 -1147 
L 775 -588 
Q 1028 -725 1275 -790 
Q 1522 -856 1778 -856 
Q 2344 -856 2625 -561 
Q 2906 -266 2906 331 
L 2906 616 
Q 2728 306 2450 153 
Q 2172 0 1784 0 
Q 1141 0 747 490 
Q 353 981 353 1791 
Q 353 2603 747 3093 
Q 1141 3584 1784 3584 
Q 2172 3584 2450 3431 
Q 2728 3278 2906 2969 
L 2906 3500 
L 3481 3500 
L 3481 434 
z
" transform="scale(0.015625)"/>
      </defs>
      <use xlink:href="#DejaVuSans-52"/>
      <use xlink:href="#DejaVuSans-65" x="64.982422"/>
      <use xlink:href="#DejaVuSans-67" x="126.505859"/>
      <use xlink:href="#DejaVuSans-75" x="189.982422"/>
      <use xlink:href="#DejaVuSans-6c" x="253.361328"/>
      <use xlink:href="#DejaVuSans-61" x="281.144531"/>
      <use xlink:href="#DejaVuSans-72" x="342.423828"/>
      <use xlink:href="#DejaVuSans-54" x="383.537109"/>
      <use xlink:href="#DejaVuSans-69" x="441.496094"/>
      <use xlink:href="#DejaVuSans-63" x="469.279297"/>
      <use xlink:href="#DejaVuSans-6b" x="524.259766"/>
      <use xlink:href="#DejaVuSans-65" x="578.544922"/>
      <use xlink:href="#DejaVuSans-74" x="640.068359"/>
      <use xlink:href="#DejaVuSans-73" x="679.277344"/>
     </g>
    </g>
    <g id="line2d_40">
     <path d="M 66.6 83.926687 
L 76.6 83.926687 
L 86.6 83.926687 
" style="fill: none; stroke-dasharray: 5.55,2.4; stroke-dashoffset: 0; stroke: #32cd32; stroke-width: 1.5"/>
    </g>
    <g id="text_21">
     <!-- Required tickets w/ donations -->
     <g transform="translate(94.6 87.426687)scale(0.1 -0.1)">
      <defs>
       <path id="DejaVuSans-71" d="M 947 1747 
Q 947 1113 1208 752 
Q 1469 391 1925 391 
Q 2381 391 2643 752 
Q 2906 1113 2906 1747 
Q 2906 2381 2643 2742 
Q 2381 3103 1925 3103 
Q 1469 3103 1208 2742 
Q 947 2381 947 1747 
z
M 2906 525 
Q 2725 213 2448 61 
Q 2172 -91 1784 -91 
Q 1150 -91 751 415 
Q 353 922 353 1747 
Q 353 2572 751 3078 
Q 1150 3584 1784 3584 
Q 2172 3584 2448 3432 
Q 2725 3281 2906 2969 
L 2906 3500 
L 3481 3500 
L 3481 -1331 
L 2906 -1331 
L 2906 525 
z
" transform="scale(0.015625)"/>
       <path id="DejaVuSans-77" d="M 269 3500 
L 844 3500 
L 1563 769 
L 2278 3500 
L 2956 3500 
L 3675 769 
L 4391 3500 
L 4966 3500 
L 4050 0 
L 3372 0 
L 2619 2869 
L 1863 0 
L 1184 0 
L 269 3500 
z
" transform="scale(0.015625)"/>
      </defs>
      <use xlink:href="#DejaVuSans-52"/>
      <use xlink:href="#DejaVuSans-65" x="64.982422"/>
      <use xlink:href="#DejaVuSans-71" x="126.505859"/>
      <use xlink:href="#DejaVuSans-75" x="189.982422"/>
      <use xlink:href="#DejaVuSans-69" x="253.361328"/>
      <use xlink:href="#DejaVuSans-72" x="281.144531"/>
      <use xlink:href="#DejaVuSans-65" x="320.007812"/>
      <use xlink:href="#DejaVuSans-64" x="381.53125"/>
      <use xlink:href="#DejaVuSans-20" x="445.007812"/>
      <use xlink:href="#DejaVuSans-74" x="476.794922"/>
      <use xlink:href="#DejaVuSans-69" x="516.003906"/>
      <use xlink:href="#DejaVuSans-63" x="543.787109"/>
      <use xlink:href="#DejaVuSans-6b" x="598.767578"/>
      <use xlink:href="#DejaVuSans-65" x="653.052734"/>
      <use xlink:href="#DejaVuSans-74" x="714.576172"/>
      <use xlink:href="#DejaVuSans-73" x="753.785156"/>
      <use xlink:href="#DejaVuSans-20" x="805.884766"/>
      <use xlink:href="#DejaVuSans-77" x="837.671875"/>
      <use xlink:href="#DejaVuSans-2f" x="919.458984"/>
      <use xlink:href="#DejaVuSans-20" x="953.150391"/>
      <use xlink:href="#DejaVuSans-64" x="984.9375"/>
      <use xlink:href="#DejaVuSans-6f" x="1048.414062"/>
      <use xlink:href="#DejaVuSans-6e" x="1109.595703"/>
      <use xlink:href="#DejaVuSans-61" x="1172.974609"/>
      <use xlink:href="#DejaVuSans-74" x="1234.253906"/>
      <use xlink:href="#DejaVuSans-69" x="1273.462891"/>
      <use xlink:href="#DejaVuSans-6f" x="1301.246094"/>
      <use xlink:href="#DejaVuSans-6e" x="1362.427734"/>
      <use xlink:href="#DejaVuSans-73" x="1425.806641"/>
     </g>
    </g>
   </g>
  </g>
 </g>
 <defs>
  <clipPath id="p0bbd8e8e7b">
   <rect x="57.6" y="41.472" width="357.12" height="235.008"/>
  </clipPath>
 </defs>
</svg>
