<?xml version="1.0" encoding="utf-8" standalone="no"?>
<!DOCTYPE svg PUBLIC "-//W3C//DTD SVG 1.1//EN"
  "http://www.w3.org/Graphics/SVG/1.1/DTD/svg11.dtd">
<svg xmlns:xlink="http://www.w3.org/1999/xlink" width="460.8pt" height="345.6pt" viewBox="0 0 460.8 345.6" xmlns="http://www.w3.org/2000/svg" version="1.1">
 <metadata>
  <rdf:RDF xmlns:dc="http://purl.org/dc/elements/1.1/" xmlns:cc="http://creativecommons.org/ns#" xmlns:rdf="http://www.w3.org/1999/02/22-rdf-syntax-ns#">
   <cc:Work>
    <dc:type rdf:resource="http://purl.org/dc/dcmitype/StillImage"/>
    <dc:date>2022-01-18T03:43:49.215867</dc:date>
    <dc:format>image/svg+xml</dc:format>
    <dc:creator>
     <cc:Agent>
      <dc:title>Matplotlib v3.5.1, https://matplotlib.org/</dc:title>
     </cc:Agent>
    </dc:creator>
   </cc:Work>
  </rdf:RDF>
 </metadata>
 <defs>
  <style type="text/css">*{stroke-linejoin: round; stroke-linecap: butt}</style>
 </defs>
 <g id="figure_1">
  <g id="patch_1">
   <path d="M 0 345.6 
L 460.8 345.6 
L 460.8 0 
L 0 0 
z
" style="fill: #491d88"/>
  </g>
  <g id="axes_1">
   <g id="patch_2">
    <path d="M 57.6 276.48 
L 414.72 276.48 
L 414.72 41.472 
L 57.6 41.472 
z
" style="fill: #fec859"/>
   </g>
   <g id="PolyCollection_1">
    <path d="M 73.832727 276.48 
L 73.832727 276.48 
L 73.832727 276.48 
L 73.832727 276.48 
L 74.323342 276.48 
L 74.323342 276.48 
L 74.813956 276.48 
L 74.813956 276.48 
L 75.304571 276.48 
L 75.304571 276.48 
L 75.795186 276.48 
L 75.795186 276.48 
L 76.2858 276.48 
L 76.2858 276.48 
L 76.776415 276.48 
L 76.776415 276.48 
L 77.26703 276.48 
L 77.26703 276.48 
L 77.757644 276.48 
L 77.757644 276.48 
L 78.248259 276.48 
L 78.248259 276.48 
L 78.738873 276.48 
L 78.738873 276.48 
L 79.229488 276.48 
L 79.229488 276.48 
L 79.720103 276.48 
L 79.720103 276.48 
L 80.210717 276.48 
L 80.210717 276.48 
L 80.701332 276.48 
L 80.701332 276.48 
L 81.191946 276.48 
L 81.191946 276.48 
L 81.682561 276.48 
L 81.682561 276.48 
L 82.66379 276.48 
L 82.66379 276.48 
L 83.154405 276.48 
L 83.154405 276.48 
L 83.645019 276.48 
L 83.645019 276.48 
L 84.135634 276.48 
L 84.135634 276.48 
L 84.626249 276.48 
L 84.626249 276.48 
L 85.116863 276.48 
L 85.116863 276.48 
L 85.607478 276.48 
L 85.607478 276.48 
L 86.098092 276.48 
L 86.098092 276.48 
L 86.588707 276.48 
L 86.588707 276.48 
L 87.079322 276.48 
L 87.079322 276.48 
L 88.060551 276.48 
L 88.060551 276.48 
L 89.04178 276.48 
L 89.04178 276.48 
L 89.532395 276.48 
L 89.532395 276.48 
L 90.023009 276.48 
L 90.023009 276.48 
L 93.457312 276.48 
L 93.457312 276.48 
L 93.947926 276.48 
L 93.947926 276.48 
L 94.438541 276.48 
L 94.438541 276.48 
L 94.929155 276.48 
L 94.929155 276.48 
L 95.41977 276.48 
L 95.41977 276.48 
L 95.910385 276.48 
L 95.910385 276.48 
L 96.400999 276.48 
L 96.400999 276.48 
L 96.891614 276.48 
L 96.891614 276.48 
L 97.382228 276.48 
L 97.382228 276.48 
L 97.872843 276.48 
L 97.872843 276.48 
L 98.363458 276.48 
L 98.363458 276.48 
L 98.854072 276.48 
L 98.854072 276.48 
L 99.344687 276.48 
L 99.344687 276.48 
L 99.835301 276.48 
L 99.835301 276.48 
L 100.325916 276.48 
L 100.325916 276.48 
L 100.816531 276.48 
L 100.816531 276.48 
L 101.307145 276.48 
L 101.307145 276.48 
L 101.79776 276.48 
L 101.79776 276.48 
L 104.741448 276.48 
L 104.741448 276.48 
L 106.213291 276.48 
L 106.213291 276.48 
L 106.703906 276.48 
L 106.703906 276.48 
L 107.194521 276.48 
L 107.194521 276.48 
L 108.17575 276.48 
L 108.17575 276.48 
L 108.666364 276.48 
L 108.666364 276.48 
L 109.156979 276.48 
L 109.156979 276.48 
L 109.647594 276.48 
L 109.647594 276.48 
L 110.138208 276.48 
L 110.138208 276.48 
L 110.628823 276.48 
L 110.628823 276.48 
L 111.119437 276.48 
L 111.119437 276.48 
L 111.610052 276.48 
L 111.610052 276.48 
L 112.100667 276.48 
L 112.100667 276.48 
L 112.591281 276.48 
L 112.591281 276.48 
L 113.081896 276.48 
L 113.081896 276.48 
L 113.57251 276.48 
L 113.57251 276.48 
L 117.988042 276.48 
L 117.988042 276.48 
L 118.969271 276.48 
L 118.969271 276.48 
L 119.459886 276.48 
L 119.459886 276.48 
L 119.9505 276.48 
L 119.9505 276.48 
L 120.441115 276.48 
L 120.441115 276.48 
L 122.403573 276.48 
L 122.403573 276.48 
L 130.744022 276.48 
L 130.744022 276.48 
L 131.725251 276.48 
L 131.725251 276.48 
L 132.215866 276.48 
L 132.215866 276.48 
L 133.197095 276.48 
L 133.197095 276.48 
L 133.687709 276.48 
L 133.687709 276.48 
L 135.159553 276.48 
L 135.159553 276.48 
L 137.122012 276.48 
L 137.122012 276.48 
L 137.612626 276.48 
L 137.612626 276.48 
L 141.537543 276.48 
L 141.537543 276.48 
L 142.028158 276.48 
L 142.028158 276.48 
L 142.518772 276.48 
L 142.518772 276.48 
L 143.009387 276.48 
L 143.009387 276.48 
L 143.500002 276.48 
L 143.500002 276.48 
L 143.990616 276.48 
L 143.990616 276.48 
L 144.481231 276.48 
L 144.481231 276.48 
L 144.971845 276.48 
L 144.971845 276.48 
L 145.46246 276.48 
L 145.46246 276.48 
L 146.443689 276.48 
L 146.443689 276.48 
L 146.934304 276.48 
L 146.934304 276.48 
L 147.424918 276.48 
L 147.424918 276.48 
L 147.915533 276.48 
L 147.915533 276.48 
L 148.406148 276.48 
L 148.406148 276.48 
L 148.896762 276.48 
L 148.896762 276.48 
L 149.877991 276.48 
L 149.877991 276.48 
L 151.84045 276.48 
L 151.84045 276.48 
L 153.802908 276.48 
L 153.802908 276.48 
L 154.784137 276.48 
L 154.784137 276.48 
L 155.765367 276.48 
L 155.765367 276.48 
L 156.746596 276.48 
L 156.746596 276.48 
L 157.237211 276.48 
L 157.237211 276.48 
L 158.21844 276.48 
L 158.21844 276.48 
L 158.709054 276.48 
L 158.709054 276.48 
L 159.199669 276.48 
L 159.199669 276.48 
L 159.690284 276.48 
L 159.690284 276.48 
L 160.180898 276.48 
L 160.180898 276.48 
L 160.671513 276.48 
L 160.671513 276.48 
L 164.59643 276.48 
L 164.59643 276.48 
L 165.087044 276.48 
L 165.087044 276.48 
L 165.577659 276.48 
L 165.577659 276.48 
L 166.068273 276.48 
L 166.068273 276.48 
L 166.558888 276.48 
L 166.558888 276.48 
L 167.049503 276.48 
L 167.049503 276.48 
L 167.540117 276.48 
L 167.540117 276.48 
L 168.030732 276.48 
L 168.030732 276.48 
L 169.011961 276.48 
L 169.011961 276.48 
L 169.99319 276.48 
L 169.99319 276.48 
L 170.97442 276.48 
L 170.97442 276.48 
L 171.465034 276.48 
L 171.465034 276.48 
L 171.955649 276.48 
L 171.955649 276.48 
L 172.446263 276.48 
L 172.446263 276.48 
L 173.427493 276.48 
L 173.427493 276.48 
L 173.918107 276.48 
L 173.918107 276.48 
L 174.408722 276.48 
L 174.408722 276.48 
L 176.37118 276.48 
L 176.37118 276.48 
L 177.843024 276.48 
L 177.843024 276.48 
L 178.333639 276.48 
L 178.333639 276.48 
L 180.296097 276.48 
L 180.296097 276.48 
L 181.277326 276.48 
L 181.277326 276.48 
L 181.767941 276.48 
L 181.767941 276.48 
L 182.258555 276.48 
L 182.258555 276.48 
L 182.74917 276.48 
L 182.74917 276.48 
L 183.239785 276.48 
L 183.239785 276.48 
L 183.730399 276.48 
L 183.730399 276.48 
L 184.711629 276.48 
L 184.711629 276.48 
L 187.655316 276.48 
L 187.655316 276.48 
L 188.145931 276.48 
L 188.145931 276.48 
L 188.636545 276.48 
L 188.636545 276.48 
L 189.617775 276.48 
L 189.617775 276.48 
L 190.108389 276.48 
L 190.108389 276.48 
L 191.089618 276.48 
L 191.089618 276.48 
L 191.580233 276.48 
L 191.580233 276.48 
L 193.052077 276.48 
L 193.052077 276.48 
L 193.542691 276.48 
L 193.542691 276.48 
L 194.523921 276.48 
L 194.523921 276.48 
L 195.014535 276.48 
L 195.014535 276.48 
L 195.50515 276.48 
L 195.50515 276.48 
L 195.995765 276.48 
L 195.995765 276.48 
L 196.486379 276.48 
L 196.486379 276.48 
L 201.392525 276.48 
L 201.392525 276.48 
L 202.373754 276.48 
L 202.373754 276.48 
L 202.864369 276.48 
L 202.864369 276.48 
L 204.336213 276.48 
L 204.336213 276.48 
L 204.826827 276.48 
L 204.826827 276.48 
L 205.317442 276.48 
L 205.317442 276.48 
L 206.789286 276.48 
L 206.789286 276.48 
L 207.2799 276.48 
L 207.2799 276.48 
L 212.186047 276.48 
L 212.186047 276.48 
L 213.167276 276.48 
L 213.167276 276.48 
L 214.148505 276.48 
L 214.148505 276.48 
L 214.63912 276.48 
L 214.63912 276.48 
L 215.129734 276.48 
L 215.129734 276.48 
L 215.620349 276.48 
L 215.620349 276.48 
L 216.110963 276.48 
L 216.110963 276.48 
L 217.092193 276.48 
L 217.092193 276.48 
L 218.073422 276.48 
L 218.073422 276.48 
L 219.054651 276.48 
L 219.054651 276.48 
L 219.545266 276.48 
L 219.545266 276.48 
L 220.03588 276.48 
L 220.03588 276.48 
L 223.960797 276.48 
L 223.960797 276.48 
L 225.432641 276.48 
L 225.432641 276.48 
L 225.923256 276.48 
L 225.923256 276.48 
L 227.395099 276.48 
L 227.395099 276.48 
L 228.376329 276.48 
L 228.376329 276.48 
L 228.866943 276.48 
L 228.866943 276.48 
L 229.357558 276.48 
L 229.357558 276.48 
L 229.848172 276.48 
L 229.848172 276.48 
L 230.829402 276.48 
L 230.829402 276.48 
L 235.244933 276.48 
L 235.244933 276.48 
L 237.698006 276.48 
L 237.698006 276.48 
L 238.188621 276.48 
L 238.188621 276.48 
L 239.660465 276.48 
L 239.660465 276.48 
L 240.641694 276.48 
L 240.641694 276.48 
L 241.132308 276.48 
L 241.132308 276.48 
L 241.622923 276.48 
L 241.622923 276.48 
L 242.113538 276.48 
L 242.113538 276.48 
L 242.604152 276.48 
L 242.604152 276.48 
L 243.094767 276.48 
L 243.094767 276.48 
L 247.019684 276.48 
L 247.019684 276.48 
L 248.000913 276.48 
L 248.000913 276.48 
L 248.491527 276.48 
L 248.491527 276.48 
L 248.982142 276.48 
L 248.982142 276.48 
L 249.472757 276.48 
L 249.472757 276.48 
L 249.963371 276.48 
L 249.963371 276.48 
L 250.453986 276.48 
L 250.453986 276.48 
L 250.944601 276.48 
L 250.944601 276.48 
L 251.435215 276.48 
L 251.435215 276.48 
L 252.416444 276.48 
L 252.416444 276.48 
L 258.794434 276.48 
L 258.794434 276.48 
L 260.756893 276.48 
L 260.756893 276.48 
L 261.738122 276.48 
L 261.738122 276.48 
L 262.228736 276.48 
L 262.228736 276.48 
L 263.70058 276.48 
L 263.70058 276.48 
L 264.191195 276.48 
L 264.191195 276.48 
L 264.68181 276.48 
L 264.68181 276.48 
L 266.153653 276.48 
L 266.153653 276.48 
L 267.625497 276.48 
L 267.625497 276.48 
L 271.059799 276.48 
L 271.059799 276.48 
L 271.550414 276.48 
L 271.550414 276.48 
L 272.041029 276.48 
L 272.041029 276.48 
L 272.531643 276.48 
L 272.531643 276.48 
L 273.022258 276.48 
L 273.022258 276.48 
L 274.494102 276.48 
L 274.494102 276.48 
L 275.965945 276.48 
L 275.965945 276.48 
L 277.437789 276.48 
L 277.437789 276.48 
L 285.287623 276.48 
L 285.287623 276.48 
L 287.250081 276.48 
L 287.250081 276.48 
L 287.740696 276.48 
L 287.740696 276.48 
L 296.571759 276.48 
L 296.571759 276.48 
L 297.062374 276.48 
L 297.062374 276.48 
L 297.552988 276.48 
L 297.552988 276.48 
L 298.534217 276.48 
L 298.534217 276.48 
L 299.024832 276.48 
L 299.024832 276.48 
L 299.515447 276.48 
L 299.515447 276.48 
L 300.496676 276.48 
L 300.496676 276.48 
L 304.912207 276.48 
L 304.912207 276.48 
L 305.893437 276.48 
L 305.893437 276.48 
L 307.36528 276.48 
L 307.36528 276.48 
L 308.34651 276.48 
L 308.34651 276.48 
L 310.308968 276.48 
L 310.308968 276.48 
L 313.252656 276.48 
L 313.252656 276.48 
L 319.630646 276.48 
L 319.630646 276.48 
L 320.12126 276.48 
L 320.12126 276.48 
L 321.593104 276.48 
L 321.593104 276.48 
L 322.574333 276.48 
L 322.574333 276.48 
L 323.064948 276.48 
L 323.064948 276.48 
L 324.046177 276.48 
L 324.046177 276.48 
L 328.461708 276.48 
L 328.461708 276.48 
L 329.933552 276.48 
L 329.933552 276.48 
L 330.914782 276.48 
L 330.914782 276.48 
L 331.405396 276.48 
L 331.405396 276.48 
L 331.896011 276.48 
L 331.896011 276.48 
L 333.858469 276.48 
L 333.858469 276.48 
L 335.330313 276.48 
L 335.330313 276.48 
L 335.820928 276.48 
L 335.820928 276.48 
L 336.311542 276.48 
L 336.311542 276.48 
L 336.802157 276.48 
L 336.802157 276.48 
L 341.708303 276.48 
L 341.708303 276.48 
L 342.689532 276.48 
L 342.689532 276.48 
L 345.142605 276.48 
L 345.142605 276.48 
L 347.595678 276.48 
L 347.595678 276.48 
L 348.086293 276.48 
L 348.086293 276.48 
L 348.576907 276.48 
L 348.576907 276.48 
L 349.558137 276.48 
L 349.558137 276.48 
L 352.01121 276.48 
L 352.01121 276.48 
L 352.992439 276.48 
L 352.992439 276.48 
L 354.954897 276.48 
L 354.954897 276.48 
L 358.879814 276.48 
L 358.879814 276.48 
L 360.842273 276.48 
L 360.842273 276.48 
L 363.730683 276.48 
L 363.730683 276.48 
L 363.931812 276.48 
L 363.931812 276.48 
L 364.107337 276.48 
L 364.107337 276.48 
L 364.455344 276.48 
L 364.455344 276.48 
L 364.676039 276.48 
L 364.676039 276.48 
L 364.907656 276.48 
L 364.907656 276.48 
L 365.081114 276.48 
L 365.081114 276.48 
L 365.43886 276.48 
L 365.43886 276.48 
L 365.63389 276.48 
L 365.63389 276.48 
L 365.896433 276.48 
L 365.896433 276.48 
L 366.089342 276.48 
L 366.089342 276.48 
L 366.39646 276.48 
L 366.39646 276.48 
L 366.589589 276.48 
L 366.589589 276.48 
L 366.849645 276.48 
L 366.849645 276.48 
L 367.031655 276.48 
L 367.031655 276.48 
L 367.457729 276.48 
L 367.457729 276.48 
L 367.734313 276.48 
L 367.734313 276.48 
L 368.052887 276.48 
L 368.052887 276.48 
L 368.07713 276.48 
L 368.07713 276.48 
L 368.091412 276.48 
L 368.091412 276.48 
L 368.333672 276.48 
L 368.333672 276.48 
L 368.518806 276.48 
L 368.518806 276.48 
L 368.844113 276.48 
L 368.844113 276.48 
L 369.054415 276.48 
L 369.054415 276.48 
L 369.408421 276.48 
L 369.408421 276.48 
L 370.108047 276.48 
L 370.108047 276.48 
L 370.1283 276.48 
L 370.1283 276.48 
L 370.153327 276.48 
L 370.153327 276.48 
L 370.337176 276.48 
L 370.337176 276.48 
L 370.54522 276.48 
L 370.54522 276.48 
L 370.771165 276.48 
L 370.771165 276.48 
L 370.957355 276.48 
L 370.957355 276.48 
L 371.299088 276.48 
L 371.299088 276.48 
L 371.75962 276.48 
L 371.75962 276.48 
L 377.209736 276.48 
L 377.209736 276.48 
L 378.623637 276.48 
L 378.623637 276.48 
L 379.828637 276.48 
L 379.828637 276.48 
L 380.108255 276.48 
L 380.108255 276.48 
L 381.479879 276.48 
L 381.479879 276.48 
L 381.827676 276.48 
L 381.827676 276.48 
L 382.108689 276.48 
L 382.108689 276.48 
L 382.54736 276.48 
L 382.54736 276.48 
L 389.956573 276.48 
L 389.956573 276.48 
L 392.97008 276.48 
L 392.97008 276.48 
L 395.040449 276.48 
L 395.040449 276.48 
L 395.314898 276.48 
L 395.314898 276.48 
L 396.317319 276.48 
L 396.317319 276.48 
L 397.180528 276.48 
L 397.180528 276.48 
L 398.487273 276.48 
L 398.487273 276.48 
L 398.487273 200.083749 
L 398.487273 200.083749 
L 398.487273 200.083749 
L 397.180528 200.083749 
L 397.180528 200.083749 
L 396.317319 200.083749 
L 396.317319 200.083749 
L 395.314898 200.083749 
L 395.314898 200.083749 
L 395.040449 200.083749 
L 395.040449 200.083749 
L 392.97008 200.083749 
L 392.97008 200.083749 
L 389.956573 200.083749 
L 389.956573 200.083749 
L 382.54736 200.083749 
L 382.54736 200.083749 
L 382.108689 200.083749 
L 382.108689 200.083749 
L 381.827676 200.083749 
L 381.827676 200.083749 
L 381.479879 200.083749 
L 381.479879 200.083749 
L 380.108255 200.083749 
L 380.108255 200.083749 
L 379.828637 200.083749 
L 379.828637 200.083749 
L 378.623637 200.083749 
L 378.623637 200.083749 
L 377.209736 200.083749 
L 377.209736 200.083749 
L 371.75962 200.083749 
L 371.75962 200.083749 
L 371.299088 200.083749 
L 371.299088 200.083749 
L 370.957355 200.083749 
L 370.957355 200.083749 
L 370.771165 200.083749 
L 370.771165 200.083749 
L 370.54522 200.083749 
L 370.54522 200.083749 
L 370.337176 200.083749 
L 370.337176 200.083749 
L 370.153327 200.083749 
L 370.153327 200.083749 
L 370.1283 200.083749 
L 370.1283 200.083749 
L 370.108047 200.083749 
L 370.108047 200.083749 
L 369.408421 200.083749 
L 369.408421 200.083749 
L 369.054415 200.083749 
L 369.054415 200.083749 
L 368.844113 200.083749 
L 368.844113 200.083749 
L 368.518806 200.083749 
L 368.518806 200.083749 
L 368.333672 200.083749 
L 368.333672 200.083749 
L 368.091412 200.083749 
L 368.091412 200.083749 
L 368.07713 200.083749 
L 368.07713 200.083749 
L 368.052887 200.083749 
L 368.052887 200.083749 
L 367.734313 200.083749 
L 367.734313 200.083749 
L 367.457729 200.083749 
L 367.457729 200.083749 
L 367.031655 200.083749 
L 367.031655 200.083749 
L 366.849645 200.083749 
L 366.849645 200.083749 
L 366.589589 200.083749 
L 366.589589 200.083749 
L 366.39646 200.083749 
L 366.39646 200.083749 
L 366.089342 200.083749 
L 366.089342 200.083749 
L 365.896433 200.083749 
L 365.896433 200.083749 
L 365.63389 200.083749 
L 365.63389 200.083749 
L 365.43886 200.083749 
L 365.43886 200.083749 
L 365.081114 200.083749 
L 365.081114 200.083749 
L 364.907656 200.083749 
L 364.907656 200.083749 
L 364.676039 200.083749 
L 364.676039 200.083749 
L 364.455344 200.083749 
L 364.455344 200.083749 
L 364.107337 200.083749 
L 364.107337 200.083749 
L 363.931812 200.083749 
L 363.931812 200.083749 
L 363.730683 200.083749 
L 363.730683 202.023497 
L 360.842273 202.023497 
L 360.842273 202.023497 
L 358.879814 202.023497 
L 358.879814 202.023497 
L 354.954897 202.023497 
L 354.954897 202.023497 
L 352.992439 202.023497 
L 352.992439 202.023497 
L 352.01121 202.023497 
L 352.01121 202.023497 
L 349.558137 202.023497 
L 349.558137 202.023497 
L 348.576907 202.023497 
L 348.576907 202.023497 
L 348.086293 202.023497 
L 348.086293 202.023497 
L 347.595678 202.023497 
L 347.595678 202.023497 
L 345.142605 202.023497 
L 345.142605 202.023497 
L 342.689532 202.023497 
L 342.689532 202.023497 
L 341.708303 202.023497 
L 341.708303 202.023497 
L 336.802157 202.023497 
L 336.802157 202.023497 
L 336.311542 202.023497 
L 336.311542 202.023497 
L 335.820928 202.023497 
L 335.820928 202.023497 
L 335.330313 202.023497 
L 335.330313 202.023497 
L 333.858469 202.023497 
L 333.858469 202.023497 
L 331.896011 202.023497 
L 331.896011 202.023497 
L 331.405396 202.023497 
L 331.405396 202.023497 
L 330.914782 202.023497 
L 330.914782 202.023497 
L 329.933552 202.023497 
L 329.933552 202.023497 
L 328.461708 202.023497 
L 328.461708 202.023497 
L 324.046177 202.023497 
L 324.046177 202.023497 
L 323.064948 202.023497 
L 323.064948 202.023497 
L 322.574333 202.023497 
L 322.574333 202.023497 
L 321.593104 202.023497 
L 321.593104 202.023497 
L 320.12126 202.023497 
L 320.12126 202.023497 
L 319.630646 202.023497 
L 319.630646 202.023497 
L 313.252656 202.023497 
L 313.252656 202.023497 
L 310.308968 202.023497 
L 310.308968 202.023497 
L 308.34651 202.023497 
L 308.34651 202.023497 
L 307.36528 202.023497 
L 307.36528 202.023497 
L 305.893437 202.023497 
L 305.893437 202.023497 
L 304.912207 202.023497 
L 304.912207 202.023497 
L 300.496676 202.023497 
L 300.496676 202.023497 
L 299.515447 202.023497 
L 299.515447 202.023497 
L 299.024832 202.023497 
L 299.024832 202.023497 
L 298.534217 202.023497 
L 298.534217 202.023497 
L 297.552988 202.023497 
L 297.552988 202.023497 
L 297.062374 202.023497 
L 297.062374 202.023497 
L 296.571759 202.023497 
L 296.571759 202.023497 
L 287.740696 202.023497 
L 287.740696 202.023497 
L 287.250081 202.023497 
L 287.250081 202.023497 
L 285.287623 202.023497 
L 285.287623 202.023497 
L 277.437789 202.023497 
L 277.437789 202.023497 
L 275.965945 202.023497 
L 275.965945 202.023497 
L 274.494102 202.023497 
L 274.494102 202.023497 
L 273.022258 202.023497 
L 273.022258 202.023497 
L 272.531643 202.023497 
L 272.531643 202.023497 
L 272.041029 202.023497 
L 272.041029 202.023497 
L 271.550414 202.023497 
L 271.550414 202.023497 
L 271.059799 202.023497 
L 271.059799 202.023497 
L 267.625497 202.023497 
L 267.625497 202.023497 
L 266.153653 202.023497 
L 266.153653 202.023497 
L 264.68181 202.023497 
L 264.68181 202.023497 
L 264.191195 202.023497 
L 264.191195 202.023497 
L 263.70058 202.023497 
L 263.70058 202.023497 
L 262.228736 202.023497 
L 262.228736 202.023497 
L 261.738122 202.023497 
L 261.738122 202.023497 
L 260.756893 202.023497 
L 260.756893 202.023497 
L 258.794434 202.023497 
L 258.794434 202.023497 
L 252.416444 202.023497 
L 252.416444 202.023497 
L 251.435215 202.023497 
L 251.435215 202.023497 
L 250.944601 202.023497 
L 250.944601 202.023497 
L 250.453986 202.023497 
L 250.453986 202.023497 
L 249.963371 202.023497 
L 249.963371 202.023497 
L 249.472757 202.023497 
L 249.472757 202.023497 
L 248.982142 202.023497 
L 248.982142 202.023497 
L 248.491527 202.023497 
L 248.491527 202.023497 
L 248.000913 202.023497 
L 248.000913 202.023497 
L 247.019684 202.023497 
L 247.019684 202.023497 
L 243.094767 202.023497 
L 243.094767 202.023497 
L 242.604152 202.023497 
L 242.604152 202.023497 
L 242.113538 202.023497 
L 242.113538 202.023497 
L 241.622923 202.023497 
L 241.622923 202.023497 
L 241.132308 202.023497 
L 241.132308 202.023497 
L 240.641694 202.023497 
L 240.641694 202.023497 
L 239.660465 202.023497 
L 239.660465 202.023497 
L 238.188621 202.023497 
L 238.188621 202.023497 
L 237.698006 202.023497 
L 237.698006 202.023497 
L 235.244933 202.023497 
L 235.244933 202.023497 
L 230.829402 202.023497 
L 230.829402 202.023497 
L 229.848172 202.023497 
L 229.848172 202.023497 
L 229.357558 202.023497 
L 229.357558 202.023497 
L 228.866943 202.023497 
L 228.866943 202.023497 
L 228.376329 202.023497 
L 228.376329 202.023497 
L 227.395099 202.023497 
L 227.395099 202.023497 
L 225.923256 202.023497 
L 225.923256 202.023497 
L 225.432641 202.023497 
L 225.432641 202.023497 
L 223.960797 202.023497 
L 223.960797 202.023497 
L 220.03588 202.023497 
L 220.03588 202.023497 
L 219.545266 202.023497 
L 219.545266 202.023497 
L 219.054651 202.023497 
L 219.054651 202.023497 
L 218.073422 202.023497 
L 218.073422 202.023497 
L 217.092193 202.023497 
L 217.092193 202.023497 
L 216.110963 202.023497 
L 216.110963 202.023497 
L 215.620349 202.023497 
L 215.620349 202.023497 
L 215.129734 202.023497 
L 215.129734 202.023497 
L 214.63912 202.023497 
L 214.63912 202.023497 
L 214.148505 202.023497 
L 214.148505 202.023497 
L 213.167276 202.023497 
L 213.167276 202.023497 
L 212.186047 202.023497 
L 212.186047 202.023497 
L 207.2799 202.023497 
L 207.2799 202.023497 
L 206.789286 202.023497 
L 206.789286 202.023497 
L 205.317442 202.023497 
L 205.317442 202.172709 
L 204.826827 202.172709 
L 204.826827 202.471131 
L 204.336213 202.471131 
L 204.336213 202.620343 
L 202.864369 202.620343 
L 202.864369 203.067977 
L 202.373754 203.067977 
L 202.373754 203.217189 
L 201.392525 203.217189 
L 201.392525 203.3664 
L 196.486379 203.3664 
L 196.486379 203.664823 
L 195.995765 203.664823 
L 195.995765 203.664823 
L 195.50515 203.664823 
L 195.50515 203.963246 
L 195.014535 203.963246 
L 195.014535 204.41088 
L 194.523921 204.41088 
L 194.523921 204.41088 
L 193.542691 204.41088 
L 193.542691 204.709303 
L 193.052077 204.709303 
L 193.052077 204.858514 
L 191.580233 204.858514 
L 191.580233 205.156937 
L 191.089618 205.156937 
L 191.089618 206.649051 
L 190.108389 206.649051 
L 190.108389 206.947474 
L 189.617775 206.947474 
L 189.617775 207.096686 
L 188.636545 207.096686 
L 188.636545 207.693531 
L 188.145931 207.693531 
L 188.145931 207.693531 
L 187.655316 207.693531 
L 187.655316 207.842743 
L 184.711629 207.842743 
L 184.711629 208.141166 
L 183.730399 208.141166 
L 183.730399 208.5888 
L 183.239785 208.5888 
L 183.239785 208.887223 
L 182.74917 208.887223 
L 182.74917 209.782491 
L 182.258555 209.782491 
L 182.258555 210.230126 
L 181.767941 210.230126 
L 181.767941 211.125394 
L 181.277326 211.125394 
L 181.277326 211.573029 
L 180.296097 211.573029 
L 180.296097 211.72224 
L 178.333639 211.72224 
L 178.333639 211.871451 
L 177.843024 211.871451 
L 177.843024 212.169874 
L 176.37118 212.169874 
L 176.37118 212.169874 
L 174.408722 212.169874 
L 174.408722 212.468297 
L 173.918107 212.468297 
L 173.918107 212.617509 
L 173.427493 212.617509 
L 173.427493 212.76672 
L 172.446263 212.76672 
L 172.446263 213.214354 
L 171.955649 213.214354 
L 171.955649 213.214354 
L 171.465034 213.214354 
L 171.465034 213.512777 
L 170.97442 213.512777 
L 170.97442 214.258834 
L 169.99319 214.258834 
L 169.99319 214.557257 
L 169.011961 214.557257 
L 169.011961 214.557257 
L 168.030732 214.557257 
L 168.030732 214.706469 
L 167.540117 214.706469 
L 167.540117 214.85568 
L 167.049503 214.85568 
L 167.049503 215.154103 
L 166.558888 215.154103 
L 166.558888 215.303314 
L 166.068273 215.303314 
L 166.068273 215.452526 
L 165.577659 215.452526 
L 165.577659 215.750949 
L 165.087044 215.750949 
L 165.087044 215.750949 
L 164.59643 215.750949 
L 164.59643 215.90016 
L 160.671513 215.90016 
L 160.671513 215.90016 
L 160.180898 215.90016 
L 160.180898 216.198583 
L 159.690284 216.198583 
L 159.690284 216.347794 
L 159.199669 216.347794 
L 159.199669 216.497006 
L 158.709054 216.497006 
L 158.709054 216.646217 
L 158.21844 216.646217 
L 158.21844 216.94464 
L 157.237211 216.94464 
L 157.237211 216.94464 
L 156.746596 216.94464 
L 156.746596 217.243063 
L 155.765367 217.243063 
L 155.765367 217.541486 
L 154.784137 217.541486 
L 154.784137 217.98912 
L 153.802908 217.98912 
L 153.802908 218.287543 
L 151.84045 218.287543 
L 151.84045 218.287543 
L 149.877991 218.287543 
L 149.877991 218.436754 
L 148.896762 218.436754 
L 148.896762 218.735177 
L 148.406148 218.735177 
L 148.406148 218.884389 
L 147.915533 218.884389 
L 147.915533 219.182811 
L 147.424918 219.182811 
L 147.424918 219.481234 
L 146.934304 219.481234 
L 146.934304 219.779657 
L 146.443689 219.779657 
L 146.443689 219.928869 
L 145.46246 219.928869 
L 145.46246 220.227291 
L 144.971845 220.227291 
L 144.971845 220.525714 
L 144.481231 220.525714 
L 144.481231 220.973349 
L 143.990616 220.973349 
L 143.990616 221.271771 
L 143.500002 221.271771 
L 143.500002 221.570194 
L 143.009387 221.570194 
L 143.009387 221.719406 
L 142.518772 221.719406 
L 142.518772 222.316251 
L 142.028158 222.316251 
L 142.028158 222.465463 
L 141.537543 222.465463 
L 141.537543 222.763886 
L 137.612626 222.763886 
L 137.612626 223.509943 
L 137.122012 223.509943 
L 137.122012 223.659154 
L 135.159553 223.659154 
L 135.159553 224.256 
L 133.687709 224.256 
L 133.687709 224.554423 
L 133.197095 224.554423 
L 133.197095 225.002057 
L 132.215866 225.002057 
L 132.215866 225.151269 
L 131.725251 225.151269 
L 131.725251 225.30048 
L 130.744022 225.30048 
L 130.744022 225.449691 
L 122.403573 225.449691 
L 122.403573 225.598903 
L 120.441115 225.598903 
L 120.441115 225.748114 
L 119.9505 225.748114 
L 119.9505 226.046537 
L 119.459886 226.046537 
L 119.459886 226.195749 
L 118.969271 226.195749 
L 118.969271 226.34496 
L 117.988042 226.34496 
L 117.988042 226.643383 
L 113.57251 226.643383 
L 113.57251 227.240229 
L 113.081896 227.240229 
L 113.081896 227.38944 
L 112.591281 227.38944 
L 112.591281 227.538651 
L 112.100667 227.538651 
L 112.100667 227.687863 
L 111.610052 227.687863 
L 111.610052 227.837074 
L 111.119437 227.837074 
L 111.119437 227.837074 
L 110.628823 227.837074 
L 110.628823 228.135497 
L 110.138208 228.135497 
L 110.138208 228.43392 
L 109.647594 228.43392 
L 109.647594 228.732343 
L 109.156979 228.732343 
L 109.156979 229.179977 
L 108.666364 229.179977 
L 108.666364 229.627611 
L 108.17575 229.627611 
L 108.17575 229.926034 
L 107.194521 229.926034 
L 107.194521 230.224457 
L 106.703906 230.224457 
L 106.703906 230.373669 
L 106.213291 230.373669 
L 106.213291 230.52288 
L 104.741448 230.52288 
L 104.741448 230.672091 
L 101.79776 230.672091 
L 101.79776 231.119726 
L 101.307145 231.119726 
L 101.307145 231.268937 
L 100.816531 231.268937 
L 100.816531 231.418149 
L 100.325916 231.418149 
L 100.325916 231.716571 
L 99.835301 231.716571 
L 99.835301 232.014994 
L 99.344687 232.014994 
L 99.344687 232.61184 
L 98.854072 232.61184 
L 98.854072 232.910263 
L 98.363458 232.910263 
L 98.363458 233.65632 
L 97.872843 233.65632 
L 97.872843 234.103954 
L 97.382228 234.103954 
L 97.382228 234.850011 
L 96.891614 234.850011 
L 96.891614 234.999223 
L 96.400999 234.999223 
L 96.400999 235.297646 
L 95.910385 235.297646 
L 95.910385 236.043703 
L 95.41977 236.043703 
L 95.41977 236.342126 
L 94.929155 236.342126 
L 94.929155 236.640549 
L 94.438541 236.640549 
L 94.438541 236.78976 
L 93.947926 236.78976 
L 93.947926 237.088183 
L 93.457312 237.088183 
L 93.457312 237.237394 
L 90.023009 237.237394 
L 90.023009 237.386606 
L 89.532395 237.386606 
L 89.532395 237.685029 
L 89.04178 237.685029 
L 89.04178 238.281874 
L 88.060551 238.281874 
L 88.060551 238.87872 
L 87.079322 238.87872 
L 87.079322 239.326354 
L 86.588707 239.326354 
L 86.588707 239.773989 
L 86.098092 239.773989 
L 86.098092 239.773989 
L 85.607478 239.773989 
L 85.607478 240.370834 
L 85.116863 240.370834 
L 85.116863 241.713737 
L 84.626249 241.713737 
L 84.626249 242.310583 
L 84.135634 242.310583 
L 84.135634 243.205851 
L 83.645019 243.205851 
L 83.645019 244.250331 
L 83.154405 244.250331 
L 83.154405 244.548754 
L 82.66379 244.548754 
L 82.66379 245.1456 
L 81.682561 245.1456 
L 81.682561 245.444023 
L 81.191946 245.444023 
L 81.191946 245.593234 
L 80.701332 245.593234 
L 80.701332 245.742446 
L 80.210717 245.742446 
L 80.210717 245.742446 
L 79.720103 245.742446 
L 79.720103 246.040869 
L 79.229488 246.040869 
L 79.229488 246.19008 
L 78.738873 246.19008 
L 78.738873 246.339291 
L 78.248259 246.339291 
L 78.248259 247.532983 
L 77.757644 247.532983 
L 77.757644 249.025097 
L 77.26703 249.025097 
L 77.26703 252.009326 
L 76.776415 252.009326 
L 76.776415 254.396709 
L 76.2858 254.396709 
L 76.2858 257.380937 
L 75.795186 257.380937 
L 75.795186 261.708069 
L 75.304571 261.708069 
L 75.304571 269.019429 
L 74.813956 269.019429 
L 74.813956 273.794194 
L 74.323342 273.794194 
L 74.323342 275.584731 
L 73.832727 275.584731 
L 73.832727 276.48 
L 73.832727 276.48 
z
" clip-path="url(#pf01ab0f75b)" style="fill: #fa448c; fill-opacity: 0.8"/>
   </g>
   <g id="PolyCollection_2">
    <path d="M 73.832727 276.48 
L 73.832727 276.48 
L 73.832727 276.48 
L 73.832727 275.584731 
L 74.323342 275.584731 
L 74.323342 273.794194 
L 74.813956 273.794194 
L 74.813956 269.019429 
L 75.304571 269.019429 
L 75.304571 261.708069 
L 75.795186 261.708069 
L 75.795186 257.380937 
L 76.2858 257.380937 
L 76.2858 254.396709 
L 76.776415 254.396709 
L 76.776415 252.009326 
L 77.26703 252.009326 
L 77.26703 249.025097 
L 77.757644 249.025097 
L 77.757644 247.532983 
L 78.248259 247.532983 
L 78.248259 246.339291 
L 78.738873 246.339291 
L 78.738873 246.19008 
L 79.229488 246.19008 
L 79.229488 246.040869 
L 79.720103 246.040869 
L 79.720103 245.742446 
L 80.210717 245.742446 
L 80.210717 245.742446 
L 80.701332 245.742446 
L 80.701332 245.593234 
L 81.191946 245.593234 
L 81.191946 245.444023 
L 81.682561 245.444023 
L 81.682561 245.1456 
L 82.66379 245.1456 
L 82.66379 244.548754 
L 83.154405 244.548754 
L 83.154405 244.250331 
L 83.645019 244.250331 
L 83.645019 243.205851 
L 84.135634 243.205851 
L 84.135634 242.310583 
L 84.626249 242.310583 
L 84.626249 241.713737 
L 85.116863 241.713737 
L 85.116863 240.370834 
L 85.607478 240.370834 
L 85.607478 239.773989 
L 86.098092 239.773989 
L 86.098092 239.773989 
L 86.588707 239.773989 
L 86.588707 239.326354 
L 87.079322 239.326354 
L 87.079322 238.87872 
L 88.060551 238.87872 
L 88.060551 238.281874 
L 89.04178 238.281874 
L 89.04178 237.685029 
L 89.532395 237.685029 
L 89.532395 237.386606 
L 90.023009 237.386606 
L 90.023009 237.237394 
L 93.457312 237.237394 
L 93.457312 237.088183 
L 93.947926 237.088183 
L 93.947926 236.78976 
L 94.438541 236.78976 
L 94.438541 236.640549 
L 94.929155 236.640549 
L 94.929155 236.342126 
L 95.41977 236.342126 
L 95.41977 236.043703 
L 95.910385 236.043703 
L 95.910385 235.297646 
L 96.400999 235.297646 
L 96.400999 234.999223 
L 96.891614 234.999223 
L 96.891614 234.850011 
L 97.382228 234.850011 
L 97.382228 234.103954 
L 97.872843 234.103954 
L 97.872843 233.65632 
L 98.363458 233.65632 
L 98.363458 232.910263 
L 98.854072 232.910263 
L 98.854072 232.61184 
L 99.344687 232.61184 
L 99.344687 232.014994 
L 99.835301 232.014994 
L 99.835301 231.716571 
L 100.325916 231.716571 
L 100.325916 231.418149 
L 100.816531 231.418149 
L 100.816531 231.268937 
L 101.307145 231.268937 
L 101.307145 231.119726 
L 101.79776 231.119726 
L 101.79776 230.672091 
L 104.741448 230.672091 
L 104.741448 230.52288 
L 106.213291 230.52288 
L 106.213291 230.373669 
L 106.703906 230.373669 
L 106.703906 230.224457 
L 107.194521 230.224457 
L 107.194521 229.926034 
L 108.17575 229.926034 
L 108.17575 229.627611 
L 108.666364 229.627611 
L 108.666364 229.179977 
L 109.156979 229.179977 
L 109.156979 228.732343 
L 109.647594 228.732343 
L 109.647594 228.43392 
L 110.138208 228.43392 
L 110.138208 228.135497 
L 110.628823 228.135497 
L 110.628823 227.837074 
L 111.119437 227.837074 
L 111.119437 227.837074 
L 111.610052 227.837074 
L 111.610052 227.687863 
L 112.100667 227.687863 
L 112.100667 227.538651 
L 112.591281 227.538651 
L 112.591281 227.38944 
L 113.081896 227.38944 
L 113.081896 227.240229 
L 113.57251 227.240229 
L 113.57251 226.643383 
L 117.988042 226.643383 
L 117.988042 226.34496 
L 118.969271 226.34496 
L 118.969271 226.195749 
L 119.459886 226.195749 
L 119.459886 226.046537 
L 119.9505 226.046537 
L 119.9505 225.748114 
L 120.441115 225.748114 
L 120.441115 225.598903 
L 122.403573 225.598903 
L 122.403573 225.449691 
L 130.744022 225.449691 
L 130.744022 225.30048 
L 131.725251 225.30048 
L 131.725251 225.151269 
L 132.215866 225.151269 
L 132.215866 225.002057 
L 133.197095 225.002057 
L 133.197095 224.554423 
L 133.687709 224.554423 
L 133.687709 224.256 
L 135.159553 224.256 
L 135.159553 223.659154 
L 137.122012 223.659154 
L 137.122012 223.509943 
L 137.612626 223.509943 
L 137.612626 222.763886 
L 141.537543 222.763886 
L 141.537543 222.465463 
L 142.028158 222.465463 
L 142.028158 222.316251 
L 142.518772 222.316251 
L 142.518772 221.719406 
L 143.009387 221.719406 
L 143.009387 221.570194 
L 143.500002 221.570194 
L 143.500002 221.271771 
L 143.990616 221.271771 
L 143.990616 220.973349 
L 144.481231 220.973349 
L 144.481231 220.525714 
L 144.971845 220.525714 
L 144.971845 220.227291 
L 145.46246 220.227291 
L 145.46246 219.928869 
L 146.443689 219.928869 
L 146.443689 219.779657 
L 146.934304 219.779657 
L 146.934304 219.481234 
L 147.424918 219.481234 
L 147.424918 219.182811 
L 147.915533 219.182811 
L 147.915533 218.884389 
L 148.406148 218.884389 
L 148.406148 218.735177 
L 148.896762 218.735177 
L 148.896762 218.436754 
L 149.877991 218.436754 
L 149.877991 218.287543 
L 151.84045 218.287543 
L 151.84045 218.287543 
L 153.802908 218.287543 
L 153.802908 217.98912 
L 154.784137 217.98912 
L 154.784137 217.541486 
L 155.765367 217.541486 
L 155.765367 217.243063 
L 156.746596 217.243063 
L 156.746596 216.94464 
L 157.237211 216.94464 
L 157.237211 216.94464 
L 158.21844 216.94464 
L 158.21844 216.646217 
L 158.709054 216.646217 
L 158.709054 216.497006 
L 159.199669 216.497006 
L 159.199669 216.347794 
L 159.690284 216.347794 
L 159.690284 216.198583 
L 160.180898 216.198583 
L 160.180898 215.90016 
L 160.671513 215.90016 
L 160.671513 215.90016 
L 164.59643 215.90016 
L 164.59643 215.750949 
L 165.087044 215.750949 
L 165.087044 215.750949 
L 165.577659 215.750949 
L 165.577659 215.452526 
L 166.068273 215.452526 
L 166.068273 215.303314 
L 166.558888 215.303314 
L 166.558888 215.154103 
L 167.049503 215.154103 
L 167.049503 214.85568 
L 167.540117 214.85568 
L 167.540117 214.706469 
L 168.030732 214.706469 
L 168.030732 214.557257 
L 169.011961 214.557257 
L 169.011961 214.557257 
L 169.99319 214.557257 
L 169.99319 214.258834 
L 170.97442 214.258834 
L 170.97442 213.512777 
L 171.465034 213.512777 
L 171.465034 213.214354 
L 171.955649 213.214354 
L 171.955649 213.214354 
L 172.446263 213.214354 
L 172.446263 212.76672 
L 173.427493 212.76672 
L 173.427493 212.617509 
L 173.918107 212.617509 
L 173.918107 212.468297 
L 174.408722 212.468297 
L 174.408722 212.169874 
L 176.37118 212.169874 
L 176.37118 212.169874 
L 177.843024 212.169874 
L 177.843024 211.871451 
L 178.333639 211.871451 
L 178.333639 211.72224 
L 180.296097 211.72224 
L 180.296097 211.573029 
L 181.277326 211.573029 
L 181.277326 211.125394 
L 181.767941 211.125394 
L 181.767941 210.230126 
L 182.258555 210.230126 
L 182.258555 209.782491 
L 182.74917 209.782491 
L 182.74917 208.887223 
L 183.239785 208.887223 
L 183.239785 208.5888 
L 183.730399 208.5888 
L 183.730399 208.141166 
L 184.711629 208.141166 
L 184.711629 207.842743 
L 187.655316 207.842743 
L 187.655316 207.693531 
L 188.145931 207.693531 
L 188.145931 207.693531 
L 188.636545 207.693531 
L 188.636545 207.096686 
L 189.617775 207.096686 
L 189.617775 206.947474 
L 190.108389 206.947474 
L 190.108389 206.649051 
L 191.089618 206.649051 
L 191.089618 205.156937 
L 191.580233 205.156937 
L 191.580233 204.858514 
L 193.052077 204.858514 
L 193.052077 204.709303 
L 193.542691 204.709303 
L 193.542691 204.41088 
L 194.523921 204.41088 
L 194.523921 204.41088 
L 195.014535 204.41088 
L 195.014535 203.963246 
L 195.50515 203.963246 
L 195.50515 203.664823 
L 195.995765 203.664823 
L 195.995765 203.664823 
L 196.486379 203.664823 
L 196.486379 203.3664 
L 201.392525 203.3664 
L 201.392525 203.217189 
L 202.373754 203.217189 
L 202.373754 203.067977 
L 202.864369 203.067977 
L 202.864369 202.620343 
L 204.336213 202.620343 
L 204.336213 202.471131 
L 204.826827 202.471131 
L 204.826827 202.172709 
L 205.317442 202.172709 
L 205.317442 202.023497 
L 206.789286 202.023497 
L 206.789286 202.023497 
L 207.2799 202.023497 
L 207.2799 202.023497 
L 212.186047 202.023497 
L 212.186047 202.023497 
L 213.167276 202.023497 
L 213.167276 202.023497 
L 214.148505 202.023497 
L 214.148505 202.023497 
L 214.63912 202.023497 
L 214.63912 202.023497 
L 215.129734 202.023497 
L 215.129734 202.023497 
L 215.620349 202.023497 
L 215.620349 202.023497 
L 216.110963 202.023497 
L 216.110963 202.023497 
L 217.092193 202.023497 
L 217.092193 202.023497 
L 218.073422 202.023497 
L 218.073422 202.023497 
L 219.054651 202.023497 
L 219.054651 202.023497 
L 219.545266 202.023497 
L 219.545266 202.023497 
L 220.03588 202.023497 
L 220.03588 202.023497 
L 223.960797 202.023497 
L 223.960797 202.023497 
L 225.432641 202.023497 
L 225.432641 202.023497 
L 225.923256 202.023497 
L 225.923256 202.023497 
L 227.395099 202.023497 
L 227.395099 202.023497 
L 228.376329 202.023497 
L 228.376329 202.023497 
L 228.866943 202.023497 
L 228.866943 202.023497 
L 229.357558 202.023497 
L 229.357558 202.023497 
L 229.848172 202.023497 
L 229.848172 202.023497 
L 230.829402 202.023497 
L 230.829402 202.023497 
L 235.244933 202.023497 
L 235.244933 202.023497 
L 237.698006 202.023497 
L 237.698006 202.023497 
L 238.188621 202.023497 
L 238.188621 202.023497 
L 239.660465 202.023497 
L 239.660465 202.023497 
L 240.641694 202.023497 
L 240.641694 202.023497 
L 241.132308 202.023497 
L 241.132308 202.023497 
L 241.622923 202.023497 
L 241.622923 202.023497 
L 242.113538 202.023497 
L 242.113538 202.023497 
L 242.604152 202.023497 
L 242.604152 202.023497 
L 243.094767 202.023497 
L 243.094767 202.023497 
L 247.019684 202.023497 
L 247.019684 202.023497 
L 248.000913 202.023497 
L 248.000913 202.023497 
L 248.491527 202.023497 
L 248.491527 202.023497 
L 248.982142 202.023497 
L 248.982142 202.023497 
L 249.472757 202.023497 
L 249.472757 202.023497 
L 249.963371 202.023497 
L 249.963371 202.023497 
L 250.453986 202.023497 
L 250.453986 202.023497 
L 250.944601 202.023497 
L 250.944601 202.023497 
L 251.435215 202.023497 
L 251.435215 202.023497 
L 252.416444 202.023497 
L 252.416444 202.023497 
L 258.794434 202.023497 
L 258.794434 202.023497 
L 260.756893 202.023497 
L 260.756893 202.023497 
L 261.738122 202.023497 
L 261.738122 202.023497 
L 262.228736 202.023497 
L 262.228736 202.023497 
L 263.70058 202.023497 
L 263.70058 202.023497 
L 264.191195 202.023497 
L 264.191195 202.023497 
L 264.68181 202.023497 
L 264.68181 202.023497 
L 266.153653 202.023497 
L 266.153653 202.023497 
L 267.625497 202.023497 
L 267.625497 202.023497 
L 271.059799 202.023497 
L 271.059799 202.023497 
L 271.550414 202.023497 
L 271.550414 202.023497 
L 272.041029 202.023497 
L 272.041029 202.023497 
L 272.531643 202.023497 
L 272.531643 202.023497 
L 273.022258 202.023497 
L 273.022258 202.023497 
L 274.494102 202.023497 
L 274.494102 202.023497 
L 275.965945 202.023497 
L 275.965945 202.023497 
L 277.437789 202.023497 
L 277.437789 202.023497 
L 285.287623 202.023497 
L 285.287623 202.023497 
L 287.250081 202.023497 
L 287.250081 202.023497 
L 287.740696 202.023497 
L 287.740696 202.023497 
L 296.571759 202.023497 
L 296.571759 202.023497 
L 297.062374 202.023497 
L 297.062374 202.023497 
L 297.552988 202.023497 
L 297.552988 202.023497 
L 298.534217 202.023497 
L 298.534217 202.023497 
L 299.024832 202.023497 
L 299.024832 202.023497 
L 299.515447 202.023497 
L 299.515447 202.023497 
L 300.496676 202.023497 
L 300.496676 202.023497 
L 304.912207 202.023497 
L 304.912207 202.023497 
L 305.893437 202.023497 
L 305.893437 202.023497 
L 307.36528 202.023497 
L 307.36528 202.023497 
L 308.34651 202.023497 
L 308.34651 202.023497 
L 310.308968 202.023497 
L 310.308968 202.023497 
L 313.252656 202.023497 
L 313.252656 202.023497 
L 319.630646 202.023497 
L 319.630646 202.023497 
L 320.12126 202.023497 
L 320.12126 202.023497 
L 321.593104 202.023497 
L 321.593104 202.023497 
L 322.574333 202.023497 
L 322.574333 202.023497 
L 323.064948 202.023497 
L 323.064948 202.023497 
L 324.046177 202.023497 
L 324.046177 202.023497 
L 328.461708 202.023497 
L 328.461708 202.023497 
L 329.933552 202.023497 
L 329.933552 202.023497 
L 330.914782 202.023497 
L 330.914782 202.023497 
L 331.405396 202.023497 
L 331.405396 202.023497 
L 331.896011 202.023497 
L 331.896011 202.023497 
L 333.858469 202.023497 
L 333.858469 202.023497 
L 335.330313 202.023497 
L 335.330313 202.023497 
L 335.820928 202.023497 
L 335.820928 202.023497 
L 336.311542 202.023497 
L 336.311542 202.023497 
L 336.802157 202.023497 
L 336.802157 202.023497 
L 341.708303 202.023497 
L 341.708303 202.023497 
L 342.689532 202.023497 
L 342.689532 202.023497 
L 345.142605 202.023497 
L 345.142605 202.023497 
L 347.595678 202.023497 
L 347.595678 202.023497 
L 348.086293 202.023497 
L 348.086293 202.023497 
L 348.576907 202.023497 
L 348.576907 202.023497 
L 349.558137 202.023497 
L 349.558137 202.023497 
L 352.01121 202.023497 
L 352.01121 202.023497 
L 352.992439 202.023497 
L 352.992439 202.023497 
L 354.954897 202.023497 
L 354.954897 202.023497 
L 358.879814 202.023497 
L 358.879814 202.023497 
L 360.842273 202.023497 
L 360.842273 202.023497 
L 363.730683 202.023497 
L 363.730683 200.083749 
L 363.931812 200.083749 
L 363.931812 200.083749 
L 364.107337 200.083749 
L 364.107337 200.083749 
L 364.455344 200.083749 
L 364.455344 200.083749 
L 364.676039 200.083749 
L 364.676039 200.083749 
L 364.907656 200.083749 
L 364.907656 200.083749 
L 365.081114 200.083749 
L 365.081114 200.083749 
L 365.43886 200.083749 
L 365.43886 200.083749 
L 365.63389 200.083749 
L 365.63389 200.083749 
L 365.896433 200.083749 
L 365.896433 200.083749 
L 366.089342 200.083749 
L 366.089342 200.083749 
L 366.39646 200.083749 
L 366.39646 200.083749 
L 366.589589 200.083749 
L 366.589589 200.083749 
L 366.849645 200.083749 
L 366.849645 200.083749 
L 367.031655 200.083749 
L 367.031655 200.083749 
L 367.457729 200.083749 
L 367.457729 200.083749 
L 367.734313 200.083749 
L 367.734313 200.083749 
L 368.052887 200.083749 
L 368.052887 200.083749 
L 368.07713 200.083749 
L 368.07713 200.083749 
L 368.091412 200.083749 
L 368.091412 200.083749 
L 368.333672 200.083749 
L 368.333672 200.083749 
L 368.518806 200.083749 
L 368.518806 200.083749 
L 368.844113 200.083749 
L 368.844113 200.083749 
L 369.054415 200.083749 
L 369.054415 200.083749 
L 369.408421 200.083749 
L 369.408421 200.083749 
L 370.108047 200.083749 
L 370.108047 200.083749 
L 370.1283 200.083749 
L 370.1283 200.083749 
L 370.153327 200.083749 
L 370.153327 200.083749 
L 370.337176 200.083749 
L 370.337176 200.083749 
L 370.54522 200.083749 
L 370.54522 200.083749 
L 370.771165 200.083749 
L 370.771165 200.083749 
L 370.957355 200.083749 
L 370.957355 200.083749 
L 371.299088 200.083749 
L 371.299088 200.083749 
L 371.75962 200.083749 
L 371.75962 200.083749 
L 377.209736 200.083749 
L 377.209736 200.083749 
L 378.623637 200.083749 
L 378.623637 200.083749 
L 379.828637 200.083749 
L 379.828637 200.083749 
L 380.108255 200.083749 
L 380.108255 200.083749 
L 381.479879 200.083749 
L 381.479879 200.083749 
L 381.827676 200.083749 
L 381.827676 200.083749 
L 382.108689 200.083749 
L 382.108689 200.083749 
L 382.54736 200.083749 
L 382.54736 200.083749 
L 389.956573 200.083749 
L 389.956573 200.083749 
L 392.97008 200.083749 
L 392.97008 200.083749 
L 395.040449 200.083749 
L 395.040449 200.083749 
L 395.314898 200.083749 
L 395.314898 200.083749 
L 396.317319 200.083749 
L 396.317319 200.083749 
L 397.180528 200.083749 
L 397.180528 200.083749 
L 398.487273 200.083749 
L 398.487273 200.083749 
L 398.487273 147.859749 
L 398.487273 147.859749 
L 398.487273 147.859749 
L 397.180528 147.859749 
L 397.180528 148.00896 
L 396.317319 148.00896 
L 396.317319 146.367634 
L 395.314898 146.367634 
L 395.314898 146.815269 
L 395.040449 146.815269 
L 395.040449 146.96448 
L 392.97008 146.96448 
L 392.97008 147.113691 
L 389.956573 147.113691 
L 389.956573 147.262903 
L 382.54736 147.262903 
L 382.54736 147.561326 
L 382.108689 147.561326 
L 382.108689 147.710537 
L 381.827676 147.710537 
L 381.827676 148.00896 
L 381.479879 148.00896 
L 381.479879 148.158171 
L 380.108255 148.158171 
L 380.108255 148.307383 
L 379.828637 148.307383 
L 379.828637 148.456594 
L 378.623637 148.456594 
L 378.623637 148.605806 
L 377.209736 148.605806 
L 377.209736 148.755017 
L 371.75962 148.755017 
L 371.75962 149.05344 
L 371.299088 149.05344 
L 371.299088 149.202651 
L 370.957355 149.202651 
L 370.957355 149.202651 
L 370.771165 149.202651 
L 370.771165 149.202651 
L 370.54522 149.202651 
L 370.54522 149.202651 
L 370.337176 149.202651 
L 370.337176 149.202651 
L 370.153327 149.202651 
L 370.153327 149.202651 
L 370.1283 149.202651 
L 370.1283 149.202651 
L 370.108047 149.202651 
L 370.108047 149.202651 
L 369.408421 149.202651 
L 369.408421 149.202651 
L 369.054415 149.202651 
L 369.054415 149.202651 
L 368.844113 149.202651 
L 368.844113 149.202651 
L 368.518806 149.202651 
L 368.518806 149.202651 
L 368.333672 149.202651 
L 368.333672 149.202651 
L 368.091412 149.202651 
L 368.091412 149.202651 
L 368.07713 149.202651 
L 368.07713 149.202651 
L 368.052887 149.202651 
L 368.052887 149.202651 
L 367.734313 149.202651 
L 367.734313 149.501074 
L 367.457729 149.501074 
L 367.457729 149.650286 
L 367.031655 149.650286 
L 367.031655 149.650286 
L 366.849645 149.650286 
L 366.849645 150.247131 
L 366.589589 150.247131 
L 366.589589 150.396343 
L 366.39646 150.396343 
L 366.39646 150.396343 
L 366.089342 150.396343 
L 366.089342 150.396343 
L 365.896433 150.396343 
L 365.896433 150.396343 
L 365.63389 150.396343 
L 365.63389 150.396343 
L 365.43886 150.396343 
L 365.43886 150.396343 
L 365.081114 150.396343 
L 365.081114 150.396343 
L 364.907656 150.396343 
L 364.907656 150.396343 
L 364.676039 150.396343 
L 364.676039 150.396343 
L 364.455344 150.396343 
L 364.455344 150.396343 
L 364.107337 150.396343 
L 364.107337 150.396343 
L 363.931812 150.396343 
L 363.931812 150.396343 
L 363.730683 150.396343 
L 363.730683 153.828206 
L 360.842273 153.828206 
L 360.842273 153.977417 
L 358.879814 153.977417 
L 358.879814 153.977417 
L 354.954897 153.977417 
L 354.954897 154.126629 
L 352.992439 154.126629 
L 352.992439 154.27584 
L 352.01121 154.27584 
L 352.01121 154.425051 
L 349.558137 154.425051 
L 349.558137 154.872686 
L 348.576907 154.872686 
L 348.576907 154.872686 
L 348.086293 154.872686 
L 348.086293 155.171109 
L 347.595678 155.171109 
L 347.595678 156.514011 
L 345.142605 156.514011 
L 345.142605 156.961646 
L 342.689532 156.961646 
L 342.689532 157.110857 
L 341.708303 157.110857 
L 341.708303 157.260069 
L 336.802157 157.260069 
L 336.802157 157.707703 
L 336.311542 157.707703 
L 336.311542 158.155337 
L 335.820928 158.155337 
L 335.820928 158.45376 
L 335.330313 158.45376 
L 335.330313 158.602971 
L 333.858469 158.602971 
L 333.858469 158.752183 
L 331.896011 158.752183 
L 331.896011 158.752183 
L 331.405396 158.752183 
L 331.405396 158.901394 
L 330.914782 158.901394 
L 330.914782 159.050606 
L 329.933552 159.050606 
L 329.933552 159.199817 
L 328.461708 159.199817 
L 328.461708 159.349029 
L 324.046177 159.349029 
L 324.046177 159.49824 
L 323.064948 159.49824 
L 323.064948 159.796663 
L 322.574333 159.796663 
L 322.574333 160.095086 
L 321.593104 160.095086 
L 321.593104 160.54272 
L 320.12126 160.54272 
L 320.12126 160.691931 
L 319.630646 160.691931 
L 319.630646 160.691931 
L 313.252656 160.691931 
L 313.252656 160.841143 
L 310.308968 160.841143 
L 310.308968 160.990354 
L 308.34651 160.990354 
L 308.34651 161.288777 
L 307.36528 161.288777 
L 307.36528 161.288777 
L 305.893437 161.288777 
L 305.893437 161.5872 
L 304.912207 161.5872 
L 304.912207 161.5872 
L 300.496676 161.5872 
L 300.496676 161.885623 
L 299.515447 161.885623 
L 299.515447 162.034834 
L 299.024832 162.034834 
L 299.024832 162.333257 
L 298.534217 162.333257 
L 298.534217 162.333257 
L 297.552988 162.333257 
L 297.552988 162.333257 
L 297.062374 162.333257 
L 297.062374 162.780891 
L 296.571759 162.780891 
L 296.571759 162.780891 
L 287.740696 162.780891 
L 287.740696 162.930103 
L 287.250081 162.930103 
L 287.250081 163.079314 
L 285.287623 163.079314 
L 285.287623 163.228526 
L 277.437789 163.228526 
L 277.437789 163.377737 
L 275.965945 163.377737 
L 275.965945 163.526949 
L 274.494102 163.526949 
L 274.494102 163.974583 
L 273.022258 163.974583 
L 273.022258 164.72064 
L 272.531643 164.72064 
L 272.531643 165.019063 
L 272.041029 165.019063 
L 272.041029 165.168274 
L 271.550414 165.168274 
L 271.550414 165.168274 
L 271.059799 165.168274 
L 271.059799 165.317486 
L 267.625497 165.317486 
L 267.625497 165.317486 
L 266.153653 165.317486 
L 266.153653 165.914331 
L 264.68181 165.914331 
L 264.68181 166.063543 
L 264.191195 166.063543 
L 264.191195 166.511177 
L 263.70058 166.511177 
L 263.70058 166.660389 
L 262.228736 166.660389 
L 262.228736 166.8096 
L 261.738122 166.8096 
L 261.738122 167.108023 
L 260.756893 167.108023 
L 260.756893 167.108023 
L 258.794434 167.108023 
L 258.794434 167.406446 
L 252.416444 167.406446 
L 252.416444 167.406446 
L 251.435215 167.406446 
L 251.435215 167.555657 
L 250.944601 167.555657 
L 250.944601 167.704869 
L 250.453986 167.704869 
L 250.453986 167.85408 
L 249.963371 167.85408 
L 249.963371 168.003291 
L 249.472757 168.003291 
L 249.472757 168.152503 
L 248.982142 168.152503 
L 248.982142 168.450926 
L 248.491527 168.450926 
L 248.491527 169.495406 
L 248.000913 169.495406 
L 248.000913 170.092251 
L 247.019684 170.092251 
L 247.019684 170.539886 
L 243.094767 170.539886 
L 243.094767 170.689097 
L 242.604152 170.689097 
L 242.604152 170.838309 
L 242.113538 170.838309 
L 242.113538 171.136731 
L 241.622923 171.136731 
L 241.622923 171.584366 
L 241.132308 171.584366 
L 241.132308 172.181211 
L 240.641694 172.181211 
L 240.641694 172.927269 
L 239.660465 172.927269 
L 239.660465 173.374903 
L 238.188621 173.374903 
L 238.188621 173.524114 
L 237.698006 173.524114 
L 237.698006 173.822537 
L 235.244933 173.822537 
L 235.244933 173.971749 
L 230.829402 173.971749 
L 230.829402 174.12096 
L 229.848172 174.12096 
L 229.848172 174.270171 
L 229.357558 174.270171 
L 229.357558 174.419383 
L 228.866943 174.419383 
L 228.866943 174.568594 
L 228.376329 174.568594 
L 228.376329 174.867017 
L 227.395099 174.867017 
L 227.395099 175.463863 
L 225.923256 175.463863 
L 225.923256 175.613074 
L 225.432641 175.613074 
L 225.432641 175.762286 
L 223.960797 175.762286 
L 223.960797 176.060709 
L 220.03588 176.060709 
L 220.03588 176.20992 
L 219.545266 176.20992 
L 219.545266 176.359131 
L 219.054651 176.359131 
L 219.054651 176.359131 
L 218.073422 176.359131 
L 218.073422 176.508343 
L 217.092193 176.508343 
L 217.092193 176.657554 
L 216.110963 176.657554 
L 216.110963 177.2544 
L 215.620349 177.2544 
L 215.620349 177.851246 
L 215.129734 177.851246 
L 215.129734 178.149669 
L 214.63912 178.149669 
L 214.63912 178.448091 
L 214.148505 178.448091 
L 214.148505 178.746514 
L 213.167276 178.746514 
L 213.167276 179.044937 
L 212.186047 179.044937 
L 212.186047 179.194149 
L 207.2799 179.194149 
L 207.2799 179.492571 
L 206.789286 179.492571 
L 206.789286 179.940206 
L 205.317442 179.940206 
L 205.317442 180.089417 
L 204.826827 180.089417 
L 204.826827 180.537051 
L 204.336213 180.537051 
L 204.336213 180.686263 
L 202.864369 180.686263 
L 202.864369 181.133897 
L 202.373754 181.133897 
L 202.373754 181.283109 
L 201.392525 181.283109 
L 201.392525 181.43232 
L 196.486379 181.43232 
L 196.486379 182.029166 
L 195.995765 182.029166 
L 195.995765 182.029166 
L 195.50515 182.029166 
L 195.50515 182.4768 
L 195.014535 182.4768 
L 195.014535 182.924434 
L 194.523921 182.924434 
L 194.523921 183.073646 
L 193.542691 183.073646 
L 193.542691 183.670491 
L 193.052077 183.670491 
L 193.052077 183.819703 
L 191.580233 183.819703 
L 191.580233 184.118126 
L 191.089618 184.118126 
L 191.089618 185.759451 
L 190.108389 185.759451 
L 190.108389 186.057874 
L 189.617775 186.057874 
L 189.617775 186.207086 
L 188.636545 186.207086 
L 188.636545 186.803931 
L 188.145931 186.803931 
L 188.145931 186.953143 
L 187.655316 186.953143 
L 187.655316 187.102354 
L 184.711629 187.102354 
L 184.711629 187.400777 
L 183.730399 187.400777 
L 183.730399 187.848411 
L 183.239785 187.848411 
L 183.239785 188.445257 
L 182.74917 188.445257 
L 182.74917 189.340526 
L 182.258555 189.340526 
L 182.258555 189.937371 
L 181.767941 189.937371 
L 181.767941 190.83264 
L 181.277326 190.83264 
L 181.277326 192.026331 
L 180.296097 192.026331 
L 180.296097 192.175543 
L 178.333639 192.175543 
L 178.333639 192.324754 
L 177.843024 192.324754 
L 177.843024 192.623177 
L 176.37118 192.623177 
L 176.37118 192.772389 
L 174.408722 192.772389 
L 174.408722 193.070811 
L 173.918107 193.070811 
L 173.918107 193.220023 
L 173.427493 193.220023 
L 173.427493 193.369234 
L 172.446263 193.369234 
L 172.446263 193.816869 
L 171.955649 193.816869 
L 171.955649 194.264503 
L 171.465034 194.264503 
L 171.465034 194.861349 
L 170.97442 194.861349 
L 170.97442 195.607406 
L 169.99319 195.607406 
L 169.99319 195.905829 
L 169.011961 195.905829 
L 169.011961 196.05504 
L 168.030732 196.05504 
L 168.030732 196.204251 
L 167.540117 196.204251 
L 167.540117 196.502674 
L 167.049503 196.502674 
L 167.049503 196.801097 
L 166.558888 196.801097 
L 166.558888 196.950309 
L 166.068273 196.950309 
L 166.068273 197.09952 
L 165.577659 197.09952 
L 165.577659 197.397943 
L 165.087044 197.397943 
L 165.087044 197.547154 
L 164.59643 197.547154 
L 164.59643 197.696366 
L 160.671513 197.696366 
L 160.671513 197.845577 
L 160.180898 197.845577 
L 160.180898 198.144 
L 159.690284 198.144 
L 159.690284 198.293211 
L 159.199669 198.293211 
L 159.199669 198.442423 
L 158.709054 198.442423 
L 158.709054 198.591634 
L 158.21844 198.591634 
L 158.21844 199.337691 
L 157.237211 199.337691 
L 157.237211 199.486903 
L 156.746596 199.486903 
L 156.746596 199.934537 
L 155.765367 199.934537 
L 155.765367 200.23296 
L 154.784137 200.23296 
L 154.784137 200.979017 
L 153.802908 200.979017 
L 153.802908 201.575863 
L 151.84045 201.575863 
L 151.84045 201.874286 
L 149.877991 201.874286 
L 149.877991 202.023497 
L 148.896762 202.023497 
L 148.896762 202.32192 
L 148.406148 202.32192 
L 148.406148 202.620343 
L 147.915533 202.620343 
L 147.915533 203.067977 
L 147.424918 203.067977 
L 147.424918 203.3664 
L 146.934304 203.3664 
L 146.934304 203.814034 
L 146.443689 203.814034 
L 146.443689 203.963246 
L 145.46246 203.963246 
L 145.46246 204.261669 
L 144.971845 204.261669 
L 144.971845 204.560091 
L 144.481231 204.560091 
L 144.481231 205.156937 
L 143.990616 205.156937 
L 143.990616 205.45536 
L 143.500002 205.45536 
L 143.500002 205.753783 
L 143.009387 205.753783 
L 143.009387 205.902994 
L 142.518772 205.902994 
L 142.518772 206.649051 
L 142.028158 206.649051 
L 142.028158 206.798263 
L 141.537543 206.798263 
L 141.537543 207.096686 
L 137.612626 207.096686 
L 137.612626 207.991954 
L 137.122012 207.991954 
L 137.122012 208.141166 
L 135.159553 208.141166 
L 135.159553 209.036434 
L 133.687709 209.036434 
L 133.687709 209.334857 
L 133.197095 209.334857 
L 133.197095 209.931703 
L 132.215866 209.931703 
L 132.215866 210.080914 
L 131.725251 210.080914 
L 131.725251 210.230126 
L 130.744022 210.230126 
L 130.744022 210.379337 
L 122.403573 210.379337 
L 122.403573 210.528549 
L 120.441115 210.528549 
L 120.441115 210.67776 
L 119.9505 210.67776 
L 119.9505 210.976183 
L 119.459886 210.976183 
L 119.459886 211.125394 
L 118.969271 211.125394 
L 118.969271 211.274606 
L 117.988042 211.274606 
L 117.988042 211.573029 
L 113.57251 211.573029 
L 113.57251 212.319086 
L 113.081896 212.319086 
L 113.081896 213.065143 
L 112.591281 213.065143 
L 112.591281 213.214354 
L 112.100667 213.214354 
L 112.100667 213.363566 
L 111.610052 213.363566 
L 111.610052 213.512777 
L 111.119437 213.512777 
L 111.119437 213.661989 
L 110.628823 213.661989 
L 110.628823 214.109623 
L 110.138208 214.109623 
L 110.138208 214.408046 
L 109.647594 214.408046 
L 109.647594 214.85568 
L 109.156979 214.85568 
L 109.156979 215.303314 
L 108.666364 215.303314 
L 108.666364 215.750949 
L 108.17575 215.750949 
L 108.17575 216.049371 
L 107.194521 216.049371 
L 107.194521 216.795429 
L 106.703906 216.795429 
L 106.703906 216.94464 
L 106.213291 216.94464 
L 106.213291 217.093851 
L 104.741448 217.093851 
L 104.741448 217.243063 
L 101.79776 217.243063 
L 101.79776 217.690697 
L 101.307145 217.690697 
L 101.307145 217.98912 
L 100.816531 217.98912 
L 100.816531 218.138331 
L 100.325916 218.138331 
L 100.325916 219.182811 
L 99.835301 219.182811 
L 99.835301 219.481234 
L 99.344687 219.481234 
L 99.344687 220.07808 
L 98.854072 220.07808 
L 98.854072 220.525714 
L 98.363458 220.525714 
L 98.363458 221.420983 
L 97.872843 221.420983 
L 97.872843 221.868617 
L 97.382228 221.868617 
L 97.382228 222.614674 
L 96.891614 222.614674 
L 96.891614 222.763886 
L 96.400999 222.763886 
L 96.400999 223.21152 
L 95.910385 223.21152 
L 95.910385 223.957577 
L 95.41977 223.957577 
L 95.41977 224.256 
L 94.929155 224.256 
L 94.929155 224.554423 
L 94.438541 224.554423 
L 94.438541 224.703634 
L 93.947926 224.703634 
L 93.947926 225.151269 
L 93.457312 225.151269 
L 93.457312 225.30048 
L 90.023009 225.30048 
L 90.023009 225.449691 
L 89.532395 225.449691 
L 89.532395 225.748114 
L 89.04178 225.748114 
L 89.04178 226.34496 
L 88.060551 226.34496 
L 88.060551 226.941806 
L 87.079322 226.941806 
L 87.079322 227.38944 
L 86.588707 227.38944 
L 86.588707 227.986286 
L 86.098092 227.986286 
L 86.098092 228.284709 
L 85.607478 228.284709 
L 85.607478 228.881554 
L 85.116863 228.881554 
L 85.116863 230.373669 
L 84.626249 230.373669 
L 84.626249 231.268937 
L 84.135634 231.268937 
L 84.135634 233.208686 
L 83.645019 233.208686 
L 83.645019 234.253166 
L 83.154405 234.253166 
L 83.154405 235.446857 
L 82.66379 235.446857 
L 82.66379 236.192914 
L 81.682561 236.192914 
L 81.682561 236.938971 
L 81.191946 236.938971 
L 81.191946 237.088183 
L 80.701332 237.088183 
L 80.701332 237.237394 
L 80.210717 237.237394 
L 80.210717 237.386606 
L 79.720103 237.386606 
L 79.720103 237.685029 
L 79.229488 237.685029 
L 79.229488 237.83424 
L 78.738873 237.83424 
L 78.738873 237.983451 
L 78.248259 237.983451 
L 78.248259 239.177143 
L 77.757644 239.177143 
L 77.757644 241.564526 
L 77.26703 241.564526 
L 77.26703 245.593234 
L 76.776415 245.593234 
L 76.776415 248.428251 
L 76.2858 248.428251 
L 76.2858 252.158537 
L 75.795186 252.158537 
L 75.795186 257.380937 
L 75.304571 257.380937 
L 75.304571 266.0352 
L 74.813956 266.0352 
L 74.813956 272.749714 
L 74.323342 272.749714 
L 74.323342 275.43552 
L 73.832727 275.43552 
L 73.832727 276.48 
L 73.832727 276.48 
z
" clip-path="url(#pf01ab0f75b)" style="fill: #43b5a0; fill-opacity: 0.8"/>
   </g>
   <g id="matplotlib.axis_1">
    <g id="xtick_1">
     <g id="line2d_1">
      <defs>
       <path id="me7155a4fe3" d="M 0 0 
L 0 3.5 
" style="stroke: #ffffff; stroke-width: 0.8"/>
      </defs>
      <g>
       <use xlink:href="#me7155a4fe3" x="102.288374" y="276.48" style="fill: #ffffff; stroke: #ffffff; stroke-width: 0.8"/>
      </g>
     </g>
     <g id="text_1">
      <!-- Fri 12/24 -->
      <g style="fill: #ffffff" transform="translate(63.21919 312.01669)rotate(-30)scale(0.1 -0.1)">
       <defs>
        <path id="DejaVuSans-46" d="M 628 4666 
L 3309 4666 
L 3309 4134 
L 1259 4134 
L 1259 2759 
L 3109 2759 
L 3109 2228 
L 1259 2228 
L 1259 0 
L 628 0 
L 628 4666 
z
" transform="scale(0.015625)"/>
        <path id="DejaVuSans-72" d="M 2631 2963 
Q 2534 3019 2420 3045 
Q 2306 3072 2169 3072 
Q 1681 3072 1420 2755 
Q 1159 2438 1159 1844 
L 1159 0 
L 581 0 
L 581 3500 
L 1159 3500 
L 1159 2956 
Q 1341 3275 1631 3429 
Q 1922 3584 2338 3584 
Q 2397 3584 2469 3576 
Q 2541 3569 2628 3553 
L 2631 2963 
z
" transform="scale(0.015625)"/>
        <path id="DejaVuSans-69" d="M 603 3500 
L 1178 3500 
L 1178 0 
L 603 0 
L 603 3500 
z
M 603 4863 
L 1178 4863 
L 1178 4134 
L 603 4134 
L 603 4863 
z
" transform="scale(0.015625)"/>
        <path id="DejaVuSans-20" transform="scale(0.015625)"/>
        <path id="DejaVuSans-31" d="M 794 531 
L 1825 531 
L 1825 4091 
L 703 3866 
L 703 4441 
L 1819 4666 
L 2450 4666 
L 2450 531 
L 3481 531 
L 3481 0 
L 794 0 
L 794 531 
z
" transform="scale(0.015625)"/>
        <path id="DejaVuSans-32" d="M 1228 531 
L 3431 531 
L 3431 0 
L 469 0 
L 469 531 
Q 828 903 1448 1529 
Q 2069 2156 2228 2338 
Q 2531 2678 2651 2914 
Q 2772 3150 2772 3378 
Q 2772 3750 2511 3984 
Q 2250 4219 1831 4219 
Q 1534 4219 1204 4116 
Q 875 4013 500 3803 
L 500 4441 
Q 881 4594 1212 4672 
Q 1544 4750 1819 4750 
Q 2544 4750 2975 4387 
Q 3406 4025 3406 3419 
Q 3406 3131 3298 2873 
Q 3191 2616 2906 2266 
Q 2828 2175 2409 1742 
Q 1991 1309 1228 531 
z
" transform="scale(0.015625)"/>
        <path id="DejaVuSans-2f" d="M 1625 4666 
L 2156 4666 
L 531 -594 
L 0 -594 
L 1625 4666 
z
" transform="scale(0.015625)"/>
        <path id="DejaVuSans-34" d="M 2419 4116 
L 825 1625 
L 2419 1625 
L 2419 4116 
z
M 2253 4666 
L 3047 4666 
L 3047 1625 
L 3713 1625 
L 3713 1100 
L 3047 1100 
L 3047 0 
L 2419 0 
L 2419 1100 
L 313 1100 
L 313 1709 
L 2253 4666 
z
" transform="scale(0.015625)"/>
       </defs>
       <use xlink:href="#DejaVuSans-46"/>
       <use xlink:href="#DejaVuSans-72" x="50.269531"/>
       <use xlink:href="#DejaVuSans-69" x="91.382812"/>
       <use xlink:href="#DejaVuSans-20" x="119.166016"/>
       <use xlink:href="#DejaVuSans-31" x="150.953125"/>
       <use xlink:href="#DejaVuSans-32" x="214.576172"/>
       <use xlink:href="#DejaVuSans-2f" x="278.199219"/>
       <use xlink:href="#DejaVuSans-32" x="311.890625"/>
       <use xlink:href="#DejaVuSans-34" x="375.513672"/>
      </g>
     </g>
    </g>
    <g id="xtick_2">
     <g id="line2d_2">
      <g>
       <use xlink:href="#me7155a4fe3" x="137.612626" y="276.48" style="fill: #ffffff; stroke: #ffffff; stroke-width: 0.8"/>
      </g>
     </g>
     <g id="text_2">
      <!-- Mon 12/27 -->
      <g style="fill: #ffffff" transform="translate(90.603072 316.601065)rotate(-30)scale(0.1 -0.1)">
       <defs>
        <path id="DejaVuSans-4d" d="M 628 4666 
L 1569 4666 
L 2759 1491 
L 3956 4666 
L 4897 4666 
L 4897 0 
L 4281 0 
L 4281 4097 
L 3078 897 
L 2444 897 
L 1241 4097 
L 1241 0 
L 628 0 
L 628 4666 
z
" transform="scale(0.015625)"/>
        <path id="DejaVuSans-6f" d="M 1959 3097 
Q 1497 3097 1228 2736 
Q 959 2375 959 1747 
Q 959 1119 1226 758 
Q 1494 397 1959 397 
Q 2419 397 2687 759 
Q 2956 1122 2956 1747 
Q 2956 2369 2687 2733 
Q 2419 3097 1959 3097 
z
M 1959 3584 
Q 2709 3584 3137 3096 
Q 3566 2609 3566 1747 
Q 3566 888 3137 398 
Q 2709 -91 1959 -91 
Q 1206 -91 779 398 
Q 353 888 353 1747 
Q 353 2609 779 3096 
Q 1206 3584 1959 3584 
z
" transform="scale(0.015625)"/>
        <path id="DejaVuSans-6e" d="M 3513 2113 
L 3513 0 
L 2938 0 
L 2938 2094 
Q 2938 2591 2744 2837 
Q 2550 3084 2163 3084 
Q 1697 3084 1428 2787 
Q 1159 2491 1159 1978 
L 1159 0 
L 581 0 
L 581 3500 
L 1159 3500 
L 1159 2956 
Q 1366 3272 1645 3428 
Q 1925 3584 2291 3584 
Q 2894 3584 3203 3211 
Q 3513 2838 3513 2113 
z
" transform="scale(0.015625)"/>
        <path id="DejaVuSans-37" d="M 525 4666 
L 3525 4666 
L 3525 4397 
L 1831 0 
L 1172 0 
L 2766 4134 
L 525 4134 
L 525 4666 
z
" transform="scale(0.015625)"/>
       </defs>
       <use xlink:href="#DejaVuSans-4d"/>
       <use xlink:href="#DejaVuSans-6f" x="86.279297"/>
       <use xlink:href="#DejaVuSans-6e" x="147.460938"/>
       <use xlink:href="#DejaVuSans-20" x="210.839844"/>
       <use xlink:href="#DejaVuSans-31" x="242.626953"/>
       <use xlink:href="#DejaVuSans-32" x="306.25"/>
       <use xlink:href="#DejaVuSans-2f" x="369.873047"/>
       <use xlink:href="#DejaVuSans-32" x="403.564453"/>
       <use xlink:href="#DejaVuSans-37" x="467.1875"/>
      </g>
     </g>
    </g>
    <g id="xtick_3">
     <g id="line2d_3">
      <g>
       <use xlink:href="#me7155a4fe3" x="184.711629" y="276.48" style="fill: #ffffff; stroke: #ffffff; stroke-width: 0.8"/>
      </g>
     </g>
     <g id="text_3">
      <!-- Fri 12/31 -->
      <g style="fill: #ffffff" transform="translate(145.642444 312.01669)rotate(-30)scale(0.1 -0.1)">
       <defs>
        <path id="DejaVuSans-33" d="M 2597 2516 
Q 3050 2419 3304 2112 
Q 3559 1806 3559 1356 
Q 3559 666 3084 287 
Q 2609 -91 1734 -91 
Q 1441 -91 1130 -33 
Q 819 25 488 141 
L 488 750 
Q 750 597 1062 519 
Q 1375 441 1716 441 
Q 2309 441 2620 675 
Q 2931 909 2931 1356 
Q 2931 1769 2642 2001 
Q 2353 2234 1838 2234 
L 1294 2234 
L 1294 2753 
L 1863 2753 
Q 2328 2753 2575 2939 
Q 2822 3125 2822 3475 
Q 2822 3834 2567 4026 
Q 2313 4219 1838 4219 
Q 1578 4219 1281 4162 
Q 984 4106 628 3988 
L 628 4550 
Q 988 4650 1302 4700 
Q 1616 4750 1894 4750 
Q 2613 4750 3031 4423 
Q 3450 4097 3450 3541 
Q 3450 3153 3228 2886 
Q 3006 2619 2597 2516 
z
" transform="scale(0.015625)"/>
       </defs>
       <use xlink:href="#DejaVuSans-46"/>
       <use xlink:href="#DejaVuSans-72" x="50.269531"/>
       <use xlink:href="#DejaVuSans-69" x="91.382812"/>
       <use xlink:href="#DejaVuSans-20" x="119.166016"/>
       <use xlink:href="#DejaVuSans-31" x="150.953125"/>
       <use xlink:href="#DejaVuSans-32" x="214.576172"/>
       <use xlink:href="#DejaVuSans-2f" x="278.199219"/>
       <use xlink:href="#DejaVuSans-33" x="311.890625"/>
       <use xlink:href="#DejaVuSans-31" x="375.513672"/>
      </g>
     </g>
    </g>
    <g id="xtick_4">
     <g id="line2d_4">
      <g>
       <use xlink:href="#me7155a4fe3" x="220.03588" y="276.48" style="fill: #ffffff; stroke: #ffffff; stroke-width: 0.8"/>
      </g>
     </g>
     <g id="text_4">
      <!-- Mon 01/03 -->
      <g style="fill: #ffffff" transform="translate(173.026326 316.601065)rotate(-30)scale(0.1 -0.1)">
       <defs>
        <path id="DejaVuSans-30" d="M 2034 4250 
Q 1547 4250 1301 3770 
Q 1056 3291 1056 2328 
Q 1056 1369 1301 889 
Q 1547 409 2034 409 
Q 2525 409 2770 889 
Q 3016 1369 3016 2328 
Q 3016 3291 2770 3770 
Q 2525 4250 2034 4250 
z
M 2034 4750 
Q 2819 4750 3233 4129 
Q 3647 3509 3647 2328 
Q 3647 1150 3233 529 
Q 2819 -91 2034 -91 
Q 1250 -91 836 529 
Q 422 1150 422 2328 
Q 422 3509 836 4129 
Q 1250 4750 2034 4750 
z
" transform="scale(0.015625)"/>
       </defs>
       <use xlink:href="#DejaVuSans-4d"/>
       <use xlink:href="#DejaVuSans-6f" x="86.279297"/>
       <use xlink:href="#DejaVuSans-6e" x="147.460938"/>
       <use xlink:href="#DejaVuSans-20" x="210.839844"/>
       <use xlink:href="#DejaVuSans-30" x="242.626953"/>
       <use xlink:href="#DejaVuSans-31" x="306.25"/>
       <use xlink:href="#DejaVuSans-2f" x="369.873047"/>
       <use xlink:href="#DejaVuSans-30" x="403.564453"/>
       <use xlink:href="#DejaVuSans-33" x="467.1875"/>
      </g>
     </g>
    </g>
    <g id="xtick_5">
     <g id="line2d_5">
      <g>
       <use xlink:href="#me7155a4fe3" x="267.134883" y="276.48" style="fill: #ffffff; stroke: #ffffff; stroke-width: 0.8"/>
      </g>
     </g>
     <g id="text_5">
      <!-- Fri 01/07 -->
      <g style="fill: #ffffff" transform="translate(228.065698 312.01669)rotate(-30)scale(0.1 -0.1)">
       <use xlink:href="#DejaVuSans-46"/>
       <use xlink:href="#DejaVuSans-72" x="50.269531"/>
       <use xlink:href="#DejaVuSans-69" x="91.382812"/>
       <use xlink:href="#DejaVuSans-20" x="119.166016"/>
       <use xlink:href="#DejaVuSans-30" x="150.953125"/>
       <use xlink:href="#DejaVuSans-31" x="214.576172"/>
       <use xlink:href="#DejaVuSans-2f" x="278.199219"/>
       <use xlink:href="#DejaVuSans-30" x="311.890625"/>
       <use xlink:href="#DejaVuSans-37" x="375.513672"/>
      </g>
     </g>
    </g>
    <g id="xtick_6">
     <g id="line2d_6">
      <g>
       <use xlink:href="#me7155a4fe3" x="302.459134" y="276.48" style="fill: #ffffff; stroke: #ffffff; stroke-width: 0.8"/>
      </g>
     </g>
     <g id="text_6">
      <!-- Mon 01/10 -->
      <g style="fill: #ffffff" transform="translate(255.44958 316.601065)rotate(-30)scale(0.1 -0.1)">
       <use xlink:href="#DejaVuSans-4d"/>
       <use xlink:href="#DejaVuSans-6f" x="86.279297"/>
       <use xlink:href="#DejaVuSans-6e" x="147.460938"/>
       <use xlink:href="#DejaVuSans-20" x="210.839844"/>
       <use xlink:href="#DejaVuSans-30" x="242.626953"/>
       <use xlink:href="#DejaVuSans-31" x="306.25"/>
       <use xlink:href="#DejaVuSans-2f" x="369.873047"/>
       <use xlink:href="#DejaVuSans-31" x="403.564453"/>
       <use xlink:href="#DejaVuSans-30" x="467.1875"/>
      </g>
     </g>
    </g>
    <g id="xtick_7">
     <g id="line2d_7">
      <g>
       <use xlink:href="#me7155a4fe3" x="349.558137" y="276.48" style="fill: #ffffff; stroke: #ffffff; stroke-width: 0.8"/>
      </g>
     </g>
     <g id="text_7">
      <!-- Fri 01/14 -->
      <g style="fill: #ffffff" transform="translate(310.488952 312.01669)rotate(-30)scale(0.1 -0.1)">
       <use xlink:href="#DejaVuSans-46"/>
       <use xlink:href="#DejaVuSans-72" x="50.269531"/>
       <use xlink:href="#DejaVuSans-69" x="91.382812"/>
       <use xlink:href="#DejaVuSans-20" x="119.166016"/>
       <use xlink:href="#DejaVuSans-30" x="150.953125"/>
       <use xlink:href="#DejaVuSans-31" x="214.576172"/>
       <use xlink:href="#DejaVuSans-2f" x="278.199219"/>
       <use xlink:href="#DejaVuSans-31" x="311.890625"/>
       <use xlink:href="#DejaVuSans-34" x="375.513672"/>
      </g>
     </g>
    </g>
    <g id="xtick_8">
     <g id="line2d_8">
      <g>
       <use xlink:href="#me7155a4fe3" x="384.882388" y="276.48" style="fill: #ffffff; stroke: #ffffff; stroke-width: 0.8"/>
      </g>
     </g>
     <g id="text_8">
      <!-- Mon 01/17 -->
      <g style="fill: #ffffff" transform="translate(337.872834 316.601065)rotate(-30)scale(0.1 -0.1)">
       <use xlink:href="#DejaVuSans-4d"/>
       <use xlink:href="#DejaVuSans-6f" x="86.279297"/>
       <use xlink:href="#DejaVuSans-6e" x="147.460938"/>
       <use xlink:href="#DejaVuSans-20" x="210.839844"/>
       <use xlink:href="#DejaVuSans-30" x="242.626953"/>
       <use xlink:href="#DejaVuSans-31" x="306.25"/>
       <use xlink:href="#DejaVuSans-2f" x="369.873047"/>
       <use xlink:href="#DejaVuSans-31" x="403.564453"/>
       <use xlink:href="#DejaVuSans-37" x="467.1875"/>
      </g>
     </g>
    </g>
    <g id="xtick_9">
     <g id="line2d_9">
      <defs>
       <path id="m5ec331d2bb" d="M 0 0 
L 0 2 
" style="stroke: #ffffff; stroke-width: 0.6"/>
      </defs>
      <g>
       <use xlink:href="#m5ec331d2bb" x="66.964123" y="276.48" style="fill: #ffffff; stroke: #ffffff; stroke-width: 0.6"/>
      </g>
     </g>
    </g>
    <g id="xtick_10">
     <g id="line2d_10">
      <g>
       <use xlink:href="#m5ec331d2bb" x="78.738873" y="276.48" style="fill: #ffffff; stroke: #ffffff; stroke-width: 0.6"/>
      </g>
     </g>
    </g>
    <g id="xtick_11">
     <g id="line2d_11">
      <g>
       <use xlink:href="#m5ec331d2bb" x="90.513624" y="276.48" style="fill: #ffffff; stroke: #ffffff; stroke-width: 0.6"/>
      </g>
     </g>
    </g>
    <g id="xtick_12">
     <g id="line2d_12">
      <g>
       <use xlink:href="#m5ec331d2bb" x="114.063125" y="276.48" style="fill: #ffffff; stroke: #ffffff; stroke-width: 0.6"/>
      </g>
     </g>
    </g>
    <g id="xtick_13">
     <g id="line2d_13">
      <g>
       <use xlink:href="#m5ec331d2bb" x="125.837876" y="276.48" style="fill: #ffffff; stroke: #ffffff; stroke-width: 0.6"/>
      </g>
     </g>
    </g>
    <g id="xtick_14">
     <g id="line2d_14">
      <g>
       <use xlink:href="#m5ec331d2bb" x="149.387377" y="276.48" style="fill: #ffffff; stroke: #ffffff; stroke-width: 0.6"/>
      </g>
     </g>
    </g>
    <g id="xtick_15">
     <g id="line2d_15">
      <g>
       <use xlink:href="#m5ec331d2bb" x="161.162127" y="276.48" style="fill: #ffffff; stroke: #ffffff; stroke-width: 0.6"/>
      </g>
     </g>
    </g>
    <g id="xtick_16">
     <g id="line2d_16">
      <g>
       <use xlink:href="#m5ec331d2bb" x="172.936878" y="276.48" style="fill: #ffffff; stroke: #ffffff; stroke-width: 0.6"/>
      </g>
     </g>
    </g>
    <g id="xtick_17">
     <g id="line2d_17">
      <g>
       <use xlink:href="#m5ec331d2bb" x="196.486379" y="276.48" style="fill: #ffffff; stroke: #ffffff; stroke-width: 0.6"/>
      </g>
     </g>
    </g>
    <g id="xtick_18">
     <g id="line2d_18">
      <g>
       <use xlink:href="#m5ec331d2bb" x="208.26113" y="276.48" style="fill: #ffffff; stroke: #ffffff; stroke-width: 0.6"/>
      </g>
     </g>
    </g>
    <g id="xtick_19">
     <g id="line2d_19">
      <g>
       <use xlink:href="#m5ec331d2bb" x="231.810631" y="276.48" style="fill: #ffffff; stroke: #ffffff; stroke-width: 0.6"/>
      </g>
     </g>
    </g>
    <g id="xtick_20">
     <g id="line2d_20">
      <g>
       <use xlink:href="#m5ec331d2bb" x="243.585381" y="276.48" style="fill: #ffffff; stroke: #ffffff; stroke-width: 0.6"/>
      </g>
     </g>
    </g>
    <g id="xtick_21">
     <g id="line2d_21">
      <g>
       <use xlink:href="#m5ec331d2bb" x="255.360132" y="276.48" style="fill: #ffffff; stroke: #ffffff; stroke-width: 0.6"/>
      </g>
     </g>
    </g>
    <g id="xtick_22">
     <g id="line2d_22">
      <g>
       <use xlink:href="#m5ec331d2bb" x="278.909633" y="276.48" style="fill: #ffffff; stroke: #ffffff; stroke-width: 0.6"/>
      </g>
     </g>
    </g>
    <g id="xtick_23">
     <g id="line2d_23">
      <g>
       <use xlink:href="#m5ec331d2bb" x="290.684384" y="276.48" style="fill: #ffffff; stroke: #ffffff; stroke-width: 0.6"/>
      </g>
     </g>
    </g>
    <g id="xtick_24">
     <g id="line2d_24">
      <g>
       <use xlink:href="#m5ec331d2bb" x="314.233885" y="276.48" style="fill: #ffffff; stroke: #ffffff; stroke-width: 0.6"/>
      </g>
     </g>
    </g>
    <g id="xtick_25">
     <g id="line2d_25">
      <g>
       <use xlink:href="#m5ec331d2bb" x="326.008635" y="276.48" style="fill: #ffffff; stroke: #ffffff; stroke-width: 0.6"/>
      </g>
     </g>
    </g>
    <g id="xtick_26">
     <g id="line2d_26">
      <g>
       <use xlink:href="#m5ec331d2bb" x="337.783386" y="276.48" style="fill: #ffffff; stroke: #ffffff; stroke-width: 0.6"/>
      </g>
     </g>
    </g>
    <g id="xtick_27">
     <g id="line2d_27">
      <g>
       <use xlink:href="#m5ec331d2bb" x="361.332887" y="276.48" style="fill: #ffffff; stroke: #ffffff; stroke-width: 0.6"/>
      </g>
     </g>
    </g>
    <g id="xtick_28">
     <g id="line2d_28">
      <g>
       <use xlink:href="#m5ec331d2bb" x="373.107638" y="276.48" style="fill: #ffffff; stroke: #ffffff; stroke-width: 0.6"/>
      </g>
     </g>
    </g>
    <g id="xtick_29">
     <g id="line2d_29">
      <g>
       <use xlink:href="#m5ec331d2bb" x="396.657139" y="276.48" style="fill: #ffffff; stroke: #ffffff; stroke-width: 0.6"/>
      </g>
     </g>
    </g>
    <g id="xtick_30">
     <g id="line2d_30">
      <g>
       <use xlink:href="#m5ec331d2bb" x="408.431889" y="276.48" style="fill: #ffffff; stroke: #ffffff; stroke-width: 0.6"/>
      </g>
     </g>
    </g>
   </g>
   <g id="matplotlib.axis_2">
    <g id="ytick_1">
     <g id="line2d_31">
      <defs>
       <path id="mad9ef4d410" d="M 0 0 
L -3.5 0 
" style="stroke: #ffffff; stroke-width: 0.8"/>
      </defs>
      <g>
       <use xlink:href="#mad9ef4d410" x="57.6" y="276.48" style="fill: #ffffff; stroke: #ffffff; stroke-width: 0.8"/>
      </g>
     </g>
     <g id="text_9">
      <!-- 0 -->
      <g style="fill: #ffffff" transform="translate(44.2375 280.279219)scale(0.1 -0.1)">
       <use xlink:href="#DejaVuSans-30"/>
      </g>
     </g>
    </g>
    <g id="ytick_2">
     <g id="line2d_32">
      <g>
       <use xlink:href="#mad9ef4d410" x="57.6" y="246.637714" style="fill: #ffffff; stroke: #ffffff; stroke-width: 0.8"/>
      </g>
     </g>
     <g id="text_10">
      <!-- 200 -->
      <g style="fill: #ffffff" transform="translate(31.5125 250.436933)scale(0.1 -0.1)">
       <use xlink:href="#DejaVuSans-32"/>
       <use xlink:href="#DejaVuSans-30" x="63.623047"/>
       <use xlink:href="#DejaVuSans-30" x="127.246094"/>
      </g>
     </g>
    </g>
    <g id="ytick_3">
     <g id="line2d_33">
      <g>
       <use xlink:href="#mad9ef4d410" x="57.6" y="216.795429" style="fill: #ffffff; stroke: #ffffff; stroke-width: 0.8"/>
      </g>
     </g>
     <g id="text_11">
      <!-- 400 -->
      <g style="fill: #ffffff" transform="translate(31.5125 220.594647)scale(0.1 -0.1)">
       <use xlink:href="#DejaVuSans-34"/>
       <use xlink:href="#DejaVuSans-30" x="63.623047"/>
       <use xlink:href="#DejaVuSans-30" x="127.246094"/>
      </g>
     </g>
    </g>
    <g id="ytick_4">
     <g id="line2d_34">
      <g>
       <use xlink:href="#mad9ef4d410" x="57.6" y="186.953143" style="fill: #ffffff; stroke: #ffffff; stroke-width: 0.8"/>
      </g>
     </g>
     <g id="text_12">
      <!-- 600 -->
      <g style="fill: #ffffff" transform="translate(31.5125 190.752362)scale(0.1 -0.1)">
       <defs>
        <path id="DejaVuSans-36" d="M 2113 2584 
Q 1688 2584 1439 2293 
Q 1191 2003 1191 1497 
Q 1191 994 1439 701 
Q 1688 409 2113 409 
Q 2538 409 2786 701 
Q 3034 994 3034 1497 
Q 3034 2003 2786 2293 
Q 2538 2584 2113 2584 
z
M 3366 4563 
L 3366 3988 
Q 3128 4100 2886 4159 
Q 2644 4219 2406 4219 
Q 1781 4219 1451 3797 
Q 1122 3375 1075 2522 
Q 1259 2794 1537 2939 
Q 1816 3084 2150 3084 
Q 2853 3084 3261 2657 
Q 3669 2231 3669 1497 
Q 3669 778 3244 343 
Q 2819 -91 2113 -91 
Q 1303 -91 875 529 
Q 447 1150 447 2328 
Q 447 3434 972 4092 
Q 1497 4750 2381 4750 
Q 2619 4750 2861 4703 
Q 3103 4656 3366 4563 
z
" transform="scale(0.015625)"/>
       </defs>
       <use xlink:href="#DejaVuSans-36"/>
       <use xlink:href="#DejaVuSans-30" x="63.623047"/>
       <use xlink:href="#DejaVuSans-30" x="127.246094"/>
      </g>
     </g>
    </g>
    <g id="ytick_5">
     <g id="line2d_35">
      <g>
       <use xlink:href="#mad9ef4d410" x="57.6" y="157.110857" style="fill: #ffffff; stroke: #ffffff; stroke-width: 0.8"/>
      </g>
     </g>
     <g id="text_13">
      <!-- 800 -->
      <g style="fill: #ffffff" transform="translate(31.5125 160.910076)scale(0.1 -0.1)">
       <defs>
        <path id="DejaVuSans-38" d="M 2034 2216 
Q 1584 2216 1326 1975 
Q 1069 1734 1069 1313 
Q 1069 891 1326 650 
Q 1584 409 2034 409 
Q 2484 409 2743 651 
Q 3003 894 3003 1313 
Q 3003 1734 2745 1975 
Q 2488 2216 2034 2216 
z
M 1403 2484 
Q 997 2584 770 2862 
Q 544 3141 544 3541 
Q 544 4100 942 4425 
Q 1341 4750 2034 4750 
Q 2731 4750 3128 4425 
Q 3525 4100 3525 3541 
Q 3525 3141 3298 2862 
Q 3072 2584 2669 2484 
Q 3125 2378 3379 2068 
Q 3634 1759 3634 1313 
Q 3634 634 3220 271 
Q 2806 -91 2034 -91 
Q 1263 -91 848 271 
Q 434 634 434 1313 
Q 434 1759 690 2068 
Q 947 2378 1403 2484 
z
M 1172 3481 
Q 1172 3119 1398 2916 
Q 1625 2713 2034 2713 
Q 2441 2713 2670 2916 
Q 2900 3119 2900 3481 
Q 2900 3844 2670 4047 
Q 2441 4250 2034 4250 
Q 1625 4250 1398 4047 
Q 1172 3844 1172 3481 
z
" transform="scale(0.015625)"/>
       </defs>
       <use xlink:href="#DejaVuSans-38"/>
       <use xlink:href="#DejaVuSans-30" x="63.623047"/>
       <use xlink:href="#DejaVuSans-30" x="127.246094"/>
      </g>
     </g>
    </g>
    <g id="ytick_6">
     <g id="line2d_36">
      <g>
       <use xlink:href="#mad9ef4d410" x="57.6" y="127.268571" style="fill: #ffffff; stroke: #ffffff; stroke-width: 0.8"/>
      </g>
     </g>
     <g id="text_14">
      <!-- 1000 -->
      <g style="fill: #ffffff" transform="translate(25.15 131.06779)scale(0.1 -0.1)">
       <use xlink:href="#DejaVuSans-31"/>
       <use xlink:href="#DejaVuSans-30" x="63.623047"/>
       <use xlink:href="#DejaVuSans-30" x="127.246094"/>
       <use xlink:href="#DejaVuSans-30" x="190.869141"/>
      </g>
     </g>
    </g>
    <g id="ytick_7">
     <g id="line2d_37">
      <g>
       <use xlink:href="#mad9ef4d410" x="57.6" y="97.426286" style="fill: #ffffff; stroke: #ffffff; stroke-width: 0.8"/>
      </g>
     </g>
     <g id="text_15">
      <!-- 1200 -->
      <g style="fill: #ffffff" transform="translate(25.15 101.225504)scale(0.1 -0.1)">
       <use xlink:href="#DejaVuSans-31"/>
       <use xlink:href="#DejaVuSans-32" x="63.623047"/>
       <use xlink:href="#DejaVuSans-30" x="127.246094"/>
       <use xlink:href="#DejaVuSans-30" x="190.869141"/>
      </g>
     </g>
    </g>
    <g id="ytick_8">
     <g id="line2d_38">
      <g>
       <use xlink:href="#mad9ef4d410" x="57.6" y="67.584" style="fill: #ffffff; stroke: #ffffff; stroke-width: 0.8"/>
      </g>
     </g>
     <g id="text_16">
      <!-- 1400 -->
      <g style="fill: #ffffff" transform="translate(25.15 71.383219)scale(0.1 -0.1)">
       <use xlink:href="#DejaVuSans-31"/>
       <use xlink:href="#DejaVuSans-34" x="63.623047"/>
       <use xlink:href="#DejaVuSans-30" x="127.246094"/>
       <use xlink:href="#DejaVuSans-30" x="190.869141"/>
      </g>
     </g>
    </g>
    <g id="text_17">
     <!-- Number of tickets sold -->
     <g style="fill: #ffffff" transform="translate(19.070312 215.329906)rotate(-90)scale(0.1 -0.1)">
      <defs>
       <path id="DejaVuSans-4e" d="M 628 4666 
L 1478 4666 
L 3547 763 
L 3547 4666 
L 4159 4666 
L 4159 0 
L 3309 0 
L 1241 3903 
L 1241 0 
L 628 0 
L 628 4666 
z
" transform="scale(0.015625)"/>
       <path id="DejaVuSans-75" d="M 544 1381 
L 544 3500 
L 1119 3500 
L 1119 1403 
Q 1119 906 1312 657 
Q 1506 409 1894 409 
Q 2359 409 2629 706 
Q 2900 1003 2900 1516 
L 2900 3500 
L 3475 3500 
L 3475 0 
L 2900 0 
L 2900 538 
Q 2691 219 2414 64 
Q 2138 -91 1772 -91 
Q 1169 -91 856 284 
Q 544 659 544 1381 
z
M 1991 3584 
L 1991 3584 
z
" transform="scale(0.015625)"/>
       <path id="DejaVuSans-6d" d="M 3328 2828 
Q 3544 3216 3844 3400 
Q 4144 3584 4550 3584 
Q 5097 3584 5394 3201 
Q 5691 2819 5691 2113 
L 5691 0 
L 5113 0 
L 5113 2094 
Q 5113 2597 4934 2840 
Q 4756 3084 4391 3084 
Q 3944 3084 3684 2787 
Q 3425 2491 3425 1978 
L 3425 0 
L 2847 0 
L 2847 2094 
Q 2847 2600 2669 2842 
Q 2491 3084 2119 3084 
Q 1678 3084 1418 2786 
Q 1159 2488 1159 1978 
L 1159 0 
L 581 0 
L 581 3500 
L 1159 3500 
L 1159 2956 
Q 1356 3278 1631 3431 
Q 1906 3584 2284 3584 
Q 2666 3584 2933 3390 
Q 3200 3197 3328 2828 
z
" transform="scale(0.015625)"/>
       <path id="DejaVuSans-62" d="M 3116 1747 
Q 3116 2381 2855 2742 
Q 2594 3103 2138 3103 
Q 1681 3103 1420 2742 
Q 1159 2381 1159 1747 
Q 1159 1113 1420 752 
Q 1681 391 2138 391 
Q 2594 391 2855 752 
Q 3116 1113 3116 1747 
z
M 1159 2969 
Q 1341 3281 1617 3432 
Q 1894 3584 2278 3584 
Q 2916 3584 3314 3078 
Q 3713 2572 3713 1747 
Q 3713 922 3314 415 
Q 2916 -91 2278 -91 
Q 1894 -91 1617 61 
Q 1341 213 1159 525 
L 1159 0 
L 581 0 
L 581 4863 
L 1159 4863 
L 1159 2969 
z
" transform="scale(0.015625)"/>
       <path id="DejaVuSans-65" d="M 3597 1894 
L 3597 1613 
L 953 1613 
Q 991 1019 1311 708 
Q 1631 397 2203 397 
Q 2534 397 2845 478 
Q 3156 559 3463 722 
L 3463 178 
Q 3153 47 2828 -22 
Q 2503 -91 2169 -91 
Q 1331 -91 842 396 
Q 353 884 353 1716 
Q 353 2575 817 3079 
Q 1281 3584 2069 3584 
Q 2775 3584 3186 3129 
Q 3597 2675 3597 1894 
z
M 3022 2063 
Q 3016 2534 2758 2815 
Q 2500 3097 2075 3097 
Q 1594 3097 1305 2825 
Q 1016 2553 972 2059 
L 3022 2063 
z
" transform="scale(0.015625)"/>
       <path id="DejaVuSans-66" d="M 2375 4863 
L 2375 4384 
L 1825 4384 
Q 1516 4384 1395 4259 
Q 1275 4134 1275 3809 
L 1275 3500 
L 2222 3500 
L 2222 3053 
L 1275 3053 
L 1275 0 
L 697 0 
L 697 3053 
L 147 3053 
L 147 3500 
L 697 3500 
L 697 3744 
Q 697 4328 969 4595 
Q 1241 4863 1831 4863 
L 2375 4863 
z
" transform="scale(0.015625)"/>
       <path id="DejaVuSans-74" d="M 1172 4494 
L 1172 3500 
L 2356 3500 
L 2356 3053 
L 1172 3053 
L 1172 1153 
Q 1172 725 1289 603 
Q 1406 481 1766 481 
L 2356 481 
L 2356 0 
L 1766 0 
Q 1100 0 847 248 
Q 594 497 594 1153 
L 594 3053 
L 172 3053 
L 172 3500 
L 594 3500 
L 594 4494 
L 1172 4494 
z
" transform="scale(0.015625)"/>
       <path id="DejaVuSans-63" d="M 3122 3366 
L 3122 2828 
Q 2878 2963 2633 3030 
Q 2388 3097 2138 3097 
Q 1578 3097 1268 2742 
Q 959 2388 959 1747 
Q 959 1106 1268 751 
Q 1578 397 2138 397 
Q 2388 397 2633 464 
Q 2878 531 3122 666 
L 3122 134 
Q 2881 22 2623 -34 
Q 2366 -91 2075 -91 
Q 1284 -91 818 406 
Q 353 903 353 1747 
Q 353 2603 823 3093 
Q 1294 3584 2113 3584 
Q 2378 3584 2631 3529 
Q 2884 3475 3122 3366 
z
" transform="scale(0.015625)"/>
       <path id="DejaVuSans-6b" d="M 581 4863 
L 1159 4863 
L 1159 1991 
L 2875 3500 
L 3609 3500 
L 1753 1863 
L 3688 0 
L 2938 0 
L 1159 1709 
L 1159 0 
L 581 0 
L 581 4863 
z
" transform="scale(0.015625)"/>
       <path id="DejaVuSans-73" d="M 2834 3397 
L 2834 2853 
Q 2591 2978 2328 3040 
Q 2066 3103 1784 3103 
Q 1356 3103 1142 2972 
Q 928 2841 928 2578 
Q 928 2378 1081 2264 
Q 1234 2150 1697 2047 
L 1894 2003 
Q 2506 1872 2764 1633 
Q 3022 1394 3022 966 
Q 3022 478 2636 193 
Q 2250 -91 1575 -91 
Q 1294 -91 989 -36 
Q 684 19 347 128 
L 347 722 
Q 666 556 975 473 
Q 1284 391 1588 391 
Q 1994 391 2212 530 
Q 2431 669 2431 922 
Q 2431 1156 2273 1281 
Q 2116 1406 1581 1522 
L 1381 1569 
Q 847 1681 609 1914 
Q 372 2147 372 2553 
Q 372 3047 722 3315 
Q 1072 3584 1716 3584 
Q 2034 3584 2315 3537 
Q 2597 3491 2834 3397 
z
" transform="scale(0.015625)"/>
       <path id="DejaVuSans-6c" d="M 603 4863 
L 1178 4863 
L 1178 0 
L 603 0 
L 603 4863 
z
" transform="scale(0.015625)"/>
       <path id="DejaVuSans-64" d="M 2906 2969 
L 2906 4863 
L 3481 4863 
L 3481 0 
L 2906 0 
L 2906 525 
Q 2725 213 2448 61 
Q 2172 -91 1784 -91 
Q 1150 -91 751 415 
Q 353 922 353 1747 
Q 353 2572 751 3078 
Q 1150 3584 1784 3584 
Q 2172 3584 2448 3432 
Q 2725 3281 2906 2969 
z
M 947 1747 
Q 947 1113 1208 752 
Q 1469 391 1925 391 
Q 2381 391 2643 752 
Q 2906 1113 2906 1747 
Q 2906 2381 2643 2742 
Q 2381 3103 1925 3103 
Q 1469 3103 1208 2742 
Q 947 2381 947 1747 
z
" transform="scale(0.015625)"/>
      </defs>
      <use xlink:href="#DejaVuSans-4e"/>
      <use xlink:href="#DejaVuSans-75" x="74.804688"/>
      <use xlink:href="#DejaVuSans-6d" x="138.183594"/>
      <use xlink:href="#DejaVuSans-62" x="235.595703"/>
      <use xlink:href="#DejaVuSans-65" x="299.072266"/>
      <use xlink:href="#DejaVuSans-72" x="360.595703"/>
      <use xlink:href="#DejaVuSans-20" x="401.708984"/>
      <use xlink:href="#DejaVuSans-6f" x="433.496094"/>
      <use xlink:href="#DejaVuSans-66" x="494.677734"/>
      <use xlink:href="#DejaVuSans-20" x="529.882812"/>
      <use xlink:href="#DejaVuSans-74" x="561.669922"/>
      <use xlink:href="#DejaVuSans-69" x="600.878906"/>
      <use xlink:href="#DejaVuSans-63" x="628.662109"/>
      <use xlink:href="#DejaVuSans-6b" x="683.642578"/>
      <use xlink:href="#DejaVuSans-65" x="737.927734"/>
      <use xlink:href="#DejaVuSans-74" x="799.451172"/>
      <use xlink:href="#DejaVuSans-73" x="838.660156"/>
      <use xlink:href="#DejaVuSans-20" x="890.759766"/>
      <use xlink:href="#DejaVuSans-73" x="922.546875"/>
      <use xlink:href="#DejaVuSans-6f" x="974.646484"/>
      <use xlink:href="#DejaVuSans-6c" x="1035.828125"/>
      <use xlink:href="#DejaVuSans-64" x="1063.611328"/>
     </g>
    </g>
   </g>
   <g id="line2d_39">
    <path d="M 57.6 52.662857 
L 414.72 52.662857 
" clip-path="url(#pf01ab0f75b)" style="fill: none; stroke-dasharray: 5.55,2.4; stroke-dashoffset: 0; stroke: #32cd32; stroke-width: 1.5"/>
   </g>
   <g id="patch_3">
    <path d="M 57.6 276.48 
L 57.6 41.472 
" style="fill: none; stroke: #000000; stroke-width: 0.8; stroke-linejoin: miter; stroke-linecap: square"/>
   </g>
   <g id="patch_4">
    <path d="M 414.72 276.48 
L 414.72 41.472 
" style="fill: none; stroke: #000000; stroke-width: 0.8; stroke-linejoin: miter; stroke-linecap: square"/>
   </g>
   <g id="patch_5">
    <path d="M 57.6 276.48 
L 414.72 276.48 
" style="fill: none; stroke: #000000; stroke-width: 0.8; stroke-linejoin: miter; stroke-linecap: square"/>
   </g>
   <g id="patch_6">
    <path d="M 57.6 41.472 
L 414.72 41.472 
" style="fill: none; stroke: #000000; stroke-width: 0.8; stroke-linejoin: miter; stroke-linecap: square"/>
   </g>
   <g id="text_18">
    <!-- MCH Tickets -->
    <g style="fill: #ffffff" transform="translate(199.504687 35.472)scale(0.12 -0.12)">
     <defs>
      <path id="DejaVuSans-43" d="M 4122 4306 
L 4122 3641 
Q 3803 3938 3442 4084 
Q 3081 4231 2675 4231 
Q 1875 4231 1450 3742 
Q 1025 3253 1025 2328 
Q 1025 1406 1450 917 
Q 1875 428 2675 428 
Q 3081 428 3442 575 
Q 3803 722 4122 1019 
L 4122 359 
Q 3791 134 3420 21 
Q 3050 -91 2638 -91 
Q 1578 -91 968 557 
Q 359 1206 359 2328 
Q 359 3453 968 4101 
Q 1578 4750 2638 4750 
Q 3056 4750 3426 4639 
Q 3797 4528 4122 4306 
z
" transform="scale(0.015625)"/>
      <path id="DejaVuSans-48" d="M 628 4666 
L 1259 4666 
L 1259 2753 
L 3553 2753 
L 3553 4666 
L 4184 4666 
L 4184 0 
L 3553 0 
L 3553 2222 
L 1259 2222 
L 1259 0 
L 628 0 
L 628 4666 
z
" transform="scale(0.015625)"/>
      <path id="DejaVuSans-54" d="M -19 4666 
L 3928 4666 
L 3928 4134 
L 2272 4134 
L 2272 0 
L 1638 0 
L 1638 4134 
L -19 4134 
L -19 4666 
z
" transform="scale(0.015625)"/>
     </defs>
     <use xlink:href="#DejaVuSans-4d"/>
     <use xlink:href="#DejaVuSans-43" x="86.279297"/>
     <use xlink:href="#DejaVuSans-48" x="156.103516"/>
     <use xlink:href="#DejaVuSans-20" x="231.298828"/>
     <use xlink:href="#DejaVuSans-54" x="263.085938"/>
     <use xlink:href="#DejaVuSans-69" x="321.044922"/>
     <use xlink:href="#DejaVuSans-63" x="348.828125"/>
     <use xlink:href="#DejaVuSans-6b" x="403.808594"/>
     <use xlink:href="#DejaVuSans-65" x="458.09375"/>
     <use xlink:href="#DejaVuSans-74" x="519.617188"/>
     <use xlink:href="#DejaVuSans-73" x="558.826172"/>
    </g>
   </g>
   <g id="legend_1">
    <g id="patch_7">
     <path d="M 64.6 93.506375 
L 244.389062 93.506375 
Q 246.389062 93.506375 246.389062 91.506375 
L 246.389062 48.472 
Q 246.389062 46.472 244.389062 46.472 
L 64.6 46.472 
Q 62.6 46.472 62.6 48.472 
L 62.6 91.506375 
Q 62.6 93.506375 64.6 93.506375 
z
" style="fill: #ffffff; opacity: 0.8; stroke: #cccccc; stroke-linejoin: miter"/>
    </g>
    <g id="patch_8">
     <path d="M 66.6 58.070437 
L 86.6 58.070437 
L 86.6 51.070437 
L 66.6 51.070437 
z
" style="fill: #fa448c; fill-opacity: 0.8"/>
    </g>
    <g id="text_19">
     <!-- Early-BirdTickets -->
     <g transform="translate(94.6 58.070437)scale(0.1 -0.1)">
      <defs>
       <path id="DejaVuSans-45" d="M 628 4666 
L 3578 4666 
L 3578 4134 
L 1259 4134 
L 1259 2753 
L 3481 2753 
L 3481 2222 
L 1259 2222 
L 1259 531 
L 3634 531 
L 3634 0 
L 628 0 
L 628 4666 
z
" transform="scale(0.015625)"/>
       <path id="DejaVuSans-61" d="M 2194 1759 
Q 1497 1759 1228 1600 
Q 959 1441 959 1056 
Q 959 750 1161 570 
Q 1363 391 1709 391 
Q 2188 391 2477 730 
Q 2766 1069 2766 1631 
L 2766 1759 
L 2194 1759 
z
M 3341 1997 
L 3341 0 
L 2766 0 
L 2766 531 
Q 2569 213 2275 61 
Q 1981 -91 1556 -91 
Q 1019 -91 701 211 
Q 384 513 384 1019 
Q 384 1609 779 1909 
Q 1175 2209 1959 2209 
L 2766 2209 
L 2766 2266 
Q 2766 2663 2505 2880 
Q 2244 3097 1772 3097 
Q 1472 3097 1187 3025 
Q 903 2953 641 2809 
L 641 3341 
Q 956 3463 1253 3523 
Q 1550 3584 1831 3584 
Q 2591 3584 2966 3190 
Q 3341 2797 3341 1997 
z
" transform="scale(0.015625)"/>
       <path id="DejaVuSans-79" d="M 2059 -325 
Q 1816 -950 1584 -1140 
Q 1353 -1331 966 -1331 
L 506 -1331 
L 506 -850 
L 844 -850 
Q 1081 -850 1212 -737 
Q 1344 -625 1503 -206 
L 1606 56 
L 191 3500 
L 800 3500 
L 1894 763 
L 2988 3500 
L 3597 3500 
L 2059 -325 
z
" transform="scale(0.015625)"/>
       <path id="DejaVuSans-2d" d="M 313 2009 
L 1997 2009 
L 1997 1497 
L 313 1497 
L 313 2009 
z
" transform="scale(0.015625)"/>
       <path id="DejaVuSans-42" d="M 1259 2228 
L 1259 519 
L 2272 519 
Q 2781 519 3026 730 
Q 3272 941 3272 1375 
Q 3272 1813 3026 2020 
Q 2781 2228 2272 2228 
L 1259 2228 
z
M 1259 4147 
L 1259 2741 
L 2194 2741 
Q 2656 2741 2882 2914 
Q 3109 3088 3109 3444 
Q 3109 3797 2882 3972 
Q 2656 4147 2194 4147 
L 1259 4147 
z
M 628 4666 
L 2241 4666 
Q 2963 4666 3353 4366 
Q 3744 4066 3744 3513 
Q 3744 3084 3544 2831 
Q 3344 2578 2956 2516 
Q 3422 2416 3680 2098 
Q 3938 1781 3938 1306 
Q 3938 681 3513 340 
Q 3088 0 2303 0 
L 628 0 
L 628 4666 
z
" transform="scale(0.015625)"/>
      </defs>
      <use xlink:href="#DejaVuSans-45"/>
      <use xlink:href="#DejaVuSans-61" x="63.183594"/>
      <use xlink:href="#DejaVuSans-72" x="124.462891"/>
      <use xlink:href="#DejaVuSans-6c" x="165.576172"/>
      <use xlink:href="#DejaVuSans-79" x="193.359375"/>
      <use xlink:href="#DejaVuSans-2d" x="250.789062"/>
      <use xlink:href="#DejaVuSans-42" x="283.248047"/>
      <use xlink:href="#DejaVuSans-69" x="351.851562"/>
      <use xlink:href="#DejaVuSans-72" x="379.634766"/>
      <use xlink:href="#DejaVuSans-64" x="418.998047"/>
      <use xlink:href="#DejaVuSans-54" x="482.474609"/>
      <use xlink:href="#DejaVuSans-69" x="540.433594"/>
      <use xlink:href="#DejaVuSans-63" x="568.216797"/>
      <use xlink:href="#DejaVuSans-6b" x="623.197266"/>
      <use xlink:href="#DejaVuSans-65" x="677.482422"/>
      <use xlink:href="#DejaVuSans-74" x="739.005859"/>
      <use xlink:href="#DejaVuSans-73" x="778.214844"/>
     </g>
    </g>
    <g id="patch_9">
     <path d="M 66.6 72.748562 
L 86.6 72.748562 
L 86.6 65.748562 
L 66.6 65.748562 
z
" style="fill: #43b5a0; fill-opacity: 0.8"/>
    </g>
    <g id="text_20">
     <!-- RegularTickets -->
     <g transform="translate(94.6 72.748562)scale(0.1 -0.1)">
      <defs>
       <path id="DejaVuSans-52" d="M 2841 2188 
Q 3044 2119 3236 1894 
Q 3428 1669 3622 1275 
L 4263 0 
L 3584 0 
L 2988 1197 
Q 2756 1666 2539 1819 
Q 2322 1972 1947 1972 
L 1259 1972 
L 1259 0 
L 628 0 
L 628 4666 
L 2053 4666 
Q 2853 4666 3247 4331 
Q 3641 3997 3641 3322 
Q 3641 2881 3436 2590 
Q 3231 2300 2841 2188 
z
M 1259 4147 
L 1259 2491 
L 2053 2491 
Q 2509 2491 2742 2702 
Q 2975 2913 2975 3322 
Q 2975 3731 2742 3939 
Q 2509 4147 2053 4147 
L 1259 4147 
z
" transform="scale(0.015625)"/>
       <path id="DejaVuSans-67" d="M 2906 1791 
Q 2906 2416 2648 2759 
Q 2391 3103 1925 3103 
Q 1463 3103 1205 2759 
Q 947 2416 947 1791 
Q 947 1169 1205 825 
Q 1463 481 1925 481 
Q 2391 481 2648 825 
Q 2906 1169 2906 1791 
z
M 3481 434 
Q 3481 -459 3084 -895 
Q 2688 -1331 1869 -1331 
Q 1566 -1331 1297 -1286 
Q 1028 -1241 775 -1147 
L 775 -588 
Q 1028 -725 1275 -790 
Q 1522 -856 1778 -856 
Q 2344 -856 2625 -561 
Q 2906 -266 2906 331 
L 2906 616 
Q 2728 306 2450 153 
Q 2172 0 1784 0 
Q 1141 0 747 490 
Q 353 981 353 1791 
Q 353 2603 747 3093 
Q 1141 3584 1784 3584 
Q 2172 3584 2450 3431 
Q 2728 3278 2906 2969 
L 2906 3500 
L 3481 3500 
L 3481 434 
z
" transform="scale(0.015625)"/>
      </defs>
      <use xlink:href="#DejaVuSans-52"/>
      <use xlink:href="#DejaVuSans-65" x="64.982422"/>
      <use xlink:href="#DejaVuSans-67" x="126.505859"/>
      <use xlink:href="#DejaVuSans-75" x="189.982422"/>
      <use xlink:href="#DejaVuSans-6c" x="253.361328"/>
      <use xlink:href="#DejaVuSans-61" x="281.144531"/>
      <use xlink:href="#DejaVuSans-72" x="342.423828"/>
      <use xlink:href="#DejaVuSans-54" x="383.537109"/>
      <use xlink:href="#DejaVuSans-69" x="441.496094"/>
      <use xlink:href="#DejaVuSans-63" x="469.279297"/>
      <use xlink:href="#DejaVuSans-6b" x="524.259766"/>
      <use xlink:href="#DejaVuSans-65" x="578.544922"/>
      <use xlink:href="#DejaVuSans-74" x="640.068359"/>
      <use xlink:href="#DejaVuSans-73" x="679.277344"/>
     </g>
    </g>
    <g id="line2d_40">
     <path d="M 66.6 83.926687 
L 76.6 83.926687 
L 86.6 83.926687 
" style="fill: none; stroke-dasharray: 5.55,2.4; stroke-dashoffset: 0; stroke: #32cd32; stroke-width: 1.5"/>
    </g>
    <g id="text_21">
     <!-- Required tickets w/ donations -->
     <g transform="translate(94.6 87.426687)scale(0.1 -0.1)">
      <defs>
       <path id="DejaVuSans-71" d="M 947 1747 
Q 947 1113 1208 752 
Q 1469 391 1925 391 
Q 2381 391 2643 752 
Q 2906 1113 2906 1747 
Q 2906 2381 2643 2742 
Q 2381 3103 1925 3103 
Q 1469 3103 1208 2742 
Q 947 2381 947 1747 
z
M 2906 525 
Q 2725 213 2448 61 
Q 2172 -91 1784 -91 
Q 1150 -91 751 415 
Q 353 922 353 1747 
Q 353 2572 751 3078 
Q 1150 3584 1784 3584 
Q 2172 3584 2448 3432 
Q 2725 3281 2906 2969 
L 2906 3500 
L 3481 3500 
L 3481 -1331 
L 2906 -1331 
L 2906 525 
z
" transform="scale(0.015625)"/>
       <path id="DejaVuSans-77" d="M 269 3500 
L 844 3500 
L 1563 769 
L 2278 3500 
L 2956 3500 
L 3675 769 
L 4391 3500 
L 4966 3500 
L 4050 0 
L 3372 0 
L 2619 2869 
L 1863 0 
L 1184 0 
L 269 3500 
z
" transform="scale(0.015625)"/>
      </defs>
      <use xlink:href="#DejaVuSans-52"/>
      <use xlink:href="#DejaVuSans-65" x="64.982422"/>
      <use xlink:href="#DejaVuSans-71" x="126.505859"/>
      <use xlink:href="#DejaVuSans-75" x="189.982422"/>
      <use xlink:href="#DejaVuSans-69" x="253.361328"/>
      <use xlink:href="#DejaVuSans-72" x="281.144531"/>
      <use xlink:href="#DejaVuSans-65" x="320.007812"/>
      <use xlink:href="#DejaVuSans-64" x="381.53125"/>
      <use xlink:href="#DejaVuSans-20" x="445.007812"/>
      <use xlink:href="#DejaVuSans-74" x="476.794922"/>
      <use xlink:href="#DejaVuSans-69" x="516.003906"/>
      <use xlink:href="#DejaVuSans-63" x="543.787109"/>
      <use xlink:href="#DejaVuSans-6b" x="598.767578"/>
      <use xlink:href="#DejaVuSans-65" x="653.052734"/>
      <use xlink:href="#DejaVuSans-74" x="714.576172"/>
      <use xlink:href="#DejaVuSans-73" x="753.785156"/>
      <use xlink:href="#DejaVuSans-20" x="805.884766"/>
      <use xlink:href="#DejaVuSans-77" x="837.671875"/>
      <use xlink:href="#DejaVuSans-2f" x="919.458984"/>
      <use xlink:href="#DejaVuSans-20" x="953.150391"/>
      <use xlink:href="#DejaVuSans-64" x="984.9375"/>
      <use xlink:href="#DejaVuSans-6f" x="1048.414062"/>
      <use xlink:href="#DejaVuSans-6e" x="1109.595703"/>
      <use xlink:href="#DejaVuSans-61" x="1172.974609"/>
      <use xlink:href="#DejaVuSans-74" x="1234.253906"/>
      <use xlink:href="#DejaVuSans-69" x="1273.462891"/>
      <use xlink:href="#DejaVuSans-6f" x="1301.246094"/>
      <use xlink:href="#DejaVuSans-6e" x="1362.427734"/>
      <use xlink:href="#DejaVuSans-73" x="1425.806641"/>
     </g>
    </g>
   </g>
  </g>
 </g>
 <defs>
  <clipPath id="pf01ab0f75b">
   <rect x="57.6" y="41.472" width="357.12" height="235.008"/>
  </clipPath>
 </defs>
</svg>
