<?xml version="1.0" encoding="utf-8" standalone="no"?>
<!DOCTYPE svg PUBLIC "-//W3C//DTD SVG 1.1//EN"
  "http://www.w3.org/Graphics/SVG/1.1/DTD/svg11.dtd">
<svg xmlns:xlink="http://www.w3.org/1999/xlink" width="460.8pt" height="345.6pt" viewBox="0 0 460.8 345.6" xmlns="http://www.w3.org/2000/svg" version="1.1">
 <metadata>
  <rdf:RDF xmlns:dc="http://purl.org/dc/elements/1.1/" xmlns:cc="http://creativecommons.org/ns#" xmlns:rdf="http://www.w3.org/1999/02/22-rdf-syntax-ns#">
   <cc:Work>
    <dc:type rdf:resource="http://purl.org/dc/dcmitype/StillImage"/>
    <dc:date>2022-01-18T13:44:13.579834</dc:date>
    <dc:format>image/svg+xml</dc:format>
    <dc:creator>
     <cc:Agent>
      <dc:title>Matplotlib v3.5.1, https://matplotlib.org/</dc:title>
     </cc:Agent>
    </dc:creator>
   </cc:Work>
  </rdf:RDF>
 </metadata>
 <defs>
  <style type="text/css">*{stroke-linejoin: round; stroke-linecap: butt}</style>
 </defs>
 <g id="figure_1">
  <g id="patch_1">
   <path d="M 0 345.6 
L 460.8 345.6 
L 460.8 0 
L 0 0 
z
" style="fill: #491d88"/>
  </g>
  <g id="axes_1">
   <g id="patch_2">
    <path d="M 57.6 276.48 
L 414.72 276.48 
L 414.72 41.472 
L 57.6 41.472 
z
" style="fill: #fec859"/>
   </g>
   <g id="PolyCollection_1">
    <path d="M 73.832727 276.48 
L 73.832727 276.48 
L 73.832727 276.48 
L 73.832727 276.48 
L 74.316033 276.48 
L 74.316033 276.48 
L 74.799339 276.48 
L 74.799339 276.48 
L 75.282645 276.48 
L 75.282645 276.48 
L 75.765951 276.48 
L 75.765951 276.48 
L 76.249257 276.48 
L 76.249257 276.48 
L 76.732563 276.48 
L 76.732563 276.48 
L 77.215869 276.48 
L 77.215869 276.48 
L 77.699175 276.48 
L 77.699175 276.48 
L 78.182481 276.48 
L 78.182481 276.48 
L 78.665787 276.48 
L 78.665787 276.48 
L 79.149093 276.48 
L 79.149093 276.48 
L 79.632399 276.48 
L 79.632399 276.48 
L 80.115705 276.48 
L 80.115705 276.48 
L 80.599011 276.48 
L 80.599011 276.48 
L 81.082317 276.48 
L 81.082317 276.48 
L 81.565623 276.48 
L 81.565623 276.48 
L 82.532235 276.48 
L 82.532235 276.48 
L 83.015541 276.48 
L 83.015541 276.48 
L 83.498847 276.48 
L 83.498847 276.48 
L 83.982153 276.48 
L 83.982153 276.48 
L 84.465459 276.48 
L 84.465459 276.48 
L 84.948765 276.48 
L 84.948765 276.48 
L 85.432071 276.48 
L 85.432071 276.48 
L 85.915377 276.48 
L 85.915377 276.48 
L 86.398683 276.48 
L 86.398683 276.48 
L 86.881989 276.48 
L 86.881989 276.48 
L 87.848601 276.48 
L 87.848601 276.48 
L 88.815213 276.48 
L 88.815213 276.48 
L 89.298519 276.48 
L 89.298519 276.48 
L 89.781825 276.48 
L 89.781825 276.48 
L 93.164967 276.48 
L 93.164967 276.48 
L 93.648273 276.48 
L 93.648273 276.48 
L 94.131579 276.48 
L 94.131579 276.48 
L 94.614885 276.48 
L 94.614885 276.48 
L 95.098191 276.48 
L 95.098191 276.48 
L 95.581497 276.48 
L 95.581497 276.48 
L 96.064803 276.48 
L 96.064803 276.48 
L 96.548109 276.48 
L 96.548109 276.48 
L 97.031415 276.48 
L 97.031415 276.48 
L 97.514721 276.48 
L 97.514721 276.48 
L 97.998027 276.48 
L 97.998027 276.48 
L 98.481333 276.48 
L 98.481333 276.48 
L 98.964639 276.48 
L 98.964639 276.48 
L 99.447945 276.48 
L 99.447945 276.48 
L 99.931251 276.48 
L 99.931251 276.48 
L 100.414557 276.48 
L 100.414557 276.48 
L 100.897863 276.48 
L 100.897863 276.48 
L 101.381169 276.48 
L 101.381169 276.48 
L 104.281005 276.48 
L 104.281005 276.48 
L 105.730923 276.48 
L 105.730923 276.48 
L 106.214229 276.48 
L 106.214229 276.48 
L 106.697535 276.48 
L 106.697535 276.48 
L 107.664147 276.48 
L 107.664147 276.48 
L 108.147453 276.48 
L 108.147453 276.48 
L 108.630759 276.48 
L 108.630759 276.48 
L 109.114065 276.48 
L 109.114065 276.48 
L 109.597371 276.48 
L 109.597371 276.48 
L 110.080677 276.48 
L 110.080677 276.48 
L 110.563983 276.48 
L 110.563983 276.48 
L 111.047289 276.48 
L 111.047289 276.48 
L 111.530594 276.48 
L 111.530594 276.48 
L 112.0139 276.48 
L 112.0139 276.48 
L 112.497206 276.48 
L 112.497206 276.48 
L 112.980512 276.48 
L 112.980512 276.48 
L 117.330266 276.48 
L 117.330266 276.48 
L 118.296878 276.48 
L 118.296878 276.48 
L 118.780184 276.48 
L 118.780184 276.48 
L 119.26349 276.48 
L 119.26349 276.48 
L 119.746796 276.48 
L 119.746796 276.48 
L 121.68002 276.48 
L 121.68002 276.48 
L 129.896222 276.48 
L 129.896222 276.48 
L 130.862834 276.48 
L 130.862834 276.48 
L 131.34614 276.48 
L 131.34614 276.48 
L 132.312752 276.48 
L 132.312752 276.48 
L 132.796058 276.48 
L 132.796058 276.48 
L 134.245976 276.48 
L 134.245976 276.48 
L 136.1792 276.48 
L 136.1792 276.48 
L 136.662506 276.48 
L 136.662506 276.48 
L 140.528954 276.48 
L 140.528954 276.48 
L 141.01226 276.48 
L 141.01226 276.48 
L 141.495566 276.48 
L 141.495566 276.48 
L 141.978872 276.48 
L 141.978872 276.48 
L 142.462178 276.48 
L 142.462178 276.48 
L 142.945484 276.48 
L 142.945484 276.48 
L 143.42879 276.48 
L 143.42879 276.48 
L 143.912096 276.48 
L 143.912096 276.48 
L 144.395402 276.48 
L 144.395402 276.48 
L 145.362014 276.48 
L 145.362014 276.48 
L 145.84532 276.48 
L 145.84532 276.48 
L 146.328626 276.48 
L 146.328626 276.48 
L 146.811932 276.48 
L 146.811932 276.48 
L 147.295238 276.48 
L 147.295238 276.48 
L 147.778544 276.48 
L 147.778544 276.48 
L 148.745156 276.48 
L 148.745156 276.48 
L 150.67838 276.48 
L 150.67838 276.48 
L 152.611604 276.48 
L 152.611604 276.48 
L 153.578216 276.48 
L 153.578216 276.48 
L 154.544828 276.48 
L 154.544828 276.48 
L 155.51144 276.48 
L 155.51144 276.48 
L 155.994746 276.48 
L 155.994746 276.48 
L 156.961358 276.48 
L 156.961358 276.48 
L 157.444664 276.48 
L 157.444664 276.48 
L 157.92797 276.48 
L 157.92797 276.48 
L 158.411276 276.48 
L 158.411276 276.48 
L 158.894582 276.48 
L 158.894582 276.48 
L 159.377888 276.48 
L 159.377888 276.48 
L 163.244335 276.48 
L 163.244335 276.48 
L 163.727641 276.48 
L 163.727641 276.48 
L 164.210947 276.48 
L 164.210947 276.48 
L 164.694253 276.48 
L 164.694253 276.48 
L 165.177559 276.48 
L 165.177559 276.48 
L 165.660865 276.48 
L 165.660865 276.48 
L 166.144171 276.48 
L 166.144171 276.48 
L 166.627477 276.48 
L 166.627477 276.48 
L 167.594089 276.48 
L 167.594089 276.48 
L 168.560701 276.48 
L 168.560701 276.48 
L 169.527313 276.48 
L 169.527313 276.48 
L 170.010619 276.48 
L 170.010619 276.48 
L 170.493925 276.48 
L 170.493925 276.48 
L 170.977231 276.48 
L 170.977231 276.48 
L 171.943843 276.48 
L 171.943843 276.48 
L 172.427149 276.48 
L 172.427149 276.48 
L 172.910455 276.48 
L 172.910455 276.48 
L 174.843679 276.48 
L 174.843679 276.48 
L 176.293597 276.48 
L 176.293597 276.48 
L 176.776903 276.48 
L 176.776903 276.48 
L 178.710127 276.48 
L 178.710127 276.48 
L 179.676739 276.48 
L 179.676739 276.48 
L 180.160045 276.48 
L 180.160045 276.48 
L 180.643351 276.48 
L 180.643351 276.48 
L 181.126657 276.48 
L 181.126657 276.48 
L 181.609963 276.48 
L 181.609963 276.48 
L 182.093269 276.48 
L 182.093269 276.48 
L 183.059881 276.48 
L 183.059881 276.48 
L 185.959717 276.48 
L 185.959717 276.48 
L 186.443023 276.48 
L 186.443023 276.48 
L 186.926329 276.48 
L 186.926329 276.48 
L 187.892941 276.48 
L 187.892941 276.48 
L 188.376247 276.48 
L 188.376247 276.48 
L 189.342859 276.48 
L 189.342859 276.48 
L 189.826165 276.48 
L 189.826165 276.48 
L 191.276083 276.48 
L 191.276083 276.48 
L 191.759389 276.48 
L 191.759389 276.48 
L 192.726001 276.48 
L 192.726001 276.48 
L 193.209307 276.48 
L 193.209307 276.48 
L 193.692613 276.48 
L 193.692613 276.48 
L 194.175919 276.48 
L 194.175919 276.48 
L 194.659225 276.48 
L 194.659225 276.48 
L 199.492285 276.48 
L 199.492285 276.48 
L 200.458897 276.48 
L 200.458897 276.48 
L 200.942203 276.48 
L 200.942203 276.48 
L 202.392121 276.48 
L 202.392121 276.48 
L 202.875427 276.48 
L 202.875427 276.48 
L 203.358733 276.48 
L 203.358733 276.48 
L 204.808651 276.48 
L 204.808651 276.48 
L 205.291957 276.48 
L 205.291957 276.48 
L 210.125016 276.48 
L 210.125016 276.48 
L 211.091628 276.48 
L 211.091628 276.48 
L 212.05824 276.48 
L 212.05824 276.48 
L 212.541546 276.48 
L 212.541546 276.48 
L 213.024852 276.48 
L 213.024852 276.48 
L 213.508158 276.48 
L 213.508158 276.48 
L 213.991464 276.48 
L 213.991464 276.48 
L 214.958076 276.48 
L 214.958076 276.48 
L 215.924688 276.48 
L 215.924688 276.48 
L 216.8913 276.48 
L 216.8913 276.48 
L 217.374606 276.48 
L 217.374606 276.48 
L 217.857912 276.48 
L 217.857912 276.48 
L 221.72436 276.48 
L 221.72436 276.48 
L 223.174278 276.48 
L 223.174278 276.48 
L 223.657584 276.48 
L 223.657584 276.48 
L 225.107502 276.48 
L 225.107502 276.48 
L 226.074114 276.48 
L 226.074114 276.48 
L 226.55742 276.48 
L 226.55742 276.48 
L 227.040726 276.48 
L 227.040726 276.48 
L 227.524032 276.48 
L 227.524032 276.48 
L 228.490644 276.48 
L 228.490644 276.48 
L 232.840398 276.48 
L 232.840398 276.48 
L 235.256928 276.48 
L 235.256928 276.48 
L 235.740234 276.48 
L 235.740234 276.48 
L 237.190152 276.48 
L 237.190152 276.48 
L 238.156764 276.48 
L 238.156764 276.48 
L 238.64007 276.48 
L 238.64007 276.48 
L 239.123376 276.48 
L 239.123376 276.48 
L 239.606682 276.48 
L 239.606682 276.48 
L 240.089988 276.48 
L 240.089988 276.48 
L 240.573294 276.48 
L 240.573294 276.48 
L 244.439742 276.48 
L 244.439742 276.48 
L 245.406354 276.48 
L 245.406354 276.48 
L 245.88966 276.48 
L 245.88966 276.48 
L 246.372966 276.48 
L 246.372966 276.48 
L 246.856272 276.48 
L 246.856272 276.48 
L 247.339578 276.48 
L 247.339578 276.48 
L 247.822884 276.48 
L 247.822884 276.48 
L 248.30619 276.48 
L 248.30619 276.48 
L 248.789496 276.48 
L 248.789496 276.48 
L 249.756108 276.48 
L 249.756108 276.48 
L 256.039086 276.48 
L 256.039086 276.48 
L 257.972309 276.48 
L 257.972309 276.48 
L 258.938921 276.48 
L 258.938921 276.48 
L 259.422227 276.48 
L 259.422227 276.48 
L 260.872145 276.48 
L 260.872145 276.48 
L 261.355451 276.48 
L 261.355451 276.48 
L 261.838757 276.48 
L 261.838757 276.48 
L 263.288675 276.48 
L 263.288675 276.48 
L 264.738593 276.48 
L 264.738593 276.48 
L 268.121735 276.48 
L 268.121735 276.48 
L 268.605041 276.48 
L 268.605041 276.48 
L 269.088347 276.48 
L 269.088347 276.48 
L 269.571653 276.48 
L 269.571653 276.48 
L 270.054959 276.48 
L 270.054959 276.48 
L 271.504877 276.48 
L 271.504877 276.48 
L 272.954795 276.48 
L 272.954795 276.48 
L 274.404713 276.48 
L 274.404713 276.48 
L 282.137609 276.48 
L 282.137609 276.48 
L 284.070833 276.48 
L 284.070833 276.48 
L 284.554139 276.48 
L 284.554139 276.48 
L 293.253647 276.48 
L 293.253647 276.48 
L 293.736953 276.48 
L 293.736953 276.48 
L 294.220259 276.48 
L 294.220259 276.48 
L 295.186871 276.48 
L 295.186871 276.48 
L 295.670177 276.48 
L 295.670177 276.48 
L 296.153483 276.48 
L 296.153483 276.48 
L 297.120095 276.48 
L 297.120095 276.48 
L 301.469849 276.48 
L 301.469849 276.48 
L 302.436461 276.48 
L 302.436461 276.48 
L 303.886379 276.48 
L 303.886379 276.48 
L 304.852991 276.48 
L 304.852991 276.48 
L 306.786214 276.48 
L 306.786214 276.48 
L 309.68605 276.48 
L 309.68605 276.48 
L 315.969028 276.48 
L 315.969028 276.48 
L 316.452334 276.48 
L 316.452334 276.48 
L 317.902252 276.48 
L 317.902252 276.48 
L 318.868864 276.48 
L 318.868864 276.48 
L 319.35217 276.48 
L 319.35217 276.48 
L 320.318782 276.48 
L 320.318782 276.48 
L 324.668536 276.48 
L 324.668536 276.48 
L 326.118454 276.48 
L 326.118454 276.48 
L 327.085066 276.48 
L 327.085066 276.48 
L 327.568372 276.48 
L 327.568372 276.48 
L 328.051678 276.48 
L 328.051678 276.48 
L 329.984902 276.48 
L 329.984902 276.48 
L 331.43482 276.48 
L 331.43482 276.48 
L 331.918126 276.48 
L 331.918126 276.48 
L 332.401432 276.48 
L 332.401432 276.48 
L 332.884738 276.48 
L 332.884738 276.48 
L 337.717798 276.48 
L 337.717798 276.48 
L 338.68441 276.48 
L 338.68441 276.48 
L 341.10094 276.48 
L 341.10094 276.48 
L 343.51747 276.48 
L 343.51747 276.48 
L 344.000776 276.48 
L 344.000776 276.48 
L 344.484082 276.48 
L 344.484082 276.48 
L 345.450694 276.48 
L 345.450694 276.48 
L 347.867224 276.48 
L 347.867224 276.48 
L 348.833836 276.48 
L 348.833836 276.48 
L 350.76706 276.48 
L 350.76706 276.48 
L 354.633507 276.48 
L 354.633507 276.48 
L 356.566731 276.48 
L 356.566731 276.48 
L 359.412114 276.48 
L 359.412114 276.48 
L 359.610247 276.48 
L 359.610247 276.48 
L 359.783157 276.48 
L 359.783157 276.48 
L 360.125979 276.48 
L 360.125979 276.48 
L 360.343386 276.48 
L 360.343386 276.48 
L 360.571553 276.48 
L 360.571553 276.48 
L 360.742428 276.48 
L 360.742428 276.48 
L 361.094845 276.48 
L 361.094845 276.48 
L 361.286969 276.48 
L 361.286969 276.48 
L 361.545601 276.48 
L 361.545601 276.48 
L 361.735636 276.48 
L 361.735636 276.48 
L 362.038179 276.48 
L 362.038179 276.48 
L 362.228431 276.48 
L 362.228431 276.48 
L 362.484613 276.48 
L 362.484613 276.48 
L 362.663911 276.48 
L 362.663911 276.48 
L 363.083638 276.48 
L 363.083638 276.48 
L 363.356102 276.48 
L 363.356102 276.48 
L 363.66993 276.48 
L 363.66993 276.48 
L 363.693812 276.48 
L 363.693812 276.48 
L 363.707882 276.48 
L 363.707882 276.48 
L 363.946533 276.48 
L 363.946533 276.48 
L 364.128908 276.48 
L 364.128908 276.48 
L 364.44937 276.48 
L 364.44937 276.48 
L 364.656539 276.48 
L 364.656539 276.48 
L 365.005271 276.48 
L 365.005271 276.48 
L 365.694475 276.48 
L 365.694475 276.48 
L 365.714426 276.48 
L 365.714426 276.48 
L 365.73908 276.48 
L 365.73908 276.48 
L 365.92019 276.48 
L 365.92019 276.48 
L 366.125136 276.48 
L 366.125136 276.48 
L 366.347715 276.48 
L 366.347715 276.48 
L 366.531131 276.48 
L 366.531131 276.48 
L 366.867773 276.48 
L 366.867773 276.48 
L 367.321445 276.48 
L 367.321445 276.48 
L 372.690371 276.48 
L 372.690371 276.48 
L 374.08321 276.48 
L 374.08321 276.48 
L 375.270258 276.48 
L 375.270258 276.48 
L 375.545712 276.48 
L 375.545712 276.48 
L 376.896902 276.48 
L 376.896902 276.48 
L 377.239518 276.48 
L 377.239518 276.48 
L 377.516345 276.48 
L 377.516345 276.48 
L 377.948481 276.48 
L 377.948481 276.48 
L 385.247321 276.48 
L 385.247321 276.48 
L 388.215935 276.48 
L 388.215935 276.48 
L 390.255463 276.48 
L 390.255463 276.48 
L 390.525823 276.48 
L 390.525823 276.48 
L 391.513311 276.48 
L 391.513311 276.48 
L 392.363661 276.48 
L 392.363661 276.48 
L 396.544975 276.48 
L 396.544975 276.48 
L 397.467894 276.48 
L 397.467894 276.48 
L 398.487273 276.48 
L 398.487273 276.48 
L 398.487273 200.083749 
L 398.487273 200.083749 
L 398.487273 200.083749 
L 397.467894 200.083749 
L 397.467894 200.083749 
L 396.544975 200.083749 
L 396.544975 200.083749 
L 392.363661 200.083749 
L 392.363661 200.083749 
L 391.513311 200.083749 
L 391.513311 200.083749 
L 390.525823 200.083749 
L 390.525823 200.083749 
L 390.255463 200.083749 
L 390.255463 200.083749 
L 388.215935 200.083749 
L 388.215935 200.083749 
L 385.247321 200.083749 
L 385.247321 200.083749 
L 377.948481 200.083749 
L 377.948481 200.083749 
L 377.516345 200.083749 
L 377.516345 200.083749 
L 377.239518 200.083749 
L 377.239518 200.083749 
L 376.896902 200.083749 
L 376.896902 200.083749 
L 375.545712 200.083749 
L 375.545712 200.083749 
L 375.270258 200.083749 
L 375.270258 200.083749 
L 374.08321 200.083749 
L 374.08321 200.083749 
L 372.690371 200.083749 
L 372.690371 200.083749 
L 367.321445 200.083749 
L 367.321445 200.083749 
L 366.867773 200.083749 
L 366.867773 200.083749 
L 366.531131 200.083749 
L 366.531131 200.083749 
L 366.347715 200.083749 
L 366.347715 200.083749 
L 366.125136 200.083749 
L 366.125136 200.083749 
L 365.92019 200.083749 
L 365.92019 200.083749 
L 365.73908 200.083749 
L 365.73908 200.083749 
L 365.714426 200.083749 
L 365.714426 200.083749 
L 365.694475 200.083749 
L 365.694475 200.083749 
L 365.005271 200.083749 
L 365.005271 200.083749 
L 364.656539 200.083749 
L 364.656539 200.083749 
L 364.44937 200.083749 
L 364.44937 200.083749 
L 364.128908 200.083749 
L 364.128908 200.083749 
L 363.946533 200.083749 
L 363.946533 200.083749 
L 363.707882 200.083749 
L 363.707882 200.083749 
L 363.693812 200.083749 
L 363.693812 200.083749 
L 363.66993 200.083749 
L 363.66993 200.083749 
L 363.356102 200.083749 
L 363.356102 200.083749 
L 363.083638 200.083749 
L 363.083638 200.083749 
L 362.663911 200.083749 
L 362.663911 200.083749 
L 362.484613 200.083749 
L 362.484613 200.083749 
L 362.228431 200.083749 
L 362.228431 200.083749 
L 362.038179 200.083749 
L 362.038179 200.083749 
L 361.735636 200.083749 
L 361.735636 200.083749 
L 361.545601 200.083749 
L 361.545601 200.083749 
L 361.286969 200.083749 
L 361.286969 200.083749 
L 361.094845 200.083749 
L 361.094845 200.083749 
L 360.742428 200.083749 
L 360.742428 200.083749 
L 360.571553 200.083749 
L 360.571553 200.083749 
L 360.343386 200.083749 
L 360.343386 200.083749 
L 360.125979 200.083749 
L 360.125979 200.083749 
L 359.783157 200.083749 
L 359.783157 200.083749 
L 359.610247 200.083749 
L 359.610247 200.083749 
L 359.412114 200.083749 
L 359.412114 202.023497 
L 356.566731 202.023497 
L 356.566731 202.023497 
L 354.633507 202.023497 
L 354.633507 202.023497 
L 350.76706 202.023497 
L 350.76706 202.023497 
L 348.833836 202.023497 
L 348.833836 202.023497 
L 347.867224 202.023497 
L 347.867224 202.023497 
L 345.450694 202.023497 
L 345.450694 202.023497 
L 344.484082 202.023497 
L 344.484082 202.023497 
L 344.000776 202.023497 
L 344.000776 202.023497 
L 343.51747 202.023497 
L 343.51747 202.023497 
L 341.10094 202.023497 
L 341.10094 202.023497 
L 338.68441 202.023497 
L 338.68441 202.023497 
L 337.717798 202.023497 
L 337.717798 202.023497 
L 332.884738 202.023497 
L 332.884738 202.023497 
L 332.401432 202.023497 
L 332.401432 202.023497 
L 331.918126 202.023497 
L 331.918126 202.023497 
L 331.43482 202.023497 
L 331.43482 202.023497 
L 329.984902 202.023497 
L 329.984902 202.023497 
L 328.051678 202.023497 
L 328.051678 202.023497 
L 327.568372 202.023497 
L 327.568372 202.023497 
L 327.085066 202.023497 
L 327.085066 202.023497 
L 326.118454 202.023497 
L 326.118454 202.023497 
L 324.668536 202.023497 
L 324.668536 202.023497 
L 320.318782 202.023497 
L 320.318782 202.023497 
L 319.35217 202.023497 
L 319.35217 202.023497 
L 318.868864 202.023497 
L 318.868864 202.023497 
L 317.902252 202.023497 
L 317.902252 202.023497 
L 316.452334 202.023497 
L 316.452334 202.023497 
L 315.969028 202.023497 
L 315.969028 202.023497 
L 309.68605 202.023497 
L 309.68605 202.023497 
L 306.786214 202.023497 
L 306.786214 202.023497 
L 304.852991 202.023497 
L 304.852991 202.023497 
L 303.886379 202.023497 
L 303.886379 202.023497 
L 302.436461 202.023497 
L 302.436461 202.023497 
L 301.469849 202.023497 
L 301.469849 202.023497 
L 297.120095 202.023497 
L 297.120095 202.023497 
L 296.153483 202.023497 
L 296.153483 202.023497 
L 295.670177 202.023497 
L 295.670177 202.023497 
L 295.186871 202.023497 
L 295.186871 202.023497 
L 294.220259 202.023497 
L 294.220259 202.023497 
L 293.736953 202.023497 
L 293.736953 202.023497 
L 293.253647 202.023497 
L 293.253647 202.023497 
L 284.554139 202.023497 
L 284.554139 202.023497 
L 284.070833 202.023497 
L 284.070833 202.023497 
L 282.137609 202.023497 
L 282.137609 202.023497 
L 274.404713 202.023497 
L 274.404713 202.023497 
L 272.954795 202.023497 
L 272.954795 202.023497 
L 271.504877 202.023497 
L 271.504877 202.023497 
L 270.054959 202.023497 
L 270.054959 202.023497 
L 269.571653 202.023497 
L 269.571653 202.023497 
L 269.088347 202.023497 
L 269.088347 202.023497 
L 268.605041 202.023497 
L 268.605041 202.023497 
L 268.121735 202.023497 
L 268.121735 202.023497 
L 264.738593 202.023497 
L 264.738593 202.023497 
L 263.288675 202.023497 
L 263.288675 202.023497 
L 261.838757 202.023497 
L 261.838757 202.023497 
L 261.355451 202.023497 
L 261.355451 202.023497 
L 260.872145 202.023497 
L 260.872145 202.023497 
L 259.422227 202.023497 
L 259.422227 202.023497 
L 258.938921 202.023497 
L 258.938921 202.023497 
L 257.972309 202.023497 
L 257.972309 202.023497 
L 256.039086 202.023497 
L 256.039086 202.023497 
L 249.756108 202.023497 
L 249.756108 202.023497 
L 248.789496 202.023497 
L 248.789496 202.023497 
L 248.30619 202.023497 
L 248.30619 202.023497 
L 247.822884 202.023497 
L 247.822884 202.023497 
L 247.339578 202.023497 
L 247.339578 202.023497 
L 246.856272 202.023497 
L 246.856272 202.023497 
L 246.372966 202.023497 
L 246.372966 202.023497 
L 245.88966 202.023497 
L 245.88966 202.023497 
L 245.406354 202.023497 
L 245.406354 202.023497 
L 244.439742 202.023497 
L 244.439742 202.023497 
L 240.573294 202.023497 
L 240.573294 202.023497 
L 240.089988 202.023497 
L 240.089988 202.023497 
L 239.606682 202.023497 
L 239.606682 202.023497 
L 239.123376 202.023497 
L 239.123376 202.023497 
L 238.64007 202.023497 
L 238.64007 202.023497 
L 238.156764 202.023497 
L 238.156764 202.023497 
L 237.190152 202.023497 
L 237.190152 202.023497 
L 235.740234 202.023497 
L 235.740234 202.023497 
L 235.256928 202.023497 
L 235.256928 202.023497 
L 232.840398 202.023497 
L 232.840398 202.023497 
L 228.490644 202.023497 
L 228.490644 202.023497 
L 227.524032 202.023497 
L 227.524032 202.023497 
L 227.040726 202.023497 
L 227.040726 202.023497 
L 226.55742 202.023497 
L 226.55742 202.023497 
L 226.074114 202.023497 
L 226.074114 202.023497 
L 225.107502 202.023497 
L 225.107502 202.023497 
L 223.657584 202.023497 
L 223.657584 202.023497 
L 223.174278 202.023497 
L 223.174278 202.023497 
L 221.72436 202.023497 
L 221.72436 202.023497 
L 217.857912 202.023497 
L 217.857912 202.023497 
L 217.374606 202.023497 
L 217.374606 202.023497 
L 216.8913 202.023497 
L 216.8913 202.023497 
L 215.924688 202.023497 
L 215.924688 202.023497 
L 214.958076 202.023497 
L 214.958076 202.023497 
L 213.991464 202.023497 
L 213.991464 202.023497 
L 213.508158 202.023497 
L 213.508158 202.023497 
L 213.024852 202.023497 
L 213.024852 202.023497 
L 212.541546 202.023497 
L 212.541546 202.023497 
L 212.05824 202.023497 
L 212.05824 202.023497 
L 211.091628 202.023497 
L 211.091628 202.023497 
L 210.125016 202.023497 
L 210.125016 202.023497 
L 205.291957 202.023497 
L 205.291957 202.023497 
L 204.808651 202.023497 
L 204.808651 202.023497 
L 203.358733 202.023497 
L 203.358733 202.172709 
L 202.875427 202.172709 
L 202.875427 202.471131 
L 202.392121 202.471131 
L 202.392121 202.620343 
L 200.942203 202.620343 
L 200.942203 203.067977 
L 200.458897 203.067977 
L 200.458897 203.217189 
L 199.492285 203.217189 
L 199.492285 203.3664 
L 194.659225 203.3664 
L 194.659225 203.664823 
L 194.175919 203.664823 
L 194.175919 203.664823 
L 193.692613 203.664823 
L 193.692613 203.963246 
L 193.209307 203.963246 
L 193.209307 204.41088 
L 192.726001 204.41088 
L 192.726001 204.41088 
L 191.759389 204.41088 
L 191.759389 204.709303 
L 191.276083 204.709303 
L 191.276083 204.858514 
L 189.826165 204.858514 
L 189.826165 205.156937 
L 189.342859 205.156937 
L 189.342859 206.649051 
L 188.376247 206.649051 
L 188.376247 206.947474 
L 187.892941 206.947474 
L 187.892941 207.096686 
L 186.926329 207.096686 
L 186.926329 207.693531 
L 186.443023 207.693531 
L 186.443023 207.693531 
L 185.959717 207.693531 
L 185.959717 207.842743 
L 183.059881 207.842743 
L 183.059881 208.141166 
L 182.093269 208.141166 
L 182.093269 208.5888 
L 181.609963 208.5888 
L 181.609963 208.887223 
L 181.126657 208.887223 
L 181.126657 209.782491 
L 180.643351 209.782491 
L 180.643351 210.230126 
L 180.160045 210.230126 
L 180.160045 211.125394 
L 179.676739 211.125394 
L 179.676739 211.573029 
L 178.710127 211.573029 
L 178.710127 211.72224 
L 176.776903 211.72224 
L 176.776903 211.871451 
L 176.293597 211.871451 
L 176.293597 212.169874 
L 174.843679 212.169874 
L 174.843679 212.169874 
L 172.910455 212.169874 
L 172.910455 212.468297 
L 172.427149 212.468297 
L 172.427149 212.617509 
L 171.943843 212.617509 
L 171.943843 212.76672 
L 170.977231 212.76672 
L 170.977231 213.214354 
L 170.493925 213.214354 
L 170.493925 213.214354 
L 170.010619 213.214354 
L 170.010619 213.512777 
L 169.527313 213.512777 
L 169.527313 214.258834 
L 168.560701 214.258834 
L 168.560701 214.557257 
L 167.594089 214.557257 
L 167.594089 214.557257 
L 166.627477 214.557257 
L 166.627477 214.706469 
L 166.144171 214.706469 
L 166.144171 214.85568 
L 165.660865 214.85568 
L 165.660865 215.154103 
L 165.177559 215.154103 
L 165.177559 215.303314 
L 164.694253 215.303314 
L 164.694253 215.452526 
L 164.210947 215.452526 
L 164.210947 215.750949 
L 163.727641 215.750949 
L 163.727641 215.750949 
L 163.244335 215.750949 
L 163.244335 215.90016 
L 159.377888 215.90016 
L 159.377888 215.90016 
L 158.894582 215.90016 
L 158.894582 216.198583 
L 158.411276 216.198583 
L 158.411276 216.347794 
L 157.92797 216.347794 
L 157.92797 216.497006 
L 157.444664 216.497006 
L 157.444664 216.646217 
L 156.961358 216.646217 
L 156.961358 216.94464 
L 155.994746 216.94464 
L 155.994746 216.94464 
L 155.51144 216.94464 
L 155.51144 217.243063 
L 154.544828 217.243063 
L 154.544828 217.541486 
L 153.578216 217.541486 
L 153.578216 217.98912 
L 152.611604 217.98912 
L 152.611604 218.287543 
L 150.67838 218.287543 
L 150.67838 218.287543 
L 148.745156 218.287543 
L 148.745156 218.436754 
L 147.778544 218.436754 
L 147.778544 218.735177 
L 147.295238 218.735177 
L 147.295238 218.884389 
L 146.811932 218.884389 
L 146.811932 219.182811 
L 146.328626 219.182811 
L 146.328626 219.481234 
L 145.84532 219.481234 
L 145.84532 219.779657 
L 145.362014 219.779657 
L 145.362014 219.928869 
L 144.395402 219.928869 
L 144.395402 220.227291 
L 143.912096 220.227291 
L 143.912096 220.525714 
L 143.42879 220.525714 
L 143.42879 220.973349 
L 142.945484 220.973349 
L 142.945484 221.271771 
L 142.462178 221.271771 
L 142.462178 221.570194 
L 141.978872 221.570194 
L 141.978872 221.719406 
L 141.495566 221.719406 
L 141.495566 222.316251 
L 141.01226 222.316251 
L 141.01226 222.465463 
L 140.528954 222.465463 
L 140.528954 222.763886 
L 136.662506 222.763886 
L 136.662506 223.509943 
L 136.1792 223.509943 
L 136.1792 223.659154 
L 134.245976 223.659154 
L 134.245976 224.256 
L 132.796058 224.256 
L 132.796058 224.554423 
L 132.312752 224.554423 
L 132.312752 225.002057 
L 131.34614 225.002057 
L 131.34614 225.151269 
L 130.862834 225.151269 
L 130.862834 225.30048 
L 129.896222 225.30048 
L 129.896222 225.449691 
L 121.68002 225.449691 
L 121.68002 225.598903 
L 119.746796 225.598903 
L 119.746796 225.748114 
L 119.26349 225.748114 
L 119.26349 226.046537 
L 118.780184 226.046537 
L 118.780184 226.195749 
L 118.296878 226.195749 
L 118.296878 226.34496 
L 117.330266 226.34496 
L 117.330266 226.643383 
L 112.980512 226.643383 
L 112.980512 227.240229 
L 112.497206 227.240229 
L 112.497206 227.38944 
L 112.0139 227.38944 
L 112.0139 227.538651 
L 111.530594 227.538651 
L 111.530594 227.687863 
L 111.047289 227.687863 
L 111.047289 227.837074 
L 110.563983 227.837074 
L 110.563983 227.837074 
L 110.080677 227.837074 
L 110.080677 228.135497 
L 109.597371 228.135497 
L 109.597371 228.43392 
L 109.114065 228.43392 
L 109.114065 228.732343 
L 108.630759 228.732343 
L 108.630759 229.179977 
L 108.147453 229.179977 
L 108.147453 229.627611 
L 107.664147 229.627611 
L 107.664147 229.926034 
L 106.697535 229.926034 
L 106.697535 230.224457 
L 106.214229 230.224457 
L 106.214229 230.373669 
L 105.730923 230.373669 
L 105.730923 230.52288 
L 104.281005 230.52288 
L 104.281005 230.672091 
L 101.381169 230.672091 
L 101.381169 231.119726 
L 100.897863 231.119726 
L 100.897863 231.268937 
L 100.414557 231.268937 
L 100.414557 231.418149 
L 99.931251 231.418149 
L 99.931251 231.716571 
L 99.447945 231.716571 
L 99.447945 232.014994 
L 98.964639 232.014994 
L 98.964639 232.61184 
L 98.481333 232.61184 
L 98.481333 232.910263 
L 97.998027 232.910263 
L 97.998027 233.65632 
L 97.514721 233.65632 
L 97.514721 234.103954 
L 97.031415 234.103954 
L 97.031415 234.850011 
L 96.548109 234.850011 
L 96.548109 234.999223 
L 96.064803 234.999223 
L 96.064803 235.297646 
L 95.581497 235.297646 
L 95.581497 236.043703 
L 95.098191 236.043703 
L 95.098191 236.342126 
L 94.614885 236.342126 
L 94.614885 236.640549 
L 94.131579 236.640549 
L 94.131579 236.78976 
L 93.648273 236.78976 
L 93.648273 237.088183 
L 93.164967 237.088183 
L 93.164967 237.237394 
L 89.781825 237.237394 
L 89.781825 237.386606 
L 89.298519 237.386606 
L 89.298519 237.685029 
L 88.815213 237.685029 
L 88.815213 238.281874 
L 87.848601 238.281874 
L 87.848601 238.87872 
L 86.881989 238.87872 
L 86.881989 239.326354 
L 86.398683 239.326354 
L 86.398683 239.773989 
L 85.915377 239.773989 
L 85.915377 239.773989 
L 85.432071 239.773989 
L 85.432071 240.370834 
L 84.948765 240.370834 
L 84.948765 241.713737 
L 84.465459 241.713737 
L 84.465459 242.310583 
L 83.982153 242.310583 
L 83.982153 243.205851 
L 83.498847 243.205851 
L 83.498847 244.250331 
L 83.015541 244.250331 
L 83.015541 244.548754 
L 82.532235 244.548754 
L 82.532235 245.1456 
L 81.565623 245.1456 
L 81.565623 245.444023 
L 81.082317 245.444023 
L 81.082317 245.593234 
L 80.599011 245.593234 
L 80.599011 245.742446 
L 80.115705 245.742446 
L 80.115705 245.742446 
L 79.632399 245.742446 
L 79.632399 246.040869 
L 79.149093 246.040869 
L 79.149093 246.19008 
L 78.665787 246.19008 
L 78.665787 246.339291 
L 78.182481 246.339291 
L 78.182481 247.532983 
L 77.699175 247.532983 
L 77.699175 249.025097 
L 77.215869 249.025097 
L 77.215869 252.009326 
L 76.732563 252.009326 
L 76.732563 254.396709 
L 76.249257 254.396709 
L 76.249257 257.380937 
L 75.765951 257.380937 
L 75.765951 261.708069 
L 75.282645 261.708069 
L 75.282645 269.019429 
L 74.799339 269.019429 
L 74.799339 273.794194 
L 74.316033 273.794194 
L 74.316033 275.584731 
L 73.832727 275.584731 
L 73.832727 276.48 
L 73.832727 276.48 
z
" clip-path="url(#p38e9fec053)" style="fill: #fa448c; fill-opacity: 0.8"/>
   </g>
   <g id="PolyCollection_2">
    <path d="M 73.832727 276.48 
L 73.832727 276.48 
L 73.832727 276.48 
L 73.832727 275.584731 
L 74.316033 275.584731 
L 74.316033 273.794194 
L 74.799339 273.794194 
L 74.799339 269.019429 
L 75.282645 269.019429 
L 75.282645 261.708069 
L 75.765951 261.708069 
L 75.765951 257.380937 
L 76.249257 257.380937 
L 76.249257 254.396709 
L 76.732563 254.396709 
L 76.732563 252.009326 
L 77.215869 252.009326 
L 77.215869 249.025097 
L 77.699175 249.025097 
L 77.699175 247.532983 
L 78.182481 247.532983 
L 78.182481 246.339291 
L 78.665787 246.339291 
L 78.665787 246.19008 
L 79.149093 246.19008 
L 79.149093 246.040869 
L 79.632399 246.040869 
L 79.632399 245.742446 
L 80.115705 245.742446 
L 80.115705 245.742446 
L 80.599011 245.742446 
L 80.599011 245.593234 
L 81.082317 245.593234 
L 81.082317 245.444023 
L 81.565623 245.444023 
L 81.565623 245.1456 
L 82.532235 245.1456 
L 82.532235 244.548754 
L 83.015541 244.548754 
L 83.015541 244.250331 
L 83.498847 244.250331 
L 83.498847 243.205851 
L 83.982153 243.205851 
L 83.982153 242.310583 
L 84.465459 242.310583 
L 84.465459 241.713737 
L 84.948765 241.713737 
L 84.948765 240.370834 
L 85.432071 240.370834 
L 85.432071 239.773989 
L 85.915377 239.773989 
L 85.915377 239.773989 
L 86.398683 239.773989 
L 86.398683 239.326354 
L 86.881989 239.326354 
L 86.881989 238.87872 
L 87.848601 238.87872 
L 87.848601 238.281874 
L 88.815213 238.281874 
L 88.815213 237.685029 
L 89.298519 237.685029 
L 89.298519 237.386606 
L 89.781825 237.386606 
L 89.781825 237.237394 
L 93.164967 237.237394 
L 93.164967 237.088183 
L 93.648273 237.088183 
L 93.648273 236.78976 
L 94.131579 236.78976 
L 94.131579 236.640549 
L 94.614885 236.640549 
L 94.614885 236.342126 
L 95.098191 236.342126 
L 95.098191 236.043703 
L 95.581497 236.043703 
L 95.581497 235.297646 
L 96.064803 235.297646 
L 96.064803 234.999223 
L 96.548109 234.999223 
L 96.548109 234.850011 
L 97.031415 234.850011 
L 97.031415 234.103954 
L 97.514721 234.103954 
L 97.514721 233.65632 
L 97.998027 233.65632 
L 97.998027 232.910263 
L 98.481333 232.910263 
L 98.481333 232.61184 
L 98.964639 232.61184 
L 98.964639 232.014994 
L 99.447945 232.014994 
L 99.447945 231.716571 
L 99.931251 231.716571 
L 99.931251 231.418149 
L 100.414557 231.418149 
L 100.414557 231.268937 
L 100.897863 231.268937 
L 100.897863 231.119726 
L 101.381169 231.119726 
L 101.381169 230.672091 
L 104.281005 230.672091 
L 104.281005 230.52288 
L 105.730923 230.52288 
L 105.730923 230.373669 
L 106.214229 230.373669 
L 106.214229 230.224457 
L 106.697535 230.224457 
L 106.697535 229.926034 
L 107.664147 229.926034 
L 107.664147 229.627611 
L 108.147453 229.627611 
L 108.147453 229.179977 
L 108.630759 229.179977 
L 108.630759 228.732343 
L 109.114065 228.732343 
L 109.114065 228.43392 
L 109.597371 228.43392 
L 109.597371 228.135497 
L 110.080677 228.135497 
L 110.080677 227.837074 
L 110.563983 227.837074 
L 110.563983 227.837074 
L 111.047289 227.837074 
L 111.047289 227.687863 
L 111.530594 227.687863 
L 111.530594 227.538651 
L 112.0139 227.538651 
L 112.0139 227.38944 
L 112.497206 227.38944 
L 112.497206 227.240229 
L 112.980512 227.240229 
L 112.980512 226.643383 
L 117.330266 226.643383 
L 117.330266 226.34496 
L 118.296878 226.34496 
L 118.296878 226.195749 
L 118.780184 226.195749 
L 118.780184 226.046537 
L 119.26349 226.046537 
L 119.26349 225.748114 
L 119.746796 225.748114 
L 119.746796 225.598903 
L 121.68002 225.598903 
L 121.68002 225.449691 
L 129.896222 225.449691 
L 129.896222 225.30048 
L 130.862834 225.30048 
L 130.862834 225.151269 
L 131.34614 225.151269 
L 131.34614 225.002057 
L 132.312752 225.002057 
L 132.312752 224.554423 
L 132.796058 224.554423 
L 132.796058 224.256 
L 134.245976 224.256 
L 134.245976 223.659154 
L 136.1792 223.659154 
L 136.1792 223.509943 
L 136.662506 223.509943 
L 136.662506 222.763886 
L 140.528954 222.763886 
L 140.528954 222.465463 
L 141.01226 222.465463 
L 141.01226 222.316251 
L 141.495566 222.316251 
L 141.495566 221.719406 
L 141.978872 221.719406 
L 141.978872 221.570194 
L 142.462178 221.570194 
L 142.462178 221.271771 
L 142.945484 221.271771 
L 142.945484 220.973349 
L 143.42879 220.973349 
L 143.42879 220.525714 
L 143.912096 220.525714 
L 143.912096 220.227291 
L 144.395402 220.227291 
L 144.395402 219.928869 
L 145.362014 219.928869 
L 145.362014 219.779657 
L 145.84532 219.779657 
L 145.84532 219.481234 
L 146.328626 219.481234 
L 146.328626 219.182811 
L 146.811932 219.182811 
L 146.811932 218.884389 
L 147.295238 218.884389 
L 147.295238 218.735177 
L 147.778544 218.735177 
L 147.778544 218.436754 
L 148.745156 218.436754 
L 148.745156 218.287543 
L 150.67838 218.287543 
L 150.67838 218.287543 
L 152.611604 218.287543 
L 152.611604 217.98912 
L 153.578216 217.98912 
L 153.578216 217.541486 
L 154.544828 217.541486 
L 154.544828 217.243063 
L 155.51144 217.243063 
L 155.51144 216.94464 
L 155.994746 216.94464 
L 155.994746 216.94464 
L 156.961358 216.94464 
L 156.961358 216.646217 
L 157.444664 216.646217 
L 157.444664 216.497006 
L 157.92797 216.497006 
L 157.92797 216.347794 
L 158.411276 216.347794 
L 158.411276 216.198583 
L 158.894582 216.198583 
L 158.894582 215.90016 
L 159.377888 215.90016 
L 159.377888 215.90016 
L 163.244335 215.90016 
L 163.244335 215.750949 
L 163.727641 215.750949 
L 163.727641 215.750949 
L 164.210947 215.750949 
L 164.210947 215.452526 
L 164.694253 215.452526 
L 164.694253 215.303314 
L 165.177559 215.303314 
L 165.177559 215.154103 
L 165.660865 215.154103 
L 165.660865 214.85568 
L 166.144171 214.85568 
L 166.144171 214.706469 
L 166.627477 214.706469 
L 166.627477 214.557257 
L 167.594089 214.557257 
L 167.594089 214.557257 
L 168.560701 214.557257 
L 168.560701 214.258834 
L 169.527313 214.258834 
L 169.527313 213.512777 
L 170.010619 213.512777 
L 170.010619 213.214354 
L 170.493925 213.214354 
L 170.493925 213.214354 
L 170.977231 213.214354 
L 170.977231 212.76672 
L 171.943843 212.76672 
L 171.943843 212.617509 
L 172.427149 212.617509 
L 172.427149 212.468297 
L 172.910455 212.468297 
L 172.910455 212.169874 
L 174.843679 212.169874 
L 174.843679 212.169874 
L 176.293597 212.169874 
L 176.293597 211.871451 
L 176.776903 211.871451 
L 176.776903 211.72224 
L 178.710127 211.72224 
L 178.710127 211.573029 
L 179.676739 211.573029 
L 179.676739 211.125394 
L 180.160045 211.125394 
L 180.160045 210.230126 
L 180.643351 210.230126 
L 180.643351 209.782491 
L 181.126657 209.782491 
L 181.126657 208.887223 
L 181.609963 208.887223 
L 181.609963 208.5888 
L 182.093269 208.5888 
L 182.093269 208.141166 
L 183.059881 208.141166 
L 183.059881 207.842743 
L 185.959717 207.842743 
L 185.959717 207.693531 
L 186.443023 207.693531 
L 186.443023 207.693531 
L 186.926329 207.693531 
L 186.926329 207.096686 
L 187.892941 207.096686 
L 187.892941 206.947474 
L 188.376247 206.947474 
L 188.376247 206.649051 
L 189.342859 206.649051 
L 189.342859 205.156937 
L 189.826165 205.156937 
L 189.826165 204.858514 
L 191.276083 204.858514 
L 191.276083 204.709303 
L 191.759389 204.709303 
L 191.759389 204.41088 
L 192.726001 204.41088 
L 192.726001 204.41088 
L 193.209307 204.41088 
L 193.209307 203.963246 
L 193.692613 203.963246 
L 193.692613 203.664823 
L 194.175919 203.664823 
L 194.175919 203.664823 
L 194.659225 203.664823 
L 194.659225 203.3664 
L 199.492285 203.3664 
L 199.492285 203.217189 
L 200.458897 203.217189 
L 200.458897 203.067977 
L 200.942203 203.067977 
L 200.942203 202.620343 
L 202.392121 202.620343 
L 202.392121 202.471131 
L 202.875427 202.471131 
L 202.875427 202.172709 
L 203.358733 202.172709 
L 203.358733 202.023497 
L 204.808651 202.023497 
L 204.808651 202.023497 
L 205.291957 202.023497 
L 205.291957 202.023497 
L 210.125016 202.023497 
L 210.125016 202.023497 
L 211.091628 202.023497 
L 211.091628 202.023497 
L 212.05824 202.023497 
L 212.05824 202.023497 
L 212.541546 202.023497 
L 212.541546 202.023497 
L 213.024852 202.023497 
L 213.024852 202.023497 
L 213.508158 202.023497 
L 213.508158 202.023497 
L 213.991464 202.023497 
L 213.991464 202.023497 
L 214.958076 202.023497 
L 214.958076 202.023497 
L 215.924688 202.023497 
L 215.924688 202.023497 
L 216.8913 202.023497 
L 216.8913 202.023497 
L 217.374606 202.023497 
L 217.374606 202.023497 
L 217.857912 202.023497 
L 217.857912 202.023497 
L 221.72436 202.023497 
L 221.72436 202.023497 
L 223.174278 202.023497 
L 223.174278 202.023497 
L 223.657584 202.023497 
L 223.657584 202.023497 
L 225.107502 202.023497 
L 225.107502 202.023497 
L 226.074114 202.023497 
L 226.074114 202.023497 
L 226.55742 202.023497 
L 226.55742 202.023497 
L 227.040726 202.023497 
L 227.040726 202.023497 
L 227.524032 202.023497 
L 227.524032 202.023497 
L 228.490644 202.023497 
L 228.490644 202.023497 
L 232.840398 202.023497 
L 232.840398 202.023497 
L 235.256928 202.023497 
L 235.256928 202.023497 
L 235.740234 202.023497 
L 235.740234 202.023497 
L 237.190152 202.023497 
L 237.190152 202.023497 
L 238.156764 202.023497 
L 238.156764 202.023497 
L 238.64007 202.023497 
L 238.64007 202.023497 
L 239.123376 202.023497 
L 239.123376 202.023497 
L 239.606682 202.023497 
L 239.606682 202.023497 
L 240.089988 202.023497 
L 240.089988 202.023497 
L 240.573294 202.023497 
L 240.573294 202.023497 
L 244.439742 202.023497 
L 244.439742 202.023497 
L 245.406354 202.023497 
L 245.406354 202.023497 
L 245.88966 202.023497 
L 245.88966 202.023497 
L 246.372966 202.023497 
L 246.372966 202.023497 
L 246.856272 202.023497 
L 246.856272 202.023497 
L 247.339578 202.023497 
L 247.339578 202.023497 
L 247.822884 202.023497 
L 247.822884 202.023497 
L 248.30619 202.023497 
L 248.30619 202.023497 
L 248.789496 202.023497 
L 248.789496 202.023497 
L 249.756108 202.023497 
L 249.756108 202.023497 
L 256.039086 202.023497 
L 256.039086 202.023497 
L 257.972309 202.023497 
L 257.972309 202.023497 
L 258.938921 202.023497 
L 258.938921 202.023497 
L 259.422227 202.023497 
L 259.422227 202.023497 
L 260.872145 202.023497 
L 260.872145 202.023497 
L 261.355451 202.023497 
L 261.355451 202.023497 
L 261.838757 202.023497 
L 261.838757 202.023497 
L 263.288675 202.023497 
L 263.288675 202.023497 
L 264.738593 202.023497 
L 264.738593 202.023497 
L 268.121735 202.023497 
L 268.121735 202.023497 
L 268.605041 202.023497 
L 268.605041 202.023497 
L 269.088347 202.023497 
L 269.088347 202.023497 
L 269.571653 202.023497 
L 269.571653 202.023497 
L 270.054959 202.023497 
L 270.054959 202.023497 
L 271.504877 202.023497 
L 271.504877 202.023497 
L 272.954795 202.023497 
L 272.954795 202.023497 
L 274.404713 202.023497 
L 274.404713 202.023497 
L 282.137609 202.023497 
L 282.137609 202.023497 
L 284.070833 202.023497 
L 284.070833 202.023497 
L 284.554139 202.023497 
L 284.554139 202.023497 
L 293.253647 202.023497 
L 293.253647 202.023497 
L 293.736953 202.023497 
L 293.736953 202.023497 
L 294.220259 202.023497 
L 294.220259 202.023497 
L 295.186871 202.023497 
L 295.186871 202.023497 
L 295.670177 202.023497 
L 295.670177 202.023497 
L 296.153483 202.023497 
L 296.153483 202.023497 
L 297.120095 202.023497 
L 297.120095 202.023497 
L 301.469849 202.023497 
L 301.469849 202.023497 
L 302.436461 202.023497 
L 302.436461 202.023497 
L 303.886379 202.023497 
L 303.886379 202.023497 
L 304.852991 202.023497 
L 304.852991 202.023497 
L 306.786214 202.023497 
L 306.786214 202.023497 
L 309.68605 202.023497 
L 309.68605 202.023497 
L 315.969028 202.023497 
L 315.969028 202.023497 
L 316.452334 202.023497 
L 316.452334 202.023497 
L 317.902252 202.023497 
L 317.902252 202.023497 
L 318.868864 202.023497 
L 318.868864 202.023497 
L 319.35217 202.023497 
L 319.35217 202.023497 
L 320.318782 202.023497 
L 320.318782 202.023497 
L 324.668536 202.023497 
L 324.668536 202.023497 
L 326.118454 202.023497 
L 326.118454 202.023497 
L 327.085066 202.023497 
L 327.085066 202.023497 
L 327.568372 202.023497 
L 327.568372 202.023497 
L 328.051678 202.023497 
L 328.051678 202.023497 
L 329.984902 202.023497 
L 329.984902 202.023497 
L 331.43482 202.023497 
L 331.43482 202.023497 
L 331.918126 202.023497 
L 331.918126 202.023497 
L 332.401432 202.023497 
L 332.401432 202.023497 
L 332.884738 202.023497 
L 332.884738 202.023497 
L 337.717798 202.023497 
L 337.717798 202.023497 
L 338.68441 202.023497 
L 338.68441 202.023497 
L 341.10094 202.023497 
L 341.10094 202.023497 
L 343.51747 202.023497 
L 343.51747 202.023497 
L 344.000776 202.023497 
L 344.000776 202.023497 
L 344.484082 202.023497 
L 344.484082 202.023497 
L 345.450694 202.023497 
L 345.450694 202.023497 
L 347.867224 202.023497 
L 347.867224 202.023497 
L 348.833836 202.023497 
L 348.833836 202.023497 
L 350.76706 202.023497 
L 350.76706 202.023497 
L 354.633507 202.023497 
L 354.633507 202.023497 
L 356.566731 202.023497 
L 356.566731 202.023497 
L 359.412114 202.023497 
L 359.412114 200.083749 
L 359.610247 200.083749 
L 359.610247 200.083749 
L 359.783157 200.083749 
L 359.783157 200.083749 
L 360.125979 200.083749 
L 360.125979 200.083749 
L 360.343386 200.083749 
L 360.343386 200.083749 
L 360.571553 200.083749 
L 360.571553 200.083749 
L 360.742428 200.083749 
L 360.742428 200.083749 
L 361.094845 200.083749 
L 361.094845 200.083749 
L 361.286969 200.083749 
L 361.286969 200.083749 
L 361.545601 200.083749 
L 361.545601 200.083749 
L 361.735636 200.083749 
L 361.735636 200.083749 
L 362.038179 200.083749 
L 362.038179 200.083749 
L 362.228431 200.083749 
L 362.228431 200.083749 
L 362.484613 200.083749 
L 362.484613 200.083749 
L 362.663911 200.083749 
L 362.663911 200.083749 
L 363.083638 200.083749 
L 363.083638 200.083749 
L 363.356102 200.083749 
L 363.356102 200.083749 
L 363.66993 200.083749 
L 363.66993 200.083749 
L 363.693812 200.083749 
L 363.693812 200.083749 
L 363.707882 200.083749 
L 363.707882 200.083749 
L 363.946533 200.083749 
L 363.946533 200.083749 
L 364.128908 200.083749 
L 364.128908 200.083749 
L 364.44937 200.083749 
L 364.44937 200.083749 
L 364.656539 200.083749 
L 364.656539 200.083749 
L 365.005271 200.083749 
L 365.005271 200.083749 
L 365.694475 200.083749 
L 365.694475 200.083749 
L 365.714426 200.083749 
L 365.714426 200.083749 
L 365.73908 200.083749 
L 365.73908 200.083749 
L 365.92019 200.083749 
L 365.92019 200.083749 
L 366.125136 200.083749 
L 366.125136 200.083749 
L 366.347715 200.083749 
L 366.347715 200.083749 
L 366.531131 200.083749 
L 366.531131 200.083749 
L 366.867773 200.083749 
L 366.867773 200.083749 
L 367.321445 200.083749 
L 367.321445 200.083749 
L 372.690371 200.083749 
L 372.690371 200.083749 
L 374.08321 200.083749 
L 374.08321 200.083749 
L 375.270258 200.083749 
L 375.270258 200.083749 
L 375.545712 200.083749 
L 375.545712 200.083749 
L 376.896902 200.083749 
L 376.896902 200.083749 
L 377.239518 200.083749 
L 377.239518 200.083749 
L 377.516345 200.083749 
L 377.516345 200.083749 
L 377.948481 200.083749 
L 377.948481 200.083749 
L 385.247321 200.083749 
L 385.247321 200.083749 
L 388.215935 200.083749 
L 388.215935 200.083749 
L 390.255463 200.083749 
L 390.255463 200.083749 
L 390.525823 200.083749 
L 390.525823 200.083749 
L 391.513311 200.083749 
L 391.513311 200.083749 
L 392.363661 200.083749 
L 392.363661 200.083749 
L 396.544975 200.083749 
L 396.544975 200.083749 
L 397.467894 200.083749 
L 397.467894 200.083749 
L 398.487273 200.083749 
L 398.487273 200.083749 
L 398.487273 147.412114 
L 398.487273 147.412114 
L 398.487273 147.561326 
L 397.467894 147.561326 
L 397.467894 147.710537 
L 396.544975 147.710537 
L 396.544975 147.859749 
L 392.363661 147.859749 
L 392.363661 148.00896 
L 391.513311 148.00896 
L 391.513311 146.367634 
L 390.525823 146.367634 
L 390.525823 146.815269 
L 390.255463 146.815269 
L 390.255463 146.96448 
L 388.215935 146.96448 
L 388.215935 147.113691 
L 385.247321 147.113691 
L 385.247321 147.262903 
L 377.948481 147.262903 
L 377.948481 147.561326 
L 377.516345 147.561326 
L 377.516345 147.710537 
L 377.239518 147.710537 
L 377.239518 148.00896 
L 376.896902 148.00896 
L 376.896902 148.158171 
L 375.545712 148.158171 
L 375.545712 148.307383 
L 375.270258 148.307383 
L 375.270258 148.456594 
L 374.08321 148.456594 
L 374.08321 148.605806 
L 372.690371 148.605806 
L 372.690371 148.755017 
L 367.321445 148.755017 
L 367.321445 149.05344 
L 366.867773 149.05344 
L 366.867773 149.202651 
L 366.531131 149.202651 
L 366.531131 149.202651 
L 366.347715 149.202651 
L 366.347715 149.202651 
L 366.125136 149.202651 
L 366.125136 149.202651 
L 365.92019 149.202651 
L 365.92019 149.202651 
L 365.73908 149.202651 
L 365.73908 149.202651 
L 365.714426 149.202651 
L 365.714426 149.202651 
L 365.694475 149.202651 
L 365.694475 149.202651 
L 365.005271 149.202651 
L 365.005271 149.202651 
L 364.656539 149.202651 
L 364.656539 149.202651 
L 364.44937 149.202651 
L 364.44937 149.202651 
L 364.128908 149.202651 
L 364.128908 149.202651 
L 363.946533 149.202651 
L 363.946533 149.202651 
L 363.707882 149.202651 
L 363.707882 149.202651 
L 363.693812 149.202651 
L 363.693812 149.202651 
L 363.66993 149.202651 
L 363.66993 149.202651 
L 363.356102 149.202651 
L 363.356102 149.501074 
L 363.083638 149.501074 
L 363.083638 149.650286 
L 362.663911 149.650286 
L 362.663911 149.650286 
L 362.484613 149.650286 
L 362.484613 150.247131 
L 362.228431 150.247131 
L 362.228431 150.396343 
L 362.038179 150.396343 
L 362.038179 150.396343 
L 361.735636 150.396343 
L 361.735636 150.396343 
L 361.545601 150.396343 
L 361.545601 150.396343 
L 361.286969 150.396343 
L 361.286969 150.396343 
L 361.094845 150.396343 
L 361.094845 150.396343 
L 360.742428 150.396343 
L 360.742428 150.396343 
L 360.571553 150.396343 
L 360.571553 150.396343 
L 360.343386 150.396343 
L 360.343386 150.396343 
L 360.125979 150.396343 
L 360.125979 150.396343 
L 359.783157 150.396343 
L 359.783157 150.396343 
L 359.610247 150.396343 
L 359.610247 150.396343 
L 359.412114 150.396343 
L 359.412114 153.828206 
L 356.566731 153.828206 
L 356.566731 153.977417 
L 354.633507 153.977417 
L 354.633507 153.977417 
L 350.76706 153.977417 
L 350.76706 154.126629 
L 348.833836 154.126629 
L 348.833836 154.27584 
L 347.867224 154.27584 
L 347.867224 154.425051 
L 345.450694 154.425051 
L 345.450694 154.872686 
L 344.484082 154.872686 
L 344.484082 154.872686 
L 344.000776 154.872686 
L 344.000776 155.171109 
L 343.51747 155.171109 
L 343.51747 156.514011 
L 341.10094 156.514011 
L 341.10094 156.961646 
L 338.68441 156.961646 
L 338.68441 157.110857 
L 337.717798 157.110857 
L 337.717798 157.260069 
L 332.884738 157.260069 
L 332.884738 157.707703 
L 332.401432 157.707703 
L 332.401432 158.155337 
L 331.918126 158.155337 
L 331.918126 158.45376 
L 331.43482 158.45376 
L 331.43482 158.602971 
L 329.984902 158.602971 
L 329.984902 158.752183 
L 328.051678 158.752183 
L 328.051678 158.752183 
L 327.568372 158.752183 
L 327.568372 158.901394 
L 327.085066 158.901394 
L 327.085066 159.050606 
L 326.118454 159.050606 
L 326.118454 159.199817 
L 324.668536 159.199817 
L 324.668536 159.349029 
L 320.318782 159.349029 
L 320.318782 159.49824 
L 319.35217 159.49824 
L 319.35217 159.796663 
L 318.868864 159.796663 
L 318.868864 160.095086 
L 317.902252 160.095086 
L 317.902252 160.54272 
L 316.452334 160.54272 
L 316.452334 160.691931 
L 315.969028 160.691931 
L 315.969028 160.691931 
L 309.68605 160.691931 
L 309.68605 160.841143 
L 306.786214 160.841143 
L 306.786214 160.990354 
L 304.852991 160.990354 
L 304.852991 161.288777 
L 303.886379 161.288777 
L 303.886379 161.288777 
L 302.436461 161.288777 
L 302.436461 161.5872 
L 301.469849 161.5872 
L 301.469849 161.5872 
L 297.120095 161.5872 
L 297.120095 161.885623 
L 296.153483 161.885623 
L 296.153483 162.034834 
L 295.670177 162.034834 
L 295.670177 162.333257 
L 295.186871 162.333257 
L 295.186871 162.333257 
L 294.220259 162.333257 
L 294.220259 162.333257 
L 293.736953 162.333257 
L 293.736953 162.780891 
L 293.253647 162.780891 
L 293.253647 162.780891 
L 284.554139 162.780891 
L 284.554139 162.930103 
L 284.070833 162.930103 
L 284.070833 163.079314 
L 282.137609 163.079314 
L 282.137609 163.228526 
L 274.404713 163.228526 
L 274.404713 163.377737 
L 272.954795 163.377737 
L 272.954795 163.526949 
L 271.504877 163.526949 
L 271.504877 163.974583 
L 270.054959 163.974583 
L 270.054959 164.72064 
L 269.571653 164.72064 
L 269.571653 165.019063 
L 269.088347 165.019063 
L 269.088347 165.168274 
L 268.605041 165.168274 
L 268.605041 165.168274 
L 268.121735 165.168274 
L 268.121735 165.317486 
L 264.738593 165.317486 
L 264.738593 165.317486 
L 263.288675 165.317486 
L 263.288675 165.914331 
L 261.838757 165.914331 
L 261.838757 166.063543 
L 261.355451 166.063543 
L 261.355451 166.511177 
L 260.872145 166.511177 
L 260.872145 166.660389 
L 259.422227 166.660389 
L 259.422227 166.8096 
L 258.938921 166.8096 
L 258.938921 167.108023 
L 257.972309 167.108023 
L 257.972309 167.108023 
L 256.039086 167.108023 
L 256.039086 167.406446 
L 249.756108 167.406446 
L 249.756108 167.406446 
L 248.789496 167.406446 
L 248.789496 167.555657 
L 248.30619 167.555657 
L 248.30619 167.704869 
L 247.822884 167.704869 
L 247.822884 167.85408 
L 247.339578 167.85408 
L 247.339578 168.003291 
L 246.856272 168.003291 
L 246.856272 168.152503 
L 246.372966 168.152503 
L 246.372966 168.450926 
L 245.88966 168.450926 
L 245.88966 169.495406 
L 245.406354 169.495406 
L 245.406354 170.092251 
L 244.439742 170.092251 
L 244.439742 170.539886 
L 240.573294 170.539886 
L 240.573294 170.689097 
L 240.089988 170.689097 
L 240.089988 170.838309 
L 239.606682 170.838309 
L 239.606682 171.136731 
L 239.123376 171.136731 
L 239.123376 171.584366 
L 238.64007 171.584366 
L 238.64007 172.181211 
L 238.156764 172.181211 
L 238.156764 172.927269 
L 237.190152 172.927269 
L 237.190152 173.374903 
L 235.740234 173.374903 
L 235.740234 173.524114 
L 235.256928 173.524114 
L 235.256928 173.822537 
L 232.840398 173.822537 
L 232.840398 173.971749 
L 228.490644 173.971749 
L 228.490644 174.12096 
L 227.524032 174.12096 
L 227.524032 174.270171 
L 227.040726 174.270171 
L 227.040726 174.419383 
L 226.55742 174.419383 
L 226.55742 174.568594 
L 226.074114 174.568594 
L 226.074114 174.867017 
L 225.107502 174.867017 
L 225.107502 175.463863 
L 223.657584 175.463863 
L 223.657584 175.613074 
L 223.174278 175.613074 
L 223.174278 175.762286 
L 221.72436 175.762286 
L 221.72436 176.060709 
L 217.857912 176.060709 
L 217.857912 176.20992 
L 217.374606 176.20992 
L 217.374606 176.359131 
L 216.8913 176.359131 
L 216.8913 176.359131 
L 215.924688 176.359131 
L 215.924688 176.508343 
L 214.958076 176.508343 
L 214.958076 176.657554 
L 213.991464 176.657554 
L 213.991464 177.2544 
L 213.508158 177.2544 
L 213.508158 177.851246 
L 213.024852 177.851246 
L 213.024852 178.149669 
L 212.541546 178.149669 
L 212.541546 178.448091 
L 212.05824 178.448091 
L 212.05824 178.746514 
L 211.091628 178.746514 
L 211.091628 179.044937 
L 210.125016 179.044937 
L 210.125016 179.194149 
L 205.291957 179.194149 
L 205.291957 179.492571 
L 204.808651 179.492571 
L 204.808651 179.940206 
L 203.358733 179.940206 
L 203.358733 180.089417 
L 202.875427 180.089417 
L 202.875427 180.537051 
L 202.392121 180.537051 
L 202.392121 180.686263 
L 200.942203 180.686263 
L 200.942203 181.133897 
L 200.458897 181.133897 
L 200.458897 181.283109 
L 199.492285 181.283109 
L 199.492285 181.43232 
L 194.659225 181.43232 
L 194.659225 182.029166 
L 194.175919 182.029166 
L 194.175919 182.029166 
L 193.692613 182.029166 
L 193.692613 182.4768 
L 193.209307 182.4768 
L 193.209307 182.924434 
L 192.726001 182.924434 
L 192.726001 183.073646 
L 191.759389 183.073646 
L 191.759389 183.670491 
L 191.276083 183.670491 
L 191.276083 183.819703 
L 189.826165 183.819703 
L 189.826165 184.118126 
L 189.342859 184.118126 
L 189.342859 185.759451 
L 188.376247 185.759451 
L 188.376247 186.057874 
L 187.892941 186.057874 
L 187.892941 186.207086 
L 186.926329 186.207086 
L 186.926329 186.803931 
L 186.443023 186.803931 
L 186.443023 186.953143 
L 185.959717 186.953143 
L 185.959717 187.102354 
L 183.059881 187.102354 
L 183.059881 187.400777 
L 182.093269 187.400777 
L 182.093269 187.848411 
L 181.609963 187.848411 
L 181.609963 188.445257 
L 181.126657 188.445257 
L 181.126657 189.340526 
L 180.643351 189.340526 
L 180.643351 189.937371 
L 180.160045 189.937371 
L 180.160045 190.83264 
L 179.676739 190.83264 
L 179.676739 192.026331 
L 178.710127 192.026331 
L 178.710127 192.175543 
L 176.776903 192.175543 
L 176.776903 192.324754 
L 176.293597 192.324754 
L 176.293597 192.623177 
L 174.843679 192.623177 
L 174.843679 192.772389 
L 172.910455 192.772389 
L 172.910455 193.070811 
L 172.427149 193.070811 
L 172.427149 193.220023 
L 171.943843 193.220023 
L 171.943843 193.369234 
L 170.977231 193.369234 
L 170.977231 193.816869 
L 170.493925 193.816869 
L 170.493925 194.264503 
L 170.010619 194.264503 
L 170.010619 194.861349 
L 169.527313 194.861349 
L 169.527313 195.607406 
L 168.560701 195.607406 
L 168.560701 195.905829 
L 167.594089 195.905829 
L 167.594089 196.05504 
L 166.627477 196.05504 
L 166.627477 196.204251 
L 166.144171 196.204251 
L 166.144171 196.502674 
L 165.660865 196.502674 
L 165.660865 196.801097 
L 165.177559 196.801097 
L 165.177559 196.950309 
L 164.694253 196.950309 
L 164.694253 197.09952 
L 164.210947 197.09952 
L 164.210947 197.397943 
L 163.727641 197.397943 
L 163.727641 197.547154 
L 163.244335 197.547154 
L 163.244335 197.696366 
L 159.377888 197.696366 
L 159.377888 197.845577 
L 158.894582 197.845577 
L 158.894582 198.144 
L 158.411276 198.144 
L 158.411276 198.293211 
L 157.92797 198.293211 
L 157.92797 198.442423 
L 157.444664 198.442423 
L 157.444664 198.591634 
L 156.961358 198.591634 
L 156.961358 199.337691 
L 155.994746 199.337691 
L 155.994746 199.486903 
L 155.51144 199.486903 
L 155.51144 199.934537 
L 154.544828 199.934537 
L 154.544828 200.23296 
L 153.578216 200.23296 
L 153.578216 200.979017 
L 152.611604 200.979017 
L 152.611604 201.575863 
L 150.67838 201.575863 
L 150.67838 201.874286 
L 148.745156 201.874286 
L 148.745156 202.023497 
L 147.778544 202.023497 
L 147.778544 202.32192 
L 147.295238 202.32192 
L 147.295238 202.620343 
L 146.811932 202.620343 
L 146.811932 203.067977 
L 146.328626 203.067977 
L 146.328626 203.3664 
L 145.84532 203.3664 
L 145.84532 203.814034 
L 145.362014 203.814034 
L 145.362014 203.963246 
L 144.395402 203.963246 
L 144.395402 204.261669 
L 143.912096 204.261669 
L 143.912096 204.560091 
L 143.42879 204.560091 
L 143.42879 205.156937 
L 142.945484 205.156937 
L 142.945484 205.45536 
L 142.462178 205.45536 
L 142.462178 205.753783 
L 141.978872 205.753783 
L 141.978872 205.902994 
L 141.495566 205.902994 
L 141.495566 206.649051 
L 141.01226 206.649051 
L 141.01226 206.798263 
L 140.528954 206.798263 
L 140.528954 207.096686 
L 136.662506 207.096686 
L 136.662506 207.991954 
L 136.1792 207.991954 
L 136.1792 208.141166 
L 134.245976 208.141166 
L 134.245976 209.036434 
L 132.796058 209.036434 
L 132.796058 209.334857 
L 132.312752 209.334857 
L 132.312752 209.931703 
L 131.34614 209.931703 
L 131.34614 210.080914 
L 130.862834 210.080914 
L 130.862834 210.230126 
L 129.896222 210.230126 
L 129.896222 210.379337 
L 121.68002 210.379337 
L 121.68002 210.528549 
L 119.746796 210.528549 
L 119.746796 210.67776 
L 119.26349 210.67776 
L 119.26349 210.976183 
L 118.780184 210.976183 
L 118.780184 211.125394 
L 118.296878 211.125394 
L 118.296878 211.274606 
L 117.330266 211.274606 
L 117.330266 211.573029 
L 112.980512 211.573029 
L 112.980512 212.319086 
L 112.497206 212.319086 
L 112.497206 213.065143 
L 112.0139 213.065143 
L 112.0139 213.214354 
L 111.530594 213.214354 
L 111.530594 213.363566 
L 111.047289 213.363566 
L 111.047289 213.512777 
L 110.563983 213.512777 
L 110.563983 213.661989 
L 110.080677 213.661989 
L 110.080677 214.109623 
L 109.597371 214.109623 
L 109.597371 214.408046 
L 109.114065 214.408046 
L 109.114065 214.85568 
L 108.630759 214.85568 
L 108.630759 215.303314 
L 108.147453 215.303314 
L 108.147453 215.750949 
L 107.664147 215.750949 
L 107.664147 216.049371 
L 106.697535 216.049371 
L 106.697535 216.795429 
L 106.214229 216.795429 
L 106.214229 216.94464 
L 105.730923 216.94464 
L 105.730923 217.093851 
L 104.281005 217.093851 
L 104.281005 217.243063 
L 101.381169 217.243063 
L 101.381169 217.690697 
L 100.897863 217.690697 
L 100.897863 217.98912 
L 100.414557 217.98912 
L 100.414557 218.138331 
L 99.931251 218.138331 
L 99.931251 219.182811 
L 99.447945 219.182811 
L 99.447945 219.481234 
L 98.964639 219.481234 
L 98.964639 220.07808 
L 98.481333 220.07808 
L 98.481333 220.525714 
L 97.998027 220.525714 
L 97.998027 221.420983 
L 97.514721 221.420983 
L 97.514721 221.868617 
L 97.031415 221.868617 
L 97.031415 222.614674 
L 96.548109 222.614674 
L 96.548109 222.763886 
L 96.064803 222.763886 
L 96.064803 223.21152 
L 95.581497 223.21152 
L 95.581497 223.957577 
L 95.098191 223.957577 
L 95.098191 224.256 
L 94.614885 224.256 
L 94.614885 224.554423 
L 94.131579 224.554423 
L 94.131579 224.703634 
L 93.648273 224.703634 
L 93.648273 225.151269 
L 93.164967 225.151269 
L 93.164967 225.30048 
L 89.781825 225.30048 
L 89.781825 225.449691 
L 89.298519 225.449691 
L 89.298519 225.748114 
L 88.815213 225.748114 
L 88.815213 226.34496 
L 87.848601 226.34496 
L 87.848601 226.941806 
L 86.881989 226.941806 
L 86.881989 227.38944 
L 86.398683 227.38944 
L 86.398683 227.986286 
L 85.915377 227.986286 
L 85.915377 228.284709 
L 85.432071 228.284709 
L 85.432071 228.881554 
L 84.948765 228.881554 
L 84.948765 230.373669 
L 84.465459 230.373669 
L 84.465459 231.268937 
L 83.982153 231.268937 
L 83.982153 233.208686 
L 83.498847 233.208686 
L 83.498847 234.253166 
L 83.015541 234.253166 
L 83.015541 235.446857 
L 82.532235 235.446857 
L 82.532235 236.192914 
L 81.565623 236.192914 
L 81.565623 236.938971 
L 81.082317 236.938971 
L 81.082317 237.088183 
L 80.599011 237.088183 
L 80.599011 237.237394 
L 80.115705 237.237394 
L 80.115705 237.386606 
L 79.632399 237.386606 
L 79.632399 237.685029 
L 79.149093 237.685029 
L 79.149093 237.83424 
L 78.665787 237.83424 
L 78.665787 237.983451 
L 78.182481 237.983451 
L 78.182481 239.177143 
L 77.699175 239.177143 
L 77.699175 241.564526 
L 77.215869 241.564526 
L 77.215869 245.593234 
L 76.732563 245.593234 
L 76.732563 248.428251 
L 76.249257 248.428251 
L 76.249257 252.158537 
L 75.765951 252.158537 
L 75.765951 257.380937 
L 75.282645 257.380937 
L 75.282645 266.0352 
L 74.799339 266.0352 
L 74.799339 272.749714 
L 74.316033 272.749714 
L 74.316033 275.43552 
L 73.832727 275.43552 
L 73.832727 276.48 
L 73.832727 276.48 
z
" clip-path="url(#p38e9fec053)" style="fill: #43b5a0; fill-opacity: 0.8"/>
   </g>
   <g id="matplotlib.axis_1">
    <g id="xtick_1">
     <g id="line2d_1">
      <defs>
       <path id="m30fbba9a03" d="M 0 0 
L 0 3.5 
" style="stroke: #ffffff; stroke-width: 0.8"/>
      </defs>
      <g>
       <use xlink:href="#m30fbba9a03" x="101.864475" y="276.48" style="fill: #ffffff; stroke: #ffffff; stroke-width: 0.8"/>
      </g>
     </g>
     <g id="text_1">
      <!-- Fri 12/24 -->
      <g style="fill: #ffffff" transform="translate(62.79529 312.01669)rotate(-30)scale(0.1 -0.1)">
       <defs>
        <path id="DejaVuSans-46" d="M 628 4666 
L 3309 4666 
L 3309 4134 
L 1259 4134 
L 1259 2759 
L 3109 2759 
L 3109 2228 
L 1259 2228 
L 1259 0 
L 628 0 
L 628 4666 
z
" transform="scale(0.015625)"/>
        <path id="DejaVuSans-72" d="M 2631 2963 
Q 2534 3019 2420 3045 
Q 2306 3072 2169 3072 
Q 1681 3072 1420 2755 
Q 1159 2438 1159 1844 
L 1159 0 
L 581 0 
L 581 3500 
L 1159 3500 
L 1159 2956 
Q 1341 3275 1631 3429 
Q 1922 3584 2338 3584 
Q 2397 3584 2469 3576 
Q 2541 3569 2628 3553 
L 2631 2963 
z
" transform="scale(0.015625)"/>
        <path id="DejaVuSans-69" d="M 603 3500 
L 1178 3500 
L 1178 0 
L 603 0 
L 603 3500 
z
M 603 4863 
L 1178 4863 
L 1178 4134 
L 603 4134 
L 603 4863 
z
" transform="scale(0.015625)"/>
        <path id="DejaVuSans-20" transform="scale(0.015625)"/>
        <path id="DejaVuSans-31" d="M 794 531 
L 1825 531 
L 1825 4091 
L 703 3866 
L 703 4441 
L 1819 4666 
L 2450 4666 
L 2450 531 
L 3481 531 
L 3481 0 
L 794 0 
L 794 531 
z
" transform="scale(0.015625)"/>
        <path id="DejaVuSans-32" d="M 1228 531 
L 3431 531 
L 3431 0 
L 469 0 
L 469 531 
Q 828 903 1448 1529 
Q 2069 2156 2228 2338 
Q 2531 2678 2651 2914 
Q 2772 3150 2772 3378 
Q 2772 3750 2511 3984 
Q 2250 4219 1831 4219 
Q 1534 4219 1204 4116 
Q 875 4013 500 3803 
L 500 4441 
Q 881 4594 1212 4672 
Q 1544 4750 1819 4750 
Q 2544 4750 2975 4387 
Q 3406 4025 3406 3419 
Q 3406 3131 3298 2873 
Q 3191 2616 2906 2266 
Q 2828 2175 2409 1742 
Q 1991 1309 1228 531 
z
" transform="scale(0.015625)"/>
        <path id="DejaVuSans-2f" d="M 1625 4666 
L 2156 4666 
L 531 -594 
L 0 -594 
L 1625 4666 
z
" transform="scale(0.015625)"/>
        <path id="DejaVuSans-34" d="M 2419 4116 
L 825 1625 
L 2419 1625 
L 2419 4116 
z
M 2253 4666 
L 3047 4666 
L 3047 1625 
L 3713 1625 
L 3713 1100 
L 3047 1100 
L 3047 0 
L 2419 0 
L 2419 1100 
L 313 1100 
L 313 1709 
L 2253 4666 
z
" transform="scale(0.015625)"/>
       </defs>
       <use xlink:href="#DejaVuSans-46"/>
       <use xlink:href="#DejaVuSans-72" x="50.269531"/>
       <use xlink:href="#DejaVuSans-69" x="91.382812"/>
       <use xlink:href="#DejaVuSans-20" x="119.166016"/>
       <use xlink:href="#DejaVuSans-31" x="150.953125"/>
       <use xlink:href="#DejaVuSans-32" x="214.576172"/>
       <use xlink:href="#DejaVuSans-2f" x="278.199219"/>
       <use xlink:href="#DejaVuSans-32" x="311.890625"/>
       <use xlink:href="#DejaVuSans-34" x="375.513672"/>
      </g>
     </g>
    </g>
    <g id="xtick_2">
     <g id="line2d_2">
      <g>
       <use xlink:href="#m30fbba9a03" x="136.662506" y="276.48" style="fill: #ffffff; stroke: #ffffff; stroke-width: 0.8"/>
      </g>
     </g>
     <g id="text_2">
      <!-- Mon 12/27 -->
      <g style="fill: #ffffff" transform="translate(89.652951 316.601065)rotate(-30)scale(0.1 -0.1)">
       <defs>
        <path id="DejaVuSans-4d" d="M 628 4666 
L 1569 4666 
L 2759 1491 
L 3956 4666 
L 4897 4666 
L 4897 0 
L 4281 0 
L 4281 4097 
L 3078 897 
L 2444 897 
L 1241 4097 
L 1241 0 
L 628 0 
L 628 4666 
z
" transform="scale(0.015625)"/>
        <path id="DejaVuSans-6f" d="M 1959 3097 
Q 1497 3097 1228 2736 
Q 959 2375 959 1747 
Q 959 1119 1226 758 
Q 1494 397 1959 397 
Q 2419 397 2687 759 
Q 2956 1122 2956 1747 
Q 2956 2369 2687 2733 
Q 2419 3097 1959 3097 
z
M 1959 3584 
Q 2709 3584 3137 3096 
Q 3566 2609 3566 1747 
Q 3566 888 3137 398 
Q 2709 -91 1959 -91 
Q 1206 -91 779 398 
Q 353 888 353 1747 
Q 353 2609 779 3096 
Q 1206 3584 1959 3584 
z
" transform="scale(0.015625)"/>
        <path id="DejaVuSans-6e" d="M 3513 2113 
L 3513 0 
L 2938 0 
L 2938 2094 
Q 2938 2591 2744 2837 
Q 2550 3084 2163 3084 
Q 1697 3084 1428 2787 
Q 1159 2491 1159 1978 
L 1159 0 
L 581 0 
L 581 3500 
L 1159 3500 
L 1159 2956 
Q 1366 3272 1645 3428 
Q 1925 3584 2291 3584 
Q 2894 3584 3203 3211 
Q 3513 2838 3513 2113 
z
" transform="scale(0.015625)"/>
        <path id="DejaVuSans-37" d="M 525 4666 
L 3525 4666 
L 3525 4397 
L 1831 0 
L 1172 0 
L 2766 4134 
L 525 4134 
L 525 4666 
z
" transform="scale(0.015625)"/>
       </defs>
       <use xlink:href="#DejaVuSans-4d"/>
       <use xlink:href="#DejaVuSans-6f" x="86.279297"/>
       <use xlink:href="#DejaVuSans-6e" x="147.460938"/>
       <use xlink:href="#DejaVuSans-20" x="210.839844"/>
       <use xlink:href="#DejaVuSans-31" x="242.626953"/>
       <use xlink:href="#DejaVuSans-32" x="306.25"/>
       <use xlink:href="#DejaVuSans-2f" x="369.873047"/>
       <use xlink:href="#DejaVuSans-32" x="403.564453"/>
       <use xlink:href="#DejaVuSans-37" x="467.1875"/>
      </g>
     </g>
    </g>
    <g id="xtick_3">
     <g id="line2d_3">
      <g>
       <use xlink:href="#m30fbba9a03" x="183.059881" y="276.48" style="fill: #ffffff; stroke: #ffffff; stroke-width: 0.8"/>
      </g>
     </g>
     <g id="text_3">
      <!-- Fri 12/31 -->
      <g style="fill: #ffffff" transform="translate(143.990697 312.01669)rotate(-30)scale(0.1 -0.1)">
       <defs>
        <path id="DejaVuSans-33" d="M 2597 2516 
Q 3050 2419 3304 2112 
Q 3559 1806 3559 1356 
Q 3559 666 3084 287 
Q 2609 -91 1734 -91 
Q 1441 -91 1130 -33 
Q 819 25 488 141 
L 488 750 
Q 750 597 1062 519 
Q 1375 441 1716 441 
Q 2309 441 2620 675 
Q 2931 909 2931 1356 
Q 2931 1769 2642 2001 
Q 2353 2234 1838 2234 
L 1294 2234 
L 1294 2753 
L 1863 2753 
Q 2328 2753 2575 2939 
Q 2822 3125 2822 3475 
Q 2822 3834 2567 4026 
Q 2313 4219 1838 4219 
Q 1578 4219 1281 4162 
Q 984 4106 628 3988 
L 628 4550 
Q 988 4650 1302 4700 
Q 1616 4750 1894 4750 
Q 2613 4750 3031 4423 
Q 3450 4097 3450 3541 
Q 3450 3153 3228 2886 
Q 3006 2619 2597 2516 
z
" transform="scale(0.015625)"/>
       </defs>
       <use xlink:href="#DejaVuSans-46"/>
       <use xlink:href="#DejaVuSans-72" x="50.269531"/>
       <use xlink:href="#DejaVuSans-69" x="91.382812"/>
       <use xlink:href="#DejaVuSans-20" x="119.166016"/>
       <use xlink:href="#DejaVuSans-31" x="150.953125"/>
       <use xlink:href="#DejaVuSans-32" x="214.576172"/>
       <use xlink:href="#DejaVuSans-2f" x="278.199219"/>
       <use xlink:href="#DejaVuSans-33" x="311.890625"/>
       <use xlink:href="#DejaVuSans-31" x="375.513672"/>
      </g>
     </g>
    </g>
    <g id="xtick_4">
     <g id="line2d_4">
      <g>
       <use xlink:href="#m30fbba9a03" x="217.857912" y="276.48" style="fill: #ffffff; stroke: #ffffff; stroke-width: 0.8"/>
      </g>
     </g>
     <g id="text_4">
      <!-- Mon 01/03 -->
      <g style="fill: #ffffff" transform="translate(170.848358 316.601065)rotate(-30)scale(0.1 -0.1)">
       <defs>
        <path id="DejaVuSans-30" d="M 2034 4250 
Q 1547 4250 1301 3770 
Q 1056 3291 1056 2328 
Q 1056 1369 1301 889 
Q 1547 409 2034 409 
Q 2525 409 2770 889 
Q 3016 1369 3016 2328 
Q 3016 3291 2770 3770 
Q 2525 4250 2034 4250 
z
M 2034 4750 
Q 2819 4750 3233 4129 
Q 3647 3509 3647 2328 
Q 3647 1150 3233 529 
Q 2819 -91 2034 -91 
Q 1250 -91 836 529 
Q 422 1150 422 2328 
Q 422 3509 836 4129 
Q 1250 4750 2034 4750 
z
" transform="scale(0.015625)"/>
       </defs>
       <use xlink:href="#DejaVuSans-4d"/>
       <use xlink:href="#DejaVuSans-6f" x="86.279297"/>
       <use xlink:href="#DejaVuSans-6e" x="147.460938"/>
       <use xlink:href="#DejaVuSans-20" x="210.839844"/>
       <use xlink:href="#DejaVuSans-30" x="242.626953"/>
       <use xlink:href="#DejaVuSans-31" x="306.25"/>
       <use xlink:href="#DejaVuSans-2f" x="369.873047"/>
       <use xlink:href="#DejaVuSans-30" x="403.564453"/>
       <use xlink:href="#DejaVuSans-33" x="467.1875"/>
      </g>
     </g>
    </g>
    <g id="xtick_5">
     <g id="line2d_5">
      <g>
       <use xlink:href="#m30fbba9a03" x="264.255287" y="276.48" style="fill: #ffffff; stroke: #ffffff; stroke-width: 0.8"/>
      </g>
     </g>
     <g id="text_5">
      <!-- Fri 01/07 -->
      <g style="fill: #ffffff" transform="translate(225.186103 312.01669)rotate(-30)scale(0.1 -0.1)">
       <use xlink:href="#DejaVuSans-46"/>
       <use xlink:href="#DejaVuSans-72" x="50.269531"/>
       <use xlink:href="#DejaVuSans-69" x="91.382812"/>
       <use xlink:href="#DejaVuSans-20" x="119.166016"/>
       <use xlink:href="#DejaVuSans-30" x="150.953125"/>
       <use xlink:href="#DejaVuSans-31" x="214.576172"/>
       <use xlink:href="#DejaVuSans-2f" x="278.199219"/>
       <use xlink:href="#DejaVuSans-30" x="311.890625"/>
       <use xlink:href="#DejaVuSans-37" x="375.513672"/>
      </g>
     </g>
    </g>
    <g id="xtick_6">
     <g id="line2d_6">
      <g>
       <use xlink:href="#m30fbba9a03" x="299.053319" y="276.48" style="fill: #ffffff; stroke: #ffffff; stroke-width: 0.8"/>
      </g>
     </g>
     <g id="text_6">
      <!-- Mon 01/10 -->
      <g style="fill: #ffffff" transform="translate(252.043764 316.601065)rotate(-30)scale(0.1 -0.1)">
       <use xlink:href="#DejaVuSans-4d"/>
       <use xlink:href="#DejaVuSans-6f" x="86.279297"/>
       <use xlink:href="#DejaVuSans-6e" x="147.460938"/>
       <use xlink:href="#DejaVuSans-20" x="210.839844"/>
       <use xlink:href="#DejaVuSans-30" x="242.626953"/>
       <use xlink:href="#DejaVuSans-31" x="306.25"/>
       <use xlink:href="#DejaVuSans-2f" x="369.873047"/>
       <use xlink:href="#DejaVuSans-31" x="403.564453"/>
       <use xlink:href="#DejaVuSans-30" x="467.1875"/>
      </g>
     </g>
    </g>
    <g id="xtick_7">
     <g id="line2d_7">
      <g>
       <use xlink:href="#m30fbba9a03" x="345.450694" y="276.48" style="fill: #ffffff; stroke: #ffffff; stroke-width: 0.8"/>
      </g>
     </g>
     <g id="text_7">
      <!-- Fri 01/14 -->
      <g style="fill: #ffffff" transform="translate(306.381509 312.01669)rotate(-30)scale(0.1 -0.1)">
       <use xlink:href="#DejaVuSans-46"/>
       <use xlink:href="#DejaVuSans-72" x="50.269531"/>
       <use xlink:href="#DejaVuSans-69" x="91.382812"/>
       <use xlink:href="#DejaVuSans-20" x="119.166016"/>
       <use xlink:href="#DejaVuSans-30" x="150.953125"/>
       <use xlink:href="#DejaVuSans-31" x="214.576172"/>
       <use xlink:href="#DejaVuSans-2f" x="278.199219"/>
       <use xlink:href="#DejaVuSans-31" x="311.890625"/>
       <use xlink:href="#DejaVuSans-34" x="375.513672"/>
      </g>
     </g>
    </g>
    <g id="xtick_8">
     <g id="line2d_8">
      <g>
       <use xlink:href="#m30fbba9a03" x="380.248725" y="276.48" style="fill: #ffffff; stroke: #ffffff; stroke-width: 0.8"/>
      </g>
     </g>
     <g id="text_8">
      <!-- Mon 01/17 -->
      <g style="fill: #ffffff" transform="translate(333.23917 316.601065)rotate(-30)scale(0.1 -0.1)">
       <use xlink:href="#DejaVuSans-4d"/>
       <use xlink:href="#DejaVuSans-6f" x="86.279297"/>
       <use xlink:href="#DejaVuSans-6e" x="147.460938"/>
       <use xlink:href="#DejaVuSans-20" x="210.839844"/>
       <use xlink:href="#DejaVuSans-30" x="242.626953"/>
       <use xlink:href="#DejaVuSans-31" x="306.25"/>
       <use xlink:href="#DejaVuSans-2f" x="369.873047"/>
       <use xlink:href="#DejaVuSans-31" x="403.564453"/>
       <use xlink:href="#DejaVuSans-37" x="467.1875"/>
      </g>
     </g>
    </g>
    <g id="xtick_9">
     <g id="line2d_9">
      <defs>
       <path id="m225b716507" d="M 0 0 
L 0 2 
" style="stroke: #ffffff; stroke-width: 0.6"/>
      </defs>
      <g>
       <use xlink:href="#m225b716507" x="67.066443" y="276.48" style="fill: #ffffff; stroke: #ffffff; stroke-width: 0.6"/>
      </g>
     </g>
    </g>
    <g id="xtick_10">
     <g id="line2d_10">
      <g>
       <use xlink:href="#m225b716507" x="78.665787" y="276.48" style="fill: #ffffff; stroke: #ffffff; stroke-width: 0.6"/>
      </g>
     </g>
    </g>
    <g id="xtick_11">
     <g id="line2d_11">
      <g>
       <use xlink:href="#m225b716507" x="90.265131" y="276.48" style="fill: #ffffff; stroke: #ffffff; stroke-width: 0.6"/>
      </g>
     </g>
    </g>
    <g id="xtick_12">
     <g id="line2d_12">
      <g>
       <use xlink:href="#m225b716507" x="113.463818" y="276.48" style="fill: #ffffff; stroke: #ffffff; stroke-width: 0.6"/>
      </g>
     </g>
    </g>
    <g id="xtick_13">
     <g id="line2d_13">
      <g>
       <use xlink:href="#m225b716507" x="125.063162" y="276.48" style="fill: #ffffff; stroke: #ffffff; stroke-width: 0.6"/>
      </g>
     </g>
    </g>
    <g id="xtick_14">
     <g id="line2d_14">
      <g>
       <use xlink:href="#m225b716507" x="148.26185" y="276.48" style="fill: #ffffff; stroke: #ffffff; stroke-width: 0.6"/>
      </g>
     </g>
    </g>
    <g id="xtick_15">
     <g id="line2d_15">
      <g>
       <use xlink:href="#m225b716507" x="159.861193" y="276.48" style="fill: #ffffff; stroke: #ffffff; stroke-width: 0.6"/>
      </g>
     </g>
    </g>
    <g id="xtick_16">
     <g id="line2d_16">
      <g>
       <use xlink:href="#m225b716507" x="171.460537" y="276.48" style="fill: #ffffff; stroke: #ffffff; stroke-width: 0.6"/>
      </g>
     </g>
    </g>
    <g id="xtick_17">
     <g id="line2d_17">
      <g>
       <use xlink:href="#m225b716507" x="194.659225" y="276.48" style="fill: #ffffff; stroke: #ffffff; stroke-width: 0.6"/>
      </g>
     </g>
    </g>
    <g id="xtick_18">
     <g id="line2d_18">
      <g>
       <use xlink:href="#m225b716507" x="206.258569" y="276.48" style="fill: #ffffff; stroke: #ffffff; stroke-width: 0.6"/>
      </g>
     </g>
    </g>
    <g id="xtick_19">
     <g id="line2d_19">
      <g>
       <use xlink:href="#m225b716507" x="229.457256" y="276.48" style="fill: #ffffff; stroke: #ffffff; stroke-width: 0.6"/>
      </g>
     </g>
    </g>
    <g id="xtick_20">
     <g id="line2d_20">
      <g>
       <use xlink:href="#m225b716507" x="241.0566" y="276.48" style="fill: #ffffff; stroke: #ffffff; stroke-width: 0.6"/>
      </g>
     </g>
    </g>
    <g id="xtick_21">
     <g id="line2d_21">
      <g>
       <use xlink:href="#m225b716507" x="252.655944" y="276.48" style="fill: #ffffff; stroke: #ffffff; stroke-width: 0.6"/>
      </g>
     </g>
    </g>
    <g id="xtick_22">
     <g id="line2d_22">
      <g>
       <use xlink:href="#m225b716507" x="275.854631" y="276.48" style="fill: #ffffff; stroke: #ffffff; stroke-width: 0.6"/>
      </g>
     </g>
    </g>
    <g id="xtick_23">
     <g id="line2d_23">
      <g>
       <use xlink:href="#m225b716507" x="287.453975" y="276.48" style="fill: #ffffff; stroke: #ffffff; stroke-width: 0.6"/>
      </g>
     </g>
    </g>
    <g id="xtick_24">
     <g id="line2d_24">
      <g>
       <use xlink:href="#m225b716507" x="310.652662" y="276.48" style="fill: #ffffff; stroke: #ffffff; stroke-width: 0.6"/>
      </g>
     </g>
    </g>
    <g id="xtick_25">
     <g id="line2d_25">
      <g>
       <use xlink:href="#m225b716507" x="322.252006" y="276.48" style="fill: #ffffff; stroke: #ffffff; stroke-width: 0.6"/>
      </g>
     </g>
    </g>
    <g id="xtick_26">
     <g id="line2d_26">
      <g>
       <use xlink:href="#m225b716507" x="333.85135" y="276.48" style="fill: #ffffff; stroke: #ffffff; stroke-width: 0.6"/>
      </g>
     </g>
    </g>
    <g id="xtick_27">
     <g id="line2d_27">
      <g>
       <use xlink:href="#m225b716507" x="357.050037" y="276.48" style="fill: #ffffff; stroke: #ffffff; stroke-width: 0.6"/>
      </g>
     </g>
    </g>
    <g id="xtick_28">
     <g id="line2d_28">
      <g>
       <use xlink:href="#m225b716507" x="368.649381" y="276.48" style="fill: #ffffff; stroke: #ffffff; stroke-width: 0.6"/>
      </g>
     </g>
    </g>
    <g id="xtick_29">
     <g id="line2d_29">
      <g>
       <use xlink:href="#m225b716507" x="391.848069" y="276.48" style="fill: #ffffff; stroke: #ffffff; stroke-width: 0.6"/>
      </g>
     </g>
    </g>
    <g id="xtick_30">
     <g id="line2d_30">
      <g>
       <use xlink:href="#m225b716507" x="403.447412" y="276.48" style="fill: #ffffff; stroke: #ffffff; stroke-width: 0.6"/>
      </g>
     </g>
    </g>
   </g>
   <g id="matplotlib.axis_2">
    <g id="ytick_1">
     <g id="line2d_31">
      <defs>
       <path id="mb56d032515" d="M 0 0 
L -3.5 0 
" style="stroke: #ffffff; stroke-width: 0.8"/>
      </defs>
      <g>
       <use xlink:href="#mb56d032515" x="57.6" y="276.48" style="fill: #ffffff; stroke: #ffffff; stroke-width: 0.8"/>
      </g>
     </g>
     <g id="text_9">
      <!-- 0 -->
      <g style="fill: #ffffff" transform="translate(44.2375 280.279219)scale(0.1 -0.1)">
       <use xlink:href="#DejaVuSans-30"/>
      </g>
     </g>
    </g>
    <g id="ytick_2">
     <g id="line2d_32">
      <g>
       <use xlink:href="#mb56d032515" x="57.6" y="246.637714" style="fill: #ffffff; stroke: #ffffff; stroke-width: 0.8"/>
      </g>
     </g>
     <g id="text_10">
      <!-- 200 -->
      <g style="fill: #ffffff" transform="translate(31.5125 250.436933)scale(0.1 -0.1)">
       <use xlink:href="#DejaVuSans-32"/>
       <use xlink:href="#DejaVuSans-30" x="63.623047"/>
       <use xlink:href="#DejaVuSans-30" x="127.246094"/>
      </g>
     </g>
    </g>
    <g id="ytick_3">
     <g id="line2d_33">
      <g>
       <use xlink:href="#mb56d032515" x="57.6" y="216.795429" style="fill: #ffffff; stroke: #ffffff; stroke-width: 0.8"/>
      </g>
     </g>
     <g id="text_11">
      <!-- 400 -->
      <g style="fill: #ffffff" transform="translate(31.5125 220.594647)scale(0.1 -0.1)">
       <use xlink:href="#DejaVuSans-34"/>
       <use xlink:href="#DejaVuSans-30" x="63.623047"/>
       <use xlink:href="#DejaVuSans-30" x="127.246094"/>
      </g>
     </g>
    </g>
    <g id="ytick_4">
     <g id="line2d_34">
      <g>
       <use xlink:href="#mb56d032515" x="57.6" y="186.953143" style="fill: #ffffff; stroke: #ffffff; stroke-width: 0.8"/>
      </g>
     </g>
     <g id="text_12">
      <!-- 600 -->
      <g style="fill: #ffffff" transform="translate(31.5125 190.752362)scale(0.1 -0.1)">
       <defs>
        <path id="DejaVuSans-36" d="M 2113 2584 
Q 1688 2584 1439 2293 
Q 1191 2003 1191 1497 
Q 1191 994 1439 701 
Q 1688 409 2113 409 
Q 2538 409 2786 701 
Q 3034 994 3034 1497 
Q 3034 2003 2786 2293 
Q 2538 2584 2113 2584 
z
M 3366 4563 
L 3366 3988 
Q 3128 4100 2886 4159 
Q 2644 4219 2406 4219 
Q 1781 4219 1451 3797 
Q 1122 3375 1075 2522 
Q 1259 2794 1537 2939 
Q 1816 3084 2150 3084 
Q 2853 3084 3261 2657 
Q 3669 2231 3669 1497 
Q 3669 778 3244 343 
Q 2819 -91 2113 -91 
Q 1303 -91 875 529 
Q 447 1150 447 2328 
Q 447 3434 972 4092 
Q 1497 4750 2381 4750 
Q 2619 4750 2861 4703 
Q 3103 4656 3366 4563 
z
" transform="scale(0.015625)"/>
       </defs>
       <use xlink:href="#DejaVuSans-36"/>
       <use xlink:href="#DejaVuSans-30" x="63.623047"/>
       <use xlink:href="#DejaVuSans-30" x="127.246094"/>
      </g>
     </g>
    </g>
    <g id="ytick_5">
     <g id="line2d_35">
      <g>
       <use xlink:href="#mb56d032515" x="57.6" y="157.110857" style="fill: #ffffff; stroke: #ffffff; stroke-width: 0.8"/>
      </g>
     </g>
     <g id="text_13">
      <!-- 800 -->
      <g style="fill: #ffffff" transform="translate(31.5125 160.910076)scale(0.1 -0.1)">
       <defs>
        <path id="DejaVuSans-38" d="M 2034 2216 
Q 1584 2216 1326 1975 
Q 1069 1734 1069 1313 
Q 1069 891 1326 650 
Q 1584 409 2034 409 
Q 2484 409 2743 651 
Q 3003 894 3003 1313 
Q 3003 1734 2745 1975 
Q 2488 2216 2034 2216 
z
M 1403 2484 
Q 997 2584 770 2862 
Q 544 3141 544 3541 
Q 544 4100 942 4425 
Q 1341 4750 2034 4750 
Q 2731 4750 3128 4425 
Q 3525 4100 3525 3541 
Q 3525 3141 3298 2862 
Q 3072 2584 2669 2484 
Q 3125 2378 3379 2068 
Q 3634 1759 3634 1313 
Q 3634 634 3220 271 
Q 2806 -91 2034 -91 
Q 1263 -91 848 271 
Q 434 634 434 1313 
Q 434 1759 690 2068 
Q 947 2378 1403 2484 
z
M 1172 3481 
Q 1172 3119 1398 2916 
Q 1625 2713 2034 2713 
Q 2441 2713 2670 2916 
Q 2900 3119 2900 3481 
Q 2900 3844 2670 4047 
Q 2441 4250 2034 4250 
Q 1625 4250 1398 4047 
Q 1172 3844 1172 3481 
z
" transform="scale(0.015625)"/>
       </defs>
       <use xlink:href="#DejaVuSans-38"/>
       <use xlink:href="#DejaVuSans-30" x="63.623047"/>
       <use xlink:href="#DejaVuSans-30" x="127.246094"/>
      </g>
     </g>
    </g>
    <g id="ytick_6">
     <g id="line2d_36">
      <g>
       <use xlink:href="#mb56d032515" x="57.6" y="127.268571" style="fill: #ffffff; stroke: #ffffff; stroke-width: 0.8"/>
      </g>
     </g>
     <g id="text_14">
      <!-- 1000 -->
      <g style="fill: #ffffff" transform="translate(25.15 131.06779)scale(0.1 -0.1)">
       <use xlink:href="#DejaVuSans-31"/>
       <use xlink:href="#DejaVuSans-30" x="63.623047"/>
       <use xlink:href="#DejaVuSans-30" x="127.246094"/>
       <use xlink:href="#DejaVuSans-30" x="190.869141"/>
      </g>
     </g>
    </g>
    <g id="ytick_7">
     <g id="line2d_37">
      <g>
       <use xlink:href="#mb56d032515" x="57.6" y="97.426286" style="fill: #ffffff; stroke: #ffffff; stroke-width: 0.8"/>
      </g>
     </g>
     <g id="text_15">
      <!-- 1200 -->
      <g style="fill: #ffffff" transform="translate(25.15 101.225504)scale(0.1 -0.1)">
       <use xlink:href="#DejaVuSans-31"/>
       <use xlink:href="#DejaVuSans-32" x="63.623047"/>
       <use xlink:href="#DejaVuSans-30" x="127.246094"/>
       <use xlink:href="#DejaVuSans-30" x="190.869141"/>
      </g>
     </g>
    </g>
    <g id="ytick_8">
     <g id="line2d_38">
      <g>
       <use xlink:href="#mb56d032515" x="57.6" y="67.584" style="fill: #ffffff; stroke: #ffffff; stroke-width: 0.8"/>
      </g>
     </g>
     <g id="text_16">
      <!-- 1400 -->
      <g style="fill: #ffffff" transform="translate(25.15 71.383219)scale(0.1 -0.1)">
       <use xlink:href="#DejaVuSans-31"/>
       <use xlink:href="#DejaVuSans-34" x="63.623047"/>
       <use xlink:href="#DejaVuSans-30" x="127.246094"/>
       <use xlink:href="#DejaVuSans-30" x="190.869141"/>
      </g>
     </g>
    </g>
    <g id="text_17">
     <!-- Number of tickets sold -->
     <g style="fill: #ffffff" transform="translate(19.070312 215.329906)rotate(-90)scale(0.1 -0.1)">
      <defs>
       <path id="DejaVuSans-4e" d="M 628 4666 
L 1478 4666 
L 3547 763 
L 3547 4666 
L 4159 4666 
L 4159 0 
L 3309 0 
L 1241 3903 
L 1241 0 
L 628 0 
L 628 4666 
z
" transform="scale(0.015625)"/>
       <path id="DejaVuSans-75" d="M 544 1381 
L 544 3500 
L 1119 3500 
L 1119 1403 
Q 1119 906 1312 657 
Q 1506 409 1894 409 
Q 2359 409 2629 706 
Q 2900 1003 2900 1516 
L 2900 3500 
L 3475 3500 
L 3475 0 
L 2900 0 
L 2900 538 
Q 2691 219 2414 64 
Q 2138 -91 1772 -91 
Q 1169 -91 856 284 
Q 544 659 544 1381 
z
M 1991 3584 
L 1991 3584 
z
" transform="scale(0.015625)"/>
       <path id="DejaVuSans-6d" d="M 3328 2828 
Q 3544 3216 3844 3400 
Q 4144 3584 4550 3584 
Q 5097 3584 5394 3201 
Q 5691 2819 5691 2113 
L 5691 0 
L 5113 0 
L 5113 2094 
Q 5113 2597 4934 2840 
Q 4756 3084 4391 3084 
Q 3944 3084 3684 2787 
Q 3425 2491 3425 1978 
L 3425 0 
L 2847 0 
L 2847 2094 
Q 2847 2600 2669 2842 
Q 2491 3084 2119 3084 
Q 1678 3084 1418 2786 
Q 1159 2488 1159 1978 
L 1159 0 
L 581 0 
L 581 3500 
L 1159 3500 
L 1159 2956 
Q 1356 3278 1631 3431 
Q 1906 3584 2284 3584 
Q 2666 3584 2933 3390 
Q 3200 3197 3328 2828 
z
" transform="scale(0.015625)"/>
       <path id="DejaVuSans-62" d="M 3116 1747 
Q 3116 2381 2855 2742 
Q 2594 3103 2138 3103 
Q 1681 3103 1420 2742 
Q 1159 2381 1159 1747 
Q 1159 1113 1420 752 
Q 1681 391 2138 391 
Q 2594 391 2855 752 
Q 3116 1113 3116 1747 
z
M 1159 2969 
Q 1341 3281 1617 3432 
Q 1894 3584 2278 3584 
Q 2916 3584 3314 3078 
Q 3713 2572 3713 1747 
Q 3713 922 3314 415 
Q 2916 -91 2278 -91 
Q 1894 -91 1617 61 
Q 1341 213 1159 525 
L 1159 0 
L 581 0 
L 581 4863 
L 1159 4863 
L 1159 2969 
z
" transform="scale(0.015625)"/>
       <path id="DejaVuSans-65" d="M 3597 1894 
L 3597 1613 
L 953 1613 
Q 991 1019 1311 708 
Q 1631 397 2203 397 
Q 2534 397 2845 478 
Q 3156 559 3463 722 
L 3463 178 
Q 3153 47 2828 -22 
Q 2503 -91 2169 -91 
Q 1331 -91 842 396 
Q 353 884 353 1716 
Q 353 2575 817 3079 
Q 1281 3584 2069 3584 
Q 2775 3584 3186 3129 
Q 3597 2675 3597 1894 
z
M 3022 2063 
Q 3016 2534 2758 2815 
Q 2500 3097 2075 3097 
Q 1594 3097 1305 2825 
Q 1016 2553 972 2059 
L 3022 2063 
z
" transform="scale(0.015625)"/>
       <path id="DejaVuSans-66" d="M 2375 4863 
L 2375 4384 
L 1825 4384 
Q 1516 4384 1395 4259 
Q 1275 4134 1275 3809 
L 1275 3500 
L 2222 3500 
L 2222 3053 
L 1275 3053 
L 1275 0 
L 697 0 
L 697 3053 
L 147 3053 
L 147 3500 
L 697 3500 
L 697 3744 
Q 697 4328 969 4595 
Q 1241 4863 1831 4863 
L 2375 4863 
z
" transform="scale(0.015625)"/>
       <path id="DejaVuSans-74" d="M 1172 4494 
L 1172 3500 
L 2356 3500 
L 2356 3053 
L 1172 3053 
L 1172 1153 
Q 1172 725 1289 603 
Q 1406 481 1766 481 
L 2356 481 
L 2356 0 
L 1766 0 
Q 1100 0 847 248 
Q 594 497 594 1153 
L 594 3053 
L 172 3053 
L 172 3500 
L 594 3500 
L 594 4494 
L 1172 4494 
z
" transform="scale(0.015625)"/>
       <path id="DejaVuSans-63" d="M 3122 3366 
L 3122 2828 
Q 2878 2963 2633 3030 
Q 2388 3097 2138 3097 
Q 1578 3097 1268 2742 
Q 959 2388 959 1747 
Q 959 1106 1268 751 
Q 1578 397 2138 397 
Q 2388 397 2633 464 
Q 2878 531 3122 666 
L 3122 134 
Q 2881 22 2623 -34 
Q 2366 -91 2075 -91 
Q 1284 -91 818 406 
Q 353 903 353 1747 
Q 353 2603 823 3093 
Q 1294 3584 2113 3584 
Q 2378 3584 2631 3529 
Q 2884 3475 3122 3366 
z
" transform="scale(0.015625)"/>
       <path id="DejaVuSans-6b" d="M 581 4863 
L 1159 4863 
L 1159 1991 
L 2875 3500 
L 3609 3500 
L 1753 1863 
L 3688 0 
L 2938 0 
L 1159 1709 
L 1159 0 
L 581 0 
L 581 4863 
z
" transform="scale(0.015625)"/>
       <path id="DejaVuSans-73" d="M 2834 3397 
L 2834 2853 
Q 2591 2978 2328 3040 
Q 2066 3103 1784 3103 
Q 1356 3103 1142 2972 
Q 928 2841 928 2578 
Q 928 2378 1081 2264 
Q 1234 2150 1697 2047 
L 1894 2003 
Q 2506 1872 2764 1633 
Q 3022 1394 3022 966 
Q 3022 478 2636 193 
Q 2250 -91 1575 -91 
Q 1294 -91 989 -36 
Q 684 19 347 128 
L 347 722 
Q 666 556 975 473 
Q 1284 391 1588 391 
Q 1994 391 2212 530 
Q 2431 669 2431 922 
Q 2431 1156 2273 1281 
Q 2116 1406 1581 1522 
L 1381 1569 
Q 847 1681 609 1914 
Q 372 2147 372 2553 
Q 372 3047 722 3315 
Q 1072 3584 1716 3584 
Q 2034 3584 2315 3537 
Q 2597 3491 2834 3397 
z
" transform="scale(0.015625)"/>
       <path id="DejaVuSans-6c" d="M 603 4863 
L 1178 4863 
L 1178 0 
L 603 0 
L 603 4863 
z
" transform="scale(0.015625)"/>
       <path id="DejaVuSans-64" d="M 2906 2969 
L 2906 4863 
L 3481 4863 
L 3481 0 
L 2906 0 
L 2906 525 
Q 2725 213 2448 61 
Q 2172 -91 1784 -91 
Q 1150 -91 751 415 
Q 353 922 353 1747 
Q 353 2572 751 3078 
Q 1150 3584 1784 3584 
Q 2172 3584 2448 3432 
Q 2725 3281 2906 2969 
z
M 947 1747 
Q 947 1113 1208 752 
Q 1469 391 1925 391 
Q 2381 391 2643 752 
Q 2906 1113 2906 1747 
Q 2906 2381 2643 2742 
Q 2381 3103 1925 3103 
Q 1469 3103 1208 2742 
Q 947 2381 947 1747 
z
" transform="scale(0.015625)"/>
      </defs>
      <use xlink:href="#DejaVuSans-4e"/>
      <use xlink:href="#DejaVuSans-75" x="74.804688"/>
      <use xlink:href="#DejaVuSans-6d" x="138.183594"/>
      <use xlink:href="#DejaVuSans-62" x="235.595703"/>
      <use xlink:href="#DejaVuSans-65" x="299.072266"/>
      <use xlink:href="#DejaVuSans-72" x="360.595703"/>
      <use xlink:href="#DejaVuSans-20" x="401.708984"/>
      <use xlink:href="#DejaVuSans-6f" x="433.496094"/>
      <use xlink:href="#DejaVuSans-66" x="494.677734"/>
      <use xlink:href="#DejaVuSans-20" x="529.882812"/>
      <use xlink:href="#DejaVuSans-74" x="561.669922"/>
      <use xlink:href="#DejaVuSans-69" x="600.878906"/>
      <use xlink:href="#DejaVuSans-63" x="628.662109"/>
      <use xlink:href="#DejaVuSans-6b" x="683.642578"/>
      <use xlink:href="#DejaVuSans-65" x="737.927734"/>
      <use xlink:href="#DejaVuSans-74" x="799.451172"/>
      <use xlink:href="#DejaVuSans-73" x="838.660156"/>
      <use xlink:href="#DejaVuSans-20" x="890.759766"/>
      <use xlink:href="#DejaVuSans-73" x="922.546875"/>
      <use xlink:href="#DejaVuSans-6f" x="974.646484"/>
      <use xlink:href="#DejaVuSans-6c" x="1035.828125"/>
      <use xlink:href="#DejaVuSans-64" x="1063.611328"/>
     </g>
    </g>
   </g>
   <g id="line2d_39">
    <path d="M 57.6 52.662857 
L 414.72 52.662857 
" clip-path="url(#p38e9fec053)" style="fill: none; stroke-dasharray: 5.55,2.4; stroke-dashoffset: 0; stroke: #32cd32; stroke-width: 1.5"/>
   </g>
   <g id="patch_3">
    <path d="M 57.6 276.48 
L 57.6 41.472 
" style="fill: none; stroke: #000000; stroke-width: 0.8; stroke-linejoin: miter; stroke-linecap: square"/>
   </g>
   <g id="patch_4">
    <path d="M 414.72 276.48 
L 414.72 41.472 
" style="fill: none; stroke: #000000; stroke-width: 0.8; stroke-linejoin: miter; stroke-linecap: square"/>
   </g>
   <g id="patch_5">
    <path d="M 57.6 276.48 
L 414.72 276.48 
" style="fill: none; stroke: #000000; stroke-width: 0.8; stroke-linejoin: miter; stroke-linecap: square"/>
   </g>
   <g id="patch_6">
    <path d="M 57.6 41.472 
L 414.72 41.472 
" style="fill: none; stroke: #000000; stroke-width: 0.8; stroke-linejoin: miter; stroke-linecap: square"/>
   </g>
   <g id="text_18">
    <!-- MCH Tickets -->
    <g style="fill: #ffffff" transform="translate(199.504687 35.472)scale(0.12 -0.12)">
     <defs>
      <path id="DejaVuSans-43" d="M 4122 4306 
L 4122 3641 
Q 3803 3938 3442 4084 
Q 3081 4231 2675 4231 
Q 1875 4231 1450 3742 
Q 1025 3253 1025 2328 
Q 1025 1406 1450 917 
Q 1875 428 2675 428 
Q 3081 428 3442 575 
Q 3803 722 4122 1019 
L 4122 359 
Q 3791 134 3420 21 
Q 3050 -91 2638 -91 
Q 1578 -91 968 557 
Q 359 1206 359 2328 
Q 359 3453 968 4101 
Q 1578 4750 2638 4750 
Q 3056 4750 3426 4639 
Q 3797 4528 4122 4306 
z
" transform="scale(0.015625)"/>
      <path id="DejaVuSans-48" d="M 628 4666 
L 1259 4666 
L 1259 2753 
L 3553 2753 
L 3553 4666 
L 4184 4666 
L 4184 0 
L 3553 0 
L 3553 2222 
L 1259 2222 
L 1259 0 
L 628 0 
L 628 4666 
z
" transform="scale(0.015625)"/>
      <path id="DejaVuSans-54" d="M -19 4666 
L 3928 4666 
L 3928 4134 
L 2272 4134 
L 2272 0 
L 1638 0 
L 1638 4134 
L -19 4134 
L -19 4666 
z
" transform="scale(0.015625)"/>
     </defs>
     <use xlink:href="#DejaVuSans-4d"/>
     <use xlink:href="#DejaVuSans-43" x="86.279297"/>
     <use xlink:href="#DejaVuSans-48" x="156.103516"/>
     <use xlink:href="#DejaVuSans-20" x="231.298828"/>
     <use xlink:href="#DejaVuSans-54" x="263.085938"/>
     <use xlink:href="#DejaVuSans-69" x="321.044922"/>
     <use xlink:href="#DejaVuSans-63" x="348.828125"/>
     <use xlink:href="#DejaVuSans-6b" x="403.808594"/>
     <use xlink:href="#DejaVuSans-65" x="458.09375"/>
     <use xlink:href="#DejaVuSans-74" x="519.617188"/>
     <use xlink:href="#DejaVuSans-73" x="558.826172"/>
    </g>
   </g>
   <g id="legend_1">
    <g id="patch_7">
     <path d="M 64.6 93.506375 
L 244.389062 93.506375 
Q 246.389062 93.506375 246.389062 91.506375 
L 246.389062 48.472 
Q 246.389062 46.472 244.389062 46.472 
L 64.6 46.472 
Q 62.6 46.472 62.6 48.472 
L 62.6 91.506375 
Q 62.6 93.506375 64.6 93.506375 
z
" style="fill: #ffffff; opacity: 0.8; stroke: #cccccc; stroke-linejoin: miter"/>
    </g>
    <g id="patch_8">
     <path d="M 66.6 58.070437 
L 86.6 58.070437 
L 86.6 51.070437 
L 66.6 51.070437 
z
" style="fill: #fa448c; fill-opacity: 0.8"/>
    </g>
    <g id="text_19">
     <!-- Early-BirdTickets -->
     <g transform="translate(94.6 58.070437)scale(0.1 -0.1)">
      <defs>
       <path id="DejaVuSans-45" d="M 628 4666 
L 3578 4666 
L 3578 4134 
L 1259 4134 
L 1259 2753 
L 3481 2753 
L 3481 2222 
L 1259 2222 
L 1259 531 
L 3634 531 
L 3634 0 
L 628 0 
L 628 4666 
z
" transform="scale(0.015625)"/>
       <path id="DejaVuSans-61" d="M 2194 1759 
Q 1497 1759 1228 1600 
Q 959 1441 959 1056 
Q 959 750 1161 570 
Q 1363 391 1709 391 
Q 2188 391 2477 730 
Q 2766 1069 2766 1631 
L 2766 1759 
L 2194 1759 
z
M 3341 1997 
L 3341 0 
L 2766 0 
L 2766 531 
Q 2569 213 2275 61 
Q 1981 -91 1556 -91 
Q 1019 -91 701 211 
Q 384 513 384 1019 
Q 384 1609 779 1909 
Q 1175 2209 1959 2209 
L 2766 2209 
L 2766 2266 
Q 2766 2663 2505 2880 
Q 2244 3097 1772 3097 
Q 1472 3097 1187 3025 
Q 903 2953 641 2809 
L 641 3341 
Q 956 3463 1253 3523 
Q 1550 3584 1831 3584 
Q 2591 3584 2966 3190 
Q 3341 2797 3341 1997 
z
" transform="scale(0.015625)"/>
       <path id="DejaVuSans-79" d="M 2059 -325 
Q 1816 -950 1584 -1140 
Q 1353 -1331 966 -1331 
L 506 -1331 
L 506 -850 
L 844 -850 
Q 1081 -850 1212 -737 
Q 1344 -625 1503 -206 
L 1606 56 
L 191 3500 
L 800 3500 
L 1894 763 
L 2988 3500 
L 3597 3500 
L 2059 -325 
z
" transform="scale(0.015625)"/>
       <path id="DejaVuSans-2d" d="M 313 2009 
L 1997 2009 
L 1997 1497 
L 313 1497 
L 313 2009 
z
" transform="scale(0.015625)"/>
       <path id="DejaVuSans-42" d="M 1259 2228 
L 1259 519 
L 2272 519 
Q 2781 519 3026 730 
Q 3272 941 3272 1375 
Q 3272 1813 3026 2020 
Q 2781 2228 2272 2228 
L 1259 2228 
z
M 1259 4147 
L 1259 2741 
L 2194 2741 
Q 2656 2741 2882 2914 
Q 3109 3088 3109 3444 
Q 3109 3797 2882 3972 
Q 2656 4147 2194 4147 
L 1259 4147 
z
M 628 4666 
L 2241 4666 
Q 2963 4666 3353 4366 
Q 3744 4066 3744 3513 
Q 3744 3084 3544 2831 
Q 3344 2578 2956 2516 
Q 3422 2416 3680 2098 
Q 3938 1781 3938 1306 
Q 3938 681 3513 340 
Q 3088 0 2303 0 
L 628 0 
L 628 4666 
z
" transform="scale(0.015625)"/>
      </defs>
      <use xlink:href="#DejaVuSans-45"/>
      <use xlink:href="#DejaVuSans-61" x="63.183594"/>
      <use xlink:href="#DejaVuSans-72" x="124.462891"/>
      <use xlink:href="#DejaVuSans-6c" x="165.576172"/>
      <use xlink:href="#DejaVuSans-79" x="193.359375"/>
      <use xlink:href="#DejaVuSans-2d" x="250.789062"/>
      <use xlink:href="#DejaVuSans-42" x="283.248047"/>
      <use xlink:href="#DejaVuSans-69" x="351.851562"/>
      <use xlink:href="#DejaVuSans-72" x="379.634766"/>
      <use xlink:href="#DejaVuSans-64" x="418.998047"/>
      <use xlink:href="#DejaVuSans-54" x="482.474609"/>
      <use xlink:href="#DejaVuSans-69" x="540.433594"/>
      <use xlink:href="#DejaVuSans-63" x="568.216797"/>
      <use xlink:href="#DejaVuSans-6b" x="623.197266"/>
      <use xlink:href="#DejaVuSans-65" x="677.482422"/>
      <use xlink:href="#DejaVuSans-74" x="739.005859"/>
      <use xlink:href="#DejaVuSans-73" x="778.214844"/>
     </g>
    </g>
    <g id="patch_9">
     <path d="M 66.6 72.748562 
L 86.6 72.748562 
L 86.6 65.748562 
L 66.6 65.748562 
z
" style="fill: #43b5a0; fill-opacity: 0.8"/>
    </g>
    <g id="text_20">
     <!-- RegularTickets -->
     <g transform="translate(94.6 72.748562)scale(0.1 -0.1)">
      <defs>
       <path id="DejaVuSans-52" d="M 2841 2188 
Q 3044 2119 3236 1894 
Q 3428 1669 3622 1275 
L 4263 0 
L 3584 0 
L 2988 1197 
Q 2756 1666 2539 1819 
Q 2322 1972 1947 1972 
L 1259 1972 
L 1259 0 
L 628 0 
L 628 4666 
L 2053 4666 
Q 2853 4666 3247 4331 
Q 3641 3997 3641 3322 
Q 3641 2881 3436 2590 
Q 3231 2300 2841 2188 
z
M 1259 4147 
L 1259 2491 
L 2053 2491 
Q 2509 2491 2742 2702 
Q 2975 2913 2975 3322 
Q 2975 3731 2742 3939 
Q 2509 4147 2053 4147 
L 1259 4147 
z
" transform="scale(0.015625)"/>
       <path id="DejaVuSans-67" d="M 2906 1791 
Q 2906 2416 2648 2759 
Q 2391 3103 1925 3103 
Q 1463 3103 1205 2759 
Q 947 2416 947 1791 
Q 947 1169 1205 825 
Q 1463 481 1925 481 
Q 2391 481 2648 825 
Q 2906 1169 2906 1791 
z
M 3481 434 
Q 3481 -459 3084 -895 
Q 2688 -1331 1869 -1331 
Q 1566 -1331 1297 -1286 
Q 1028 -1241 775 -1147 
L 775 -588 
Q 1028 -725 1275 -790 
Q 1522 -856 1778 -856 
Q 2344 -856 2625 -561 
Q 2906 -266 2906 331 
L 2906 616 
Q 2728 306 2450 153 
Q 2172 0 1784 0 
Q 1141 0 747 490 
Q 353 981 353 1791 
Q 353 2603 747 3093 
Q 1141 3584 1784 3584 
Q 2172 3584 2450 3431 
Q 2728 3278 2906 2969 
L 2906 3500 
L 3481 3500 
L 3481 434 
z
" transform="scale(0.015625)"/>
      </defs>
      <use xlink:href="#DejaVuSans-52"/>
      <use xlink:href="#DejaVuSans-65" x="64.982422"/>
      <use xlink:href="#DejaVuSans-67" x="126.505859"/>
      <use xlink:href="#DejaVuSans-75" x="189.982422"/>
      <use xlink:href="#DejaVuSans-6c" x="253.361328"/>
      <use xlink:href="#DejaVuSans-61" x="281.144531"/>
      <use xlink:href="#DejaVuSans-72" x="342.423828"/>
      <use xlink:href="#DejaVuSans-54" x="383.537109"/>
      <use xlink:href="#DejaVuSans-69" x="441.496094"/>
      <use xlink:href="#DejaVuSans-63" x="469.279297"/>
      <use xlink:href="#DejaVuSans-6b" x="524.259766"/>
      <use xlink:href="#DejaVuSans-65" x="578.544922"/>
      <use xlink:href="#DejaVuSans-74" x="640.068359"/>
      <use xlink:href="#DejaVuSans-73" x="679.277344"/>
     </g>
    </g>
    <g id="line2d_40">
     <path d="M 66.6 83.926687 
L 76.6 83.926687 
L 86.6 83.926687 
" style="fill: none; stroke-dasharray: 5.55,2.4; stroke-dashoffset: 0; stroke: #32cd32; stroke-width: 1.5"/>
    </g>
    <g id="text_21">
     <!-- Required tickets w/ donations -->
     <g transform="translate(94.6 87.426687)scale(0.1 -0.1)">
      <defs>
       <path id="DejaVuSans-71" d="M 947 1747 
Q 947 1113 1208 752 
Q 1469 391 1925 391 
Q 2381 391 2643 752 
Q 2906 1113 2906 1747 
Q 2906 2381 2643 2742 
Q 2381 3103 1925 3103 
Q 1469 3103 1208 2742 
Q 947 2381 947 1747 
z
M 2906 525 
Q 2725 213 2448 61 
Q 2172 -91 1784 -91 
Q 1150 -91 751 415 
Q 353 922 353 1747 
Q 353 2572 751 3078 
Q 1150 3584 1784 3584 
Q 2172 3584 2448 3432 
Q 2725 3281 2906 2969 
L 2906 3500 
L 3481 3500 
L 3481 -1331 
L 2906 -1331 
L 2906 525 
z
" transform="scale(0.015625)"/>
       <path id="DejaVuSans-77" d="M 269 3500 
L 844 3500 
L 1563 769 
L 2278 3500 
L 2956 3500 
L 3675 769 
L 4391 3500 
L 4966 3500 
L 4050 0 
L 3372 0 
L 2619 2869 
L 1863 0 
L 1184 0 
L 269 3500 
z
" transform="scale(0.015625)"/>
      </defs>
      <use xlink:href="#DejaVuSans-52"/>
      <use xlink:href="#DejaVuSans-65" x="64.982422"/>
      <use xlink:href="#DejaVuSans-71" x="126.505859"/>
      <use xlink:href="#DejaVuSans-75" x="189.982422"/>
      <use xlink:href="#DejaVuSans-69" x="253.361328"/>
      <use xlink:href="#DejaVuSans-72" x="281.144531"/>
      <use xlink:href="#DejaVuSans-65" x="320.007812"/>
      <use xlink:href="#DejaVuSans-64" x="381.53125"/>
      <use xlink:href="#DejaVuSans-20" x="445.007812"/>
      <use xlink:href="#DejaVuSans-74" x="476.794922"/>
      <use xlink:href="#DejaVuSans-69" x="516.003906"/>
      <use xlink:href="#DejaVuSans-63" x="543.787109"/>
      <use xlink:href="#DejaVuSans-6b" x="598.767578"/>
      <use xlink:href="#DejaVuSans-65" x="653.052734"/>
      <use xlink:href="#DejaVuSans-74" x="714.576172"/>
      <use xlink:href="#DejaVuSans-73" x="753.785156"/>
      <use xlink:href="#DejaVuSans-20" x="805.884766"/>
      <use xlink:href="#DejaVuSans-77" x="837.671875"/>
      <use xlink:href="#DejaVuSans-2f" x="919.458984"/>
      <use xlink:href="#DejaVuSans-20" x="953.150391"/>
      <use xlink:href="#DejaVuSans-64" x="984.9375"/>
      <use xlink:href="#DejaVuSans-6f" x="1048.414062"/>
      <use xlink:href="#DejaVuSans-6e" x="1109.595703"/>
      <use xlink:href="#DejaVuSans-61" x="1172.974609"/>
      <use xlink:href="#DejaVuSans-74" x="1234.253906"/>
      <use xlink:href="#DejaVuSans-69" x="1273.462891"/>
      <use xlink:href="#DejaVuSans-6f" x="1301.246094"/>
      <use xlink:href="#DejaVuSans-6e" x="1362.427734"/>
      <use xlink:href="#DejaVuSans-73" x="1425.806641"/>
     </g>
    </g>
   </g>
  </g>
 </g>
 <defs>
  <clipPath id="p38e9fec053">
   <rect x="57.6" y="41.472" width="357.12" height="235.008"/>
  </clipPath>
 </defs>
</svg>
