<?xml version="1.0" encoding="utf-8" standalone="no"?>
<!DOCTYPE svg PUBLIC "-//W3C//DTD SVG 1.1//EN"
  "http://www.w3.org/Graphics/SVG/1.1/DTD/svg11.dtd">
<svg xmlns:xlink="http://www.w3.org/1999/xlink" width="460.8pt" height="345.6pt" viewBox="0 0 460.8 345.6" xmlns="http://www.w3.org/2000/svg" version="1.1">
 <metadata>
  <rdf:RDF xmlns:dc="http://purl.org/dc/elements/1.1/" xmlns:cc="http://creativecommons.org/ns#" xmlns:rdf="http://www.w3.org/1999/02/22-rdf-syntax-ns#">
   <cc:Work>
    <dc:type rdf:resource="http://purl.org/dc/dcmitype/StillImage"/>
    <dc:date>2022-01-17T16:29:05.376668</dc:date>
    <dc:format>image/svg+xml</dc:format>
    <dc:creator>
     <cc:Agent>
      <dc:title>Matplotlib v3.5.1, https://matplotlib.org/</dc:title>
     </cc:Agent>
    </dc:creator>
   </cc:Work>
  </rdf:RDF>
 </metadata>
 <defs>
  <style type="text/css">*{stroke-linejoin: round; stroke-linecap: butt}</style>
 </defs>
 <g id="figure_1">
  <g id="patch_1">
   <path d="M 0 345.6 
L 460.8 345.6 
L 460.8 0 
L 0 0 
L 0 345.6 
z
" style="fill: none; opacity: 0"/>
  </g>
  <g id="axes_1">
   <g id="patch_2">
    <path d="M 57.6 276.48 
L 414.72 276.48 
L 414.72 41.472 
L 57.6 41.472 
z
" style="fill: #fec859"/>
   </g>
   <g id="PolyCollection_1">
    <path d="M 73.832727 276.48 
L 73.832727 276.48 
L 73.832727 276.48 
L 73.832727 276.48 
L 74.331824 276.48 
L 74.331824 276.48 
L 74.83092 276.48 
L 74.83092 276.48 
L 75.330016 276.48 
L 75.330016 276.48 
L 75.829112 276.48 
L 75.829112 276.48 
L 76.328209 276.48 
L 76.328209 276.48 
L 76.827305 276.48 
L 76.827305 276.48 
L 77.326401 276.48 
L 77.326401 276.48 
L 77.825497 276.48 
L 77.825497 276.48 
L 78.324594 276.48 
L 78.324594 276.48 
L 78.82369 276.48 
L 78.82369 276.48 
L 79.322786 276.48 
L 79.322786 276.48 
L 79.821883 276.48 
L 79.821883 276.48 
L 80.320979 276.48 
L 80.320979 276.48 
L 80.820075 276.48 
L 80.820075 276.48 
L 81.319171 276.48 
L 81.319171 276.48 
L 81.818268 276.48 
L 81.818268 276.48 
L 82.81646 276.48 
L 82.81646 276.48 
L 83.315556 276.48 
L 83.315556 276.48 
L 83.814653 276.48 
L 83.814653 276.48 
L 84.313749 276.48 
L 84.313749 276.48 
L 84.812845 276.48 
L 84.812845 276.48 
L 85.311941 276.48 
L 85.311941 276.48 
L 85.811038 276.48 
L 85.811038 276.48 
L 86.310134 276.48 
L 86.310134 276.48 
L 86.80923 276.48 
L 86.80923 276.48 
L 87.308327 276.48 
L 87.308327 276.48 
L 88.306519 276.48 
L 88.306519 276.48 
L 89.304712 276.48 
L 89.304712 276.48 
L 89.803808 276.48 
L 89.803808 276.48 
L 90.302904 276.48 
L 90.302904 276.48 
L 93.796578 276.48 
L 93.796578 276.48 
L 94.295674 276.48 
L 94.295674 276.48 
L 94.794771 276.48 
L 94.794771 276.48 
L 95.293867 276.48 
L 95.293867 276.48 
L 95.792963 276.48 
L 95.792963 276.48 
L 96.292059 276.48 
L 96.292059 276.48 
L 96.791156 276.48 
L 96.791156 276.48 
L 97.290252 276.48 
L 97.290252 276.48 
L 97.789348 276.48 
L 97.789348 276.48 
L 98.288445 276.48 
L 98.288445 276.48 
L 98.787541 276.48 
L 98.787541 276.48 
L 99.286637 276.48 
L 99.286637 276.48 
L 99.785733 276.48 
L 99.785733 276.48 
L 100.28483 276.48 
L 100.28483 276.48 
L 100.783926 276.48 
L 100.783926 276.48 
L 101.283022 276.48 
L 101.283022 276.48 
L 101.782118 276.48 
L 101.782118 276.48 
L 102.281215 276.48 
L 102.281215 276.48 
L 105.275792 276.48 
L 105.275792 276.48 
L 106.773081 276.48 
L 106.773081 276.48 
L 107.272177 276.48 
L 107.272177 276.48 
L 107.771274 276.48 
L 107.771274 276.48 
L 108.769466 276.48 
L 108.769466 276.48 
L 109.268562 276.48 
L 109.268562 276.48 
L 109.767659 276.48 
L 109.767659 276.48 
L 110.266755 276.48 
L 110.266755 276.48 
L 110.765851 276.48 
L 110.765851 276.48 
L 111.264948 276.48 
L 111.264948 276.48 
L 111.764044 276.48 
L 111.764044 276.48 
L 112.26314 276.48 
L 112.26314 276.48 
L 112.762236 276.48 
L 112.762236 276.48 
L 113.261333 276.48 
L 113.261333 276.48 
L 113.760429 276.48 
L 113.760429 276.48 
L 114.259525 276.48 
L 114.259525 276.48 
L 118.751392 276.48 
L 118.751392 276.48 
L 119.749584 276.48 
L 119.749584 276.48 
L 120.24868 276.48 
L 120.24868 276.48 
L 120.747777 276.48 
L 120.747777 276.48 
L 121.246873 276.48 
L 121.246873 276.48 
L 123.243258 276.48 
L 123.243258 276.48 
L 131.727895 276.48 
L 131.727895 276.48 
L 132.726087 276.48 
L 132.726087 276.48 
L 133.225183 276.48 
L 133.225183 276.48 
L 134.223376 276.48 
L 134.223376 276.48 
L 134.722472 276.48 
L 134.722472 276.48 
L 136.219761 276.48 
L 136.219761 276.48 
L 138.216146 276.48 
L 138.216146 276.48 
L 138.715242 276.48 
L 138.715242 276.48 
L 142.708013 276.48 
L 142.708013 276.48 
L 143.207109 276.48 
L 143.207109 276.48 
L 143.706205 276.48 
L 143.706205 276.48 
L 144.205301 276.48 
L 144.205301 276.48 
L 144.704398 276.48 
L 144.704398 276.48 
L 145.203494 276.48 
L 145.203494 276.48 
L 145.70259 276.48 
L 145.70259 276.48 
L 146.201686 276.48 
L 146.201686 276.48 
L 146.700783 276.48 
L 146.700783 276.48 
L 147.698975 276.48 
L 147.698975 276.48 
L 148.198072 276.48 
L 148.198072 276.48 
L 148.697168 276.48 
L 148.697168 276.48 
L 149.196264 276.48 
L 149.196264 276.48 
L 149.69536 276.48 
L 149.69536 276.48 
L 150.194457 276.48 
L 150.194457 276.48 
L 151.192649 276.48 
L 151.192649 276.48 
L 153.189034 276.48 
L 153.189034 276.48 
L 155.185419 276.48 
L 155.185419 276.48 
L 156.183612 276.48 
L 156.183612 276.48 
L 157.181804 276.48 
L 157.181804 276.48 
L 158.179997 276.48 
L 158.179997 276.48 
L 158.679093 276.48 
L 158.679093 276.48 
L 159.677286 276.48 
L 159.677286 276.48 
L 160.176382 276.48 
L 160.176382 276.48 
L 160.675478 276.48 
L 160.675478 276.48 
L 161.174575 276.48 
L 161.174575 276.48 
L 161.673671 276.48 
L 161.673671 276.48 
L 162.172767 276.48 
L 162.172767 276.48 
L 166.165537 276.48 
L 166.165537 276.48 
L 166.664633 276.48 
L 166.664633 276.48 
L 167.16373 276.48 
L 167.16373 276.48 
L 167.662826 276.48 
L 167.662826 276.48 
L 168.161922 276.48 
L 168.161922 276.48 
L 168.661019 276.48 
L 168.661019 276.48 
L 169.160115 276.48 
L 169.160115 276.48 
L 169.659211 276.48 
L 169.659211 276.48 
L 170.657404 276.48 
L 170.657404 276.48 
L 171.655596 276.48 
L 171.655596 276.48 
L 172.653789 276.48 
L 172.653789 276.48 
L 173.152885 276.48 
L 173.152885 276.48 
L 173.651981 276.48 
L 173.651981 276.48 
L 174.151078 276.48 
L 174.151078 276.48 
L 175.14927 276.48 
L 175.14927 276.48 
L 175.648366 276.48 
L 175.648366 276.48 
L 176.147463 276.48 
L 176.147463 276.48 
L 178.143848 276.48 
L 178.143848 276.48 
L 179.641137 276.48 
L 179.641137 276.48 
L 180.140233 276.48 
L 180.140233 276.48 
L 182.136618 276.48 
L 182.136618 276.48 
L 183.13481 276.48 
L 183.13481 276.48 
L 183.633907 276.48 
L 183.633907 276.48 
L 184.133003 276.48 
L 184.133003 276.48 
L 184.632099 276.48 
L 184.632099 276.48 
L 185.131195 276.48 
L 185.131195 276.48 
L 185.630292 276.48 
L 185.630292 276.48 
L 186.628484 276.48 
L 186.628484 276.48 
L 189.623062 276.48 
L 189.623062 276.48 
L 190.122158 276.48 
L 190.122158 276.48 
L 190.621254 276.48 
L 190.621254 276.48 
L 191.619447 276.48 
L 191.619447 276.48 
L 192.118543 276.48 
L 192.118543 276.48 
L 193.116736 276.48 
L 193.116736 276.48 
L 193.615832 276.48 
L 193.615832 276.48 
L 195.113121 276.48 
L 195.113121 276.48 
L 195.612217 276.48 
L 195.612217 276.48 
L 196.61041 276.48 
L 196.61041 276.48 
L 197.109506 276.48 
L 197.109506 276.48 
L 197.608602 276.48 
L 197.608602 276.48 
L 198.107699 276.48 
L 198.107699 276.48 
L 198.606795 276.48 
L 198.606795 276.48 
L 203.597757 276.48 
L 203.597757 276.48 
L 204.59595 276.48 
L 204.59595 276.48 
L 205.095046 276.48 
L 205.095046 276.48 
L 206.592335 276.48 
L 206.592335 276.48 
L 207.091431 276.48 
L 207.091431 276.48 
L 207.590528 276.48 
L 207.590528 276.48 
L 209.087816 276.48 
L 209.087816 276.48 
L 209.586913 276.48 
L 209.586913 276.48 
L 214.577875 276.48 
L 214.577875 276.48 
L 215.576068 276.48 
L 215.576068 276.48 
L 216.57426 276.48 
L 216.57426 276.48 
L 217.073357 276.48 
L 217.073357 276.48 
L 217.572453 276.48 
L 217.572453 276.48 
L 218.071549 276.48 
L 218.071549 276.48 
L 218.570646 276.48 
L 218.570646 276.48 
L 219.568838 276.48 
L 219.568838 276.48 
L 220.567031 276.48 
L 220.567031 276.48 
L 221.565223 276.48 
L 221.565223 276.48 
L 222.064319 276.48 
L 222.064319 276.48 
L 222.563416 276.48 
L 222.563416 276.48 
L 226.556186 276.48 
L 226.556186 276.48 
L 228.053475 276.48 
L 228.053475 276.48 
L 228.552571 276.48 
L 228.552571 276.48 
L 230.04986 276.48 
L 230.04986 276.48 
L 231.048052 276.48 
L 231.048052 276.48 
L 231.547149 276.48 
L 231.547149 276.48 
L 232.046245 276.48 
L 232.046245 276.48 
L 232.545341 276.48 
L 232.545341 276.48 
L 233.543534 276.48 
L 233.543534 276.48 
L 238.0354 276.48 
L 238.0354 276.48 
L 240.530881 276.48 
L 240.530881 276.48 
L 241.029978 276.48 
L 241.029978 276.48 
L 242.527267 276.48 
L 242.527267 276.48 
L 243.525459 276.48 
L 243.525459 276.48 
L 244.024555 276.48 
L 244.024555 276.48 
L 244.523652 276.48 
L 244.523652 276.48 
L 245.022748 276.48 
L 245.022748 276.48 
L 245.521844 276.48 
L 245.521844 276.48 
L 246.02094 276.48 
L 246.02094 276.48 
L 250.013711 276.48 
L 250.013711 276.48 
L 251.011903 276.48 
L 251.011903 276.48 
L 251.510999 276.48 
L 251.510999 276.48 
L 252.010096 276.48 
L 252.010096 276.48 
L 252.509192 276.48 
L 252.509192 276.48 
L 253.008288 276.48 
L 253.008288 276.48 
L 253.507384 276.48 
L 253.507384 276.48 
L 254.006481 276.48 
L 254.006481 276.48 
L 254.505577 276.48 
L 254.505577 276.48 
L 255.50377 276.48 
L 255.50377 276.48 
L 261.992021 276.48 
L 261.992021 276.48 
L 263.988406 276.48 
L 263.988406 276.48 
L 264.986599 276.48 
L 264.986599 276.48 
L 265.485695 276.48 
L 265.485695 276.48 
L 266.982984 276.48 
L 266.982984 276.48 
L 267.48208 276.48 
L 267.48208 276.48 
L 267.981176 276.48 
L 267.981176 276.48 
L 269.478465 276.48 
L 269.478465 276.48 
L 270.975754 276.48 
L 270.975754 276.48 
L 274.469428 276.48 
L 274.469428 276.48 
L 274.968524 276.48 
L 274.968524 276.48 
L 275.46762 276.48 
L 275.46762 276.48 
L 275.966717 276.48 
L 275.966717 276.48 
L 276.465813 276.48 
L 276.465813 276.48 
L 277.963102 276.48 
L 277.963102 276.48 
L 279.460391 276.48 
L 279.460391 276.48 
L 280.957679 276.48 
L 280.957679 276.48 
L 288.94322 276.48 
L 288.94322 276.48 
L 290.939605 276.48 
L 290.939605 276.48 
L 291.438701 276.48 
L 291.438701 276.48 
L 300.422434 276.48 
L 300.422434 276.48 
L 300.92153 276.48 
L 300.92153 276.48 
L 301.420626 276.48 
L 301.420626 276.48 
L 302.418819 276.48 
L 302.418819 276.48 
L 302.917915 276.48 
L 302.917915 276.48 
L 303.417011 276.48 
L 303.417011 276.48 
L 304.415204 276.48 
L 304.415204 276.48 
L 308.90707 276.48 
L 308.90707 276.48 
L 309.905263 276.48 
L 309.905263 276.48 
L 311.402552 276.48 
L 311.402552 276.48 
L 312.400744 276.48 
L 312.400744 276.48 
L 314.397129 276.48 
L 314.397129 276.48 
L 317.391707 276.48 
L 317.391707 276.48 
L 323.879959 276.48 
L 323.879959 276.48 
L 324.379055 276.48 
L 324.379055 276.48 
L 325.876344 276.48 
L 325.876344 276.48 
L 326.874536 276.48 
L 326.874536 276.48 
L 327.373632 276.48 
L 327.373632 276.48 
L 328.371825 276.48 
L 328.371825 276.48 
L 332.863691 276.48 
L 332.863691 276.48 
L 334.36098 276.48 
L 334.36098 276.48 
L 335.359173 276.48 
L 335.359173 276.48 
L 335.858269 276.48 
L 335.858269 276.48 
L 336.357365 276.48 
L 336.357365 276.48 
L 338.35375 276.48 
L 338.35375 276.48 
L 339.851039 276.48 
L 339.851039 276.48 
L 340.350135 276.48 
L 340.350135 276.48 
L 340.849232 276.48 
L 340.849232 276.48 
L 341.348328 276.48 
L 341.348328 276.48 
L 346.339291 276.48 
L 346.339291 276.48 
L 347.337483 276.48 
L 347.337483 276.48 
L 349.832965 276.48 
L 349.832965 276.48 
L 352.328446 276.48 
L 352.328446 276.48 
L 352.827542 276.48 
L 352.827542 276.48 
L 353.326638 276.48 
L 353.326638 276.48 
L 354.324831 276.48 
L 354.324831 276.48 
L 356.820312 276.48 
L 356.820312 276.48 
L 357.818505 276.48 
L 357.818505 276.48 
L 359.81489 276.48 
L 359.81489 276.48 
L 363.80766 276.48 
L 363.80766 276.48 
L 365.804045 276.48 
L 365.804045 276.48 
L 368.74239 276.48 
L 368.74239 276.48 
L 368.946996 276.48 
L 368.946996 276.48 
L 369.125556 276.48 
L 369.125556 276.48 
L 369.479578 276.48 
L 369.479578 276.48 
L 369.704089 276.48 
L 369.704089 276.48 
L 369.93971 276.48 
L 369.93971 276.48 
L 370.116167 276.48 
L 370.116167 276.48 
L 370.480098 276.48 
L 370.480098 276.48 
L 370.6785 276.48 
L 370.6785 276.48 
L 370.945582 276.48 
L 370.945582 276.48 
L 371.141825 276.48 
L 371.141825 276.48 
L 371.454252 276.48 
L 371.454252 276.48 
L 371.65072 276.48 
L 371.65072 276.48 
L 371.915272 276.48 
L 371.915272 276.48 
L 372.100429 276.48 
L 372.100429 276.48 
L 372.533869 276.48 
L 372.533869 276.48 
L 372.815234 276.48 
L 372.815234 276.48 
L 373.139315 276.48 
L 373.139315 276.48 
L 373.163978 276.48 
L 373.163978 276.48 
L 373.178507 276.48 
L 373.178507 276.48 
L 373.424955 276.48 
L 373.424955 276.48 
L 373.613289 276.48 
L 373.613289 276.48 
L 373.94422 276.48 
L 373.94422 276.48 
L 374.158158 276.48 
L 374.158158 276.48 
L 374.518284 276.48 
L 374.518284 276.48 
L 375.230005 276.48 
L 375.230005 276.48 
L 375.250608 276.48 
L 375.250608 276.48 
L 375.276067 276.48 
L 375.276067 276.48 
L 375.463095 276.48 
L 375.463095 276.48 
L 375.674736 276.48 
L 375.674736 276.48 
L 375.904587 276.48 
L 375.904587 276.48 
L 376.093995 276.48 
L 376.093995 276.48 
L 376.441636 276.48 
L 376.441636 276.48 
L 376.91013 276.48 
L 376.91013 276.48 
L 382.454466 276.48 
L 382.454466 276.48 
L 383.892811 276.48 
L 383.892811 276.48 
L 385.118642 276.48 
L 385.118642 276.48 
L 385.403095 276.48 
L 385.403095 276.48 
L 386.798431 276.48 
L 386.798431 276.48 
L 387.15224 276.48 
L 387.15224 276.48 
L 387.438112 276.48 
L 387.438112 276.48 
L 387.884366 276.48 
L 387.884366 276.48 
L 395.421669 276.48 
L 395.421669 276.48 
L 398.487273 276.48 
L 398.487273 276.48 
L 398.487273 200.083749 
L 398.487273 200.083749 
L 398.487273 200.083749 
L 395.421669 200.083749 
L 395.421669 200.083749 
L 387.884366 200.083749 
L 387.884366 200.083749 
L 387.438112 200.083749 
L 387.438112 200.083749 
L 387.15224 200.083749 
L 387.15224 200.083749 
L 386.798431 200.083749 
L 386.798431 200.083749 
L 385.403095 200.083749 
L 385.403095 200.083749 
L 385.118642 200.083749 
L 385.118642 200.083749 
L 383.892811 200.083749 
L 383.892811 200.083749 
L 382.454466 200.083749 
L 382.454466 200.083749 
L 376.91013 200.083749 
L 376.91013 200.083749 
L 376.441636 200.083749 
L 376.441636 200.083749 
L 376.093995 200.083749 
L 376.093995 200.083749 
L 375.904587 200.083749 
L 375.904587 200.083749 
L 375.674736 200.083749 
L 375.674736 200.083749 
L 375.463095 200.083749 
L 375.463095 200.083749 
L 375.276067 200.083749 
L 375.276067 200.083749 
L 375.250608 200.083749 
L 375.250608 200.083749 
L 375.230005 200.083749 
L 375.230005 200.083749 
L 374.518284 200.083749 
L 374.518284 200.083749 
L 374.158158 200.083749 
L 374.158158 200.083749 
L 373.94422 200.083749 
L 373.94422 200.083749 
L 373.613289 200.083749 
L 373.613289 200.083749 
L 373.424955 200.083749 
L 373.424955 200.083749 
L 373.178507 200.083749 
L 373.178507 200.083749 
L 373.163978 200.083749 
L 373.163978 200.083749 
L 373.139315 200.083749 
L 373.139315 200.083749 
L 372.815234 200.083749 
L 372.815234 200.083749 
L 372.533869 200.083749 
L 372.533869 200.083749 
L 372.100429 200.083749 
L 372.100429 200.083749 
L 371.915272 200.083749 
L 371.915272 200.083749 
L 371.65072 200.083749 
L 371.65072 200.083749 
L 371.454252 200.083749 
L 371.454252 200.083749 
L 371.141825 200.083749 
L 371.141825 200.083749 
L 370.945582 200.083749 
L 370.945582 200.083749 
L 370.6785 200.083749 
L 370.6785 200.083749 
L 370.480098 200.083749 
L 370.480098 200.083749 
L 370.116167 200.083749 
L 370.116167 200.083749 
L 369.93971 200.083749 
L 369.93971 200.083749 
L 369.704089 200.083749 
L 369.704089 200.083749 
L 369.479578 200.083749 
L 369.479578 200.083749 
L 369.125556 200.083749 
L 369.125556 200.083749 
L 368.946996 200.083749 
L 368.946996 200.083749 
L 368.74239 200.083749 
L 368.74239 202.023497 
L 365.804045 202.023497 
L 365.804045 202.023497 
L 363.80766 202.023497 
L 363.80766 202.023497 
L 359.81489 202.023497 
L 359.81489 202.023497 
L 357.818505 202.023497 
L 357.818505 202.023497 
L 356.820312 202.023497 
L 356.820312 202.023497 
L 354.324831 202.023497 
L 354.324831 202.023497 
L 353.326638 202.023497 
L 353.326638 202.023497 
L 352.827542 202.023497 
L 352.827542 202.023497 
L 352.328446 202.023497 
L 352.328446 202.023497 
L 349.832965 202.023497 
L 349.832965 202.023497 
L 347.337483 202.023497 
L 347.337483 202.023497 
L 346.339291 202.023497 
L 346.339291 202.023497 
L 341.348328 202.023497 
L 341.348328 202.023497 
L 340.849232 202.023497 
L 340.849232 202.023497 
L 340.350135 202.023497 
L 340.350135 202.023497 
L 339.851039 202.023497 
L 339.851039 202.023497 
L 338.35375 202.023497 
L 338.35375 202.023497 
L 336.357365 202.023497 
L 336.357365 202.023497 
L 335.858269 202.023497 
L 335.858269 202.023497 
L 335.359173 202.023497 
L 335.359173 202.023497 
L 334.36098 202.023497 
L 334.36098 202.023497 
L 332.863691 202.023497 
L 332.863691 202.023497 
L 328.371825 202.023497 
L 328.371825 202.023497 
L 327.373632 202.023497 
L 327.373632 202.023497 
L 326.874536 202.023497 
L 326.874536 202.023497 
L 325.876344 202.023497 
L 325.876344 202.023497 
L 324.379055 202.023497 
L 324.379055 202.023497 
L 323.879959 202.023497 
L 323.879959 202.023497 
L 317.391707 202.023497 
L 317.391707 202.023497 
L 314.397129 202.023497 
L 314.397129 202.023497 
L 312.400744 202.023497 
L 312.400744 202.023497 
L 311.402552 202.023497 
L 311.402552 202.023497 
L 309.905263 202.023497 
L 309.905263 202.023497 
L 308.90707 202.023497 
L 308.90707 202.023497 
L 304.415204 202.023497 
L 304.415204 202.023497 
L 303.417011 202.023497 
L 303.417011 202.023497 
L 302.917915 202.023497 
L 302.917915 202.023497 
L 302.418819 202.023497 
L 302.418819 202.023497 
L 301.420626 202.023497 
L 301.420626 202.023497 
L 300.92153 202.023497 
L 300.92153 202.023497 
L 300.422434 202.023497 
L 300.422434 202.023497 
L 291.438701 202.023497 
L 291.438701 202.023497 
L 290.939605 202.023497 
L 290.939605 202.023497 
L 288.94322 202.023497 
L 288.94322 202.023497 
L 280.957679 202.023497 
L 280.957679 202.023497 
L 279.460391 202.023497 
L 279.460391 202.023497 
L 277.963102 202.023497 
L 277.963102 202.023497 
L 276.465813 202.023497 
L 276.465813 202.023497 
L 275.966717 202.023497 
L 275.966717 202.023497 
L 275.46762 202.023497 
L 275.46762 202.023497 
L 274.968524 202.023497 
L 274.968524 202.023497 
L 274.469428 202.023497 
L 274.469428 202.023497 
L 270.975754 202.023497 
L 270.975754 202.023497 
L 269.478465 202.023497 
L 269.478465 202.023497 
L 267.981176 202.023497 
L 267.981176 202.023497 
L 267.48208 202.023497 
L 267.48208 202.023497 
L 266.982984 202.023497 
L 266.982984 202.023497 
L 265.485695 202.023497 
L 265.485695 202.023497 
L 264.986599 202.023497 
L 264.986599 202.023497 
L 263.988406 202.023497 
L 263.988406 202.023497 
L 261.992021 202.023497 
L 261.992021 202.023497 
L 255.50377 202.023497 
L 255.50377 202.023497 
L 254.505577 202.023497 
L 254.505577 202.023497 
L 254.006481 202.023497 
L 254.006481 202.023497 
L 253.507384 202.023497 
L 253.507384 202.023497 
L 253.008288 202.023497 
L 253.008288 202.023497 
L 252.509192 202.023497 
L 252.509192 202.023497 
L 252.010096 202.023497 
L 252.010096 202.023497 
L 251.510999 202.023497 
L 251.510999 202.023497 
L 251.011903 202.023497 
L 251.011903 202.023497 
L 250.013711 202.023497 
L 250.013711 202.023497 
L 246.02094 202.023497 
L 246.02094 202.023497 
L 245.521844 202.023497 
L 245.521844 202.023497 
L 245.022748 202.023497 
L 245.022748 202.023497 
L 244.523652 202.023497 
L 244.523652 202.023497 
L 244.024555 202.023497 
L 244.024555 202.023497 
L 243.525459 202.023497 
L 243.525459 202.023497 
L 242.527267 202.023497 
L 242.527267 202.023497 
L 241.029978 202.023497 
L 241.029978 202.023497 
L 240.530881 202.023497 
L 240.530881 202.023497 
L 238.0354 202.023497 
L 238.0354 202.023497 
L 233.543534 202.023497 
L 233.543534 202.023497 
L 232.545341 202.023497 
L 232.545341 202.023497 
L 232.046245 202.023497 
L 232.046245 202.023497 
L 231.547149 202.023497 
L 231.547149 202.023497 
L 231.048052 202.023497 
L 231.048052 202.023497 
L 230.04986 202.023497 
L 230.04986 202.023497 
L 228.552571 202.023497 
L 228.552571 202.023497 
L 228.053475 202.023497 
L 228.053475 202.023497 
L 226.556186 202.023497 
L 226.556186 202.023497 
L 222.563416 202.023497 
L 222.563416 202.023497 
L 222.064319 202.023497 
L 222.064319 202.023497 
L 221.565223 202.023497 
L 221.565223 202.023497 
L 220.567031 202.023497 
L 220.567031 202.023497 
L 219.568838 202.023497 
L 219.568838 202.023497 
L 218.570646 202.023497 
L 218.570646 202.023497 
L 218.071549 202.023497 
L 218.071549 202.023497 
L 217.572453 202.023497 
L 217.572453 202.023497 
L 217.073357 202.023497 
L 217.073357 202.023497 
L 216.57426 202.023497 
L 216.57426 202.023497 
L 215.576068 202.023497 
L 215.576068 202.023497 
L 214.577875 202.023497 
L 214.577875 202.023497 
L 209.586913 202.023497 
L 209.586913 202.023497 
L 209.087816 202.023497 
L 209.087816 202.023497 
L 207.590528 202.023497 
L 207.590528 202.172709 
L 207.091431 202.172709 
L 207.091431 202.471131 
L 206.592335 202.471131 
L 206.592335 202.620343 
L 205.095046 202.620343 
L 205.095046 203.067977 
L 204.59595 203.067977 
L 204.59595 203.217189 
L 203.597757 203.217189 
L 203.597757 203.3664 
L 198.606795 203.3664 
L 198.606795 203.664823 
L 198.107699 203.664823 
L 198.107699 203.664823 
L 197.608602 203.664823 
L 197.608602 203.963246 
L 197.109506 203.963246 
L 197.109506 204.41088 
L 196.61041 204.41088 
L 196.61041 204.41088 
L 195.612217 204.41088 
L 195.612217 204.709303 
L 195.113121 204.709303 
L 195.113121 204.858514 
L 193.615832 204.858514 
L 193.615832 205.156937 
L 193.116736 205.156937 
L 193.116736 206.649051 
L 192.118543 206.649051 
L 192.118543 206.947474 
L 191.619447 206.947474 
L 191.619447 207.096686 
L 190.621254 207.096686 
L 190.621254 207.693531 
L 190.122158 207.693531 
L 190.122158 207.693531 
L 189.623062 207.693531 
L 189.623062 207.842743 
L 186.628484 207.842743 
L 186.628484 208.141166 
L 185.630292 208.141166 
L 185.630292 208.5888 
L 185.131195 208.5888 
L 185.131195 208.887223 
L 184.632099 208.887223 
L 184.632099 209.782491 
L 184.133003 209.782491 
L 184.133003 210.230126 
L 183.633907 210.230126 
L 183.633907 211.125394 
L 183.13481 211.125394 
L 183.13481 211.573029 
L 182.136618 211.573029 
L 182.136618 211.72224 
L 180.140233 211.72224 
L 180.140233 211.871451 
L 179.641137 211.871451 
L 179.641137 212.169874 
L 178.143848 212.169874 
L 178.143848 212.169874 
L 176.147463 212.169874 
L 176.147463 212.468297 
L 175.648366 212.468297 
L 175.648366 212.617509 
L 175.14927 212.617509 
L 175.14927 212.76672 
L 174.151078 212.76672 
L 174.151078 213.214354 
L 173.651981 213.214354 
L 173.651981 213.214354 
L 173.152885 213.214354 
L 173.152885 213.512777 
L 172.653789 213.512777 
L 172.653789 214.258834 
L 171.655596 214.258834 
L 171.655596 214.557257 
L 170.657404 214.557257 
L 170.657404 214.557257 
L 169.659211 214.557257 
L 169.659211 214.706469 
L 169.160115 214.706469 
L 169.160115 214.85568 
L 168.661019 214.85568 
L 168.661019 215.154103 
L 168.161922 215.154103 
L 168.161922 215.303314 
L 167.662826 215.303314 
L 167.662826 215.452526 
L 167.16373 215.452526 
L 167.16373 215.750949 
L 166.664633 215.750949 
L 166.664633 215.750949 
L 166.165537 215.750949 
L 166.165537 215.90016 
L 162.172767 215.90016 
L 162.172767 215.90016 
L 161.673671 215.90016 
L 161.673671 216.198583 
L 161.174575 216.198583 
L 161.174575 216.347794 
L 160.675478 216.347794 
L 160.675478 216.497006 
L 160.176382 216.497006 
L 160.176382 216.646217 
L 159.677286 216.646217 
L 159.677286 216.94464 
L 158.679093 216.94464 
L 158.679093 216.94464 
L 158.179997 216.94464 
L 158.179997 217.243063 
L 157.181804 217.243063 
L 157.181804 217.541486 
L 156.183612 217.541486 
L 156.183612 217.98912 
L 155.185419 217.98912 
L 155.185419 218.287543 
L 153.189034 218.287543 
L 153.189034 218.287543 
L 151.192649 218.287543 
L 151.192649 218.436754 
L 150.194457 218.436754 
L 150.194457 218.735177 
L 149.69536 218.735177 
L 149.69536 218.884389 
L 149.196264 218.884389 
L 149.196264 219.182811 
L 148.697168 219.182811 
L 148.697168 219.481234 
L 148.198072 219.481234 
L 148.198072 219.779657 
L 147.698975 219.779657 
L 147.698975 219.928869 
L 146.700783 219.928869 
L 146.700783 220.227291 
L 146.201686 220.227291 
L 146.201686 220.525714 
L 145.70259 220.525714 
L 145.70259 220.973349 
L 145.203494 220.973349 
L 145.203494 221.271771 
L 144.704398 221.271771 
L 144.704398 221.570194 
L 144.205301 221.570194 
L 144.205301 221.719406 
L 143.706205 221.719406 
L 143.706205 222.316251 
L 143.207109 222.316251 
L 143.207109 222.465463 
L 142.708013 222.465463 
L 142.708013 222.763886 
L 138.715242 222.763886 
L 138.715242 223.509943 
L 138.216146 223.509943 
L 138.216146 223.659154 
L 136.219761 223.659154 
L 136.219761 224.256 
L 134.722472 224.256 
L 134.722472 224.554423 
L 134.223376 224.554423 
L 134.223376 225.002057 
L 133.225183 225.002057 
L 133.225183 225.151269 
L 132.726087 225.151269 
L 132.726087 225.30048 
L 131.727895 225.30048 
L 131.727895 225.449691 
L 123.243258 225.449691 
L 123.243258 225.598903 
L 121.246873 225.598903 
L 121.246873 225.748114 
L 120.747777 225.748114 
L 120.747777 226.046537 
L 120.24868 226.046537 
L 120.24868 226.195749 
L 119.749584 226.195749 
L 119.749584 226.34496 
L 118.751392 226.34496 
L 118.751392 226.643383 
L 114.259525 226.643383 
L 114.259525 227.240229 
L 113.760429 227.240229 
L 113.760429 227.38944 
L 113.261333 227.38944 
L 113.261333 227.538651 
L 112.762236 227.538651 
L 112.762236 227.687863 
L 112.26314 227.687863 
L 112.26314 227.837074 
L 111.764044 227.837074 
L 111.764044 227.837074 
L 111.264948 227.837074 
L 111.264948 228.135497 
L 110.765851 228.135497 
L 110.765851 228.43392 
L 110.266755 228.43392 
L 110.266755 228.732343 
L 109.767659 228.732343 
L 109.767659 229.179977 
L 109.268562 229.179977 
L 109.268562 229.627611 
L 108.769466 229.627611 
L 108.769466 229.926034 
L 107.771274 229.926034 
L 107.771274 230.224457 
L 107.272177 230.224457 
L 107.272177 230.373669 
L 106.773081 230.373669 
L 106.773081 230.52288 
L 105.275792 230.52288 
L 105.275792 230.672091 
L 102.281215 230.672091 
L 102.281215 231.119726 
L 101.782118 231.119726 
L 101.782118 231.268937 
L 101.283022 231.268937 
L 101.283022 231.418149 
L 100.783926 231.418149 
L 100.783926 231.716571 
L 100.28483 231.716571 
L 100.28483 232.014994 
L 99.785733 232.014994 
L 99.785733 232.61184 
L 99.286637 232.61184 
L 99.286637 232.910263 
L 98.787541 232.910263 
L 98.787541 233.65632 
L 98.288445 233.65632 
L 98.288445 234.103954 
L 97.789348 234.103954 
L 97.789348 234.850011 
L 97.290252 234.850011 
L 97.290252 234.999223 
L 96.791156 234.999223 
L 96.791156 235.297646 
L 96.292059 235.297646 
L 96.292059 236.043703 
L 95.792963 236.043703 
L 95.792963 236.342126 
L 95.293867 236.342126 
L 95.293867 236.640549 
L 94.794771 236.640549 
L 94.794771 236.78976 
L 94.295674 236.78976 
L 94.295674 237.088183 
L 93.796578 237.088183 
L 93.796578 237.237394 
L 90.302904 237.237394 
L 90.302904 237.386606 
L 89.803808 237.386606 
L 89.803808 237.685029 
L 89.304712 237.685029 
L 89.304712 238.281874 
L 88.306519 238.281874 
L 88.306519 238.87872 
L 87.308327 238.87872 
L 87.308327 239.326354 
L 86.80923 239.326354 
L 86.80923 239.773989 
L 86.310134 239.773989 
L 86.310134 239.773989 
L 85.811038 239.773989 
L 85.811038 240.370834 
L 85.311941 240.370834 
L 85.311941 241.713737 
L 84.812845 241.713737 
L 84.812845 242.310583 
L 84.313749 242.310583 
L 84.313749 243.205851 
L 83.814653 243.205851 
L 83.814653 244.250331 
L 83.315556 244.250331 
L 83.315556 244.548754 
L 82.81646 244.548754 
L 82.81646 245.1456 
L 81.818268 245.1456 
L 81.818268 245.444023 
L 81.319171 245.444023 
L 81.319171 245.593234 
L 80.820075 245.593234 
L 80.820075 245.742446 
L 80.320979 245.742446 
L 80.320979 245.742446 
L 79.821883 245.742446 
L 79.821883 246.040869 
L 79.322786 246.040869 
L 79.322786 246.19008 
L 78.82369 246.19008 
L 78.82369 246.339291 
L 78.324594 246.339291 
L 78.324594 247.532983 
L 77.825497 247.532983 
L 77.825497 249.025097 
L 77.326401 249.025097 
L 77.326401 252.009326 
L 76.827305 252.009326 
L 76.827305 254.396709 
L 76.328209 254.396709 
L 76.328209 257.380937 
L 75.829112 257.380937 
L 75.829112 261.708069 
L 75.330016 261.708069 
L 75.330016 269.019429 
L 74.83092 269.019429 
L 74.83092 273.794194 
L 74.331824 273.794194 
L 74.331824 275.584731 
L 73.832727 275.584731 
L 73.832727 276.48 
L 73.832727 276.48 
z
" clip-path="url(#p39ec658ad0)" style="fill: #fa448c; fill-opacity: 0.8"/>
   </g>
   <g id="PolyCollection_2">
    <path d="M 73.832727 276.48 
L 73.832727 276.48 
L 73.832727 276.48 
L 73.832727 275.584731 
L 74.331824 275.584731 
L 74.331824 273.794194 
L 74.83092 273.794194 
L 74.83092 269.019429 
L 75.330016 269.019429 
L 75.330016 261.708069 
L 75.829112 261.708069 
L 75.829112 257.380937 
L 76.328209 257.380937 
L 76.328209 254.396709 
L 76.827305 254.396709 
L 76.827305 252.009326 
L 77.326401 252.009326 
L 77.326401 249.025097 
L 77.825497 249.025097 
L 77.825497 247.532983 
L 78.324594 247.532983 
L 78.324594 246.339291 
L 78.82369 246.339291 
L 78.82369 246.19008 
L 79.322786 246.19008 
L 79.322786 246.040869 
L 79.821883 246.040869 
L 79.821883 245.742446 
L 80.320979 245.742446 
L 80.320979 245.742446 
L 80.820075 245.742446 
L 80.820075 245.593234 
L 81.319171 245.593234 
L 81.319171 245.444023 
L 81.818268 245.444023 
L 81.818268 245.1456 
L 82.81646 245.1456 
L 82.81646 244.548754 
L 83.315556 244.548754 
L 83.315556 244.250331 
L 83.814653 244.250331 
L 83.814653 243.205851 
L 84.313749 243.205851 
L 84.313749 242.310583 
L 84.812845 242.310583 
L 84.812845 241.713737 
L 85.311941 241.713737 
L 85.311941 240.370834 
L 85.811038 240.370834 
L 85.811038 239.773989 
L 86.310134 239.773989 
L 86.310134 239.773989 
L 86.80923 239.773989 
L 86.80923 239.326354 
L 87.308327 239.326354 
L 87.308327 238.87872 
L 88.306519 238.87872 
L 88.306519 238.281874 
L 89.304712 238.281874 
L 89.304712 237.685029 
L 89.803808 237.685029 
L 89.803808 237.386606 
L 90.302904 237.386606 
L 90.302904 237.237394 
L 93.796578 237.237394 
L 93.796578 237.088183 
L 94.295674 237.088183 
L 94.295674 236.78976 
L 94.794771 236.78976 
L 94.794771 236.640549 
L 95.293867 236.640549 
L 95.293867 236.342126 
L 95.792963 236.342126 
L 95.792963 236.043703 
L 96.292059 236.043703 
L 96.292059 235.297646 
L 96.791156 235.297646 
L 96.791156 234.999223 
L 97.290252 234.999223 
L 97.290252 234.850011 
L 97.789348 234.850011 
L 97.789348 234.103954 
L 98.288445 234.103954 
L 98.288445 233.65632 
L 98.787541 233.65632 
L 98.787541 232.910263 
L 99.286637 232.910263 
L 99.286637 232.61184 
L 99.785733 232.61184 
L 99.785733 232.014994 
L 100.28483 232.014994 
L 100.28483 231.716571 
L 100.783926 231.716571 
L 100.783926 231.418149 
L 101.283022 231.418149 
L 101.283022 231.268937 
L 101.782118 231.268937 
L 101.782118 231.119726 
L 102.281215 231.119726 
L 102.281215 230.672091 
L 105.275792 230.672091 
L 105.275792 230.52288 
L 106.773081 230.52288 
L 106.773081 230.373669 
L 107.272177 230.373669 
L 107.272177 230.224457 
L 107.771274 230.224457 
L 107.771274 229.926034 
L 108.769466 229.926034 
L 108.769466 229.627611 
L 109.268562 229.627611 
L 109.268562 229.179977 
L 109.767659 229.179977 
L 109.767659 228.732343 
L 110.266755 228.732343 
L 110.266755 228.43392 
L 110.765851 228.43392 
L 110.765851 228.135497 
L 111.264948 228.135497 
L 111.264948 227.837074 
L 111.764044 227.837074 
L 111.764044 227.837074 
L 112.26314 227.837074 
L 112.26314 227.687863 
L 112.762236 227.687863 
L 112.762236 227.538651 
L 113.261333 227.538651 
L 113.261333 227.38944 
L 113.760429 227.38944 
L 113.760429 227.240229 
L 114.259525 227.240229 
L 114.259525 226.643383 
L 118.751392 226.643383 
L 118.751392 226.34496 
L 119.749584 226.34496 
L 119.749584 226.195749 
L 120.24868 226.195749 
L 120.24868 226.046537 
L 120.747777 226.046537 
L 120.747777 225.748114 
L 121.246873 225.748114 
L 121.246873 225.598903 
L 123.243258 225.598903 
L 123.243258 225.449691 
L 131.727895 225.449691 
L 131.727895 225.30048 
L 132.726087 225.30048 
L 132.726087 225.151269 
L 133.225183 225.151269 
L 133.225183 225.002057 
L 134.223376 225.002057 
L 134.223376 224.554423 
L 134.722472 224.554423 
L 134.722472 224.256 
L 136.219761 224.256 
L 136.219761 223.659154 
L 138.216146 223.659154 
L 138.216146 223.509943 
L 138.715242 223.509943 
L 138.715242 222.763886 
L 142.708013 222.763886 
L 142.708013 222.465463 
L 143.207109 222.465463 
L 143.207109 222.316251 
L 143.706205 222.316251 
L 143.706205 221.719406 
L 144.205301 221.719406 
L 144.205301 221.570194 
L 144.704398 221.570194 
L 144.704398 221.271771 
L 145.203494 221.271771 
L 145.203494 220.973349 
L 145.70259 220.973349 
L 145.70259 220.525714 
L 146.201686 220.525714 
L 146.201686 220.227291 
L 146.700783 220.227291 
L 146.700783 219.928869 
L 147.698975 219.928869 
L 147.698975 219.779657 
L 148.198072 219.779657 
L 148.198072 219.481234 
L 148.697168 219.481234 
L 148.697168 219.182811 
L 149.196264 219.182811 
L 149.196264 218.884389 
L 149.69536 218.884389 
L 149.69536 218.735177 
L 150.194457 218.735177 
L 150.194457 218.436754 
L 151.192649 218.436754 
L 151.192649 218.287543 
L 153.189034 218.287543 
L 153.189034 218.287543 
L 155.185419 218.287543 
L 155.185419 217.98912 
L 156.183612 217.98912 
L 156.183612 217.541486 
L 157.181804 217.541486 
L 157.181804 217.243063 
L 158.179997 217.243063 
L 158.179997 216.94464 
L 158.679093 216.94464 
L 158.679093 216.94464 
L 159.677286 216.94464 
L 159.677286 216.646217 
L 160.176382 216.646217 
L 160.176382 216.497006 
L 160.675478 216.497006 
L 160.675478 216.347794 
L 161.174575 216.347794 
L 161.174575 216.198583 
L 161.673671 216.198583 
L 161.673671 215.90016 
L 162.172767 215.90016 
L 162.172767 215.90016 
L 166.165537 215.90016 
L 166.165537 215.750949 
L 166.664633 215.750949 
L 166.664633 215.750949 
L 167.16373 215.750949 
L 167.16373 215.452526 
L 167.662826 215.452526 
L 167.662826 215.303314 
L 168.161922 215.303314 
L 168.161922 215.154103 
L 168.661019 215.154103 
L 168.661019 214.85568 
L 169.160115 214.85568 
L 169.160115 214.706469 
L 169.659211 214.706469 
L 169.659211 214.557257 
L 170.657404 214.557257 
L 170.657404 214.557257 
L 171.655596 214.557257 
L 171.655596 214.258834 
L 172.653789 214.258834 
L 172.653789 213.512777 
L 173.152885 213.512777 
L 173.152885 213.214354 
L 173.651981 213.214354 
L 173.651981 213.214354 
L 174.151078 213.214354 
L 174.151078 212.76672 
L 175.14927 212.76672 
L 175.14927 212.617509 
L 175.648366 212.617509 
L 175.648366 212.468297 
L 176.147463 212.468297 
L 176.147463 212.169874 
L 178.143848 212.169874 
L 178.143848 212.169874 
L 179.641137 212.169874 
L 179.641137 211.871451 
L 180.140233 211.871451 
L 180.140233 211.72224 
L 182.136618 211.72224 
L 182.136618 211.573029 
L 183.13481 211.573029 
L 183.13481 211.125394 
L 183.633907 211.125394 
L 183.633907 210.230126 
L 184.133003 210.230126 
L 184.133003 209.782491 
L 184.632099 209.782491 
L 184.632099 208.887223 
L 185.131195 208.887223 
L 185.131195 208.5888 
L 185.630292 208.5888 
L 185.630292 208.141166 
L 186.628484 208.141166 
L 186.628484 207.842743 
L 189.623062 207.842743 
L 189.623062 207.693531 
L 190.122158 207.693531 
L 190.122158 207.693531 
L 190.621254 207.693531 
L 190.621254 207.096686 
L 191.619447 207.096686 
L 191.619447 206.947474 
L 192.118543 206.947474 
L 192.118543 206.649051 
L 193.116736 206.649051 
L 193.116736 205.156937 
L 193.615832 205.156937 
L 193.615832 204.858514 
L 195.113121 204.858514 
L 195.113121 204.709303 
L 195.612217 204.709303 
L 195.612217 204.41088 
L 196.61041 204.41088 
L 196.61041 204.41088 
L 197.109506 204.41088 
L 197.109506 203.963246 
L 197.608602 203.963246 
L 197.608602 203.664823 
L 198.107699 203.664823 
L 198.107699 203.664823 
L 198.606795 203.664823 
L 198.606795 203.3664 
L 203.597757 203.3664 
L 203.597757 203.217189 
L 204.59595 203.217189 
L 204.59595 203.067977 
L 205.095046 203.067977 
L 205.095046 202.620343 
L 206.592335 202.620343 
L 206.592335 202.471131 
L 207.091431 202.471131 
L 207.091431 202.172709 
L 207.590528 202.172709 
L 207.590528 202.023497 
L 209.087816 202.023497 
L 209.087816 202.023497 
L 209.586913 202.023497 
L 209.586913 202.023497 
L 214.577875 202.023497 
L 214.577875 202.023497 
L 215.576068 202.023497 
L 215.576068 202.023497 
L 216.57426 202.023497 
L 216.57426 202.023497 
L 217.073357 202.023497 
L 217.073357 202.023497 
L 217.572453 202.023497 
L 217.572453 202.023497 
L 218.071549 202.023497 
L 218.071549 202.023497 
L 218.570646 202.023497 
L 218.570646 202.023497 
L 219.568838 202.023497 
L 219.568838 202.023497 
L 220.567031 202.023497 
L 220.567031 202.023497 
L 221.565223 202.023497 
L 221.565223 202.023497 
L 222.064319 202.023497 
L 222.064319 202.023497 
L 222.563416 202.023497 
L 222.563416 202.023497 
L 226.556186 202.023497 
L 226.556186 202.023497 
L 228.053475 202.023497 
L 228.053475 202.023497 
L 228.552571 202.023497 
L 228.552571 202.023497 
L 230.04986 202.023497 
L 230.04986 202.023497 
L 231.048052 202.023497 
L 231.048052 202.023497 
L 231.547149 202.023497 
L 231.547149 202.023497 
L 232.046245 202.023497 
L 232.046245 202.023497 
L 232.545341 202.023497 
L 232.545341 202.023497 
L 233.543534 202.023497 
L 233.543534 202.023497 
L 238.0354 202.023497 
L 238.0354 202.023497 
L 240.530881 202.023497 
L 240.530881 202.023497 
L 241.029978 202.023497 
L 241.029978 202.023497 
L 242.527267 202.023497 
L 242.527267 202.023497 
L 243.525459 202.023497 
L 243.525459 202.023497 
L 244.024555 202.023497 
L 244.024555 202.023497 
L 244.523652 202.023497 
L 244.523652 202.023497 
L 245.022748 202.023497 
L 245.022748 202.023497 
L 245.521844 202.023497 
L 245.521844 202.023497 
L 246.02094 202.023497 
L 246.02094 202.023497 
L 250.013711 202.023497 
L 250.013711 202.023497 
L 251.011903 202.023497 
L 251.011903 202.023497 
L 251.510999 202.023497 
L 251.510999 202.023497 
L 252.010096 202.023497 
L 252.010096 202.023497 
L 252.509192 202.023497 
L 252.509192 202.023497 
L 253.008288 202.023497 
L 253.008288 202.023497 
L 253.507384 202.023497 
L 253.507384 202.023497 
L 254.006481 202.023497 
L 254.006481 202.023497 
L 254.505577 202.023497 
L 254.505577 202.023497 
L 255.50377 202.023497 
L 255.50377 202.023497 
L 261.992021 202.023497 
L 261.992021 202.023497 
L 263.988406 202.023497 
L 263.988406 202.023497 
L 264.986599 202.023497 
L 264.986599 202.023497 
L 265.485695 202.023497 
L 265.485695 202.023497 
L 266.982984 202.023497 
L 266.982984 202.023497 
L 267.48208 202.023497 
L 267.48208 202.023497 
L 267.981176 202.023497 
L 267.981176 202.023497 
L 269.478465 202.023497 
L 269.478465 202.023497 
L 270.975754 202.023497 
L 270.975754 202.023497 
L 274.469428 202.023497 
L 274.469428 202.023497 
L 274.968524 202.023497 
L 274.968524 202.023497 
L 275.46762 202.023497 
L 275.46762 202.023497 
L 275.966717 202.023497 
L 275.966717 202.023497 
L 276.465813 202.023497 
L 276.465813 202.023497 
L 277.963102 202.023497 
L 277.963102 202.023497 
L 279.460391 202.023497 
L 279.460391 202.023497 
L 280.957679 202.023497 
L 280.957679 202.023497 
L 288.94322 202.023497 
L 288.94322 202.023497 
L 290.939605 202.023497 
L 290.939605 202.023497 
L 291.438701 202.023497 
L 291.438701 202.023497 
L 300.422434 202.023497 
L 300.422434 202.023497 
L 300.92153 202.023497 
L 300.92153 202.023497 
L 301.420626 202.023497 
L 301.420626 202.023497 
L 302.418819 202.023497 
L 302.418819 202.023497 
L 302.917915 202.023497 
L 302.917915 202.023497 
L 303.417011 202.023497 
L 303.417011 202.023497 
L 304.415204 202.023497 
L 304.415204 202.023497 
L 308.90707 202.023497 
L 308.90707 202.023497 
L 309.905263 202.023497 
L 309.905263 202.023497 
L 311.402552 202.023497 
L 311.402552 202.023497 
L 312.400744 202.023497 
L 312.400744 202.023497 
L 314.397129 202.023497 
L 314.397129 202.023497 
L 317.391707 202.023497 
L 317.391707 202.023497 
L 323.879959 202.023497 
L 323.879959 202.023497 
L 324.379055 202.023497 
L 324.379055 202.023497 
L 325.876344 202.023497 
L 325.876344 202.023497 
L 326.874536 202.023497 
L 326.874536 202.023497 
L 327.373632 202.023497 
L 327.373632 202.023497 
L 328.371825 202.023497 
L 328.371825 202.023497 
L 332.863691 202.023497 
L 332.863691 202.023497 
L 334.36098 202.023497 
L 334.36098 202.023497 
L 335.359173 202.023497 
L 335.359173 202.023497 
L 335.858269 202.023497 
L 335.858269 202.023497 
L 336.357365 202.023497 
L 336.357365 202.023497 
L 338.35375 202.023497 
L 338.35375 202.023497 
L 339.851039 202.023497 
L 339.851039 202.023497 
L 340.350135 202.023497 
L 340.350135 202.023497 
L 340.849232 202.023497 
L 340.849232 202.023497 
L 341.348328 202.023497 
L 341.348328 202.023497 
L 346.339291 202.023497 
L 346.339291 202.023497 
L 347.337483 202.023497 
L 347.337483 202.023497 
L 349.832965 202.023497 
L 349.832965 202.023497 
L 352.328446 202.023497 
L 352.328446 202.023497 
L 352.827542 202.023497 
L 352.827542 202.023497 
L 353.326638 202.023497 
L 353.326638 202.023497 
L 354.324831 202.023497 
L 354.324831 202.023497 
L 356.820312 202.023497 
L 356.820312 202.023497 
L 357.818505 202.023497 
L 357.818505 202.023497 
L 359.81489 202.023497 
L 359.81489 202.023497 
L 363.80766 202.023497 
L 363.80766 202.023497 
L 365.804045 202.023497 
L 365.804045 202.023497 
L 368.74239 202.023497 
L 368.74239 200.083749 
L 368.946996 200.083749 
L 368.946996 200.083749 
L 369.125556 200.083749 
L 369.125556 200.083749 
L 369.479578 200.083749 
L 369.479578 200.083749 
L 369.704089 200.083749 
L 369.704089 200.083749 
L 369.93971 200.083749 
L 369.93971 200.083749 
L 370.116167 200.083749 
L 370.116167 200.083749 
L 370.480098 200.083749 
L 370.480098 200.083749 
L 370.6785 200.083749 
L 370.6785 200.083749 
L 370.945582 200.083749 
L 370.945582 200.083749 
L 371.141825 200.083749 
L 371.141825 200.083749 
L 371.454252 200.083749 
L 371.454252 200.083749 
L 371.65072 200.083749 
L 371.65072 200.083749 
L 371.915272 200.083749 
L 371.915272 200.083749 
L 372.100429 200.083749 
L 372.100429 200.083749 
L 372.533869 200.083749 
L 372.533869 200.083749 
L 372.815234 200.083749 
L 372.815234 200.083749 
L 373.139315 200.083749 
L 373.139315 200.083749 
L 373.163978 200.083749 
L 373.163978 200.083749 
L 373.178507 200.083749 
L 373.178507 200.083749 
L 373.424955 200.083749 
L 373.424955 200.083749 
L 373.613289 200.083749 
L 373.613289 200.083749 
L 373.94422 200.083749 
L 373.94422 200.083749 
L 374.158158 200.083749 
L 374.158158 200.083749 
L 374.518284 200.083749 
L 374.518284 200.083749 
L 375.230005 200.083749 
L 375.230005 200.083749 
L 375.250608 200.083749 
L 375.250608 200.083749 
L 375.276067 200.083749 
L 375.276067 200.083749 
L 375.463095 200.083749 
L 375.463095 200.083749 
L 375.674736 200.083749 
L 375.674736 200.083749 
L 375.904587 200.083749 
L 375.904587 200.083749 
L 376.093995 200.083749 
L 376.093995 200.083749 
L 376.441636 200.083749 
L 376.441636 200.083749 
L 376.91013 200.083749 
L 376.91013 200.083749 
L 382.454466 200.083749 
L 382.454466 200.083749 
L 383.892811 200.083749 
L 383.892811 200.083749 
L 385.118642 200.083749 
L 385.118642 200.083749 
L 385.403095 200.083749 
L 385.403095 200.083749 
L 386.798431 200.083749 
L 386.798431 200.083749 
L 387.15224 200.083749 
L 387.15224 200.083749 
L 387.438112 200.083749 
L 387.438112 200.083749 
L 387.884366 200.083749 
L 387.884366 200.083749 
L 395.421669 200.083749 
L 395.421669 200.083749 
L 398.487273 200.083749 
L 398.487273 200.083749 
L 398.487273 146.96448 
L 398.487273 146.96448 
L 398.487273 147.113691 
L 395.421669 147.113691 
L 395.421669 147.262903 
L 387.884366 147.262903 
L 387.884366 147.561326 
L 387.438112 147.561326 
L 387.438112 147.710537 
L 387.15224 147.710537 
L 387.15224 148.00896 
L 386.798431 148.00896 
L 386.798431 148.158171 
L 385.403095 148.158171 
L 385.403095 148.307383 
L 385.118642 148.307383 
L 385.118642 148.456594 
L 383.892811 148.456594 
L 383.892811 148.605806 
L 382.454466 148.605806 
L 382.454466 148.755017 
L 376.91013 148.755017 
L 376.91013 149.05344 
L 376.441636 149.05344 
L 376.441636 149.202651 
L 376.093995 149.202651 
L 376.093995 149.202651 
L 375.904587 149.202651 
L 375.904587 149.202651 
L 375.674736 149.202651 
L 375.674736 149.202651 
L 375.463095 149.202651 
L 375.463095 149.202651 
L 375.276067 149.202651 
L 375.276067 149.202651 
L 375.250608 149.202651 
L 375.250608 149.202651 
L 375.230005 149.202651 
L 375.230005 149.202651 
L 374.518284 149.202651 
L 374.518284 149.202651 
L 374.158158 149.202651 
L 374.158158 149.202651 
L 373.94422 149.202651 
L 373.94422 149.202651 
L 373.613289 149.202651 
L 373.613289 149.202651 
L 373.424955 149.202651 
L 373.424955 149.202651 
L 373.178507 149.202651 
L 373.178507 149.202651 
L 373.163978 149.202651 
L 373.163978 149.202651 
L 373.139315 149.202651 
L 373.139315 149.202651 
L 372.815234 149.202651 
L 372.815234 149.501074 
L 372.533869 149.501074 
L 372.533869 149.650286 
L 372.100429 149.650286 
L 372.100429 149.650286 
L 371.915272 149.650286 
L 371.915272 150.247131 
L 371.65072 150.247131 
L 371.65072 150.396343 
L 371.454252 150.396343 
L 371.454252 150.396343 
L 371.141825 150.396343 
L 371.141825 150.396343 
L 370.945582 150.396343 
L 370.945582 150.396343 
L 370.6785 150.396343 
L 370.6785 150.396343 
L 370.480098 150.396343 
L 370.480098 150.396343 
L 370.116167 150.396343 
L 370.116167 150.396343 
L 369.93971 150.396343 
L 369.93971 150.396343 
L 369.704089 150.396343 
L 369.704089 150.396343 
L 369.479578 150.396343 
L 369.479578 150.396343 
L 369.125556 150.396343 
L 369.125556 150.396343 
L 368.946996 150.396343 
L 368.946996 150.396343 
L 368.74239 150.396343 
L 368.74239 153.828206 
L 365.804045 153.828206 
L 365.804045 153.977417 
L 363.80766 153.977417 
L 363.80766 153.977417 
L 359.81489 153.977417 
L 359.81489 154.126629 
L 357.818505 154.126629 
L 357.818505 154.27584 
L 356.820312 154.27584 
L 356.820312 154.425051 
L 354.324831 154.425051 
L 354.324831 154.872686 
L 353.326638 154.872686 
L 353.326638 154.872686 
L 352.827542 154.872686 
L 352.827542 155.171109 
L 352.328446 155.171109 
L 352.328446 156.514011 
L 349.832965 156.514011 
L 349.832965 156.961646 
L 347.337483 156.961646 
L 347.337483 157.110857 
L 346.339291 157.110857 
L 346.339291 157.260069 
L 341.348328 157.260069 
L 341.348328 157.707703 
L 340.849232 157.707703 
L 340.849232 158.155337 
L 340.350135 158.155337 
L 340.350135 158.45376 
L 339.851039 158.45376 
L 339.851039 158.602971 
L 338.35375 158.602971 
L 338.35375 158.752183 
L 336.357365 158.752183 
L 336.357365 158.752183 
L 335.858269 158.752183 
L 335.858269 158.901394 
L 335.359173 158.901394 
L 335.359173 159.050606 
L 334.36098 159.050606 
L 334.36098 159.199817 
L 332.863691 159.199817 
L 332.863691 159.349029 
L 328.371825 159.349029 
L 328.371825 159.49824 
L 327.373632 159.49824 
L 327.373632 159.796663 
L 326.874536 159.796663 
L 326.874536 160.095086 
L 325.876344 160.095086 
L 325.876344 160.54272 
L 324.379055 160.54272 
L 324.379055 160.691931 
L 323.879959 160.691931 
L 323.879959 160.691931 
L 317.391707 160.691931 
L 317.391707 160.841143 
L 314.397129 160.841143 
L 314.397129 160.990354 
L 312.400744 160.990354 
L 312.400744 161.288777 
L 311.402552 161.288777 
L 311.402552 161.288777 
L 309.905263 161.288777 
L 309.905263 161.5872 
L 308.90707 161.5872 
L 308.90707 161.5872 
L 304.415204 161.5872 
L 304.415204 161.885623 
L 303.417011 161.885623 
L 303.417011 162.034834 
L 302.917915 162.034834 
L 302.917915 162.333257 
L 302.418819 162.333257 
L 302.418819 162.333257 
L 301.420626 162.333257 
L 301.420626 162.333257 
L 300.92153 162.333257 
L 300.92153 162.780891 
L 300.422434 162.780891 
L 300.422434 162.780891 
L 291.438701 162.780891 
L 291.438701 162.930103 
L 290.939605 162.930103 
L 290.939605 163.079314 
L 288.94322 163.079314 
L 288.94322 163.228526 
L 280.957679 163.228526 
L 280.957679 163.377737 
L 279.460391 163.377737 
L 279.460391 163.526949 
L 277.963102 163.526949 
L 277.963102 163.974583 
L 276.465813 163.974583 
L 276.465813 164.72064 
L 275.966717 164.72064 
L 275.966717 165.019063 
L 275.46762 165.019063 
L 275.46762 165.168274 
L 274.968524 165.168274 
L 274.968524 165.168274 
L 274.469428 165.168274 
L 274.469428 165.317486 
L 270.975754 165.317486 
L 270.975754 165.317486 
L 269.478465 165.317486 
L 269.478465 165.914331 
L 267.981176 165.914331 
L 267.981176 166.063543 
L 267.48208 166.063543 
L 267.48208 166.511177 
L 266.982984 166.511177 
L 266.982984 166.660389 
L 265.485695 166.660389 
L 265.485695 166.8096 
L 264.986599 166.8096 
L 264.986599 167.108023 
L 263.988406 167.108023 
L 263.988406 167.108023 
L 261.992021 167.108023 
L 261.992021 167.406446 
L 255.50377 167.406446 
L 255.50377 167.406446 
L 254.505577 167.406446 
L 254.505577 167.555657 
L 254.006481 167.555657 
L 254.006481 167.704869 
L 253.507384 167.704869 
L 253.507384 167.85408 
L 253.008288 167.85408 
L 253.008288 168.003291 
L 252.509192 168.003291 
L 252.509192 168.152503 
L 252.010096 168.152503 
L 252.010096 168.450926 
L 251.510999 168.450926 
L 251.510999 169.495406 
L 251.011903 169.495406 
L 251.011903 170.092251 
L 250.013711 170.092251 
L 250.013711 170.539886 
L 246.02094 170.539886 
L 246.02094 170.689097 
L 245.521844 170.689097 
L 245.521844 170.838309 
L 245.022748 170.838309 
L 245.022748 171.136731 
L 244.523652 171.136731 
L 244.523652 171.584366 
L 244.024555 171.584366 
L 244.024555 172.181211 
L 243.525459 172.181211 
L 243.525459 172.927269 
L 242.527267 172.927269 
L 242.527267 173.374903 
L 241.029978 173.374903 
L 241.029978 173.524114 
L 240.530881 173.524114 
L 240.530881 173.822537 
L 238.0354 173.822537 
L 238.0354 173.971749 
L 233.543534 173.971749 
L 233.543534 174.12096 
L 232.545341 174.12096 
L 232.545341 174.270171 
L 232.046245 174.270171 
L 232.046245 174.419383 
L 231.547149 174.419383 
L 231.547149 174.568594 
L 231.048052 174.568594 
L 231.048052 174.867017 
L 230.04986 174.867017 
L 230.04986 175.463863 
L 228.552571 175.463863 
L 228.552571 175.613074 
L 228.053475 175.613074 
L 228.053475 175.762286 
L 226.556186 175.762286 
L 226.556186 176.060709 
L 222.563416 176.060709 
L 222.563416 176.20992 
L 222.064319 176.20992 
L 222.064319 176.359131 
L 221.565223 176.359131 
L 221.565223 176.359131 
L 220.567031 176.359131 
L 220.567031 176.508343 
L 219.568838 176.508343 
L 219.568838 176.657554 
L 218.570646 176.657554 
L 218.570646 177.2544 
L 218.071549 177.2544 
L 218.071549 177.851246 
L 217.572453 177.851246 
L 217.572453 178.149669 
L 217.073357 178.149669 
L 217.073357 178.448091 
L 216.57426 178.448091 
L 216.57426 178.746514 
L 215.576068 178.746514 
L 215.576068 179.044937 
L 214.577875 179.044937 
L 214.577875 179.194149 
L 209.586913 179.194149 
L 209.586913 179.492571 
L 209.087816 179.492571 
L 209.087816 179.940206 
L 207.590528 179.940206 
L 207.590528 180.089417 
L 207.091431 180.089417 
L 207.091431 180.537051 
L 206.592335 180.537051 
L 206.592335 180.686263 
L 205.095046 180.686263 
L 205.095046 181.133897 
L 204.59595 181.133897 
L 204.59595 181.283109 
L 203.597757 181.283109 
L 203.597757 181.43232 
L 198.606795 181.43232 
L 198.606795 182.029166 
L 198.107699 182.029166 
L 198.107699 182.029166 
L 197.608602 182.029166 
L 197.608602 182.4768 
L 197.109506 182.4768 
L 197.109506 182.924434 
L 196.61041 182.924434 
L 196.61041 183.073646 
L 195.612217 183.073646 
L 195.612217 183.670491 
L 195.113121 183.670491 
L 195.113121 183.819703 
L 193.615832 183.819703 
L 193.615832 184.118126 
L 193.116736 184.118126 
L 193.116736 185.759451 
L 192.118543 185.759451 
L 192.118543 186.057874 
L 191.619447 186.057874 
L 191.619447 186.207086 
L 190.621254 186.207086 
L 190.621254 186.803931 
L 190.122158 186.803931 
L 190.122158 186.953143 
L 189.623062 186.953143 
L 189.623062 187.102354 
L 186.628484 187.102354 
L 186.628484 187.400777 
L 185.630292 187.400777 
L 185.630292 187.848411 
L 185.131195 187.848411 
L 185.131195 188.445257 
L 184.632099 188.445257 
L 184.632099 189.340526 
L 184.133003 189.340526 
L 184.133003 189.937371 
L 183.633907 189.937371 
L 183.633907 190.83264 
L 183.13481 190.83264 
L 183.13481 192.026331 
L 182.136618 192.026331 
L 182.136618 192.175543 
L 180.140233 192.175543 
L 180.140233 192.324754 
L 179.641137 192.324754 
L 179.641137 192.623177 
L 178.143848 192.623177 
L 178.143848 192.772389 
L 176.147463 192.772389 
L 176.147463 193.070811 
L 175.648366 193.070811 
L 175.648366 193.220023 
L 175.14927 193.220023 
L 175.14927 193.369234 
L 174.151078 193.369234 
L 174.151078 193.816869 
L 173.651981 193.816869 
L 173.651981 194.264503 
L 173.152885 194.264503 
L 173.152885 194.861349 
L 172.653789 194.861349 
L 172.653789 195.607406 
L 171.655596 195.607406 
L 171.655596 195.905829 
L 170.657404 195.905829 
L 170.657404 196.05504 
L 169.659211 196.05504 
L 169.659211 196.204251 
L 169.160115 196.204251 
L 169.160115 196.502674 
L 168.661019 196.502674 
L 168.661019 196.801097 
L 168.161922 196.801097 
L 168.161922 196.950309 
L 167.662826 196.950309 
L 167.662826 197.09952 
L 167.16373 197.09952 
L 167.16373 197.397943 
L 166.664633 197.397943 
L 166.664633 197.547154 
L 166.165537 197.547154 
L 166.165537 197.696366 
L 162.172767 197.696366 
L 162.172767 197.845577 
L 161.673671 197.845577 
L 161.673671 198.144 
L 161.174575 198.144 
L 161.174575 198.293211 
L 160.675478 198.293211 
L 160.675478 198.442423 
L 160.176382 198.442423 
L 160.176382 198.591634 
L 159.677286 198.591634 
L 159.677286 199.337691 
L 158.679093 199.337691 
L 158.679093 199.486903 
L 158.179997 199.486903 
L 158.179997 199.934537 
L 157.181804 199.934537 
L 157.181804 200.23296 
L 156.183612 200.23296 
L 156.183612 200.979017 
L 155.185419 200.979017 
L 155.185419 201.575863 
L 153.189034 201.575863 
L 153.189034 201.874286 
L 151.192649 201.874286 
L 151.192649 202.023497 
L 150.194457 202.023497 
L 150.194457 202.32192 
L 149.69536 202.32192 
L 149.69536 202.620343 
L 149.196264 202.620343 
L 149.196264 203.067977 
L 148.697168 203.067977 
L 148.697168 203.3664 
L 148.198072 203.3664 
L 148.198072 203.814034 
L 147.698975 203.814034 
L 147.698975 203.963246 
L 146.700783 203.963246 
L 146.700783 204.261669 
L 146.201686 204.261669 
L 146.201686 204.560091 
L 145.70259 204.560091 
L 145.70259 205.156937 
L 145.203494 205.156937 
L 145.203494 205.45536 
L 144.704398 205.45536 
L 144.704398 205.753783 
L 144.205301 205.753783 
L 144.205301 205.902994 
L 143.706205 205.902994 
L 143.706205 206.649051 
L 143.207109 206.649051 
L 143.207109 206.798263 
L 142.708013 206.798263 
L 142.708013 207.096686 
L 138.715242 207.096686 
L 138.715242 207.991954 
L 138.216146 207.991954 
L 138.216146 208.141166 
L 136.219761 208.141166 
L 136.219761 209.036434 
L 134.722472 209.036434 
L 134.722472 209.334857 
L 134.223376 209.334857 
L 134.223376 209.931703 
L 133.225183 209.931703 
L 133.225183 210.080914 
L 132.726087 210.080914 
L 132.726087 210.230126 
L 131.727895 210.230126 
L 131.727895 210.379337 
L 123.243258 210.379337 
L 123.243258 210.528549 
L 121.246873 210.528549 
L 121.246873 210.67776 
L 120.747777 210.67776 
L 120.747777 210.976183 
L 120.24868 210.976183 
L 120.24868 211.125394 
L 119.749584 211.125394 
L 119.749584 211.274606 
L 118.751392 211.274606 
L 118.751392 211.573029 
L 114.259525 211.573029 
L 114.259525 212.319086 
L 113.760429 212.319086 
L 113.760429 213.065143 
L 113.261333 213.065143 
L 113.261333 213.214354 
L 112.762236 213.214354 
L 112.762236 213.363566 
L 112.26314 213.363566 
L 112.26314 213.512777 
L 111.764044 213.512777 
L 111.764044 213.661989 
L 111.264948 213.661989 
L 111.264948 214.109623 
L 110.765851 214.109623 
L 110.765851 214.408046 
L 110.266755 214.408046 
L 110.266755 214.85568 
L 109.767659 214.85568 
L 109.767659 215.303314 
L 109.268562 215.303314 
L 109.268562 215.750949 
L 108.769466 215.750949 
L 108.769466 216.049371 
L 107.771274 216.049371 
L 107.771274 216.795429 
L 107.272177 216.795429 
L 107.272177 216.94464 
L 106.773081 216.94464 
L 106.773081 217.093851 
L 105.275792 217.093851 
L 105.275792 217.243063 
L 102.281215 217.243063 
L 102.281215 217.690697 
L 101.782118 217.690697 
L 101.782118 217.98912 
L 101.283022 217.98912 
L 101.283022 218.138331 
L 100.783926 218.138331 
L 100.783926 219.182811 
L 100.28483 219.182811 
L 100.28483 219.481234 
L 99.785733 219.481234 
L 99.785733 220.07808 
L 99.286637 220.07808 
L 99.286637 220.525714 
L 98.787541 220.525714 
L 98.787541 221.420983 
L 98.288445 221.420983 
L 98.288445 221.868617 
L 97.789348 221.868617 
L 97.789348 222.614674 
L 97.290252 222.614674 
L 97.290252 222.763886 
L 96.791156 222.763886 
L 96.791156 223.21152 
L 96.292059 223.21152 
L 96.292059 223.957577 
L 95.792963 223.957577 
L 95.792963 224.256 
L 95.293867 224.256 
L 95.293867 224.554423 
L 94.794771 224.554423 
L 94.794771 224.703634 
L 94.295674 224.703634 
L 94.295674 225.151269 
L 93.796578 225.151269 
L 93.796578 225.30048 
L 90.302904 225.30048 
L 90.302904 225.449691 
L 89.803808 225.449691 
L 89.803808 225.748114 
L 89.304712 225.748114 
L 89.304712 226.34496 
L 88.306519 226.34496 
L 88.306519 226.941806 
L 87.308327 226.941806 
L 87.308327 227.38944 
L 86.80923 227.38944 
L 86.80923 227.986286 
L 86.310134 227.986286 
L 86.310134 228.284709 
L 85.811038 228.284709 
L 85.811038 228.881554 
L 85.311941 228.881554 
L 85.311941 230.373669 
L 84.812845 230.373669 
L 84.812845 231.268937 
L 84.313749 231.268937 
L 84.313749 233.208686 
L 83.814653 233.208686 
L 83.814653 234.253166 
L 83.315556 234.253166 
L 83.315556 235.446857 
L 82.81646 235.446857 
L 82.81646 236.192914 
L 81.818268 236.192914 
L 81.818268 236.938971 
L 81.319171 236.938971 
L 81.319171 237.088183 
L 80.820075 237.088183 
L 80.820075 237.237394 
L 80.320979 237.237394 
L 80.320979 237.386606 
L 79.821883 237.386606 
L 79.821883 237.685029 
L 79.322786 237.685029 
L 79.322786 237.83424 
L 78.82369 237.83424 
L 78.82369 237.983451 
L 78.324594 237.983451 
L 78.324594 239.177143 
L 77.825497 239.177143 
L 77.825497 241.564526 
L 77.326401 241.564526 
L 77.326401 245.593234 
L 76.827305 245.593234 
L 76.827305 248.428251 
L 76.328209 248.428251 
L 76.328209 252.158537 
L 75.829112 252.158537 
L 75.829112 257.380937 
L 75.330016 257.380937 
L 75.330016 266.0352 
L 74.83092 266.0352 
L 74.83092 272.749714 
L 74.331824 272.749714 
L 74.331824 275.43552 
L 73.832727 275.43552 
L 73.832727 276.48 
L 73.832727 276.48 
z
" clip-path="url(#p39ec658ad0)" style="fill: #43b5a0; fill-opacity: 0.8"/>
   </g>
   <g id="matplotlib.axis_1">
    <g id="xtick_1">
     <g id="line2d_1">
      <defs>
       <path id="maf3572fa19" d="M 0 0 
L 0 3.5 
" style="stroke: #ffffff; stroke-width: 0.8"/>
      </defs>
      <g>
       <use xlink:href="#maf3572fa19" x="102.780311" y="276.48" style="fill: #ffffff; stroke: #ffffff; stroke-width: 0.8"/>
      </g>
     </g>
     <g id="text_1">
      <!-- Fri 12/24 -->
      <g style="fill: #ffffff" transform="translate(63.711127 312.01669)rotate(-30)scale(0.1 -0.1)">
       <defs>
        <path id="DejaVuSans-46" d="M 628 4666 
L 3309 4666 
L 3309 4134 
L 1259 4134 
L 1259 2759 
L 3109 2759 
L 3109 2228 
L 1259 2228 
L 1259 0 
L 628 0 
L 628 4666 
z
" transform="scale(0.015625)"/>
        <path id="DejaVuSans-72" d="M 2631 2963 
Q 2534 3019 2420 3045 
Q 2306 3072 2169 3072 
Q 1681 3072 1420 2755 
Q 1159 2438 1159 1844 
L 1159 0 
L 581 0 
L 581 3500 
L 1159 3500 
L 1159 2956 
Q 1341 3275 1631 3429 
Q 1922 3584 2338 3584 
Q 2397 3584 2469 3576 
Q 2541 3569 2628 3553 
L 2631 2963 
z
" transform="scale(0.015625)"/>
        <path id="DejaVuSans-69" d="M 603 3500 
L 1178 3500 
L 1178 0 
L 603 0 
L 603 3500 
z
M 603 4863 
L 1178 4863 
L 1178 4134 
L 603 4134 
L 603 4863 
z
" transform="scale(0.015625)"/>
        <path id="DejaVuSans-20" transform="scale(0.015625)"/>
        <path id="DejaVuSans-31" d="M 794 531 
L 1825 531 
L 1825 4091 
L 703 3866 
L 703 4441 
L 1819 4666 
L 2450 4666 
L 2450 531 
L 3481 531 
L 3481 0 
L 794 0 
L 794 531 
z
" transform="scale(0.015625)"/>
        <path id="DejaVuSans-32" d="M 1228 531 
L 3431 531 
L 3431 0 
L 469 0 
L 469 531 
Q 828 903 1448 1529 
Q 2069 2156 2228 2338 
Q 2531 2678 2651 2914 
Q 2772 3150 2772 3378 
Q 2772 3750 2511 3984 
Q 2250 4219 1831 4219 
Q 1534 4219 1204 4116 
Q 875 4013 500 3803 
L 500 4441 
Q 881 4594 1212 4672 
Q 1544 4750 1819 4750 
Q 2544 4750 2975 4387 
Q 3406 4025 3406 3419 
Q 3406 3131 3298 2873 
Q 3191 2616 2906 2266 
Q 2828 2175 2409 1742 
Q 1991 1309 1228 531 
z
" transform="scale(0.015625)"/>
        <path id="DejaVuSans-2f" d="M 1625 4666 
L 2156 4666 
L 531 -594 
L 0 -594 
L 1625 4666 
z
" transform="scale(0.015625)"/>
        <path id="DejaVuSans-34" d="M 2419 4116 
L 825 1625 
L 2419 1625 
L 2419 4116 
z
M 2253 4666 
L 3047 4666 
L 3047 1625 
L 3713 1625 
L 3713 1100 
L 3047 1100 
L 3047 0 
L 2419 0 
L 2419 1100 
L 313 1100 
L 313 1709 
L 2253 4666 
z
" transform="scale(0.015625)"/>
       </defs>
       <use xlink:href="#DejaVuSans-46"/>
       <use xlink:href="#DejaVuSans-72" x="50.269531"/>
       <use xlink:href="#DejaVuSans-69" x="91.382812"/>
       <use xlink:href="#DejaVuSans-20" x="119.166016"/>
       <use xlink:href="#DejaVuSans-31" x="150.953125"/>
       <use xlink:href="#DejaVuSans-32" x="214.576172"/>
       <use xlink:href="#DejaVuSans-2f" x="278.199219"/>
       <use xlink:href="#DejaVuSans-32" x="311.890625"/>
       <use xlink:href="#DejaVuSans-34" x="375.513672"/>
      </g>
     </g>
    </g>
    <g id="xtick_2">
     <g id="line2d_2">
      <g>
       <use xlink:href="#maf3572fa19" x="138.715242" y="276.48" style="fill: #ffffff; stroke: #ffffff; stroke-width: 0.8"/>
      </g>
     </g>
     <g id="text_2">
      <!-- Mon 12/27 -->
      <g style="fill: #ffffff" transform="translate(91.705688 316.601065)rotate(-30)scale(0.1 -0.1)">
       <defs>
        <path id="DejaVuSans-4d" d="M 628 4666 
L 1569 4666 
L 2759 1491 
L 3956 4666 
L 4897 4666 
L 4897 0 
L 4281 0 
L 4281 4097 
L 3078 897 
L 2444 897 
L 1241 4097 
L 1241 0 
L 628 0 
L 628 4666 
z
" transform="scale(0.015625)"/>
        <path id="DejaVuSans-6f" d="M 1959 3097 
Q 1497 3097 1228 2736 
Q 959 2375 959 1747 
Q 959 1119 1226 758 
Q 1494 397 1959 397 
Q 2419 397 2687 759 
Q 2956 1122 2956 1747 
Q 2956 2369 2687 2733 
Q 2419 3097 1959 3097 
z
M 1959 3584 
Q 2709 3584 3137 3096 
Q 3566 2609 3566 1747 
Q 3566 888 3137 398 
Q 2709 -91 1959 -91 
Q 1206 -91 779 398 
Q 353 888 353 1747 
Q 353 2609 779 3096 
Q 1206 3584 1959 3584 
z
" transform="scale(0.015625)"/>
        <path id="DejaVuSans-6e" d="M 3513 2113 
L 3513 0 
L 2938 0 
L 2938 2094 
Q 2938 2591 2744 2837 
Q 2550 3084 2163 3084 
Q 1697 3084 1428 2787 
Q 1159 2491 1159 1978 
L 1159 0 
L 581 0 
L 581 3500 
L 1159 3500 
L 1159 2956 
Q 1366 3272 1645 3428 
Q 1925 3584 2291 3584 
Q 2894 3584 3203 3211 
Q 3513 2838 3513 2113 
z
" transform="scale(0.015625)"/>
        <path id="DejaVuSans-37" d="M 525 4666 
L 3525 4666 
L 3525 4397 
L 1831 0 
L 1172 0 
L 2766 4134 
L 525 4134 
L 525 4666 
z
" transform="scale(0.015625)"/>
       </defs>
       <use xlink:href="#DejaVuSans-4d"/>
       <use xlink:href="#DejaVuSans-6f" x="86.279297"/>
       <use xlink:href="#DejaVuSans-6e" x="147.460938"/>
       <use xlink:href="#DejaVuSans-20" x="210.839844"/>
       <use xlink:href="#DejaVuSans-31" x="242.626953"/>
       <use xlink:href="#DejaVuSans-32" x="306.25"/>
       <use xlink:href="#DejaVuSans-2f" x="369.873047"/>
       <use xlink:href="#DejaVuSans-32" x="403.564453"/>
       <use xlink:href="#DejaVuSans-37" x="467.1875"/>
      </g>
     </g>
    </g>
    <g id="xtick_3">
     <g id="line2d_3">
      <g>
       <use xlink:href="#maf3572fa19" x="186.628484" y="276.48" style="fill: #ffffff; stroke: #ffffff; stroke-width: 0.8"/>
      </g>
     </g>
     <g id="text_3">
      <!-- Fri 12/31 -->
      <g style="fill: #ffffff" transform="translate(147.5593 312.01669)rotate(-30)scale(0.1 -0.1)">
       <defs>
        <path id="DejaVuSans-33" d="M 2597 2516 
Q 3050 2419 3304 2112 
Q 3559 1806 3559 1356 
Q 3559 666 3084 287 
Q 2609 -91 1734 -91 
Q 1441 -91 1130 -33 
Q 819 25 488 141 
L 488 750 
Q 750 597 1062 519 
Q 1375 441 1716 441 
Q 2309 441 2620 675 
Q 2931 909 2931 1356 
Q 2931 1769 2642 2001 
Q 2353 2234 1838 2234 
L 1294 2234 
L 1294 2753 
L 1863 2753 
Q 2328 2753 2575 2939 
Q 2822 3125 2822 3475 
Q 2822 3834 2567 4026 
Q 2313 4219 1838 4219 
Q 1578 4219 1281 4162 
Q 984 4106 628 3988 
L 628 4550 
Q 988 4650 1302 4700 
Q 1616 4750 1894 4750 
Q 2613 4750 3031 4423 
Q 3450 4097 3450 3541 
Q 3450 3153 3228 2886 
Q 3006 2619 2597 2516 
z
" transform="scale(0.015625)"/>
       </defs>
       <use xlink:href="#DejaVuSans-46"/>
       <use xlink:href="#DejaVuSans-72" x="50.269531"/>
       <use xlink:href="#DejaVuSans-69" x="91.382812"/>
       <use xlink:href="#DejaVuSans-20" x="119.166016"/>
       <use xlink:href="#DejaVuSans-31" x="150.953125"/>
       <use xlink:href="#DejaVuSans-32" x="214.576172"/>
       <use xlink:href="#DejaVuSans-2f" x="278.199219"/>
       <use xlink:href="#DejaVuSans-33" x="311.890625"/>
       <use xlink:href="#DejaVuSans-31" x="375.513672"/>
      </g>
     </g>
    </g>
    <g id="xtick_4">
     <g id="line2d_4">
      <g>
       <use xlink:href="#maf3572fa19" x="222.563416" y="276.48" style="fill: #ffffff; stroke: #ffffff; stroke-width: 0.8"/>
      </g>
     </g>
     <g id="text_4">
      <!-- Mon 01/03 -->
      <g style="fill: #ffffff" transform="translate(175.553861 316.601065)rotate(-30)scale(0.1 -0.1)">
       <defs>
        <path id="DejaVuSans-30" d="M 2034 4250 
Q 1547 4250 1301 3770 
Q 1056 3291 1056 2328 
Q 1056 1369 1301 889 
Q 1547 409 2034 409 
Q 2525 409 2770 889 
Q 3016 1369 3016 2328 
Q 3016 3291 2770 3770 
Q 2525 4250 2034 4250 
z
M 2034 4750 
Q 2819 4750 3233 4129 
Q 3647 3509 3647 2328 
Q 3647 1150 3233 529 
Q 2819 -91 2034 -91 
Q 1250 -91 836 529 
Q 422 1150 422 2328 
Q 422 3509 836 4129 
Q 1250 4750 2034 4750 
z
" transform="scale(0.015625)"/>
       </defs>
       <use xlink:href="#DejaVuSans-4d"/>
       <use xlink:href="#DejaVuSans-6f" x="86.279297"/>
       <use xlink:href="#DejaVuSans-6e" x="147.460938"/>
       <use xlink:href="#DejaVuSans-20" x="210.839844"/>
       <use xlink:href="#DejaVuSans-30" x="242.626953"/>
       <use xlink:href="#DejaVuSans-31" x="306.25"/>
       <use xlink:href="#DejaVuSans-2f" x="369.873047"/>
       <use xlink:href="#DejaVuSans-30" x="403.564453"/>
       <use xlink:href="#DejaVuSans-33" x="467.1875"/>
      </g>
     </g>
    </g>
    <g id="xtick_5">
     <g id="line2d_5">
      <g>
       <use xlink:href="#maf3572fa19" x="270.476658" y="276.48" style="fill: #ffffff; stroke: #ffffff; stroke-width: 0.8"/>
      </g>
     </g>
     <g id="text_5">
      <!-- Fri 01/07 -->
      <g style="fill: #ffffff" transform="translate(231.407473 312.01669)rotate(-30)scale(0.1 -0.1)">
       <use xlink:href="#DejaVuSans-46"/>
       <use xlink:href="#DejaVuSans-72" x="50.269531"/>
       <use xlink:href="#DejaVuSans-69" x="91.382812"/>
       <use xlink:href="#DejaVuSans-20" x="119.166016"/>
       <use xlink:href="#DejaVuSans-30" x="150.953125"/>
       <use xlink:href="#DejaVuSans-31" x="214.576172"/>
       <use xlink:href="#DejaVuSans-2f" x="278.199219"/>
       <use xlink:href="#DejaVuSans-30" x="311.890625"/>
       <use xlink:href="#DejaVuSans-37" x="375.513672"/>
      </g>
     </g>
    </g>
    <g id="xtick_6">
     <g id="line2d_6">
      <g>
       <use xlink:href="#maf3572fa19" x="306.411589" y="276.48" style="fill: #ffffff; stroke: #ffffff; stroke-width: 0.8"/>
      </g>
     </g>
     <g id="text_6">
      <!-- Mon 01/10 -->
      <g style="fill: #ffffff" transform="translate(259.402034 316.601065)rotate(-30)scale(0.1 -0.1)">
       <use xlink:href="#DejaVuSans-4d"/>
       <use xlink:href="#DejaVuSans-6f" x="86.279297"/>
       <use xlink:href="#DejaVuSans-6e" x="147.460938"/>
       <use xlink:href="#DejaVuSans-20" x="210.839844"/>
       <use xlink:href="#DejaVuSans-30" x="242.626953"/>
       <use xlink:href="#DejaVuSans-31" x="306.25"/>
       <use xlink:href="#DejaVuSans-2f" x="369.873047"/>
       <use xlink:href="#DejaVuSans-31" x="403.564453"/>
       <use xlink:href="#DejaVuSans-30" x="467.1875"/>
      </g>
     </g>
    </g>
    <g id="xtick_7">
     <g id="line2d_7">
      <g>
       <use xlink:href="#maf3572fa19" x="354.324831" y="276.48" style="fill: #ffffff; stroke: #ffffff; stroke-width: 0.8"/>
      </g>
     </g>
     <g id="text_7">
      <!-- Fri 01/14 -->
      <g style="fill: #ffffff" transform="translate(315.255647 312.01669)rotate(-30)scale(0.1 -0.1)">
       <use xlink:href="#DejaVuSans-46"/>
       <use xlink:href="#DejaVuSans-72" x="50.269531"/>
       <use xlink:href="#DejaVuSans-69" x="91.382812"/>
       <use xlink:href="#DejaVuSans-20" x="119.166016"/>
       <use xlink:href="#DejaVuSans-30" x="150.953125"/>
       <use xlink:href="#DejaVuSans-31" x="214.576172"/>
       <use xlink:href="#DejaVuSans-2f" x="278.199219"/>
       <use xlink:href="#DejaVuSans-31" x="311.890625"/>
       <use xlink:href="#DejaVuSans-34" x="375.513672"/>
      </g>
     </g>
    </g>
    <g id="xtick_8">
     <g id="line2d_8">
      <g>
       <use xlink:href="#maf3572fa19" x="390.259762" y="276.48" style="fill: #ffffff; stroke: #ffffff; stroke-width: 0.8"/>
      </g>
     </g>
     <g id="text_8">
      <!-- Mon 01/17 -->
      <g style="fill: #ffffff" transform="translate(343.250208 316.601065)rotate(-30)scale(0.1 -0.1)">
       <use xlink:href="#DejaVuSans-4d"/>
       <use xlink:href="#DejaVuSans-6f" x="86.279297"/>
       <use xlink:href="#DejaVuSans-6e" x="147.460938"/>
       <use xlink:href="#DejaVuSans-20" x="210.839844"/>
       <use xlink:href="#DejaVuSans-30" x="242.626953"/>
       <use xlink:href="#DejaVuSans-31" x="306.25"/>
       <use xlink:href="#DejaVuSans-2f" x="369.873047"/>
       <use xlink:href="#DejaVuSans-31" x="403.564453"/>
       <use xlink:href="#DejaVuSans-37" x="467.1875"/>
      </g>
     </g>
    </g>
    <g id="xtick_9">
     <g id="line2d_9">
      <defs>
       <path id="m6701ff332c" d="M 0 0 
L 0 2 
" style="stroke: #ffffff; stroke-width: 0.6"/>
      </defs>
      <g>
       <use xlink:href="#m6701ff332c" x="66.845379" y="276.48" style="fill: #ffffff; stroke: #ffffff; stroke-width: 0.6"/>
      </g>
     </g>
    </g>
    <g id="xtick_10">
     <g id="line2d_10">
      <g>
       <use xlink:href="#m6701ff332c" x="78.82369" y="276.48" style="fill: #ffffff; stroke: #ffffff; stroke-width: 0.6"/>
      </g>
     </g>
    </g>
    <g id="xtick_11">
     <g id="line2d_11">
      <g>
       <use xlink:href="#m6701ff332c" x="90.802" y="276.48" style="fill: #ffffff; stroke: #ffffff; stroke-width: 0.6"/>
      </g>
     </g>
    </g>
    <g id="xtick_12">
     <g id="line2d_12">
      <g>
       <use xlink:href="#m6701ff332c" x="114.758621" y="276.48" style="fill: #ffffff; stroke: #ffffff; stroke-width: 0.6"/>
      </g>
     </g>
    </g>
    <g id="xtick_13">
     <g id="line2d_13">
      <g>
       <use xlink:href="#m6701ff332c" x="126.736932" y="276.48" style="fill: #ffffff; stroke: #ffffff; stroke-width: 0.6"/>
      </g>
     </g>
    </g>
    <g id="xtick_14">
     <g id="line2d_14">
      <g>
       <use xlink:href="#m6701ff332c" x="150.693553" y="276.48" style="fill: #ffffff; stroke: #ffffff; stroke-width: 0.6"/>
      </g>
     </g>
    </g>
    <g id="xtick_15">
     <g id="line2d_15">
      <g>
       <use xlink:href="#m6701ff332c" x="162.671863" y="276.48" style="fill: #ffffff; stroke: #ffffff; stroke-width: 0.6"/>
      </g>
     </g>
    </g>
    <g id="xtick_16">
     <g id="line2d_16">
      <g>
       <use xlink:href="#m6701ff332c" x="174.650174" y="276.48" style="fill: #ffffff; stroke: #ffffff; stroke-width: 0.6"/>
      </g>
     </g>
    </g>
    <g id="xtick_17">
     <g id="line2d_17">
      <g>
       <use xlink:href="#m6701ff332c" x="198.606795" y="276.48" style="fill: #ffffff; stroke: #ffffff; stroke-width: 0.6"/>
      </g>
     </g>
    </g>
    <g id="xtick_18">
     <g id="line2d_18">
      <g>
       <use xlink:href="#m6701ff332c" x="210.585105" y="276.48" style="fill: #ffffff; stroke: #ffffff; stroke-width: 0.6"/>
      </g>
     </g>
    </g>
    <g id="xtick_19">
     <g id="line2d_19">
      <g>
       <use xlink:href="#m6701ff332c" x="234.541726" y="276.48" style="fill: #ffffff; stroke: #ffffff; stroke-width: 0.6"/>
      </g>
     </g>
    </g>
    <g id="xtick_20">
     <g id="line2d_20">
      <g>
       <use xlink:href="#m6701ff332c" x="246.520037" y="276.48" style="fill: #ffffff; stroke: #ffffff; stroke-width: 0.6"/>
      </g>
     </g>
    </g>
    <g id="xtick_21">
     <g id="line2d_21">
      <g>
       <use xlink:href="#m6701ff332c" x="258.498347" y="276.48" style="fill: #ffffff; stroke: #ffffff; stroke-width: 0.6"/>
      </g>
     </g>
    </g>
    <g id="xtick_22">
     <g id="line2d_22">
      <g>
       <use xlink:href="#m6701ff332c" x="282.454968" y="276.48" style="fill: #ffffff; stroke: #ffffff; stroke-width: 0.6"/>
      </g>
     </g>
    </g>
    <g id="xtick_23">
     <g id="line2d_23">
      <g>
       <use xlink:href="#m6701ff332c" x="294.433279" y="276.48" style="fill: #ffffff; stroke: #ffffff; stroke-width: 0.6"/>
      </g>
     </g>
    </g>
    <g id="xtick_24">
     <g id="line2d_24">
      <g>
       <use xlink:href="#m6701ff332c" x="318.3899" y="276.48" style="fill: #ffffff; stroke: #ffffff; stroke-width: 0.6"/>
      </g>
     </g>
    </g>
    <g id="xtick_25">
     <g id="line2d_25">
      <g>
       <use xlink:href="#m6701ff332c" x="330.36821" y="276.48" style="fill: #ffffff; stroke: #ffffff; stroke-width: 0.6"/>
      </g>
     </g>
    </g>
    <g id="xtick_26">
     <g id="line2d_26">
      <g>
       <use xlink:href="#m6701ff332c" x="342.346521" y="276.48" style="fill: #ffffff; stroke: #ffffff; stroke-width: 0.6"/>
      </g>
     </g>
    </g>
    <g id="xtick_27">
     <g id="line2d_27">
      <g>
       <use xlink:href="#m6701ff332c" x="366.303141" y="276.48" style="fill: #ffffff; stroke: #ffffff; stroke-width: 0.6"/>
      </g>
     </g>
    </g>
    <g id="xtick_28">
     <g id="line2d_28">
      <g>
       <use xlink:href="#m6701ff332c" x="378.281452" y="276.48" style="fill: #ffffff; stroke: #ffffff; stroke-width: 0.6"/>
      </g>
     </g>
    </g>
    <g id="xtick_29">
     <g id="line2d_29">
      <g>
       <use xlink:href="#m6701ff332c" x="402.238073" y="276.48" style="fill: #ffffff; stroke: #ffffff; stroke-width: 0.6"/>
      </g>
     </g>
    </g>
    <g id="xtick_30">
     <g id="line2d_30">
      <g>
       <use xlink:href="#m6701ff332c" x="414.216383" y="276.48" style="fill: #ffffff; stroke: #ffffff; stroke-width: 0.6"/>
      </g>
     </g>
    </g>
   </g>
   <g id="matplotlib.axis_2">
    <g id="ytick_1">
     <g id="line2d_31">
      <defs>
       <path id="ma506364b99" d="M 0 0 
L -3.5 0 
" style="stroke: #ffffff; stroke-width: 0.8"/>
      </defs>
      <g>
       <use xlink:href="#ma506364b99" x="57.6" y="276.48" style="fill: #ffffff; stroke: #ffffff; stroke-width: 0.8"/>
      </g>
     </g>
     <g id="text_9">
      <!-- 0 -->
      <g style="fill: #ffffff" transform="translate(44.2375 280.279219)scale(0.1 -0.1)">
       <use xlink:href="#DejaVuSans-30"/>
      </g>
     </g>
    </g>
    <g id="ytick_2">
     <g id="line2d_32">
      <g>
       <use xlink:href="#ma506364b99" x="57.6" y="246.637714" style="fill: #ffffff; stroke: #ffffff; stroke-width: 0.8"/>
      </g>
     </g>
     <g id="text_10">
      <!-- 200 -->
      <g style="fill: #ffffff" transform="translate(31.5125 250.436933)scale(0.1 -0.1)">
       <use xlink:href="#DejaVuSans-32"/>
       <use xlink:href="#DejaVuSans-30" x="63.623047"/>
       <use xlink:href="#DejaVuSans-30" x="127.246094"/>
      </g>
     </g>
    </g>
    <g id="ytick_3">
     <g id="line2d_33">
      <g>
       <use xlink:href="#ma506364b99" x="57.6" y="216.795429" style="fill: #ffffff; stroke: #ffffff; stroke-width: 0.8"/>
      </g>
     </g>
     <g id="text_11">
      <!-- 400 -->
      <g style="fill: #ffffff" transform="translate(31.5125 220.594647)scale(0.1 -0.1)">
       <use xlink:href="#DejaVuSans-34"/>
       <use xlink:href="#DejaVuSans-30" x="63.623047"/>
       <use xlink:href="#DejaVuSans-30" x="127.246094"/>
      </g>
     </g>
    </g>
    <g id="ytick_4">
     <g id="line2d_34">
      <g>
       <use xlink:href="#ma506364b99" x="57.6" y="186.953143" style="fill: #ffffff; stroke: #ffffff; stroke-width: 0.8"/>
      </g>
     </g>
     <g id="text_12">
      <!-- 600 -->
      <g style="fill: #ffffff" transform="translate(31.5125 190.752362)scale(0.1 -0.1)">
       <defs>
        <path id="DejaVuSans-36" d="M 2113 2584 
Q 1688 2584 1439 2293 
Q 1191 2003 1191 1497 
Q 1191 994 1439 701 
Q 1688 409 2113 409 
Q 2538 409 2786 701 
Q 3034 994 3034 1497 
Q 3034 2003 2786 2293 
Q 2538 2584 2113 2584 
z
M 3366 4563 
L 3366 3988 
Q 3128 4100 2886 4159 
Q 2644 4219 2406 4219 
Q 1781 4219 1451 3797 
Q 1122 3375 1075 2522 
Q 1259 2794 1537 2939 
Q 1816 3084 2150 3084 
Q 2853 3084 3261 2657 
Q 3669 2231 3669 1497 
Q 3669 778 3244 343 
Q 2819 -91 2113 -91 
Q 1303 -91 875 529 
Q 447 1150 447 2328 
Q 447 3434 972 4092 
Q 1497 4750 2381 4750 
Q 2619 4750 2861 4703 
Q 3103 4656 3366 4563 
z
" transform="scale(0.015625)"/>
       </defs>
       <use xlink:href="#DejaVuSans-36"/>
       <use xlink:href="#DejaVuSans-30" x="63.623047"/>
       <use xlink:href="#DejaVuSans-30" x="127.246094"/>
      </g>
     </g>
    </g>
    <g id="ytick_5">
     <g id="line2d_35">
      <g>
       <use xlink:href="#ma506364b99" x="57.6" y="157.110857" style="fill: #ffffff; stroke: #ffffff; stroke-width: 0.8"/>
      </g>
     </g>
     <g id="text_13">
      <!-- 800 -->
      <g style="fill: #ffffff" transform="translate(31.5125 160.910076)scale(0.1 -0.1)">
       <defs>
        <path id="DejaVuSans-38" d="M 2034 2216 
Q 1584 2216 1326 1975 
Q 1069 1734 1069 1313 
Q 1069 891 1326 650 
Q 1584 409 2034 409 
Q 2484 409 2743 651 
Q 3003 894 3003 1313 
Q 3003 1734 2745 1975 
Q 2488 2216 2034 2216 
z
M 1403 2484 
Q 997 2584 770 2862 
Q 544 3141 544 3541 
Q 544 4100 942 4425 
Q 1341 4750 2034 4750 
Q 2731 4750 3128 4425 
Q 3525 4100 3525 3541 
Q 3525 3141 3298 2862 
Q 3072 2584 2669 2484 
Q 3125 2378 3379 2068 
Q 3634 1759 3634 1313 
Q 3634 634 3220 271 
Q 2806 -91 2034 -91 
Q 1263 -91 848 271 
Q 434 634 434 1313 
Q 434 1759 690 2068 
Q 947 2378 1403 2484 
z
M 1172 3481 
Q 1172 3119 1398 2916 
Q 1625 2713 2034 2713 
Q 2441 2713 2670 2916 
Q 2900 3119 2900 3481 
Q 2900 3844 2670 4047 
Q 2441 4250 2034 4250 
Q 1625 4250 1398 4047 
Q 1172 3844 1172 3481 
z
" transform="scale(0.015625)"/>
       </defs>
       <use xlink:href="#DejaVuSans-38"/>
       <use xlink:href="#DejaVuSans-30" x="63.623047"/>
       <use xlink:href="#DejaVuSans-30" x="127.246094"/>
      </g>
     </g>
    </g>
    <g id="ytick_6">
     <g id="line2d_36">
      <g>
       <use xlink:href="#ma506364b99" x="57.6" y="127.268571" style="fill: #ffffff; stroke: #ffffff; stroke-width: 0.8"/>
      </g>
     </g>
     <g id="text_14">
      <!-- 1000 -->
      <g style="fill: #ffffff" transform="translate(25.15 131.06779)scale(0.1 -0.1)">
       <use xlink:href="#DejaVuSans-31"/>
       <use xlink:href="#DejaVuSans-30" x="63.623047"/>
       <use xlink:href="#DejaVuSans-30" x="127.246094"/>
       <use xlink:href="#DejaVuSans-30" x="190.869141"/>
      </g>
     </g>
    </g>
    <g id="ytick_7">
     <g id="line2d_37">
      <g>
       <use xlink:href="#ma506364b99" x="57.6" y="97.426286" style="fill: #ffffff; stroke: #ffffff; stroke-width: 0.8"/>
      </g>
     </g>
     <g id="text_15">
      <!-- 1200 -->
      <g style="fill: #ffffff" transform="translate(25.15 101.225504)scale(0.1 -0.1)">
       <use xlink:href="#DejaVuSans-31"/>
       <use xlink:href="#DejaVuSans-32" x="63.623047"/>
       <use xlink:href="#DejaVuSans-30" x="127.246094"/>
       <use xlink:href="#DejaVuSans-30" x="190.869141"/>
      </g>
     </g>
    </g>
    <g id="ytick_8">
     <g id="line2d_38">
      <g>
       <use xlink:href="#ma506364b99" x="57.6" y="67.584" style="fill: #ffffff; stroke: #ffffff; stroke-width: 0.8"/>
      </g>
     </g>
     <g id="text_16">
      <!-- 1400 -->
      <g style="fill: #ffffff" transform="translate(25.15 71.383219)scale(0.1 -0.1)">
       <use xlink:href="#DejaVuSans-31"/>
       <use xlink:href="#DejaVuSans-34" x="63.623047"/>
       <use xlink:href="#DejaVuSans-30" x="127.246094"/>
       <use xlink:href="#DejaVuSans-30" x="190.869141"/>
      </g>
     </g>
    </g>
    <g id="text_17">
     <!-- Number of tickets sold -->
     <g style="fill: #ffffff" transform="translate(19.070312 215.329906)rotate(-90)scale(0.1 -0.1)">
      <defs>
       <path id="DejaVuSans-4e" d="M 628 4666 
L 1478 4666 
L 3547 763 
L 3547 4666 
L 4159 4666 
L 4159 0 
L 3309 0 
L 1241 3903 
L 1241 0 
L 628 0 
L 628 4666 
z
" transform="scale(0.015625)"/>
       <path id="DejaVuSans-75" d="M 544 1381 
L 544 3500 
L 1119 3500 
L 1119 1403 
Q 1119 906 1312 657 
Q 1506 409 1894 409 
Q 2359 409 2629 706 
Q 2900 1003 2900 1516 
L 2900 3500 
L 3475 3500 
L 3475 0 
L 2900 0 
L 2900 538 
Q 2691 219 2414 64 
Q 2138 -91 1772 -91 
Q 1169 -91 856 284 
Q 544 659 544 1381 
z
M 1991 3584 
L 1991 3584 
z
" transform="scale(0.015625)"/>
       <path id="DejaVuSans-6d" d="M 3328 2828 
Q 3544 3216 3844 3400 
Q 4144 3584 4550 3584 
Q 5097 3584 5394 3201 
Q 5691 2819 5691 2113 
L 5691 0 
L 5113 0 
L 5113 2094 
Q 5113 2597 4934 2840 
Q 4756 3084 4391 3084 
Q 3944 3084 3684 2787 
Q 3425 2491 3425 1978 
L 3425 0 
L 2847 0 
L 2847 2094 
Q 2847 2600 2669 2842 
Q 2491 3084 2119 3084 
Q 1678 3084 1418 2786 
Q 1159 2488 1159 1978 
L 1159 0 
L 581 0 
L 581 3500 
L 1159 3500 
L 1159 2956 
Q 1356 3278 1631 3431 
Q 1906 3584 2284 3584 
Q 2666 3584 2933 3390 
Q 3200 3197 3328 2828 
z
" transform="scale(0.015625)"/>
       <path id="DejaVuSans-62" d="M 3116 1747 
Q 3116 2381 2855 2742 
Q 2594 3103 2138 3103 
Q 1681 3103 1420 2742 
Q 1159 2381 1159 1747 
Q 1159 1113 1420 752 
Q 1681 391 2138 391 
Q 2594 391 2855 752 
Q 3116 1113 3116 1747 
z
M 1159 2969 
Q 1341 3281 1617 3432 
Q 1894 3584 2278 3584 
Q 2916 3584 3314 3078 
Q 3713 2572 3713 1747 
Q 3713 922 3314 415 
Q 2916 -91 2278 -91 
Q 1894 -91 1617 61 
Q 1341 213 1159 525 
L 1159 0 
L 581 0 
L 581 4863 
L 1159 4863 
L 1159 2969 
z
" transform="scale(0.015625)"/>
       <path id="DejaVuSans-65" d="M 3597 1894 
L 3597 1613 
L 953 1613 
Q 991 1019 1311 708 
Q 1631 397 2203 397 
Q 2534 397 2845 478 
Q 3156 559 3463 722 
L 3463 178 
Q 3153 47 2828 -22 
Q 2503 -91 2169 -91 
Q 1331 -91 842 396 
Q 353 884 353 1716 
Q 353 2575 817 3079 
Q 1281 3584 2069 3584 
Q 2775 3584 3186 3129 
Q 3597 2675 3597 1894 
z
M 3022 2063 
Q 3016 2534 2758 2815 
Q 2500 3097 2075 3097 
Q 1594 3097 1305 2825 
Q 1016 2553 972 2059 
L 3022 2063 
z
" transform="scale(0.015625)"/>
       <path id="DejaVuSans-66" d="M 2375 4863 
L 2375 4384 
L 1825 4384 
Q 1516 4384 1395 4259 
Q 1275 4134 1275 3809 
L 1275 3500 
L 2222 3500 
L 2222 3053 
L 1275 3053 
L 1275 0 
L 697 0 
L 697 3053 
L 147 3053 
L 147 3500 
L 697 3500 
L 697 3744 
Q 697 4328 969 4595 
Q 1241 4863 1831 4863 
L 2375 4863 
z
" transform="scale(0.015625)"/>
       <path id="DejaVuSans-74" d="M 1172 4494 
L 1172 3500 
L 2356 3500 
L 2356 3053 
L 1172 3053 
L 1172 1153 
Q 1172 725 1289 603 
Q 1406 481 1766 481 
L 2356 481 
L 2356 0 
L 1766 0 
Q 1100 0 847 248 
Q 594 497 594 1153 
L 594 3053 
L 172 3053 
L 172 3500 
L 594 3500 
L 594 4494 
L 1172 4494 
z
" transform="scale(0.015625)"/>
       <path id="DejaVuSans-63" d="M 3122 3366 
L 3122 2828 
Q 2878 2963 2633 3030 
Q 2388 3097 2138 3097 
Q 1578 3097 1268 2742 
Q 959 2388 959 1747 
Q 959 1106 1268 751 
Q 1578 397 2138 397 
Q 2388 397 2633 464 
Q 2878 531 3122 666 
L 3122 134 
Q 2881 22 2623 -34 
Q 2366 -91 2075 -91 
Q 1284 -91 818 406 
Q 353 903 353 1747 
Q 353 2603 823 3093 
Q 1294 3584 2113 3584 
Q 2378 3584 2631 3529 
Q 2884 3475 3122 3366 
z
" transform="scale(0.015625)"/>
       <path id="DejaVuSans-6b" d="M 581 4863 
L 1159 4863 
L 1159 1991 
L 2875 3500 
L 3609 3500 
L 1753 1863 
L 3688 0 
L 2938 0 
L 1159 1709 
L 1159 0 
L 581 0 
L 581 4863 
z
" transform="scale(0.015625)"/>
       <path id="DejaVuSans-73" d="M 2834 3397 
L 2834 2853 
Q 2591 2978 2328 3040 
Q 2066 3103 1784 3103 
Q 1356 3103 1142 2972 
Q 928 2841 928 2578 
Q 928 2378 1081 2264 
Q 1234 2150 1697 2047 
L 1894 2003 
Q 2506 1872 2764 1633 
Q 3022 1394 3022 966 
Q 3022 478 2636 193 
Q 2250 -91 1575 -91 
Q 1294 -91 989 -36 
Q 684 19 347 128 
L 347 722 
Q 666 556 975 473 
Q 1284 391 1588 391 
Q 1994 391 2212 530 
Q 2431 669 2431 922 
Q 2431 1156 2273 1281 
Q 2116 1406 1581 1522 
L 1381 1569 
Q 847 1681 609 1914 
Q 372 2147 372 2553 
Q 372 3047 722 3315 
Q 1072 3584 1716 3584 
Q 2034 3584 2315 3537 
Q 2597 3491 2834 3397 
z
" transform="scale(0.015625)"/>
       <path id="DejaVuSans-6c" d="M 603 4863 
L 1178 4863 
L 1178 0 
L 603 0 
L 603 4863 
z
" transform="scale(0.015625)"/>
       <path id="DejaVuSans-64" d="M 2906 2969 
L 2906 4863 
L 3481 4863 
L 3481 0 
L 2906 0 
L 2906 525 
Q 2725 213 2448 61 
Q 2172 -91 1784 -91 
Q 1150 -91 751 415 
Q 353 922 353 1747 
Q 353 2572 751 3078 
Q 1150 3584 1784 3584 
Q 2172 3584 2448 3432 
Q 2725 3281 2906 2969 
z
M 947 1747 
Q 947 1113 1208 752 
Q 1469 391 1925 391 
Q 2381 391 2643 752 
Q 2906 1113 2906 1747 
Q 2906 2381 2643 2742 
Q 2381 3103 1925 3103 
Q 1469 3103 1208 2742 
Q 947 2381 947 1747 
z
" transform="scale(0.015625)"/>
      </defs>
      <use xlink:href="#DejaVuSans-4e"/>
      <use xlink:href="#DejaVuSans-75" x="74.804688"/>
      <use xlink:href="#DejaVuSans-6d" x="138.183594"/>
      <use xlink:href="#DejaVuSans-62" x="235.595703"/>
      <use xlink:href="#DejaVuSans-65" x="299.072266"/>
      <use xlink:href="#DejaVuSans-72" x="360.595703"/>
      <use xlink:href="#DejaVuSans-20" x="401.708984"/>
      <use xlink:href="#DejaVuSans-6f" x="433.496094"/>
      <use xlink:href="#DejaVuSans-66" x="494.677734"/>
      <use xlink:href="#DejaVuSans-20" x="529.882812"/>
      <use xlink:href="#DejaVuSans-74" x="561.669922"/>
      <use xlink:href="#DejaVuSans-69" x="600.878906"/>
      <use xlink:href="#DejaVuSans-63" x="628.662109"/>
      <use xlink:href="#DejaVuSans-6b" x="683.642578"/>
      <use xlink:href="#DejaVuSans-65" x="737.927734"/>
      <use xlink:href="#DejaVuSans-74" x="799.451172"/>
      <use xlink:href="#DejaVuSans-73" x="838.660156"/>
      <use xlink:href="#DejaVuSans-20" x="890.759766"/>
      <use xlink:href="#DejaVuSans-73" x="922.546875"/>
      <use xlink:href="#DejaVuSans-6f" x="974.646484"/>
      <use xlink:href="#DejaVuSans-6c" x="1035.828125"/>
      <use xlink:href="#DejaVuSans-64" x="1063.611328"/>
     </g>
    </g>
   </g>
   <g id="line2d_39">
    <path d="M 57.6 52.662857 
L 414.72 52.662857 
" clip-path="url(#p39ec658ad0)" style="fill: none; stroke-dasharray: 5.55,2.4; stroke-dashoffset: 0; stroke: #32cd32; stroke-width: 1.5"/>
   </g>
   <g id="patch_3">
    <path d="M 57.6 276.48 
L 57.6 41.472 
" style="fill: none; stroke: #000000; stroke-width: 0.8; stroke-linejoin: miter; stroke-linecap: square"/>
   </g>
   <g id="patch_4">
    <path d="M 414.72 276.48 
L 414.72 41.472 
" style="fill: none; stroke: #000000; stroke-width: 0.8; stroke-linejoin: miter; stroke-linecap: square"/>
   </g>
   <g id="patch_5">
    <path d="M 57.6 276.48 
L 414.72 276.48 
" style="fill: none; stroke: #000000; stroke-width: 0.8; stroke-linejoin: miter; stroke-linecap: square"/>
   </g>
   <g id="patch_6">
    <path d="M 57.6 41.472 
L 414.72 41.472 
" style="fill: none; stroke: #000000; stroke-width: 0.8; stroke-linejoin: miter; stroke-linecap: square"/>
   </g>
   <g id="text_18">
    <!-- MCH Tickets -->
    <g style="fill: #ffffff" transform="translate(199.504687 35.472)scale(0.12 -0.12)">
     <defs>
      <path id="DejaVuSans-43" d="M 4122 4306 
L 4122 3641 
Q 3803 3938 3442 4084 
Q 3081 4231 2675 4231 
Q 1875 4231 1450 3742 
Q 1025 3253 1025 2328 
Q 1025 1406 1450 917 
Q 1875 428 2675 428 
Q 3081 428 3442 575 
Q 3803 722 4122 1019 
L 4122 359 
Q 3791 134 3420 21 
Q 3050 -91 2638 -91 
Q 1578 -91 968 557 
Q 359 1206 359 2328 
Q 359 3453 968 4101 
Q 1578 4750 2638 4750 
Q 3056 4750 3426 4639 
Q 3797 4528 4122 4306 
z
" transform="scale(0.015625)"/>
      <path id="DejaVuSans-48" d="M 628 4666 
L 1259 4666 
L 1259 2753 
L 3553 2753 
L 3553 4666 
L 4184 4666 
L 4184 0 
L 3553 0 
L 3553 2222 
L 1259 2222 
L 1259 0 
L 628 0 
L 628 4666 
z
" transform="scale(0.015625)"/>
      <path id="DejaVuSans-54" d="M -19 4666 
L 3928 4666 
L 3928 4134 
L 2272 4134 
L 2272 0 
L 1638 0 
L 1638 4134 
L -19 4134 
L -19 4666 
z
" transform="scale(0.015625)"/>
     </defs>
     <use xlink:href="#DejaVuSans-4d"/>
     <use xlink:href="#DejaVuSans-43" x="86.279297"/>
     <use xlink:href="#DejaVuSans-48" x="156.103516"/>
     <use xlink:href="#DejaVuSans-20" x="231.298828"/>
     <use xlink:href="#DejaVuSans-54" x="263.085938"/>
     <use xlink:href="#DejaVuSans-69" x="321.044922"/>
     <use xlink:href="#DejaVuSans-63" x="348.828125"/>
     <use xlink:href="#DejaVuSans-6b" x="403.808594"/>
     <use xlink:href="#DejaVuSans-65" x="458.09375"/>
     <use xlink:href="#DejaVuSans-74" x="519.617188"/>
     <use xlink:href="#DejaVuSans-73" x="558.826172"/>
    </g>
   </g>
   <g id="legend_1">
    <g id="patch_7">
     <path d="M 64.6 93.506375 
L 244.389062 93.506375 
Q 246.389062 93.506375 246.389062 91.506375 
L 246.389062 48.472 
Q 246.389062 46.472 244.389062 46.472 
L 64.6 46.472 
Q 62.6 46.472 62.6 48.472 
L 62.6 91.506375 
Q 62.6 93.506375 64.6 93.506375 
z
" style="fill: #ffffff; opacity: 0.8; stroke: #cccccc; stroke-linejoin: miter"/>
    </g>
    <g id="patch_8">
     <path d="M 66.6 58.070437 
L 86.6 58.070437 
L 86.6 51.070437 
L 66.6 51.070437 
z
" style="fill: #fa448c; fill-opacity: 0.8"/>
    </g>
    <g id="text_19">
     <!-- Early-BirdTickets -->
     <g transform="translate(94.6 58.070437)scale(0.1 -0.1)">
      <defs>
       <path id="DejaVuSans-45" d="M 628 4666 
L 3578 4666 
L 3578 4134 
L 1259 4134 
L 1259 2753 
L 3481 2753 
L 3481 2222 
L 1259 2222 
L 1259 531 
L 3634 531 
L 3634 0 
L 628 0 
L 628 4666 
z
" transform="scale(0.015625)"/>
       <path id="DejaVuSans-61" d="M 2194 1759 
Q 1497 1759 1228 1600 
Q 959 1441 959 1056 
Q 959 750 1161 570 
Q 1363 391 1709 391 
Q 2188 391 2477 730 
Q 2766 1069 2766 1631 
L 2766 1759 
L 2194 1759 
z
M 3341 1997 
L 3341 0 
L 2766 0 
L 2766 531 
Q 2569 213 2275 61 
Q 1981 -91 1556 -91 
Q 1019 -91 701 211 
Q 384 513 384 1019 
Q 384 1609 779 1909 
Q 1175 2209 1959 2209 
L 2766 2209 
L 2766 2266 
Q 2766 2663 2505 2880 
Q 2244 3097 1772 3097 
Q 1472 3097 1187 3025 
Q 903 2953 641 2809 
L 641 3341 
Q 956 3463 1253 3523 
Q 1550 3584 1831 3584 
Q 2591 3584 2966 3190 
Q 3341 2797 3341 1997 
z
" transform="scale(0.015625)"/>
       <path id="DejaVuSans-79" d="M 2059 -325 
Q 1816 -950 1584 -1140 
Q 1353 -1331 966 -1331 
L 506 -1331 
L 506 -850 
L 844 -850 
Q 1081 -850 1212 -737 
Q 1344 -625 1503 -206 
L 1606 56 
L 191 3500 
L 800 3500 
L 1894 763 
L 2988 3500 
L 3597 3500 
L 2059 -325 
z
" transform="scale(0.015625)"/>
       <path id="DejaVuSans-2d" d="M 313 2009 
L 1997 2009 
L 1997 1497 
L 313 1497 
L 313 2009 
z
" transform="scale(0.015625)"/>
       <path id="DejaVuSans-42" d="M 1259 2228 
L 1259 519 
L 2272 519 
Q 2781 519 3026 730 
Q 3272 941 3272 1375 
Q 3272 1813 3026 2020 
Q 2781 2228 2272 2228 
L 1259 2228 
z
M 1259 4147 
L 1259 2741 
L 2194 2741 
Q 2656 2741 2882 2914 
Q 3109 3088 3109 3444 
Q 3109 3797 2882 3972 
Q 2656 4147 2194 4147 
L 1259 4147 
z
M 628 4666 
L 2241 4666 
Q 2963 4666 3353 4366 
Q 3744 4066 3744 3513 
Q 3744 3084 3544 2831 
Q 3344 2578 2956 2516 
Q 3422 2416 3680 2098 
Q 3938 1781 3938 1306 
Q 3938 681 3513 340 
Q 3088 0 2303 0 
L 628 0 
L 628 4666 
z
" transform="scale(0.015625)"/>
      </defs>
      <use xlink:href="#DejaVuSans-45"/>
      <use xlink:href="#DejaVuSans-61" x="63.183594"/>
      <use xlink:href="#DejaVuSans-72" x="124.462891"/>
      <use xlink:href="#DejaVuSans-6c" x="165.576172"/>
      <use xlink:href="#DejaVuSans-79" x="193.359375"/>
      <use xlink:href="#DejaVuSans-2d" x="250.789062"/>
      <use xlink:href="#DejaVuSans-42" x="283.248047"/>
      <use xlink:href="#DejaVuSans-69" x="351.851562"/>
      <use xlink:href="#DejaVuSans-72" x="379.634766"/>
      <use xlink:href="#DejaVuSans-64" x="418.998047"/>
      <use xlink:href="#DejaVuSans-54" x="482.474609"/>
      <use xlink:href="#DejaVuSans-69" x="540.433594"/>
      <use xlink:href="#DejaVuSans-63" x="568.216797"/>
      <use xlink:href="#DejaVuSans-6b" x="623.197266"/>
      <use xlink:href="#DejaVuSans-65" x="677.482422"/>
      <use xlink:href="#DejaVuSans-74" x="739.005859"/>
      <use xlink:href="#DejaVuSans-73" x="778.214844"/>
     </g>
    </g>
    <g id="patch_9">
     <path d="M 66.6 72.748562 
L 86.6 72.748562 
L 86.6 65.748562 
L 66.6 65.748562 
z
" style="fill: #43b5a0; fill-opacity: 0.8"/>
    </g>
    <g id="text_20">
     <!-- RegularTickets -->
     <g transform="translate(94.6 72.748562)scale(0.1 -0.1)">
      <defs>
       <path id="DejaVuSans-52" d="M 2841 2188 
Q 3044 2119 3236 1894 
Q 3428 1669 3622 1275 
L 4263 0 
L 3584 0 
L 2988 1197 
Q 2756 1666 2539 1819 
Q 2322 1972 1947 1972 
L 1259 1972 
L 1259 0 
L 628 0 
L 628 4666 
L 2053 4666 
Q 2853 4666 3247 4331 
Q 3641 3997 3641 3322 
Q 3641 2881 3436 2590 
Q 3231 2300 2841 2188 
z
M 1259 4147 
L 1259 2491 
L 2053 2491 
Q 2509 2491 2742 2702 
Q 2975 2913 2975 3322 
Q 2975 3731 2742 3939 
Q 2509 4147 2053 4147 
L 1259 4147 
z
" transform="scale(0.015625)"/>
       <path id="DejaVuSans-67" d="M 2906 1791 
Q 2906 2416 2648 2759 
Q 2391 3103 1925 3103 
Q 1463 3103 1205 2759 
Q 947 2416 947 1791 
Q 947 1169 1205 825 
Q 1463 481 1925 481 
Q 2391 481 2648 825 
Q 2906 1169 2906 1791 
z
M 3481 434 
Q 3481 -459 3084 -895 
Q 2688 -1331 1869 -1331 
Q 1566 -1331 1297 -1286 
Q 1028 -1241 775 -1147 
L 775 -588 
Q 1028 -725 1275 -790 
Q 1522 -856 1778 -856 
Q 2344 -856 2625 -561 
Q 2906 -266 2906 331 
L 2906 616 
Q 2728 306 2450 153 
Q 2172 0 1784 0 
Q 1141 0 747 490 
Q 353 981 353 1791 
Q 353 2603 747 3093 
Q 1141 3584 1784 3584 
Q 2172 3584 2450 3431 
Q 2728 3278 2906 2969 
L 2906 3500 
L 3481 3500 
L 3481 434 
z
" transform="scale(0.015625)"/>
      </defs>
      <use xlink:href="#DejaVuSans-52"/>
      <use xlink:href="#DejaVuSans-65" x="64.982422"/>
      <use xlink:href="#DejaVuSans-67" x="126.505859"/>
      <use xlink:href="#DejaVuSans-75" x="189.982422"/>
      <use xlink:href="#DejaVuSans-6c" x="253.361328"/>
      <use xlink:href="#DejaVuSans-61" x="281.144531"/>
      <use xlink:href="#DejaVuSans-72" x="342.423828"/>
      <use xlink:href="#DejaVuSans-54" x="383.537109"/>
      <use xlink:href="#DejaVuSans-69" x="441.496094"/>
      <use xlink:href="#DejaVuSans-63" x="469.279297"/>
      <use xlink:href="#DejaVuSans-6b" x="524.259766"/>
      <use xlink:href="#DejaVuSans-65" x="578.544922"/>
      <use xlink:href="#DejaVuSans-74" x="640.068359"/>
      <use xlink:href="#DejaVuSans-73" x="679.277344"/>
     </g>
    </g>
    <g id="line2d_40">
     <path d="M 66.6 83.926687 
L 76.6 83.926687 
L 86.6 83.926687 
" style="fill: none; stroke-dasharray: 5.55,2.4; stroke-dashoffset: 0; stroke: #32cd32; stroke-width: 1.5"/>
    </g>
    <g id="text_21">
     <!-- Required tickets w/ donations -->
     <g transform="translate(94.6 87.426687)scale(0.1 -0.1)">
      <defs>
       <path id="DejaVuSans-71" d="M 947 1747 
Q 947 1113 1208 752 
Q 1469 391 1925 391 
Q 2381 391 2643 752 
Q 2906 1113 2906 1747 
Q 2906 2381 2643 2742 
Q 2381 3103 1925 3103 
Q 1469 3103 1208 2742 
Q 947 2381 947 1747 
z
M 2906 525 
Q 2725 213 2448 61 
Q 2172 -91 1784 -91 
Q 1150 -91 751 415 
Q 353 922 353 1747 
Q 353 2572 751 3078 
Q 1150 3584 1784 3584 
Q 2172 3584 2448 3432 
Q 2725 3281 2906 2969 
L 2906 3500 
L 3481 3500 
L 3481 -1331 
L 2906 -1331 
L 2906 525 
z
" transform="scale(0.015625)"/>
       <path id="DejaVuSans-77" d="M 269 3500 
L 844 3500 
L 1563 769 
L 2278 3500 
L 2956 3500 
L 3675 769 
L 4391 3500 
L 4966 3500 
L 4050 0 
L 3372 0 
L 2619 2869 
L 1863 0 
L 1184 0 
L 269 3500 
z
" transform="scale(0.015625)"/>
      </defs>
      <use xlink:href="#DejaVuSans-52"/>
      <use xlink:href="#DejaVuSans-65" x="64.982422"/>
      <use xlink:href="#DejaVuSans-71" x="126.505859"/>
      <use xlink:href="#DejaVuSans-75" x="189.982422"/>
      <use xlink:href="#DejaVuSans-69" x="253.361328"/>
      <use xlink:href="#DejaVuSans-72" x="281.144531"/>
      <use xlink:href="#DejaVuSans-65" x="320.007812"/>
      <use xlink:href="#DejaVuSans-64" x="381.53125"/>
      <use xlink:href="#DejaVuSans-20" x="445.007812"/>
      <use xlink:href="#DejaVuSans-74" x="476.794922"/>
      <use xlink:href="#DejaVuSans-69" x="516.003906"/>
      <use xlink:href="#DejaVuSans-63" x="543.787109"/>
      <use xlink:href="#DejaVuSans-6b" x="598.767578"/>
      <use xlink:href="#DejaVuSans-65" x="653.052734"/>
      <use xlink:href="#DejaVuSans-74" x="714.576172"/>
      <use xlink:href="#DejaVuSans-73" x="753.785156"/>
      <use xlink:href="#DejaVuSans-20" x="805.884766"/>
      <use xlink:href="#DejaVuSans-77" x="837.671875"/>
      <use xlink:href="#DejaVuSans-2f" x="919.458984"/>
      <use xlink:href="#DejaVuSans-20" x="953.150391"/>
      <use xlink:href="#DejaVuSans-64" x="984.9375"/>
      <use xlink:href="#DejaVuSans-6f" x="1048.414062"/>
      <use xlink:href="#DejaVuSans-6e" x="1109.595703"/>
      <use xlink:href="#DejaVuSans-61" x="1172.974609"/>
      <use xlink:href="#DejaVuSans-74" x="1234.253906"/>
      <use xlink:href="#DejaVuSans-69" x="1273.462891"/>
      <use xlink:href="#DejaVuSans-6f" x="1301.246094"/>
      <use xlink:href="#DejaVuSans-6e" x="1362.427734"/>
      <use xlink:href="#DejaVuSans-73" x="1425.806641"/>
     </g>
    </g>
   </g>
  </g>
 </g>
 <defs>
  <clipPath id="p39ec658ad0">
   <rect x="57.6" y="41.472" width="357.12" height="235.008"/>
  </clipPath>
 </defs>
</svg>
