<?xml version="1.0" encoding="utf-8" standalone="no"?>
<!DOCTYPE svg PUBLIC "-//W3C//DTD SVG 1.1//EN"
  "http://www.w3.org/Graphics/SVG/1.1/DTD/svg11.dtd">
<svg xmlns:xlink="http://www.w3.org/1999/xlink" width="460.8pt" height="345.6pt" viewBox="0 0 460.8 345.6" xmlns="http://www.w3.org/2000/svg" version="1.1">
 <metadata>
  <rdf:RDF xmlns:dc="http://purl.org/dc/elements/1.1/" xmlns:cc="http://creativecommons.org/ns#" xmlns:rdf="http://www.w3.org/1999/02/22-rdf-syntax-ns#">
   <cc:Work>
    <dc:type rdf:resource="http://purl.org/dc/dcmitype/StillImage"/>
    <dc:date>2022-01-17T21:15:51.034712</dc:date>
    <dc:format>image/svg+xml</dc:format>
    <dc:creator>
     <cc:Agent>
      <dc:title>Matplotlib v3.5.1, https://matplotlib.org/</dc:title>
     </cc:Agent>
    </dc:creator>
   </cc:Work>
  </rdf:RDF>
 </metadata>
 <defs>
  <style type="text/css">*{stroke-linejoin: round; stroke-linecap: butt}</style>
 </defs>
 <g id="figure_1">
  <g id="patch_1">
   <path d="M 0 345.6 
L 460.8 345.6 
L 460.8 0 
L 0 0 
L 0 345.6 
z
" style="fill: none; opacity: 0"/>
  </g>
  <g id="axes_1">
   <g id="patch_2">
    <path d="M 57.6 276.48 
L 414.72 276.48 
L 414.72 41.472 
L 57.6 41.472 
z
" style="fill: #fec859"/>
   </g>
   <g id="PolyCollection_1">
    <path d="M 73.832727 276.48 
L 73.832727 276.48 
L 73.832727 276.48 
L 73.832727 276.48 
L 74.328183 276.48 
L 74.328183 276.48 
L 74.823639 276.48 
L 74.823639 276.48 
L 75.319095 276.48 
L 75.319095 276.48 
L 75.814551 276.48 
L 75.814551 276.48 
L 76.310007 276.48 
L 76.310007 276.48 
L 76.805463 276.48 
L 76.805463 276.48 
L 77.300919 276.48 
L 77.300919 276.48 
L 77.796375 276.48 
L 77.796375 276.48 
L 78.291831 276.48 
L 78.291831 276.48 
L 78.787287 276.48 
L 78.787287 276.48 
L 79.282743 276.48 
L 79.282743 276.48 
L 79.778199 276.48 
L 79.778199 276.48 
L 80.273655 276.48 
L 80.273655 276.48 
L 80.769111 276.48 
L 80.769111 276.48 
L 81.264567 276.48 
L 81.264567 276.48 
L 81.760023 276.48 
L 81.760023 276.48 
L 82.750935 276.48 
L 82.750935 276.48 
L 83.246391 276.48 
L 83.246391 276.48 
L 83.741847 276.48 
L 83.741847 276.48 
L 84.237303 276.48 
L 84.237303 276.48 
L 84.732759 276.48 
L 84.732759 276.48 
L 85.228215 276.48 
L 85.228215 276.48 
L 85.723671 276.48 
L 85.723671 276.48 
L 86.219127 276.48 
L 86.219127 276.48 
L 86.714583 276.48 
L 86.714583 276.48 
L 87.210039 276.48 
L 87.210039 276.48 
L 88.200951 276.48 
L 88.200951 276.48 
L 89.191862 276.48 
L 89.191862 276.48 
L 89.687318 276.48 
L 89.687318 276.48 
L 90.182774 276.48 
L 90.182774 276.48 
L 93.650966 276.48 
L 93.650966 276.48 
L 94.146422 276.48 
L 94.146422 276.48 
L 94.641878 276.48 
L 94.641878 276.48 
L 95.137334 276.48 
L 95.137334 276.48 
L 95.63279 276.48 
L 95.63279 276.48 
L 96.128246 276.48 
L 96.128246 276.48 
L 96.623702 276.48 
L 96.623702 276.48 
L 97.119158 276.48 
L 97.119158 276.48 
L 97.614614 276.48 
L 97.614614 276.48 
L 98.11007 276.48 
L 98.11007 276.48 
L 98.605526 276.48 
L 98.605526 276.48 
L 99.100982 276.48 
L 99.100982 276.48 
L 99.596438 276.48 
L 99.596438 276.48 
L 100.091894 276.48 
L 100.091894 276.48 
L 100.58735 276.48 
L 100.58735 276.48 
L 101.082806 276.48 
L 101.082806 276.48 
L 101.578262 276.48 
L 101.578262 276.48 
L 102.073718 276.48 
L 102.073718 276.48 
L 105.046454 276.48 
L 105.046454 276.48 
L 106.532822 276.48 
L 106.532822 276.48 
L 107.028278 276.48 
L 107.028278 276.48 
L 107.523734 276.48 
L 107.523734 276.48 
L 108.514645 276.48 
L 108.514645 276.48 
L 109.010101 276.48 
L 109.010101 276.48 
L 109.505557 276.48 
L 109.505557 276.48 
L 110.001013 276.48 
L 110.001013 276.48 
L 110.496469 276.48 
L 110.496469 276.48 
L 110.991925 276.48 
L 110.991925 276.48 
L 111.487381 276.48 
L 111.487381 276.48 
L 111.982837 276.48 
L 111.982837 276.48 
L 112.478293 276.48 
L 112.478293 276.48 
L 112.973749 276.48 
L 112.973749 276.48 
L 113.469205 276.48 
L 113.469205 276.48 
L 113.964661 276.48 
L 113.964661 276.48 
L 118.423765 276.48 
L 118.423765 276.48 
L 119.414677 276.48 
L 119.414677 276.48 
L 119.910133 276.48 
L 119.910133 276.48 
L 120.405589 276.48 
L 120.405589 276.48 
L 120.901045 276.48 
L 120.901045 276.48 
L 122.882869 276.48 
L 122.882869 276.48 
L 131.30562 276.48 
L 131.30562 276.48 
L 132.296532 276.48 
L 132.296532 276.48 
L 132.791988 276.48 
L 132.791988 276.48 
L 133.7829 276.48 
L 133.7829 276.48 
L 134.278356 276.48 
L 134.278356 276.48 
L 135.764724 276.48 
L 135.764724 276.48 
L 137.746548 276.48 
L 137.746548 276.48 
L 138.242004 276.48 
L 138.242004 276.48 
L 142.205652 276.48 
L 142.205652 276.48 
L 142.701108 276.48 
L 142.701108 276.48 
L 143.196564 276.48 
L 143.196564 276.48 
L 143.69202 276.48 
L 143.69202 276.48 
L 144.187476 276.48 
L 144.187476 276.48 
L 144.682932 276.48 
L 144.682932 276.48 
L 145.178388 276.48 
L 145.178388 276.48 
L 145.673844 276.48 
L 145.673844 276.48 
L 146.1693 276.48 
L 146.1693 276.48 
L 147.160211 276.48 
L 147.160211 276.48 
L 147.655667 276.48 
L 147.655667 276.48 
L 148.151123 276.48 
L 148.151123 276.48 
L 148.646579 276.48 
L 148.646579 276.48 
L 149.142035 276.48 
L 149.142035 276.48 
L 149.637491 276.48 
L 149.637491 276.48 
L 150.628403 276.48 
L 150.628403 276.48 
L 152.610227 276.48 
L 152.610227 276.48 
L 154.592051 276.48 
L 154.592051 276.48 
L 155.582963 276.48 
L 155.582963 276.48 
L 156.573875 276.48 
L 156.573875 276.48 
L 157.564787 276.48 
L 157.564787 276.48 
L 158.060243 276.48 
L 158.060243 276.48 
L 159.051155 276.48 
L 159.051155 276.48 
L 159.546611 276.48 
L 159.546611 276.48 
L 160.042067 276.48 
L 160.042067 276.48 
L 160.537523 276.48 
L 160.537523 276.48 
L 161.032979 276.48 
L 161.032979 276.48 
L 161.528435 276.48 
L 161.528435 276.48 
L 165.492083 276.48 
L 165.492083 276.48 
L 165.987538 276.48 
L 165.987538 276.48 
L 166.482994 276.48 
L 166.482994 276.48 
L 166.97845 276.48 
L 166.97845 276.48 
L 167.473906 276.48 
L 167.473906 276.48 
L 167.969362 276.48 
L 167.969362 276.48 
L 168.464818 276.48 
L 168.464818 276.48 
L 168.960274 276.48 
L 168.960274 276.48 
L 169.951186 276.48 
L 169.951186 276.48 
L 170.942098 276.48 
L 170.942098 276.48 
L 171.93301 276.48 
L 171.93301 276.48 
L 172.428466 276.48 
L 172.428466 276.48 
L 172.923922 276.48 
L 172.923922 276.48 
L 173.419378 276.48 
L 173.419378 276.48 
L 174.41029 276.48 
L 174.41029 276.48 
L 174.905746 276.48 
L 174.905746 276.48 
L 175.401202 276.48 
L 175.401202 276.48 
L 177.383026 276.48 
L 177.383026 276.48 
L 178.869394 276.48 
L 178.869394 276.48 
L 179.36485 276.48 
L 179.36485 276.48 
L 181.346674 276.48 
L 181.346674 276.48 
L 182.337586 276.48 
L 182.337586 276.48 
L 182.833042 276.48 
L 182.833042 276.48 
L 183.328498 276.48 
L 183.328498 276.48 
L 183.823954 276.48 
L 183.823954 276.48 
L 184.31941 276.48 
L 184.31941 276.48 
L 184.814866 276.48 
L 184.814866 276.48 
L 185.805777 276.48 
L 185.805777 276.48 
L 188.778513 276.48 
L 188.778513 276.48 
L 189.273969 276.48 
L 189.273969 276.48 
L 189.769425 276.48 
L 189.769425 276.48 
L 190.760337 276.48 
L 190.760337 276.48 
L 191.255793 276.48 
L 191.255793 276.48 
L 192.246705 276.48 
L 192.246705 276.48 
L 192.742161 276.48 
L 192.742161 276.48 
L 194.228529 276.48 
L 194.228529 276.48 
L 194.723985 276.48 
L 194.723985 276.48 
L 195.714897 276.48 
L 195.714897 276.48 
L 196.210353 276.48 
L 196.210353 276.48 
L 196.705809 276.48 
L 196.705809 276.48 
L 197.201265 276.48 
L 197.201265 276.48 
L 197.696721 276.48 
L 197.696721 276.48 
L 202.651281 276.48 
L 202.651281 276.48 
L 203.642193 276.48 
L 203.642193 276.48 
L 204.137649 276.48 
L 204.137649 276.48 
L 205.624016 276.48 
L 205.624016 276.48 
L 206.119472 276.48 
L 206.119472 276.48 
L 206.614928 276.48 
L 206.614928 276.48 
L 208.101296 276.48 
L 208.101296 276.48 
L 208.596752 276.48 
L 208.596752 276.48 
L 213.551312 276.48 
L 213.551312 276.48 
L 214.542224 276.48 
L 214.542224 276.48 
L 215.533136 276.48 
L 215.533136 276.48 
L 216.028592 276.48 
L 216.028592 276.48 
L 216.524048 276.48 
L 216.524048 276.48 
L 217.019504 276.48 
L 217.019504 276.48 
L 217.51496 276.48 
L 217.51496 276.48 
L 218.505872 276.48 
L 218.505872 276.48 
L 219.496784 276.48 
L 219.496784 276.48 
L 220.487696 276.48 
L 220.487696 276.48 
L 220.983152 276.48 
L 220.983152 276.48 
L 221.478608 276.48 
L 221.478608 276.48 
L 225.442255 276.48 
L 225.442255 276.48 
L 226.928623 276.48 
L 226.928623 276.48 
L 227.424079 276.48 
L 227.424079 276.48 
L 228.910447 276.48 
L 228.910447 276.48 
L 229.901359 276.48 
L 229.901359 276.48 
L 230.396815 276.48 
L 230.396815 276.48 
L 230.892271 276.48 
L 230.892271 276.48 
L 231.387727 276.48 
L 231.387727 276.48 
L 232.378639 276.48 
L 232.378639 276.48 
L 236.837743 276.48 
L 236.837743 276.48 
L 239.315023 276.48 
L 239.315023 276.48 
L 239.810479 276.48 
L 239.810479 276.48 
L 241.296847 276.48 
L 241.296847 276.48 
L 242.287759 276.48 
L 242.287759 276.48 
L 242.783215 276.48 
L 242.783215 276.48 
L 243.27867 276.48 
L 243.27867 276.48 
L 243.774126 276.48 
L 243.774126 276.48 
L 244.269582 276.48 
L 244.269582 276.48 
L 244.765038 276.48 
L 244.765038 276.48 
L 248.728686 276.48 
L 248.728686 276.48 
L 249.719598 276.48 
L 249.719598 276.48 
L 250.215054 276.48 
L 250.215054 276.48 
L 250.71051 276.48 
L 250.71051 276.48 
L 251.205966 276.48 
L 251.205966 276.48 
L 251.701422 276.48 
L 251.701422 276.48 
L 252.196878 276.48 
L 252.196878 276.48 
L 252.692334 276.48 
L 252.692334 276.48 
L 253.18779 276.48 
L 253.18779 276.48 
L 254.178702 276.48 
L 254.178702 276.48 
L 260.61963 276.48 
L 260.61963 276.48 
L 262.601453 276.48 
L 262.601453 276.48 
L 263.592365 276.48 
L 263.592365 276.48 
L 264.087821 276.48 
L 264.087821 276.48 
L 265.574189 276.48 
L 265.574189 276.48 
L 266.069645 276.48 
L 266.069645 276.48 
L 266.565101 276.48 
L 266.565101 276.48 
L 268.051469 276.48 
L 268.051469 276.48 
L 269.537837 276.48 
L 269.537837 276.48 
L 273.006029 276.48 
L 273.006029 276.48 
L 273.501485 276.48 
L 273.501485 276.48 
L 273.996941 276.48 
L 273.996941 276.48 
L 274.492397 276.48 
L 274.492397 276.48 
L 274.987853 276.48 
L 274.987853 276.48 
L 276.474221 276.48 
L 276.474221 276.48 
L 277.960589 276.48 
L 277.960589 276.48 
L 279.446957 276.48 
L 279.446957 276.48 
L 287.374252 276.48 
L 287.374252 276.48 
L 289.356076 276.48 
L 289.356076 276.48 
L 289.851532 276.48 
L 289.851532 276.48 
L 298.76974 276.48 
L 298.76974 276.48 
L 299.265196 276.48 
L 299.265196 276.48 
L 299.760652 276.48 
L 299.760652 276.48 
L 300.751564 276.48 
L 300.751564 276.48 
L 301.247019 276.48 
L 301.247019 276.48 
L 301.742475 276.48 
L 301.742475 276.48 
L 302.733387 276.48 
L 302.733387 276.48 
L 307.192491 276.48 
L 307.192491 276.48 
L 308.183403 276.48 
L 308.183403 276.48 
L 309.669771 276.48 
L 309.669771 276.48 
L 310.660683 276.48 
L 310.660683 276.48 
L 312.642507 276.48 
L 312.642507 276.48 
L 315.615243 276.48 
L 315.615243 276.48 
L 322.05617 276.48 
L 322.05617 276.48 
L 322.551626 276.48 
L 322.551626 276.48 
L 324.037994 276.48 
L 324.037994 276.48 
L 325.028906 276.48 
L 325.028906 276.48 
L 325.524362 276.48 
L 325.524362 276.48 
L 326.515274 276.48 
L 326.515274 276.48 
L 330.974378 276.48 
L 330.974378 276.48 
L 332.460746 276.48 
L 332.460746 276.48 
L 333.451658 276.48 
L 333.451658 276.48 
L 333.947114 276.48 
L 333.947114 276.48 
L 334.44257 276.48 
L 334.44257 276.48 
L 336.424394 276.48 
L 336.424394 276.48 
L 337.910762 276.48 
L 337.910762 276.48 
L 338.406218 276.48 
L 338.406218 276.48 
L 338.901674 276.48 
L 338.901674 276.48 
L 339.39713 276.48 
L 339.39713 276.48 
L 344.351689 276.48 
L 344.351689 276.48 
L 345.342601 276.48 
L 345.342601 276.48 
L 347.819881 276.48 
L 347.819881 276.48 
L 350.297161 276.48 
L 350.297161 276.48 
L 350.792617 276.48 
L 350.792617 276.48 
L 351.288073 276.48 
L 351.288073 276.48 
L 352.278985 276.48 
L 352.278985 276.48 
L 354.756265 276.48 
L 354.756265 276.48 
L 355.747177 276.48 
L 355.747177 276.48 
L 357.729001 276.48 
L 357.729001 276.48 
L 361.692648 276.48 
L 361.692648 276.48 
L 363.674472 276.48 
L 363.674472 276.48 
L 366.591386 276.48 
L 366.591386 276.48 
L 366.794499 276.48 
L 366.794499 276.48 
L 366.971757 276.48 
L 366.971757 276.48 
L 367.323197 276.48 
L 367.323197 276.48 
L 367.54607 276.48 
L 367.54607 276.48 
L 367.779973 276.48 
L 367.779973 276.48 
L 367.955143 276.48 
L 367.955143 276.48 
L 368.316419 276.48 
L 368.316419 276.48 
L 368.513374 276.48 
L 368.513374 276.48 
L 368.778507 276.48 
L 368.778507 276.48 
L 368.973319 276.48 
L 368.973319 276.48 
L 369.283468 276.48 
L 369.283468 276.48 
L 369.478503 276.48 
L 369.478503 276.48 
L 369.741126 276.48 
L 369.741126 276.48 
L 369.924931 276.48 
L 369.924931 276.48 
L 370.35521 276.48 
L 370.35521 276.48 
L 370.634523 276.48 
L 370.634523 276.48 
L 370.95624 276.48 
L 370.95624 276.48 
L 370.980723 276.48 
L 370.980723 276.48 
L 370.995146 276.48 
L 370.995146 276.48 
L 371.239797 276.48 
L 371.239797 276.48 
L 371.426757 276.48 
L 371.426757 276.48 
L 371.755275 276.48 
L 371.755275 276.48 
L 371.967652 276.48 
L 371.967652 276.48 
L 372.325151 276.48 
L 372.325151 276.48 
L 373.031681 276.48 
L 373.031681 276.48 
L 373.052134 276.48 
L 373.052134 276.48 
L 373.077407 276.48 
L 373.077407 276.48 
L 373.263071 276.48 
L 373.263071 276.48 
L 373.473168 276.48 
L 373.473168 276.48 
L 373.701343 276.48 
L 373.701343 276.48 
L 373.88937 276.48 
L 373.88937 276.48 
L 374.234475 276.48 
L 374.234475 276.48 
L 374.699552 276.48 
L 374.699552 276.48 
L 380.203449 276.48 
L 380.203449 276.48 
L 381.631303 276.48 
L 381.631303 276.48 
L 382.848193 276.48 
L 382.848193 276.48 
L 383.130571 276.48 
L 383.130571 276.48 
L 384.51573 276.48 
L 384.51573 276.48 
L 384.866958 276.48 
L 384.866958 276.48 
L 385.150745 276.48 
L 385.150745 276.48 
L 385.593745 276.48 
L 385.593745 276.48 
L 393.076072 276.48 
L 393.076072 276.48 
L 396.119316 276.48 
L 396.119316 276.48 
L 398.210115 276.48 
L 398.210115 276.48 
L 398.487273 276.48 
L 398.487273 276.48 
L 398.487273 200.083749 
L 398.487273 200.083749 
L 398.487273 200.083749 
L 398.210115 200.083749 
L 398.210115 200.083749 
L 396.119316 200.083749 
L 396.119316 200.083749 
L 393.076072 200.083749 
L 393.076072 200.083749 
L 385.593745 200.083749 
L 385.593745 200.083749 
L 385.150745 200.083749 
L 385.150745 200.083749 
L 384.866958 200.083749 
L 384.866958 200.083749 
L 384.51573 200.083749 
L 384.51573 200.083749 
L 383.130571 200.083749 
L 383.130571 200.083749 
L 382.848193 200.083749 
L 382.848193 200.083749 
L 381.631303 200.083749 
L 381.631303 200.083749 
L 380.203449 200.083749 
L 380.203449 200.083749 
L 374.699552 200.083749 
L 374.699552 200.083749 
L 374.234475 200.083749 
L 374.234475 200.083749 
L 373.88937 200.083749 
L 373.88937 200.083749 
L 373.701343 200.083749 
L 373.701343 200.083749 
L 373.473168 200.083749 
L 373.473168 200.083749 
L 373.263071 200.083749 
L 373.263071 200.083749 
L 373.077407 200.083749 
L 373.077407 200.083749 
L 373.052134 200.083749 
L 373.052134 200.083749 
L 373.031681 200.083749 
L 373.031681 200.083749 
L 372.325151 200.083749 
L 372.325151 200.083749 
L 371.967652 200.083749 
L 371.967652 200.083749 
L 371.755275 200.083749 
L 371.755275 200.083749 
L 371.426757 200.083749 
L 371.426757 200.083749 
L 371.239797 200.083749 
L 371.239797 200.083749 
L 370.995146 200.083749 
L 370.995146 200.083749 
L 370.980723 200.083749 
L 370.980723 200.083749 
L 370.95624 200.083749 
L 370.95624 200.083749 
L 370.634523 200.083749 
L 370.634523 200.083749 
L 370.35521 200.083749 
L 370.35521 200.083749 
L 369.924931 200.083749 
L 369.924931 200.083749 
L 369.741126 200.083749 
L 369.741126 200.083749 
L 369.478503 200.083749 
L 369.478503 200.083749 
L 369.283468 200.083749 
L 369.283468 200.083749 
L 368.973319 200.083749 
L 368.973319 200.083749 
L 368.778507 200.083749 
L 368.778507 200.083749 
L 368.513374 200.083749 
L 368.513374 200.083749 
L 368.316419 200.083749 
L 368.316419 200.083749 
L 367.955143 200.083749 
L 367.955143 200.083749 
L 367.779973 200.083749 
L 367.779973 200.083749 
L 367.54607 200.083749 
L 367.54607 200.083749 
L 367.323197 200.083749 
L 367.323197 200.083749 
L 366.971757 200.083749 
L 366.971757 200.083749 
L 366.794499 200.083749 
L 366.794499 200.083749 
L 366.591386 200.083749 
L 366.591386 202.023497 
L 363.674472 202.023497 
L 363.674472 202.023497 
L 361.692648 202.023497 
L 361.692648 202.023497 
L 357.729001 202.023497 
L 357.729001 202.023497 
L 355.747177 202.023497 
L 355.747177 202.023497 
L 354.756265 202.023497 
L 354.756265 202.023497 
L 352.278985 202.023497 
L 352.278985 202.023497 
L 351.288073 202.023497 
L 351.288073 202.023497 
L 350.792617 202.023497 
L 350.792617 202.023497 
L 350.297161 202.023497 
L 350.297161 202.023497 
L 347.819881 202.023497 
L 347.819881 202.023497 
L 345.342601 202.023497 
L 345.342601 202.023497 
L 344.351689 202.023497 
L 344.351689 202.023497 
L 339.39713 202.023497 
L 339.39713 202.023497 
L 338.901674 202.023497 
L 338.901674 202.023497 
L 338.406218 202.023497 
L 338.406218 202.023497 
L 337.910762 202.023497 
L 337.910762 202.023497 
L 336.424394 202.023497 
L 336.424394 202.023497 
L 334.44257 202.023497 
L 334.44257 202.023497 
L 333.947114 202.023497 
L 333.947114 202.023497 
L 333.451658 202.023497 
L 333.451658 202.023497 
L 332.460746 202.023497 
L 332.460746 202.023497 
L 330.974378 202.023497 
L 330.974378 202.023497 
L 326.515274 202.023497 
L 326.515274 202.023497 
L 325.524362 202.023497 
L 325.524362 202.023497 
L 325.028906 202.023497 
L 325.028906 202.023497 
L 324.037994 202.023497 
L 324.037994 202.023497 
L 322.551626 202.023497 
L 322.551626 202.023497 
L 322.05617 202.023497 
L 322.05617 202.023497 
L 315.615243 202.023497 
L 315.615243 202.023497 
L 312.642507 202.023497 
L 312.642507 202.023497 
L 310.660683 202.023497 
L 310.660683 202.023497 
L 309.669771 202.023497 
L 309.669771 202.023497 
L 308.183403 202.023497 
L 308.183403 202.023497 
L 307.192491 202.023497 
L 307.192491 202.023497 
L 302.733387 202.023497 
L 302.733387 202.023497 
L 301.742475 202.023497 
L 301.742475 202.023497 
L 301.247019 202.023497 
L 301.247019 202.023497 
L 300.751564 202.023497 
L 300.751564 202.023497 
L 299.760652 202.023497 
L 299.760652 202.023497 
L 299.265196 202.023497 
L 299.265196 202.023497 
L 298.76974 202.023497 
L 298.76974 202.023497 
L 289.851532 202.023497 
L 289.851532 202.023497 
L 289.356076 202.023497 
L 289.356076 202.023497 
L 287.374252 202.023497 
L 287.374252 202.023497 
L 279.446957 202.023497 
L 279.446957 202.023497 
L 277.960589 202.023497 
L 277.960589 202.023497 
L 276.474221 202.023497 
L 276.474221 202.023497 
L 274.987853 202.023497 
L 274.987853 202.023497 
L 274.492397 202.023497 
L 274.492397 202.023497 
L 273.996941 202.023497 
L 273.996941 202.023497 
L 273.501485 202.023497 
L 273.501485 202.023497 
L 273.006029 202.023497 
L 273.006029 202.023497 
L 269.537837 202.023497 
L 269.537837 202.023497 
L 268.051469 202.023497 
L 268.051469 202.023497 
L 266.565101 202.023497 
L 266.565101 202.023497 
L 266.069645 202.023497 
L 266.069645 202.023497 
L 265.574189 202.023497 
L 265.574189 202.023497 
L 264.087821 202.023497 
L 264.087821 202.023497 
L 263.592365 202.023497 
L 263.592365 202.023497 
L 262.601453 202.023497 
L 262.601453 202.023497 
L 260.61963 202.023497 
L 260.61963 202.023497 
L 254.178702 202.023497 
L 254.178702 202.023497 
L 253.18779 202.023497 
L 253.18779 202.023497 
L 252.692334 202.023497 
L 252.692334 202.023497 
L 252.196878 202.023497 
L 252.196878 202.023497 
L 251.701422 202.023497 
L 251.701422 202.023497 
L 251.205966 202.023497 
L 251.205966 202.023497 
L 250.71051 202.023497 
L 250.71051 202.023497 
L 250.215054 202.023497 
L 250.215054 202.023497 
L 249.719598 202.023497 
L 249.719598 202.023497 
L 248.728686 202.023497 
L 248.728686 202.023497 
L 244.765038 202.023497 
L 244.765038 202.023497 
L 244.269582 202.023497 
L 244.269582 202.023497 
L 243.774126 202.023497 
L 243.774126 202.023497 
L 243.27867 202.023497 
L 243.27867 202.023497 
L 242.783215 202.023497 
L 242.783215 202.023497 
L 242.287759 202.023497 
L 242.287759 202.023497 
L 241.296847 202.023497 
L 241.296847 202.023497 
L 239.810479 202.023497 
L 239.810479 202.023497 
L 239.315023 202.023497 
L 239.315023 202.023497 
L 236.837743 202.023497 
L 236.837743 202.023497 
L 232.378639 202.023497 
L 232.378639 202.023497 
L 231.387727 202.023497 
L 231.387727 202.023497 
L 230.892271 202.023497 
L 230.892271 202.023497 
L 230.396815 202.023497 
L 230.396815 202.023497 
L 229.901359 202.023497 
L 229.901359 202.023497 
L 228.910447 202.023497 
L 228.910447 202.023497 
L 227.424079 202.023497 
L 227.424079 202.023497 
L 226.928623 202.023497 
L 226.928623 202.023497 
L 225.442255 202.023497 
L 225.442255 202.023497 
L 221.478608 202.023497 
L 221.478608 202.023497 
L 220.983152 202.023497 
L 220.983152 202.023497 
L 220.487696 202.023497 
L 220.487696 202.023497 
L 219.496784 202.023497 
L 219.496784 202.023497 
L 218.505872 202.023497 
L 218.505872 202.023497 
L 217.51496 202.023497 
L 217.51496 202.023497 
L 217.019504 202.023497 
L 217.019504 202.023497 
L 216.524048 202.023497 
L 216.524048 202.023497 
L 216.028592 202.023497 
L 216.028592 202.023497 
L 215.533136 202.023497 
L 215.533136 202.023497 
L 214.542224 202.023497 
L 214.542224 202.023497 
L 213.551312 202.023497 
L 213.551312 202.023497 
L 208.596752 202.023497 
L 208.596752 202.023497 
L 208.101296 202.023497 
L 208.101296 202.023497 
L 206.614928 202.023497 
L 206.614928 202.172709 
L 206.119472 202.172709 
L 206.119472 202.471131 
L 205.624016 202.471131 
L 205.624016 202.620343 
L 204.137649 202.620343 
L 204.137649 203.067977 
L 203.642193 203.067977 
L 203.642193 203.217189 
L 202.651281 203.217189 
L 202.651281 203.3664 
L 197.696721 203.3664 
L 197.696721 203.664823 
L 197.201265 203.664823 
L 197.201265 203.664823 
L 196.705809 203.664823 
L 196.705809 203.963246 
L 196.210353 203.963246 
L 196.210353 204.41088 
L 195.714897 204.41088 
L 195.714897 204.41088 
L 194.723985 204.41088 
L 194.723985 204.709303 
L 194.228529 204.709303 
L 194.228529 204.858514 
L 192.742161 204.858514 
L 192.742161 205.156937 
L 192.246705 205.156937 
L 192.246705 206.649051 
L 191.255793 206.649051 
L 191.255793 206.947474 
L 190.760337 206.947474 
L 190.760337 207.096686 
L 189.769425 207.096686 
L 189.769425 207.693531 
L 189.273969 207.693531 
L 189.273969 207.693531 
L 188.778513 207.693531 
L 188.778513 207.842743 
L 185.805777 207.842743 
L 185.805777 208.141166 
L 184.814866 208.141166 
L 184.814866 208.5888 
L 184.31941 208.5888 
L 184.31941 208.887223 
L 183.823954 208.887223 
L 183.823954 209.782491 
L 183.328498 209.782491 
L 183.328498 210.230126 
L 182.833042 210.230126 
L 182.833042 211.125394 
L 182.337586 211.125394 
L 182.337586 211.573029 
L 181.346674 211.573029 
L 181.346674 211.72224 
L 179.36485 211.72224 
L 179.36485 211.871451 
L 178.869394 211.871451 
L 178.869394 212.169874 
L 177.383026 212.169874 
L 177.383026 212.169874 
L 175.401202 212.169874 
L 175.401202 212.468297 
L 174.905746 212.468297 
L 174.905746 212.617509 
L 174.41029 212.617509 
L 174.41029 212.76672 
L 173.419378 212.76672 
L 173.419378 213.214354 
L 172.923922 213.214354 
L 172.923922 213.214354 
L 172.428466 213.214354 
L 172.428466 213.512777 
L 171.93301 213.512777 
L 171.93301 214.258834 
L 170.942098 214.258834 
L 170.942098 214.557257 
L 169.951186 214.557257 
L 169.951186 214.557257 
L 168.960274 214.557257 
L 168.960274 214.706469 
L 168.464818 214.706469 
L 168.464818 214.85568 
L 167.969362 214.85568 
L 167.969362 215.154103 
L 167.473906 215.154103 
L 167.473906 215.303314 
L 166.97845 215.303314 
L 166.97845 215.452526 
L 166.482994 215.452526 
L 166.482994 215.750949 
L 165.987538 215.750949 
L 165.987538 215.750949 
L 165.492083 215.750949 
L 165.492083 215.90016 
L 161.528435 215.90016 
L 161.528435 215.90016 
L 161.032979 215.90016 
L 161.032979 216.198583 
L 160.537523 216.198583 
L 160.537523 216.347794 
L 160.042067 216.347794 
L 160.042067 216.497006 
L 159.546611 216.497006 
L 159.546611 216.646217 
L 159.051155 216.646217 
L 159.051155 216.94464 
L 158.060243 216.94464 
L 158.060243 216.94464 
L 157.564787 216.94464 
L 157.564787 217.243063 
L 156.573875 217.243063 
L 156.573875 217.541486 
L 155.582963 217.541486 
L 155.582963 217.98912 
L 154.592051 217.98912 
L 154.592051 218.287543 
L 152.610227 218.287543 
L 152.610227 218.287543 
L 150.628403 218.287543 
L 150.628403 218.436754 
L 149.637491 218.436754 
L 149.637491 218.735177 
L 149.142035 218.735177 
L 149.142035 218.884389 
L 148.646579 218.884389 
L 148.646579 219.182811 
L 148.151123 219.182811 
L 148.151123 219.481234 
L 147.655667 219.481234 
L 147.655667 219.779657 
L 147.160211 219.779657 
L 147.160211 219.928869 
L 146.1693 219.928869 
L 146.1693 220.227291 
L 145.673844 220.227291 
L 145.673844 220.525714 
L 145.178388 220.525714 
L 145.178388 220.973349 
L 144.682932 220.973349 
L 144.682932 221.271771 
L 144.187476 221.271771 
L 144.187476 221.570194 
L 143.69202 221.570194 
L 143.69202 221.719406 
L 143.196564 221.719406 
L 143.196564 222.316251 
L 142.701108 222.316251 
L 142.701108 222.465463 
L 142.205652 222.465463 
L 142.205652 222.763886 
L 138.242004 222.763886 
L 138.242004 223.509943 
L 137.746548 223.509943 
L 137.746548 223.659154 
L 135.764724 223.659154 
L 135.764724 224.256 
L 134.278356 224.256 
L 134.278356 224.554423 
L 133.7829 224.554423 
L 133.7829 225.002057 
L 132.791988 225.002057 
L 132.791988 225.151269 
L 132.296532 225.151269 
L 132.296532 225.30048 
L 131.30562 225.30048 
L 131.30562 225.449691 
L 122.882869 225.449691 
L 122.882869 225.598903 
L 120.901045 225.598903 
L 120.901045 225.748114 
L 120.405589 225.748114 
L 120.405589 226.046537 
L 119.910133 226.046537 
L 119.910133 226.195749 
L 119.414677 226.195749 
L 119.414677 226.34496 
L 118.423765 226.34496 
L 118.423765 226.643383 
L 113.964661 226.643383 
L 113.964661 227.240229 
L 113.469205 227.240229 
L 113.469205 227.38944 
L 112.973749 227.38944 
L 112.973749 227.538651 
L 112.478293 227.538651 
L 112.478293 227.687863 
L 111.982837 227.687863 
L 111.982837 227.837074 
L 111.487381 227.837074 
L 111.487381 227.837074 
L 110.991925 227.837074 
L 110.991925 228.135497 
L 110.496469 228.135497 
L 110.496469 228.43392 
L 110.001013 228.43392 
L 110.001013 228.732343 
L 109.505557 228.732343 
L 109.505557 229.179977 
L 109.010101 229.179977 
L 109.010101 229.627611 
L 108.514645 229.627611 
L 108.514645 229.926034 
L 107.523734 229.926034 
L 107.523734 230.224457 
L 107.028278 230.224457 
L 107.028278 230.373669 
L 106.532822 230.373669 
L 106.532822 230.52288 
L 105.046454 230.52288 
L 105.046454 230.672091 
L 102.073718 230.672091 
L 102.073718 231.119726 
L 101.578262 231.119726 
L 101.578262 231.268937 
L 101.082806 231.268937 
L 101.082806 231.418149 
L 100.58735 231.418149 
L 100.58735 231.716571 
L 100.091894 231.716571 
L 100.091894 232.014994 
L 99.596438 232.014994 
L 99.596438 232.61184 
L 99.100982 232.61184 
L 99.100982 232.910263 
L 98.605526 232.910263 
L 98.605526 233.65632 
L 98.11007 233.65632 
L 98.11007 234.103954 
L 97.614614 234.103954 
L 97.614614 234.850011 
L 97.119158 234.850011 
L 97.119158 234.999223 
L 96.623702 234.999223 
L 96.623702 235.297646 
L 96.128246 235.297646 
L 96.128246 236.043703 
L 95.63279 236.043703 
L 95.63279 236.342126 
L 95.137334 236.342126 
L 95.137334 236.640549 
L 94.641878 236.640549 
L 94.641878 236.78976 
L 94.146422 236.78976 
L 94.146422 237.088183 
L 93.650966 237.088183 
L 93.650966 237.237394 
L 90.182774 237.237394 
L 90.182774 237.386606 
L 89.687318 237.386606 
L 89.687318 237.685029 
L 89.191862 237.685029 
L 89.191862 238.281874 
L 88.200951 238.281874 
L 88.200951 238.87872 
L 87.210039 238.87872 
L 87.210039 239.326354 
L 86.714583 239.326354 
L 86.714583 239.773989 
L 86.219127 239.773989 
L 86.219127 239.773989 
L 85.723671 239.773989 
L 85.723671 240.370834 
L 85.228215 240.370834 
L 85.228215 241.713737 
L 84.732759 241.713737 
L 84.732759 242.310583 
L 84.237303 242.310583 
L 84.237303 243.205851 
L 83.741847 243.205851 
L 83.741847 244.250331 
L 83.246391 244.250331 
L 83.246391 244.548754 
L 82.750935 244.548754 
L 82.750935 245.1456 
L 81.760023 245.1456 
L 81.760023 245.444023 
L 81.264567 245.444023 
L 81.264567 245.593234 
L 80.769111 245.593234 
L 80.769111 245.742446 
L 80.273655 245.742446 
L 80.273655 245.742446 
L 79.778199 245.742446 
L 79.778199 246.040869 
L 79.282743 246.040869 
L 79.282743 246.19008 
L 78.787287 246.19008 
L 78.787287 246.339291 
L 78.291831 246.339291 
L 78.291831 247.532983 
L 77.796375 247.532983 
L 77.796375 249.025097 
L 77.300919 249.025097 
L 77.300919 252.009326 
L 76.805463 252.009326 
L 76.805463 254.396709 
L 76.310007 254.396709 
L 76.310007 257.380937 
L 75.814551 257.380937 
L 75.814551 261.708069 
L 75.319095 261.708069 
L 75.319095 269.019429 
L 74.823639 269.019429 
L 74.823639 273.794194 
L 74.328183 273.794194 
L 74.328183 275.584731 
L 73.832727 275.584731 
L 73.832727 276.48 
L 73.832727 276.48 
z
" clip-path="url(#p561ff772c9)" style="fill: #fa448c; fill-opacity: 0.8"/>
   </g>
   <g id="PolyCollection_2">
    <path d="M 73.832727 276.48 
L 73.832727 276.48 
L 73.832727 276.48 
L 73.832727 275.584731 
L 74.328183 275.584731 
L 74.328183 273.794194 
L 74.823639 273.794194 
L 74.823639 269.019429 
L 75.319095 269.019429 
L 75.319095 261.708069 
L 75.814551 261.708069 
L 75.814551 257.380937 
L 76.310007 257.380937 
L 76.310007 254.396709 
L 76.805463 254.396709 
L 76.805463 252.009326 
L 77.300919 252.009326 
L 77.300919 249.025097 
L 77.796375 249.025097 
L 77.796375 247.532983 
L 78.291831 247.532983 
L 78.291831 246.339291 
L 78.787287 246.339291 
L 78.787287 246.19008 
L 79.282743 246.19008 
L 79.282743 246.040869 
L 79.778199 246.040869 
L 79.778199 245.742446 
L 80.273655 245.742446 
L 80.273655 245.742446 
L 80.769111 245.742446 
L 80.769111 245.593234 
L 81.264567 245.593234 
L 81.264567 245.444023 
L 81.760023 245.444023 
L 81.760023 245.1456 
L 82.750935 245.1456 
L 82.750935 244.548754 
L 83.246391 244.548754 
L 83.246391 244.250331 
L 83.741847 244.250331 
L 83.741847 243.205851 
L 84.237303 243.205851 
L 84.237303 242.310583 
L 84.732759 242.310583 
L 84.732759 241.713737 
L 85.228215 241.713737 
L 85.228215 240.370834 
L 85.723671 240.370834 
L 85.723671 239.773989 
L 86.219127 239.773989 
L 86.219127 239.773989 
L 86.714583 239.773989 
L 86.714583 239.326354 
L 87.210039 239.326354 
L 87.210039 238.87872 
L 88.200951 238.87872 
L 88.200951 238.281874 
L 89.191862 238.281874 
L 89.191862 237.685029 
L 89.687318 237.685029 
L 89.687318 237.386606 
L 90.182774 237.386606 
L 90.182774 237.237394 
L 93.650966 237.237394 
L 93.650966 237.088183 
L 94.146422 237.088183 
L 94.146422 236.78976 
L 94.641878 236.78976 
L 94.641878 236.640549 
L 95.137334 236.640549 
L 95.137334 236.342126 
L 95.63279 236.342126 
L 95.63279 236.043703 
L 96.128246 236.043703 
L 96.128246 235.297646 
L 96.623702 235.297646 
L 96.623702 234.999223 
L 97.119158 234.999223 
L 97.119158 234.850011 
L 97.614614 234.850011 
L 97.614614 234.103954 
L 98.11007 234.103954 
L 98.11007 233.65632 
L 98.605526 233.65632 
L 98.605526 232.910263 
L 99.100982 232.910263 
L 99.100982 232.61184 
L 99.596438 232.61184 
L 99.596438 232.014994 
L 100.091894 232.014994 
L 100.091894 231.716571 
L 100.58735 231.716571 
L 100.58735 231.418149 
L 101.082806 231.418149 
L 101.082806 231.268937 
L 101.578262 231.268937 
L 101.578262 231.119726 
L 102.073718 231.119726 
L 102.073718 230.672091 
L 105.046454 230.672091 
L 105.046454 230.52288 
L 106.532822 230.52288 
L 106.532822 230.373669 
L 107.028278 230.373669 
L 107.028278 230.224457 
L 107.523734 230.224457 
L 107.523734 229.926034 
L 108.514645 229.926034 
L 108.514645 229.627611 
L 109.010101 229.627611 
L 109.010101 229.179977 
L 109.505557 229.179977 
L 109.505557 228.732343 
L 110.001013 228.732343 
L 110.001013 228.43392 
L 110.496469 228.43392 
L 110.496469 228.135497 
L 110.991925 228.135497 
L 110.991925 227.837074 
L 111.487381 227.837074 
L 111.487381 227.837074 
L 111.982837 227.837074 
L 111.982837 227.687863 
L 112.478293 227.687863 
L 112.478293 227.538651 
L 112.973749 227.538651 
L 112.973749 227.38944 
L 113.469205 227.38944 
L 113.469205 227.240229 
L 113.964661 227.240229 
L 113.964661 226.643383 
L 118.423765 226.643383 
L 118.423765 226.34496 
L 119.414677 226.34496 
L 119.414677 226.195749 
L 119.910133 226.195749 
L 119.910133 226.046537 
L 120.405589 226.046537 
L 120.405589 225.748114 
L 120.901045 225.748114 
L 120.901045 225.598903 
L 122.882869 225.598903 
L 122.882869 225.449691 
L 131.30562 225.449691 
L 131.30562 225.30048 
L 132.296532 225.30048 
L 132.296532 225.151269 
L 132.791988 225.151269 
L 132.791988 225.002057 
L 133.7829 225.002057 
L 133.7829 224.554423 
L 134.278356 224.554423 
L 134.278356 224.256 
L 135.764724 224.256 
L 135.764724 223.659154 
L 137.746548 223.659154 
L 137.746548 223.509943 
L 138.242004 223.509943 
L 138.242004 222.763886 
L 142.205652 222.763886 
L 142.205652 222.465463 
L 142.701108 222.465463 
L 142.701108 222.316251 
L 143.196564 222.316251 
L 143.196564 221.719406 
L 143.69202 221.719406 
L 143.69202 221.570194 
L 144.187476 221.570194 
L 144.187476 221.271771 
L 144.682932 221.271771 
L 144.682932 220.973349 
L 145.178388 220.973349 
L 145.178388 220.525714 
L 145.673844 220.525714 
L 145.673844 220.227291 
L 146.1693 220.227291 
L 146.1693 219.928869 
L 147.160211 219.928869 
L 147.160211 219.779657 
L 147.655667 219.779657 
L 147.655667 219.481234 
L 148.151123 219.481234 
L 148.151123 219.182811 
L 148.646579 219.182811 
L 148.646579 218.884389 
L 149.142035 218.884389 
L 149.142035 218.735177 
L 149.637491 218.735177 
L 149.637491 218.436754 
L 150.628403 218.436754 
L 150.628403 218.287543 
L 152.610227 218.287543 
L 152.610227 218.287543 
L 154.592051 218.287543 
L 154.592051 217.98912 
L 155.582963 217.98912 
L 155.582963 217.541486 
L 156.573875 217.541486 
L 156.573875 217.243063 
L 157.564787 217.243063 
L 157.564787 216.94464 
L 158.060243 216.94464 
L 158.060243 216.94464 
L 159.051155 216.94464 
L 159.051155 216.646217 
L 159.546611 216.646217 
L 159.546611 216.497006 
L 160.042067 216.497006 
L 160.042067 216.347794 
L 160.537523 216.347794 
L 160.537523 216.198583 
L 161.032979 216.198583 
L 161.032979 215.90016 
L 161.528435 215.90016 
L 161.528435 215.90016 
L 165.492083 215.90016 
L 165.492083 215.750949 
L 165.987538 215.750949 
L 165.987538 215.750949 
L 166.482994 215.750949 
L 166.482994 215.452526 
L 166.97845 215.452526 
L 166.97845 215.303314 
L 167.473906 215.303314 
L 167.473906 215.154103 
L 167.969362 215.154103 
L 167.969362 214.85568 
L 168.464818 214.85568 
L 168.464818 214.706469 
L 168.960274 214.706469 
L 168.960274 214.557257 
L 169.951186 214.557257 
L 169.951186 214.557257 
L 170.942098 214.557257 
L 170.942098 214.258834 
L 171.93301 214.258834 
L 171.93301 213.512777 
L 172.428466 213.512777 
L 172.428466 213.214354 
L 172.923922 213.214354 
L 172.923922 213.214354 
L 173.419378 213.214354 
L 173.419378 212.76672 
L 174.41029 212.76672 
L 174.41029 212.617509 
L 174.905746 212.617509 
L 174.905746 212.468297 
L 175.401202 212.468297 
L 175.401202 212.169874 
L 177.383026 212.169874 
L 177.383026 212.169874 
L 178.869394 212.169874 
L 178.869394 211.871451 
L 179.36485 211.871451 
L 179.36485 211.72224 
L 181.346674 211.72224 
L 181.346674 211.573029 
L 182.337586 211.573029 
L 182.337586 211.125394 
L 182.833042 211.125394 
L 182.833042 210.230126 
L 183.328498 210.230126 
L 183.328498 209.782491 
L 183.823954 209.782491 
L 183.823954 208.887223 
L 184.31941 208.887223 
L 184.31941 208.5888 
L 184.814866 208.5888 
L 184.814866 208.141166 
L 185.805777 208.141166 
L 185.805777 207.842743 
L 188.778513 207.842743 
L 188.778513 207.693531 
L 189.273969 207.693531 
L 189.273969 207.693531 
L 189.769425 207.693531 
L 189.769425 207.096686 
L 190.760337 207.096686 
L 190.760337 206.947474 
L 191.255793 206.947474 
L 191.255793 206.649051 
L 192.246705 206.649051 
L 192.246705 205.156937 
L 192.742161 205.156937 
L 192.742161 204.858514 
L 194.228529 204.858514 
L 194.228529 204.709303 
L 194.723985 204.709303 
L 194.723985 204.41088 
L 195.714897 204.41088 
L 195.714897 204.41088 
L 196.210353 204.41088 
L 196.210353 203.963246 
L 196.705809 203.963246 
L 196.705809 203.664823 
L 197.201265 203.664823 
L 197.201265 203.664823 
L 197.696721 203.664823 
L 197.696721 203.3664 
L 202.651281 203.3664 
L 202.651281 203.217189 
L 203.642193 203.217189 
L 203.642193 203.067977 
L 204.137649 203.067977 
L 204.137649 202.620343 
L 205.624016 202.620343 
L 205.624016 202.471131 
L 206.119472 202.471131 
L 206.119472 202.172709 
L 206.614928 202.172709 
L 206.614928 202.023497 
L 208.101296 202.023497 
L 208.101296 202.023497 
L 208.596752 202.023497 
L 208.596752 202.023497 
L 213.551312 202.023497 
L 213.551312 202.023497 
L 214.542224 202.023497 
L 214.542224 202.023497 
L 215.533136 202.023497 
L 215.533136 202.023497 
L 216.028592 202.023497 
L 216.028592 202.023497 
L 216.524048 202.023497 
L 216.524048 202.023497 
L 217.019504 202.023497 
L 217.019504 202.023497 
L 217.51496 202.023497 
L 217.51496 202.023497 
L 218.505872 202.023497 
L 218.505872 202.023497 
L 219.496784 202.023497 
L 219.496784 202.023497 
L 220.487696 202.023497 
L 220.487696 202.023497 
L 220.983152 202.023497 
L 220.983152 202.023497 
L 221.478608 202.023497 
L 221.478608 202.023497 
L 225.442255 202.023497 
L 225.442255 202.023497 
L 226.928623 202.023497 
L 226.928623 202.023497 
L 227.424079 202.023497 
L 227.424079 202.023497 
L 228.910447 202.023497 
L 228.910447 202.023497 
L 229.901359 202.023497 
L 229.901359 202.023497 
L 230.396815 202.023497 
L 230.396815 202.023497 
L 230.892271 202.023497 
L 230.892271 202.023497 
L 231.387727 202.023497 
L 231.387727 202.023497 
L 232.378639 202.023497 
L 232.378639 202.023497 
L 236.837743 202.023497 
L 236.837743 202.023497 
L 239.315023 202.023497 
L 239.315023 202.023497 
L 239.810479 202.023497 
L 239.810479 202.023497 
L 241.296847 202.023497 
L 241.296847 202.023497 
L 242.287759 202.023497 
L 242.287759 202.023497 
L 242.783215 202.023497 
L 242.783215 202.023497 
L 243.27867 202.023497 
L 243.27867 202.023497 
L 243.774126 202.023497 
L 243.774126 202.023497 
L 244.269582 202.023497 
L 244.269582 202.023497 
L 244.765038 202.023497 
L 244.765038 202.023497 
L 248.728686 202.023497 
L 248.728686 202.023497 
L 249.719598 202.023497 
L 249.719598 202.023497 
L 250.215054 202.023497 
L 250.215054 202.023497 
L 250.71051 202.023497 
L 250.71051 202.023497 
L 251.205966 202.023497 
L 251.205966 202.023497 
L 251.701422 202.023497 
L 251.701422 202.023497 
L 252.196878 202.023497 
L 252.196878 202.023497 
L 252.692334 202.023497 
L 252.692334 202.023497 
L 253.18779 202.023497 
L 253.18779 202.023497 
L 254.178702 202.023497 
L 254.178702 202.023497 
L 260.61963 202.023497 
L 260.61963 202.023497 
L 262.601453 202.023497 
L 262.601453 202.023497 
L 263.592365 202.023497 
L 263.592365 202.023497 
L 264.087821 202.023497 
L 264.087821 202.023497 
L 265.574189 202.023497 
L 265.574189 202.023497 
L 266.069645 202.023497 
L 266.069645 202.023497 
L 266.565101 202.023497 
L 266.565101 202.023497 
L 268.051469 202.023497 
L 268.051469 202.023497 
L 269.537837 202.023497 
L 269.537837 202.023497 
L 273.006029 202.023497 
L 273.006029 202.023497 
L 273.501485 202.023497 
L 273.501485 202.023497 
L 273.996941 202.023497 
L 273.996941 202.023497 
L 274.492397 202.023497 
L 274.492397 202.023497 
L 274.987853 202.023497 
L 274.987853 202.023497 
L 276.474221 202.023497 
L 276.474221 202.023497 
L 277.960589 202.023497 
L 277.960589 202.023497 
L 279.446957 202.023497 
L 279.446957 202.023497 
L 287.374252 202.023497 
L 287.374252 202.023497 
L 289.356076 202.023497 
L 289.356076 202.023497 
L 289.851532 202.023497 
L 289.851532 202.023497 
L 298.76974 202.023497 
L 298.76974 202.023497 
L 299.265196 202.023497 
L 299.265196 202.023497 
L 299.760652 202.023497 
L 299.760652 202.023497 
L 300.751564 202.023497 
L 300.751564 202.023497 
L 301.247019 202.023497 
L 301.247019 202.023497 
L 301.742475 202.023497 
L 301.742475 202.023497 
L 302.733387 202.023497 
L 302.733387 202.023497 
L 307.192491 202.023497 
L 307.192491 202.023497 
L 308.183403 202.023497 
L 308.183403 202.023497 
L 309.669771 202.023497 
L 309.669771 202.023497 
L 310.660683 202.023497 
L 310.660683 202.023497 
L 312.642507 202.023497 
L 312.642507 202.023497 
L 315.615243 202.023497 
L 315.615243 202.023497 
L 322.05617 202.023497 
L 322.05617 202.023497 
L 322.551626 202.023497 
L 322.551626 202.023497 
L 324.037994 202.023497 
L 324.037994 202.023497 
L 325.028906 202.023497 
L 325.028906 202.023497 
L 325.524362 202.023497 
L 325.524362 202.023497 
L 326.515274 202.023497 
L 326.515274 202.023497 
L 330.974378 202.023497 
L 330.974378 202.023497 
L 332.460746 202.023497 
L 332.460746 202.023497 
L 333.451658 202.023497 
L 333.451658 202.023497 
L 333.947114 202.023497 
L 333.947114 202.023497 
L 334.44257 202.023497 
L 334.44257 202.023497 
L 336.424394 202.023497 
L 336.424394 202.023497 
L 337.910762 202.023497 
L 337.910762 202.023497 
L 338.406218 202.023497 
L 338.406218 202.023497 
L 338.901674 202.023497 
L 338.901674 202.023497 
L 339.39713 202.023497 
L 339.39713 202.023497 
L 344.351689 202.023497 
L 344.351689 202.023497 
L 345.342601 202.023497 
L 345.342601 202.023497 
L 347.819881 202.023497 
L 347.819881 202.023497 
L 350.297161 202.023497 
L 350.297161 202.023497 
L 350.792617 202.023497 
L 350.792617 202.023497 
L 351.288073 202.023497 
L 351.288073 202.023497 
L 352.278985 202.023497 
L 352.278985 202.023497 
L 354.756265 202.023497 
L 354.756265 202.023497 
L 355.747177 202.023497 
L 355.747177 202.023497 
L 357.729001 202.023497 
L 357.729001 202.023497 
L 361.692648 202.023497 
L 361.692648 202.023497 
L 363.674472 202.023497 
L 363.674472 202.023497 
L 366.591386 202.023497 
L 366.591386 200.083749 
L 366.794499 200.083749 
L 366.794499 200.083749 
L 366.971757 200.083749 
L 366.971757 200.083749 
L 367.323197 200.083749 
L 367.323197 200.083749 
L 367.54607 200.083749 
L 367.54607 200.083749 
L 367.779973 200.083749 
L 367.779973 200.083749 
L 367.955143 200.083749 
L 367.955143 200.083749 
L 368.316419 200.083749 
L 368.316419 200.083749 
L 368.513374 200.083749 
L 368.513374 200.083749 
L 368.778507 200.083749 
L 368.778507 200.083749 
L 368.973319 200.083749 
L 368.973319 200.083749 
L 369.283468 200.083749 
L 369.283468 200.083749 
L 369.478503 200.083749 
L 369.478503 200.083749 
L 369.741126 200.083749 
L 369.741126 200.083749 
L 369.924931 200.083749 
L 369.924931 200.083749 
L 370.35521 200.083749 
L 370.35521 200.083749 
L 370.634523 200.083749 
L 370.634523 200.083749 
L 370.95624 200.083749 
L 370.95624 200.083749 
L 370.980723 200.083749 
L 370.980723 200.083749 
L 370.995146 200.083749 
L 370.995146 200.083749 
L 371.239797 200.083749 
L 371.239797 200.083749 
L 371.426757 200.083749 
L 371.426757 200.083749 
L 371.755275 200.083749 
L 371.755275 200.083749 
L 371.967652 200.083749 
L 371.967652 200.083749 
L 372.325151 200.083749 
L 372.325151 200.083749 
L 373.031681 200.083749 
L 373.031681 200.083749 
L 373.052134 200.083749 
L 373.052134 200.083749 
L 373.077407 200.083749 
L 373.077407 200.083749 
L 373.263071 200.083749 
L 373.263071 200.083749 
L 373.473168 200.083749 
L 373.473168 200.083749 
L 373.701343 200.083749 
L 373.701343 200.083749 
L 373.88937 200.083749 
L 373.88937 200.083749 
L 374.234475 200.083749 
L 374.234475 200.083749 
L 374.699552 200.083749 
L 374.699552 200.083749 
L 380.203449 200.083749 
L 380.203449 200.083749 
L 381.631303 200.083749 
L 381.631303 200.083749 
L 382.848193 200.083749 
L 382.848193 200.083749 
L 383.130571 200.083749 
L 383.130571 200.083749 
L 384.51573 200.083749 
L 384.51573 200.083749 
L 384.866958 200.083749 
L 384.866958 200.083749 
L 385.150745 200.083749 
L 385.150745 200.083749 
L 385.593745 200.083749 
L 385.593745 200.083749 
L 393.076072 200.083749 
L 393.076072 200.083749 
L 396.119316 200.083749 
L 396.119316 200.083749 
L 398.210115 200.083749 
L 398.210115 200.083749 
L 398.487273 200.083749 
L 398.487273 200.083749 
L 398.487273 146.367634 
L 398.487273 146.367634 
L 398.487273 146.815269 
L 398.210115 146.815269 
L 398.210115 146.96448 
L 396.119316 146.96448 
L 396.119316 147.113691 
L 393.076072 147.113691 
L 393.076072 147.262903 
L 385.593745 147.262903 
L 385.593745 147.561326 
L 385.150745 147.561326 
L 385.150745 147.710537 
L 384.866958 147.710537 
L 384.866958 148.00896 
L 384.51573 148.00896 
L 384.51573 148.158171 
L 383.130571 148.158171 
L 383.130571 148.307383 
L 382.848193 148.307383 
L 382.848193 148.456594 
L 381.631303 148.456594 
L 381.631303 148.605806 
L 380.203449 148.605806 
L 380.203449 148.755017 
L 374.699552 148.755017 
L 374.699552 149.05344 
L 374.234475 149.05344 
L 374.234475 149.202651 
L 373.88937 149.202651 
L 373.88937 149.202651 
L 373.701343 149.202651 
L 373.701343 149.202651 
L 373.473168 149.202651 
L 373.473168 149.202651 
L 373.263071 149.202651 
L 373.263071 149.202651 
L 373.077407 149.202651 
L 373.077407 149.202651 
L 373.052134 149.202651 
L 373.052134 149.202651 
L 373.031681 149.202651 
L 373.031681 149.202651 
L 372.325151 149.202651 
L 372.325151 149.202651 
L 371.967652 149.202651 
L 371.967652 149.202651 
L 371.755275 149.202651 
L 371.755275 149.202651 
L 371.426757 149.202651 
L 371.426757 149.202651 
L 371.239797 149.202651 
L 371.239797 149.202651 
L 370.995146 149.202651 
L 370.995146 149.202651 
L 370.980723 149.202651 
L 370.980723 149.202651 
L 370.95624 149.202651 
L 370.95624 149.202651 
L 370.634523 149.202651 
L 370.634523 149.501074 
L 370.35521 149.501074 
L 370.35521 149.650286 
L 369.924931 149.650286 
L 369.924931 149.650286 
L 369.741126 149.650286 
L 369.741126 150.247131 
L 369.478503 150.247131 
L 369.478503 150.396343 
L 369.283468 150.396343 
L 369.283468 150.396343 
L 368.973319 150.396343 
L 368.973319 150.396343 
L 368.778507 150.396343 
L 368.778507 150.396343 
L 368.513374 150.396343 
L 368.513374 150.396343 
L 368.316419 150.396343 
L 368.316419 150.396343 
L 367.955143 150.396343 
L 367.955143 150.396343 
L 367.779973 150.396343 
L 367.779973 150.396343 
L 367.54607 150.396343 
L 367.54607 150.396343 
L 367.323197 150.396343 
L 367.323197 150.396343 
L 366.971757 150.396343 
L 366.971757 150.396343 
L 366.794499 150.396343 
L 366.794499 150.396343 
L 366.591386 150.396343 
L 366.591386 153.828206 
L 363.674472 153.828206 
L 363.674472 153.977417 
L 361.692648 153.977417 
L 361.692648 153.977417 
L 357.729001 153.977417 
L 357.729001 154.126629 
L 355.747177 154.126629 
L 355.747177 154.27584 
L 354.756265 154.27584 
L 354.756265 154.425051 
L 352.278985 154.425051 
L 352.278985 154.872686 
L 351.288073 154.872686 
L 351.288073 154.872686 
L 350.792617 154.872686 
L 350.792617 155.171109 
L 350.297161 155.171109 
L 350.297161 156.514011 
L 347.819881 156.514011 
L 347.819881 156.961646 
L 345.342601 156.961646 
L 345.342601 157.110857 
L 344.351689 157.110857 
L 344.351689 157.260069 
L 339.39713 157.260069 
L 339.39713 157.707703 
L 338.901674 157.707703 
L 338.901674 158.155337 
L 338.406218 158.155337 
L 338.406218 158.45376 
L 337.910762 158.45376 
L 337.910762 158.602971 
L 336.424394 158.602971 
L 336.424394 158.752183 
L 334.44257 158.752183 
L 334.44257 158.752183 
L 333.947114 158.752183 
L 333.947114 158.901394 
L 333.451658 158.901394 
L 333.451658 159.050606 
L 332.460746 159.050606 
L 332.460746 159.199817 
L 330.974378 159.199817 
L 330.974378 159.349029 
L 326.515274 159.349029 
L 326.515274 159.49824 
L 325.524362 159.49824 
L 325.524362 159.796663 
L 325.028906 159.796663 
L 325.028906 160.095086 
L 324.037994 160.095086 
L 324.037994 160.54272 
L 322.551626 160.54272 
L 322.551626 160.691931 
L 322.05617 160.691931 
L 322.05617 160.691931 
L 315.615243 160.691931 
L 315.615243 160.841143 
L 312.642507 160.841143 
L 312.642507 160.990354 
L 310.660683 160.990354 
L 310.660683 161.288777 
L 309.669771 161.288777 
L 309.669771 161.288777 
L 308.183403 161.288777 
L 308.183403 161.5872 
L 307.192491 161.5872 
L 307.192491 161.5872 
L 302.733387 161.5872 
L 302.733387 161.885623 
L 301.742475 161.885623 
L 301.742475 162.034834 
L 301.247019 162.034834 
L 301.247019 162.333257 
L 300.751564 162.333257 
L 300.751564 162.333257 
L 299.760652 162.333257 
L 299.760652 162.333257 
L 299.265196 162.333257 
L 299.265196 162.780891 
L 298.76974 162.780891 
L 298.76974 162.780891 
L 289.851532 162.780891 
L 289.851532 162.930103 
L 289.356076 162.930103 
L 289.356076 163.079314 
L 287.374252 163.079314 
L 287.374252 163.228526 
L 279.446957 163.228526 
L 279.446957 163.377737 
L 277.960589 163.377737 
L 277.960589 163.526949 
L 276.474221 163.526949 
L 276.474221 163.974583 
L 274.987853 163.974583 
L 274.987853 164.72064 
L 274.492397 164.72064 
L 274.492397 165.019063 
L 273.996941 165.019063 
L 273.996941 165.168274 
L 273.501485 165.168274 
L 273.501485 165.168274 
L 273.006029 165.168274 
L 273.006029 165.317486 
L 269.537837 165.317486 
L 269.537837 165.317486 
L 268.051469 165.317486 
L 268.051469 165.914331 
L 266.565101 165.914331 
L 266.565101 166.063543 
L 266.069645 166.063543 
L 266.069645 166.511177 
L 265.574189 166.511177 
L 265.574189 166.660389 
L 264.087821 166.660389 
L 264.087821 166.8096 
L 263.592365 166.8096 
L 263.592365 167.108023 
L 262.601453 167.108023 
L 262.601453 167.108023 
L 260.61963 167.108023 
L 260.61963 167.406446 
L 254.178702 167.406446 
L 254.178702 167.406446 
L 253.18779 167.406446 
L 253.18779 167.555657 
L 252.692334 167.555657 
L 252.692334 167.704869 
L 252.196878 167.704869 
L 252.196878 167.85408 
L 251.701422 167.85408 
L 251.701422 168.003291 
L 251.205966 168.003291 
L 251.205966 168.152503 
L 250.71051 168.152503 
L 250.71051 168.450926 
L 250.215054 168.450926 
L 250.215054 169.495406 
L 249.719598 169.495406 
L 249.719598 170.092251 
L 248.728686 170.092251 
L 248.728686 170.539886 
L 244.765038 170.539886 
L 244.765038 170.689097 
L 244.269582 170.689097 
L 244.269582 170.838309 
L 243.774126 170.838309 
L 243.774126 171.136731 
L 243.27867 171.136731 
L 243.27867 171.584366 
L 242.783215 171.584366 
L 242.783215 172.181211 
L 242.287759 172.181211 
L 242.287759 172.927269 
L 241.296847 172.927269 
L 241.296847 173.374903 
L 239.810479 173.374903 
L 239.810479 173.524114 
L 239.315023 173.524114 
L 239.315023 173.822537 
L 236.837743 173.822537 
L 236.837743 173.971749 
L 232.378639 173.971749 
L 232.378639 174.12096 
L 231.387727 174.12096 
L 231.387727 174.270171 
L 230.892271 174.270171 
L 230.892271 174.419383 
L 230.396815 174.419383 
L 230.396815 174.568594 
L 229.901359 174.568594 
L 229.901359 174.867017 
L 228.910447 174.867017 
L 228.910447 175.463863 
L 227.424079 175.463863 
L 227.424079 175.613074 
L 226.928623 175.613074 
L 226.928623 175.762286 
L 225.442255 175.762286 
L 225.442255 176.060709 
L 221.478608 176.060709 
L 221.478608 176.20992 
L 220.983152 176.20992 
L 220.983152 176.359131 
L 220.487696 176.359131 
L 220.487696 176.359131 
L 219.496784 176.359131 
L 219.496784 176.508343 
L 218.505872 176.508343 
L 218.505872 176.657554 
L 217.51496 176.657554 
L 217.51496 177.2544 
L 217.019504 177.2544 
L 217.019504 177.851246 
L 216.524048 177.851246 
L 216.524048 178.149669 
L 216.028592 178.149669 
L 216.028592 178.448091 
L 215.533136 178.448091 
L 215.533136 178.746514 
L 214.542224 178.746514 
L 214.542224 179.044937 
L 213.551312 179.044937 
L 213.551312 179.194149 
L 208.596752 179.194149 
L 208.596752 179.492571 
L 208.101296 179.492571 
L 208.101296 179.940206 
L 206.614928 179.940206 
L 206.614928 180.089417 
L 206.119472 180.089417 
L 206.119472 180.537051 
L 205.624016 180.537051 
L 205.624016 180.686263 
L 204.137649 180.686263 
L 204.137649 181.133897 
L 203.642193 181.133897 
L 203.642193 181.283109 
L 202.651281 181.283109 
L 202.651281 181.43232 
L 197.696721 181.43232 
L 197.696721 182.029166 
L 197.201265 182.029166 
L 197.201265 182.029166 
L 196.705809 182.029166 
L 196.705809 182.4768 
L 196.210353 182.4768 
L 196.210353 182.924434 
L 195.714897 182.924434 
L 195.714897 183.073646 
L 194.723985 183.073646 
L 194.723985 183.670491 
L 194.228529 183.670491 
L 194.228529 183.819703 
L 192.742161 183.819703 
L 192.742161 184.118126 
L 192.246705 184.118126 
L 192.246705 185.759451 
L 191.255793 185.759451 
L 191.255793 186.057874 
L 190.760337 186.057874 
L 190.760337 186.207086 
L 189.769425 186.207086 
L 189.769425 186.803931 
L 189.273969 186.803931 
L 189.273969 186.953143 
L 188.778513 186.953143 
L 188.778513 187.102354 
L 185.805777 187.102354 
L 185.805777 187.400777 
L 184.814866 187.400777 
L 184.814866 187.848411 
L 184.31941 187.848411 
L 184.31941 188.445257 
L 183.823954 188.445257 
L 183.823954 189.340526 
L 183.328498 189.340526 
L 183.328498 189.937371 
L 182.833042 189.937371 
L 182.833042 190.83264 
L 182.337586 190.83264 
L 182.337586 192.026331 
L 181.346674 192.026331 
L 181.346674 192.175543 
L 179.36485 192.175543 
L 179.36485 192.324754 
L 178.869394 192.324754 
L 178.869394 192.623177 
L 177.383026 192.623177 
L 177.383026 192.772389 
L 175.401202 192.772389 
L 175.401202 193.070811 
L 174.905746 193.070811 
L 174.905746 193.220023 
L 174.41029 193.220023 
L 174.41029 193.369234 
L 173.419378 193.369234 
L 173.419378 193.816869 
L 172.923922 193.816869 
L 172.923922 194.264503 
L 172.428466 194.264503 
L 172.428466 194.861349 
L 171.93301 194.861349 
L 171.93301 195.607406 
L 170.942098 195.607406 
L 170.942098 195.905829 
L 169.951186 195.905829 
L 169.951186 196.05504 
L 168.960274 196.05504 
L 168.960274 196.204251 
L 168.464818 196.204251 
L 168.464818 196.502674 
L 167.969362 196.502674 
L 167.969362 196.801097 
L 167.473906 196.801097 
L 167.473906 196.950309 
L 166.97845 196.950309 
L 166.97845 197.09952 
L 166.482994 197.09952 
L 166.482994 197.397943 
L 165.987538 197.397943 
L 165.987538 197.547154 
L 165.492083 197.547154 
L 165.492083 197.696366 
L 161.528435 197.696366 
L 161.528435 197.845577 
L 161.032979 197.845577 
L 161.032979 198.144 
L 160.537523 198.144 
L 160.537523 198.293211 
L 160.042067 198.293211 
L 160.042067 198.442423 
L 159.546611 198.442423 
L 159.546611 198.591634 
L 159.051155 198.591634 
L 159.051155 199.337691 
L 158.060243 199.337691 
L 158.060243 199.486903 
L 157.564787 199.486903 
L 157.564787 199.934537 
L 156.573875 199.934537 
L 156.573875 200.23296 
L 155.582963 200.23296 
L 155.582963 200.979017 
L 154.592051 200.979017 
L 154.592051 201.575863 
L 152.610227 201.575863 
L 152.610227 201.874286 
L 150.628403 201.874286 
L 150.628403 202.023497 
L 149.637491 202.023497 
L 149.637491 202.32192 
L 149.142035 202.32192 
L 149.142035 202.620343 
L 148.646579 202.620343 
L 148.646579 203.067977 
L 148.151123 203.067977 
L 148.151123 203.3664 
L 147.655667 203.3664 
L 147.655667 203.814034 
L 147.160211 203.814034 
L 147.160211 203.963246 
L 146.1693 203.963246 
L 146.1693 204.261669 
L 145.673844 204.261669 
L 145.673844 204.560091 
L 145.178388 204.560091 
L 145.178388 205.156937 
L 144.682932 205.156937 
L 144.682932 205.45536 
L 144.187476 205.45536 
L 144.187476 205.753783 
L 143.69202 205.753783 
L 143.69202 205.902994 
L 143.196564 205.902994 
L 143.196564 206.649051 
L 142.701108 206.649051 
L 142.701108 206.798263 
L 142.205652 206.798263 
L 142.205652 207.096686 
L 138.242004 207.096686 
L 138.242004 207.991954 
L 137.746548 207.991954 
L 137.746548 208.141166 
L 135.764724 208.141166 
L 135.764724 209.036434 
L 134.278356 209.036434 
L 134.278356 209.334857 
L 133.7829 209.334857 
L 133.7829 209.931703 
L 132.791988 209.931703 
L 132.791988 210.080914 
L 132.296532 210.080914 
L 132.296532 210.230126 
L 131.30562 210.230126 
L 131.30562 210.379337 
L 122.882869 210.379337 
L 122.882869 210.528549 
L 120.901045 210.528549 
L 120.901045 210.67776 
L 120.405589 210.67776 
L 120.405589 210.976183 
L 119.910133 210.976183 
L 119.910133 211.125394 
L 119.414677 211.125394 
L 119.414677 211.274606 
L 118.423765 211.274606 
L 118.423765 211.573029 
L 113.964661 211.573029 
L 113.964661 212.319086 
L 113.469205 212.319086 
L 113.469205 213.065143 
L 112.973749 213.065143 
L 112.973749 213.214354 
L 112.478293 213.214354 
L 112.478293 213.363566 
L 111.982837 213.363566 
L 111.982837 213.512777 
L 111.487381 213.512777 
L 111.487381 213.661989 
L 110.991925 213.661989 
L 110.991925 214.109623 
L 110.496469 214.109623 
L 110.496469 214.408046 
L 110.001013 214.408046 
L 110.001013 214.85568 
L 109.505557 214.85568 
L 109.505557 215.303314 
L 109.010101 215.303314 
L 109.010101 215.750949 
L 108.514645 215.750949 
L 108.514645 216.049371 
L 107.523734 216.049371 
L 107.523734 216.795429 
L 107.028278 216.795429 
L 107.028278 216.94464 
L 106.532822 216.94464 
L 106.532822 217.093851 
L 105.046454 217.093851 
L 105.046454 217.243063 
L 102.073718 217.243063 
L 102.073718 217.690697 
L 101.578262 217.690697 
L 101.578262 217.98912 
L 101.082806 217.98912 
L 101.082806 218.138331 
L 100.58735 218.138331 
L 100.58735 219.182811 
L 100.091894 219.182811 
L 100.091894 219.481234 
L 99.596438 219.481234 
L 99.596438 220.07808 
L 99.100982 220.07808 
L 99.100982 220.525714 
L 98.605526 220.525714 
L 98.605526 221.420983 
L 98.11007 221.420983 
L 98.11007 221.868617 
L 97.614614 221.868617 
L 97.614614 222.614674 
L 97.119158 222.614674 
L 97.119158 222.763886 
L 96.623702 222.763886 
L 96.623702 223.21152 
L 96.128246 223.21152 
L 96.128246 223.957577 
L 95.63279 223.957577 
L 95.63279 224.256 
L 95.137334 224.256 
L 95.137334 224.554423 
L 94.641878 224.554423 
L 94.641878 224.703634 
L 94.146422 224.703634 
L 94.146422 225.151269 
L 93.650966 225.151269 
L 93.650966 225.30048 
L 90.182774 225.30048 
L 90.182774 225.449691 
L 89.687318 225.449691 
L 89.687318 225.748114 
L 89.191862 225.748114 
L 89.191862 226.34496 
L 88.200951 226.34496 
L 88.200951 226.941806 
L 87.210039 226.941806 
L 87.210039 227.38944 
L 86.714583 227.38944 
L 86.714583 227.986286 
L 86.219127 227.986286 
L 86.219127 228.284709 
L 85.723671 228.284709 
L 85.723671 228.881554 
L 85.228215 228.881554 
L 85.228215 230.373669 
L 84.732759 230.373669 
L 84.732759 231.268937 
L 84.237303 231.268937 
L 84.237303 233.208686 
L 83.741847 233.208686 
L 83.741847 234.253166 
L 83.246391 234.253166 
L 83.246391 235.446857 
L 82.750935 235.446857 
L 82.750935 236.192914 
L 81.760023 236.192914 
L 81.760023 236.938971 
L 81.264567 236.938971 
L 81.264567 237.088183 
L 80.769111 237.088183 
L 80.769111 237.237394 
L 80.273655 237.237394 
L 80.273655 237.386606 
L 79.778199 237.386606 
L 79.778199 237.685029 
L 79.282743 237.685029 
L 79.282743 237.83424 
L 78.787287 237.83424 
L 78.787287 237.983451 
L 78.291831 237.983451 
L 78.291831 239.177143 
L 77.796375 239.177143 
L 77.796375 241.564526 
L 77.300919 241.564526 
L 77.300919 245.593234 
L 76.805463 245.593234 
L 76.805463 248.428251 
L 76.310007 248.428251 
L 76.310007 252.158537 
L 75.814551 252.158537 
L 75.814551 257.380937 
L 75.319095 257.380937 
L 75.319095 266.0352 
L 74.823639 266.0352 
L 74.823639 272.749714 
L 74.328183 272.749714 
L 74.328183 275.43552 
L 73.832727 275.43552 
L 73.832727 276.48 
L 73.832727 276.48 
z
" clip-path="url(#p561ff772c9)" style="fill: #43b5a0; fill-opacity: 0.8"/>
   </g>
   <g id="matplotlib.axis_1">
    <g id="xtick_1">
     <g id="line2d_1">
      <defs>
       <path id="m77e4ba124f" d="M 0 0 
L 0 3.5 
" style="stroke: #ffffff; stroke-width: 0.8"/>
      </defs>
      <g>
       <use xlink:href="#m77e4ba124f" x="102.569174" y="276.48" style="fill: #ffffff; stroke: #ffffff; stroke-width: 0.8"/>
      </g>
     </g>
     <g id="text_1">
      <!-- Fri 12/24 -->
      <g style="fill: #ffffff" transform="translate(63.499989 312.01669)rotate(-30)scale(0.1 -0.1)">
       <defs>
        <path id="DejaVuSans-46" d="M 628 4666 
L 3309 4666 
L 3309 4134 
L 1259 4134 
L 1259 2759 
L 3109 2759 
L 3109 2228 
L 1259 2228 
L 1259 0 
L 628 0 
L 628 4666 
z
" transform="scale(0.015625)"/>
        <path id="DejaVuSans-72" d="M 2631 2963 
Q 2534 3019 2420 3045 
Q 2306 3072 2169 3072 
Q 1681 3072 1420 2755 
Q 1159 2438 1159 1844 
L 1159 0 
L 581 0 
L 581 3500 
L 1159 3500 
L 1159 2956 
Q 1341 3275 1631 3429 
Q 1922 3584 2338 3584 
Q 2397 3584 2469 3576 
Q 2541 3569 2628 3553 
L 2631 2963 
z
" transform="scale(0.015625)"/>
        <path id="DejaVuSans-69" d="M 603 3500 
L 1178 3500 
L 1178 0 
L 603 0 
L 603 3500 
z
M 603 4863 
L 1178 4863 
L 1178 4134 
L 603 4134 
L 603 4863 
z
" transform="scale(0.015625)"/>
        <path id="DejaVuSans-20" transform="scale(0.015625)"/>
        <path id="DejaVuSans-31" d="M 794 531 
L 1825 531 
L 1825 4091 
L 703 3866 
L 703 4441 
L 1819 4666 
L 2450 4666 
L 2450 531 
L 3481 531 
L 3481 0 
L 794 0 
L 794 531 
z
" transform="scale(0.015625)"/>
        <path id="DejaVuSans-32" d="M 1228 531 
L 3431 531 
L 3431 0 
L 469 0 
L 469 531 
Q 828 903 1448 1529 
Q 2069 2156 2228 2338 
Q 2531 2678 2651 2914 
Q 2772 3150 2772 3378 
Q 2772 3750 2511 3984 
Q 2250 4219 1831 4219 
Q 1534 4219 1204 4116 
Q 875 4013 500 3803 
L 500 4441 
Q 881 4594 1212 4672 
Q 1544 4750 1819 4750 
Q 2544 4750 2975 4387 
Q 3406 4025 3406 3419 
Q 3406 3131 3298 2873 
Q 3191 2616 2906 2266 
Q 2828 2175 2409 1742 
Q 1991 1309 1228 531 
z
" transform="scale(0.015625)"/>
        <path id="DejaVuSans-2f" d="M 1625 4666 
L 2156 4666 
L 531 -594 
L 0 -594 
L 1625 4666 
z
" transform="scale(0.015625)"/>
        <path id="DejaVuSans-34" d="M 2419 4116 
L 825 1625 
L 2419 1625 
L 2419 4116 
z
M 2253 4666 
L 3047 4666 
L 3047 1625 
L 3713 1625 
L 3713 1100 
L 3047 1100 
L 3047 0 
L 2419 0 
L 2419 1100 
L 313 1100 
L 313 1709 
L 2253 4666 
z
" transform="scale(0.015625)"/>
       </defs>
       <use xlink:href="#DejaVuSans-46"/>
       <use xlink:href="#DejaVuSans-72" x="50.269531"/>
       <use xlink:href="#DejaVuSans-69" x="91.382812"/>
       <use xlink:href="#DejaVuSans-20" x="119.166016"/>
       <use xlink:href="#DejaVuSans-31" x="150.953125"/>
       <use xlink:href="#DejaVuSans-32" x="214.576172"/>
       <use xlink:href="#DejaVuSans-2f" x="278.199219"/>
       <use xlink:href="#DejaVuSans-32" x="311.890625"/>
       <use xlink:href="#DejaVuSans-34" x="375.513672"/>
      </g>
     </g>
    </g>
    <g id="xtick_2">
     <g id="line2d_2">
      <g>
       <use xlink:href="#m77e4ba124f" x="138.242004" y="276.48" style="fill: #ffffff; stroke: #ffffff; stroke-width: 0.8"/>
      </g>
     </g>
     <g id="text_2">
      <!-- Mon 12/27 -->
      <g style="fill: #ffffff" transform="translate(91.232449 316.601065)rotate(-30)scale(0.1 -0.1)">
       <defs>
        <path id="DejaVuSans-4d" d="M 628 4666 
L 1569 4666 
L 2759 1491 
L 3956 4666 
L 4897 4666 
L 4897 0 
L 4281 0 
L 4281 4097 
L 3078 897 
L 2444 897 
L 1241 4097 
L 1241 0 
L 628 0 
L 628 4666 
z
" transform="scale(0.015625)"/>
        <path id="DejaVuSans-6f" d="M 1959 3097 
Q 1497 3097 1228 2736 
Q 959 2375 959 1747 
Q 959 1119 1226 758 
Q 1494 397 1959 397 
Q 2419 397 2687 759 
Q 2956 1122 2956 1747 
Q 2956 2369 2687 2733 
Q 2419 3097 1959 3097 
z
M 1959 3584 
Q 2709 3584 3137 3096 
Q 3566 2609 3566 1747 
Q 3566 888 3137 398 
Q 2709 -91 1959 -91 
Q 1206 -91 779 398 
Q 353 888 353 1747 
Q 353 2609 779 3096 
Q 1206 3584 1959 3584 
z
" transform="scale(0.015625)"/>
        <path id="DejaVuSans-6e" d="M 3513 2113 
L 3513 0 
L 2938 0 
L 2938 2094 
Q 2938 2591 2744 2837 
Q 2550 3084 2163 3084 
Q 1697 3084 1428 2787 
Q 1159 2491 1159 1978 
L 1159 0 
L 581 0 
L 581 3500 
L 1159 3500 
L 1159 2956 
Q 1366 3272 1645 3428 
Q 1925 3584 2291 3584 
Q 2894 3584 3203 3211 
Q 3513 2838 3513 2113 
z
" transform="scale(0.015625)"/>
        <path id="DejaVuSans-37" d="M 525 4666 
L 3525 4666 
L 3525 4397 
L 1831 0 
L 1172 0 
L 2766 4134 
L 525 4134 
L 525 4666 
z
" transform="scale(0.015625)"/>
       </defs>
       <use xlink:href="#DejaVuSans-4d"/>
       <use xlink:href="#DejaVuSans-6f" x="86.279297"/>
       <use xlink:href="#DejaVuSans-6e" x="147.460938"/>
       <use xlink:href="#DejaVuSans-20" x="210.839844"/>
       <use xlink:href="#DejaVuSans-31" x="242.626953"/>
       <use xlink:href="#DejaVuSans-32" x="306.25"/>
       <use xlink:href="#DejaVuSans-2f" x="369.873047"/>
       <use xlink:href="#DejaVuSans-32" x="403.564453"/>
       <use xlink:href="#DejaVuSans-37" x="467.1875"/>
      </g>
     </g>
    </g>
    <g id="xtick_3">
     <g id="line2d_3">
      <g>
       <use xlink:href="#m77e4ba124f" x="185.805777" y="276.48" style="fill: #ffffff; stroke: #ffffff; stroke-width: 0.8"/>
      </g>
     </g>
     <g id="text_3">
      <!-- Fri 12/31 -->
      <g style="fill: #ffffff" transform="translate(146.736593 312.01669)rotate(-30)scale(0.1 -0.1)">
       <defs>
        <path id="DejaVuSans-33" d="M 2597 2516 
Q 3050 2419 3304 2112 
Q 3559 1806 3559 1356 
Q 3559 666 3084 287 
Q 2609 -91 1734 -91 
Q 1441 -91 1130 -33 
Q 819 25 488 141 
L 488 750 
Q 750 597 1062 519 
Q 1375 441 1716 441 
Q 2309 441 2620 675 
Q 2931 909 2931 1356 
Q 2931 1769 2642 2001 
Q 2353 2234 1838 2234 
L 1294 2234 
L 1294 2753 
L 1863 2753 
Q 2328 2753 2575 2939 
Q 2822 3125 2822 3475 
Q 2822 3834 2567 4026 
Q 2313 4219 1838 4219 
Q 1578 4219 1281 4162 
Q 984 4106 628 3988 
L 628 4550 
Q 988 4650 1302 4700 
Q 1616 4750 1894 4750 
Q 2613 4750 3031 4423 
Q 3450 4097 3450 3541 
Q 3450 3153 3228 2886 
Q 3006 2619 2597 2516 
z
" transform="scale(0.015625)"/>
       </defs>
       <use xlink:href="#DejaVuSans-46"/>
       <use xlink:href="#DejaVuSans-72" x="50.269531"/>
       <use xlink:href="#DejaVuSans-69" x="91.382812"/>
       <use xlink:href="#DejaVuSans-20" x="119.166016"/>
       <use xlink:href="#DejaVuSans-31" x="150.953125"/>
       <use xlink:href="#DejaVuSans-32" x="214.576172"/>
       <use xlink:href="#DejaVuSans-2f" x="278.199219"/>
       <use xlink:href="#DejaVuSans-33" x="311.890625"/>
       <use xlink:href="#DejaVuSans-31" x="375.513672"/>
      </g>
     </g>
    </g>
    <g id="xtick_4">
     <g id="line2d_4">
      <g>
       <use xlink:href="#m77e4ba124f" x="221.478608" y="276.48" style="fill: #ffffff; stroke: #ffffff; stroke-width: 0.8"/>
      </g>
     </g>
     <g id="text_4">
      <!-- Mon 01/03 -->
      <g style="fill: #ffffff" transform="translate(174.469053 316.601065)rotate(-30)scale(0.1 -0.1)">
       <defs>
        <path id="DejaVuSans-30" d="M 2034 4250 
Q 1547 4250 1301 3770 
Q 1056 3291 1056 2328 
Q 1056 1369 1301 889 
Q 1547 409 2034 409 
Q 2525 409 2770 889 
Q 3016 1369 3016 2328 
Q 3016 3291 2770 3770 
Q 2525 4250 2034 4250 
z
M 2034 4750 
Q 2819 4750 3233 4129 
Q 3647 3509 3647 2328 
Q 3647 1150 3233 529 
Q 2819 -91 2034 -91 
Q 1250 -91 836 529 
Q 422 1150 422 2328 
Q 422 3509 836 4129 
Q 1250 4750 2034 4750 
z
" transform="scale(0.015625)"/>
       </defs>
       <use xlink:href="#DejaVuSans-4d"/>
       <use xlink:href="#DejaVuSans-6f" x="86.279297"/>
       <use xlink:href="#DejaVuSans-6e" x="147.460938"/>
       <use xlink:href="#DejaVuSans-20" x="210.839844"/>
       <use xlink:href="#DejaVuSans-30" x="242.626953"/>
       <use xlink:href="#DejaVuSans-31" x="306.25"/>
       <use xlink:href="#DejaVuSans-2f" x="369.873047"/>
       <use xlink:href="#DejaVuSans-30" x="403.564453"/>
       <use xlink:href="#DejaVuSans-33" x="467.1875"/>
      </g>
     </g>
    </g>
    <g id="xtick_5">
     <g id="line2d_5">
      <g>
       <use xlink:href="#m77e4ba124f" x="269.042381" y="276.48" style="fill: #ffffff; stroke: #ffffff; stroke-width: 0.8"/>
      </g>
     </g>
     <g id="text_5">
      <!-- Fri 01/07 -->
      <g style="fill: #ffffff" transform="translate(229.973197 312.01669)rotate(-30)scale(0.1 -0.1)">
       <use xlink:href="#DejaVuSans-46"/>
       <use xlink:href="#DejaVuSans-72" x="50.269531"/>
       <use xlink:href="#DejaVuSans-69" x="91.382812"/>
       <use xlink:href="#DejaVuSans-20" x="119.166016"/>
       <use xlink:href="#DejaVuSans-30" x="150.953125"/>
       <use xlink:href="#DejaVuSans-31" x="214.576172"/>
       <use xlink:href="#DejaVuSans-2f" x="278.199219"/>
       <use xlink:href="#DejaVuSans-30" x="311.890625"/>
       <use xlink:href="#DejaVuSans-37" x="375.513672"/>
      </g>
     </g>
    </g>
    <g id="xtick_6">
     <g id="line2d_6">
      <g>
       <use xlink:href="#m77e4ba124f" x="304.715211" y="276.48" style="fill: #ffffff; stroke: #ffffff; stroke-width: 0.8"/>
      </g>
     </g>
     <g id="text_6">
      <!-- Mon 01/10 -->
      <g style="fill: #ffffff" transform="translate(257.705657 316.601065)rotate(-30)scale(0.1 -0.1)">
       <use xlink:href="#DejaVuSans-4d"/>
       <use xlink:href="#DejaVuSans-6f" x="86.279297"/>
       <use xlink:href="#DejaVuSans-6e" x="147.460938"/>
       <use xlink:href="#DejaVuSans-20" x="210.839844"/>
       <use xlink:href="#DejaVuSans-30" x="242.626953"/>
       <use xlink:href="#DejaVuSans-31" x="306.25"/>
       <use xlink:href="#DejaVuSans-2f" x="369.873047"/>
       <use xlink:href="#DejaVuSans-31" x="403.564453"/>
       <use xlink:href="#DejaVuSans-30" x="467.1875"/>
      </g>
     </g>
    </g>
    <g id="xtick_7">
     <g id="line2d_7">
      <g>
       <use xlink:href="#m77e4ba124f" x="352.278985" y="276.48" style="fill: #ffffff; stroke: #ffffff; stroke-width: 0.8"/>
      </g>
     </g>
     <g id="text_7">
      <!-- Fri 01/14 -->
      <g style="fill: #ffffff" transform="translate(313.209801 312.01669)rotate(-30)scale(0.1 -0.1)">
       <use xlink:href="#DejaVuSans-46"/>
       <use xlink:href="#DejaVuSans-72" x="50.269531"/>
       <use xlink:href="#DejaVuSans-69" x="91.382812"/>
       <use xlink:href="#DejaVuSans-20" x="119.166016"/>
       <use xlink:href="#DejaVuSans-30" x="150.953125"/>
       <use xlink:href="#DejaVuSans-31" x="214.576172"/>
       <use xlink:href="#DejaVuSans-2f" x="278.199219"/>
       <use xlink:href="#DejaVuSans-31" x="311.890625"/>
       <use xlink:href="#DejaVuSans-34" x="375.513672"/>
      </g>
     </g>
    </g>
    <g id="xtick_8">
     <g id="line2d_8">
      <g>
       <use xlink:href="#m77e4ba124f" x="387.951815" y="276.48" style="fill: #ffffff; stroke: #ffffff; stroke-width: 0.8"/>
      </g>
     </g>
     <g id="text_8">
      <!-- Mon 01/17 -->
      <g style="fill: #ffffff" transform="translate(340.94226 316.601065)rotate(-30)scale(0.1 -0.1)">
       <use xlink:href="#DejaVuSans-4d"/>
       <use xlink:href="#DejaVuSans-6f" x="86.279297"/>
       <use xlink:href="#DejaVuSans-6e" x="147.460938"/>
       <use xlink:href="#DejaVuSans-20" x="210.839844"/>
       <use xlink:href="#DejaVuSans-30" x="242.626953"/>
       <use xlink:href="#DejaVuSans-31" x="306.25"/>
       <use xlink:href="#DejaVuSans-2f" x="369.873047"/>
       <use xlink:href="#DejaVuSans-31" x="403.564453"/>
       <use xlink:href="#DejaVuSans-37" x="467.1875"/>
      </g>
     </g>
    </g>
    <g id="xtick_9">
     <g id="line2d_9">
      <defs>
       <path id="mb5ac75328c" d="M 0 0 
L 0 2 
" style="stroke: #ffffff; stroke-width: 0.6"/>
      </defs>
      <g>
       <use xlink:href="#mb5ac75328c" x="66.896344" y="276.48" style="fill: #ffffff; stroke: #ffffff; stroke-width: 0.6"/>
      </g>
     </g>
    </g>
    <g id="xtick_10">
     <g id="line2d_10">
      <g>
       <use xlink:href="#mb5ac75328c" x="78.787287" y="276.48" style="fill: #ffffff; stroke: #ffffff; stroke-width: 0.6"/>
      </g>
     </g>
    </g>
    <g id="xtick_11">
     <g id="line2d_11">
      <g>
       <use xlink:href="#mb5ac75328c" x="90.67823" y="276.48" style="fill: #ffffff; stroke: #ffffff; stroke-width: 0.6"/>
      </g>
     </g>
    </g>
    <g id="xtick_12">
     <g id="line2d_12">
      <g>
       <use xlink:href="#mb5ac75328c" x="114.460117" y="276.48" style="fill: #ffffff; stroke: #ffffff; stroke-width: 0.6"/>
      </g>
     </g>
    </g>
    <g id="xtick_13">
     <g id="line2d_13">
      <g>
       <use xlink:href="#mb5ac75328c" x="126.351061" y="276.48" style="fill: #ffffff; stroke: #ffffff; stroke-width: 0.6"/>
      </g>
     </g>
    </g>
    <g id="xtick_14">
     <g id="line2d_14">
      <g>
       <use xlink:href="#mb5ac75328c" x="150.132947" y="276.48" style="fill: #ffffff; stroke: #ffffff; stroke-width: 0.6"/>
      </g>
     </g>
    </g>
    <g id="xtick_15">
     <g id="line2d_15">
      <g>
       <use xlink:href="#mb5ac75328c" x="162.023891" y="276.48" style="fill: #ffffff; stroke: #ffffff; stroke-width: 0.6"/>
      </g>
     </g>
    </g>
    <g id="xtick_16">
     <g id="line2d_16">
      <g>
       <use xlink:href="#mb5ac75328c" x="173.914834" y="276.48" style="fill: #ffffff; stroke: #ffffff; stroke-width: 0.6"/>
      </g>
     </g>
    </g>
    <g id="xtick_17">
     <g id="line2d_17">
      <g>
       <use xlink:href="#mb5ac75328c" x="197.696721" y="276.48" style="fill: #ffffff; stroke: #ffffff; stroke-width: 0.6"/>
      </g>
     </g>
    </g>
    <g id="xtick_18">
     <g id="line2d_18">
      <g>
       <use xlink:href="#mb5ac75328c" x="209.587664" y="276.48" style="fill: #ffffff; stroke: #ffffff; stroke-width: 0.6"/>
      </g>
     </g>
    </g>
    <g id="xtick_19">
     <g id="line2d_19">
      <g>
       <use xlink:href="#mb5ac75328c" x="233.369551" y="276.48" style="fill: #ffffff; stroke: #ffffff; stroke-width: 0.6"/>
      </g>
     </g>
    </g>
    <g id="xtick_20">
     <g id="line2d_20">
      <g>
       <use xlink:href="#mb5ac75328c" x="245.260494" y="276.48" style="fill: #ffffff; stroke: #ffffff; stroke-width: 0.6"/>
      </g>
     </g>
    </g>
    <g id="xtick_21">
     <g id="line2d_21">
      <g>
       <use xlink:href="#mb5ac75328c" x="257.151438" y="276.48" style="fill: #ffffff; stroke: #ffffff; stroke-width: 0.6"/>
      </g>
     </g>
    </g>
    <g id="xtick_22">
     <g id="line2d_22">
      <g>
       <use xlink:href="#mb5ac75328c" x="280.933325" y="276.48" style="fill: #ffffff; stroke: #ffffff; stroke-width: 0.6"/>
      </g>
     </g>
    </g>
    <g id="xtick_23">
     <g id="line2d_23">
      <g>
       <use xlink:href="#mb5ac75328c" x="292.824268" y="276.48" style="fill: #ffffff; stroke: #ffffff; stroke-width: 0.6"/>
      </g>
     </g>
    </g>
    <g id="xtick_24">
     <g id="line2d_24">
      <g>
       <use xlink:href="#mb5ac75328c" x="316.606155" y="276.48" style="fill: #ffffff; stroke: #ffffff; stroke-width: 0.6"/>
      </g>
     </g>
    </g>
    <g id="xtick_25">
     <g id="line2d_25">
      <g>
       <use xlink:href="#mb5ac75328c" x="328.497098" y="276.48" style="fill: #ffffff; stroke: #ffffff; stroke-width: 0.6"/>
      </g>
     </g>
    </g>
    <g id="xtick_26">
     <g id="line2d_26">
      <g>
       <use xlink:href="#mb5ac75328c" x="340.388041" y="276.48" style="fill: #ffffff; stroke: #ffffff; stroke-width: 0.6"/>
      </g>
     </g>
    </g>
    <g id="xtick_27">
     <g id="line2d_27">
      <g>
       <use xlink:href="#mb5ac75328c" x="364.169928" y="276.48" style="fill: #ffffff; stroke: #ffffff; stroke-width: 0.6"/>
      </g>
     </g>
    </g>
    <g id="xtick_28">
     <g id="line2d_28">
      <g>
       <use xlink:href="#mb5ac75328c" x="376.060872" y="276.48" style="fill: #ffffff; stroke: #ffffff; stroke-width: 0.6"/>
      </g>
     </g>
    </g>
    <g id="xtick_29">
     <g id="line2d_29">
      <g>
       <use xlink:href="#mb5ac75328c" x="399.842758" y="276.48" style="fill: #ffffff; stroke: #ffffff; stroke-width: 0.6"/>
      </g>
     </g>
    </g>
    <g id="xtick_30">
     <g id="line2d_30">
      <g>
       <use xlink:href="#mb5ac75328c" x="411.733702" y="276.48" style="fill: #ffffff; stroke: #ffffff; stroke-width: 0.6"/>
      </g>
     </g>
    </g>
   </g>
   <g id="matplotlib.axis_2">
    <g id="ytick_1">
     <g id="line2d_31">
      <defs>
       <path id="mbc1fd4f192" d="M 0 0 
L -3.5 0 
" style="stroke: #ffffff; stroke-width: 0.8"/>
      </defs>
      <g>
       <use xlink:href="#mbc1fd4f192" x="57.6" y="276.48" style="fill: #ffffff; stroke: #ffffff; stroke-width: 0.8"/>
      </g>
     </g>
     <g id="text_9">
      <!-- 0 -->
      <g style="fill: #ffffff" transform="translate(44.2375 280.279219)scale(0.1 -0.1)">
       <use xlink:href="#DejaVuSans-30"/>
      </g>
     </g>
    </g>
    <g id="ytick_2">
     <g id="line2d_32">
      <g>
       <use xlink:href="#mbc1fd4f192" x="57.6" y="246.637714" style="fill: #ffffff; stroke: #ffffff; stroke-width: 0.8"/>
      </g>
     </g>
     <g id="text_10">
      <!-- 200 -->
      <g style="fill: #ffffff" transform="translate(31.5125 250.436933)scale(0.1 -0.1)">
       <use xlink:href="#DejaVuSans-32"/>
       <use xlink:href="#DejaVuSans-30" x="63.623047"/>
       <use xlink:href="#DejaVuSans-30" x="127.246094"/>
      </g>
     </g>
    </g>
    <g id="ytick_3">
     <g id="line2d_33">
      <g>
       <use xlink:href="#mbc1fd4f192" x="57.6" y="216.795429" style="fill: #ffffff; stroke: #ffffff; stroke-width: 0.8"/>
      </g>
     </g>
     <g id="text_11">
      <!-- 400 -->
      <g style="fill: #ffffff" transform="translate(31.5125 220.594647)scale(0.1 -0.1)">
       <use xlink:href="#DejaVuSans-34"/>
       <use xlink:href="#DejaVuSans-30" x="63.623047"/>
       <use xlink:href="#DejaVuSans-30" x="127.246094"/>
      </g>
     </g>
    </g>
    <g id="ytick_4">
     <g id="line2d_34">
      <g>
       <use xlink:href="#mbc1fd4f192" x="57.6" y="186.953143" style="fill: #ffffff; stroke: #ffffff; stroke-width: 0.8"/>
      </g>
     </g>
     <g id="text_12">
      <!-- 600 -->
      <g style="fill: #ffffff" transform="translate(31.5125 190.752362)scale(0.1 -0.1)">
       <defs>
        <path id="DejaVuSans-36" d="M 2113 2584 
Q 1688 2584 1439 2293 
Q 1191 2003 1191 1497 
Q 1191 994 1439 701 
Q 1688 409 2113 409 
Q 2538 409 2786 701 
Q 3034 994 3034 1497 
Q 3034 2003 2786 2293 
Q 2538 2584 2113 2584 
z
M 3366 4563 
L 3366 3988 
Q 3128 4100 2886 4159 
Q 2644 4219 2406 4219 
Q 1781 4219 1451 3797 
Q 1122 3375 1075 2522 
Q 1259 2794 1537 2939 
Q 1816 3084 2150 3084 
Q 2853 3084 3261 2657 
Q 3669 2231 3669 1497 
Q 3669 778 3244 343 
Q 2819 -91 2113 -91 
Q 1303 -91 875 529 
Q 447 1150 447 2328 
Q 447 3434 972 4092 
Q 1497 4750 2381 4750 
Q 2619 4750 2861 4703 
Q 3103 4656 3366 4563 
z
" transform="scale(0.015625)"/>
       </defs>
       <use xlink:href="#DejaVuSans-36"/>
       <use xlink:href="#DejaVuSans-30" x="63.623047"/>
       <use xlink:href="#DejaVuSans-30" x="127.246094"/>
      </g>
     </g>
    </g>
    <g id="ytick_5">
     <g id="line2d_35">
      <g>
       <use xlink:href="#mbc1fd4f192" x="57.6" y="157.110857" style="fill: #ffffff; stroke: #ffffff; stroke-width: 0.8"/>
      </g>
     </g>
     <g id="text_13">
      <!-- 800 -->
      <g style="fill: #ffffff" transform="translate(31.5125 160.910076)scale(0.1 -0.1)">
       <defs>
        <path id="DejaVuSans-38" d="M 2034 2216 
Q 1584 2216 1326 1975 
Q 1069 1734 1069 1313 
Q 1069 891 1326 650 
Q 1584 409 2034 409 
Q 2484 409 2743 651 
Q 3003 894 3003 1313 
Q 3003 1734 2745 1975 
Q 2488 2216 2034 2216 
z
M 1403 2484 
Q 997 2584 770 2862 
Q 544 3141 544 3541 
Q 544 4100 942 4425 
Q 1341 4750 2034 4750 
Q 2731 4750 3128 4425 
Q 3525 4100 3525 3541 
Q 3525 3141 3298 2862 
Q 3072 2584 2669 2484 
Q 3125 2378 3379 2068 
Q 3634 1759 3634 1313 
Q 3634 634 3220 271 
Q 2806 -91 2034 -91 
Q 1263 -91 848 271 
Q 434 634 434 1313 
Q 434 1759 690 2068 
Q 947 2378 1403 2484 
z
M 1172 3481 
Q 1172 3119 1398 2916 
Q 1625 2713 2034 2713 
Q 2441 2713 2670 2916 
Q 2900 3119 2900 3481 
Q 2900 3844 2670 4047 
Q 2441 4250 2034 4250 
Q 1625 4250 1398 4047 
Q 1172 3844 1172 3481 
z
" transform="scale(0.015625)"/>
       </defs>
       <use xlink:href="#DejaVuSans-38"/>
       <use xlink:href="#DejaVuSans-30" x="63.623047"/>
       <use xlink:href="#DejaVuSans-30" x="127.246094"/>
      </g>
     </g>
    </g>
    <g id="ytick_6">
     <g id="line2d_36">
      <g>
       <use xlink:href="#mbc1fd4f192" x="57.6" y="127.268571" style="fill: #ffffff; stroke: #ffffff; stroke-width: 0.8"/>
      </g>
     </g>
     <g id="text_14">
      <!-- 1000 -->
      <g style="fill: #ffffff" transform="translate(25.15 131.06779)scale(0.1 -0.1)">
       <use xlink:href="#DejaVuSans-31"/>
       <use xlink:href="#DejaVuSans-30" x="63.623047"/>
       <use xlink:href="#DejaVuSans-30" x="127.246094"/>
       <use xlink:href="#DejaVuSans-30" x="190.869141"/>
      </g>
     </g>
    </g>
    <g id="ytick_7">
     <g id="line2d_37">
      <g>
       <use xlink:href="#mbc1fd4f192" x="57.6" y="97.426286" style="fill: #ffffff; stroke: #ffffff; stroke-width: 0.8"/>
      </g>
     </g>
     <g id="text_15">
      <!-- 1200 -->
      <g style="fill: #ffffff" transform="translate(25.15 101.225504)scale(0.1 -0.1)">
       <use xlink:href="#DejaVuSans-31"/>
       <use xlink:href="#DejaVuSans-32" x="63.623047"/>
       <use xlink:href="#DejaVuSans-30" x="127.246094"/>
       <use xlink:href="#DejaVuSans-30" x="190.869141"/>
      </g>
     </g>
    </g>
    <g id="ytick_8">
     <g id="line2d_38">
      <g>
       <use xlink:href="#mbc1fd4f192" x="57.6" y="67.584" style="fill: #ffffff; stroke: #ffffff; stroke-width: 0.8"/>
      </g>
     </g>
     <g id="text_16">
      <!-- 1400 -->
      <g style="fill: #ffffff" transform="translate(25.15 71.383219)scale(0.1 -0.1)">
       <use xlink:href="#DejaVuSans-31"/>
       <use xlink:href="#DejaVuSans-34" x="63.623047"/>
       <use xlink:href="#DejaVuSans-30" x="127.246094"/>
       <use xlink:href="#DejaVuSans-30" x="190.869141"/>
      </g>
     </g>
    </g>
    <g id="text_17">
     <!-- Number of tickets sold -->
     <g style="fill: #ffffff" transform="translate(19.070312 215.329906)rotate(-90)scale(0.1 -0.1)">
      <defs>
       <path id="DejaVuSans-4e" d="M 628 4666 
L 1478 4666 
L 3547 763 
L 3547 4666 
L 4159 4666 
L 4159 0 
L 3309 0 
L 1241 3903 
L 1241 0 
L 628 0 
L 628 4666 
z
" transform="scale(0.015625)"/>
       <path id="DejaVuSans-75" d="M 544 1381 
L 544 3500 
L 1119 3500 
L 1119 1403 
Q 1119 906 1312 657 
Q 1506 409 1894 409 
Q 2359 409 2629 706 
Q 2900 1003 2900 1516 
L 2900 3500 
L 3475 3500 
L 3475 0 
L 2900 0 
L 2900 538 
Q 2691 219 2414 64 
Q 2138 -91 1772 -91 
Q 1169 -91 856 284 
Q 544 659 544 1381 
z
M 1991 3584 
L 1991 3584 
z
" transform="scale(0.015625)"/>
       <path id="DejaVuSans-6d" d="M 3328 2828 
Q 3544 3216 3844 3400 
Q 4144 3584 4550 3584 
Q 5097 3584 5394 3201 
Q 5691 2819 5691 2113 
L 5691 0 
L 5113 0 
L 5113 2094 
Q 5113 2597 4934 2840 
Q 4756 3084 4391 3084 
Q 3944 3084 3684 2787 
Q 3425 2491 3425 1978 
L 3425 0 
L 2847 0 
L 2847 2094 
Q 2847 2600 2669 2842 
Q 2491 3084 2119 3084 
Q 1678 3084 1418 2786 
Q 1159 2488 1159 1978 
L 1159 0 
L 581 0 
L 581 3500 
L 1159 3500 
L 1159 2956 
Q 1356 3278 1631 3431 
Q 1906 3584 2284 3584 
Q 2666 3584 2933 3390 
Q 3200 3197 3328 2828 
z
" transform="scale(0.015625)"/>
       <path id="DejaVuSans-62" d="M 3116 1747 
Q 3116 2381 2855 2742 
Q 2594 3103 2138 3103 
Q 1681 3103 1420 2742 
Q 1159 2381 1159 1747 
Q 1159 1113 1420 752 
Q 1681 391 2138 391 
Q 2594 391 2855 752 
Q 3116 1113 3116 1747 
z
M 1159 2969 
Q 1341 3281 1617 3432 
Q 1894 3584 2278 3584 
Q 2916 3584 3314 3078 
Q 3713 2572 3713 1747 
Q 3713 922 3314 415 
Q 2916 -91 2278 -91 
Q 1894 -91 1617 61 
Q 1341 213 1159 525 
L 1159 0 
L 581 0 
L 581 4863 
L 1159 4863 
L 1159 2969 
z
" transform="scale(0.015625)"/>
       <path id="DejaVuSans-65" d="M 3597 1894 
L 3597 1613 
L 953 1613 
Q 991 1019 1311 708 
Q 1631 397 2203 397 
Q 2534 397 2845 478 
Q 3156 559 3463 722 
L 3463 178 
Q 3153 47 2828 -22 
Q 2503 -91 2169 -91 
Q 1331 -91 842 396 
Q 353 884 353 1716 
Q 353 2575 817 3079 
Q 1281 3584 2069 3584 
Q 2775 3584 3186 3129 
Q 3597 2675 3597 1894 
z
M 3022 2063 
Q 3016 2534 2758 2815 
Q 2500 3097 2075 3097 
Q 1594 3097 1305 2825 
Q 1016 2553 972 2059 
L 3022 2063 
z
" transform="scale(0.015625)"/>
       <path id="DejaVuSans-66" d="M 2375 4863 
L 2375 4384 
L 1825 4384 
Q 1516 4384 1395 4259 
Q 1275 4134 1275 3809 
L 1275 3500 
L 2222 3500 
L 2222 3053 
L 1275 3053 
L 1275 0 
L 697 0 
L 697 3053 
L 147 3053 
L 147 3500 
L 697 3500 
L 697 3744 
Q 697 4328 969 4595 
Q 1241 4863 1831 4863 
L 2375 4863 
z
" transform="scale(0.015625)"/>
       <path id="DejaVuSans-74" d="M 1172 4494 
L 1172 3500 
L 2356 3500 
L 2356 3053 
L 1172 3053 
L 1172 1153 
Q 1172 725 1289 603 
Q 1406 481 1766 481 
L 2356 481 
L 2356 0 
L 1766 0 
Q 1100 0 847 248 
Q 594 497 594 1153 
L 594 3053 
L 172 3053 
L 172 3500 
L 594 3500 
L 594 4494 
L 1172 4494 
z
" transform="scale(0.015625)"/>
       <path id="DejaVuSans-63" d="M 3122 3366 
L 3122 2828 
Q 2878 2963 2633 3030 
Q 2388 3097 2138 3097 
Q 1578 3097 1268 2742 
Q 959 2388 959 1747 
Q 959 1106 1268 751 
Q 1578 397 2138 397 
Q 2388 397 2633 464 
Q 2878 531 3122 666 
L 3122 134 
Q 2881 22 2623 -34 
Q 2366 -91 2075 -91 
Q 1284 -91 818 406 
Q 353 903 353 1747 
Q 353 2603 823 3093 
Q 1294 3584 2113 3584 
Q 2378 3584 2631 3529 
Q 2884 3475 3122 3366 
z
" transform="scale(0.015625)"/>
       <path id="DejaVuSans-6b" d="M 581 4863 
L 1159 4863 
L 1159 1991 
L 2875 3500 
L 3609 3500 
L 1753 1863 
L 3688 0 
L 2938 0 
L 1159 1709 
L 1159 0 
L 581 0 
L 581 4863 
z
" transform="scale(0.015625)"/>
       <path id="DejaVuSans-73" d="M 2834 3397 
L 2834 2853 
Q 2591 2978 2328 3040 
Q 2066 3103 1784 3103 
Q 1356 3103 1142 2972 
Q 928 2841 928 2578 
Q 928 2378 1081 2264 
Q 1234 2150 1697 2047 
L 1894 2003 
Q 2506 1872 2764 1633 
Q 3022 1394 3022 966 
Q 3022 478 2636 193 
Q 2250 -91 1575 -91 
Q 1294 -91 989 -36 
Q 684 19 347 128 
L 347 722 
Q 666 556 975 473 
Q 1284 391 1588 391 
Q 1994 391 2212 530 
Q 2431 669 2431 922 
Q 2431 1156 2273 1281 
Q 2116 1406 1581 1522 
L 1381 1569 
Q 847 1681 609 1914 
Q 372 2147 372 2553 
Q 372 3047 722 3315 
Q 1072 3584 1716 3584 
Q 2034 3584 2315 3537 
Q 2597 3491 2834 3397 
z
" transform="scale(0.015625)"/>
       <path id="DejaVuSans-6c" d="M 603 4863 
L 1178 4863 
L 1178 0 
L 603 0 
L 603 4863 
z
" transform="scale(0.015625)"/>
       <path id="DejaVuSans-64" d="M 2906 2969 
L 2906 4863 
L 3481 4863 
L 3481 0 
L 2906 0 
L 2906 525 
Q 2725 213 2448 61 
Q 2172 -91 1784 -91 
Q 1150 -91 751 415 
Q 353 922 353 1747 
Q 353 2572 751 3078 
Q 1150 3584 1784 3584 
Q 2172 3584 2448 3432 
Q 2725 3281 2906 2969 
z
M 947 1747 
Q 947 1113 1208 752 
Q 1469 391 1925 391 
Q 2381 391 2643 752 
Q 2906 1113 2906 1747 
Q 2906 2381 2643 2742 
Q 2381 3103 1925 3103 
Q 1469 3103 1208 2742 
Q 947 2381 947 1747 
z
" transform="scale(0.015625)"/>
      </defs>
      <use xlink:href="#DejaVuSans-4e"/>
      <use xlink:href="#DejaVuSans-75" x="74.804688"/>
      <use xlink:href="#DejaVuSans-6d" x="138.183594"/>
      <use xlink:href="#DejaVuSans-62" x="235.595703"/>
      <use xlink:href="#DejaVuSans-65" x="299.072266"/>
      <use xlink:href="#DejaVuSans-72" x="360.595703"/>
      <use xlink:href="#DejaVuSans-20" x="401.708984"/>
      <use xlink:href="#DejaVuSans-6f" x="433.496094"/>
      <use xlink:href="#DejaVuSans-66" x="494.677734"/>
      <use xlink:href="#DejaVuSans-20" x="529.882812"/>
      <use xlink:href="#DejaVuSans-74" x="561.669922"/>
      <use xlink:href="#DejaVuSans-69" x="600.878906"/>
      <use xlink:href="#DejaVuSans-63" x="628.662109"/>
      <use xlink:href="#DejaVuSans-6b" x="683.642578"/>
      <use xlink:href="#DejaVuSans-65" x="737.927734"/>
      <use xlink:href="#DejaVuSans-74" x="799.451172"/>
      <use xlink:href="#DejaVuSans-73" x="838.660156"/>
      <use xlink:href="#DejaVuSans-20" x="890.759766"/>
      <use xlink:href="#DejaVuSans-73" x="922.546875"/>
      <use xlink:href="#DejaVuSans-6f" x="974.646484"/>
      <use xlink:href="#DejaVuSans-6c" x="1035.828125"/>
      <use xlink:href="#DejaVuSans-64" x="1063.611328"/>
     </g>
    </g>
   </g>
   <g id="line2d_39">
    <path d="M 57.6 52.662857 
L 414.72 52.662857 
" clip-path="url(#p561ff772c9)" style="fill: none; stroke-dasharray: 5.55,2.4; stroke-dashoffset: 0; stroke: #32cd32; stroke-width: 1.5"/>
   </g>
   <g id="patch_3">
    <path d="M 57.6 276.48 
L 57.6 41.472 
" style="fill: none; stroke: #000000; stroke-width: 0.8; stroke-linejoin: miter; stroke-linecap: square"/>
   </g>
   <g id="patch_4">
    <path d="M 414.72 276.48 
L 414.72 41.472 
" style="fill: none; stroke: #000000; stroke-width: 0.8; stroke-linejoin: miter; stroke-linecap: square"/>
   </g>
   <g id="patch_5">
    <path d="M 57.6 276.48 
L 414.72 276.48 
" style="fill: none; stroke: #000000; stroke-width: 0.8; stroke-linejoin: miter; stroke-linecap: square"/>
   </g>
   <g id="patch_6">
    <path d="M 57.6 41.472 
L 414.72 41.472 
" style="fill: none; stroke: #000000; stroke-width: 0.8; stroke-linejoin: miter; stroke-linecap: square"/>
   </g>
   <g id="text_18">
    <!-- MCH Tickets -->
    <g style="fill: #ffffff" transform="translate(199.504687 35.472)scale(0.12 -0.12)">
     <defs>
      <path id="DejaVuSans-43" d="M 4122 4306 
L 4122 3641 
Q 3803 3938 3442 4084 
Q 3081 4231 2675 4231 
Q 1875 4231 1450 3742 
Q 1025 3253 1025 2328 
Q 1025 1406 1450 917 
Q 1875 428 2675 428 
Q 3081 428 3442 575 
Q 3803 722 4122 1019 
L 4122 359 
Q 3791 134 3420 21 
Q 3050 -91 2638 -91 
Q 1578 -91 968 557 
Q 359 1206 359 2328 
Q 359 3453 968 4101 
Q 1578 4750 2638 4750 
Q 3056 4750 3426 4639 
Q 3797 4528 4122 4306 
z
" transform="scale(0.015625)"/>
      <path id="DejaVuSans-48" d="M 628 4666 
L 1259 4666 
L 1259 2753 
L 3553 2753 
L 3553 4666 
L 4184 4666 
L 4184 0 
L 3553 0 
L 3553 2222 
L 1259 2222 
L 1259 0 
L 628 0 
L 628 4666 
z
" transform="scale(0.015625)"/>
      <path id="DejaVuSans-54" d="M -19 4666 
L 3928 4666 
L 3928 4134 
L 2272 4134 
L 2272 0 
L 1638 0 
L 1638 4134 
L -19 4134 
L -19 4666 
z
" transform="scale(0.015625)"/>
     </defs>
     <use xlink:href="#DejaVuSans-4d"/>
     <use xlink:href="#DejaVuSans-43" x="86.279297"/>
     <use xlink:href="#DejaVuSans-48" x="156.103516"/>
     <use xlink:href="#DejaVuSans-20" x="231.298828"/>
     <use xlink:href="#DejaVuSans-54" x="263.085938"/>
     <use xlink:href="#DejaVuSans-69" x="321.044922"/>
     <use xlink:href="#DejaVuSans-63" x="348.828125"/>
     <use xlink:href="#DejaVuSans-6b" x="403.808594"/>
     <use xlink:href="#DejaVuSans-65" x="458.09375"/>
     <use xlink:href="#DejaVuSans-74" x="519.617188"/>
     <use xlink:href="#DejaVuSans-73" x="558.826172"/>
    </g>
   </g>
   <g id="legend_1">
    <g id="patch_7">
     <path d="M 64.6 93.506375 
L 244.389062 93.506375 
Q 246.389062 93.506375 246.389062 91.506375 
L 246.389062 48.472 
Q 246.389062 46.472 244.389062 46.472 
L 64.6 46.472 
Q 62.6 46.472 62.6 48.472 
L 62.6 91.506375 
Q 62.6 93.506375 64.6 93.506375 
z
" style="fill: #ffffff; opacity: 0.8; stroke: #cccccc; stroke-linejoin: miter"/>
    </g>
    <g id="patch_8">
     <path d="M 66.6 58.070437 
L 86.6 58.070437 
L 86.6 51.070437 
L 66.6 51.070437 
z
" style="fill: #fa448c; fill-opacity: 0.8"/>
    </g>
    <g id="text_19">
     <!-- Early-BirdTickets -->
     <g transform="translate(94.6 58.070437)scale(0.1 -0.1)">
      <defs>
       <path id="DejaVuSans-45" d="M 628 4666 
L 3578 4666 
L 3578 4134 
L 1259 4134 
L 1259 2753 
L 3481 2753 
L 3481 2222 
L 1259 2222 
L 1259 531 
L 3634 531 
L 3634 0 
L 628 0 
L 628 4666 
z
" transform="scale(0.015625)"/>
       <path id="DejaVuSans-61" d="M 2194 1759 
Q 1497 1759 1228 1600 
Q 959 1441 959 1056 
Q 959 750 1161 570 
Q 1363 391 1709 391 
Q 2188 391 2477 730 
Q 2766 1069 2766 1631 
L 2766 1759 
L 2194 1759 
z
M 3341 1997 
L 3341 0 
L 2766 0 
L 2766 531 
Q 2569 213 2275 61 
Q 1981 -91 1556 -91 
Q 1019 -91 701 211 
Q 384 513 384 1019 
Q 384 1609 779 1909 
Q 1175 2209 1959 2209 
L 2766 2209 
L 2766 2266 
Q 2766 2663 2505 2880 
Q 2244 3097 1772 3097 
Q 1472 3097 1187 3025 
Q 903 2953 641 2809 
L 641 3341 
Q 956 3463 1253 3523 
Q 1550 3584 1831 3584 
Q 2591 3584 2966 3190 
Q 3341 2797 3341 1997 
z
" transform="scale(0.015625)"/>
       <path id="DejaVuSans-79" d="M 2059 -325 
Q 1816 -950 1584 -1140 
Q 1353 -1331 966 -1331 
L 506 -1331 
L 506 -850 
L 844 -850 
Q 1081 -850 1212 -737 
Q 1344 -625 1503 -206 
L 1606 56 
L 191 3500 
L 800 3500 
L 1894 763 
L 2988 3500 
L 3597 3500 
L 2059 -325 
z
" transform="scale(0.015625)"/>
       <path id="DejaVuSans-2d" d="M 313 2009 
L 1997 2009 
L 1997 1497 
L 313 1497 
L 313 2009 
z
" transform="scale(0.015625)"/>
       <path id="DejaVuSans-42" d="M 1259 2228 
L 1259 519 
L 2272 519 
Q 2781 519 3026 730 
Q 3272 941 3272 1375 
Q 3272 1813 3026 2020 
Q 2781 2228 2272 2228 
L 1259 2228 
z
M 1259 4147 
L 1259 2741 
L 2194 2741 
Q 2656 2741 2882 2914 
Q 3109 3088 3109 3444 
Q 3109 3797 2882 3972 
Q 2656 4147 2194 4147 
L 1259 4147 
z
M 628 4666 
L 2241 4666 
Q 2963 4666 3353 4366 
Q 3744 4066 3744 3513 
Q 3744 3084 3544 2831 
Q 3344 2578 2956 2516 
Q 3422 2416 3680 2098 
Q 3938 1781 3938 1306 
Q 3938 681 3513 340 
Q 3088 0 2303 0 
L 628 0 
L 628 4666 
z
" transform="scale(0.015625)"/>
      </defs>
      <use xlink:href="#DejaVuSans-45"/>
      <use xlink:href="#DejaVuSans-61" x="63.183594"/>
      <use xlink:href="#DejaVuSans-72" x="124.462891"/>
      <use xlink:href="#DejaVuSans-6c" x="165.576172"/>
      <use xlink:href="#DejaVuSans-79" x="193.359375"/>
      <use xlink:href="#DejaVuSans-2d" x="250.789062"/>
      <use xlink:href="#DejaVuSans-42" x="283.248047"/>
      <use xlink:href="#DejaVuSans-69" x="351.851562"/>
      <use xlink:href="#DejaVuSans-72" x="379.634766"/>
      <use xlink:href="#DejaVuSans-64" x="418.998047"/>
      <use xlink:href="#DejaVuSans-54" x="482.474609"/>
      <use xlink:href="#DejaVuSans-69" x="540.433594"/>
      <use xlink:href="#DejaVuSans-63" x="568.216797"/>
      <use xlink:href="#DejaVuSans-6b" x="623.197266"/>
      <use xlink:href="#DejaVuSans-65" x="677.482422"/>
      <use xlink:href="#DejaVuSans-74" x="739.005859"/>
      <use xlink:href="#DejaVuSans-73" x="778.214844"/>
     </g>
    </g>
    <g id="patch_9">
     <path d="M 66.6 72.748562 
L 86.6 72.748562 
L 86.6 65.748562 
L 66.6 65.748562 
z
" style="fill: #43b5a0; fill-opacity: 0.8"/>
    </g>
    <g id="text_20">
     <!-- RegularTickets -->
     <g transform="translate(94.6 72.748562)scale(0.1 -0.1)">
      <defs>
       <path id="DejaVuSans-52" d="M 2841 2188 
Q 3044 2119 3236 1894 
Q 3428 1669 3622 1275 
L 4263 0 
L 3584 0 
L 2988 1197 
Q 2756 1666 2539 1819 
Q 2322 1972 1947 1972 
L 1259 1972 
L 1259 0 
L 628 0 
L 628 4666 
L 2053 4666 
Q 2853 4666 3247 4331 
Q 3641 3997 3641 3322 
Q 3641 2881 3436 2590 
Q 3231 2300 2841 2188 
z
M 1259 4147 
L 1259 2491 
L 2053 2491 
Q 2509 2491 2742 2702 
Q 2975 2913 2975 3322 
Q 2975 3731 2742 3939 
Q 2509 4147 2053 4147 
L 1259 4147 
z
" transform="scale(0.015625)"/>
       <path id="DejaVuSans-67" d="M 2906 1791 
Q 2906 2416 2648 2759 
Q 2391 3103 1925 3103 
Q 1463 3103 1205 2759 
Q 947 2416 947 1791 
Q 947 1169 1205 825 
Q 1463 481 1925 481 
Q 2391 481 2648 825 
Q 2906 1169 2906 1791 
z
M 3481 434 
Q 3481 -459 3084 -895 
Q 2688 -1331 1869 -1331 
Q 1566 -1331 1297 -1286 
Q 1028 -1241 775 -1147 
L 775 -588 
Q 1028 -725 1275 -790 
Q 1522 -856 1778 -856 
Q 2344 -856 2625 -561 
Q 2906 -266 2906 331 
L 2906 616 
Q 2728 306 2450 153 
Q 2172 0 1784 0 
Q 1141 0 747 490 
Q 353 981 353 1791 
Q 353 2603 747 3093 
Q 1141 3584 1784 3584 
Q 2172 3584 2450 3431 
Q 2728 3278 2906 2969 
L 2906 3500 
L 3481 3500 
L 3481 434 
z
" transform="scale(0.015625)"/>
      </defs>
      <use xlink:href="#DejaVuSans-52"/>
      <use xlink:href="#DejaVuSans-65" x="64.982422"/>
      <use xlink:href="#DejaVuSans-67" x="126.505859"/>
      <use xlink:href="#DejaVuSans-75" x="189.982422"/>
      <use xlink:href="#DejaVuSans-6c" x="253.361328"/>
      <use xlink:href="#DejaVuSans-61" x="281.144531"/>
      <use xlink:href="#DejaVuSans-72" x="342.423828"/>
      <use xlink:href="#DejaVuSans-54" x="383.537109"/>
      <use xlink:href="#DejaVuSans-69" x="441.496094"/>
      <use xlink:href="#DejaVuSans-63" x="469.279297"/>
      <use xlink:href="#DejaVuSans-6b" x="524.259766"/>
      <use xlink:href="#DejaVuSans-65" x="578.544922"/>
      <use xlink:href="#DejaVuSans-74" x="640.068359"/>
      <use xlink:href="#DejaVuSans-73" x="679.277344"/>
     </g>
    </g>
    <g id="line2d_40">
     <path d="M 66.6 83.926687 
L 76.6 83.926687 
L 86.6 83.926687 
" style="fill: none; stroke-dasharray: 5.55,2.4; stroke-dashoffset: 0; stroke: #32cd32; stroke-width: 1.5"/>
    </g>
    <g id="text_21">
     <!-- Required tickets w/ donations -->
     <g transform="translate(94.6 87.426687)scale(0.1 -0.1)">
      <defs>
       <path id="DejaVuSans-71" d="M 947 1747 
Q 947 1113 1208 752 
Q 1469 391 1925 391 
Q 2381 391 2643 752 
Q 2906 1113 2906 1747 
Q 2906 2381 2643 2742 
Q 2381 3103 1925 3103 
Q 1469 3103 1208 2742 
Q 947 2381 947 1747 
z
M 2906 525 
Q 2725 213 2448 61 
Q 2172 -91 1784 -91 
Q 1150 -91 751 415 
Q 353 922 353 1747 
Q 353 2572 751 3078 
Q 1150 3584 1784 3584 
Q 2172 3584 2448 3432 
Q 2725 3281 2906 2969 
L 2906 3500 
L 3481 3500 
L 3481 -1331 
L 2906 -1331 
L 2906 525 
z
" transform="scale(0.015625)"/>
       <path id="DejaVuSans-77" d="M 269 3500 
L 844 3500 
L 1563 769 
L 2278 3500 
L 2956 3500 
L 3675 769 
L 4391 3500 
L 4966 3500 
L 4050 0 
L 3372 0 
L 2619 2869 
L 1863 0 
L 1184 0 
L 269 3500 
z
" transform="scale(0.015625)"/>
      </defs>
      <use xlink:href="#DejaVuSans-52"/>
      <use xlink:href="#DejaVuSans-65" x="64.982422"/>
      <use xlink:href="#DejaVuSans-71" x="126.505859"/>
      <use xlink:href="#DejaVuSans-75" x="189.982422"/>
      <use xlink:href="#DejaVuSans-69" x="253.361328"/>
      <use xlink:href="#DejaVuSans-72" x="281.144531"/>
      <use xlink:href="#DejaVuSans-65" x="320.007812"/>
      <use xlink:href="#DejaVuSans-64" x="381.53125"/>
      <use xlink:href="#DejaVuSans-20" x="445.007812"/>
      <use xlink:href="#DejaVuSans-74" x="476.794922"/>
      <use xlink:href="#DejaVuSans-69" x="516.003906"/>
      <use xlink:href="#DejaVuSans-63" x="543.787109"/>
      <use xlink:href="#DejaVuSans-6b" x="598.767578"/>
      <use xlink:href="#DejaVuSans-65" x="653.052734"/>
      <use xlink:href="#DejaVuSans-74" x="714.576172"/>
      <use xlink:href="#DejaVuSans-73" x="753.785156"/>
      <use xlink:href="#DejaVuSans-20" x="805.884766"/>
      <use xlink:href="#DejaVuSans-77" x="837.671875"/>
      <use xlink:href="#DejaVuSans-2f" x="919.458984"/>
      <use xlink:href="#DejaVuSans-20" x="953.150391"/>
      <use xlink:href="#DejaVuSans-64" x="984.9375"/>
      <use xlink:href="#DejaVuSans-6f" x="1048.414062"/>
      <use xlink:href="#DejaVuSans-6e" x="1109.595703"/>
      <use xlink:href="#DejaVuSans-61" x="1172.974609"/>
      <use xlink:href="#DejaVuSans-74" x="1234.253906"/>
      <use xlink:href="#DejaVuSans-69" x="1273.462891"/>
      <use xlink:href="#DejaVuSans-6f" x="1301.246094"/>
      <use xlink:href="#DejaVuSans-6e" x="1362.427734"/>
      <use xlink:href="#DejaVuSans-73" x="1425.806641"/>
     </g>
    </g>
   </g>
  </g>
 </g>
 <defs>
  <clipPath id="p561ff772c9">
   <rect x="57.6" y="41.472" width="357.12" height="235.008"/>
  </clipPath>
 </defs>
</svg>
