<?xml version="1.0" encoding="utf-8" standalone="no"?>
<!DOCTYPE svg PUBLIC "-//W3C//DTD SVG 1.1//EN"
  "http://www.w3.org/Graphics/SVG/1.1/DTD/svg11.dtd">
<svg xmlns:xlink="http://www.w3.org/1999/xlink" width="460.8pt" height="345.6pt" viewBox="0 0 460.8 345.6" xmlns="http://www.w3.org/2000/svg" version="1.1">
 <metadata>
  <rdf:RDF xmlns:dc="http://purl.org/dc/elements/1.1/" xmlns:cc="http://creativecommons.org/ns#" xmlns:rdf="http://www.w3.org/1999/02/22-rdf-syntax-ns#">
   <cc:Work>
    <dc:type rdf:resource="http://purl.org/dc/dcmitype/StillImage"/>
    <dc:date>2022-01-18T05:19:07.157794</dc:date>
    <dc:format>image/svg+xml</dc:format>
    <dc:creator>
     <cc:Agent>
      <dc:title>Matplotlib v3.5.1, https://matplotlib.org/</dc:title>
     </cc:Agent>
    </dc:creator>
   </cc:Work>
  </rdf:RDF>
 </metadata>
 <defs>
  <style type="text/css">*{stroke-linejoin: round; stroke-linecap: butt}</style>
 </defs>
 <g id="figure_1">
  <g id="patch_1">
   <path d="M 0 345.6 
L 460.8 345.6 
L 460.8 0 
L 0 0 
z
" style="fill: #491d88"/>
  </g>
  <g id="axes_1">
   <g id="patch_2">
    <path d="M 57.6 276.48 
L 414.72 276.48 
L 414.72 41.472 
L 57.6 41.472 
z
" style="fill: #fec859"/>
   </g>
   <g id="PolyCollection_1">
    <path d="M 73.832727 276.48 
L 73.832727 276.48 
L 73.832727 276.48 
L 73.832727 276.48 
L 74.322167 276.48 
L 74.322167 276.48 
L 74.811607 276.48 
L 74.811607 276.48 
L 75.301047 276.48 
L 75.301047 276.48 
L 75.790487 276.48 
L 75.790487 276.48 
L 76.279926 276.48 
L 76.279926 276.48 
L 76.769366 276.48 
L 76.769366 276.48 
L 77.258806 276.48 
L 77.258806 276.48 
L 77.748246 276.48 
L 77.748246 276.48 
L 78.237686 276.48 
L 78.237686 276.48 
L 78.727126 276.48 
L 78.727126 276.48 
L 79.216565 276.48 
L 79.216565 276.48 
L 79.706005 276.48 
L 79.706005 276.48 
L 80.195445 276.48 
L 80.195445 276.48 
L 80.684885 276.48 
L 80.684885 276.48 
L 81.174325 276.48 
L 81.174325 276.48 
L 81.663765 276.48 
L 81.663765 276.48 
L 82.642644 276.48 
L 82.642644 276.48 
L 83.132084 276.48 
L 83.132084 276.48 
L 83.621524 276.48 
L 83.621524 276.48 
L 84.110964 276.48 
L 84.110964 276.48 
L 84.600404 276.48 
L 84.600404 276.48 
L 85.089843 276.48 
L 85.089843 276.48 
L 85.579283 276.48 
L 85.579283 276.48 
L 86.068723 276.48 
L 86.068723 276.48 
L 86.558163 276.48 
L 86.558163 276.48 
L 87.047603 276.48 
L 87.047603 276.48 
L 88.026482 276.48 
L 88.026482 276.48 
L 89.005362 276.48 
L 89.005362 276.48 
L 89.494802 276.48 
L 89.494802 276.48 
L 89.984242 276.48 
L 89.984242 276.48 
L 93.410321 276.48 
L 93.410321 276.48 
L 93.89976 276.48 
L 93.89976 276.48 
L 94.3892 276.48 
L 94.3892 276.48 
L 94.87864 276.48 
L 94.87864 276.48 
L 95.36808 276.48 
L 95.36808 276.48 
L 95.85752 276.48 
L 95.85752 276.48 
L 96.346959 276.48 
L 96.346959 276.48 
L 96.836399 276.48 
L 96.836399 276.48 
L 97.325839 276.48 
L 97.325839 276.48 
L 97.815279 276.48 
L 97.815279 276.48 
L 98.304719 276.48 
L 98.304719 276.48 
L 98.794159 276.48 
L 98.794159 276.48 
L 99.283598 276.48 
L 99.283598 276.48 
L 99.773038 276.48 
L 99.773038 276.48 
L 100.262478 276.48 
L 100.262478 276.48 
L 100.751918 276.48 
L 100.751918 276.48 
L 101.241358 276.48 
L 101.241358 276.48 
L 101.730798 276.48 
L 101.730798 276.48 
L 104.667437 276.48 
L 104.667437 276.48 
L 106.135756 276.48 
L 106.135756 276.48 
L 106.625196 276.48 
L 106.625196 276.48 
L 107.114636 276.48 
L 107.114636 276.48 
L 108.093515 276.48 
L 108.093515 276.48 
L 108.582955 276.48 
L 108.582955 276.48 
L 109.072395 276.48 
L 109.072395 276.48 
L 109.561835 276.48 
L 109.561835 276.48 
L 110.051275 276.48 
L 110.051275 276.48 
L 110.540715 276.48 
L 110.540715 276.48 
L 111.030154 276.48 
L 111.030154 276.48 
L 111.519594 276.48 
L 111.519594 276.48 
L 112.009034 276.48 
L 112.009034 276.48 
L 112.498474 276.48 
L 112.498474 276.48 
L 112.987914 276.48 
L 112.987914 276.48 
L 113.477354 276.48 
L 113.477354 276.48 
L 117.882312 276.48 
L 117.882312 276.48 
L 118.861192 276.48 
L 118.861192 276.48 
L 119.350632 276.48 
L 119.350632 276.48 
L 119.840071 276.48 
L 119.840071 276.48 
L 120.329511 276.48 
L 120.329511 276.48 
L 122.287271 276.48 
L 122.287271 276.48 
L 130.607748 276.48 
L 130.607748 276.48 
L 131.586627 276.48 
L 131.586627 276.48 
L 132.076067 276.48 
L 132.076067 276.48 
L 133.054947 276.48 
L 133.054947 276.48 
L 133.544387 276.48 
L 133.544387 276.48 
L 135.012706 276.48 
L 135.012706 276.48 
L 136.970465 276.48 
L 136.970465 276.48 
L 137.459905 276.48 
L 137.459905 276.48 
L 141.375424 276.48 
L 141.375424 276.48 
L 141.864864 276.48 
L 141.864864 276.48 
L 142.354304 276.48 
L 142.354304 276.48 
L 142.843743 276.48 
L 142.843743 276.48 
L 143.333183 276.48 
L 143.333183 276.48 
L 143.822623 276.48 
L 143.822623 276.48 
L 144.312063 276.48 
L 144.312063 276.48 
L 144.801503 276.48 
L 144.801503 276.48 
L 145.290943 276.48 
L 145.290943 276.48 
L 146.269822 276.48 
L 146.269822 276.48 
L 146.759262 276.48 
L 146.759262 276.48 
L 147.248702 276.48 
L 147.248702 276.48 
L 147.738142 276.48 
L 147.738142 276.48 
L 148.227582 276.48 
L 148.227582 276.48 
L 148.717021 276.48 
L 148.717021 276.48 
L 149.695901 276.48 
L 149.695901 276.48 
L 151.65366 276.48 
L 151.65366 276.48 
L 153.61142 276.48 
L 153.61142 276.48 
L 154.590299 276.48 
L 154.590299 276.48 
L 155.569179 276.48 
L 155.569179 276.48 
L 156.548059 276.48 
L 156.548059 276.48 
L 157.037499 276.48 
L 157.037499 276.48 
L 158.016378 276.48 
L 158.016378 276.48 
L 158.505818 276.48 
L 158.505818 276.48 
L 158.995258 276.48 
L 158.995258 276.48 
L 159.484698 276.48 
L 159.484698 276.48 
L 159.974137 276.48 
L 159.974137 276.48 
L 160.463577 276.48 
L 160.463577 276.48 
L 164.379096 276.48 
L 164.379096 276.48 
L 164.868536 276.48 
L 164.868536 276.48 
L 165.357976 276.48 
L 165.357976 276.48 
L 165.847415 276.48 
L 165.847415 276.48 
L 166.336855 276.48 
L 166.336855 276.48 
L 166.826295 276.48 
L 166.826295 276.48 
L 167.315735 276.48 
L 167.315735 276.48 
L 167.805175 276.48 
L 167.805175 276.48 
L 168.784054 276.48 
L 168.784054 276.48 
L 169.762934 276.48 
L 169.762934 276.48 
L 170.741814 276.48 
L 170.741814 276.48 
L 171.231254 276.48 
L 171.231254 276.48 
L 171.720693 276.48 
L 171.720693 276.48 
L 172.210133 276.48 
L 172.210133 276.48 
L 173.189013 276.48 
L 173.189013 276.48 
L 173.678453 276.48 
L 173.678453 276.48 
L 174.167893 276.48 
L 174.167893 276.48 
L 176.125652 276.48 
L 176.125652 276.48 
L 177.593971 276.48 
L 177.593971 276.48 
L 178.083411 276.48 
L 178.083411 276.48 
L 180.041171 276.48 
L 180.041171 276.48 
L 181.02005 276.48 
L 181.02005 276.48 
L 181.50949 276.48 
L 181.50949 276.48 
L 181.99893 276.48 
L 181.99893 276.48 
L 182.48837 276.48 
L 182.48837 276.48 
L 182.97781 276.48 
L 182.97781 276.48 
L 183.467249 276.48 
L 183.467249 276.48 
L 184.446129 276.48 
L 184.446129 276.48 
L 187.382768 276.48 
L 187.382768 276.48 
L 187.872208 276.48 
L 187.872208 276.48 
L 188.361648 276.48 
L 188.361648 276.48 
L 189.340527 276.48 
L 189.340527 276.48 
L 189.829967 276.48 
L 189.829967 276.48 
L 190.808847 276.48 
L 190.808847 276.48 
L 191.298287 276.48 
L 191.298287 276.48 
L 192.766606 276.48 
L 192.766606 276.48 
L 193.256046 276.48 
L 193.256046 276.48 
L 194.234926 276.48 
L 194.234926 276.48 
L 194.724365 276.48 
L 194.724365 276.48 
L 195.213805 276.48 
L 195.213805 276.48 
L 195.703245 276.48 
L 195.703245 276.48 
L 196.192685 276.48 
L 196.192685 276.48 
L 201.087083 276.48 
L 201.087083 276.48 
L 202.065963 276.48 
L 202.065963 276.48 
L 202.555403 276.48 
L 202.555403 276.48 
L 204.023722 276.48 
L 204.023722 276.48 
L 204.513162 276.48 
L 204.513162 276.48 
L 205.002602 276.48 
L 205.002602 276.48 
L 206.470921 276.48 
L 206.470921 276.48 
L 206.960361 276.48 
L 206.960361 276.48 
L 211.85476 276.48 
L 211.85476 276.48 
L 212.833639 276.48 
L 212.833639 276.48 
L 213.812519 276.48 
L 213.812519 276.48 
L 214.301959 276.48 
L 214.301959 276.48 
L 214.791399 276.48 
L 214.791399 276.48 
L 215.280838 276.48 
L 215.280838 276.48 
L 215.770278 276.48 
L 215.770278 276.48 
L 216.749158 276.48 
L 216.749158 276.48 
L 217.728038 276.48 
L 217.728038 276.48 
L 218.706917 276.48 
L 218.706917 276.48 
L 219.196357 276.48 
L 219.196357 276.48 
L 219.685797 276.48 
L 219.685797 276.48 
L 223.601316 276.48 
L 223.601316 276.48 
L 225.069635 276.48 
L 225.069635 276.48 
L 225.559075 276.48 
L 225.559075 276.48 
L 227.027394 276.48 
L 227.027394 276.48 
L 228.006274 276.48 
L 228.006274 276.48 
L 228.495714 276.48 
L 228.495714 276.48 
L 228.985154 276.48 
L 228.985154 276.48 
L 229.474593 276.48 
L 229.474593 276.48 
L 230.453473 276.48 
L 230.453473 276.48 
L 234.858432 276.48 
L 234.858432 276.48 
L 237.305631 276.48 
L 237.305631 276.48 
L 237.795071 276.48 
L 237.795071 276.48 
L 239.26339 276.48 
L 239.26339 276.48 
L 240.24227 276.48 
L 240.24227 276.48 
L 240.73171 276.48 
L 240.73171 276.48 
L 241.221149 276.48 
L 241.221149 276.48 
L 241.710589 276.48 
L 241.710589 276.48 
L 242.200029 276.48 
L 242.200029 276.48 
L 242.689469 276.48 
L 242.689469 276.48 
L 246.604988 276.48 
L 246.604988 276.48 
L 247.583867 276.48 
L 247.583867 276.48 
L 248.073307 276.48 
L 248.073307 276.48 
L 248.562747 276.48 
L 248.562747 276.48 
L 249.052187 276.48 
L 249.052187 276.48 
L 249.541627 276.48 
L 249.541627 276.48 
L 250.031066 276.48 
L 250.031066 276.48 
L 250.520506 276.48 
L 250.520506 276.48 
L 251.009946 276.48 
L 251.009946 276.48 
L 251.988826 276.48 
L 251.988826 276.48 
L 258.351543 276.48 
L 258.351543 276.48 
L 260.309303 276.48 
L 260.309303 276.48 
L 261.288182 276.48 
L 261.288182 276.48 
L 261.777622 276.48 
L 261.777622 276.48 
L 263.245942 276.48 
L 263.245942 276.48 
L 263.735382 276.48 
L 263.735382 276.48 
L 264.224821 276.48 
L 264.224821 276.48 
L 265.693141 276.48 
L 265.693141 276.48 
L 267.16146 276.48 
L 267.16146 276.48 
L 270.587539 276.48 
L 270.587539 276.48 
L 271.076979 276.48 
L 271.076979 276.48 
L 271.566419 276.48 
L 271.566419 276.48 
L 272.055859 276.48 
L 272.055859 276.48 
L 272.545299 276.48 
L 272.545299 276.48 
L 274.013618 276.48 
L 274.013618 276.48 
L 275.481938 276.48 
L 275.481938 276.48 
L 276.950257 276.48 
L 276.950257 276.48 
L 284.781294 276.48 
L 284.781294 276.48 
L 286.739054 276.48 
L 286.739054 276.48 
L 287.228494 276.48 
L 287.228494 276.48 
L 296.03841 276.48 
L 296.03841 276.48 
L 296.52785 276.48 
L 296.52785 276.48 
L 297.01729 276.48 
L 297.01729 276.48 
L 297.99617 276.48 
L 297.99617 276.48 
L 298.48561 276.48 
L 298.48561 276.48 
L 298.975049 276.48 
L 298.975049 276.48 
L 299.953929 276.48 
L 299.953929 276.48 
L 304.358888 276.48 
L 304.358888 276.48 
L 305.337767 276.48 
L 305.337767 276.48 
L 306.806087 276.48 
L 306.806087 276.48 
L 307.784966 276.48 
L 307.784966 276.48 
L 309.742726 276.48 
L 309.742726 276.48 
L 312.679365 276.48 
L 312.679365 276.48 
L 319.042083 276.48 
L 319.042083 276.48 
L 319.531522 276.48 
L 319.531522 276.48 
L 320.999842 276.48 
L 320.999842 276.48 
L 321.978721 276.48 
L 321.978721 276.48 
L 322.468161 276.48 
L 322.468161 276.48 
L 323.447041 276.48 
L 323.447041 276.48 
L 327.851999 276.48 
L 327.851999 276.48 
L 329.320319 276.48 
L 329.320319 276.48 
L 330.299199 276.48 
L 330.299199 276.48 
L 330.788638 276.48 
L 330.788638 276.48 
L 331.278078 276.48 
L 331.278078 276.48 
L 333.235838 276.48 
L 333.235838 276.48 
L 334.704157 276.48 
L 334.704157 276.48 
L 335.193597 276.48 
L 335.193597 276.48 
L 335.683037 276.48 
L 335.683037 276.48 
L 336.172477 276.48 
L 336.172477 276.48 
L 341.066875 276.48 
L 341.066875 276.48 
L 342.045755 276.48 
L 342.045755 276.48 
L 344.492954 276.48 
L 344.492954 276.48 
L 346.940153 276.48 
L 346.940153 276.48 
L 347.429593 276.48 
L 347.429593 276.48 
L 347.919033 276.48 
L 347.919033 276.48 
L 348.897912 276.48 
L 348.897912 276.48 
L 351.345111 276.48 
L 351.345111 276.48 
L 352.323991 276.48 
L 352.323991 276.48 
L 354.28175 276.48 
L 354.28175 276.48 
L 358.197269 276.48 
L 358.197269 276.48 
L 360.155028 276.48 
L 360.155028 276.48 
L 363.036523 276.48 
L 363.036523 276.48 
L 363.23717 276.48 
L 363.23717 276.48 
L 363.412275 276.48 
L 363.412275 276.48 
L 363.759448 276.48 
L 363.759448 276.48 
L 363.979614 276.48 
L 363.979614 276.48 
L 364.210677 276.48 
L 364.210677 276.48 
L 364.38372 276.48 
L 364.38372 276.48 
L 364.74061 276.48 
L 364.74061 276.48 
L 364.935173 276.48 
L 364.935173 276.48 
L 365.197087 276.48 
L 365.197087 276.48 
L 365.389533 276.48 
L 365.389533 276.48 
L 365.695916 276.48 
L 365.695916 276.48 
L 365.888583 276.48 
L 365.888583 276.48 
L 366.148016 276.48 
L 366.148016 276.48 
L 366.32959 276.48 
L 366.32959 276.48 
L 366.754644 276.48 
L 366.754644 276.48 
L 367.030565 276.48 
L 367.030565 276.48 
L 367.348376 276.48 
L 367.348376 276.48 
L 367.372562 276.48 
L 367.372562 276.48 
L 367.38681 276.48 
L 367.38681 276.48 
L 367.62849 276.48 
L 367.62849 276.48 
L 367.81318 276.48 
L 367.81318 276.48 
L 368.137708 276.48 
L 368.137708 276.48 
L 368.347507 276.48 
L 368.347507 276.48 
L 368.700665 276.48 
L 368.700665 276.48 
L 369.398616 276.48 
L 369.398616 276.48 
L 369.41882 276.48 
L 369.41882 276.48 
L 369.443787 276.48 
L 369.443787 276.48 
L 369.627196 276.48 
L 369.627196 276.48 
L 369.834742 276.48 
L 369.834742 276.48 
L 370.060146 276.48 
L 370.060146 276.48 
L 370.24589 276.48 
L 370.24589 276.48 
L 370.586805 276.48 
L 370.586805 276.48 
L 371.046235 276.48 
L 371.046235 276.48 
L 376.483299 276.48 
L 376.483299 276.48 
L 377.893816 276.48 
L 377.893816 276.48 
L 379.09593 276.48 
L 379.09593 276.48 
L 379.374879 276.48 
L 379.374879 276.48 
L 380.743218 276.48 
L 380.743218 276.48 
L 381.090182 276.48 
L 381.090182 276.48 
L 381.370523 276.48 
L 381.370523 276.48 
L 381.808143 276.48 
L 381.808143 276.48 
L 389.199615 276.48 
L 389.199615 276.48 
L 392.205906 276.48 
L 392.205906 276.48 
L 394.271318 276.48 
L 394.271318 276.48 
L 394.545109 276.48 
L 394.545109 276.48 
L 395.54513 276.48 
L 395.54513 276.48 
L 396.406271 276.48 
L 396.406271 276.48 
L 398.487273 276.48 
L 398.487273 276.48 
L 398.487273 200.083749 
L 398.487273 200.083749 
L 398.487273 200.083749 
L 396.406271 200.083749 
L 396.406271 200.083749 
L 395.54513 200.083749 
L 395.54513 200.083749 
L 394.545109 200.083749 
L 394.545109 200.083749 
L 394.271318 200.083749 
L 394.271318 200.083749 
L 392.205906 200.083749 
L 392.205906 200.083749 
L 389.199615 200.083749 
L 389.199615 200.083749 
L 381.808143 200.083749 
L 381.808143 200.083749 
L 381.370523 200.083749 
L 381.370523 200.083749 
L 381.090182 200.083749 
L 381.090182 200.083749 
L 380.743218 200.083749 
L 380.743218 200.083749 
L 379.374879 200.083749 
L 379.374879 200.083749 
L 379.09593 200.083749 
L 379.09593 200.083749 
L 377.893816 200.083749 
L 377.893816 200.083749 
L 376.483299 200.083749 
L 376.483299 200.083749 
L 371.046235 200.083749 
L 371.046235 200.083749 
L 370.586805 200.083749 
L 370.586805 200.083749 
L 370.24589 200.083749 
L 370.24589 200.083749 
L 370.060146 200.083749 
L 370.060146 200.083749 
L 369.834742 200.083749 
L 369.834742 200.083749 
L 369.627196 200.083749 
L 369.627196 200.083749 
L 369.443787 200.083749 
L 369.443787 200.083749 
L 369.41882 200.083749 
L 369.41882 200.083749 
L 369.398616 200.083749 
L 369.398616 200.083749 
L 368.700665 200.083749 
L 368.700665 200.083749 
L 368.347507 200.083749 
L 368.347507 200.083749 
L 368.137708 200.083749 
L 368.137708 200.083749 
L 367.81318 200.083749 
L 367.81318 200.083749 
L 367.62849 200.083749 
L 367.62849 200.083749 
L 367.38681 200.083749 
L 367.38681 200.083749 
L 367.372562 200.083749 
L 367.372562 200.083749 
L 367.348376 200.083749 
L 367.348376 200.083749 
L 367.030565 200.083749 
L 367.030565 200.083749 
L 366.754644 200.083749 
L 366.754644 200.083749 
L 366.32959 200.083749 
L 366.32959 200.083749 
L 366.148016 200.083749 
L 366.148016 200.083749 
L 365.888583 200.083749 
L 365.888583 200.083749 
L 365.695916 200.083749 
L 365.695916 200.083749 
L 365.389533 200.083749 
L 365.389533 200.083749 
L 365.197087 200.083749 
L 365.197087 200.083749 
L 364.935173 200.083749 
L 364.935173 200.083749 
L 364.74061 200.083749 
L 364.74061 200.083749 
L 364.38372 200.083749 
L 364.38372 200.083749 
L 364.210677 200.083749 
L 364.210677 200.083749 
L 363.979614 200.083749 
L 363.979614 200.083749 
L 363.759448 200.083749 
L 363.759448 200.083749 
L 363.412275 200.083749 
L 363.412275 200.083749 
L 363.23717 200.083749 
L 363.23717 200.083749 
L 363.036523 200.083749 
L 363.036523 202.023497 
L 360.155028 202.023497 
L 360.155028 202.023497 
L 358.197269 202.023497 
L 358.197269 202.023497 
L 354.28175 202.023497 
L 354.28175 202.023497 
L 352.323991 202.023497 
L 352.323991 202.023497 
L 351.345111 202.023497 
L 351.345111 202.023497 
L 348.897912 202.023497 
L 348.897912 202.023497 
L 347.919033 202.023497 
L 347.919033 202.023497 
L 347.429593 202.023497 
L 347.429593 202.023497 
L 346.940153 202.023497 
L 346.940153 202.023497 
L 344.492954 202.023497 
L 344.492954 202.023497 
L 342.045755 202.023497 
L 342.045755 202.023497 
L 341.066875 202.023497 
L 341.066875 202.023497 
L 336.172477 202.023497 
L 336.172477 202.023497 
L 335.683037 202.023497 
L 335.683037 202.023497 
L 335.193597 202.023497 
L 335.193597 202.023497 
L 334.704157 202.023497 
L 334.704157 202.023497 
L 333.235838 202.023497 
L 333.235838 202.023497 
L 331.278078 202.023497 
L 331.278078 202.023497 
L 330.788638 202.023497 
L 330.788638 202.023497 
L 330.299199 202.023497 
L 330.299199 202.023497 
L 329.320319 202.023497 
L 329.320319 202.023497 
L 327.851999 202.023497 
L 327.851999 202.023497 
L 323.447041 202.023497 
L 323.447041 202.023497 
L 322.468161 202.023497 
L 322.468161 202.023497 
L 321.978721 202.023497 
L 321.978721 202.023497 
L 320.999842 202.023497 
L 320.999842 202.023497 
L 319.531522 202.023497 
L 319.531522 202.023497 
L 319.042083 202.023497 
L 319.042083 202.023497 
L 312.679365 202.023497 
L 312.679365 202.023497 
L 309.742726 202.023497 
L 309.742726 202.023497 
L 307.784966 202.023497 
L 307.784966 202.023497 
L 306.806087 202.023497 
L 306.806087 202.023497 
L 305.337767 202.023497 
L 305.337767 202.023497 
L 304.358888 202.023497 
L 304.358888 202.023497 
L 299.953929 202.023497 
L 299.953929 202.023497 
L 298.975049 202.023497 
L 298.975049 202.023497 
L 298.48561 202.023497 
L 298.48561 202.023497 
L 297.99617 202.023497 
L 297.99617 202.023497 
L 297.01729 202.023497 
L 297.01729 202.023497 
L 296.52785 202.023497 
L 296.52785 202.023497 
L 296.03841 202.023497 
L 296.03841 202.023497 
L 287.228494 202.023497 
L 287.228494 202.023497 
L 286.739054 202.023497 
L 286.739054 202.023497 
L 284.781294 202.023497 
L 284.781294 202.023497 
L 276.950257 202.023497 
L 276.950257 202.023497 
L 275.481938 202.023497 
L 275.481938 202.023497 
L 274.013618 202.023497 
L 274.013618 202.023497 
L 272.545299 202.023497 
L 272.545299 202.023497 
L 272.055859 202.023497 
L 272.055859 202.023497 
L 271.566419 202.023497 
L 271.566419 202.023497 
L 271.076979 202.023497 
L 271.076979 202.023497 
L 270.587539 202.023497 
L 270.587539 202.023497 
L 267.16146 202.023497 
L 267.16146 202.023497 
L 265.693141 202.023497 
L 265.693141 202.023497 
L 264.224821 202.023497 
L 264.224821 202.023497 
L 263.735382 202.023497 
L 263.735382 202.023497 
L 263.245942 202.023497 
L 263.245942 202.023497 
L 261.777622 202.023497 
L 261.777622 202.023497 
L 261.288182 202.023497 
L 261.288182 202.023497 
L 260.309303 202.023497 
L 260.309303 202.023497 
L 258.351543 202.023497 
L 258.351543 202.023497 
L 251.988826 202.023497 
L 251.988826 202.023497 
L 251.009946 202.023497 
L 251.009946 202.023497 
L 250.520506 202.023497 
L 250.520506 202.023497 
L 250.031066 202.023497 
L 250.031066 202.023497 
L 249.541627 202.023497 
L 249.541627 202.023497 
L 249.052187 202.023497 
L 249.052187 202.023497 
L 248.562747 202.023497 
L 248.562747 202.023497 
L 248.073307 202.023497 
L 248.073307 202.023497 
L 247.583867 202.023497 
L 247.583867 202.023497 
L 246.604988 202.023497 
L 246.604988 202.023497 
L 242.689469 202.023497 
L 242.689469 202.023497 
L 242.200029 202.023497 
L 242.200029 202.023497 
L 241.710589 202.023497 
L 241.710589 202.023497 
L 241.221149 202.023497 
L 241.221149 202.023497 
L 240.73171 202.023497 
L 240.73171 202.023497 
L 240.24227 202.023497 
L 240.24227 202.023497 
L 239.26339 202.023497 
L 239.26339 202.023497 
L 237.795071 202.023497 
L 237.795071 202.023497 
L 237.305631 202.023497 
L 237.305631 202.023497 
L 234.858432 202.023497 
L 234.858432 202.023497 
L 230.453473 202.023497 
L 230.453473 202.023497 
L 229.474593 202.023497 
L 229.474593 202.023497 
L 228.985154 202.023497 
L 228.985154 202.023497 
L 228.495714 202.023497 
L 228.495714 202.023497 
L 228.006274 202.023497 
L 228.006274 202.023497 
L 227.027394 202.023497 
L 227.027394 202.023497 
L 225.559075 202.023497 
L 225.559075 202.023497 
L 225.069635 202.023497 
L 225.069635 202.023497 
L 223.601316 202.023497 
L 223.601316 202.023497 
L 219.685797 202.023497 
L 219.685797 202.023497 
L 219.196357 202.023497 
L 219.196357 202.023497 
L 218.706917 202.023497 
L 218.706917 202.023497 
L 217.728038 202.023497 
L 217.728038 202.023497 
L 216.749158 202.023497 
L 216.749158 202.023497 
L 215.770278 202.023497 
L 215.770278 202.023497 
L 215.280838 202.023497 
L 215.280838 202.023497 
L 214.791399 202.023497 
L 214.791399 202.023497 
L 214.301959 202.023497 
L 214.301959 202.023497 
L 213.812519 202.023497 
L 213.812519 202.023497 
L 212.833639 202.023497 
L 212.833639 202.023497 
L 211.85476 202.023497 
L 211.85476 202.023497 
L 206.960361 202.023497 
L 206.960361 202.023497 
L 206.470921 202.023497 
L 206.470921 202.023497 
L 205.002602 202.023497 
L 205.002602 202.172709 
L 204.513162 202.172709 
L 204.513162 202.471131 
L 204.023722 202.471131 
L 204.023722 202.620343 
L 202.555403 202.620343 
L 202.555403 203.067977 
L 202.065963 203.067977 
L 202.065963 203.217189 
L 201.087083 203.217189 
L 201.087083 203.3664 
L 196.192685 203.3664 
L 196.192685 203.664823 
L 195.703245 203.664823 
L 195.703245 203.664823 
L 195.213805 203.664823 
L 195.213805 203.963246 
L 194.724365 203.963246 
L 194.724365 204.41088 
L 194.234926 204.41088 
L 194.234926 204.41088 
L 193.256046 204.41088 
L 193.256046 204.709303 
L 192.766606 204.709303 
L 192.766606 204.858514 
L 191.298287 204.858514 
L 191.298287 205.156937 
L 190.808847 205.156937 
L 190.808847 206.649051 
L 189.829967 206.649051 
L 189.829967 206.947474 
L 189.340527 206.947474 
L 189.340527 207.096686 
L 188.361648 207.096686 
L 188.361648 207.693531 
L 187.872208 207.693531 
L 187.872208 207.693531 
L 187.382768 207.693531 
L 187.382768 207.842743 
L 184.446129 207.842743 
L 184.446129 208.141166 
L 183.467249 208.141166 
L 183.467249 208.5888 
L 182.97781 208.5888 
L 182.97781 208.887223 
L 182.48837 208.887223 
L 182.48837 209.782491 
L 181.99893 209.782491 
L 181.99893 210.230126 
L 181.50949 210.230126 
L 181.50949 211.125394 
L 181.02005 211.125394 
L 181.02005 211.573029 
L 180.041171 211.573029 
L 180.041171 211.72224 
L 178.083411 211.72224 
L 178.083411 211.871451 
L 177.593971 211.871451 
L 177.593971 212.169874 
L 176.125652 212.169874 
L 176.125652 212.169874 
L 174.167893 212.169874 
L 174.167893 212.468297 
L 173.678453 212.468297 
L 173.678453 212.617509 
L 173.189013 212.617509 
L 173.189013 212.76672 
L 172.210133 212.76672 
L 172.210133 213.214354 
L 171.720693 213.214354 
L 171.720693 213.214354 
L 171.231254 213.214354 
L 171.231254 213.512777 
L 170.741814 213.512777 
L 170.741814 214.258834 
L 169.762934 214.258834 
L 169.762934 214.557257 
L 168.784054 214.557257 
L 168.784054 214.557257 
L 167.805175 214.557257 
L 167.805175 214.706469 
L 167.315735 214.706469 
L 167.315735 214.85568 
L 166.826295 214.85568 
L 166.826295 215.154103 
L 166.336855 215.154103 
L 166.336855 215.303314 
L 165.847415 215.303314 
L 165.847415 215.452526 
L 165.357976 215.452526 
L 165.357976 215.750949 
L 164.868536 215.750949 
L 164.868536 215.750949 
L 164.379096 215.750949 
L 164.379096 215.90016 
L 160.463577 215.90016 
L 160.463577 215.90016 
L 159.974137 215.90016 
L 159.974137 216.198583 
L 159.484698 216.198583 
L 159.484698 216.347794 
L 158.995258 216.347794 
L 158.995258 216.497006 
L 158.505818 216.497006 
L 158.505818 216.646217 
L 158.016378 216.646217 
L 158.016378 216.94464 
L 157.037499 216.94464 
L 157.037499 216.94464 
L 156.548059 216.94464 
L 156.548059 217.243063 
L 155.569179 217.243063 
L 155.569179 217.541486 
L 154.590299 217.541486 
L 154.590299 217.98912 
L 153.61142 217.98912 
L 153.61142 218.287543 
L 151.65366 218.287543 
L 151.65366 218.287543 
L 149.695901 218.287543 
L 149.695901 218.436754 
L 148.717021 218.436754 
L 148.717021 218.735177 
L 148.227582 218.735177 
L 148.227582 218.884389 
L 147.738142 218.884389 
L 147.738142 219.182811 
L 147.248702 219.182811 
L 147.248702 219.481234 
L 146.759262 219.481234 
L 146.759262 219.779657 
L 146.269822 219.779657 
L 146.269822 219.928869 
L 145.290943 219.928869 
L 145.290943 220.227291 
L 144.801503 220.227291 
L 144.801503 220.525714 
L 144.312063 220.525714 
L 144.312063 220.973349 
L 143.822623 220.973349 
L 143.822623 221.271771 
L 143.333183 221.271771 
L 143.333183 221.570194 
L 142.843743 221.570194 
L 142.843743 221.719406 
L 142.354304 221.719406 
L 142.354304 222.316251 
L 141.864864 222.316251 
L 141.864864 222.465463 
L 141.375424 222.465463 
L 141.375424 222.763886 
L 137.459905 222.763886 
L 137.459905 223.509943 
L 136.970465 223.509943 
L 136.970465 223.659154 
L 135.012706 223.659154 
L 135.012706 224.256 
L 133.544387 224.256 
L 133.544387 224.554423 
L 133.054947 224.554423 
L 133.054947 225.002057 
L 132.076067 225.002057 
L 132.076067 225.151269 
L 131.586627 225.151269 
L 131.586627 225.30048 
L 130.607748 225.30048 
L 130.607748 225.449691 
L 122.287271 225.449691 
L 122.287271 225.598903 
L 120.329511 225.598903 
L 120.329511 225.748114 
L 119.840071 225.748114 
L 119.840071 226.046537 
L 119.350632 226.046537 
L 119.350632 226.195749 
L 118.861192 226.195749 
L 118.861192 226.34496 
L 117.882312 226.34496 
L 117.882312 226.643383 
L 113.477354 226.643383 
L 113.477354 227.240229 
L 112.987914 227.240229 
L 112.987914 227.38944 
L 112.498474 227.38944 
L 112.498474 227.538651 
L 112.009034 227.538651 
L 112.009034 227.687863 
L 111.519594 227.687863 
L 111.519594 227.837074 
L 111.030154 227.837074 
L 111.030154 227.837074 
L 110.540715 227.837074 
L 110.540715 228.135497 
L 110.051275 228.135497 
L 110.051275 228.43392 
L 109.561835 228.43392 
L 109.561835 228.732343 
L 109.072395 228.732343 
L 109.072395 229.179977 
L 108.582955 229.179977 
L 108.582955 229.627611 
L 108.093515 229.627611 
L 108.093515 229.926034 
L 107.114636 229.926034 
L 107.114636 230.224457 
L 106.625196 230.224457 
L 106.625196 230.373669 
L 106.135756 230.373669 
L 106.135756 230.52288 
L 104.667437 230.52288 
L 104.667437 230.672091 
L 101.730798 230.672091 
L 101.730798 231.119726 
L 101.241358 231.119726 
L 101.241358 231.268937 
L 100.751918 231.268937 
L 100.751918 231.418149 
L 100.262478 231.418149 
L 100.262478 231.716571 
L 99.773038 231.716571 
L 99.773038 232.014994 
L 99.283598 232.014994 
L 99.283598 232.61184 
L 98.794159 232.61184 
L 98.794159 232.910263 
L 98.304719 232.910263 
L 98.304719 233.65632 
L 97.815279 233.65632 
L 97.815279 234.103954 
L 97.325839 234.103954 
L 97.325839 234.850011 
L 96.836399 234.850011 
L 96.836399 234.999223 
L 96.346959 234.999223 
L 96.346959 235.297646 
L 95.85752 235.297646 
L 95.85752 236.043703 
L 95.36808 236.043703 
L 95.36808 236.342126 
L 94.87864 236.342126 
L 94.87864 236.640549 
L 94.3892 236.640549 
L 94.3892 236.78976 
L 93.89976 236.78976 
L 93.89976 237.088183 
L 93.410321 237.088183 
L 93.410321 237.237394 
L 89.984242 237.237394 
L 89.984242 237.386606 
L 89.494802 237.386606 
L 89.494802 237.685029 
L 89.005362 237.685029 
L 89.005362 238.281874 
L 88.026482 238.281874 
L 88.026482 238.87872 
L 87.047603 238.87872 
L 87.047603 239.326354 
L 86.558163 239.326354 
L 86.558163 239.773989 
L 86.068723 239.773989 
L 86.068723 239.773989 
L 85.579283 239.773989 
L 85.579283 240.370834 
L 85.089843 240.370834 
L 85.089843 241.713737 
L 84.600404 241.713737 
L 84.600404 242.310583 
L 84.110964 242.310583 
L 84.110964 243.205851 
L 83.621524 243.205851 
L 83.621524 244.250331 
L 83.132084 244.250331 
L 83.132084 244.548754 
L 82.642644 244.548754 
L 82.642644 245.1456 
L 81.663765 245.1456 
L 81.663765 245.444023 
L 81.174325 245.444023 
L 81.174325 245.593234 
L 80.684885 245.593234 
L 80.684885 245.742446 
L 80.195445 245.742446 
L 80.195445 245.742446 
L 79.706005 245.742446 
L 79.706005 246.040869 
L 79.216565 246.040869 
L 79.216565 246.19008 
L 78.727126 246.19008 
L 78.727126 246.339291 
L 78.237686 246.339291 
L 78.237686 247.532983 
L 77.748246 247.532983 
L 77.748246 249.025097 
L 77.258806 249.025097 
L 77.258806 252.009326 
L 76.769366 252.009326 
L 76.769366 254.396709 
L 76.279926 254.396709 
L 76.279926 257.380937 
L 75.790487 257.380937 
L 75.790487 261.708069 
L 75.301047 261.708069 
L 75.301047 269.019429 
L 74.811607 269.019429 
L 74.811607 273.794194 
L 74.322167 273.794194 
L 74.322167 275.584731 
L 73.832727 275.584731 
L 73.832727 276.48 
L 73.832727 276.48 
z
" clip-path="url(#pbf5a42136d)" style="fill: #fa448c; fill-opacity: 0.8"/>
   </g>
   <g id="PolyCollection_2">
    <path d="M 73.832727 276.48 
L 73.832727 276.48 
L 73.832727 276.48 
L 73.832727 275.584731 
L 74.322167 275.584731 
L 74.322167 273.794194 
L 74.811607 273.794194 
L 74.811607 269.019429 
L 75.301047 269.019429 
L 75.301047 261.708069 
L 75.790487 261.708069 
L 75.790487 257.380937 
L 76.279926 257.380937 
L 76.279926 254.396709 
L 76.769366 254.396709 
L 76.769366 252.009326 
L 77.258806 252.009326 
L 77.258806 249.025097 
L 77.748246 249.025097 
L 77.748246 247.532983 
L 78.237686 247.532983 
L 78.237686 246.339291 
L 78.727126 246.339291 
L 78.727126 246.19008 
L 79.216565 246.19008 
L 79.216565 246.040869 
L 79.706005 246.040869 
L 79.706005 245.742446 
L 80.195445 245.742446 
L 80.195445 245.742446 
L 80.684885 245.742446 
L 80.684885 245.593234 
L 81.174325 245.593234 
L 81.174325 245.444023 
L 81.663765 245.444023 
L 81.663765 245.1456 
L 82.642644 245.1456 
L 82.642644 244.548754 
L 83.132084 244.548754 
L 83.132084 244.250331 
L 83.621524 244.250331 
L 83.621524 243.205851 
L 84.110964 243.205851 
L 84.110964 242.310583 
L 84.600404 242.310583 
L 84.600404 241.713737 
L 85.089843 241.713737 
L 85.089843 240.370834 
L 85.579283 240.370834 
L 85.579283 239.773989 
L 86.068723 239.773989 
L 86.068723 239.773989 
L 86.558163 239.773989 
L 86.558163 239.326354 
L 87.047603 239.326354 
L 87.047603 238.87872 
L 88.026482 238.87872 
L 88.026482 238.281874 
L 89.005362 238.281874 
L 89.005362 237.685029 
L 89.494802 237.685029 
L 89.494802 237.386606 
L 89.984242 237.386606 
L 89.984242 237.237394 
L 93.410321 237.237394 
L 93.410321 237.088183 
L 93.89976 237.088183 
L 93.89976 236.78976 
L 94.3892 236.78976 
L 94.3892 236.640549 
L 94.87864 236.640549 
L 94.87864 236.342126 
L 95.36808 236.342126 
L 95.36808 236.043703 
L 95.85752 236.043703 
L 95.85752 235.297646 
L 96.346959 235.297646 
L 96.346959 234.999223 
L 96.836399 234.999223 
L 96.836399 234.850011 
L 97.325839 234.850011 
L 97.325839 234.103954 
L 97.815279 234.103954 
L 97.815279 233.65632 
L 98.304719 233.65632 
L 98.304719 232.910263 
L 98.794159 232.910263 
L 98.794159 232.61184 
L 99.283598 232.61184 
L 99.283598 232.014994 
L 99.773038 232.014994 
L 99.773038 231.716571 
L 100.262478 231.716571 
L 100.262478 231.418149 
L 100.751918 231.418149 
L 100.751918 231.268937 
L 101.241358 231.268937 
L 101.241358 231.119726 
L 101.730798 231.119726 
L 101.730798 230.672091 
L 104.667437 230.672091 
L 104.667437 230.52288 
L 106.135756 230.52288 
L 106.135756 230.373669 
L 106.625196 230.373669 
L 106.625196 230.224457 
L 107.114636 230.224457 
L 107.114636 229.926034 
L 108.093515 229.926034 
L 108.093515 229.627611 
L 108.582955 229.627611 
L 108.582955 229.179977 
L 109.072395 229.179977 
L 109.072395 228.732343 
L 109.561835 228.732343 
L 109.561835 228.43392 
L 110.051275 228.43392 
L 110.051275 228.135497 
L 110.540715 228.135497 
L 110.540715 227.837074 
L 111.030154 227.837074 
L 111.030154 227.837074 
L 111.519594 227.837074 
L 111.519594 227.687863 
L 112.009034 227.687863 
L 112.009034 227.538651 
L 112.498474 227.538651 
L 112.498474 227.38944 
L 112.987914 227.38944 
L 112.987914 227.240229 
L 113.477354 227.240229 
L 113.477354 226.643383 
L 117.882312 226.643383 
L 117.882312 226.34496 
L 118.861192 226.34496 
L 118.861192 226.195749 
L 119.350632 226.195749 
L 119.350632 226.046537 
L 119.840071 226.046537 
L 119.840071 225.748114 
L 120.329511 225.748114 
L 120.329511 225.598903 
L 122.287271 225.598903 
L 122.287271 225.449691 
L 130.607748 225.449691 
L 130.607748 225.30048 
L 131.586627 225.30048 
L 131.586627 225.151269 
L 132.076067 225.151269 
L 132.076067 225.002057 
L 133.054947 225.002057 
L 133.054947 224.554423 
L 133.544387 224.554423 
L 133.544387 224.256 
L 135.012706 224.256 
L 135.012706 223.659154 
L 136.970465 223.659154 
L 136.970465 223.509943 
L 137.459905 223.509943 
L 137.459905 222.763886 
L 141.375424 222.763886 
L 141.375424 222.465463 
L 141.864864 222.465463 
L 141.864864 222.316251 
L 142.354304 222.316251 
L 142.354304 221.719406 
L 142.843743 221.719406 
L 142.843743 221.570194 
L 143.333183 221.570194 
L 143.333183 221.271771 
L 143.822623 221.271771 
L 143.822623 220.973349 
L 144.312063 220.973349 
L 144.312063 220.525714 
L 144.801503 220.525714 
L 144.801503 220.227291 
L 145.290943 220.227291 
L 145.290943 219.928869 
L 146.269822 219.928869 
L 146.269822 219.779657 
L 146.759262 219.779657 
L 146.759262 219.481234 
L 147.248702 219.481234 
L 147.248702 219.182811 
L 147.738142 219.182811 
L 147.738142 218.884389 
L 148.227582 218.884389 
L 148.227582 218.735177 
L 148.717021 218.735177 
L 148.717021 218.436754 
L 149.695901 218.436754 
L 149.695901 218.287543 
L 151.65366 218.287543 
L 151.65366 218.287543 
L 153.61142 218.287543 
L 153.61142 217.98912 
L 154.590299 217.98912 
L 154.590299 217.541486 
L 155.569179 217.541486 
L 155.569179 217.243063 
L 156.548059 217.243063 
L 156.548059 216.94464 
L 157.037499 216.94464 
L 157.037499 216.94464 
L 158.016378 216.94464 
L 158.016378 216.646217 
L 158.505818 216.646217 
L 158.505818 216.497006 
L 158.995258 216.497006 
L 158.995258 216.347794 
L 159.484698 216.347794 
L 159.484698 216.198583 
L 159.974137 216.198583 
L 159.974137 215.90016 
L 160.463577 215.90016 
L 160.463577 215.90016 
L 164.379096 215.90016 
L 164.379096 215.750949 
L 164.868536 215.750949 
L 164.868536 215.750949 
L 165.357976 215.750949 
L 165.357976 215.452526 
L 165.847415 215.452526 
L 165.847415 215.303314 
L 166.336855 215.303314 
L 166.336855 215.154103 
L 166.826295 215.154103 
L 166.826295 214.85568 
L 167.315735 214.85568 
L 167.315735 214.706469 
L 167.805175 214.706469 
L 167.805175 214.557257 
L 168.784054 214.557257 
L 168.784054 214.557257 
L 169.762934 214.557257 
L 169.762934 214.258834 
L 170.741814 214.258834 
L 170.741814 213.512777 
L 171.231254 213.512777 
L 171.231254 213.214354 
L 171.720693 213.214354 
L 171.720693 213.214354 
L 172.210133 213.214354 
L 172.210133 212.76672 
L 173.189013 212.76672 
L 173.189013 212.617509 
L 173.678453 212.617509 
L 173.678453 212.468297 
L 174.167893 212.468297 
L 174.167893 212.169874 
L 176.125652 212.169874 
L 176.125652 212.169874 
L 177.593971 212.169874 
L 177.593971 211.871451 
L 178.083411 211.871451 
L 178.083411 211.72224 
L 180.041171 211.72224 
L 180.041171 211.573029 
L 181.02005 211.573029 
L 181.02005 211.125394 
L 181.50949 211.125394 
L 181.50949 210.230126 
L 181.99893 210.230126 
L 181.99893 209.782491 
L 182.48837 209.782491 
L 182.48837 208.887223 
L 182.97781 208.887223 
L 182.97781 208.5888 
L 183.467249 208.5888 
L 183.467249 208.141166 
L 184.446129 208.141166 
L 184.446129 207.842743 
L 187.382768 207.842743 
L 187.382768 207.693531 
L 187.872208 207.693531 
L 187.872208 207.693531 
L 188.361648 207.693531 
L 188.361648 207.096686 
L 189.340527 207.096686 
L 189.340527 206.947474 
L 189.829967 206.947474 
L 189.829967 206.649051 
L 190.808847 206.649051 
L 190.808847 205.156937 
L 191.298287 205.156937 
L 191.298287 204.858514 
L 192.766606 204.858514 
L 192.766606 204.709303 
L 193.256046 204.709303 
L 193.256046 204.41088 
L 194.234926 204.41088 
L 194.234926 204.41088 
L 194.724365 204.41088 
L 194.724365 203.963246 
L 195.213805 203.963246 
L 195.213805 203.664823 
L 195.703245 203.664823 
L 195.703245 203.664823 
L 196.192685 203.664823 
L 196.192685 203.3664 
L 201.087083 203.3664 
L 201.087083 203.217189 
L 202.065963 203.217189 
L 202.065963 203.067977 
L 202.555403 203.067977 
L 202.555403 202.620343 
L 204.023722 202.620343 
L 204.023722 202.471131 
L 204.513162 202.471131 
L 204.513162 202.172709 
L 205.002602 202.172709 
L 205.002602 202.023497 
L 206.470921 202.023497 
L 206.470921 202.023497 
L 206.960361 202.023497 
L 206.960361 202.023497 
L 211.85476 202.023497 
L 211.85476 202.023497 
L 212.833639 202.023497 
L 212.833639 202.023497 
L 213.812519 202.023497 
L 213.812519 202.023497 
L 214.301959 202.023497 
L 214.301959 202.023497 
L 214.791399 202.023497 
L 214.791399 202.023497 
L 215.280838 202.023497 
L 215.280838 202.023497 
L 215.770278 202.023497 
L 215.770278 202.023497 
L 216.749158 202.023497 
L 216.749158 202.023497 
L 217.728038 202.023497 
L 217.728038 202.023497 
L 218.706917 202.023497 
L 218.706917 202.023497 
L 219.196357 202.023497 
L 219.196357 202.023497 
L 219.685797 202.023497 
L 219.685797 202.023497 
L 223.601316 202.023497 
L 223.601316 202.023497 
L 225.069635 202.023497 
L 225.069635 202.023497 
L 225.559075 202.023497 
L 225.559075 202.023497 
L 227.027394 202.023497 
L 227.027394 202.023497 
L 228.006274 202.023497 
L 228.006274 202.023497 
L 228.495714 202.023497 
L 228.495714 202.023497 
L 228.985154 202.023497 
L 228.985154 202.023497 
L 229.474593 202.023497 
L 229.474593 202.023497 
L 230.453473 202.023497 
L 230.453473 202.023497 
L 234.858432 202.023497 
L 234.858432 202.023497 
L 237.305631 202.023497 
L 237.305631 202.023497 
L 237.795071 202.023497 
L 237.795071 202.023497 
L 239.26339 202.023497 
L 239.26339 202.023497 
L 240.24227 202.023497 
L 240.24227 202.023497 
L 240.73171 202.023497 
L 240.73171 202.023497 
L 241.221149 202.023497 
L 241.221149 202.023497 
L 241.710589 202.023497 
L 241.710589 202.023497 
L 242.200029 202.023497 
L 242.200029 202.023497 
L 242.689469 202.023497 
L 242.689469 202.023497 
L 246.604988 202.023497 
L 246.604988 202.023497 
L 247.583867 202.023497 
L 247.583867 202.023497 
L 248.073307 202.023497 
L 248.073307 202.023497 
L 248.562747 202.023497 
L 248.562747 202.023497 
L 249.052187 202.023497 
L 249.052187 202.023497 
L 249.541627 202.023497 
L 249.541627 202.023497 
L 250.031066 202.023497 
L 250.031066 202.023497 
L 250.520506 202.023497 
L 250.520506 202.023497 
L 251.009946 202.023497 
L 251.009946 202.023497 
L 251.988826 202.023497 
L 251.988826 202.023497 
L 258.351543 202.023497 
L 258.351543 202.023497 
L 260.309303 202.023497 
L 260.309303 202.023497 
L 261.288182 202.023497 
L 261.288182 202.023497 
L 261.777622 202.023497 
L 261.777622 202.023497 
L 263.245942 202.023497 
L 263.245942 202.023497 
L 263.735382 202.023497 
L 263.735382 202.023497 
L 264.224821 202.023497 
L 264.224821 202.023497 
L 265.693141 202.023497 
L 265.693141 202.023497 
L 267.16146 202.023497 
L 267.16146 202.023497 
L 270.587539 202.023497 
L 270.587539 202.023497 
L 271.076979 202.023497 
L 271.076979 202.023497 
L 271.566419 202.023497 
L 271.566419 202.023497 
L 272.055859 202.023497 
L 272.055859 202.023497 
L 272.545299 202.023497 
L 272.545299 202.023497 
L 274.013618 202.023497 
L 274.013618 202.023497 
L 275.481938 202.023497 
L 275.481938 202.023497 
L 276.950257 202.023497 
L 276.950257 202.023497 
L 284.781294 202.023497 
L 284.781294 202.023497 
L 286.739054 202.023497 
L 286.739054 202.023497 
L 287.228494 202.023497 
L 287.228494 202.023497 
L 296.03841 202.023497 
L 296.03841 202.023497 
L 296.52785 202.023497 
L 296.52785 202.023497 
L 297.01729 202.023497 
L 297.01729 202.023497 
L 297.99617 202.023497 
L 297.99617 202.023497 
L 298.48561 202.023497 
L 298.48561 202.023497 
L 298.975049 202.023497 
L 298.975049 202.023497 
L 299.953929 202.023497 
L 299.953929 202.023497 
L 304.358888 202.023497 
L 304.358888 202.023497 
L 305.337767 202.023497 
L 305.337767 202.023497 
L 306.806087 202.023497 
L 306.806087 202.023497 
L 307.784966 202.023497 
L 307.784966 202.023497 
L 309.742726 202.023497 
L 309.742726 202.023497 
L 312.679365 202.023497 
L 312.679365 202.023497 
L 319.042083 202.023497 
L 319.042083 202.023497 
L 319.531522 202.023497 
L 319.531522 202.023497 
L 320.999842 202.023497 
L 320.999842 202.023497 
L 321.978721 202.023497 
L 321.978721 202.023497 
L 322.468161 202.023497 
L 322.468161 202.023497 
L 323.447041 202.023497 
L 323.447041 202.023497 
L 327.851999 202.023497 
L 327.851999 202.023497 
L 329.320319 202.023497 
L 329.320319 202.023497 
L 330.299199 202.023497 
L 330.299199 202.023497 
L 330.788638 202.023497 
L 330.788638 202.023497 
L 331.278078 202.023497 
L 331.278078 202.023497 
L 333.235838 202.023497 
L 333.235838 202.023497 
L 334.704157 202.023497 
L 334.704157 202.023497 
L 335.193597 202.023497 
L 335.193597 202.023497 
L 335.683037 202.023497 
L 335.683037 202.023497 
L 336.172477 202.023497 
L 336.172477 202.023497 
L 341.066875 202.023497 
L 341.066875 202.023497 
L 342.045755 202.023497 
L 342.045755 202.023497 
L 344.492954 202.023497 
L 344.492954 202.023497 
L 346.940153 202.023497 
L 346.940153 202.023497 
L 347.429593 202.023497 
L 347.429593 202.023497 
L 347.919033 202.023497 
L 347.919033 202.023497 
L 348.897912 202.023497 
L 348.897912 202.023497 
L 351.345111 202.023497 
L 351.345111 202.023497 
L 352.323991 202.023497 
L 352.323991 202.023497 
L 354.28175 202.023497 
L 354.28175 202.023497 
L 358.197269 202.023497 
L 358.197269 202.023497 
L 360.155028 202.023497 
L 360.155028 202.023497 
L 363.036523 202.023497 
L 363.036523 200.083749 
L 363.23717 200.083749 
L 363.23717 200.083749 
L 363.412275 200.083749 
L 363.412275 200.083749 
L 363.759448 200.083749 
L 363.759448 200.083749 
L 363.979614 200.083749 
L 363.979614 200.083749 
L 364.210677 200.083749 
L 364.210677 200.083749 
L 364.38372 200.083749 
L 364.38372 200.083749 
L 364.74061 200.083749 
L 364.74061 200.083749 
L 364.935173 200.083749 
L 364.935173 200.083749 
L 365.197087 200.083749 
L 365.197087 200.083749 
L 365.389533 200.083749 
L 365.389533 200.083749 
L 365.695916 200.083749 
L 365.695916 200.083749 
L 365.888583 200.083749 
L 365.888583 200.083749 
L 366.148016 200.083749 
L 366.148016 200.083749 
L 366.32959 200.083749 
L 366.32959 200.083749 
L 366.754644 200.083749 
L 366.754644 200.083749 
L 367.030565 200.083749 
L 367.030565 200.083749 
L 367.348376 200.083749 
L 367.348376 200.083749 
L 367.372562 200.083749 
L 367.372562 200.083749 
L 367.38681 200.083749 
L 367.38681 200.083749 
L 367.62849 200.083749 
L 367.62849 200.083749 
L 367.81318 200.083749 
L 367.81318 200.083749 
L 368.137708 200.083749 
L 368.137708 200.083749 
L 368.347507 200.083749 
L 368.347507 200.083749 
L 368.700665 200.083749 
L 368.700665 200.083749 
L 369.398616 200.083749 
L 369.398616 200.083749 
L 369.41882 200.083749 
L 369.41882 200.083749 
L 369.443787 200.083749 
L 369.443787 200.083749 
L 369.627196 200.083749 
L 369.627196 200.083749 
L 369.834742 200.083749 
L 369.834742 200.083749 
L 370.060146 200.083749 
L 370.060146 200.083749 
L 370.24589 200.083749 
L 370.24589 200.083749 
L 370.586805 200.083749 
L 370.586805 200.083749 
L 371.046235 200.083749 
L 371.046235 200.083749 
L 376.483299 200.083749 
L 376.483299 200.083749 
L 377.893816 200.083749 
L 377.893816 200.083749 
L 379.09593 200.083749 
L 379.09593 200.083749 
L 379.374879 200.083749 
L 379.374879 200.083749 
L 380.743218 200.083749 
L 380.743218 200.083749 
L 381.090182 200.083749 
L 381.090182 200.083749 
L 381.370523 200.083749 
L 381.370523 200.083749 
L 381.808143 200.083749 
L 381.808143 200.083749 
L 389.199615 200.083749 
L 389.199615 200.083749 
L 392.205906 200.083749 
L 392.205906 200.083749 
L 394.271318 200.083749 
L 394.271318 200.083749 
L 394.545109 200.083749 
L 394.545109 200.083749 
L 395.54513 200.083749 
L 395.54513 200.083749 
L 396.406271 200.083749 
L 396.406271 200.083749 
L 398.487273 200.083749 
L 398.487273 200.083749 
L 398.487273 147.859749 
L 398.487273 147.859749 
L 398.487273 147.859749 
L 396.406271 147.859749 
L 396.406271 148.00896 
L 395.54513 148.00896 
L 395.54513 146.367634 
L 394.545109 146.367634 
L 394.545109 146.815269 
L 394.271318 146.815269 
L 394.271318 146.96448 
L 392.205906 146.96448 
L 392.205906 147.113691 
L 389.199615 147.113691 
L 389.199615 147.262903 
L 381.808143 147.262903 
L 381.808143 147.561326 
L 381.370523 147.561326 
L 381.370523 147.710537 
L 381.090182 147.710537 
L 381.090182 148.00896 
L 380.743218 148.00896 
L 380.743218 148.158171 
L 379.374879 148.158171 
L 379.374879 148.307383 
L 379.09593 148.307383 
L 379.09593 148.456594 
L 377.893816 148.456594 
L 377.893816 148.605806 
L 376.483299 148.605806 
L 376.483299 148.755017 
L 371.046235 148.755017 
L 371.046235 149.05344 
L 370.586805 149.05344 
L 370.586805 149.202651 
L 370.24589 149.202651 
L 370.24589 149.202651 
L 370.060146 149.202651 
L 370.060146 149.202651 
L 369.834742 149.202651 
L 369.834742 149.202651 
L 369.627196 149.202651 
L 369.627196 149.202651 
L 369.443787 149.202651 
L 369.443787 149.202651 
L 369.41882 149.202651 
L 369.41882 149.202651 
L 369.398616 149.202651 
L 369.398616 149.202651 
L 368.700665 149.202651 
L 368.700665 149.202651 
L 368.347507 149.202651 
L 368.347507 149.202651 
L 368.137708 149.202651 
L 368.137708 149.202651 
L 367.81318 149.202651 
L 367.81318 149.202651 
L 367.62849 149.202651 
L 367.62849 149.202651 
L 367.38681 149.202651 
L 367.38681 149.202651 
L 367.372562 149.202651 
L 367.372562 149.202651 
L 367.348376 149.202651 
L 367.348376 149.202651 
L 367.030565 149.202651 
L 367.030565 149.501074 
L 366.754644 149.501074 
L 366.754644 149.650286 
L 366.32959 149.650286 
L 366.32959 149.650286 
L 366.148016 149.650286 
L 366.148016 150.247131 
L 365.888583 150.247131 
L 365.888583 150.396343 
L 365.695916 150.396343 
L 365.695916 150.396343 
L 365.389533 150.396343 
L 365.389533 150.396343 
L 365.197087 150.396343 
L 365.197087 150.396343 
L 364.935173 150.396343 
L 364.935173 150.396343 
L 364.74061 150.396343 
L 364.74061 150.396343 
L 364.38372 150.396343 
L 364.38372 150.396343 
L 364.210677 150.396343 
L 364.210677 150.396343 
L 363.979614 150.396343 
L 363.979614 150.396343 
L 363.759448 150.396343 
L 363.759448 150.396343 
L 363.412275 150.396343 
L 363.412275 150.396343 
L 363.23717 150.396343 
L 363.23717 150.396343 
L 363.036523 150.396343 
L 363.036523 153.828206 
L 360.155028 153.828206 
L 360.155028 153.977417 
L 358.197269 153.977417 
L 358.197269 153.977417 
L 354.28175 153.977417 
L 354.28175 154.126629 
L 352.323991 154.126629 
L 352.323991 154.27584 
L 351.345111 154.27584 
L 351.345111 154.425051 
L 348.897912 154.425051 
L 348.897912 154.872686 
L 347.919033 154.872686 
L 347.919033 154.872686 
L 347.429593 154.872686 
L 347.429593 155.171109 
L 346.940153 155.171109 
L 346.940153 156.514011 
L 344.492954 156.514011 
L 344.492954 156.961646 
L 342.045755 156.961646 
L 342.045755 157.110857 
L 341.066875 157.110857 
L 341.066875 157.260069 
L 336.172477 157.260069 
L 336.172477 157.707703 
L 335.683037 157.707703 
L 335.683037 158.155337 
L 335.193597 158.155337 
L 335.193597 158.45376 
L 334.704157 158.45376 
L 334.704157 158.602971 
L 333.235838 158.602971 
L 333.235838 158.752183 
L 331.278078 158.752183 
L 331.278078 158.752183 
L 330.788638 158.752183 
L 330.788638 158.901394 
L 330.299199 158.901394 
L 330.299199 159.050606 
L 329.320319 159.050606 
L 329.320319 159.199817 
L 327.851999 159.199817 
L 327.851999 159.349029 
L 323.447041 159.349029 
L 323.447041 159.49824 
L 322.468161 159.49824 
L 322.468161 159.796663 
L 321.978721 159.796663 
L 321.978721 160.095086 
L 320.999842 160.095086 
L 320.999842 160.54272 
L 319.531522 160.54272 
L 319.531522 160.691931 
L 319.042083 160.691931 
L 319.042083 160.691931 
L 312.679365 160.691931 
L 312.679365 160.841143 
L 309.742726 160.841143 
L 309.742726 160.990354 
L 307.784966 160.990354 
L 307.784966 161.288777 
L 306.806087 161.288777 
L 306.806087 161.288777 
L 305.337767 161.288777 
L 305.337767 161.5872 
L 304.358888 161.5872 
L 304.358888 161.5872 
L 299.953929 161.5872 
L 299.953929 161.885623 
L 298.975049 161.885623 
L 298.975049 162.034834 
L 298.48561 162.034834 
L 298.48561 162.333257 
L 297.99617 162.333257 
L 297.99617 162.333257 
L 297.01729 162.333257 
L 297.01729 162.333257 
L 296.52785 162.333257 
L 296.52785 162.780891 
L 296.03841 162.780891 
L 296.03841 162.780891 
L 287.228494 162.780891 
L 287.228494 162.930103 
L 286.739054 162.930103 
L 286.739054 163.079314 
L 284.781294 163.079314 
L 284.781294 163.228526 
L 276.950257 163.228526 
L 276.950257 163.377737 
L 275.481938 163.377737 
L 275.481938 163.526949 
L 274.013618 163.526949 
L 274.013618 163.974583 
L 272.545299 163.974583 
L 272.545299 164.72064 
L 272.055859 164.72064 
L 272.055859 165.019063 
L 271.566419 165.019063 
L 271.566419 165.168274 
L 271.076979 165.168274 
L 271.076979 165.168274 
L 270.587539 165.168274 
L 270.587539 165.317486 
L 267.16146 165.317486 
L 267.16146 165.317486 
L 265.693141 165.317486 
L 265.693141 165.914331 
L 264.224821 165.914331 
L 264.224821 166.063543 
L 263.735382 166.063543 
L 263.735382 166.511177 
L 263.245942 166.511177 
L 263.245942 166.660389 
L 261.777622 166.660389 
L 261.777622 166.8096 
L 261.288182 166.8096 
L 261.288182 167.108023 
L 260.309303 167.108023 
L 260.309303 167.108023 
L 258.351543 167.108023 
L 258.351543 167.406446 
L 251.988826 167.406446 
L 251.988826 167.406446 
L 251.009946 167.406446 
L 251.009946 167.555657 
L 250.520506 167.555657 
L 250.520506 167.704869 
L 250.031066 167.704869 
L 250.031066 167.85408 
L 249.541627 167.85408 
L 249.541627 168.003291 
L 249.052187 168.003291 
L 249.052187 168.152503 
L 248.562747 168.152503 
L 248.562747 168.450926 
L 248.073307 168.450926 
L 248.073307 169.495406 
L 247.583867 169.495406 
L 247.583867 170.092251 
L 246.604988 170.092251 
L 246.604988 170.539886 
L 242.689469 170.539886 
L 242.689469 170.689097 
L 242.200029 170.689097 
L 242.200029 170.838309 
L 241.710589 170.838309 
L 241.710589 171.136731 
L 241.221149 171.136731 
L 241.221149 171.584366 
L 240.73171 171.584366 
L 240.73171 172.181211 
L 240.24227 172.181211 
L 240.24227 172.927269 
L 239.26339 172.927269 
L 239.26339 173.374903 
L 237.795071 173.374903 
L 237.795071 173.524114 
L 237.305631 173.524114 
L 237.305631 173.822537 
L 234.858432 173.822537 
L 234.858432 173.971749 
L 230.453473 173.971749 
L 230.453473 174.12096 
L 229.474593 174.12096 
L 229.474593 174.270171 
L 228.985154 174.270171 
L 228.985154 174.419383 
L 228.495714 174.419383 
L 228.495714 174.568594 
L 228.006274 174.568594 
L 228.006274 174.867017 
L 227.027394 174.867017 
L 227.027394 175.463863 
L 225.559075 175.463863 
L 225.559075 175.613074 
L 225.069635 175.613074 
L 225.069635 175.762286 
L 223.601316 175.762286 
L 223.601316 176.060709 
L 219.685797 176.060709 
L 219.685797 176.20992 
L 219.196357 176.20992 
L 219.196357 176.359131 
L 218.706917 176.359131 
L 218.706917 176.359131 
L 217.728038 176.359131 
L 217.728038 176.508343 
L 216.749158 176.508343 
L 216.749158 176.657554 
L 215.770278 176.657554 
L 215.770278 177.2544 
L 215.280838 177.2544 
L 215.280838 177.851246 
L 214.791399 177.851246 
L 214.791399 178.149669 
L 214.301959 178.149669 
L 214.301959 178.448091 
L 213.812519 178.448091 
L 213.812519 178.746514 
L 212.833639 178.746514 
L 212.833639 179.044937 
L 211.85476 179.044937 
L 211.85476 179.194149 
L 206.960361 179.194149 
L 206.960361 179.492571 
L 206.470921 179.492571 
L 206.470921 179.940206 
L 205.002602 179.940206 
L 205.002602 180.089417 
L 204.513162 180.089417 
L 204.513162 180.537051 
L 204.023722 180.537051 
L 204.023722 180.686263 
L 202.555403 180.686263 
L 202.555403 181.133897 
L 202.065963 181.133897 
L 202.065963 181.283109 
L 201.087083 181.283109 
L 201.087083 181.43232 
L 196.192685 181.43232 
L 196.192685 182.029166 
L 195.703245 182.029166 
L 195.703245 182.029166 
L 195.213805 182.029166 
L 195.213805 182.4768 
L 194.724365 182.4768 
L 194.724365 182.924434 
L 194.234926 182.924434 
L 194.234926 183.073646 
L 193.256046 183.073646 
L 193.256046 183.670491 
L 192.766606 183.670491 
L 192.766606 183.819703 
L 191.298287 183.819703 
L 191.298287 184.118126 
L 190.808847 184.118126 
L 190.808847 185.759451 
L 189.829967 185.759451 
L 189.829967 186.057874 
L 189.340527 186.057874 
L 189.340527 186.207086 
L 188.361648 186.207086 
L 188.361648 186.803931 
L 187.872208 186.803931 
L 187.872208 186.953143 
L 187.382768 186.953143 
L 187.382768 187.102354 
L 184.446129 187.102354 
L 184.446129 187.400777 
L 183.467249 187.400777 
L 183.467249 187.848411 
L 182.97781 187.848411 
L 182.97781 188.445257 
L 182.48837 188.445257 
L 182.48837 189.340526 
L 181.99893 189.340526 
L 181.99893 189.937371 
L 181.50949 189.937371 
L 181.50949 190.83264 
L 181.02005 190.83264 
L 181.02005 192.026331 
L 180.041171 192.026331 
L 180.041171 192.175543 
L 178.083411 192.175543 
L 178.083411 192.324754 
L 177.593971 192.324754 
L 177.593971 192.623177 
L 176.125652 192.623177 
L 176.125652 192.772389 
L 174.167893 192.772389 
L 174.167893 193.070811 
L 173.678453 193.070811 
L 173.678453 193.220023 
L 173.189013 193.220023 
L 173.189013 193.369234 
L 172.210133 193.369234 
L 172.210133 193.816869 
L 171.720693 193.816869 
L 171.720693 194.264503 
L 171.231254 194.264503 
L 171.231254 194.861349 
L 170.741814 194.861349 
L 170.741814 195.607406 
L 169.762934 195.607406 
L 169.762934 195.905829 
L 168.784054 195.905829 
L 168.784054 196.05504 
L 167.805175 196.05504 
L 167.805175 196.204251 
L 167.315735 196.204251 
L 167.315735 196.502674 
L 166.826295 196.502674 
L 166.826295 196.801097 
L 166.336855 196.801097 
L 166.336855 196.950309 
L 165.847415 196.950309 
L 165.847415 197.09952 
L 165.357976 197.09952 
L 165.357976 197.397943 
L 164.868536 197.397943 
L 164.868536 197.547154 
L 164.379096 197.547154 
L 164.379096 197.696366 
L 160.463577 197.696366 
L 160.463577 197.845577 
L 159.974137 197.845577 
L 159.974137 198.144 
L 159.484698 198.144 
L 159.484698 198.293211 
L 158.995258 198.293211 
L 158.995258 198.442423 
L 158.505818 198.442423 
L 158.505818 198.591634 
L 158.016378 198.591634 
L 158.016378 199.337691 
L 157.037499 199.337691 
L 157.037499 199.486903 
L 156.548059 199.486903 
L 156.548059 199.934537 
L 155.569179 199.934537 
L 155.569179 200.23296 
L 154.590299 200.23296 
L 154.590299 200.979017 
L 153.61142 200.979017 
L 153.61142 201.575863 
L 151.65366 201.575863 
L 151.65366 201.874286 
L 149.695901 201.874286 
L 149.695901 202.023497 
L 148.717021 202.023497 
L 148.717021 202.32192 
L 148.227582 202.32192 
L 148.227582 202.620343 
L 147.738142 202.620343 
L 147.738142 203.067977 
L 147.248702 203.067977 
L 147.248702 203.3664 
L 146.759262 203.3664 
L 146.759262 203.814034 
L 146.269822 203.814034 
L 146.269822 203.963246 
L 145.290943 203.963246 
L 145.290943 204.261669 
L 144.801503 204.261669 
L 144.801503 204.560091 
L 144.312063 204.560091 
L 144.312063 205.156937 
L 143.822623 205.156937 
L 143.822623 205.45536 
L 143.333183 205.45536 
L 143.333183 205.753783 
L 142.843743 205.753783 
L 142.843743 205.902994 
L 142.354304 205.902994 
L 142.354304 206.649051 
L 141.864864 206.649051 
L 141.864864 206.798263 
L 141.375424 206.798263 
L 141.375424 207.096686 
L 137.459905 207.096686 
L 137.459905 207.991954 
L 136.970465 207.991954 
L 136.970465 208.141166 
L 135.012706 208.141166 
L 135.012706 209.036434 
L 133.544387 209.036434 
L 133.544387 209.334857 
L 133.054947 209.334857 
L 133.054947 209.931703 
L 132.076067 209.931703 
L 132.076067 210.080914 
L 131.586627 210.080914 
L 131.586627 210.230126 
L 130.607748 210.230126 
L 130.607748 210.379337 
L 122.287271 210.379337 
L 122.287271 210.528549 
L 120.329511 210.528549 
L 120.329511 210.67776 
L 119.840071 210.67776 
L 119.840071 210.976183 
L 119.350632 210.976183 
L 119.350632 211.125394 
L 118.861192 211.125394 
L 118.861192 211.274606 
L 117.882312 211.274606 
L 117.882312 211.573029 
L 113.477354 211.573029 
L 113.477354 212.319086 
L 112.987914 212.319086 
L 112.987914 213.065143 
L 112.498474 213.065143 
L 112.498474 213.214354 
L 112.009034 213.214354 
L 112.009034 213.363566 
L 111.519594 213.363566 
L 111.519594 213.512777 
L 111.030154 213.512777 
L 111.030154 213.661989 
L 110.540715 213.661989 
L 110.540715 214.109623 
L 110.051275 214.109623 
L 110.051275 214.408046 
L 109.561835 214.408046 
L 109.561835 214.85568 
L 109.072395 214.85568 
L 109.072395 215.303314 
L 108.582955 215.303314 
L 108.582955 215.750949 
L 108.093515 215.750949 
L 108.093515 216.049371 
L 107.114636 216.049371 
L 107.114636 216.795429 
L 106.625196 216.795429 
L 106.625196 216.94464 
L 106.135756 216.94464 
L 106.135756 217.093851 
L 104.667437 217.093851 
L 104.667437 217.243063 
L 101.730798 217.243063 
L 101.730798 217.690697 
L 101.241358 217.690697 
L 101.241358 217.98912 
L 100.751918 217.98912 
L 100.751918 218.138331 
L 100.262478 218.138331 
L 100.262478 219.182811 
L 99.773038 219.182811 
L 99.773038 219.481234 
L 99.283598 219.481234 
L 99.283598 220.07808 
L 98.794159 220.07808 
L 98.794159 220.525714 
L 98.304719 220.525714 
L 98.304719 221.420983 
L 97.815279 221.420983 
L 97.815279 221.868617 
L 97.325839 221.868617 
L 97.325839 222.614674 
L 96.836399 222.614674 
L 96.836399 222.763886 
L 96.346959 222.763886 
L 96.346959 223.21152 
L 95.85752 223.21152 
L 95.85752 223.957577 
L 95.36808 223.957577 
L 95.36808 224.256 
L 94.87864 224.256 
L 94.87864 224.554423 
L 94.3892 224.554423 
L 94.3892 224.703634 
L 93.89976 224.703634 
L 93.89976 225.151269 
L 93.410321 225.151269 
L 93.410321 225.30048 
L 89.984242 225.30048 
L 89.984242 225.449691 
L 89.494802 225.449691 
L 89.494802 225.748114 
L 89.005362 225.748114 
L 89.005362 226.34496 
L 88.026482 226.34496 
L 88.026482 226.941806 
L 87.047603 226.941806 
L 87.047603 227.38944 
L 86.558163 227.38944 
L 86.558163 227.986286 
L 86.068723 227.986286 
L 86.068723 228.284709 
L 85.579283 228.284709 
L 85.579283 228.881554 
L 85.089843 228.881554 
L 85.089843 230.373669 
L 84.600404 230.373669 
L 84.600404 231.268937 
L 84.110964 231.268937 
L 84.110964 233.208686 
L 83.621524 233.208686 
L 83.621524 234.253166 
L 83.132084 234.253166 
L 83.132084 235.446857 
L 82.642644 235.446857 
L 82.642644 236.192914 
L 81.663765 236.192914 
L 81.663765 236.938971 
L 81.174325 236.938971 
L 81.174325 237.088183 
L 80.684885 237.088183 
L 80.684885 237.237394 
L 80.195445 237.237394 
L 80.195445 237.386606 
L 79.706005 237.386606 
L 79.706005 237.685029 
L 79.216565 237.685029 
L 79.216565 237.83424 
L 78.727126 237.83424 
L 78.727126 237.983451 
L 78.237686 237.983451 
L 78.237686 239.177143 
L 77.748246 239.177143 
L 77.748246 241.564526 
L 77.258806 241.564526 
L 77.258806 245.593234 
L 76.769366 245.593234 
L 76.769366 248.428251 
L 76.279926 248.428251 
L 76.279926 252.158537 
L 75.790487 252.158537 
L 75.790487 257.380937 
L 75.301047 257.380937 
L 75.301047 266.0352 
L 74.811607 266.0352 
L 74.811607 272.749714 
L 74.322167 272.749714 
L 74.322167 275.43552 
L 73.832727 275.43552 
L 73.832727 276.48 
L 73.832727 276.48 
z
" clip-path="url(#pbf5a42136d)" style="fill: #43b5a0; fill-opacity: 0.8"/>
   </g>
   <g id="matplotlib.axis_1">
    <g id="xtick_1">
     <g id="line2d_1">
      <defs>
       <path id="m697aab85dd" d="M 0 0 
L 0 3.5 
" style="stroke: #ffffff; stroke-width: 0.8"/>
      </defs>
      <g>
       <use xlink:href="#m697aab85dd" x="102.220237" y="276.48" style="fill: #ffffff; stroke: #ffffff; stroke-width: 0.8"/>
      </g>
     </g>
     <g id="text_1">
      <!-- Fri 12/24 -->
      <g style="fill: #ffffff" transform="translate(63.151053 312.01669)rotate(-30)scale(0.1 -0.1)">
       <defs>
        <path id="DejaVuSans-46" d="M 628 4666 
L 3309 4666 
L 3309 4134 
L 1259 4134 
L 1259 2759 
L 3109 2759 
L 3109 2228 
L 1259 2228 
L 1259 0 
L 628 0 
L 628 4666 
z
" transform="scale(0.015625)"/>
        <path id="DejaVuSans-72" d="M 2631 2963 
Q 2534 3019 2420 3045 
Q 2306 3072 2169 3072 
Q 1681 3072 1420 2755 
Q 1159 2438 1159 1844 
L 1159 0 
L 581 0 
L 581 3500 
L 1159 3500 
L 1159 2956 
Q 1341 3275 1631 3429 
Q 1922 3584 2338 3584 
Q 2397 3584 2469 3576 
Q 2541 3569 2628 3553 
L 2631 2963 
z
" transform="scale(0.015625)"/>
        <path id="DejaVuSans-69" d="M 603 3500 
L 1178 3500 
L 1178 0 
L 603 0 
L 603 3500 
z
M 603 4863 
L 1178 4863 
L 1178 4134 
L 603 4134 
L 603 4863 
z
" transform="scale(0.015625)"/>
        <path id="DejaVuSans-20" transform="scale(0.015625)"/>
        <path id="DejaVuSans-31" d="M 794 531 
L 1825 531 
L 1825 4091 
L 703 3866 
L 703 4441 
L 1819 4666 
L 2450 4666 
L 2450 531 
L 3481 531 
L 3481 0 
L 794 0 
L 794 531 
z
" transform="scale(0.015625)"/>
        <path id="DejaVuSans-32" d="M 1228 531 
L 3431 531 
L 3431 0 
L 469 0 
L 469 531 
Q 828 903 1448 1529 
Q 2069 2156 2228 2338 
Q 2531 2678 2651 2914 
Q 2772 3150 2772 3378 
Q 2772 3750 2511 3984 
Q 2250 4219 1831 4219 
Q 1534 4219 1204 4116 
Q 875 4013 500 3803 
L 500 4441 
Q 881 4594 1212 4672 
Q 1544 4750 1819 4750 
Q 2544 4750 2975 4387 
Q 3406 4025 3406 3419 
Q 3406 3131 3298 2873 
Q 3191 2616 2906 2266 
Q 2828 2175 2409 1742 
Q 1991 1309 1228 531 
z
" transform="scale(0.015625)"/>
        <path id="DejaVuSans-2f" d="M 1625 4666 
L 2156 4666 
L 531 -594 
L 0 -594 
L 1625 4666 
z
" transform="scale(0.015625)"/>
        <path id="DejaVuSans-34" d="M 2419 4116 
L 825 1625 
L 2419 1625 
L 2419 4116 
z
M 2253 4666 
L 3047 4666 
L 3047 1625 
L 3713 1625 
L 3713 1100 
L 3047 1100 
L 3047 0 
L 2419 0 
L 2419 1100 
L 313 1100 
L 313 1709 
L 2253 4666 
z
" transform="scale(0.015625)"/>
       </defs>
       <use xlink:href="#DejaVuSans-46"/>
       <use xlink:href="#DejaVuSans-72" x="50.269531"/>
       <use xlink:href="#DejaVuSans-69" x="91.382812"/>
       <use xlink:href="#DejaVuSans-20" x="119.166016"/>
       <use xlink:href="#DejaVuSans-31" x="150.953125"/>
       <use xlink:href="#DejaVuSans-32" x="214.576172"/>
       <use xlink:href="#DejaVuSans-2f" x="278.199219"/>
       <use xlink:href="#DejaVuSans-32" x="311.890625"/>
       <use xlink:href="#DejaVuSans-34" x="375.513672"/>
      </g>
     </g>
    </g>
    <g id="xtick_2">
     <g id="line2d_2">
      <g>
       <use xlink:href="#m697aab85dd" x="137.459905" y="276.48" style="fill: #ffffff; stroke: #ffffff; stroke-width: 0.8"/>
      </g>
     </g>
     <g id="text_2">
      <!-- Mon 12/27 -->
      <g style="fill: #ffffff" transform="translate(90.450351 316.601065)rotate(-30)scale(0.1 -0.1)">
       <defs>
        <path id="DejaVuSans-4d" d="M 628 4666 
L 1569 4666 
L 2759 1491 
L 3956 4666 
L 4897 4666 
L 4897 0 
L 4281 0 
L 4281 4097 
L 3078 897 
L 2444 897 
L 1241 4097 
L 1241 0 
L 628 0 
L 628 4666 
z
" transform="scale(0.015625)"/>
        <path id="DejaVuSans-6f" d="M 1959 3097 
Q 1497 3097 1228 2736 
Q 959 2375 959 1747 
Q 959 1119 1226 758 
Q 1494 397 1959 397 
Q 2419 397 2687 759 
Q 2956 1122 2956 1747 
Q 2956 2369 2687 2733 
Q 2419 3097 1959 3097 
z
M 1959 3584 
Q 2709 3584 3137 3096 
Q 3566 2609 3566 1747 
Q 3566 888 3137 398 
Q 2709 -91 1959 -91 
Q 1206 -91 779 398 
Q 353 888 353 1747 
Q 353 2609 779 3096 
Q 1206 3584 1959 3584 
z
" transform="scale(0.015625)"/>
        <path id="DejaVuSans-6e" d="M 3513 2113 
L 3513 0 
L 2938 0 
L 2938 2094 
Q 2938 2591 2744 2837 
Q 2550 3084 2163 3084 
Q 1697 3084 1428 2787 
Q 1159 2491 1159 1978 
L 1159 0 
L 581 0 
L 581 3500 
L 1159 3500 
L 1159 2956 
Q 1366 3272 1645 3428 
Q 1925 3584 2291 3584 
Q 2894 3584 3203 3211 
Q 3513 2838 3513 2113 
z
" transform="scale(0.015625)"/>
        <path id="DejaVuSans-37" d="M 525 4666 
L 3525 4666 
L 3525 4397 
L 1831 0 
L 1172 0 
L 2766 4134 
L 525 4134 
L 525 4666 
z
" transform="scale(0.015625)"/>
       </defs>
       <use xlink:href="#DejaVuSans-4d"/>
       <use xlink:href="#DejaVuSans-6f" x="86.279297"/>
       <use xlink:href="#DejaVuSans-6e" x="147.460938"/>
       <use xlink:href="#DejaVuSans-20" x="210.839844"/>
       <use xlink:href="#DejaVuSans-31" x="242.626953"/>
       <use xlink:href="#DejaVuSans-32" x="306.25"/>
       <use xlink:href="#DejaVuSans-2f" x="369.873047"/>
       <use xlink:href="#DejaVuSans-32" x="403.564453"/>
       <use xlink:href="#DejaVuSans-37" x="467.1875"/>
      </g>
     </g>
    </g>
    <g id="xtick_3">
     <g id="line2d_3">
      <g>
       <use xlink:href="#m697aab85dd" x="184.446129" y="276.48" style="fill: #ffffff; stroke: #ffffff; stroke-width: 0.8"/>
      </g>
     </g>
     <g id="text_3">
      <!-- Fri 12/31 -->
      <g style="fill: #ffffff" transform="translate(145.376945 312.01669)rotate(-30)scale(0.1 -0.1)">
       <defs>
        <path id="DejaVuSans-33" d="M 2597 2516 
Q 3050 2419 3304 2112 
Q 3559 1806 3559 1356 
Q 3559 666 3084 287 
Q 2609 -91 1734 -91 
Q 1441 -91 1130 -33 
Q 819 25 488 141 
L 488 750 
Q 750 597 1062 519 
Q 1375 441 1716 441 
Q 2309 441 2620 675 
Q 2931 909 2931 1356 
Q 2931 1769 2642 2001 
Q 2353 2234 1838 2234 
L 1294 2234 
L 1294 2753 
L 1863 2753 
Q 2328 2753 2575 2939 
Q 2822 3125 2822 3475 
Q 2822 3834 2567 4026 
Q 2313 4219 1838 4219 
Q 1578 4219 1281 4162 
Q 984 4106 628 3988 
L 628 4550 
Q 988 4650 1302 4700 
Q 1616 4750 1894 4750 
Q 2613 4750 3031 4423 
Q 3450 4097 3450 3541 
Q 3450 3153 3228 2886 
Q 3006 2619 2597 2516 
z
" transform="scale(0.015625)"/>
       </defs>
       <use xlink:href="#DejaVuSans-46"/>
       <use xlink:href="#DejaVuSans-72" x="50.269531"/>
       <use xlink:href="#DejaVuSans-69" x="91.382812"/>
       <use xlink:href="#DejaVuSans-20" x="119.166016"/>
       <use xlink:href="#DejaVuSans-31" x="150.953125"/>
       <use xlink:href="#DejaVuSans-32" x="214.576172"/>
       <use xlink:href="#DejaVuSans-2f" x="278.199219"/>
       <use xlink:href="#DejaVuSans-33" x="311.890625"/>
       <use xlink:href="#DejaVuSans-31" x="375.513672"/>
      </g>
     </g>
    </g>
    <g id="xtick_4">
     <g id="line2d_4">
      <g>
       <use xlink:href="#m697aab85dd" x="219.685797" y="276.48" style="fill: #ffffff; stroke: #ffffff; stroke-width: 0.8"/>
      </g>
     </g>
     <g id="text_4">
      <!-- Mon 01/03 -->
      <g style="fill: #ffffff" transform="translate(172.676242 316.601065)rotate(-30)scale(0.1 -0.1)">
       <defs>
        <path id="DejaVuSans-30" d="M 2034 4250 
Q 1547 4250 1301 3770 
Q 1056 3291 1056 2328 
Q 1056 1369 1301 889 
Q 1547 409 2034 409 
Q 2525 409 2770 889 
Q 3016 1369 3016 2328 
Q 3016 3291 2770 3770 
Q 2525 4250 2034 4250 
z
M 2034 4750 
Q 2819 4750 3233 4129 
Q 3647 3509 3647 2328 
Q 3647 1150 3233 529 
Q 2819 -91 2034 -91 
Q 1250 -91 836 529 
Q 422 1150 422 2328 
Q 422 3509 836 4129 
Q 1250 4750 2034 4750 
z
" transform="scale(0.015625)"/>
       </defs>
       <use xlink:href="#DejaVuSans-4d"/>
       <use xlink:href="#DejaVuSans-6f" x="86.279297"/>
       <use xlink:href="#DejaVuSans-6e" x="147.460938"/>
       <use xlink:href="#DejaVuSans-20" x="210.839844"/>
       <use xlink:href="#DejaVuSans-30" x="242.626953"/>
       <use xlink:href="#DejaVuSans-31" x="306.25"/>
       <use xlink:href="#DejaVuSans-2f" x="369.873047"/>
       <use xlink:href="#DejaVuSans-30" x="403.564453"/>
       <use xlink:href="#DejaVuSans-33" x="467.1875"/>
      </g>
     </g>
    </g>
    <g id="xtick_5">
     <g id="line2d_5">
      <g>
       <use xlink:href="#m697aab85dd" x="266.672021" y="276.48" style="fill: #ffffff; stroke: #ffffff; stroke-width: 0.8"/>
      </g>
     </g>
     <g id="text_5">
      <!-- Fri 01/07 -->
      <g style="fill: #ffffff" transform="translate(227.602836 312.01669)rotate(-30)scale(0.1 -0.1)">
       <use xlink:href="#DejaVuSans-46"/>
       <use xlink:href="#DejaVuSans-72" x="50.269531"/>
       <use xlink:href="#DejaVuSans-69" x="91.382812"/>
       <use xlink:href="#DejaVuSans-20" x="119.166016"/>
       <use xlink:href="#DejaVuSans-30" x="150.953125"/>
       <use xlink:href="#DejaVuSans-31" x="214.576172"/>
       <use xlink:href="#DejaVuSans-2f" x="278.199219"/>
       <use xlink:href="#DejaVuSans-30" x="311.890625"/>
       <use xlink:href="#DejaVuSans-37" x="375.513672"/>
      </g>
     </g>
    </g>
    <g id="xtick_6">
     <g id="line2d_6">
      <g>
       <use xlink:href="#m697aab85dd" x="301.911688" y="276.48" style="fill: #ffffff; stroke: #ffffff; stroke-width: 0.8"/>
      </g>
     </g>
     <g id="text_6">
      <!-- Mon 01/10 -->
      <g style="fill: #ffffff" transform="translate(254.902134 316.601065)rotate(-30)scale(0.1 -0.1)">
       <use xlink:href="#DejaVuSans-4d"/>
       <use xlink:href="#DejaVuSans-6f" x="86.279297"/>
       <use xlink:href="#DejaVuSans-6e" x="147.460938"/>
       <use xlink:href="#DejaVuSans-20" x="210.839844"/>
       <use xlink:href="#DejaVuSans-30" x="242.626953"/>
       <use xlink:href="#DejaVuSans-31" x="306.25"/>
       <use xlink:href="#DejaVuSans-2f" x="369.873047"/>
       <use xlink:href="#DejaVuSans-31" x="403.564453"/>
       <use xlink:href="#DejaVuSans-30" x="467.1875"/>
      </g>
     </g>
    </g>
    <g id="xtick_7">
     <g id="line2d_7">
      <g>
       <use xlink:href="#m697aab85dd" x="348.897912" y="276.48" style="fill: #ffffff; stroke: #ffffff; stroke-width: 0.8"/>
      </g>
     </g>
     <g id="text_7">
      <!-- Fri 01/14 -->
      <g style="fill: #ffffff" transform="translate(309.828728 312.01669)rotate(-30)scale(0.1 -0.1)">
       <use xlink:href="#DejaVuSans-46"/>
       <use xlink:href="#DejaVuSans-72" x="50.269531"/>
       <use xlink:href="#DejaVuSans-69" x="91.382812"/>
       <use xlink:href="#DejaVuSans-20" x="119.166016"/>
       <use xlink:href="#DejaVuSans-30" x="150.953125"/>
       <use xlink:href="#DejaVuSans-31" x="214.576172"/>
       <use xlink:href="#DejaVuSans-2f" x="278.199219"/>
       <use xlink:href="#DejaVuSans-31" x="311.890625"/>
       <use xlink:href="#DejaVuSans-34" x="375.513672"/>
      </g>
     </g>
    </g>
    <g id="xtick_8">
     <g id="line2d_8">
      <g>
       <use xlink:href="#m697aab85dd" x="384.13758" y="276.48" style="fill: #ffffff; stroke: #ffffff; stroke-width: 0.8"/>
      </g>
     </g>
     <g id="text_8">
      <!-- Mon 01/17 -->
      <g style="fill: #ffffff" transform="translate(337.128025 316.601065)rotate(-30)scale(0.1 -0.1)">
       <use xlink:href="#DejaVuSans-4d"/>
       <use xlink:href="#DejaVuSans-6f" x="86.279297"/>
       <use xlink:href="#DejaVuSans-6e" x="147.460938"/>
       <use xlink:href="#DejaVuSans-20" x="210.839844"/>
       <use xlink:href="#DejaVuSans-30" x="242.626953"/>
       <use xlink:href="#DejaVuSans-31" x="306.25"/>
       <use xlink:href="#DejaVuSans-2f" x="369.873047"/>
       <use xlink:href="#DejaVuSans-31" x="403.564453"/>
       <use xlink:href="#DejaVuSans-37" x="467.1875"/>
      </g>
     </g>
    </g>
    <g id="xtick_9">
     <g id="line2d_9">
      <defs>
       <path id="m956d4614e7" d="M 0 0 
L 0 2 
" style="stroke: #ffffff; stroke-width: 0.6"/>
      </defs>
      <g>
       <use xlink:href="#m956d4614e7" x="66.98057" y="276.48" style="fill: #ffffff; stroke: #ffffff; stroke-width: 0.6"/>
      </g>
     </g>
    </g>
    <g id="xtick_10">
     <g id="line2d_10">
      <g>
       <use xlink:href="#m956d4614e7" x="78.727126" y="276.48" style="fill: #ffffff; stroke: #ffffff; stroke-width: 0.6"/>
      </g>
     </g>
    </g>
    <g id="xtick_11">
     <g id="line2d_11">
      <g>
       <use xlink:href="#m956d4614e7" x="90.473682" y="276.48" style="fill: #ffffff; stroke: #ffffff; stroke-width: 0.6"/>
      </g>
     </g>
    </g>
    <g id="xtick_12">
     <g id="line2d_12">
      <g>
       <use xlink:href="#m956d4614e7" x="113.966793" y="276.48" style="fill: #ffffff; stroke: #ffffff; stroke-width: 0.6"/>
      </g>
     </g>
    </g>
    <g id="xtick_13">
     <g id="line2d_13">
      <g>
       <use xlink:href="#m956d4614e7" x="125.713349" y="276.48" style="fill: #ffffff; stroke: #ffffff; stroke-width: 0.6"/>
      </g>
     </g>
    </g>
    <g id="xtick_14">
     <g id="line2d_14">
      <g>
       <use xlink:href="#m956d4614e7" x="149.206461" y="276.48" style="fill: #ffffff; stroke: #ffffff; stroke-width: 0.6"/>
      </g>
     </g>
    </g>
    <g id="xtick_15">
     <g id="line2d_15">
      <g>
       <use xlink:href="#m956d4614e7" x="160.953017" y="276.48" style="fill: #ffffff; stroke: #ffffff; stroke-width: 0.6"/>
      </g>
     </g>
    </g>
    <g id="xtick_16">
     <g id="line2d_16">
      <g>
       <use xlink:href="#m956d4614e7" x="172.699573" y="276.48" style="fill: #ffffff; stroke: #ffffff; stroke-width: 0.6"/>
      </g>
     </g>
    </g>
    <g id="xtick_17">
     <g id="line2d_17">
      <g>
       <use xlink:href="#m956d4614e7" x="196.192685" y="276.48" style="fill: #ffffff; stroke: #ffffff; stroke-width: 0.6"/>
      </g>
     </g>
    </g>
    <g id="xtick_18">
     <g id="line2d_18">
      <g>
       <use xlink:href="#m956d4614e7" x="207.939241" y="276.48" style="fill: #ffffff; stroke: #ffffff; stroke-width: 0.6"/>
      </g>
     </g>
    </g>
    <g id="xtick_19">
     <g id="line2d_19">
      <g>
       <use xlink:href="#m956d4614e7" x="231.432353" y="276.48" style="fill: #ffffff; stroke: #ffffff; stroke-width: 0.6"/>
      </g>
     </g>
    </g>
    <g id="xtick_20">
     <g id="line2d_20">
      <g>
       <use xlink:href="#m956d4614e7" x="243.178909" y="276.48" style="fill: #ffffff; stroke: #ffffff; stroke-width: 0.6"/>
      </g>
     </g>
    </g>
    <g id="xtick_21">
     <g id="line2d_21">
      <g>
       <use xlink:href="#m956d4614e7" x="254.925465" y="276.48" style="fill: #ffffff; stroke: #ffffff; stroke-width: 0.6"/>
      </g>
     </g>
    </g>
    <g id="xtick_22">
     <g id="line2d_22">
      <g>
       <use xlink:href="#m956d4614e7" x="278.418577" y="276.48" style="fill: #ffffff; stroke: #ffffff; stroke-width: 0.6"/>
      </g>
     </g>
    </g>
    <g id="xtick_23">
     <g id="line2d_23">
      <g>
       <use xlink:href="#m956d4614e7" x="290.165132" y="276.48" style="fill: #ffffff; stroke: #ffffff; stroke-width: 0.6"/>
      </g>
     </g>
    </g>
    <g id="xtick_24">
     <g id="line2d_24">
      <g>
       <use xlink:href="#m956d4614e7" x="313.658244" y="276.48" style="fill: #ffffff; stroke: #ffffff; stroke-width: 0.6"/>
      </g>
     </g>
    </g>
    <g id="xtick_25">
     <g id="line2d_25">
      <g>
       <use xlink:href="#m956d4614e7" x="325.4048" y="276.48" style="fill: #ffffff; stroke: #ffffff; stroke-width: 0.6"/>
      </g>
     </g>
    </g>
    <g id="xtick_26">
     <g id="line2d_26">
      <g>
       <use xlink:href="#m956d4614e7" x="337.151356" y="276.48" style="fill: #ffffff; stroke: #ffffff; stroke-width: 0.6"/>
      </g>
     </g>
    </g>
    <g id="xtick_27">
     <g id="line2d_27">
      <g>
       <use xlink:href="#m956d4614e7" x="360.644468" y="276.48" style="fill: #ffffff; stroke: #ffffff; stroke-width: 0.6"/>
      </g>
     </g>
    </g>
    <g id="xtick_28">
     <g id="line2d_28">
      <g>
       <use xlink:href="#m956d4614e7" x="372.391024" y="276.48" style="fill: #ffffff; stroke: #ffffff; stroke-width: 0.6"/>
      </g>
     </g>
    </g>
    <g id="xtick_29">
     <g id="line2d_29">
      <g>
       <use xlink:href="#m956d4614e7" x="395.884136" y="276.48" style="fill: #ffffff; stroke: #ffffff; stroke-width: 0.6"/>
      </g>
     </g>
    </g>
    <g id="xtick_30">
     <g id="line2d_30">
      <g>
       <use xlink:href="#m956d4614e7" x="407.630692" y="276.48" style="fill: #ffffff; stroke: #ffffff; stroke-width: 0.6"/>
      </g>
     </g>
    </g>
   </g>
   <g id="matplotlib.axis_2">
    <g id="ytick_1">
     <g id="line2d_31">
      <defs>
       <path id="med2da077f2" d="M 0 0 
L -3.5 0 
" style="stroke: #ffffff; stroke-width: 0.8"/>
      </defs>
      <g>
       <use xlink:href="#med2da077f2" x="57.6" y="276.48" style="fill: #ffffff; stroke: #ffffff; stroke-width: 0.8"/>
      </g>
     </g>
     <g id="text_9">
      <!-- 0 -->
      <g style="fill: #ffffff" transform="translate(44.2375 280.279219)scale(0.1 -0.1)">
       <use xlink:href="#DejaVuSans-30"/>
      </g>
     </g>
    </g>
    <g id="ytick_2">
     <g id="line2d_32">
      <g>
       <use xlink:href="#med2da077f2" x="57.6" y="246.637714" style="fill: #ffffff; stroke: #ffffff; stroke-width: 0.8"/>
      </g>
     </g>
     <g id="text_10">
      <!-- 200 -->
      <g style="fill: #ffffff" transform="translate(31.5125 250.436933)scale(0.1 -0.1)">
       <use xlink:href="#DejaVuSans-32"/>
       <use xlink:href="#DejaVuSans-30" x="63.623047"/>
       <use xlink:href="#DejaVuSans-30" x="127.246094"/>
      </g>
     </g>
    </g>
    <g id="ytick_3">
     <g id="line2d_33">
      <g>
       <use xlink:href="#med2da077f2" x="57.6" y="216.795429" style="fill: #ffffff; stroke: #ffffff; stroke-width: 0.8"/>
      </g>
     </g>
     <g id="text_11">
      <!-- 400 -->
      <g style="fill: #ffffff" transform="translate(31.5125 220.594647)scale(0.1 -0.1)">
       <use xlink:href="#DejaVuSans-34"/>
       <use xlink:href="#DejaVuSans-30" x="63.623047"/>
       <use xlink:href="#DejaVuSans-30" x="127.246094"/>
      </g>
     </g>
    </g>
    <g id="ytick_4">
     <g id="line2d_34">
      <g>
       <use xlink:href="#med2da077f2" x="57.6" y="186.953143" style="fill: #ffffff; stroke: #ffffff; stroke-width: 0.8"/>
      </g>
     </g>
     <g id="text_12">
      <!-- 600 -->
      <g style="fill: #ffffff" transform="translate(31.5125 190.752362)scale(0.1 -0.1)">
       <defs>
        <path id="DejaVuSans-36" d="M 2113 2584 
Q 1688 2584 1439 2293 
Q 1191 2003 1191 1497 
Q 1191 994 1439 701 
Q 1688 409 2113 409 
Q 2538 409 2786 701 
Q 3034 994 3034 1497 
Q 3034 2003 2786 2293 
Q 2538 2584 2113 2584 
z
M 3366 4563 
L 3366 3988 
Q 3128 4100 2886 4159 
Q 2644 4219 2406 4219 
Q 1781 4219 1451 3797 
Q 1122 3375 1075 2522 
Q 1259 2794 1537 2939 
Q 1816 3084 2150 3084 
Q 2853 3084 3261 2657 
Q 3669 2231 3669 1497 
Q 3669 778 3244 343 
Q 2819 -91 2113 -91 
Q 1303 -91 875 529 
Q 447 1150 447 2328 
Q 447 3434 972 4092 
Q 1497 4750 2381 4750 
Q 2619 4750 2861 4703 
Q 3103 4656 3366 4563 
z
" transform="scale(0.015625)"/>
       </defs>
       <use xlink:href="#DejaVuSans-36"/>
       <use xlink:href="#DejaVuSans-30" x="63.623047"/>
       <use xlink:href="#DejaVuSans-30" x="127.246094"/>
      </g>
     </g>
    </g>
    <g id="ytick_5">
     <g id="line2d_35">
      <g>
       <use xlink:href="#med2da077f2" x="57.6" y="157.110857" style="fill: #ffffff; stroke: #ffffff; stroke-width: 0.8"/>
      </g>
     </g>
     <g id="text_13">
      <!-- 800 -->
      <g style="fill: #ffffff" transform="translate(31.5125 160.910076)scale(0.1 -0.1)">
       <defs>
        <path id="DejaVuSans-38" d="M 2034 2216 
Q 1584 2216 1326 1975 
Q 1069 1734 1069 1313 
Q 1069 891 1326 650 
Q 1584 409 2034 409 
Q 2484 409 2743 651 
Q 3003 894 3003 1313 
Q 3003 1734 2745 1975 
Q 2488 2216 2034 2216 
z
M 1403 2484 
Q 997 2584 770 2862 
Q 544 3141 544 3541 
Q 544 4100 942 4425 
Q 1341 4750 2034 4750 
Q 2731 4750 3128 4425 
Q 3525 4100 3525 3541 
Q 3525 3141 3298 2862 
Q 3072 2584 2669 2484 
Q 3125 2378 3379 2068 
Q 3634 1759 3634 1313 
Q 3634 634 3220 271 
Q 2806 -91 2034 -91 
Q 1263 -91 848 271 
Q 434 634 434 1313 
Q 434 1759 690 2068 
Q 947 2378 1403 2484 
z
M 1172 3481 
Q 1172 3119 1398 2916 
Q 1625 2713 2034 2713 
Q 2441 2713 2670 2916 
Q 2900 3119 2900 3481 
Q 2900 3844 2670 4047 
Q 2441 4250 2034 4250 
Q 1625 4250 1398 4047 
Q 1172 3844 1172 3481 
z
" transform="scale(0.015625)"/>
       </defs>
       <use xlink:href="#DejaVuSans-38"/>
       <use xlink:href="#DejaVuSans-30" x="63.623047"/>
       <use xlink:href="#DejaVuSans-30" x="127.246094"/>
      </g>
     </g>
    </g>
    <g id="ytick_6">
     <g id="line2d_36">
      <g>
       <use xlink:href="#med2da077f2" x="57.6" y="127.268571" style="fill: #ffffff; stroke: #ffffff; stroke-width: 0.8"/>
      </g>
     </g>
     <g id="text_14">
      <!-- 1000 -->
      <g style="fill: #ffffff" transform="translate(25.15 131.06779)scale(0.1 -0.1)">
       <use xlink:href="#DejaVuSans-31"/>
       <use xlink:href="#DejaVuSans-30" x="63.623047"/>
       <use xlink:href="#DejaVuSans-30" x="127.246094"/>
       <use xlink:href="#DejaVuSans-30" x="190.869141"/>
      </g>
     </g>
    </g>
    <g id="ytick_7">
     <g id="line2d_37">
      <g>
       <use xlink:href="#med2da077f2" x="57.6" y="97.426286" style="fill: #ffffff; stroke: #ffffff; stroke-width: 0.8"/>
      </g>
     </g>
     <g id="text_15">
      <!-- 1200 -->
      <g style="fill: #ffffff" transform="translate(25.15 101.225504)scale(0.1 -0.1)">
       <use xlink:href="#DejaVuSans-31"/>
       <use xlink:href="#DejaVuSans-32" x="63.623047"/>
       <use xlink:href="#DejaVuSans-30" x="127.246094"/>
       <use xlink:href="#DejaVuSans-30" x="190.869141"/>
      </g>
     </g>
    </g>
    <g id="ytick_8">
     <g id="line2d_38">
      <g>
       <use xlink:href="#med2da077f2" x="57.6" y="67.584" style="fill: #ffffff; stroke: #ffffff; stroke-width: 0.8"/>
      </g>
     </g>
     <g id="text_16">
      <!-- 1400 -->
      <g style="fill: #ffffff" transform="translate(25.15 71.383219)scale(0.1 -0.1)">
       <use xlink:href="#DejaVuSans-31"/>
       <use xlink:href="#DejaVuSans-34" x="63.623047"/>
       <use xlink:href="#DejaVuSans-30" x="127.246094"/>
       <use xlink:href="#DejaVuSans-30" x="190.869141"/>
      </g>
     </g>
    </g>
    <g id="text_17">
     <!-- Number of tickets sold -->
     <g style="fill: #ffffff" transform="translate(19.070312 215.329906)rotate(-90)scale(0.1 -0.1)">
      <defs>
       <path id="DejaVuSans-4e" d="M 628 4666 
L 1478 4666 
L 3547 763 
L 3547 4666 
L 4159 4666 
L 4159 0 
L 3309 0 
L 1241 3903 
L 1241 0 
L 628 0 
L 628 4666 
z
" transform="scale(0.015625)"/>
       <path id="DejaVuSans-75" d="M 544 1381 
L 544 3500 
L 1119 3500 
L 1119 1403 
Q 1119 906 1312 657 
Q 1506 409 1894 409 
Q 2359 409 2629 706 
Q 2900 1003 2900 1516 
L 2900 3500 
L 3475 3500 
L 3475 0 
L 2900 0 
L 2900 538 
Q 2691 219 2414 64 
Q 2138 -91 1772 -91 
Q 1169 -91 856 284 
Q 544 659 544 1381 
z
M 1991 3584 
L 1991 3584 
z
" transform="scale(0.015625)"/>
       <path id="DejaVuSans-6d" d="M 3328 2828 
Q 3544 3216 3844 3400 
Q 4144 3584 4550 3584 
Q 5097 3584 5394 3201 
Q 5691 2819 5691 2113 
L 5691 0 
L 5113 0 
L 5113 2094 
Q 5113 2597 4934 2840 
Q 4756 3084 4391 3084 
Q 3944 3084 3684 2787 
Q 3425 2491 3425 1978 
L 3425 0 
L 2847 0 
L 2847 2094 
Q 2847 2600 2669 2842 
Q 2491 3084 2119 3084 
Q 1678 3084 1418 2786 
Q 1159 2488 1159 1978 
L 1159 0 
L 581 0 
L 581 3500 
L 1159 3500 
L 1159 2956 
Q 1356 3278 1631 3431 
Q 1906 3584 2284 3584 
Q 2666 3584 2933 3390 
Q 3200 3197 3328 2828 
z
" transform="scale(0.015625)"/>
       <path id="DejaVuSans-62" d="M 3116 1747 
Q 3116 2381 2855 2742 
Q 2594 3103 2138 3103 
Q 1681 3103 1420 2742 
Q 1159 2381 1159 1747 
Q 1159 1113 1420 752 
Q 1681 391 2138 391 
Q 2594 391 2855 752 
Q 3116 1113 3116 1747 
z
M 1159 2969 
Q 1341 3281 1617 3432 
Q 1894 3584 2278 3584 
Q 2916 3584 3314 3078 
Q 3713 2572 3713 1747 
Q 3713 922 3314 415 
Q 2916 -91 2278 -91 
Q 1894 -91 1617 61 
Q 1341 213 1159 525 
L 1159 0 
L 581 0 
L 581 4863 
L 1159 4863 
L 1159 2969 
z
" transform="scale(0.015625)"/>
       <path id="DejaVuSans-65" d="M 3597 1894 
L 3597 1613 
L 953 1613 
Q 991 1019 1311 708 
Q 1631 397 2203 397 
Q 2534 397 2845 478 
Q 3156 559 3463 722 
L 3463 178 
Q 3153 47 2828 -22 
Q 2503 -91 2169 -91 
Q 1331 -91 842 396 
Q 353 884 353 1716 
Q 353 2575 817 3079 
Q 1281 3584 2069 3584 
Q 2775 3584 3186 3129 
Q 3597 2675 3597 1894 
z
M 3022 2063 
Q 3016 2534 2758 2815 
Q 2500 3097 2075 3097 
Q 1594 3097 1305 2825 
Q 1016 2553 972 2059 
L 3022 2063 
z
" transform="scale(0.015625)"/>
       <path id="DejaVuSans-66" d="M 2375 4863 
L 2375 4384 
L 1825 4384 
Q 1516 4384 1395 4259 
Q 1275 4134 1275 3809 
L 1275 3500 
L 2222 3500 
L 2222 3053 
L 1275 3053 
L 1275 0 
L 697 0 
L 697 3053 
L 147 3053 
L 147 3500 
L 697 3500 
L 697 3744 
Q 697 4328 969 4595 
Q 1241 4863 1831 4863 
L 2375 4863 
z
" transform="scale(0.015625)"/>
       <path id="DejaVuSans-74" d="M 1172 4494 
L 1172 3500 
L 2356 3500 
L 2356 3053 
L 1172 3053 
L 1172 1153 
Q 1172 725 1289 603 
Q 1406 481 1766 481 
L 2356 481 
L 2356 0 
L 1766 0 
Q 1100 0 847 248 
Q 594 497 594 1153 
L 594 3053 
L 172 3053 
L 172 3500 
L 594 3500 
L 594 4494 
L 1172 4494 
z
" transform="scale(0.015625)"/>
       <path id="DejaVuSans-63" d="M 3122 3366 
L 3122 2828 
Q 2878 2963 2633 3030 
Q 2388 3097 2138 3097 
Q 1578 3097 1268 2742 
Q 959 2388 959 1747 
Q 959 1106 1268 751 
Q 1578 397 2138 397 
Q 2388 397 2633 464 
Q 2878 531 3122 666 
L 3122 134 
Q 2881 22 2623 -34 
Q 2366 -91 2075 -91 
Q 1284 -91 818 406 
Q 353 903 353 1747 
Q 353 2603 823 3093 
Q 1294 3584 2113 3584 
Q 2378 3584 2631 3529 
Q 2884 3475 3122 3366 
z
" transform="scale(0.015625)"/>
       <path id="DejaVuSans-6b" d="M 581 4863 
L 1159 4863 
L 1159 1991 
L 2875 3500 
L 3609 3500 
L 1753 1863 
L 3688 0 
L 2938 0 
L 1159 1709 
L 1159 0 
L 581 0 
L 581 4863 
z
" transform="scale(0.015625)"/>
       <path id="DejaVuSans-73" d="M 2834 3397 
L 2834 2853 
Q 2591 2978 2328 3040 
Q 2066 3103 1784 3103 
Q 1356 3103 1142 2972 
Q 928 2841 928 2578 
Q 928 2378 1081 2264 
Q 1234 2150 1697 2047 
L 1894 2003 
Q 2506 1872 2764 1633 
Q 3022 1394 3022 966 
Q 3022 478 2636 193 
Q 2250 -91 1575 -91 
Q 1294 -91 989 -36 
Q 684 19 347 128 
L 347 722 
Q 666 556 975 473 
Q 1284 391 1588 391 
Q 1994 391 2212 530 
Q 2431 669 2431 922 
Q 2431 1156 2273 1281 
Q 2116 1406 1581 1522 
L 1381 1569 
Q 847 1681 609 1914 
Q 372 2147 372 2553 
Q 372 3047 722 3315 
Q 1072 3584 1716 3584 
Q 2034 3584 2315 3537 
Q 2597 3491 2834 3397 
z
" transform="scale(0.015625)"/>
       <path id="DejaVuSans-6c" d="M 603 4863 
L 1178 4863 
L 1178 0 
L 603 0 
L 603 4863 
z
" transform="scale(0.015625)"/>
       <path id="DejaVuSans-64" d="M 2906 2969 
L 2906 4863 
L 3481 4863 
L 3481 0 
L 2906 0 
L 2906 525 
Q 2725 213 2448 61 
Q 2172 -91 1784 -91 
Q 1150 -91 751 415 
Q 353 922 353 1747 
Q 353 2572 751 3078 
Q 1150 3584 1784 3584 
Q 2172 3584 2448 3432 
Q 2725 3281 2906 2969 
z
M 947 1747 
Q 947 1113 1208 752 
Q 1469 391 1925 391 
Q 2381 391 2643 752 
Q 2906 1113 2906 1747 
Q 2906 2381 2643 2742 
Q 2381 3103 1925 3103 
Q 1469 3103 1208 2742 
Q 947 2381 947 1747 
z
" transform="scale(0.015625)"/>
      </defs>
      <use xlink:href="#DejaVuSans-4e"/>
      <use xlink:href="#DejaVuSans-75" x="74.804688"/>
      <use xlink:href="#DejaVuSans-6d" x="138.183594"/>
      <use xlink:href="#DejaVuSans-62" x="235.595703"/>
      <use xlink:href="#DejaVuSans-65" x="299.072266"/>
      <use xlink:href="#DejaVuSans-72" x="360.595703"/>
      <use xlink:href="#DejaVuSans-20" x="401.708984"/>
      <use xlink:href="#DejaVuSans-6f" x="433.496094"/>
      <use xlink:href="#DejaVuSans-66" x="494.677734"/>
      <use xlink:href="#DejaVuSans-20" x="529.882812"/>
      <use xlink:href="#DejaVuSans-74" x="561.669922"/>
      <use xlink:href="#DejaVuSans-69" x="600.878906"/>
      <use xlink:href="#DejaVuSans-63" x="628.662109"/>
      <use xlink:href="#DejaVuSans-6b" x="683.642578"/>
      <use xlink:href="#DejaVuSans-65" x="737.927734"/>
      <use xlink:href="#DejaVuSans-74" x="799.451172"/>
      <use xlink:href="#DejaVuSans-73" x="838.660156"/>
      <use xlink:href="#DejaVuSans-20" x="890.759766"/>
      <use xlink:href="#DejaVuSans-73" x="922.546875"/>
      <use xlink:href="#DejaVuSans-6f" x="974.646484"/>
      <use xlink:href="#DejaVuSans-6c" x="1035.828125"/>
      <use xlink:href="#DejaVuSans-64" x="1063.611328"/>
     </g>
    </g>
   </g>
   <g id="line2d_39">
    <path d="M 57.6 52.662857 
L 414.72 52.662857 
" clip-path="url(#pbf5a42136d)" style="fill: none; stroke-dasharray: 5.55,2.4; stroke-dashoffset: 0; stroke: #32cd32; stroke-width: 1.5"/>
   </g>
   <g id="patch_3">
    <path d="M 57.6 276.48 
L 57.6 41.472 
" style="fill: none; stroke: #000000; stroke-width: 0.8; stroke-linejoin: miter; stroke-linecap: square"/>
   </g>
   <g id="patch_4">
    <path d="M 414.72 276.48 
L 414.72 41.472 
" style="fill: none; stroke: #000000; stroke-width: 0.8; stroke-linejoin: miter; stroke-linecap: square"/>
   </g>
   <g id="patch_5">
    <path d="M 57.6 276.48 
L 414.72 276.48 
" style="fill: none; stroke: #000000; stroke-width: 0.8; stroke-linejoin: miter; stroke-linecap: square"/>
   </g>
   <g id="patch_6">
    <path d="M 57.6 41.472 
L 414.72 41.472 
" style="fill: none; stroke: #000000; stroke-width: 0.8; stroke-linejoin: miter; stroke-linecap: square"/>
   </g>
   <g id="text_18">
    <!-- MCH Tickets -->
    <g style="fill: #ffffff" transform="translate(199.504687 35.472)scale(0.12 -0.12)">
     <defs>
      <path id="DejaVuSans-43" d="M 4122 4306 
L 4122 3641 
Q 3803 3938 3442 4084 
Q 3081 4231 2675 4231 
Q 1875 4231 1450 3742 
Q 1025 3253 1025 2328 
Q 1025 1406 1450 917 
Q 1875 428 2675 428 
Q 3081 428 3442 575 
Q 3803 722 4122 1019 
L 4122 359 
Q 3791 134 3420 21 
Q 3050 -91 2638 -91 
Q 1578 -91 968 557 
Q 359 1206 359 2328 
Q 359 3453 968 4101 
Q 1578 4750 2638 4750 
Q 3056 4750 3426 4639 
Q 3797 4528 4122 4306 
z
" transform="scale(0.015625)"/>
      <path id="DejaVuSans-48" d="M 628 4666 
L 1259 4666 
L 1259 2753 
L 3553 2753 
L 3553 4666 
L 4184 4666 
L 4184 0 
L 3553 0 
L 3553 2222 
L 1259 2222 
L 1259 0 
L 628 0 
L 628 4666 
z
" transform="scale(0.015625)"/>
      <path id="DejaVuSans-54" d="M -19 4666 
L 3928 4666 
L 3928 4134 
L 2272 4134 
L 2272 0 
L 1638 0 
L 1638 4134 
L -19 4134 
L -19 4666 
z
" transform="scale(0.015625)"/>
     </defs>
     <use xlink:href="#DejaVuSans-4d"/>
     <use xlink:href="#DejaVuSans-43" x="86.279297"/>
     <use xlink:href="#DejaVuSans-48" x="156.103516"/>
     <use xlink:href="#DejaVuSans-20" x="231.298828"/>
     <use xlink:href="#DejaVuSans-54" x="263.085938"/>
     <use xlink:href="#DejaVuSans-69" x="321.044922"/>
     <use xlink:href="#DejaVuSans-63" x="348.828125"/>
     <use xlink:href="#DejaVuSans-6b" x="403.808594"/>
     <use xlink:href="#DejaVuSans-65" x="458.09375"/>
     <use xlink:href="#DejaVuSans-74" x="519.617188"/>
     <use xlink:href="#DejaVuSans-73" x="558.826172"/>
    </g>
   </g>
   <g id="legend_1">
    <g id="patch_7">
     <path d="M 64.6 93.506375 
L 244.389062 93.506375 
Q 246.389062 93.506375 246.389062 91.506375 
L 246.389062 48.472 
Q 246.389062 46.472 244.389062 46.472 
L 64.6 46.472 
Q 62.6 46.472 62.6 48.472 
L 62.6 91.506375 
Q 62.6 93.506375 64.6 93.506375 
z
" style="fill: #ffffff; opacity: 0.8; stroke: #cccccc; stroke-linejoin: miter"/>
    </g>
    <g id="patch_8">
     <path d="M 66.6 58.070437 
L 86.6 58.070437 
L 86.6 51.070437 
L 66.6 51.070437 
z
" style="fill: #fa448c; fill-opacity: 0.8"/>
    </g>
    <g id="text_19">
     <!-- Early-BirdTickets -->
     <g transform="translate(94.6 58.070437)scale(0.1 -0.1)">
      <defs>
       <path id="DejaVuSans-45" d="M 628 4666 
L 3578 4666 
L 3578 4134 
L 1259 4134 
L 1259 2753 
L 3481 2753 
L 3481 2222 
L 1259 2222 
L 1259 531 
L 3634 531 
L 3634 0 
L 628 0 
L 628 4666 
z
" transform="scale(0.015625)"/>
       <path id="DejaVuSans-61" d="M 2194 1759 
Q 1497 1759 1228 1600 
Q 959 1441 959 1056 
Q 959 750 1161 570 
Q 1363 391 1709 391 
Q 2188 391 2477 730 
Q 2766 1069 2766 1631 
L 2766 1759 
L 2194 1759 
z
M 3341 1997 
L 3341 0 
L 2766 0 
L 2766 531 
Q 2569 213 2275 61 
Q 1981 -91 1556 -91 
Q 1019 -91 701 211 
Q 384 513 384 1019 
Q 384 1609 779 1909 
Q 1175 2209 1959 2209 
L 2766 2209 
L 2766 2266 
Q 2766 2663 2505 2880 
Q 2244 3097 1772 3097 
Q 1472 3097 1187 3025 
Q 903 2953 641 2809 
L 641 3341 
Q 956 3463 1253 3523 
Q 1550 3584 1831 3584 
Q 2591 3584 2966 3190 
Q 3341 2797 3341 1997 
z
" transform="scale(0.015625)"/>
       <path id="DejaVuSans-79" d="M 2059 -325 
Q 1816 -950 1584 -1140 
Q 1353 -1331 966 -1331 
L 506 -1331 
L 506 -850 
L 844 -850 
Q 1081 -850 1212 -737 
Q 1344 -625 1503 -206 
L 1606 56 
L 191 3500 
L 800 3500 
L 1894 763 
L 2988 3500 
L 3597 3500 
L 2059 -325 
z
" transform="scale(0.015625)"/>
       <path id="DejaVuSans-2d" d="M 313 2009 
L 1997 2009 
L 1997 1497 
L 313 1497 
L 313 2009 
z
" transform="scale(0.015625)"/>
       <path id="DejaVuSans-42" d="M 1259 2228 
L 1259 519 
L 2272 519 
Q 2781 519 3026 730 
Q 3272 941 3272 1375 
Q 3272 1813 3026 2020 
Q 2781 2228 2272 2228 
L 1259 2228 
z
M 1259 4147 
L 1259 2741 
L 2194 2741 
Q 2656 2741 2882 2914 
Q 3109 3088 3109 3444 
Q 3109 3797 2882 3972 
Q 2656 4147 2194 4147 
L 1259 4147 
z
M 628 4666 
L 2241 4666 
Q 2963 4666 3353 4366 
Q 3744 4066 3744 3513 
Q 3744 3084 3544 2831 
Q 3344 2578 2956 2516 
Q 3422 2416 3680 2098 
Q 3938 1781 3938 1306 
Q 3938 681 3513 340 
Q 3088 0 2303 0 
L 628 0 
L 628 4666 
z
" transform="scale(0.015625)"/>
      </defs>
      <use xlink:href="#DejaVuSans-45"/>
      <use xlink:href="#DejaVuSans-61" x="63.183594"/>
      <use xlink:href="#DejaVuSans-72" x="124.462891"/>
      <use xlink:href="#DejaVuSans-6c" x="165.576172"/>
      <use xlink:href="#DejaVuSans-79" x="193.359375"/>
      <use xlink:href="#DejaVuSans-2d" x="250.789062"/>
      <use xlink:href="#DejaVuSans-42" x="283.248047"/>
      <use xlink:href="#DejaVuSans-69" x="351.851562"/>
      <use xlink:href="#DejaVuSans-72" x="379.634766"/>
      <use xlink:href="#DejaVuSans-64" x="418.998047"/>
      <use xlink:href="#DejaVuSans-54" x="482.474609"/>
      <use xlink:href="#DejaVuSans-69" x="540.433594"/>
      <use xlink:href="#DejaVuSans-63" x="568.216797"/>
      <use xlink:href="#DejaVuSans-6b" x="623.197266"/>
      <use xlink:href="#DejaVuSans-65" x="677.482422"/>
      <use xlink:href="#DejaVuSans-74" x="739.005859"/>
      <use xlink:href="#DejaVuSans-73" x="778.214844"/>
     </g>
    </g>
    <g id="patch_9">
     <path d="M 66.6 72.748562 
L 86.6 72.748562 
L 86.6 65.748562 
L 66.6 65.748562 
z
" style="fill: #43b5a0; fill-opacity: 0.8"/>
    </g>
    <g id="text_20">
     <!-- RegularTickets -->
     <g transform="translate(94.6 72.748562)scale(0.1 -0.1)">
      <defs>
       <path id="DejaVuSans-52" d="M 2841 2188 
Q 3044 2119 3236 1894 
Q 3428 1669 3622 1275 
L 4263 0 
L 3584 0 
L 2988 1197 
Q 2756 1666 2539 1819 
Q 2322 1972 1947 1972 
L 1259 1972 
L 1259 0 
L 628 0 
L 628 4666 
L 2053 4666 
Q 2853 4666 3247 4331 
Q 3641 3997 3641 3322 
Q 3641 2881 3436 2590 
Q 3231 2300 2841 2188 
z
M 1259 4147 
L 1259 2491 
L 2053 2491 
Q 2509 2491 2742 2702 
Q 2975 2913 2975 3322 
Q 2975 3731 2742 3939 
Q 2509 4147 2053 4147 
L 1259 4147 
z
" transform="scale(0.015625)"/>
       <path id="DejaVuSans-67" d="M 2906 1791 
Q 2906 2416 2648 2759 
Q 2391 3103 1925 3103 
Q 1463 3103 1205 2759 
Q 947 2416 947 1791 
Q 947 1169 1205 825 
Q 1463 481 1925 481 
Q 2391 481 2648 825 
Q 2906 1169 2906 1791 
z
M 3481 434 
Q 3481 -459 3084 -895 
Q 2688 -1331 1869 -1331 
Q 1566 -1331 1297 -1286 
Q 1028 -1241 775 -1147 
L 775 -588 
Q 1028 -725 1275 -790 
Q 1522 -856 1778 -856 
Q 2344 -856 2625 -561 
Q 2906 -266 2906 331 
L 2906 616 
Q 2728 306 2450 153 
Q 2172 0 1784 0 
Q 1141 0 747 490 
Q 353 981 353 1791 
Q 353 2603 747 3093 
Q 1141 3584 1784 3584 
Q 2172 3584 2450 3431 
Q 2728 3278 2906 2969 
L 2906 3500 
L 3481 3500 
L 3481 434 
z
" transform="scale(0.015625)"/>
      </defs>
      <use xlink:href="#DejaVuSans-52"/>
      <use xlink:href="#DejaVuSans-65" x="64.982422"/>
      <use xlink:href="#DejaVuSans-67" x="126.505859"/>
      <use xlink:href="#DejaVuSans-75" x="189.982422"/>
      <use xlink:href="#DejaVuSans-6c" x="253.361328"/>
      <use xlink:href="#DejaVuSans-61" x="281.144531"/>
      <use xlink:href="#DejaVuSans-72" x="342.423828"/>
      <use xlink:href="#DejaVuSans-54" x="383.537109"/>
      <use xlink:href="#DejaVuSans-69" x="441.496094"/>
      <use xlink:href="#DejaVuSans-63" x="469.279297"/>
      <use xlink:href="#DejaVuSans-6b" x="524.259766"/>
      <use xlink:href="#DejaVuSans-65" x="578.544922"/>
      <use xlink:href="#DejaVuSans-74" x="640.068359"/>
      <use xlink:href="#DejaVuSans-73" x="679.277344"/>
     </g>
    </g>
    <g id="line2d_40">
     <path d="M 66.6 83.926687 
L 76.6 83.926687 
L 86.6 83.926687 
" style="fill: none; stroke-dasharray: 5.55,2.4; stroke-dashoffset: 0; stroke: #32cd32; stroke-width: 1.5"/>
    </g>
    <g id="text_21">
     <!-- Required tickets w/ donations -->
     <g transform="translate(94.6 87.426687)scale(0.1 -0.1)">
      <defs>
       <path id="DejaVuSans-71" d="M 947 1747 
Q 947 1113 1208 752 
Q 1469 391 1925 391 
Q 2381 391 2643 752 
Q 2906 1113 2906 1747 
Q 2906 2381 2643 2742 
Q 2381 3103 1925 3103 
Q 1469 3103 1208 2742 
Q 947 2381 947 1747 
z
M 2906 525 
Q 2725 213 2448 61 
Q 2172 -91 1784 -91 
Q 1150 -91 751 415 
Q 353 922 353 1747 
Q 353 2572 751 3078 
Q 1150 3584 1784 3584 
Q 2172 3584 2448 3432 
Q 2725 3281 2906 2969 
L 2906 3500 
L 3481 3500 
L 3481 -1331 
L 2906 -1331 
L 2906 525 
z
" transform="scale(0.015625)"/>
       <path id="DejaVuSans-77" d="M 269 3500 
L 844 3500 
L 1563 769 
L 2278 3500 
L 2956 3500 
L 3675 769 
L 4391 3500 
L 4966 3500 
L 4050 0 
L 3372 0 
L 2619 2869 
L 1863 0 
L 1184 0 
L 269 3500 
z
" transform="scale(0.015625)"/>
      </defs>
      <use xlink:href="#DejaVuSans-52"/>
      <use xlink:href="#DejaVuSans-65" x="64.982422"/>
      <use xlink:href="#DejaVuSans-71" x="126.505859"/>
      <use xlink:href="#DejaVuSans-75" x="189.982422"/>
      <use xlink:href="#DejaVuSans-69" x="253.361328"/>
      <use xlink:href="#DejaVuSans-72" x="281.144531"/>
      <use xlink:href="#DejaVuSans-65" x="320.007812"/>
      <use xlink:href="#DejaVuSans-64" x="381.53125"/>
      <use xlink:href="#DejaVuSans-20" x="445.007812"/>
      <use xlink:href="#DejaVuSans-74" x="476.794922"/>
      <use xlink:href="#DejaVuSans-69" x="516.003906"/>
      <use xlink:href="#DejaVuSans-63" x="543.787109"/>
      <use xlink:href="#DejaVuSans-6b" x="598.767578"/>
      <use xlink:href="#DejaVuSans-65" x="653.052734"/>
      <use xlink:href="#DejaVuSans-74" x="714.576172"/>
      <use xlink:href="#DejaVuSans-73" x="753.785156"/>
      <use xlink:href="#DejaVuSans-20" x="805.884766"/>
      <use xlink:href="#DejaVuSans-77" x="837.671875"/>
      <use xlink:href="#DejaVuSans-2f" x="919.458984"/>
      <use xlink:href="#DejaVuSans-20" x="953.150391"/>
      <use xlink:href="#DejaVuSans-64" x="984.9375"/>
      <use xlink:href="#DejaVuSans-6f" x="1048.414062"/>
      <use xlink:href="#DejaVuSans-6e" x="1109.595703"/>
      <use xlink:href="#DejaVuSans-61" x="1172.974609"/>
      <use xlink:href="#DejaVuSans-74" x="1234.253906"/>
      <use xlink:href="#DejaVuSans-69" x="1273.462891"/>
      <use xlink:href="#DejaVuSans-6f" x="1301.246094"/>
      <use xlink:href="#DejaVuSans-6e" x="1362.427734"/>
      <use xlink:href="#DejaVuSans-73" x="1425.806641"/>
     </g>
    </g>
   </g>
  </g>
 </g>
 <defs>
  <clipPath id="pbf5a42136d">
   <rect x="57.6" y="41.472" width="357.12" height="235.008"/>
  </clipPath>
 </defs>
</svg>
