<?xml version="1.0" encoding="utf-8" standalone="no"?>
<!DOCTYPE svg PUBLIC "-//W3C//DTD SVG 1.1//EN"
  "http://www.w3.org/Graphics/SVG/1.1/DTD/svg11.dtd">
<svg xmlns:xlink="http://www.w3.org/1999/xlink" width="460.8pt" height="345.6pt" viewBox="0 0 460.8 345.6" xmlns="http://www.w3.org/2000/svg" version="1.1">
 <metadata>
  <rdf:RDF xmlns:dc="http://purl.org/dc/elements/1.1/" xmlns:cc="http://creativecommons.org/ns#" xmlns:rdf="http://www.w3.org/1999/02/22-rdf-syntax-ns#">
   <cc:Work>
    <dc:type rdf:resource="http://purl.org/dc/dcmitype/StillImage"/>
    <dc:date>2022-01-17T23:18:26.681730</dc:date>
    <dc:format>image/svg+xml</dc:format>
    <dc:creator>
     <cc:Agent>
      <dc:title>Matplotlib v3.5.1, https://matplotlib.org/</dc:title>
     </cc:Agent>
    </dc:creator>
   </cc:Work>
  </rdf:RDF>
 </metadata>
 <defs>
  <style type="text/css">*{stroke-linejoin: round; stroke-linecap: butt}</style>
 </defs>
 <g id="figure_1">
  <g id="patch_1">
   <path d="M 0 345.6 
L 460.8 345.6 
L 460.8 0 
L 0 0 
z
" style="fill: #491d88"/>
  </g>
  <g id="axes_1">
   <g id="patch_2">
    <path d="M 57.6 276.48 
L 414.72 276.48 
L 414.72 41.472 
L 57.6 41.472 
z
" style="fill: #fec859"/>
   </g>
   <g id="PolyCollection_1">
    <path d="M 73.832727 276.48 
L 73.832727 276.48 
L 73.832727 276.48 
L 73.832727 276.48 
L 74.326643 276.48 
L 74.326643 276.48 
L 74.820559 276.48 
L 74.820559 276.48 
L 75.314475 276.48 
L 75.314475 276.48 
L 75.808391 276.48 
L 75.808391 276.48 
L 76.302307 276.48 
L 76.302307 276.48 
L 76.796223 276.48 
L 76.796223 276.48 
L 77.290138 276.48 
L 77.290138 276.48 
L 77.784054 276.48 
L 77.784054 276.48 
L 78.27797 276.48 
L 78.27797 276.48 
L 78.771886 276.48 
L 78.771886 276.48 
L 79.265802 276.48 
L 79.265802 276.48 
L 79.759718 276.48 
L 79.759718 276.48 
L 80.253634 276.48 
L 80.253634 276.48 
L 80.74755 276.48 
L 80.74755 276.48 
L 81.241466 276.48 
L 81.241466 276.48 
L 81.735381 276.48 
L 81.735381 276.48 
L 82.723213 276.48 
L 82.723213 276.48 
L 83.217129 276.48 
L 83.217129 276.48 
L 83.711045 276.48 
L 83.711045 276.48 
L 84.204961 276.48 
L 84.204961 276.48 
L 84.698877 276.48 
L 84.698877 276.48 
L 85.192793 276.48 
L 85.192793 276.48 
L 85.686709 276.48 
L 85.686709 276.48 
L 86.180624 276.48 
L 86.180624 276.48 
L 86.67454 276.48 
L 86.67454 276.48 
L 87.168456 276.48 
L 87.168456 276.48 
L 88.156288 276.48 
L 88.156288 276.48 
L 89.14412 276.48 
L 89.14412 276.48 
L 89.638036 276.48 
L 89.638036 276.48 
L 90.131951 276.48 
L 90.131951 276.48 
L 93.589363 276.48 
L 93.589363 276.48 
L 94.083279 276.48 
L 94.083279 276.48 
L 94.577194 276.48 
L 94.577194 276.48 
L 95.07111 276.48 
L 95.07111 276.48 
L 95.565026 276.48 
L 95.565026 276.48 
L 96.058942 276.48 
L 96.058942 276.48 
L 96.552858 276.48 
L 96.552858 276.48 
L 97.046774 276.48 
L 97.046774 276.48 
L 97.54069 276.48 
L 97.54069 276.48 
L 98.034606 276.48 
L 98.034606 276.48 
L 98.528522 276.48 
L 98.528522 276.48 
L 99.022437 276.48 
L 99.022437 276.48 
L 99.516353 276.48 
L 99.516353 276.48 
L 100.010269 276.48 
L 100.010269 276.48 
L 100.504185 276.48 
L 100.504185 276.48 
L 100.998101 276.48 
L 100.998101 276.48 
L 101.492017 276.48 
L 101.492017 276.48 
L 101.985933 276.48 
L 101.985933 276.48 
L 104.949428 276.48 
L 104.949428 276.48 
L 106.431176 276.48 
L 106.431176 276.48 
L 106.925092 276.48 
L 106.925092 276.48 
L 107.419007 276.48 
L 107.419007 276.48 
L 108.406839 276.48 
L 108.406839 276.48 
L 108.900755 276.48 
L 108.900755 276.48 
L 109.394671 276.48 
L 109.394671 276.48 
L 109.888587 276.48 
L 109.888587 276.48 
L 110.382503 276.48 
L 110.382503 276.48 
L 110.876419 276.48 
L 110.876419 276.48 
L 111.370335 276.48 
L 111.370335 276.48 
L 111.86425 276.48 
L 111.86425 276.48 
L 112.358166 276.48 
L 112.358166 276.48 
L 112.852082 276.48 
L 112.852082 276.48 
L 113.345998 276.48 
L 113.345998 276.48 
L 113.839914 276.48 
L 113.839914 276.48 
L 118.285157 276.48 
L 118.285157 276.48 
L 119.272989 276.48 
L 119.272989 276.48 
L 119.766905 276.48 
L 119.766905 276.48 
L 120.26082 276.48 
L 120.26082 276.48 
L 120.754736 276.48 
L 120.754736 276.48 
L 122.7304 276.48 
L 122.7304 276.48 
L 131.12697 276.48 
L 131.12697 276.48 
L 132.114802 276.48 
L 132.114802 276.48 
L 132.608718 276.48 
L 132.608718 276.48 
L 133.596549 276.48 
L 133.596549 276.48 
L 134.090465 276.48 
L 134.090465 276.48 
L 135.572213 276.48 
L 135.572213 276.48 
L 137.547876 276.48 
L 137.547876 276.48 
L 138.041792 276.48 
L 138.041792 276.48 
L 141.993119 276.48 
L 141.993119 276.48 
L 142.487035 276.48 
L 142.487035 276.48 
L 142.980951 276.48 
L 142.980951 276.48 
L 143.474867 276.48 
L 143.474867 276.48 
L 143.968783 276.48 
L 143.968783 276.48 
L 144.462699 276.48 
L 144.462699 276.48 
L 144.956615 276.48 
L 144.956615 276.48 
L 145.450531 276.48 
L 145.450531 276.48 
L 145.944446 276.48 
L 145.944446 276.48 
L 146.932278 276.48 
L 146.932278 276.48 
L 147.426194 276.48 
L 147.426194 276.48 
L 147.92011 276.48 
L 147.92011 276.48 
L 148.414026 276.48 
L 148.414026 276.48 
L 148.907942 276.48 
L 148.907942 276.48 
L 149.401858 276.48 
L 149.401858 276.48 
L 150.389689 276.48 
L 150.389689 276.48 
L 152.365353 276.48 
L 152.365353 276.48 
L 154.341016 276.48 
L 154.341016 276.48 
L 155.328848 276.48 
L 155.328848 276.48 
L 156.31668 276.48 
L 156.31668 276.48 
L 157.304512 276.48 
L 157.304512 276.48 
L 157.798428 276.48 
L 157.798428 276.48 
L 158.786259 276.48 
L 158.786259 276.48 
L 159.280175 276.48 
L 159.280175 276.48 
L 159.774091 276.48 
L 159.774091 276.48 
L 160.268007 276.48 
L 160.268007 276.48 
L 160.761923 276.48 
L 160.761923 276.48 
L 161.255839 276.48 
L 161.255839 276.48 
L 165.207166 276.48 
L 165.207166 276.48 
L 165.701082 276.48 
L 165.701082 276.48 
L 166.194998 276.48 
L 166.194998 276.48 
L 166.688914 276.48 
L 166.688914 276.48 
L 167.182829 276.48 
L 167.182829 276.48 
L 167.676745 276.48 
L 167.676745 276.48 
L 168.170661 276.48 
L 168.170661 276.48 
L 168.664577 276.48 
L 168.664577 276.48 
L 169.652409 276.48 
L 169.652409 276.48 
L 170.640241 276.48 
L 170.640241 276.48 
L 171.628072 276.48 
L 171.628072 276.48 
L 172.121988 276.48 
L 172.121988 276.48 
L 172.615904 276.48 
L 172.615904 276.48 
L 173.10982 276.48 
L 173.10982 276.48 
L 174.097652 276.48 
L 174.097652 276.48 
L 174.591568 276.48 
L 174.591568 276.48 
L 175.085484 276.48 
L 175.085484 276.48 
L 177.061147 276.48 
L 177.061147 276.48 
L 178.542895 276.48 
L 178.542895 276.48 
L 179.036811 276.48 
L 179.036811 276.48 
L 181.012474 276.48 
L 181.012474 276.48 
L 182.000306 276.48 
L 182.000306 276.48 
L 182.494222 276.48 
L 182.494222 276.48 
L 182.988138 276.48 
L 182.988138 276.48 
L 183.482054 276.48 
L 183.482054 276.48 
L 183.97597 276.48 
L 183.97597 276.48 
L 184.469885 276.48 
L 184.469885 276.48 
L 185.457717 276.48 
L 185.457717 276.48 
L 188.421213 276.48 
L 188.421213 276.48 
L 188.915128 276.48 
L 188.915128 276.48 
L 189.409044 276.48 
L 189.409044 276.48 
L 190.396876 276.48 
L 190.396876 276.48 
L 190.890792 276.48 
L 190.890792 276.48 
L 191.878624 276.48 
L 191.878624 276.48 
L 192.37254 276.48 
L 192.37254 276.48 
L 193.854287 276.48 
L 193.854287 276.48 
L 194.348203 276.48 
L 194.348203 276.48 
L 195.336035 276.48 
L 195.336035 276.48 
L 195.829951 276.48 
L 195.829951 276.48 
L 196.323867 276.48 
L 196.323867 276.48 
L 196.817783 276.48 
L 196.817783 276.48 
L 197.311698 276.48 
L 197.311698 276.48 
L 202.250857 276.48 
L 202.250857 276.48 
L 203.238689 276.48 
L 203.238689 276.48 
L 203.732605 276.48 
L 203.732605 276.48 
L 205.214353 276.48 
L 205.214353 276.48 
L 205.708269 276.48 
L 205.708269 276.48 
L 206.202184 276.48 
L 206.202184 276.48 
L 207.683932 276.48 
L 207.683932 276.48 
L 208.177848 276.48 
L 208.177848 276.48 
L 213.117007 276.48 
L 213.117007 276.48 
L 214.104839 276.48 
L 214.104839 276.48 
L 215.09267 276.48 
L 215.09267 276.48 
L 215.586586 276.48 
L 215.586586 276.48 
L 216.080502 276.48 
L 216.080502 276.48 
L 216.574418 276.48 
L 216.574418 276.48 
L 217.068334 276.48 
L 217.068334 276.48 
L 218.056166 276.48 
L 218.056166 276.48 
L 219.043997 276.48 
L 219.043997 276.48 
L 220.031829 276.48 
L 220.031829 276.48 
L 220.525745 276.48 
L 220.525745 276.48 
L 221.019661 276.48 
L 221.019661 276.48 
L 224.970988 276.48 
L 224.970988 276.48 
L 226.452736 276.48 
L 226.452736 276.48 
L 226.946652 276.48 
L 226.946652 276.48 
L 228.428399 276.48 
L 228.428399 276.48 
L 229.416231 276.48 
L 229.416231 276.48 
L 229.910147 276.48 
L 229.910147 276.48 
L 230.404063 276.48 
L 230.404063 276.48 
L 230.897979 276.48 
L 230.897979 276.48 
L 231.88581 276.48 
L 231.88581 276.48 
L 236.331053 276.48 
L 236.331053 276.48 
L 238.800633 276.48 
L 238.800633 276.48 
L 239.294549 276.48 
L 239.294549 276.48 
L 240.776296 276.48 
L 240.776296 276.48 
L 241.764128 276.48 
L 241.764128 276.48 
L 242.258044 276.48 
L 242.258044 276.48 
L 242.75196 276.48 
L 242.75196 276.48 
L 243.245876 276.48 
L 243.245876 276.48 
L 243.739792 276.48 
L 243.739792 276.48 
L 244.233708 276.48 
L 244.233708 276.48 
L 248.185035 276.48 
L 248.185035 276.48 
L 249.172866 276.48 
L 249.172866 276.48 
L 249.666782 276.48 
L 249.666782 276.48 
L 250.160698 276.48 
L 250.160698 276.48 
L 250.654614 276.48 
L 250.654614 276.48 
L 251.14853 276.48 
L 251.14853 276.48 
L 251.642446 276.48 
L 251.642446 276.48 
L 252.136362 276.48 
L 252.136362 276.48 
L 252.630278 276.48 
L 252.630278 276.48 
L 253.618109 276.48 
L 253.618109 276.48 
L 260.039016 276.48 
L 260.039016 276.48 
L 262.014679 276.48 
L 262.014679 276.48 
L 263.002511 276.48 
L 263.002511 276.48 
L 263.496427 276.48 
L 263.496427 276.48 
L 264.978175 276.48 
L 264.978175 276.48 
L 265.472091 276.48 
L 265.472091 276.48 
L 265.966006 276.48 
L 265.966006 276.48 
L 267.447754 276.48 
L 267.447754 276.48 
L 268.929502 276.48 
L 268.929502 276.48 
L 272.386913 276.48 
L 272.386913 276.48 
L 272.880829 276.48 
L 272.880829 276.48 
L 273.374745 276.48 
L 273.374745 276.48 
L 273.868661 276.48 
L 273.868661 276.48 
L 274.362576 276.48 
L 274.362576 276.48 
L 275.844324 276.48 
L 275.844324 276.48 
L 277.326072 276.48 
L 277.326072 276.48 
L 278.807819 276.48 
L 278.807819 276.48 
L 286.710474 276.48 
L 286.710474 276.48 
L 288.686137 276.48 
L 288.686137 276.48 
L 289.180053 276.48 
L 289.180053 276.48 
L 298.070539 276.48 
L 298.070539 276.48 
L 298.564455 276.48 
L 298.564455 276.48 
L 299.058371 276.48 
L 299.058371 276.48 
L 300.046203 276.48 
L 300.046203 276.48 
L 300.540118 276.48 
L 300.540118 276.48 
L 301.034034 276.48 
L 301.034034 276.48 
L 302.021866 276.48 
L 302.021866 276.48 
L 306.467109 276.48 
L 306.467109 276.48 
L 307.454941 276.48 
L 307.454941 276.48 
L 308.936688 276.48 
L 308.936688 276.48 
L 309.92452 276.48 
L 309.92452 276.48 
L 311.900184 276.48 
L 311.900184 276.48 
L 314.863679 276.48 
L 314.863679 276.48 
L 321.284586 276.48 
L 321.284586 276.48 
L 321.778501 276.48 
L 321.778501 276.48 
L 323.260249 276.48 
L 323.260249 276.48 
L 324.248081 276.48 
L 324.248081 276.48 
L 324.741997 276.48 
L 324.741997 276.48 
L 325.729829 276.48 
L 325.729829 276.48 
L 330.175071 276.48 
L 330.175071 276.48 
L 331.656819 276.48 
L 331.656819 276.48 
L 332.644651 276.48 
L 332.644651 276.48 
L 333.138567 276.48 
L 333.138567 276.48 
L 333.632483 276.48 
L 333.632483 276.48 
L 335.608146 276.48 
L 335.608146 276.48 
L 337.089894 276.48 
L 337.089894 276.48 
L 337.58381 276.48 
L 337.58381 276.48 
L 338.077726 276.48 
L 338.077726 276.48 
L 338.571642 276.48 
L 338.571642 276.48 
L 343.5108 276.48 
L 343.5108 276.48 
L 344.498632 276.48 
L 344.498632 276.48 
L 346.968212 276.48 
L 346.968212 276.48 
L 349.437791 276.48 
L 349.437791 276.48 
L 349.931707 276.48 
L 349.931707 276.48 
L 350.425623 276.48 
L 350.425623 276.48 
L 351.413455 276.48 
L 351.413455 276.48 
L 353.883034 276.48 
L 353.883034 276.48 
L 354.870866 276.48 
L 354.870866 276.48 
L 356.846529 276.48 
L 356.846529 276.48 
L 360.797856 276.48 
L 360.797856 276.48 
L 362.77352 276.48 
L 362.77352 276.48 
L 365.681366 276.48 
L 365.681366 276.48 
L 365.883849 276.48 
L 365.883849 276.48 
L 366.060555 276.48 
L 366.060555 276.48 
L 366.410903 276.48 
L 366.410903 276.48 
L 366.633083 276.48 
L 366.633083 276.48 
L 366.866259 276.48 
L 366.866259 276.48 
L 367.040884 276.48 
L 367.040884 276.48 
L 367.401038 276.48 
L 367.401038 276.48 
L 367.59738 276.48 
L 367.59738 276.48 
L 367.86169 276.48 
L 367.86169 276.48 
L 368.055896 276.48 
L 368.055896 276.48 
L 368.365081 276.48 
L 368.365081 276.48 
L 368.559509 276.48 
L 368.559509 276.48 
L 368.821315 276.48 
L 368.821315 276.48 
L 369.00455 276.48 
L 369.00455 276.48 
L 369.433491 276.48 
L 369.433491 276.48 
L 369.711935 276.48 
L 369.711935 276.48 
L 370.032653 276.48 
L 370.032653 276.48 
L 370.05706 276.48 
L 370.05706 276.48 
L 370.071438 276.48 
L 370.071438 276.48 
L 370.315328 276.48 
L 370.315328 276.48 
L 370.501707 276.48 
L 370.501707 276.48 
L 370.829204 276.48 
L 370.829204 276.48 
L 371.040921 276.48 
L 371.040921 276.48 
L 371.397309 276.48 
L 371.397309 276.48 
L 372.101643 276.48 
L 372.101643 276.48 
L 372.122031 276.48 
L 372.122031 276.48 
L 372.147227 276.48 
L 372.147227 276.48 
L 372.332313 276.48 
L 372.332313 276.48 
L 372.541757 276.48 
L 372.541757 276.48 
L 372.769223 276.48 
L 372.769223 276.48 
L 372.956665 276.48 
L 372.956665 276.48 
L 373.300698 276.48 
L 373.300698 276.48 
L 373.764329 276.48 
L 373.764329 276.48 
L 379.251117 276.48 
L 379.251117 276.48 
L 380.674533 276.48 
L 380.674533 276.48 
L 381.887641 276.48 
L 381.887641 276.48 
L 382.169141 276.48 
L 382.169141 276.48 
L 383.549994 276.48 
L 383.549994 276.48 
L 383.900131 276.48 
L 383.900131 276.48 
L 384.183035 276.48 
L 384.183035 276.48 
L 384.624658 276.48 
L 384.624658 276.48 
L 392.083727 276.48 
L 392.083727 276.48 
L 395.117511 276.48 
L 395.117511 276.48 
L 397.201811 276.48 
L 397.201811 276.48 
L 397.478107 276.48 
L 397.478107 276.48 
L 398.487273 276.48 
L 398.487273 276.48 
L 398.487273 200.083749 
L 398.487273 200.083749 
L 398.487273 200.083749 
L 397.478107 200.083749 
L 397.478107 200.083749 
L 397.201811 200.083749 
L 397.201811 200.083749 
L 395.117511 200.083749 
L 395.117511 200.083749 
L 392.083727 200.083749 
L 392.083727 200.083749 
L 384.624658 200.083749 
L 384.624658 200.083749 
L 384.183035 200.083749 
L 384.183035 200.083749 
L 383.900131 200.083749 
L 383.900131 200.083749 
L 383.549994 200.083749 
L 383.549994 200.083749 
L 382.169141 200.083749 
L 382.169141 200.083749 
L 381.887641 200.083749 
L 381.887641 200.083749 
L 380.674533 200.083749 
L 380.674533 200.083749 
L 379.251117 200.083749 
L 379.251117 200.083749 
L 373.764329 200.083749 
L 373.764329 200.083749 
L 373.300698 200.083749 
L 373.300698 200.083749 
L 372.956665 200.083749 
L 372.956665 200.083749 
L 372.769223 200.083749 
L 372.769223 200.083749 
L 372.541757 200.083749 
L 372.541757 200.083749 
L 372.332313 200.083749 
L 372.332313 200.083749 
L 372.147227 200.083749 
L 372.147227 200.083749 
L 372.122031 200.083749 
L 372.122031 200.083749 
L 372.101643 200.083749 
L 372.101643 200.083749 
L 371.397309 200.083749 
L 371.397309 200.083749 
L 371.040921 200.083749 
L 371.040921 200.083749 
L 370.829204 200.083749 
L 370.829204 200.083749 
L 370.501707 200.083749 
L 370.501707 200.083749 
L 370.315328 200.083749 
L 370.315328 200.083749 
L 370.071438 200.083749 
L 370.071438 200.083749 
L 370.05706 200.083749 
L 370.05706 200.083749 
L 370.032653 200.083749 
L 370.032653 200.083749 
L 369.711935 200.083749 
L 369.711935 200.083749 
L 369.433491 200.083749 
L 369.433491 200.083749 
L 369.00455 200.083749 
L 369.00455 200.083749 
L 368.821315 200.083749 
L 368.821315 200.083749 
L 368.559509 200.083749 
L 368.559509 200.083749 
L 368.365081 200.083749 
L 368.365081 200.083749 
L 368.055896 200.083749 
L 368.055896 200.083749 
L 367.86169 200.083749 
L 367.86169 200.083749 
L 367.59738 200.083749 
L 367.59738 200.083749 
L 367.401038 200.083749 
L 367.401038 200.083749 
L 367.040884 200.083749 
L 367.040884 200.083749 
L 366.866259 200.083749 
L 366.866259 200.083749 
L 366.633083 200.083749 
L 366.633083 200.083749 
L 366.410903 200.083749 
L 366.410903 200.083749 
L 366.060555 200.083749 
L 366.060555 200.083749 
L 365.883849 200.083749 
L 365.883849 200.083749 
L 365.681366 200.083749 
L 365.681366 202.023497 
L 362.77352 202.023497 
L 362.77352 202.023497 
L 360.797856 202.023497 
L 360.797856 202.023497 
L 356.846529 202.023497 
L 356.846529 202.023497 
L 354.870866 202.023497 
L 354.870866 202.023497 
L 353.883034 202.023497 
L 353.883034 202.023497 
L 351.413455 202.023497 
L 351.413455 202.023497 
L 350.425623 202.023497 
L 350.425623 202.023497 
L 349.931707 202.023497 
L 349.931707 202.023497 
L 349.437791 202.023497 
L 349.437791 202.023497 
L 346.968212 202.023497 
L 346.968212 202.023497 
L 344.498632 202.023497 
L 344.498632 202.023497 
L 343.5108 202.023497 
L 343.5108 202.023497 
L 338.571642 202.023497 
L 338.571642 202.023497 
L 338.077726 202.023497 
L 338.077726 202.023497 
L 337.58381 202.023497 
L 337.58381 202.023497 
L 337.089894 202.023497 
L 337.089894 202.023497 
L 335.608146 202.023497 
L 335.608146 202.023497 
L 333.632483 202.023497 
L 333.632483 202.023497 
L 333.138567 202.023497 
L 333.138567 202.023497 
L 332.644651 202.023497 
L 332.644651 202.023497 
L 331.656819 202.023497 
L 331.656819 202.023497 
L 330.175071 202.023497 
L 330.175071 202.023497 
L 325.729829 202.023497 
L 325.729829 202.023497 
L 324.741997 202.023497 
L 324.741997 202.023497 
L 324.248081 202.023497 
L 324.248081 202.023497 
L 323.260249 202.023497 
L 323.260249 202.023497 
L 321.778501 202.023497 
L 321.778501 202.023497 
L 321.284586 202.023497 
L 321.284586 202.023497 
L 314.863679 202.023497 
L 314.863679 202.023497 
L 311.900184 202.023497 
L 311.900184 202.023497 
L 309.92452 202.023497 
L 309.92452 202.023497 
L 308.936688 202.023497 
L 308.936688 202.023497 
L 307.454941 202.023497 
L 307.454941 202.023497 
L 306.467109 202.023497 
L 306.467109 202.023497 
L 302.021866 202.023497 
L 302.021866 202.023497 
L 301.034034 202.023497 
L 301.034034 202.023497 
L 300.540118 202.023497 
L 300.540118 202.023497 
L 300.046203 202.023497 
L 300.046203 202.023497 
L 299.058371 202.023497 
L 299.058371 202.023497 
L 298.564455 202.023497 
L 298.564455 202.023497 
L 298.070539 202.023497 
L 298.070539 202.023497 
L 289.180053 202.023497 
L 289.180053 202.023497 
L 288.686137 202.023497 
L 288.686137 202.023497 
L 286.710474 202.023497 
L 286.710474 202.023497 
L 278.807819 202.023497 
L 278.807819 202.023497 
L 277.326072 202.023497 
L 277.326072 202.023497 
L 275.844324 202.023497 
L 275.844324 202.023497 
L 274.362576 202.023497 
L 274.362576 202.023497 
L 273.868661 202.023497 
L 273.868661 202.023497 
L 273.374745 202.023497 
L 273.374745 202.023497 
L 272.880829 202.023497 
L 272.880829 202.023497 
L 272.386913 202.023497 
L 272.386913 202.023497 
L 268.929502 202.023497 
L 268.929502 202.023497 
L 267.447754 202.023497 
L 267.447754 202.023497 
L 265.966006 202.023497 
L 265.966006 202.023497 
L 265.472091 202.023497 
L 265.472091 202.023497 
L 264.978175 202.023497 
L 264.978175 202.023497 
L 263.496427 202.023497 
L 263.496427 202.023497 
L 263.002511 202.023497 
L 263.002511 202.023497 
L 262.014679 202.023497 
L 262.014679 202.023497 
L 260.039016 202.023497 
L 260.039016 202.023497 
L 253.618109 202.023497 
L 253.618109 202.023497 
L 252.630278 202.023497 
L 252.630278 202.023497 
L 252.136362 202.023497 
L 252.136362 202.023497 
L 251.642446 202.023497 
L 251.642446 202.023497 
L 251.14853 202.023497 
L 251.14853 202.023497 
L 250.654614 202.023497 
L 250.654614 202.023497 
L 250.160698 202.023497 
L 250.160698 202.023497 
L 249.666782 202.023497 
L 249.666782 202.023497 
L 249.172866 202.023497 
L 249.172866 202.023497 
L 248.185035 202.023497 
L 248.185035 202.023497 
L 244.233708 202.023497 
L 244.233708 202.023497 
L 243.739792 202.023497 
L 243.739792 202.023497 
L 243.245876 202.023497 
L 243.245876 202.023497 
L 242.75196 202.023497 
L 242.75196 202.023497 
L 242.258044 202.023497 
L 242.258044 202.023497 
L 241.764128 202.023497 
L 241.764128 202.023497 
L 240.776296 202.023497 
L 240.776296 202.023497 
L 239.294549 202.023497 
L 239.294549 202.023497 
L 238.800633 202.023497 
L 238.800633 202.023497 
L 236.331053 202.023497 
L 236.331053 202.023497 
L 231.88581 202.023497 
L 231.88581 202.023497 
L 230.897979 202.023497 
L 230.897979 202.023497 
L 230.404063 202.023497 
L 230.404063 202.023497 
L 229.910147 202.023497 
L 229.910147 202.023497 
L 229.416231 202.023497 
L 229.416231 202.023497 
L 228.428399 202.023497 
L 228.428399 202.023497 
L 226.946652 202.023497 
L 226.946652 202.023497 
L 226.452736 202.023497 
L 226.452736 202.023497 
L 224.970988 202.023497 
L 224.970988 202.023497 
L 221.019661 202.023497 
L 221.019661 202.023497 
L 220.525745 202.023497 
L 220.525745 202.023497 
L 220.031829 202.023497 
L 220.031829 202.023497 
L 219.043997 202.023497 
L 219.043997 202.023497 
L 218.056166 202.023497 
L 218.056166 202.023497 
L 217.068334 202.023497 
L 217.068334 202.023497 
L 216.574418 202.023497 
L 216.574418 202.023497 
L 216.080502 202.023497 
L 216.080502 202.023497 
L 215.586586 202.023497 
L 215.586586 202.023497 
L 215.09267 202.023497 
L 215.09267 202.023497 
L 214.104839 202.023497 
L 214.104839 202.023497 
L 213.117007 202.023497 
L 213.117007 202.023497 
L 208.177848 202.023497 
L 208.177848 202.023497 
L 207.683932 202.023497 
L 207.683932 202.023497 
L 206.202184 202.023497 
L 206.202184 202.172709 
L 205.708269 202.172709 
L 205.708269 202.471131 
L 205.214353 202.471131 
L 205.214353 202.620343 
L 203.732605 202.620343 
L 203.732605 203.067977 
L 203.238689 203.067977 
L 203.238689 203.217189 
L 202.250857 203.217189 
L 202.250857 203.3664 
L 197.311698 203.3664 
L 197.311698 203.664823 
L 196.817783 203.664823 
L 196.817783 203.664823 
L 196.323867 203.664823 
L 196.323867 203.963246 
L 195.829951 203.963246 
L 195.829951 204.41088 
L 195.336035 204.41088 
L 195.336035 204.41088 
L 194.348203 204.41088 
L 194.348203 204.709303 
L 193.854287 204.709303 
L 193.854287 204.858514 
L 192.37254 204.858514 
L 192.37254 205.156937 
L 191.878624 205.156937 
L 191.878624 206.649051 
L 190.890792 206.649051 
L 190.890792 206.947474 
L 190.396876 206.947474 
L 190.396876 207.096686 
L 189.409044 207.096686 
L 189.409044 207.693531 
L 188.915128 207.693531 
L 188.915128 207.693531 
L 188.421213 207.693531 
L 188.421213 207.842743 
L 185.457717 207.842743 
L 185.457717 208.141166 
L 184.469885 208.141166 
L 184.469885 208.5888 
L 183.97597 208.5888 
L 183.97597 208.887223 
L 183.482054 208.887223 
L 183.482054 209.782491 
L 182.988138 209.782491 
L 182.988138 210.230126 
L 182.494222 210.230126 
L 182.494222 211.125394 
L 182.000306 211.125394 
L 182.000306 211.573029 
L 181.012474 211.573029 
L 181.012474 211.72224 
L 179.036811 211.72224 
L 179.036811 211.871451 
L 178.542895 211.871451 
L 178.542895 212.169874 
L 177.061147 212.169874 
L 177.061147 212.169874 
L 175.085484 212.169874 
L 175.085484 212.468297 
L 174.591568 212.468297 
L 174.591568 212.617509 
L 174.097652 212.617509 
L 174.097652 212.76672 
L 173.10982 212.76672 
L 173.10982 213.214354 
L 172.615904 213.214354 
L 172.615904 213.214354 
L 172.121988 213.214354 
L 172.121988 213.512777 
L 171.628072 213.512777 
L 171.628072 214.258834 
L 170.640241 214.258834 
L 170.640241 214.557257 
L 169.652409 214.557257 
L 169.652409 214.557257 
L 168.664577 214.557257 
L 168.664577 214.706469 
L 168.170661 214.706469 
L 168.170661 214.85568 
L 167.676745 214.85568 
L 167.676745 215.154103 
L 167.182829 215.154103 
L 167.182829 215.303314 
L 166.688914 215.303314 
L 166.688914 215.452526 
L 166.194998 215.452526 
L 166.194998 215.750949 
L 165.701082 215.750949 
L 165.701082 215.750949 
L 165.207166 215.750949 
L 165.207166 215.90016 
L 161.255839 215.90016 
L 161.255839 215.90016 
L 160.761923 215.90016 
L 160.761923 216.198583 
L 160.268007 216.198583 
L 160.268007 216.347794 
L 159.774091 216.347794 
L 159.774091 216.497006 
L 159.280175 216.497006 
L 159.280175 216.646217 
L 158.786259 216.646217 
L 158.786259 216.94464 
L 157.798428 216.94464 
L 157.798428 216.94464 
L 157.304512 216.94464 
L 157.304512 217.243063 
L 156.31668 217.243063 
L 156.31668 217.541486 
L 155.328848 217.541486 
L 155.328848 217.98912 
L 154.341016 217.98912 
L 154.341016 218.287543 
L 152.365353 218.287543 
L 152.365353 218.287543 
L 150.389689 218.287543 
L 150.389689 218.436754 
L 149.401858 218.436754 
L 149.401858 218.735177 
L 148.907942 218.735177 
L 148.907942 218.884389 
L 148.414026 218.884389 
L 148.414026 219.182811 
L 147.92011 219.182811 
L 147.92011 219.481234 
L 147.426194 219.481234 
L 147.426194 219.779657 
L 146.932278 219.779657 
L 146.932278 219.928869 
L 145.944446 219.928869 
L 145.944446 220.227291 
L 145.450531 220.227291 
L 145.450531 220.525714 
L 144.956615 220.525714 
L 144.956615 220.973349 
L 144.462699 220.973349 
L 144.462699 221.271771 
L 143.968783 221.271771 
L 143.968783 221.570194 
L 143.474867 221.570194 
L 143.474867 221.719406 
L 142.980951 221.719406 
L 142.980951 222.316251 
L 142.487035 222.316251 
L 142.487035 222.465463 
L 141.993119 222.465463 
L 141.993119 222.763886 
L 138.041792 222.763886 
L 138.041792 223.509943 
L 137.547876 223.509943 
L 137.547876 223.659154 
L 135.572213 223.659154 
L 135.572213 224.256 
L 134.090465 224.256 
L 134.090465 224.554423 
L 133.596549 224.554423 
L 133.596549 225.002057 
L 132.608718 225.002057 
L 132.608718 225.151269 
L 132.114802 225.151269 
L 132.114802 225.30048 
L 131.12697 225.30048 
L 131.12697 225.449691 
L 122.7304 225.449691 
L 122.7304 225.598903 
L 120.754736 225.598903 
L 120.754736 225.748114 
L 120.26082 225.748114 
L 120.26082 226.046537 
L 119.766905 226.046537 
L 119.766905 226.195749 
L 119.272989 226.195749 
L 119.272989 226.34496 
L 118.285157 226.34496 
L 118.285157 226.643383 
L 113.839914 226.643383 
L 113.839914 227.240229 
L 113.345998 227.240229 
L 113.345998 227.38944 
L 112.852082 227.38944 
L 112.852082 227.538651 
L 112.358166 227.538651 
L 112.358166 227.687863 
L 111.86425 227.687863 
L 111.86425 227.837074 
L 111.370335 227.837074 
L 111.370335 227.837074 
L 110.876419 227.837074 
L 110.876419 228.135497 
L 110.382503 228.135497 
L 110.382503 228.43392 
L 109.888587 228.43392 
L 109.888587 228.732343 
L 109.394671 228.732343 
L 109.394671 229.179977 
L 108.900755 229.179977 
L 108.900755 229.627611 
L 108.406839 229.627611 
L 108.406839 229.926034 
L 107.419007 229.926034 
L 107.419007 230.224457 
L 106.925092 230.224457 
L 106.925092 230.373669 
L 106.431176 230.373669 
L 106.431176 230.52288 
L 104.949428 230.52288 
L 104.949428 230.672091 
L 101.985933 230.672091 
L 101.985933 231.119726 
L 101.492017 231.119726 
L 101.492017 231.268937 
L 100.998101 231.268937 
L 100.998101 231.418149 
L 100.504185 231.418149 
L 100.504185 231.716571 
L 100.010269 231.716571 
L 100.010269 232.014994 
L 99.516353 232.014994 
L 99.516353 232.61184 
L 99.022437 232.61184 
L 99.022437 232.910263 
L 98.528522 232.910263 
L 98.528522 233.65632 
L 98.034606 233.65632 
L 98.034606 234.103954 
L 97.54069 234.103954 
L 97.54069 234.850011 
L 97.046774 234.850011 
L 97.046774 234.999223 
L 96.552858 234.999223 
L 96.552858 235.297646 
L 96.058942 235.297646 
L 96.058942 236.043703 
L 95.565026 236.043703 
L 95.565026 236.342126 
L 95.07111 236.342126 
L 95.07111 236.640549 
L 94.577194 236.640549 
L 94.577194 236.78976 
L 94.083279 236.78976 
L 94.083279 237.088183 
L 93.589363 237.088183 
L 93.589363 237.237394 
L 90.131951 237.237394 
L 90.131951 237.386606 
L 89.638036 237.386606 
L 89.638036 237.685029 
L 89.14412 237.685029 
L 89.14412 238.281874 
L 88.156288 238.281874 
L 88.156288 238.87872 
L 87.168456 238.87872 
L 87.168456 239.326354 
L 86.67454 239.326354 
L 86.67454 239.773989 
L 86.180624 239.773989 
L 86.180624 239.773989 
L 85.686709 239.773989 
L 85.686709 240.370834 
L 85.192793 240.370834 
L 85.192793 241.713737 
L 84.698877 241.713737 
L 84.698877 242.310583 
L 84.204961 242.310583 
L 84.204961 243.205851 
L 83.711045 243.205851 
L 83.711045 244.250331 
L 83.217129 244.250331 
L 83.217129 244.548754 
L 82.723213 244.548754 
L 82.723213 245.1456 
L 81.735381 245.1456 
L 81.735381 245.444023 
L 81.241466 245.444023 
L 81.241466 245.593234 
L 80.74755 245.593234 
L 80.74755 245.742446 
L 80.253634 245.742446 
L 80.253634 245.742446 
L 79.759718 245.742446 
L 79.759718 246.040869 
L 79.265802 246.040869 
L 79.265802 246.19008 
L 78.771886 246.19008 
L 78.771886 246.339291 
L 78.27797 246.339291 
L 78.27797 247.532983 
L 77.784054 247.532983 
L 77.784054 249.025097 
L 77.290138 249.025097 
L 77.290138 252.009326 
L 76.796223 252.009326 
L 76.796223 254.396709 
L 76.302307 254.396709 
L 76.302307 257.380937 
L 75.808391 257.380937 
L 75.808391 261.708069 
L 75.314475 261.708069 
L 75.314475 269.019429 
L 74.820559 269.019429 
L 74.820559 273.794194 
L 74.326643 273.794194 
L 74.326643 275.584731 
L 73.832727 275.584731 
L 73.832727 276.48 
L 73.832727 276.48 
z
" clip-path="url(#p38e6a06eda)" style="fill: #fa448c; fill-opacity: 0.8"/>
   </g>
   <g id="PolyCollection_2">
    <path d="M 73.832727 276.48 
L 73.832727 276.48 
L 73.832727 276.48 
L 73.832727 275.584731 
L 74.326643 275.584731 
L 74.326643 273.794194 
L 74.820559 273.794194 
L 74.820559 269.019429 
L 75.314475 269.019429 
L 75.314475 261.708069 
L 75.808391 261.708069 
L 75.808391 257.380937 
L 76.302307 257.380937 
L 76.302307 254.396709 
L 76.796223 254.396709 
L 76.796223 252.009326 
L 77.290138 252.009326 
L 77.290138 249.025097 
L 77.784054 249.025097 
L 77.784054 247.532983 
L 78.27797 247.532983 
L 78.27797 246.339291 
L 78.771886 246.339291 
L 78.771886 246.19008 
L 79.265802 246.19008 
L 79.265802 246.040869 
L 79.759718 246.040869 
L 79.759718 245.742446 
L 80.253634 245.742446 
L 80.253634 245.742446 
L 80.74755 245.742446 
L 80.74755 245.593234 
L 81.241466 245.593234 
L 81.241466 245.444023 
L 81.735381 245.444023 
L 81.735381 245.1456 
L 82.723213 245.1456 
L 82.723213 244.548754 
L 83.217129 244.548754 
L 83.217129 244.250331 
L 83.711045 244.250331 
L 83.711045 243.205851 
L 84.204961 243.205851 
L 84.204961 242.310583 
L 84.698877 242.310583 
L 84.698877 241.713737 
L 85.192793 241.713737 
L 85.192793 240.370834 
L 85.686709 240.370834 
L 85.686709 239.773989 
L 86.180624 239.773989 
L 86.180624 239.773989 
L 86.67454 239.773989 
L 86.67454 239.326354 
L 87.168456 239.326354 
L 87.168456 238.87872 
L 88.156288 238.87872 
L 88.156288 238.281874 
L 89.14412 238.281874 
L 89.14412 237.685029 
L 89.638036 237.685029 
L 89.638036 237.386606 
L 90.131951 237.386606 
L 90.131951 237.237394 
L 93.589363 237.237394 
L 93.589363 237.088183 
L 94.083279 237.088183 
L 94.083279 236.78976 
L 94.577194 236.78976 
L 94.577194 236.640549 
L 95.07111 236.640549 
L 95.07111 236.342126 
L 95.565026 236.342126 
L 95.565026 236.043703 
L 96.058942 236.043703 
L 96.058942 235.297646 
L 96.552858 235.297646 
L 96.552858 234.999223 
L 97.046774 234.999223 
L 97.046774 234.850011 
L 97.54069 234.850011 
L 97.54069 234.103954 
L 98.034606 234.103954 
L 98.034606 233.65632 
L 98.528522 233.65632 
L 98.528522 232.910263 
L 99.022437 232.910263 
L 99.022437 232.61184 
L 99.516353 232.61184 
L 99.516353 232.014994 
L 100.010269 232.014994 
L 100.010269 231.716571 
L 100.504185 231.716571 
L 100.504185 231.418149 
L 100.998101 231.418149 
L 100.998101 231.268937 
L 101.492017 231.268937 
L 101.492017 231.119726 
L 101.985933 231.119726 
L 101.985933 230.672091 
L 104.949428 230.672091 
L 104.949428 230.52288 
L 106.431176 230.52288 
L 106.431176 230.373669 
L 106.925092 230.373669 
L 106.925092 230.224457 
L 107.419007 230.224457 
L 107.419007 229.926034 
L 108.406839 229.926034 
L 108.406839 229.627611 
L 108.900755 229.627611 
L 108.900755 229.179977 
L 109.394671 229.179977 
L 109.394671 228.732343 
L 109.888587 228.732343 
L 109.888587 228.43392 
L 110.382503 228.43392 
L 110.382503 228.135497 
L 110.876419 228.135497 
L 110.876419 227.837074 
L 111.370335 227.837074 
L 111.370335 227.837074 
L 111.86425 227.837074 
L 111.86425 227.687863 
L 112.358166 227.687863 
L 112.358166 227.538651 
L 112.852082 227.538651 
L 112.852082 227.38944 
L 113.345998 227.38944 
L 113.345998 227.240229 
L 113.839914 227.240229 
L 113.839914 226.643383 
L 118.285157 226.643383 
L 118.285157 226.34496 
L 119.272989 226.34496 
L 119.272989 226.195749 
L 119.766905 226.195749 
L 119.766905 226.046537 
L 120.26082 226.046537 
L 120.26082 225.748114 
L 120.754736 225.748114 
L 120.754736 225.598903 
L 122.7304 225.598903 
L 122.7304 225.449691 
L 131.12697 225.449691 
L 131.12697 225.30048 
L 132.114802 225.30048 
L 132.114802 225.151269 
L 132.608718 225.151269 
L 132.608718 225.002057 
L 133.596549 225.002057 
L 133.596549 224.554423 
L 134.090465 224.554423 
L 134.090465 224.256 
L 135.572213 224.256 
L 135.572213 223.659154 
L 137.547876 223.659154 
L 137.547876 223.509943 
L 138.041792 223.509943 
L 138.041792 222.763886 
L 141.993119 222.763886 
L 141.993119 222.465463 
L 142.487035 222.465463 
L 142.487035 222.316251 
L 142.980951 222.316251 
L 142.980951 221.719406 
L 143.474867 221.719406 
L 143.474867 221.570194 
L 143.968783 221.570194 
L 143.968783 221.271771 
L 144.462699 221.271771 
L 144.462699 220.973349 
L 144.956615 220.973349 
L 144.956615 220.525714 
L 145.450531 220.525714 
L 145.450531 220.227291 
L 145.944446 220.227291 
L 145.944446 219.928869 
L 146.932278 219.928869 
L 146.932278 219.779657 
L 147.426194 219.779657 
L 147.426194 219.481234 
L 147.92011 219.481234 
L 147.92011 219.182811 
L 148.414026 219.182811 
L 148.414026 218.884389 
L 148.907942 218.884389 
L 148.907942 218.735177 
L 149.401858 218.735177 
L 149.401858 218.436754 
L 150.389689 218.436754 
L 150.389689 218.287543 
L 152.365353 218.287543 
L 152.365353 218.287543 
L 154.341016 218.287543 
L 154.341016 217.98912 
L 155.328848 217.98912 
L 155.328848 217.541486 
L 156.31668 217.541486 
L 156.31668 217.243063 
L 157.304512 217.243063 
L 157.304512 216.94464 
L 157.798428 216.94464 
L 157.798428 216.94464 
L 158.786259 216.94464 
L 158.786259 216.646217 
L 159.280175 216.646217 
L 159.280175 216.497006 
L 159.774091 216.497006 
L 159.774091 216.347794 
L 160.268007 216.347794 
L 160.268007 216.198583 
L 160.761923 216.198583 
L 160.761923 215.90016 
L 161.255839 215.90016 
L 161.255839 215.90016 
L 165.207166 215.90016 
L 165.207166 215.750949 
L 165.701082 215.750949 
L 165.701082 215.750949 
L 166.194998 215.750949 
L 166.194998 215.452526 
L 166.688914 215.452526 
L 166.688914 215.303314 
L 167.182829 215.303314 
L 167.182829 215.154103 
L 167.676745 215.154103 
L 167.676745 214.85568 
L 168.170661 214.85568 
L 168.170661 214.706469 
L 168.664577 214.706469 
L 168.664577 214.557257 
L 169.652409 214.557257 
L 169.652409 214.557257 
L 170.640241 214.557257 
L 170.640241 214.258834 
L 171.628072 214.258834 
L 171.628072 213.512777 
L 172.121988 213.512777 
L 172.121988 213.214354 
L 172.615904 213.214354 
L 172.615904 213.214354 
L 173.10982 213.214354 
L 173.10982 212.76672 
L 174.097652 212.76672 
L 174.097652 212.617509 
L 174.591568 212.617509 
L 174.591568 212.468297 
L 175.085484 212.468297 
L 175.085484 212.169874 
L 177.061147 212.169874 
L 177.061147 212.169874 
L 178.542895 212.169874 
L 178.542895 211.871451 
L 179.036811 211.871451 
L 179.036811 211.72224 
L 181.012474 211.72224 
L 181.012474 211.573029 
L 182.000306 211.573029 
L 182.000306 211.125394 
L 182.494222 211.125394 
L 182.494222 210.230126 
L 182.988138 210.230126 
L 182.988138 209.782491 
L 183.482054 209.782491 
L 183.482054 208.887223 
L 183.97597 208.887223 
L 183.97597 208.5888 
L 184.469885 208.5888 
L 184.469885 208.141166 
L 185.457717 208.141166 
L 185.457717 207.842743 
L 188.421213 207.842743 
L 188.421213 207.693531 
L 188.915128 207.693531 
L 188.915128 207.693531 
L 189.409044 207.693531 
L 189.409044 207.096686 
L 190.396876 207.096686 
L 190.396876 206.947474 
L 190.890792 206.947474 
L 190.890792 206.649051 
L 191.878624 206.649051 
L 191.878624 205.156937 
L 192.37254 205.156937 
L 192.37254 204.858514 
L 193.854287 204.858514 
L 193.854287 204.709303 
L 194.348203 204.709303 
L 194.348203 204.41088 
L 195.336035 204.41088 
L 195.336035 204.41088 
L 195.829951 204.41088 
L 195.829951 203.963246 
L 196.323867 203.963246 
L 196.323867 203.664823 
L 196.817783 203.664823 
L 196.817783 203.664823 
L 197.311698 203.664823 
L 197.311698 203.3664 
L 202.250857 203.3664 
L 202.250857 203.217189 
L 203.238689 203.217189 
L 203.238689 203.067977 
L 203.732605 203.067977 
L 203.732605 202.620343 
L 205.214353 202.620343 
L 205.214353 202.471131 
L 205.708269 202.471131 
L 205.708269 202.172709 
L 206.202184 202.172709 
L 206.202184 202.023497 
L 207.683932 202.023497 
L 207.683932 202.023497 
L 208.177848 202.023497 
L 208.177848 202.023497 
L 213.117007 202.023497 
L 213.117007 202.023497 
L 214.104839 202.023497 
L 214.104839 202.023497 
L 215.09267 202.023497 
L 215.09267 202.023497 
L 215.586586 202.023497 
L 215.586586 202.023497 
L 216.080502 202.023497 
L 216.080502 202.023497 
L 216.574418 202.023497 
L 216.574418 202.023497 
L 217.068334 202.023497 
L 217.068334 202.023497 
L 218.056166 202.023497 
L 218.056166 202.023497 
L 219.043997 202.023497 
L 219.043997 202.023497 
L 220.031829 202.023497 
L 220.031829 202.023497 
L 220.525745 202.023497 
L 220.525745 202.023497 
L 221.019661 202.023497 
L 221.019661 202.023497 
L 224.970988 202.023497 
L 224.970988 202.023497 
L 226.452736 202.023497 
L 226.452736 202.023497 
L 226.946652 202.023497 
L 226.946652 202.023497 
L 228.428399 202.023497 
L 228.428399 202.023497 
L 229.416231 202.023497 
L 229.416231 202.023497 
L 229.910147 202.023497 
L 229.910147 202.023497 
L 230.404063 202.023497 
L 230.404063 202.023497 
L 230.897979 202.023497 
L 230.897979 202.023497 
L 231.88581 202.023497 
L 231.88581 202.023497 
L 236.331053 202.023497 
L 236.331053 202.023497 
L 238.800633 202.023497 
L 238.800633 202.023497 
L 239.294549 202.023497 
L 239.294549 202.023497 
L 240.776296 202.023497 
L 240.776296 202.023497 
L 241.764128 202.023497 
L 241.764128 202.023497 
L 242.258044 202.023497 
L 242.258044 202.023497 
L 242.75196 202.023497 
L 242.75196 202.023497 
L 243.245876 202.023497 
L 243.245876 202.023497 
L 243.739792 202.023497 
L 243.739792 202.023497 
L 244.233708 202.023497 
L 244.233708 202.023497 
L 248.185035 202.023497 
L 248.185035 202.023497 
L 249.172866 202.023497 
L 249.172866 202.023497 
L 249.666782 202.023497 
L 249.666782 202.023497 
L 250.160698 202.023497 
L 250.160698 202.023497 
L 250.654614 202.023497 
L 250.654614 202.023497 
L 251.14853 202.023497 
L 251.14853 202.023497 
L 251.642446 202.023497 
L 251.642446 202.023497 
L 252.136362 202.023497 
L 252.136362 202.023497 
L 252.630278 202.023497 
L 252.630278 202.023497 
L 253.618109 202.023497 
L 253.618109 202.023497 
L 260.039016 202.023497 
L 260.039016 202.023497 
L 262.014679 202.023497 
L 262.014679 202.023497 
L 263.002511 202.023497 
L 263.002511 202.023497 
L 263.496427 202.023497 
L 263.496427 202.023497 
L 264.978175 202.023497 
L 264.978175 202.023497 
L 265.472091 202.023497 
L 265.472091 202.023497 
L 265.966006 202.023497 
L 265.966006 202.023497 
L 267.447754 202.023497 
L 267.447754 202.023497 
L 268.929502 202.023497 
L 268.929502 202.023497 
L 272.386913 202.023497 
L 272.386913 202.023497 
L 272.880829 202.023497 
L 272.880829 202.023497 
L 273.374745 202.023497 
L 273.374745 202.023497 
L 273.868661 202.023497 
L 273.868661 202.023497 
L 274.362576 202.023497 
L 274.362576 202.023497 
L 275.844324 202.023497 
L 275.844324 202.023497 
L 277.326072 202.023497 
L 277.326072 202.023497 
L 278.807819 202.023497 
L 278.807819 202.023497 
L 286.710474 202.023497 
L 286.710474 202.023497 
L 288.686137 202.023497 
L 288.686137 202.023497 
L 289.180053 202.023497 
L 289.180053 202.023497 
L 298.070539 202.023497 
L 298.070539 202.023497 
L 298.564455 202.023497 
L 298.564455 202.023497 
L 299.058371 202.023497 
L 299.058371 202.023497 
L 300.046203 202.023497 
L 300.046203 202.023497 
L 300.540118 202.023497 
L 300.540118 202.023497 
L 301.034034 202.023497 
L 301.034034 202.023497 
L 302.021866 202.023497 
L 302.021866 202.023497 
L 306.467109 202.023497 
L 306.467109 202.023497 
L 307.454941 202.023497 
L 307.454941 202.023497 
L 308.936688 202.023497 
L 308.936688 202.023497 
L 309.92452 202.023497 
L 309.92452 202.023497 
L 311.900184 202.023497 
L 311.900184 202.023497 
L 314.863679 202.023497 
L 314.863679 202.023497 
L 321.284586 202.023497 
L 321.284586 202.023497 
L 321.778501 202.023497 
L 321.778501 202.023497 
L 323.260249 202.023497 
L 323.260249 202.023497 
L 324.248081 202.023497 
L 324.248081 202.023497 
L 324.741997 202.023497 
L 324.741997 202.023497 
L 325.729829 202.023497 
L 325.729829 202.023497 
L 330.175071 202.023497 
L 330.175071 202.023497 
L 331.656819 202.023497 
L 331.656819 202.023497 
L 332.644651 202.023497 
L 332.644651 202.023497 
L 333.138567 202.023497 
L 333.138567 202.023497 
L 333.632483 202.023497 
L 333.632483 202.023497 
L 335.608146 202.023497 
L 335.608146 202.023497 
L 337.089894 202.023497 
L 337.089894 202.023497 
L 337.58381 202.023497 
L 337.58381 202.023497 
L 338.077726 202.023497 
L 338.077726 202.023497 
L 338.571642 202.023497 
L 338.571642 202.023497 
L 343.5108 202.023497 
L 343.5108 202.023497 
L 344.498632 202.023497 
L 344.498632 202.023497 
L 346.968212 202.023497 
L 346.968212 202.023497 
L 349.437791 202.023497 
L 349.437791 202.023497 
L 349.931707 202.023497 
L 349.931707 202.023497 
L 350.425623 202.023497 
L 350.425623 202.023497 
L 351.413455 202.023497 
L 351.413455 202.023497 
L 353.883034 202.023497 
L 353.883034 202.023497 
L 354.870866 202.023497 
L 354.870866 202.023497 
L 356.846529 202.023497 
L 356.846529 202.023497 
L 360.797856 202.023497 
L 360.797856 202.023497 
L 362.77352 202.023497 
L 362.77352 202.023497 
L 365.681366 202.023497 
L 365.681366 200.083749 
L 365.883849 200.083749 
L 365.883849 200.083749 
L 366.060555 200.083749 
L 366.060555 200.083749 
L 366.410903 200.083749 
L 366.410903 200.083749 
L 366.633083 200.083749 
L 366.633083 200.083749 
L 366.866259 200.083749 
L 366.866259 200.083749 
L 367.040884 200.083749 
L 367.040884 200.083749 
L 367.401038 200.083749 
L 367.401038 200.083749 
L 367.59738 200.083749 
L 367.59738 200.083749 
L 367.86169 200.083749 
L 367.86169 200.083749 
L 368.055896 200.083749 
L 368.055896 200.083749 
L 368.365081 200.083749 
L 368.365081 200.083749 
L 368.559509 200.083749 
L 368.559509 200.083749 
L 368.821315 200.083749 
L 368.821315 200.083749 
L 369.00455 200.083749 
L 369.00455 200.083749 
L 369.433491 200.083749 
L 369.433491 200.083749 
L 369.711935 200.083749 
L 369.711935 200.083749 
L 370.032653 200.083749 
L 370.032653 200.083749 
L 370.05706 200.083749 
L 370.05706 200.083749 
L 370.071438 200.083749 
L 370.071438 200.083749 
L 370.315328 200.083749 
L 370.315328 200.083749 
L 370.501707 200.083749 
L 370.501707 200.083749 
L 370.829204 200.083749 
L 370.829204 200.083749 
L 371.040921 200.083749 
L 371.040921 200.083749 
L 371.397309 200.083749 
L 371.397309 200.083749 
L 372.101643 200.083749 
L 372.101643 200.083749 
L 372.122031 200.083749 
L 372.122031 200.083749 
L 372.147227 200.083749 
L 372.147227 200.083749 
L 372.332313 200.083749 
L 372.332313 200.083749 
L 372.541757 200.083749 
L 372.541757 200.083749 
L 372.769223 200.083749 
L 372.769223 200.083749 
L 372.956665 200.083749 
L 372.956665 200.083749 
L 373.300698 200.083749 
L 373.300698 200.083749 
L 373.764329 200.083749 
L 373.764329 200.083749 
L 379.251117 200.083749 
L 379.251117 200.083749 
L 380.674533 200.083749 
L 380.674533 200.083749 
L 381.887641 200.083749 
L 381.887641 200.083749 
L 382.169141 200.083749 
L 382.169141 200.083749 
L 383.549994 200.083749 
L 383.549994 200.083749 
L 383.900131 200.083749 
L 383.900131 200.083749 
L 384.183035 200.083749 
L 384.183035 200.083749 
L 384.624658 200.083749 
L 384.624658 200.083749 
L 392.083727 200.083749 
L 392.083727 200.083749 
L 395.117511 200.083749 
L 395.117511 200.083749 
L 397.201811 200.083749 
L 397.201811 200.083749 
L 397.478107 200.083749 
L 397.478107 200.083749 
L 398.487273 200.083749 
L 398.487273 200.083749 
L 398.487273 148.00896 
L 398.487273 148.00896 
L 398.487273 146.367634 
L 397.478107 146.367634 
L 397.478107 146.815269 
L 397.201811 146.815269 
L 397.201811 146.96448 
L 395.117511 146.96448 
L 395.117511 147.113691 
L 392.083727 147.113691 
L 392.083727 147.262903 
L 384.624658 147.262903 
L 384.624658 147.561326 
L 384.183035 147.561326 
L 384.183035 147.710537 
L 383.900131 147.710537 
L 383.900131 148.00896 
L 383.549994 148.00896 
L 383.549994 148.158171 
L 382.169141 148.158171 
L 382.169141 148.307383 
L 381.887641 148.307383 
L 381.887641 148.456594 
L 380.674533 148.456594 
L 380.674533 148.605806 
L 379.251117 148.605806 
L 379.251117 148.755017 
L 373.764329 148.755017 
L 373.764329 149.05344 
L 373.300698 149.05344 
L 373.300698 149.202651 
L 372.956665 149.202651 
L 372.956665 149.202651 
L 372.769223 149.202651 
L 372.769223 149.202651 
L 372.541757 149.202651 
L 372.541757 149.202651 
L 372.332313 149.202651 
L 372.332313 149.202651 
L 372.147227 149.202651 
L 372.147227 149.202651 
L 372.122031 149.202651 
L 372.122031 149.202651 
L 372.101643 149.202651 
L 372.101643 149.202651 
L 371.397309 149.202651 
L 371.397309 149.202651 
L 371.040921 149.202651 
L 371.040921 149.202651 
L 370.829204 149.202651 
L 370.829204 149.202651 
L 370.501707 149.202651 
L 370.501707 149.202651 
L 370.315328 149.202651 
L 370.315328 149.202651 
L 370.071438 149.202651 
L 370.071438 149.202651 
L 370.05706 149.202651 
L 370.05706 149.202651 
L 370.032653 149.202651 
L 370.032653 149.202651 
L 369.711935 149.202651 
L 369.711935 149.501074 
L 369.433491 149.501074 
L 369.433491 149.650286 
L 369.00455 149.650286 
L 369.00455 149.650286 
L 368.821315 149.650286 
L 368.821315 150.247131 
L 368.559509 150.247131 
L 368.559509 150.396343 
L 368.365081 150.396343 
L 368.365081 150.396343 
L 368.055896 150.396343 
L 368.055896 150.396343 
L 367.86169 150.396343 
L 367.86169 150.396343 
L 367.59738 150.396343 
L 367.59738 150.396343 
L 367.401038 150.396343 
L 367.401038 150.396343 
L 367.040884 150.396343 
L 367.040884 150.396343 
L 366.866259 150.396343 
L 366.866259 150.396343 
L 366.633083 150.396343 
L 366.633083 150.396343 
L 366.410903 150.396343 
L 366.410903 150.396343 
L 366.060555 150.396343 
L 366.060555 150.396343 
L 365.883849 150.396343 
L 365.883849 150.396343 
L 365.681366 150.396343 
L 365.681366 153.828206 
L 362.77352 153.828206 
L 362.77352 153.977417 
L 360.797856 153.977417 
L 360.797856 153.977417 
L 356.846529 153.977417 
L 356.846529 154.126629 
L 354.870866 154.126629 
L 354.870866 154.27584 
L 353.883034 154.27584 
L 353.883034 154.425051 
L 351.413455 154.425051 
L 351.413455 154.872686 
L 350.425623 154.872686 
L 350.425623 154.872686 
L 349.931707 154.872686 
L 349.931707 155.171109 
L 349.437791 155.171109 
L 349.437791 156.514011 
L 346.968212 156.514011 
L 346.968212 156.961646 
L 344.498632 156.961646 
L 344.498632 157.110857 
L 343.5108 157.110857 
L 343.5108 157.260069 
L 338.571642 157.260069 
L 338.571642 157.707703 
L 338.077726 157.707703 
L 338.077726 158.155337 
L 337.58381 158.155337 
L 337.58381 158.45376 
L 337.089894 158.45376 
L 337.089894 158.602971 
L 335.608146 158.602971 
L 335.608146 158.752183 
L 333.632483 158.752183 
L 333.632483 158.752183 
L 333.138567 158.752183 
L 333.138567 158.901394 
L 332.644651 158.901394 
L 332.644651 159.050606 
L 331.656819 159.050606 
L 331.656819 159.199817 
L 330.175071 159.199817 
L 330.175071 159.349029 
L 325.729829 159.349029 
L 325.729829 159.49824 
L 324.741997 159.49824 
L 324.741997 159.796663 
L 324.248081 159.796663 
L 324.248081 160.095086 
L 323.260249 160.095086 
L 323.260249 160.54272 
L 321.778501 160.54272 
L 321.778501 160.691931 
L 321.284586 160.691931 
L 321.284586 160.691931 
L 314.863679 160.691931 
L 314.863679 160.841143 
L 311.900184 160.841143 
L 311.900184 160.990354 
L 309.92452 160.990354 
L 309.92452 161.288777 
L 308.936688 161.288777 
L 308.936688 161.288777 
L 307.454941 161.288777 
L 307.454941 161.5872 
L 306.467109 161.5872 
L 306.467109 161.5872 
L 302.021866 161.5872 
L 302.021866 161.885623 
L 301.034034 161.885623 
L 301.034034 162.034834 
L 300.540118 162.034834 
L 300.540118 162.333257 
L 300.046203 162.333257 
L 300.046203 162.333257 
L 299.058371 162.333257 
L 299.058371 162.333257 
L 298.564455 162.333257 
L 298.564455 162.780891 
L 298.070539 162.780891 
L 298.070539 162.780891 
L 289.180053 162.780891 
L 289.180053 162.930103 
L 288.686137 162.930103 
L 288.686137 163.079314 
L 286.710474 163.079314 
L 286.710474 163.228526 
L 278.807819 163.228526 
L 278.807819 163.377737 
L 277.326072 163.377737 
L 277.326072 163.526949 
L 275.844324 163.526949 
L 275.844324 163.974583 
L 274.362576 163.974583 
L 274.362576 164.72064 
L 273.868661 164.72064 
L 273.868661 165.019063 
L 273.374745 165.019063 
L 273.374745 165.168274 
L 272.880829 165.168274 
L 272.880829 165.168274 
L 272.386913 165.168274 
L 272.386913 165.317486 
L 268.929502 165.317486 
L 268.929502 165.317486 
L 267.447754 165.317486 
L 267.447754 165.914331 
L 265.966006 165.914331 
L 265.966006 166.063543 
L 265.472091 166.063543 
L 265.472091 166.511177 
L 264.978175 166.511177 
L 264.978175 166.660389 
L 263.496427 166.660389 
L 263.496427 166.8096 
L 263.002511 166.8096 
L 263.002511 167.108023 
L 262.014679 167.108023 
L 262.014679 167.108023 
L 260.039016 167.108023 
L 260.039016 167.406446 
L 253.618109 167.406446 
L 253.618109 167.406446 
L 252.630278 167.406446 
L 252.630278 167.555657 
L 252.136362 167.555657 
L 252.136362 167.704869 
L 251.642446 167.704869 
L 251.642446 167.85408 
L 251.14853 167.85408 
L 251.14853 168.003291 
L 250.654614 168.003291 
L 250.654614 168.152503 
L 250.160698 168.152503 
L 250.160698 168.450926 
L 249.666782 168.450926 
L 249.666782 169.495406 
L 249.172866 169.495406 
L 249.172866 170.092251 
L 248.185035 170.092251 
L 248.185035 170.539886 
L 244.233708 170.539886 
L 244.233708 170.689097 
L 243.739792 170.689097 
L 243.739792 170.838309 
L 243.245876 170.838309 
L 243.245876 171.136731 
L 242.75196 171.136731 
L 242.75196 171.584366 
L 242.258044 171.584366 
L 242.258044 172.181211 
L 241.764128 172.181211 
L 241.764128 172.927269 
L 240.776296 172.927269 
L 240.776296 173.374903 
L 239.294549 173.374903 
L 239.294549 173.524114 
L 238.800633 173.524114 
L 238.800633 173.822537 
L 236.331053 173.822537 
L 236.331053 173.971749 
L 231.88581 173.971749 
L 231.88581 174.12096 
L 230.897979 174.12096 
L 230.897979 174.270171 
L 230.404063 174.270171 
L 230.404063 174.419383 
L 229.910147 174.419383 
L 229.910147 174.568594 
L 229.416231 174.568594 
L 229.416231 174.867017 
L 228.428399 174.867017 
L 228.428399 175.463863 
L 226.946652 175.463863 
L 226.946652 175.613074 
L 226.452736 175.613074 
L 226.452736 175.762286 
L 224.970988 175.762286 
L 224.970988 176.060709 
L 221.019661 176.060709 
L 221.019661 176.20992 
L 220.525745 176.20992 
L 220.525745 176.359131 
L 220.031829 176.359131 
L 220.031829 176.359131 
L 219.043997 176.359131 
L 219.043997 176.508343 
L 218.056166 176.508343 
L 218.056166 176.657554 
L 217.068334 176.657554 
L 217.068334 177.2544 
L 216.574418 177.2544 
L 216.574418 177.851246 
L 216.080502 177.851246 
L 216.080502 178.149669 
L 215.586586 178.149669 
L 215.586586 178.448091 
L 215.09267 178.448091 
L 215.09267 178.746514 
L 214.104839 178.746514 
L 214.104839 179.044937 
L 213.117007 179.044937 
L 213.117007 179.194149 
L 208.177848 179.194149 
L 208.177848 179.492571 
L 207.683932 179.492571 
L 207.683932 179.940206 
L 206.202184 179.940206 
L 206.202184 180.089417 
L 205.708269 180.089417 
L 205.708269 180.537051 
L 205.214353 180.537051 
L 205.214353 180.686263 
L 203.732605 180.686263 
L 203.732605 181.133897 
L 203.238689 181.133897 
L 203.238689 181.283109 
L 202.250857 181.283109 
L 202.250857 181.43232 
L 197.311698 181.43232 
L 197.311698 182.029166 
L 196.817783 182.029166 
L 196.817783 182.029166 
L 196.323867 182.029166 
L 196.323867 182.4768 
L 195.829951 182.4768 
L 195.829951 182.924434 
L 195.336035 182.924434 
L 195.336035 183.073646 
L 194.348203 183.073646 
L 194.348203 183.670491 
L 193.854287 183.670491 
L 193.854287 183.819703 
L 192.37254 183.819703 
L 192.37254 184.118126 
L 191.878624 184.118126 
L 191.878624 185.759451 
L 190.890792 185.759451 
L 190.890792 186.057874 
L 190.396876 186.057874 
L 190.396876 186.207086 
L 189.409044 186.207086 
L 189.409044 186.803931 
L 188.915128 186.803931 
L 188.915128 186.953143 
L 188.421213 186.953143 
L 188.421213 187.102354 
L 185.457717 187.102354 
L 185.457717 187.400777 
L 184.469885 187.400777 
L 184.469885 187.848411 
L 183.97597 187.848411 
L 183.97597 188.445257 
L 183.482054 188.445257 
L 183.482054 189.340526 
L 182.988138 189.340526 
L 182.988138 189.937371 
L 182.494222 189.937371 
L 182.494222 190.83264 
L 182.000306 190.83264 
L 182.000306 192.026331 
L 181.012474 192.026331 
L 181.012474 192.175543 
L 179.036811 192.175543 
L 179.036811 192.324754 
L 178.542895 192.324754 
L 178.542895 192.623177 
L 177.061147 192.623177 
L 177.061147 192.772389 
L 175.085484 192.772389 
L 175.085484 193.070811 
L 174.591568 193.070811 
L 174.591568 193.220023 
L 174.097652 193.220023 
L 174.097652 193.369234 
L 173.10982 193.369234 
L 173.10982 193.816869 
L 172.615904 193.816869 
L 172.615904 194.264503 
L 172.121988 194.264503 
L 172.121988 194.861349 
L 171.628072 194.861349 
L 171.628072 195.607406 
L 170.640241 195.607406 
L 170.640241 195.905829 
L 169.652409 195.905829 
L 169.652409 196.05504 
L 168.664577 196.05504 
L 168.664577 196.204251 
L 168.170661 196.204251 
L 168.170661 196.502674 
L 167.676745 196.502674 
L 167.676745 196.801097 
L 167.182829 196.801097 
L 167.182829 196.950309 
L 166.688914 196.950309 
L 166.688914 197.09952 
L 166.194998 197.09952 
L 166.194998 197.397943 
L 165.701082 197.397943 
L 165.701082 197.547154 
L 165.207166 197.547154 
L 165.207166 197.696366 
L 161.255839 197.696366 
L 161.255839 197.845577 
L 160.761923 197.845577 
L 160.761923 198.144 
L 160.268007 198.144 
L 160.268007 198.293211 
L 159.774091 198.293211 
L 159.774091 198.442423 
L 159.280175 198.442423 
L 159.280175 198.591634 
L 158.786259 198.591634 
L 158.786259 199.337691 
L 157.798428 199.337691 
L 157.798428 199.486903 
L 157.304512 199.486903 
L 157.304512 199.934537 
L 156.31668 199.934537 
L 156.31668 200.23296 
L 155.328848 200.23296 
L 155.328848 200.979017 
L 154.341016 200.979017 
L 154.341016 201.575863 
L 152.365353 201.575863 
L 152.365353 201.874286 
L 150.389689 201.874286 
L 150.389689 202.023497 
L 149.401858 202.023497 
L 149.401858 202.32192 
L 148.907942 202.32192 
L 148.907942 202.620343 
L 148.414026 202.620343 
L 148.414026 203.067977 
L 147.92011 203.067977 
L 147.92011 203.3664 
L 147.426194 203.3664 
L 147.426194 203.814034 
L 146.932278 203.814034 
L 146.932278 203.963246 
L 145.944446 203.963246 
L 145.944446 204.261669 
L 145.450531 204.261669 
L 145.450531 204.560091 
L 144.956615 204.560091 
L 144.956615 205.156937 
L 144.462699 205.156937 
L 144.462699 205.45536 
L 143.968783 205.45536 
L 143.968783 205.753783 
L 143.474867 205.753783 
L 143.474867 205.902994 
L 142.980951 205.902994 
L 142.980951 206.649051 
L 142.487035 206.649051 
L 142.487035 206.798263 
L 141.993119 206.798263 
L 141.993119 207.096686 
L 138.041792 207.096686 
L 138.041792 207.991954 
L 137.547876 207.991954 
L 137.547876 208.141166 
L 135.572213 208.141166 
L 135.572213 209.036434 
L 134.090465 209.036434 
L 134.090465 209.334857 
L 133.596549 209.334857 
L 133.596549 209.931703 
L 132.608718 209.931703 
L 132.608718 210.080914 
L 132.114802 210.080914 
L 132.114802 210.230126 
L 131.12697 210.230126 
L 131.12697 210.379337 
L 122.7304 210.379337 
L 122.7304 210.528549 
L 120.754736 210.528549 
L 120.754736 210.67776 
L 120.26082 210.67776 
L 120.26082 210.976183 
L 119.766905 210.976183 
L 119.766905 211.125394 
L 119.272989 211.125394 
L 119.272989 211.274606 
L 118.285157 211.274606 
L 118.285157 211.573029 
L 113.839914 211.573029 
L 113.839914 212.319086 
L 113.345998 212.319086 
L 113.345998 213.065143 
L 112.852082 213.065143 
L 112.852082 213.214354 
L 112.358166 213.214354 
L 112.358166 213.363566 
L 111.86425 213.363566 
L 111.86425 213.512777 
L 111.370335 213.512777 
L 111.370335 213.661989 
L 110.876419 213.661989 
L 110.876419 214.109623 
L 110.382503 214.109623 
L 110.382503 214.408046 
L 109.888587 214.408046 
L 109.888587 214.85568 
L 109.394671 214.85568 
L 109.394671 215.303314 
L 108.900755 215.303314 
L 108.900755 215.750949 
L 108.406839 215.750949 
L 108.406839 216.049371 
L 107.419007 216.049371 
L 107.419007 216.795429 
L 106.925092 216.795429 
L 106.925092 216.94464 
L 106.431176 216.94464 
L 106.431176 217.093851 
L 104.949428 217.093851 
L 104.949428 217.243063 
L 101.985933 217.243063 
L 101.985933 217.690697 
L 101.492017 217.690697 
L 101.492017 217.98912 
L 100.998101 217.98912 
L 100.998101 218.138331 
L 100.504185 218.138331 
L 100.504185 219.182811 
L 100.010269 219.182811 
L 100.010269 219.481234 
L 99.516353 219.481234 
L 99.516353 220.07808 
L 99.022437 220.07808 
L 99.022437 220.525714 
L 98.528522 220.525714 
L 98.528522 221.420983 
L 98.034606 221.420983 
L 98.034606 221.868617 
L 97.54069 221.868617 
L 97.54069 222.614674 
L 97.046774 222.614674 
L 97.046774 222.763886 
L 96.552858 222.763886 
L 96.552858 223.21152 
L 96.058942 223.21152 
L 96.058942 223.957577 
L 95.565026 223.957577 
L 95.565026 224.256 
L 95.07111 224.256 
L 95.07111 224.554423 
L 94.577194 224.554423 
L 94.577194 224.703634 
L 94.083279 224.703634 
L 94.083279 225.151269 
L 93.589363 225.151269 
L 93.589363 225.30048 
L 90.131951 225.30048 
L 90.131951 225.449691 
L 89.638036 225.449691 
L 89.638036 225.748114 
L 89.14412 225.748114 
L 89.14412 226.34496 
L 88.156288 226.34496 
L 88.156288 226.941806 
L 87.168456 226.941806 
L 87.168456 227.38944 
L 86.67454 227.38944 
L 86.67454 227.986286 
L 86.180624 227.986286 
L 86.180624 228.284709 
L 85.686709 228.284709 
L 85.686709 228.881554 
L 85.192793 228.881554 
L 85.192793 230.373669 
L 84.698877 230.373669 
L 84.698877 231.268937 
L 84.204961 231.268937 
L 84.204961 233.208686 
L 83.711045 233.208686 
L 83.711045 234.253166 
L 83.217129 234.253166 
L 83.217129 235.446857 
L 82.723213 235.446857 
L 82.723213 236.192914 
L 81.735381 236.192914 
L 81.735381 236.938971 
L 81.241466 236.938971 
L 81.241466 237.088183 
L 80.74755 237.088183 
L 80.74755 237.237394 
L 80.253634 237.237394 
L 80.253634 237.386606 
L 79.759718 237.386606 
L 79.759718 237.685029 
L 79.265802 237.685029 
L 79.265802 237.83424 
L 78.771886 237.83424 
L 78.771886 237.983451 
L 78.27797 237.983451 
L 78.27797 239.177143 
L 77.784054 239.177143 
L 77.784054 241.564526 
L 77.290138 241.564526 
L 77.290138 245.593234 
L 76.796223 245.593234 
L 76.796223 248.428251 
L 76.302307 248.428251 
L 76.302307 252.158537 
L 75.808391 252.158537 
L 75.808391 257.380937 
L 75.314475 257.380937 
L 75.314475 266.0352 
L 74.820559 266.0352 
L 74.820559 272.749714 
L 74.326643 272.749714 
L 74.326643 275.43552 
L 73.832727 275.43552 
L 73.832727 276.48 
L 73.832727 276.48 
z
" clip-path="url(#p38e6a06eda)" style="fill: #43b5a0; fill-opacity: 0.8"/>
   </g>
   <g id="matplotlib.axis_1">
    <g id="xtick_1">
     <g id="line2d_1">
      <defs>
       <path id="m6f55b42765" d="M 0 0 
L 0 3.5 
" style="stroke: #ffffff; stroke-width: 0.8"/>
      </defs>
      <g>
       <use xlink:href="#m6f55b42765" x="102.479849" y="276.48" style="fill: #ffffff; stroke: #ffffff; stroke-width: 0.8"/>
      </g>
     </g>
     <g id="text_1">
      <!-- Fri 12/24 -->
      <g style="fill: #ffffff" transform="translate(63.410664 312.01669)rotate(-30)scale(0.1 -0.1)">
       <defs>
        <path id="DejaVuSans-46" d="M 628 4666 
L 3309 4666 
L 3309 4134 
L 1259 4134 
L 1259 2759 
L 3109 2759 
L 3109 2228 
L 1259 2228 
L 1259 0 
L 628 0 
L 628 4666 
z
" transform="scale(0.015625)"/>
        <path id="DejaVuSans-72" d="M 2631 2963 
Q 2534 3019 2420 3045 
Q 2306 3072 2169 3072 
Q 1681 3072 1420 2755 
Q 1159 2438 1159 1844 
L 1159 0 
L 581 0 
L 581 3500 
L 1159 3500 
L 1159 2956 
Q 1341 3275 1631 3429 
Q 1922 3584 2338 3584 
Q 2397 3584 2469 3576 
Q 2541 3569 2628 3553 
L 2631 2963 
z
" transform="scale(0.015625)"/>
        <path id="DejaVuSans-69" d="M 603 3500 
L 1178 3500 
L 1178 0 
L 603 0 
L 603 3500 
z
M 603 4863 
L 1178 4863 
L 1178 4134 
L 603 4134 
L 603 4863 
z
" transform="scale(0.015625)"/>
        <path id="DejaVuSans-20" transform="scale(0.015625)"/>
        <path id="DejaVuSans-31" d="M 794 531 
L 1825 531 
L 1825 4091 
L 703 3866 
L 703 4441 
L 1819 4666 
L 2450 4666 
L 2450 531 
L 3481 531 
L 3481 0 
L 794 0 
L 794 531 
z
" transform="scale(0.015625)"/>
        <path id="DejaVuSans-32" d="M 1228 531 
L 3431 531 
L 3431 0 
L 469 0 
L 469 531 
Q 828 903 1448 1529 
Q 2069 2156 2228 2338 
Q 2531 2678 2651 2914 
Q 2772 3150 2772 3378 
Q 2772 3750 2511 3984 
Q 2250 4219 1831 4219 
Q 1534 4219 1204 4116 
Q 875 4013 500 3803 
L 500 4441 
Q 881 4594 1212 4672 
Q 1544 4750 1819 4750 
Q 2544 4750 2975 4387 
Q 3406 4025 3406 3419 
Q 3406 3131 3298 2873 
Q 3191 2616 2906 2266 
Q 2828 2175 2409 1742 
Q 1991 1309 1228 531 
z
" transform="scale(0.015625)"/>
        <path id="DejaVuSans-2f" d="M 1625 4666 
L 2156 4666 
L 531 -594 
L 0 -594 
L 1625 4666 
z
" transform="scale(0.015625)"/>
        <path id="DejaVuSans-34" d="M 2419 4116 
L 825 1625 
L 2419 1625 
L 2419 4116 
z
M 2253 4666 
L 3047 4666 
L 3047 1625 
L 3713 1625 
L 3713 1100 
L 3047 1100 
L 3047 0 
L 2419 0 
L 2419 1100 
L 313 1100 
L 313 1709 
L 2253 4666 
z
" transform="scale(0.015625)"/>
       </defs>
       <use xlink:href="#DejaVuSans-46"/>
       <use xlink:href="#DejaVuSans-72" x="50.269531"/>
       <use xlink:href="#DejaVuSans-69" x="91.382812"/>
       <use xlink:href="#DejaVuSans-20" x="119.166016"/>
       <use xlink:href="#DejaVuSans-31" x="150.953125"/>
       <use xlink:href="#DejaVuSans-32" x="214.576172"/>
       <use xlink:href="#DejaVuSans-2f" x="278.199219"/>
       <use xlink:href="#DejaVuSans-32" x="311.890625"/>
       <use xlink:href="#DejaVuSans-34" x="375.513672"/>
      </g>
     </g>
    </g>
    <g id="xtick_2">
     <g id="line2d_2">
      <g>
       <use xlink:href="#m6f55b42765" x="138.041792" y="276.48" style="fill: #ffffff; stroke: #ffffff; stroke-width: 0.8"/>
      </g>
     </g>
     <g id="text_2">
      <!-- Mon 12/27 -->
      <g style="fill: #ffffff" transform="translate(91.032238 316.601065)rotate(-30)scale(0.1 -0.1)">
       <defs>
        <path id="DejaVuSans-4d" d="M 628 4666 
L 1569 4666 
L 2759 1491 
L 3956 4666 
L 4897 4666 
L 4897 0 
L 4281 0 
L 4281 4097 
L 3078 897 
L 2444 897 
L 1241 4097 
L 1241 0 
L 628 0 
L 628 4666 
z
" transform="scale(0.015625)"/>
        <path id="DejaVuSans-6f" d="M 1959 3097 
Q 1497 3097 1228 2736 
Q 959 2375 959 1747 
Q 959 1119 1226 758 
Q 1494 397 1959 397 
Q 2419 397 2687 759 
Q 2956 1122 2956 1747 
Q 2956 2369 2687 2733 
Q 2419 3097 1959 3097 
z
M 1959 3584 
Q 2709 3584 3137 3096 
Q 3566 2609 3566 1747 
Q 3566 888 3137 398 
Q 2709 -91 1959 -91 
Q 1206 -91 779 398 
Q 353 888 353 1747 
Q 353 2609 779 3096 
Q 1206 3584 1959 3584 
z
" transform="scale(0.015625)"/>
        <path id="DejaVuSans-6e" d="M 3513 2113 
L 3513 0 
L 2938 0 
L 2938 2094 
Q 2938 2591 2744 2837 
Q 2550 3084 2163 3084 
Q 1697 3084 1428 2787 
Q 1159 2491 1159 1978 
L 1159 0 
L 581 0 
L 581 3500 
L 1159 3500 
L 1159 2956 
Q 1366 3272 1645 3428 
Q 1925 3584 2291 3584 
Q 2894 3584 3203 3211 
Q 3513 2838 3513 2113 
z
" transform="scale(0.015625)"/>
        <path id="DejaVuSans-37" d="M 525 4666 
L 3525 4666 
L 3525 4397 
L 1831 0 
L 1172 0 
L 2766 4134 
L 525 4134 
L 525 4666 
z
" transform="scale(0.015625)"/>
       </defs>
       <use xlink:href="#DejaVuSans-4d"/>
       <use xlink:href="#DejaVuSans-6f" x="86.279297"/>
       <use xlink:href="#DejaVuSans-6e" x="147.460938"/>
       <use xlink:href="#DejaVuSans-20" x="210.839844"/>
       <use xlink:href="#DejaVuSans-31" x="242.626953"/>
       <use xlink:href="#DejaVuSans-32" x="306.25"/>
       <use xlink:href="#DejaVuSans-2f" x="369.873047"/>
       <use xlink:href="#DejaVuSans-32" x="403.564453"/>
       <use xlink:href="#DejaVuSans-37" x="467.1875"/>
      </g>
     </g>
    </g>
    <g id="xtick_3">
     <g id="line2d_3">
      <g>
       <use xlink:href="#m6f55b42765" x="185.457717" y="276.48" style="fill: #ffffff; stroke: #ffffff; stroke-width: 0.8"/>
      </g>
     </g>
     <g id="text_3">
      <!-- Fri 12/31 -->
      <g style="fill: #ffffff" transform="translate(146.388533 312.01669)rotate(-30)scale(0.1 -0.1)">
       <defs>
        <path id="DejaVuSans-33" d="M 2597 2516 
Q 3050 2419 3304 2112 
Q 3559 1806 3559 1356 
Q 3559 666 3084 287 
Q 2609 -91 1734 -91 
Q 1441 -91 1130 -33 
Q 819 25 488 141 
L 488 750 
Q 750 597 1062 519 
Q 1375 441 1716 441 
Q 2309 441 2620 675 
Q 2931 909 2931 1356 
Q 2931 1769 2642 2001 
Q 2353 2234 1838 2234 
L 1294 2234 
L 1294 2753 
L 1863 2753 
Q 2328 2753 2575 2939 
Q 2822 3125 2822 3475 
Q 2822 3834 2567 4026 
Q 2313 4219 1838 4219 
Q 1578 4219 1281 4162 
Q 984 4106 628 3988 
L 628 4550 
Q 988 4650 1302 4700 
Q 1616 4750 1894 4750 
Q 2613 4750 3031 4423 
Q 3450 4097 3450 3541 
Q 3450 3153 3228 2886 
Q 3006 2619 2597 2516 
z
" transform="scale(0.015625)"/>
       </defs>
       <use xlink:href="#DejaVuSans-46"/>
       <use xlink:href="#DejaVuSans-72" x="50.269531"/>
       <use xlink:href="#DejaVuSans-69" x="91.382812"/>
       <use xlink:href="#DejaVuSans-20" x="119.166016"/>
       <use xlink:href="#DejaVuSans-31" x="150.953125"/>
       <use xlink:href="#DejaVuSans-32" x="214.576172"/>
       <use xlink:href="#DejaVuSans-2f" x="278.199219"/>
       <use xlink:href="#DejaVuSans-33" x="311.890625"/>
       <use xlink:href="#DejaVuSans-31" x="375.513672"/>
      </g>
     </g>
    </g>
    <g id="xtick_4">
     <g id="line2d_4">
      <g>
       <use xlink:href="#m6f55b42765" x="221.019661" y="276.48" style="fill: #ffffff; stroke: #ffffff; stroke-width: 0.8"/>
      </g>
     </g>
     <g id="text_4">
      <!-- Mon 01/03 -->
      <g style="fill: #ffffff" transform="translate(174.010106 316.601065)rotate(-30)scale(0.1 -0.1)">
       <defs>
        <path id="DejaVuSans-30" d="M 2034 4250 
Q 1547 4250 1301 3770 
Q 1056 3291 1056 2328 
Q 1056 1369 1301 889 
Q 1547 409 2034 409 
Q 2525 409 2770 889 
Q 3016 1369 3016 2328 
Q 3016 3291 2770 3770 
Q 2525 4250 2034 4250 
z
M 2034 4750 
Q 2819 4750 3233 4129 
Q 3647 3509 3647 2328 
Q 3647 1150 3233 529 
Q 2819 -91 2034 -91 
Q 1250 -91 836 529 
Q 422 1150 422 2328 
Q 422 3509 836 4129 
Q 1250 4750 2034 4750 
z
" transform="scale(0.015625)"/>
       </defs>
       <use xlink:href="#DejaVuSans-4d"/>
       <use xlink:href="#DejaVuSans-6f" x="86.279297"/>
       <use xlink:href="#DejaVuSans-6e" x="147.460938"/>
       <use xlink:href="#DejaVuSans-20" x="210.839844"/>
       <use xlink:href="#DejaVuSans-30" x="242.626953"/>
       <use xlink:href="#DejaVuSans-31" x="306.25"/>
       <use xlink:href="#DejaVuSans-2f" x="369.873047"/>
       <use xlink:href="#DejaVuSans-30" x="403.564453"/>
       <use xlink:href="#DejaVuSans-33" x="467.1875"/>
      </g>
     </g>
    </g>
    <g id="xtick_5">
     <g id="line2d_5">
      <g>
       <use xlink:href="#m6f55b42765" x="268.435586" y="276.48" style="fill: #ffffff; stroke: #ffffff; stroke-width: 0.8"/>
      </g>
     </g>
     <g id="text_5">
      <!-- Fri 01/07 -->
      <g style="fill: #ffffff" transform="translate(229.366402 312.01669)rotate(-30)scale(0.1 -0.1)">
       <use xlink:href="#DejaVuSans-46"/>
       <use xlink:href="#DejaVuSans-72" x="50.269531"/>
       <use xlink:href="#DejaVuSans-69" x="91.382812"/>
       <use xlink:href="#DejaVuSans-20" x="119.166016"/>
       <use xlink:href="#DejaVuSans-30" x="150.953125"/>
       <use xlink:href="#DejaVuSans-31" x="214.576172"/>
       <use xlink:href="#DejaVuSans-2f" x="278.199219"/>
       <use xlink:href="#DejaVuSans-30" x="311.890625"/>
       <use xlink:href="#DejaVuSans-37" x="375.513672"/>
      </g>
     </g>
    </g>
    <g id="xtick_6">
     <g id="line2d_6">
      <g>
       <use xlink:href="#m6f55b42765" x="303.99753" y="276.48" style="fill: #ffffff; stroke: #ffffff; stroke-width: 0.8"/>
      </g>
     </g>
     <g id="text_6">
      <!-- Mon 01/10 -->
      <g style="fill: #ffffff" transform="translate(256.987975 316.601065)rotate(-30)scale(0.1 -0.1)">
       <use xlink:href="#DejaVuSans-4d"/>
       <use xlink:href="#DejaVuSans-6f" x="86.279297"/>
       <use xlink:href="#DejaVuSans-6e" x="147.460938"/>
       <use xlink:href="#DejaVuSans-20" x="210.839844"/>
       <use xlink:href="#DejaVuSans-30" x="242.626953"/>
       <use xlink:href="#DejaVuSans-31" x="306.25"/>
       <use xlink:href="#DejaVuSans-2f" x="369.873047"/>
       <use xlink:href="#DejaVuSans-31" x="403.564453"/>
       <use xlink:href="#DejaVuSans-30" x="467.1875"/>
      </g>
     </g>
    </g>
    <g id="xtick_7">
     <g id="line2d_7">
      <g>
       <use xlink:href="#m6f55b42765" x="351.413455" y="276.48" style="fill: #ffffff; stroke: #ffffff; stroke-width: 0.8"/>
      </g>
     </g>
     <g id="text_7">
      <!-- Fri 01/14 -->
      <g style="fill: #ffffff" transform="translate(312.34427 312.01669)rotate(-30)scale(0.1 -0.1)">
       <use xlink:href="#DejaVuSans-46"/>
       <use xlink:href="#DejaVuSans-72" x="50.269531"/>
       <use xlink:href="#DejaVuSans-69" x="91.382812"/>
       <use xlink:href="#DejaVuSans-20" x="119.166016"/>
       <use xlink:href="#DejaVuSans-30" x="150.953125"/>
       <use xlink:href="#DejaVuSans-31" x="214.576172"/>
       <use xlink:href="#DejaVuSans-2f" x="278.199219"/>
       <use xlink:href="#DejaVuSans-31" x="311.890625"/>
       <use xlink:href="#DejaVuSans-34" x="375.513672"/>
      </g>
     </g>
    </g>
    <g id="xtick_8">
     <g id="line2d_8">
      <g>
       <use xlink:href="#m6f55b42765" x="386.975398" y="276.48" style="fill: #ffffff; stroke: #ffffff; stroke-width: 0.8"/>
      </g>
     </g>
     <g id="text_8">
      <!-- Mon 01/17 -->
      <g style="fill: #ffffff" transform="translate(339.965844 316.601065)rotate(-30)scale(0.1 -0.1)">
       <use xlink:href="#DejaVuSans-4d"/>
       <use xlink:href="#DejaVuSans-6f" x="86.279297"/>
       <use xlink:href="#DejaVuSans-6e" x="147.460938"/>
       <use xlink:href="#DejaVuSans-20" x="210.839844"/>
       <use xlink:href="#DejaVuSans-30" x="242.626953"/>
       <use xlink:href="#DejaVuSans-31" x="306.25"/>
       <use xlink:href="#DejaVuSans-2f" x="369.873047"/>
       <use xlink:href="#DejaVuSans-31" x="403.564453"/>
       <use xlink:href="#DejaVuSans-37" x="467.1875"/>
      </g>
     </g>
    </g>
    <g id="xtick_9">
     <g id="line2d_9">
      <defs>
       <path id="m96cd40f4a9" d="M 0 0 
L 0 2 
" style="stroke: #ffffff; stroke-width: 0.6"/>
      </defs>
      <g>
       <use xlink:href="#m96cd40f4a9" x="66.917905" y="276.48" style="fill: #ffffff; stroke: #ffffff; stroke-width: 0.6"/>
      </g>
     </g>
    </g>
    <g id="xtick_10">
     <g id="line2d_10">
      <g>
       <use xlink:href="#m96cd40f4a9" x="78.771886" y="276.48" style="fill: #ffffff; stroke: #ffffff; stroke-width: 0.6"/>
      </g>
     </g>
    </g>
    <g id="xtick_11">
     <g id="line2d_11">
      <g>
       <use xlink:href="#m96cd40f4a9" x="90.625867" y="276.48" style="fill: #ffffff; stroke: #ffffff; stroke-width: 0.6"/>
      </g>
     </g>
    </g>
    <g id="xtick_12">
     <g id="line2d_12">
      <g>
       <use xlink:href="#m96cd40f4a9" x="114.33383" y="276.48" style="fill: #ffffff; stroke: #ffffff; stroke-width: 0.6"/>
      </g>
     </g>
    </g>
    <g id="xtick_13">
     <g id="line2d_13">
      <g>
       <use xlink:href="#m96cd40f4a9" x="126.187811" y="276.48" style="fill: #ffffff; stroke: #ffffff; stroke-width: 0.6"/>
      </g>
     </g>
    </g>
    <g id="xtick_14">
     <g id="line2d_14">
      <g>
       <use xlink:href="#m96cd40f4a9" x="149.895774" y="276.48" style="fill: #ffffff; stroke: #ffffff; stroke-width: 0.6"/>
      </g>
     </g>
    </g>
    <g id="xtick_15">
     <g id="line2d_15">
      <g>
       <use xlink:href="#m96cd40f4a9" x="161.749755" y="276.48" style="fill: #ffffff; stroke: #ffffff; stroke-width: 0.6"/>
      </g>
     </g>
    </g>
    <g id="xtick_16">
     <g id="line2d_16">
      <g>
       <use xlink:href="#m96cd40f4a9" x="173.603736" y="276.48" style="fill: #ffffff; stroke: #ffffff; stroke-width: 0.6"/>
      </g>
     </g>
    </g>
    <g id="xtick_17">
     <g id="line2d_17">
      <g>
       <use xlink:href="#m96cd40f4a9" x="197.311698" y="276.48" style="fill: #ffffff; stroke: #ffffff; stroke-width: 0.6"/>
      </g>
     </g>
    </g>
    <g id="xtick_18">
     <g id="line2d_18">
      <g>
       <use xlink:href="#m96cd40f4a9" x="209.16568" y="276.48" style="fill: #ffffff; stroke: #ffffff; stroke-width: 0.6"/>
      </g>
     </g>
    </g>
    <g id="xtick_19">
     <g id="line2d_19">
      <g>
       <use xlink:href="#m96cd40f4a9" x="232.873642" y="276.48" style="fill: #ffffff; stroke: #ffffff; stroke-width: 0.6"/>
      </g>
     </g>
    </g>
    <g id="xtick_20">
     <g id="line2d_20">
      <g>
       <use xlink:href="#m96cd40f4a9" x="244.727623" y="276.48" style="fill: #ffffff; stroke: #ffffff; stroke-width: 0.6"/>
      </g>
     </g>
    </g>
    <g id="xtick_21">
     <g id="line2d_21">
      <g>
       <use xlink:href="#m96cd40f4a9" x="256.581605" y="276.48" style="fill: #ffffff; stroke: #ffffff; stroke-width: 0.6"/>
      </g>
     </g>
    </g>
    <g id="xtick_22">
     <g id="line2d_22">
      <g>
       <use xlink:href="#m96cd40f4a9" x="280.289567" y="276.48" style="fill: #ffffff; stroke: #ffffff; stroke-width: 0.6"/>
      </g>
     </g>
    </g>
    <g id="xtick_23">
     <g id="line2d_23">
      <g>
       <use xlink:href="#m96cd40f4a9" x="292.143548" y="276.48" style="fill: #ffffff; stroke: #ffffff; stroke-width: 0.6"/>
      </g>
     </g>
    </g>
    <g id="xtick_24">
     <g id="line2d_24">
      <g>
       <use xlink:href="#m96cd40f4a9" x="315.851511" y="276.48" style="fill: #ffffff; stroke: #ffffff; stroke-width: 0.6"/>
      </g>
     </g>
    </g>
    <g id="xtick_25">
     <g id="line2d_25">
      <g>
       <use xlink:href="#m96cd40f4a9" x="327.705492" y="276.48" style="fill: #ffffff; stroke: #ffffff; stroke-width: 0.6"/>
      </g>
     </g>
    </g>
    <g id="xtick_26">
     <g id="line2d_26">
      <g>
       <use xlink:href="#m96cd40f4a9" x="339.559473" y="276.48" style="fill: #ffffff; stroke: #ffffff; stroke-width: 0.6"/>
      </g>
     </g>
    </g>
    <g id="xtick_27">
     <g id="line2d_27">
      <g>
       <use xlink:href="#m96cd40f4a9" x="363.267436" y="276.48" style="fill: #ffffff; stroke: #ffffff; stroke-width: 0.6"/>
      </g>
     </g>
    </g>
    <g id="xtick_28">
     <g id="line2d_28">
      <g>
       <use xlink:href="#m96cd40f4a9" x="375.121417" y="276.48" style="fill: #ffffff; stroke: #ffffff; stroke-width: 0.6"/>
      </g>
     </g>
    </g>
    <g id="xtick_29">
     <g id="line2d_29">
      <g>
       <use xlink:href="#m96cd40f4a9" x="398.829379" y="276.48" style="fill: #ffffff; stroke: #ffffff; stroke-width: 0.6"/>
      </g>
     </g>
    </g>
    <g id="xtick_30">
     <g id="line2d_30">
      <g>
       <use xlink:href="#m96cd40f4a9" x="410.683361" y="276.48" style="fill: #ffffff; stroke: #ffffff; stroke-width: 0.6"/>
      </g>
     </g>
    </g>
   </g>
   <g id="matplotlib.axis_2">
    <g id="ytick_1">
     <g id="line2d_31">
      <defs>
       <path id="m128ed52ded" d="M 0 0 
L -3.5 0 
" style="stroke: #ffffff; stroke-width: 0.8"/>
      </defs>
      <g>
       <use xlink:href="#m128ed52ded" x="57.6" y="276.48" style="fill: #ffffff; stroke: #ffffff; stroke-width: 0.8"/>
      </g>
     </g>
     <g id="text_9">
      <!-- 0 -->
      <g style="fill: #ffffff" transform="translate(44.2375 280.279219)scale(0.1 -0.1)">
       <use xlink:href="#DejaVuSans-30"/>
      </g>
     </g>
    </g>
    <g id="ytick_2">
     <g id="line2d_32">
      <g>
       <use xlink:href="#m128ed52ded" x="57.6" y="246.637714" style="fill: #ffffff; stroke: #ffffff; stroke-width: 0.8"/>
      </g>
     </g>
     <g id="text_10">
      <!-- 200 -->
      <g style="fill: #ffffff" transform="translate(31.5125 250.436933)scale(0.1 -0.1)">
       <use xlink:href="#DejaVuSans-32"/>
       <use xlink:href="#DejaVuSans-30" x="63.623047"/>
       <use xlink:href="#DejaVuSans-30" x="127.246094"/>
      </g>
     </g>
    </g>
    <g id="ytick_3">
     <g id="line2d_33">
      <g>
       <use xlink:href="#m128ed52ded" x="57.6" y="216.795429" style="fill: #ffffff; stroke: #ffffff; stroke-width: 0.8"/>
      </g>
     </g>
     <g id="text_11">
      <!-- 400 -->
      <g style="fill: #ffffff" transform="translate(31.5125 220.594647)scale(0.1 -0.1)">
       <use xlink:href="#DejaVuSans-34"/>
       <use xlink:href="#DejaVuSans-30" x="63.623047"/>
       <use xlink:href="#DejaVuSans-30" x="127.246094"/>
      </g>
     </g>
    </g>
    <g id="ytick_4">
     <g id="line2d_34">
      <g>
       <use xlink:href="#m128ed52ded" x="57.6" y="186.953143" style="fill: #ffffff; stroke: #ffffff; stroke-width: 0.8"/>
      </g>
     </g>
     <g id="text_12">
      <!-- 600 -->
      <g style="fill: #ffffff" transform="translate(31.5125 190.752362)scale(0.1 -0.1)">
       <defs>
        <path id="DejaVuSans-36" d="M 2113 2584 
Q 1688 2584 1439 2293 
Q 1191 2003 1191 1497 
Q 1191 994 1439 701 
Q 1688 409 2113 409 
Q 2538 409 2786 701 
Q 3034 994 3034 1497 
Q 3034 2003 2786 2293 
Q 2538 2584 2113 2584 
z
M 3366 4563 
L 3366 3988 
Q 3128 4100 2886 4159 
Q 2644 4219 2406 4219 
Q 1781 4219 1451 3797 
Q 1122 3375 1075 2522 
Q 1259 2794 1537 2939 
Q 1816 3084 2150 3084 
Q 2853 3084 3261 2657 
Q 3669 2231 3669 1497 
Q 3669 778 3244 343 
Q 2819 -91 2113 -91 
Q 1303 -91 875 529 
Q 447 1150 447 2328 
Q 447 3434 972 4092 
Q 1497 4750 2381 4750 
Q 2619 4750 2861 4703 
Q 3103 4656 3366 4563 
z
" transform="scale(0.015625)"/>
       </defs>
       <use xlink:href="#DejaVuSans-36"/>
       <use xlink:href="#DejaVuSans-30" x="63.623047"/>
       <use xlink:href="#DejaVuSans-30" x="127.246094"/>
      </g>
     </g>
    </g>
    <g id="ytick_5">
     <g id="line2d_35">
      <g>
       <use xlink:href="#m128ed52ded" x="57.6" y="157.110857" style="fill: #ffffff; stroke: #ffffff; stroke-width: 0.8"/>
      </g>
     </g>
     <g id="text_13">
      <!-- 800 -->
      <g style="fill: #ffffff" transform="translate(31.5125 160.910076)scale(0.1 -0.1)">
       <defs>
        <path id="DejaVuSans-38" d="M 2034 2216 
Q 1584 2216 1326 1975 
Q 1069 1734 1069 1313 
Q 1069 891 1326 650 
Q 1584 409 2034 409 
Q 2484 409 2743 651 
Q 3003 894 3003 1313 
Q 3003 1734 2745 1975 
Q 2488 2216 2034 2216 
z
M 1403 2484 
Q 997 2584 770 2862 
Q 544 3141 544 3541 
Q 544 4100 942 4425 
Q 1341 4750 2034 4750 
Q 2731 4750 3128 4425 
Q 3525 4100 3525 3541 
Q 3525 3141 3298 2862 
Q 3072 2584 2669 2484 
Q 3125 2378 3379 2068 
Q 3634 1759 3634 1313 
Q 3634 634 3220 271 
Q 2806 -91 2034 -91 
Q 1263 -91 848 271 
Q 434 634 434 1313 
Q 434 1759 690 2068 
Q 947 2378 1403 2484 
z
M 1172 3481 
Q 1172 3119 1398 2916 
Q 1625 2713 2034 2713 
Q 2441 2713 2670 2916 
Q 2900 3119 2900 3481 
Q 2900 3844 2670 4047 
Q 2441 4250 2034 4250 
Q 1625 4250 1398 4047 
Q 1172 3844 1172 3481 
z
" transform="scale(0.015625)"/>
       </defs>
       <use xlink:href="#DejaVuSans-38"/>
       <use xlink:href="#DejaVuSans-30" x="63.623047"/>
       <use xlink:href="#DejaVuSans-30" x="127.246094"/>
      </g>
     </g>
    </g>
    <g id="ytick_6">
     <g id="line2d_36">
      <g>
       <use xlink:href="#m128ed52ded" x="57.6" y="127.268571" style="fill: #ffffff; stroke: #ffffff; stroke-width: 0.8"/>
      </g>
     </g>
     <g id="text_14">
      <!-- 1000 -->
      <g style="fill: #ffffff" transform="translate(25.15 131.06779)scale(0.1 -0.1)">
       <use xlink:href="#DejaVuSans-31"/>
       <use xlink:href="#DejaVuSans-30" x="63.623047"/>
       <use xlink:href="#DejaVuSans-30" x="127.246094"/>
       <use xlink:href="#DejaVuSans-30" x="190.869141"/>
      </g>
     </g>
    </g>
    <g id="ytick_7">
     <g id="line2d_37">
      <g>
       <use xlink:href="#m128ed52ded" x="57.6" y="97.426286" style="fill: #ffffff; stroke: #ffffff; stroke-width: 0.8"/>
      </g>
     </g>
     <g id="text_15">
      <!-- 1200 -->
      <g style="fill: #ffffff" transform="translate(25.15 101.225504)scale(0.1 -0.1)">
       <use xlink:href="#DejaVuSans-31"/>
       <use xlink:href="#DejaVuSans-32" x="63.623047"/>
       <use xlink:href="#DejaVuSans-30" x="127.246094"/>
       <use xlink:href="#DejaVuSans-30" x="190.869141"/>
      </g>
     </g>
    </g>
    <g id="ytick_8">
     <g id="line2d_38">
      <g>
       <use xlink:href="#m128ed52ded" x="57.6" y="67.584" style="fill: #ffffff; stroke: #ffffff; stroke-width: 0.8"/>
      </g>
     </g>
     <g id="text_16">
      <!-- 1400 -->
      <g style="fill: #ffffff" transform="translate(25.15 71.383219)scale(0.1 -0.1)">
       <use xlink:href="#DejaVuSans-31"/>
       <use xlink:href="#DejaVuSans-34" x="63.623047"/>
       <use xlink:href="#DejaVuSans-30" x="127.246094"/>
       <use xlink:href="#DejaVuSans-30" x="190.869141"/>
      </g>
     </g>
    </g>
    <g id="text_17">
     <!-- Number of tickets sold -->
     <g style="fill: #ffffff" transform="translate(19.070312 215.329906)rotate(-90)scale(0.1 -0.1)">
      <defs>
       <path id="DejaVuSans-4e" d="M 628 4666 
L 1478 4666 
L 3547 763 
L 3547 4666 
L 4159 4666 
L 4159 0 
L 3309 0 
L 1241 3903 
L 1241 0 
L 628 0 
L 628 4666 
z
" transform="scale(0.015625)"/>
       <path id="DejaVuSans-75" d="M 544 1381 
L 544 3500 
L 1119 3500 
L 1119 1403 
Q 1119 906 1312 657 
Q 1506 409 1894 409 
Q 2359 409 2629 706 
Q 2900 1003 2900 1516 
L 2900 3500 
L 3475 3500 
L 3475 0 
L 2900 0 
L 2900 538 
Q 2691 219 2414 64 
Q 2138 -91 1772 -91 
Q 1169 -91 856 284 
Q 544 659 544 1381 
z
M 1991 3584 
L 1991 3584 
z
" transform="scale(0.015625)"/>
       <path id="DejaVuSans-6d" d="M 3328 2828 
Q 3544 3216 3844 3400 
Q 4144 3584 4550 3584 
Q 5097 3584 5394 3201 
Q 5691 2819 5691 2113 
L 5691 0 
L 5113 0 
L 5113 2094 
Q 5113 2597 4934 2840 
Q 4756 3084 4391 3084 
Q 3944 3084 3684 2787 
Q 3425 2491 3425 1978 
L 3425 0 
L 2847 0 
L 2847 2094 
Q 2847 2600 2669 2842 
Q 2491 3084 2119 3084 
Q 1678 3084 1418 2786 
Q 1159 2488 1159 1978 
L 1159 0 
L 581 0 
L 581 3500 
L 1159 3500 
L 1159 2956 
Q 1356 3278 1631 3431 
Q 1906 3584 2284 3584 
Q 2666 3584 2933 3390 
Q 3200 3197 3328 2828 
z
" transform="scale(0.015625)"/>
       <path id="DejaVuSans-62" d="M 3116 1747 
Q 3116 2381 2855 2742 
Q 2594 3103 2138 3103 
Q 1681 3103 1420 2742 
Q 1159 2381 1159 1747 
Q 1159 1113 1420 752 
Q 1681 391 2138 391 
Q 2594 391 2855 752 
Q 3116 1113 3116 1747 
z
M 1159 2969 
Q 1341 3281 1617 3432 
Q 1894 3584 2278 3584 
Q 2916 3584 3314 3078 
Q 3713 2572 3713 1747 
Q 3713 922 3314 415 
Q 2916 -91 2278 -91 
Q 1894 -91 1617 61 
Q 1341 213 1159 525 
L 1159 0 
L 581 0 
L 581 4863 
L 1159 4863 
L 1159 2969 
z
" transform="scale(0.015625)"/>
       <path id="DejaVuSans-65" d="M 3597 1894 
L 3597 1613 
L 953 1613 
Q 991 1019 1311 708 
Q 1631 397 2203 397 
Q 2534 397 2845 478 
Q 3156 559 3463 722 
L 3463 178 
Q 3153 47 2828 -22 
Q 2503 -91 2169 -91 
Q 1331 -91 842 396 
Q 353 884 353 1716 
Q 353 2575 817 3079 
Q 1281 3584 2069 3584 
Q 2775 3584 3186 3129 
Q 3597 2675 3597 1894 
z
M 3022 2063 
Q 3016 2534 2758 2815 
Q 2500 3097 2075 3097 
Q 1594 3097 1305 2825 
Q 1016 2553 972 2059 
L 3022 2063 
z
" transform="scale(0.015625)"/>
       <path id="DejaVuSans-66" d="M 2375 4863 
L 2375 4384 
L 1825 4384 
Q 1516 4384 1395 4259 
Q 1275 4134 1275 3809 
L 1275 3500 
L 2222 3500 
L 2222 3053 
L 1275 3053 
L 1275 0 
L 697 0 
L 697 3053 
L 147 3053 
L 147 3500 
L 697 3500 
L 697 3744 
Q 697 4328 969 4595 
Q 1241 4863 1831 4863 
L 2375 4863 
z
" transform="scale(0.015625)"/>
       <path id="DejaVuSans-74" d="M 1172 4494 
L 1172 3500 
L 2356 3500 
L 2356 3053 
L 1172 3053 
L 1172 1153 
Q 1172 725 1289 603 
Q 1406 481 1766 481 
L 2356 481 
L 2356 0 
L 1766 0 
Q 1100 0 847 248 
Q 594 497 594 1153 
L 594 3053 
L 172 3053 
L 172 3500 
L 594 3500 
L 594 4494 
L 1172 4494 
z
" transform="scale(0.015625)"/>
       <path id="DejaVuSans-63" d="M 3122 3366 
L 3122 2828 
Q 2878 2963 2633 3030 
Q 2388 3097 2138 3097 
Q 1578 3097 1268 2742 
Q 959 2388 959 1747 
Q 959 1106 1268 751 
Q 1578 397 2138 397 
Q 2388 397 2633 464 
Q 2878 531 3122 666 
L 3122 134 
Q 2881 22 2623 -34 
Q 2366 -91 2075 -91 
Q 1284 -91 818 406 
Q 353 903 353 1747 
Q 353 2603 823 3093 
Q 1294 3584 2113 3584 
Q 2378 3584 2631 3529 
Q 2884 3475 3122 3366 
z
" transform="scale(0.015625)"/>
       <path id="DejaVuSans-6b" d="M 581 4863 
L 1159 4863 
L 1159 1991 
L 2875 3500 
L 3609 3500 
L 1753 1863 
L 3688 0 
L 2938 0 
L 1159 1709 
L 1159 0 
L 581 0 
L 581 4863 
z
" transform="scale(0.015625)"/>
       <path id="DejaVuSans-73" d="M 2834 3397 
L 2834 2853 
Q 2591 2978 2328 3040 
Q 2066 3103 1784 3103 
Q 1356 3103 1142 2972 
Q 928 2841 928 2578 
Q 928 2378 1081 2264 
Q 1234 2150 1697 2047 
L 1894 2003 
Q 2506 1872 2764 1633 
Q 3022 1394 3022 966 
Q 3022 478 2636 193 
Q 2250 -91 1575 -91 
Q 1294 -91 989 -36 
Q 684 19 347 128 
L 347 722 
Q 666 556 975 473 
Q 1284 391 1588 391 
Q 1994 391 2212 530 
Q 2431 669 2431 922 
Q 2431 1156 2273 1281 
Q 2116 1406 1581 1522 
L 1381 1569 
Q 847 1681 609 1914 
Q 372 2147 372 2553 
Q 372 3047 722 3315 
Q 1072 3584 1716 3584 
Q 2034 3584 2315 3537 
Q 2597 3491 2834 3397 
z
" transform="scale(0.015625)"/>
       <path id="DejaVuSans-6c" d="M 603 4863 
L 1178 4863 
L 1178 0 
L 603 0 
L 603 4863 
z
" transform="scale(0.015625)"/>
       <path id="DejaVuSans-64" d="M 2906 2969 
L 2906 4863 
L 3481 4863 
L 3481 0 
L 2906 0 
L 2906 525 
Q 2725 213 2448 61 
Q 2172 -91 1784 -91 
Q 1150 -91 751 415 
Q 353 922 353 1747 
Q 353 2572 751 3078 
Q 1150 3584 1784 3584 
Q 2172 3584 2448 3432 
Q 2725 3281 2906 2969 
z
M 947 1747 
Q 947 1113 1208 752 
Q 1469 391 1925 391 
Q 2381 391 2643 752 
Q 2906 1113 2906 1747 
Q 2906 2381 2643 2742 
Q 2381 3103 1925 3103 
Q 1469 3103 1208 2742 
Q 947 2381 947 1747 
z
" transform="scale(0.015625)"/>
      </defs>
      <use xlink:href="#DejaVuSans-4e"/>
      <use xlink:href="#DejaVuSans-75" x="74.804688"/>
      <use xlink:href="#DejaVuSans-6d" x="138.183594"/>
      <use xlink:href="#DejaVuSans-62" x="235.595703"/>
      <use xlink:href="#DejaVuSans-65" x="299.072266"/>
      <use xlink:href="#DejaVuSans-72" x="360.595703"/>
      <use xlink:href="#DejaVuSans-20" x="401.708984"/>
      <use xlink:href="#DejaVuSans-6f" x="433.496094"/>
      <use xlink:href="#DejaVuSans-66" x="494.677734"/>
      <use xlink:href="#DejaVuSans-20" x="529.882812"/>
      <use xlink:href="#DejaVuSans-74" x="561.669922"/>
      <use xlink:href="#DejaVuSans-69" x="600.878906"/>
      <use xlink:href="#DejaVuSans-63" x="628.662109"/>
      <use xlink:href="#DejaVuSans-6b" x="683.642578"/>
      <use xlink:href="#DejaVuSans-65" x="737.927734"/>
      <use xlink:href="#DejaVuSans-74" x="799.451172"/>
      <use xlink:href="#DejaVuSans-73" x="838.660156"/>
      <use xlink:href="#DejaVuSans-20" x="890.759766"/>
      <use xlink:href="#DejaVuSans-73" x="922.546875"/>
      <use xlink:href="#DejaVuSans-6f" x="974.646484"/>
      <use xlink:href="#DejaVuSans-6c" x="1035.828125"/>
      <use xlink:href="#DejaVuSans-64" x="1063.611328"/>
     </g>
    </g>
   </g>
   <g id="line2d_39">
    <path d="M 57.6 52.662857 
L 414.72 52.662857 
" clip-path="url(#p38e6a06eda)" style="fill: none; stroke-dasharray: 5.55,2.4; stroke-dashoffset: 0; stroke: #32cd32; stroke-width: 1.5"/>
   </g>
   <g id="patch_3">
    <path d="M 57.6 276.48 
L 57.6 41.472 
" style="fill: none; stroke: #000000; stroke-width: 0.8; stroke-linejoin: miter; stroke-linecap: square"/>
   </g>
   <g id="patch_4">
    <path d="M 414.72 276.48 
L 414.72 41.472 
" style="fill: none; stroke: #000000; stroke-width: 0.8; stroke-linejoin: miter; stroke-linecap: square"/>
   </g>
   <g id="patch_5">
    <path d="M 57.6 276.48 
L 414.72 276.48 
" style="fill: none; stroke: #000000; stroke-width: 0.8; stroke-linejoin: miter; stroke-linecap: square"/>
   </g>
   <g id="patch_6">
    <path d="M 57.6 41.472 
L 414.72 41.472 
" style="fill: none; stroke: #000000; stroke-width: 0.8; stroke-linejoin: miter; stroke-linecap: square"/>
   </g>
   <g id="text_18">
    <!-- MCH Tickets -->
    <g style="fill: #ffffff" transform="translate(199.504687 35.472)scale(0.12 -0.12)">
     <defs>
      <path id="DejaVuSans-43" d="M 4122 4306 
L 4122 3641 
Q 3803 3938 3442 4084 
Q 3081 4231 2675 4231 
Q 1875 4231 1450 3742 
Q 1025 3253 1025 2328 
Q 1025 1406 1450 917 
Q 1875 428 2675 428 
Q 3081 428 3442 575 
Q 3803 722 4122 1019 
L 4122 359 
Q 3791 134 3420 21 
Q 3050 -91 2638 -91 
Q 1578 -91 968 557 
Q 359 1206 359 2328 
Q 359 3453 968 4101 
Q 1578 4750 2638 4750 
Q 3056 4750 3426 4639 
Q 3797 4528 4122 4306 
z
" transform="scale(0.015625)"/>
      <path id="DejaVuSans-48" d="M 628 4666 
L 1259 4666 
L 1259 2753 
L 3553 2753 
L 3553 4666 
L 4184 4666 
L 4184 0 
L 3553 0 
L 3553 2222 
L 1259 2222 
L 1259 0 
L 628 0 
L 628 4666 
z
" transform="scale(0.015625)"/>
      <path id="DejaVuSans-54" d="M -19 4666 
L 3928 4666 
L 3928 4134 
L 2272 4134 
L 2272 0 
L 1638 0 
L 1638 4134 
L -19 4134 
L -19 4666 
z
" transform="scale(0.015625)"/>
     </defs>
     <use xlink:href="#DejaVuSans-4d"/>
     <use xlink:href="#DejaVuSans-43" x="86.279297"/>
     <use xlink:href="#DejaVuSans-48" x="156.103516"/>
     <use xlink:href="#DejaVuSans-20" x="231.298828"/>
     <use xlink:href="#DejaVuSans-54" x="263.085938"/>
     <use xlink:href="#DejaVuSans-69" x="321.044922"/>
     <use xlink:href="#DejaVuSans-63" x="348.828125"/>
     <use xlink:href="#DejaVuSans-6b" x="403.808594"/>
     <use xlink:href="#DejaVuSans-65" x="458.09375"/>
     <use xlink:href="#DejaVuSans-74" x="519.617188"/>
     <use xlink:href="#DejaVuSans-73" x="558.826172"/>
    </g>
   </g>
   <g id="legend_1">
    <g id="patch_7">
     <path d="M 64.6 93.506375 
L 244.389062 93.506375 
Q 246.389062 93.506375 246.389062 91.506375 
L 246.389062 48.472 
Q 246.389062 46.472 244.389062 46.472 
L 64.6 46.472 
Q 62.6 46.472 62.6 48.472 
L 62.6 91.506375 
Q 62.6 93.506375 64.6 93.506375 
z
" style="fill: #ffffff; opacity: 0.8; stroke: #cccccc; stroke-linejoin: miter"/>
    </g>
    <g id="patch_8">
     <path d="M 66.6 58.070437 
L 86.6 58.070437 
L 86.6 51.070437 
L 66.6 51.070437 
z
" style="fill: #fa448c; fill-opacity: 0.8"/>
    </g>
    <g id="text_19">
     <!-- Early-BirdTickets -->
     <g transform="translate(94.6 58.070437)scale(0.1 -0.1)">
      <defs>
       <path id="DejaVuSans-45" d="M 628 4666 
L 3578 4666 
L 3578 4134 
L 1259 4134 
L 1259 2753 
L 3481 2753 
L 3481 2222 
L 1259 2222 
L 1259 531 
L 3634 531 
L 3634 0 
L 628 0 
L 628 4666 
z
" transform="scale(0.015625)"/>
       <path id="DejaVuSans-61" d="M 2194 1759 
Q 1497 1759 1228 1600 
Q 959 1441 959 1056 
Q 959 750 1161 570 
Q 1363 391 1709 391 
Q 2188 391 2477 730 
Q 2766 1069 2766 1631 
L 2766 1759 
L 2194 1759 
z
M 3341 1997 
L 3341 0 
L 2766 0 
L 2766 531 
Q 2569 213 2275 61 
Q 1981 -91 1556 -91 
Q 1019 -91 701 211 
Q 384 513 384 1019 
Q 384 1609 779 1909 
Q 1175 2209 1959 2209 
L 2766 2209 
L 2766 2266 
Q 2766 2663 2505 2880 
Q 2244 3097 1772 3097 
Q 1472 3097 1187 3025 
Q 903 2953 641 2809 
L 641 3341 
Q 956 3463 1253 3523 
Q 1550 3584 1831 3584 
Q 2591 3584 2966 3190 
Q 3341 2797 3341 1997 
z
" transform="scale(0.015625)"/>
       <path id="DejaVuSans-79" d="M 2059 -325 
Q 1816 -950 1584 -1140 
Q 1353 -1331 966 -1331 
L 506 -1331 
L 506 -850 
L 844 -850 
Q 1081 -850 1212 -737 
Q 1344 -625 1503 -206 
L 1606 56 
L 191 3500 
L 800 3500 
L 1894 763 
L 2988 3500 
L 3597 3500 
L 2059 -325 
z
" transform="scale(0.015625)"/>
       <path id="DejaVuSans-2d" d="M 313 2009 
L 1997 2009 
L 1997 1497 
L 313 1497 
L 313 2009 
z
" transform="scale(0.015625)"/>
       <path id="DejaVuSans-42" d="M 1259 2228 
L 1259 519 
L 2272 519 
Q 2781 519 3026 730 
Q 3272 941 3272 1375 
Q 3272 1813 3026 2020 
Q 2781 2228 2272 2228 
L 1259 2228 
z
M 1259 4147 
L 1259 2741 
L 2194 2741 
Q 2656 2741 2882 2914 
Q 3109 3088 3109 3444 
Q 3109 3797 2882 3972 
Q 2656 4147 2194 4147 
L 1259 4147 
z
M 628 4666 
L 2241 4666 
Q 2963 4666 3353 4366 
Q 3744 4066 3744 3513 
Q 3744 3084 3544 2831 
Q 3344 2578 2956 2516 
Q 3422 2416 3680 2098 
Q 3938 1781 3938 1306 
Q 3938 681 3513 340 
Q 3088 0 2303 0 
L 628 0 
L 628 4666 
z
" transform="scale(0.015625)"/>
      </defs>
      <use xlink:href="#DejaVuSans-45"/>
      <use xlink:href="#DejaVuSans-61" x="63.183594"/>
      <use xlink:href="#DejaVuSans-72" x="124.462891"/>
      <use xlink:href="#DejaVuSans-6c" x="165.576172"/>
      <use xlink:href="#DejaVuSans-79" x="193.359375"/>
      <use xlink:href="#DejaVuSans-2d" x="250.789062"/>
      <use xlink:href="#DejaVuSans-42" x="283.248047"/>
      <use xlink:href="#DejaVuSans-69" x="351.851562"/>
      <use xlink:href="#DejaVuSans-72" x="379.634766"/>
      <use xlink:href="#DejaVuSans-64" x="418.998047"/>
      <use xlink:href="#DejaVuSans-54" x="482.474609"/>
      <use xlink:href="#DejaVuSans-69" x="540.433594"/>
      <use xlink:href="#DejaVuSans-63" x="568.216797"/>
      <use xlink:href="#DejaVuSans-6b" x="623.197266"/>
      <use xlink:href="#DejaVuSans-65" x="677.482422"/>
      <use xlink:href="#DejaVuSans-74" x="739.005859"/>
      <use xlink:href="#DejaVuSans-73" x="778.214844"/>
     </g>
    </g>
    <g id="patch_9">
     <path d="M 66.6 72.748562 
L 86.6 72.748562 
L 86.6 65.748562 
L 66.6 65.748562 
z
" style="fill: #43b5a0; fill-opacity: 0.8"/>
    </g>
    <g id="text_20">
     <!-- RegularTickets -->
     <g transform="translate(94.6 72.748562)scale(0.1 -0.1)">
      <defs>
       <path id="DejaVuSans-52" d="M 2841 2188 
Q 3044 2119 3236 1894 
Q 3428 1669 3622 1275 
L 4263 0 
L 3584 0 
L 2988 1197 
Q 2756 1666 2539 1819 
Q 2322 1972 1947 1972 
L 1259 1972 
L 1259 0 
L 628 0 
L 628 4666 
L 2053 4666 
Q 2853 4666 3247 4331 
Q 3641 3997 3641 3322 
Q 3641 2881 3436 2590 
Q 3231 2300 2841 2188 
z
M 1259 4147 
L 1259 2491 
L 2053 2491 
Q 2509 2491 2742 2702 
Q 2975 2913 2975 3322 
Q 2975 3731 2742 3939 
Q 2509 4147 2053 4147 
L 1259 4147 
z
" transform="scale(0.015625)"/>
       <path id="DejaVuSans-67" d="M 2906 1791 
Q 2906 2416 2648 2759 
Q 2391 3103 1925 3103 
Q 1463 3103 1205 2759 
Q 947 2416 947 1791 
Q 947 1169 1205 825 
Q 1463 481 1925 481 
Q 2391 481 2648 825 
Q 2906 1169 2906 1791 
z
M 3481 434 
Q 3481 -459 3084 -895 
Q 2688 -1331 1869 -1331 
Q 1566 -1331 1297 -1286 
Q 1028 -1241 775 -1147 
L 775 -588 
Q 1028 -725 1275 -790 
Q 1522 -856 1778 -856 
Q 2344 -856 2625 -561 
Q 2906 -266 2906 331 
L 2906 616 
Q 2728 306 2450 153 
Q 2172 0 1784 0 
Q 1141 0 747 490 
Q 353 981 353 1791 
Q 353 2603 747 3093 
Q 1141 3584 1784 3584 
Q 2172 3584 2450 3431 
Q 2728 3278 2906 2969 
L 2906 3500 
L 3481 3500 
L 3481 434 
z
" transform="scale(0.015625)"/>
      </defs>
      <use xlink:href="#DejaVuSans-52"/>
      <use xlink:href="#DejaVuSans-65" x="64.982422"/>
      <use xlink:href="#DejaVuSans-67" x="126.505859"/>
      <use xlink:href="#DejaVuSans-75" x="189.982422"/>
      <use xlink:href="#DejaVuSans-6c" x="253.361328"/>
      <use xlink:href="#DejaVuSans-61" x="281.144531"/>
      <use xlink:href="#DejaVuSans-72" x="342.423828"/>
      <use xlink:href="#DejaVuSans-54" x="383.537109"/>
      <use xlink:href="#DejaVuSans-69" x="441.496094"/>
      <use xlink:href="#DejaVuSans-63" x="469.279297"/>
      <use xlink:href="#DejaVuSans-6b" x="524.259766"/>
      <use xlink:href="#DejaVuSans-65" x="578.544922"/>
      <use xlink:href="#DejaVuSans-74" x="640.068359"/>
      <use xlink:href="#DejaVuSans-73" x="679.277344"/>
     </g>
    </g>
    <g id="line2d_40">
     <path d="M 66.6 83.926687 
L 76.6 83.926687 
L 86.6 83.926687 
" style="fill: none; stroke-dasharray: 5.55,2.4; stroke-dashoffset: 0; stroke: #32cd32; stroke-width: 1.5"/>
    </g>
    <g id="text_21">
     <!-- Required tickets w/ donations -->
     <g transform="translate(94.6 87.426687)scale(0.1 -0.1)">
      <defs>
       <path id="DejaVuSans-71" d="M 947 1747 
Q 947 1113 1208 752 
Q 1469 391 1925 391 
Q 2381 391 2643 752 
Q 2906 1113 2906 1747 
Q 2906 2381 2643 2742 
Q 2381 3103 1925 3103 
Q 1469 3103 1208 2742 
Q 947 2381 947 1747 
z
M 2906 525 
Q 2725 213 2448 61 
Q 2172 -91 1784 -91 
Q 1150 -91 751 415 
Q 353 922 353 1747 
Q 353 2572 751 3078 
Q 1150 3584 1784 3584 
Q 2172 3584 2448 3432 
Q 2725 3281 2906 2969 
L 2906 3500 
L 3481 3500 
L 3481 -1331 
L 2906 -1331 
L 2906 525 
z
" transform="scale(0.015625)"/>
       <path id="DejaVuSans-77" d="M 269 3500 
L 844 3500 
L 1563 769 
L 2278 3500 
L 2956 3500 
L 3675 769 
L 4391 3500 
L 4966 3500 
L 4050 0 
L 3372 0 
L 2619 2869 
L 1863 0 
L 1184 0 
L 269 3500 
z
" transform="scale(0.015625)"/>
      </defs>
      <use xlink:href="#DejaVuSans-52"/>
      <use xlink:href="#DejaVuSans-65" x="64.982422"/>
      <use xlink:href="#DejaVuSans-71" x="126.505859"/>
      <use xlink:href="#DejaVuSans-75" x="189.982422"/>
      <use xlink:href="#DejaVuSans-69" x="253.361328"/>
      <use xlink:href="#DejaVuSans-72" x="281.144531"/>
      <use xlink:href="#DejaVuSans-65" x="320.007812"/>
      <use xlink:href="#DejaVuSans-64" x="381.53125"/>
      <use xlink:href="#DejaVuSans-20" x="445.007812"/>
      <use xlink:href="#DejaVuSans-74" x="476.794922"/>
      <use xlink:href="#DejaVuSans-69" x="516.003906"/>
      <use xlink:href="#DejaVuSans-63" x="543.787109"/>
      <use xlink:href="#DejaVuSans-6b" x="598.767578"/>
      <use xlink:href="#DejaVuSans-65" x="653.052734"/>
      <use xlink:href="#DejaVuSans-74" x="714.576172"/>
      <use xlink:href="#DejaVuSans-73" x="753.785156"/>
      <use xlink:href="#DejaVuSans-20" x="805.884766"/>
      <use xlink:href="#DejaVuSans-77" x="837.671875"/>
      <use xlink:href="#DejaVuSans-2f" x="919.458984"/>
      <use xlink:href="#DejaVuSans-20" x="953.150391"/>
      <use xlink:href="#DejaVuSans-64" x="984.9375"/>
      <use xlink:href="#DejaVuSans-6f" x="1048.414062"/>
      <use xlink:href="#DejaVuSans-6e" x="1109.595703"/>
      <use xlink:href="#DejaVuSans-61" x="1172.974609"/>
      <use xlink:href="#DejaVuSans-74" x="1234.253906"/>
      <use xlink:href="#DejaVuSans-69" x="1273.462891"/>
      <use xlink:href="#DejaVuSans-6f" x="1301.246094"/>
      <use xlink:href="#DejaVuSans-6e" x="1362.427734"/>
      <use xlink:href="#DejaVuSans-73" x="1425.806641"/>
     </g>
    </g>
   </g>
  </g>
 </g>
 <defs>
  <clipPath id="p38e6a06eda">
   <rect x="57.6" y="41.472" width="357.12" height="235.008"/>
  </clipPath>
 </defs>
</svg>
