<?xml version="1.0" encoding="utf-8" standalone="no"?>
<!DOCTYPE svg PUBLIC "-//W3C//DTD SVG 1.1//EN"
  "http://www.w3.org/Graphics/SVG/1.1/DTD/svg11.dtd">
<svg xmlns:xlink="http://www.w3.org/1999/xlink" width="460.8pt" height="345.6pt" viewBox="0 0 460.8 345.6" xmlns="http://www.w3.org/2000/svg" version="1.1">
 <metadata>
  <rdf:RDF xmlns:dc="http://purl.org/dc/elements/1.1/" xmlns:cc="http://creativecommons.org/ns#" xmlns:rdf="http://www.w3.org/1999/02/22-rdf-syntax-ns#">
   <cc:Work>
    <dc:type rdf:resource="http://purl.org/dc/dcmitype/StillImage"/>
    <dc:date>2022-01-17T22:41:44.401791</dc:date>
    <dc:format>image/svg+xml</dc:format>
    <dc:creator>
     <cc:Agent>
      <dc:title>Matplotlib v3.5.1, https://matplotlib.org/</dc:title>
     </cc:Agent>
    </dc:creator>
   </cc:Work>
  </rdf:RDF>
 </metadata>
 <defs>
  <style type="text/css">*{stroke-linejoin: round; stroke-linecap: butt}</style>
 </defs>
 <g id="figure_1">
  <g id="patch_1">
   <path d="M 0 345.6 
L 460.8 345.6 
L 460.8 0 
L 0 0 
z
" style="fill: #491d88"/>
  </g>
  <g id="axes_1">
   <g id="patch_2">
    <path d="M 57.6 276.48 
L 414.72 276.48 
L 414.72 41.472 
L 57.6 41.472 
z
" style="fill: #fec859"/>
   </g>
   <g id="PolyCollection_1">
    <path d="M 73.832727 276.48 
L 73.832727 276.48 
L 73.832727 276.48 
L 73.832727 276.48 
L 74.327103 276.48 
L 74.327103 276.48 
L 74.821479 276.48 
L 74.821479 276.48 
L 75.315855 276.48 
L 75.315855 276.48 
L 75.810231 276.48 
L 75.810231 276.48 
L 76.304607 276.48 
L 76.304607 276.48 
L 76.798983 276.48 
L 76.798983 276.48 
L 77.293359 276.48 
L 77.293359 276.48 
L 77.787735 276.48 
L 77.787735 276.48 
L 78.282111 276.48 
L 78.282111 276.48 
L 78.776487 276.48 
L 78.776487 276.48 
L 79.270863 276.48 
L 79.270863 276.48 
L 79.765239 276.48 
L 79.765239 276.48 
L 80.259615 276.48 
L 80.259615 276.48 
L 80.753991 276.48 
L 80.753991 276.48 
L 81.248367 276.48 
L 81.248367 276.48 
L 81.742743 276.48 
L 81.742743 276.48 
L 82.731495 276.48 
L 82.731495 276.48 
L 83.225871 276.48 
L 83.225871 276.48 
L 83.720247 276.48 
L 83.720247 276.48 
L 84.214623 276.48 
L 84.214623 276.48 
L 84.708999 276.48 
L 84.708999 276.48 
L 85.203375 276.48 
L 85.203375 276.48 
L 85.697751 276.48 
L 85.697751 276.48 
L 86.192127 276.48 
L 86.192127 276.48 
L 86.686503 276.48 
L 86.686503 276.48 
L 87.180879 276.48 
L 87.180879 276.48 
L 88.169631 276.48 
L 88.169631 276.48 
L 89.158383 276.48 
L 89.158383 276.48 
L 89.652759 276.48 
L 89.652759 276.48 
L 90.147135 276.48 
L 90.147135 276.48 
L 93.607767 276.48 
L 93.607767 276.48 
L 94.102143 276.48 
L 94.102143 276.48 
L 94.596519 276.48 
L 94.596519 276.48 
L 95.090895 276.48 
L 95.090895 276.48 
L 95.585271 276.48 
L 95.585271 276.48 
L 96.079647 276.48 
L 96.079647 276.48 
L 96.574023 276.48 
L 96.574023 276.48 
L 97.068399 276.48 
L 97.068399 276.48 
L 97.562775 276.48 
L 97.562775 276.48 
L 98.057151 276.48 
L 98.057151 276.48 
L 98.551527 276.48 
L 98.551527 276.48 
L 99.045903 276.48 
L 99.045903 276.48 
L 99.540279 276.48 
L 99.540279 276.48 
L 100.034654 276.48 
L 100.034654 276.48 
L 100.52903 276.48 
L 100.52903 276.48 
L 101.023406 276.48 
L 101.023406 276.48 
L 101.517782 276.48 
L 101.517782 276.48 
L 102.012158 276.48 
L 102.012158 276.48 
L 104.978414 276.48 
L 104.978414 276.48 
L 106.461542 276.48 
L 106.461542 276.48 
L 106.955918 276.48 
L 106.955918 276.48 
L 107.450294 276.48 
L 107.450294 276.48 
L 108.439046 276.48 
L 108.439046 276.48 
L 108.933422 276.48 
L 108.933422 276.48 
L 109.427798 276.48 
L 109.427798 276.48 
L 109.922174 276.48 
L 109.922174 276.48 
L 110.41655 276.48 
L 110.41655 276.48 
L 110.910926 276.48 
L 110.910926 276.48 
L 111.405302 276.48 
L 111.405302 276.48 
L 111.899678 276.48 
L 111.899678 276.48 
L 112.394054 276.48 
L 112.394054 276.48 
L 112.88843 276.48 
L 112.88843 276.48 
L 113.382806 276.48 
L 113.382806 276.48 
L 113.877182 276.48 
L 113.877182 276.48 
L 118.326566 276.48 
L 118.326566 276.48 
L 119.315318 276.48 
L 119.315318 276.48 
L 119.809694 276.48 
L 119.809694 276.48 
L 120.30407 276.48 
L 120.30407 276.48 
L 120.798446 276.48 
L 120.798446 276.48 
L 122.77595 276.48 
L 122.77595 276.48 
L 131.180342 276.48 
L 131.180342 276.48 
L 132.169094 276.48 
L 132.169094 276.48 
L 132.66347 276.48 
L 132.66347 276.48 
L 133.652222 276.48 
L 133.652222 276.48 
L 134.146597 276.48 
L 134.146597 276.48 
L 135.629725 276.48 
L 135.629725 276.48 
L 137.607229 276.48 
L 137.607229 276.48 
L 138.101605 276.48 
L 138.101605 276.48 
L 142.056613 276.48 
L 142.056613 276.48 
L 142.550989 276.48 
L 142.550989 276.48 
L 143.045365 276.48 
L 143.045365 276.48 
L 143.539741 276.48 
L 143.539741 276.48 
L 144.034117 276.48 
L 144.034117 276.48 
L 144.528493 276.48 
L 144.528493 276.48 
L 145.022869 276.48 
L 145.022869 276.48 
L 145.517245 276.48 
L 145.517245 276.48 
L 146.011621 276.48 
L 146.011621 276.48 
L 147.000373 276.48 
L 147.000373 276.48 
L 147.494749 276.48 
L 147.494749 276.48 
L 147.989125 276.48 
L 147.989125 276.48 
L 148.483501 276.48 
L 148.483501 276.48 
L 148.977877 276.48 
L 148.977877 276.48 
L 149.472253 276.48 
L 149.472253 276.48 
L 150.461005 276.48 
L 150.461005 276.48 
L 152.438509 276.48 
L 152.438509 276.48 
L 154.416013 276.48 
L 154.416013 276.48 
L 155.404765 276.48 
L 155.404765 276.48 
L 156.393517 276.48 
L 156.393517 276.48 
L 157.382269 276.48 
L 157.382269 276.48 
L 157.876645 276.48 
L 157.876645 276.48 
L 158.865397 276.48 
L 158.865397 276.48 
L 159.359773 276.48 
L 159.359773 276.48 
L 159.854149 276.48 
L 159.854149 276.48 
L 160.348525 276.48 
L 160.348525 276.48 
L 160.842901 276.48 
L 160.842901 276.48 
L 161.337277 276.48 
L 161.337277 276.48 
L 165.292285 276.48 
L 165.292285 276.48 
L 165.786661 276.48 
L 165.786661 276.48 
L 166.281037 276.48 
L 166.281037 276.48 
L 166.775413 276.48 
L 166.775413 276.48 
L 167.269789 276.48 
L 167.269789 276.48 
L 167.764164 276.48 
L 167.764164 276.48 
L 168.25854 276.48 
L 168.25854 276.48 
L 168.752916 276.48 
L 168.752916 276.48 
L 169.741668 276.48 
L 169.741668 276.48 
L 170.73042 276.48 
L 170.73042 276.48 
L 171.719172 276.48 
L 171.719172 276.48 
L 172.213548 276.48 
L 172.213548 276.48 
L 172.707924 276.48 
L 172.707924 276.48 
L 173.2023 276.48 
L 173.2023 276.48 
L 174.191052 276.48 
L 174.191052 276.48 
L 174.685428 276.48 
L 174.685428 276.48 
L 175.179804 276.48 
L 175.179804 276.48 
L 177.157308 276.48 
L 177.157308 276.48 
L 178.640436 276.48 
L 178.640436 276.48 
L 179.134812 276.48 
L 179.134812 276.48 
L 181.112316 276.48 
L 181.112316 276.48 
L 182.101068 276.48 
L 182.101068 276.48 
L 182.595444 276.48 
L 182.595444 276.48 
L 183.08982 276.48 
L 183.08982 276.48 
L 183.584196 276.48 
L 183.584196 276.48 
L 184.078572 276.48 
L 184.078572 276.48 
L 184.572948 276.48 
L 184.572948 276.48 
L 185.5617 276.48 
L 185.5617 276.48 
L 188.527956 276.48 
L 188.527956 276.48 
L 189.022332 276.48 
L 189.022332 276.48 
L 189.516708 276.48 
L 189.516708 276.48 
L 190.50546 276.48 
L 190.50546 276.48 
L 190.999836 276.48 
L 190.999836 276.48 
L 191.988588 276.48 
L 191.988588 276.48 
L 192.482964 276.48 
L 192.482964 276.48 
L 193.966092 276.48 
L 193.966092 276.48 
L 194.460468 276.48 
L 194.460468 276.48 
L 195.44922 276.48 
L 195.44922 276.48 
L 195.943596 276.48 
L 195.943596 276.48 
L 196.437972 276.48 
L 196.437972 276.48 
L 196.932348 276.48 
L 196.932348 276.48 
L 197.426724 276.48 
L 197.426724 276.48 
L 202.370483 276.48 
L 202.370483 276.48 
L 203.359235 276.48 
L 203.359235 276.48 
L 203.853611 276.48 
L 203.853611 276.48 
L 205.336739 276.48 
L 205.336739 276.48 
L 205.831115 276.48 
L 205.831115 276.48 
L 206.325491 276.48 
L 206.325491 276.48 
L 207.808619 276.48 
L 207.808619 276.48 
L 208.302995 276.48 
L 208.302995 276.48 
L 213.246755 276.48 
L 213.246755 276.48 
L 214.235507 276.48 
L 214.235507 276.48 
L 215.224259 276.48 
L 215.224259 276.48 
L 215.718635 276.48 
L 215.718635 276.48 
L 216.213011 276.48 
L 216.213011 276.48 
L 216.707387 276.48 
L 216.707387 276.48 
L 217.201763 276.48 
L 217.201763 276.48 
L 218.190515 276.48 
L 218.190515 276.48 
L 219.179267 276.48 
L 219.179267 276.48 
L 220.168019 276.48 
L 220.168019 276.48 
L 220.662395 276.48 
L 220.662395 276.48 
L 221.156771 276.48 
L 221.156771 276.48 
L 225.111779 276.48 
L 225.111779 276.48 
L 226.594907 276.48 
L 226.594907 276.48 
L 227.089283 276.48 
L 227.089283 276.48 
L 228.572411 276.48 
L 228.572411 276.48 
L 229.561163 276.48 
L 229.561163 276.48 
L 230.055539 276.48 
L 230.055539 276.48 
L 230.549915 276.48 
L 230.549915 276.48 
L 231.044291 276.48 
L 231.044291 276.48 
L 232.033043 276.48 
L 232.033043 276.48 
L 236.482426 276.48 
L 236.482426 276.48 
L 238.954306 276.48 
L 238.954306 276.48 
L 239.448682 276.48 
L 239.448682 276.48 
L 240.93181 276.48 
L 240.93181 276.48 
L 241.920562 276.48 
L 241.920562 276.48 
L 242.414938 276.48 
L 242.414938 276.48 
L 242.909314 276.48 
L 242.909314 276.48 
L 243.40369 276.48 
L 243.40369 276.48 
L 243.898066 276.48 
L 243.898066 276.48 
L 244.392442 276.48 
L 244.392442 276.48 
L 248.34745 276.48 
L 248.34745 276.48 
L 249.336202 276.48 
L 249.336202 276.48 
L 249.830578 276.48 
L 249.830578 276.48 
L 250.324954 276.48 
L 250.324954 276.48 
L 250.81933 276.48 
L 250.81933 276.48 
L 251.313706 276.48 
L 251.313706 276.48 
L 251.808082 276.48 
L 251.808082 276.48 
L 252.302458 276.48 
L 252.302458 276.48 
L 252.796834 276.48 
L 252.796834 276.48 
L 253.785586 276.48 
L 253.785586 276.48 
L 260.212474 276.48 
L 260.212474 276.48 
L 262.189978 276.48 
L 262.189978 276.48 
L 263.17873 276.48 
L 263.17873 276.48 
L 263.673106 276.48 
L 263.673106 276.48 
L 265.156234 276.48 
L 265.156234 276.48 
L 265.65061 276.48 
L 265.65061 276.48 
L 266.144986 276.48 
L 266.144986 276.48 
L 267.628114 276.48 
L 267.628114 276.48 
L 269.111242 276.48 
L 269.111242 276.48 
L 272.571873 276.48 
L 272.571873 276.48 
L 273.066249 276.48 
L 273.066249 276.48 
L 273.560625 276.48 
L 273.560625 276.48 
L 274.055001 276.48 
L 274.055001 276.48 
L 274.549377 276.48 
L 274.549377 276.48 
L 276.032505 276.48 
L 276.032505 276.48 
L 277.515633 276.48 
L 277.515633 276.48 
L 278.998761 276.48 
L 278.998761 276.48 
L 286.908777 276.48 
L 286.908777 276.48 
L 288.886281 276.48 
L 288.886281 276.48 
L 289.380657 276.48 
L 289.380657 276.48 
L 298.279425 276.48 
L 298.279425 276.48 
L 298.773801 276.48 
L 298.773801 276.48 
L 299.268177 276.48 
L 299.268177 276.48 
L 300.256929 276.48 
L 300.256929 276.48 
L 300.751305 276.48 
L 300.751305 276.48 
L 301.245681 276.48 
L 301.245681 276.48 
L 302.234433 276.48 
L 302.234433 276.48 
L 306.683816 276.48 
L 306.683816 276.48 
L 307.672568 276.48 
L 307.672568 276.48 
L 309.155696 276.48 
L 309.155696 276.48 
L 310.144448 276.48 
L 310.144448 276.48 
L 312.121952 276.48 
L 312.121952 276.48 
L 315.088208 276.48 
L 315.088208 276.48 
L 321.515096 276.48 
L 321.515096 276.48 
L 322.009472 276.48 
L 322.009472 276.48 
L 323.4926 276.48 
L 323.4926 276.48 
L 324.481352 276.48 
L 324.481352 276.48 
L 324.975728 276.48 
L 324.975728 276.48 
L 325.96448 276.48 
L 325.96448 276.48 
L 330.413864 276.48 
L 330.413864 276.48 
L 331.896992 276.48 
L 331.896992 276.48 
L 332.885744 276.48 
L 332.885744 276.48 
L 333.38012 276.48 
L 333.38012 276.48 
L 333.874496 276.48 
L 333.874496 276.48 
L 335.852 276.48 
L 335.852 276.48 
L 337.335127 276.48 
L 337.335127 276.48 
L 337.829503 276.48 
L 337.829503 276.48 
L 338.323879 276.48 
L 338.323879 276.48 
L 338.818255 276.48 
L 338.818255 276.48 
L 343.762015 276.48 
L 343.762015 276.48 
L 344.750767 276.48 
L 344.750767 276.48 
L 347.222647 276.48 
L 347.222647 276.48 
L 349.694527 276.48 
L 349.694527 276.48 
L 350.188903 276.48 
L 350.188903 276.48 
L 350.683279 276.48 
L 350.683279 276.48 
L 351.672031 276.48 
L 351.672031 276.48 
L 354.143911 276.48 
L 354.143911 276.48 
L 355.132663 276.48 
L 355.132663 276.48 
L 357.110167 276.48 
L 357.110167 276.48 
L 361.065175 276.48 
L 361.065175 276.48 
L 363.042679 276.48 
L 363.042679 276.48 
L 365.953234 276.48 
L 365.953234 276.48 
L 366.155905 276.48 
L 366.155905 276.48 
L 366.332776 276.48 
L 366.332776 276.48 
L 366.68345 276.48 
L 366.68345 276.48 
L 366.905837 276.48 
L 366.905837 276.48 
L 367.13923 276.48 
L 367.13923 276.48 
L 367.314018 276.48 
L 367.314018 276.48 
L 367.674507 276.48 
L 367.674507 276.48 
L 367.871032 276.48 
L 367.871032 276.48 
L 368.135588 276.48 
L 368.135588 276.48 
L 368.329975 276.48 
L 368.329975 276.48 
L 368.639448 276.48 
L 368.639448 276.48 
L 368.834058 276.48 
L 368.834058 276.48 
L 369.096108 276.48 
L 369.096108 276.48 
L 369.279513 276.48 
L 369.279513 276.48 
L 369.708854 276.48 
L 369.708854 276.48 
L 369.987558 276.48 
L 369.987558 276.48 
L 370.308574 276.48 
L 370.308574 276.48 
L 370.333004 276.48 
L 370.333004 276.48 
L 370.347395 276.48 
L 370.347395 276.48 
L 370.591513 276.48 
L 370.591513 276.48 
L 370.778065 276.48 
L 370.778065 276.48 
L 371.105867 276.48 
L 371.105867 276.48 
L 371.317781 276.48 
L 371.317781 276.48 
L 371.674501 276.48 
L 371.674501 276.48 
L 372.379491 276.48 
L 372.379491 276.48 
L 372.399899 276.48 
L 372.399899 276.48 
L 372.425117 276.48 
L 372.425117 276.48 
L 372.610376 276.48 
L 372.610376 276.48 
L 372.820016 276.48 
L 372.820016 276.48 
L 373.047693 276.48 
L 373.047693 276.48 
L 373.23531 276.48 
L 373.23531 276.48 
L 373.579663 276.48 
L 373.579663 276.48 
L 374.043726 276.48 
L 374.043726 276.48 
L 379.535626 276.48 
L 379.535626 276.48 
L 380.960367 276.48 
L 380.960367 276.48 
L 382.174605 276.48 
L 382.174605 276.48 
L 382.456367 276.48 
L 382.456367 276.48 
L 383.838507 276.48 
L 383.838507 276.48 
L 384.18897 276.48 
L 384.18897 276.48 
L 384.472138 276.48 
L 384.472138 276.48 
L 384.914172 276.48 
L 384.914172 276.48 
L 392.380189 276.48 
L 392.380189 276.48 
L 395.416799 276.48 
L 395.416799 276.48 
L 397.503041 276.48 
L 397.503041 276.48 
L 397.779595 276.48 
L 397.779595 276.48 
L 398.487273 276.48 
L 398.487273 276.48 
L 398.487273 200.083749 
L 398.487273 200.083749 
L 398.487273 200.083749 
L 397.779595 200.083749 
L 397.779595 200.083749 
L 397.503041 200.083749 
L 397.503041 200.083749 
L 395.416799 200.083749 
L 395.416799 200.083749 
L 392.380189 200.083749 
L 392.380189 200.083749 
L 384.914172 200.083749 
L 384.914172 200.083749 
L 384.472138 200.083749 
L 384.472138 200.083749 
L 384.18897 200.083749 
L 384.18897 200.083749 
L 383.838507 200.083749 
L 383.838507 200.083749 
L 382.456367 200.083749 
L 382.456367 200.083749 
L 382.174605 200.083749 
L 382.174605 200.083749 
L 380.960367 200.083749 
L 380.960367 200.083749 
L 379.535626 200.083749 
L 379.535626 200.083749 
L 374.043726 200.083749 
L 374.043726 200.083749 
L 373.579663 200.083749 
L 373.579663 200.083749 
L 373.23531 200.083749 
L 373.23531 200.083749 
L 373.047693 200.083749 
L 373.047693 200.083749 
L 372.820016 200.083749 
L 372.820016 200.083749 
L 372.610376 200.083749 
L 372.610376 200.083749 
L 372.425117 200.083749 
L 372.425117 200.083749 
L 372.399899 200.083749 
L 372.399899 200.083749 
L 372.379491 200.083749 
L 372.379491 200.083749 
L 371.674501 200.083749 
L 371.674501 200.083749 
L 371.317781 200.083749 
L 371.317781 200.083749 
L 371.105867 200.083749 
L 371.105867 200.083749 
L 370.778065 200.083749 
L 370.778065 200.083749 
L 370.591513 200.083749 
L 370.591513 200.083749 
L 370.347395 200.083749 
L 370.347395 200.083749 
L 370.333004 200.083749 
L 370.333004 200.083749 
L 370.308574 200.083749 
L 370.308574 200.083749 
L 369.987558 200.083749 
L 369.987558 200.083749 
L 369.708854 200.083749 
L 369.708854 200.083749 
L 369.279513 200.083749 
L 369.279513 200.083749 
L 369.096108 200.083749 
L 369.096108 200.083749 
L 368.834058 200.083749 
L 368.834058 200.083749 
L 368.639448 200.083749 
L 368.639448 200.083749 
L 368.329975 200.083749 
L 368.329975 200.083749 
L 368.135588 200.083749 
L 368.135588 200.083749 
L 367.871032 200.083749 
L 367.871032 200.083749 
L 367.674507 200.083749 
L 367.674507 200.083749 
L 367.314018 200.083749 
L 367.314018 200.083749 
L 367.13923 200.083749 
L 367.13923 200.083749 
L 366.905837 200.083749 
L 366.905837 200.083749 
L 366.68345 200.083749 
L 366.68345 200.083749 
L 366.332776 200.083749 
L 366.332776 200.083749 
L 366.155905 200.083749 
L 366.155905 200.083749 
L 365.953234 200.083749 
L 365.953234 202.023497 
L 363.042679 202.023497 
L 363.042679 202.023497 
L 361.065175 202.023497 
L 361.065175 202.023497 
L 357.110167 202.023497 
L 357.110167 202.023497 
L 355.132663 202.023497 
L 355.132663 202.023497 
L 354.143911 202.023497 
L 354.143911 202.023497 
L 351.672031 202.023497 
L 351.672031 202.023497 
L 350.683279 202.023497 
L 350.683279 202.023497 
L 350.188903 202.023497 
L 350.188903 202.023497 
L 349.694527 202.023497 
L 349.694527 202.023497 
L 347.222647 202.023497 
L 347.222647 202.023497 
L 344.750767 202.023497 
L 344.750767 202.023497 
L 343.762015 202.023497 
L 343.762015 202.023497 
L 338.818255 202.023497 
L 338.818255 202.023497 
L 338.323879 202.023497 
L 338.323879 202.023497 
L 337.829503 202.023497 
L 337.829503 202.023497 
L 337.335127 202.023497 
L 337.335127 202.023497 
L 335.852 202.023497 
L 335.852 202.023497 
L 333.874496 202.023497 
L 333.874496 202.023497 
L 333.38012 202.023497 
L 333.38012 202.023497 
L 332.885744 202.023497 
L 332.885744 202.023497 
L 331.896992 202.023497 
L 331.896992 202.023497 
L 330.413864 202.023497 
L 330.413864 202.023497 
L 325.96448 202.023497 
L 325.96448 202.023497 
L 324.975728 202.023497 
L 324.975728 202.023497 
L 324.481352 202.023497 
L 324.481352 202.023497 
L 323.4926 202.023497 
L 323.4926 202.023497 
L 322.009472 202.023497 
L 322.009472 202.023497 
L 321.515096 202.023497 
L 321.515096 202.023497 
L 315.088208 202.023497 
L 315.088208 202.023497 
L 312.121952 202.023497 
L 312.121952 202.023497 
L 310.144448 202.023497 
L 310.144448 202.023497 
L 309.155696 202.023497 
L 309.155696 202.023497 
L 307.672568 202.023497 
L 307.672568 202.023497 
L 306.683816 202.023497 
L 306.683816 202.023497 
L 302.234433 202.023497 
L 302.234433 202.023497 
L 301.245681 202.023497 
L 301.245681 202.023497 
L 300.751305 202.023497 
L 300.751305 202.023497 
L 300.256929 202.023497 
L 300.256929 202.023497 
L 299.268177 202.023497 
L 299.268177 202.023497 
L 298.773801 202.023497 
L 298.773801 202.023497 
L 298.279425 202.023497 
L 298.279425 202.023497 
L 289.380657 202.023497 
L 289.380657 202.023497 
L 288.886281 202.023497 
L 288.886281 202.023497 
L 286.908777 202.023497 
L 286.908777 202.023497 
L 278.998761 202.023497 
L 278.998761 202.023497 
L 277.515633 202.023497 
L 277.515633 202.023497 
L 276.032505 202.023497 
L 276.032505 202.023497 
L 274.549377 202.023497 
L 274.549377 202.023497 
L 274.055001 202.023497 
L 274.055001 202.023497 
L 273.560625 202.023497 
L 273.560625 202.023497 
L 273.066249 202.023497 
L 273.066249 202.023497 
L 272.571873 202.023497 
L 272.571873 202.023497 
L 269.111242 202.023497 
L 269.111242 202.023497 
L 267.628114 202.023497 
L 267.628114 202.023497 
L 266.144986 202.023497 
L 266.144986 202.023497 
L 265.65061 202.023497 
L 265.65061 202.023497 
L 265.156234 202.023497 
L 265.156234 202.023497 
L 263.673106 202.023497 
L 263.673106 202.023497 
L 263.17873 202.023497 
L 263.17873 202.023497 
L 262.189978 202.023497 
L 262.189978 202.023497 
L 260.212474 202.023497 
L 260.212474 202.023497 
L 253.785586 202.023497 
L 253.785586 202.023497 
L 252.796834 202.023497 
L 252.796834 202.023497 
L 252.302458 202.023497 
L 252.302458 202.023497 
L 251.808082 202.023497 
L 251.808082 202.023497 
L 251.313706 202.023497 
L 251.313706 202.023497 
L 250.81933 202.023497 
L 250.81933 202.023497 
L 250.324954 202.023497 
L 250.324954 202.023497 
L 249.830578 202.023497 
L 249.830578 202.023497 
L 249.336202 202.023497 
L 249.336202 202.023497 
L 248.34745 202.023497 
L 248.34745 202.023497 
L 244.392442 202.023497 
L 244.392442 202.023497 
L 243.898066 202.023497 
L 243.898066 202.023497 
L 243.40369 202.023497 
L 243.40369 202.023497 
L 242.909314 202.023497 
L 242.909314 202.023497 
L 242.414938 202.023497 
L 242.414938 202.023497 
L 241.920562 202.023497 
L 241.920562 202.023497 
L 240.93181 202.023497 
L 240.93181 202.023497 
L 239.448682 202.023497 
L 239.448682 202.023497 
L 238.954306 202.023497 
L 238.954306 202.023497 
L 236.482426 202.023497 
L 236.482426 202.023497 
L 232.033043 202.023497 
L 232.033043 202.023497 
L 231.044291 202.023497 
L 231.044291 202.023497 
L 230.549915 202.023497 
L 230.549915 202.023497 
L 230.055539 202.023497 
L 230.055539 202.023497 
L 229.561163 202.023497 
L 229.561163 202.023497 
L 228.572411 202.023497 
L 228.572411 202.023497 
L 227.089283 202.023497 
L 227.089283 202.023497 
L 226.594907 202.023497 
L 226.594907 202.023497 
L 225.111779 202.023497 
L 225.111779 202.023497 
L 221.156771 202.023497 
L 221.156771 202.023497 
L 220.662395 202.023497 
L 220.662395 202.023497 
L 220.168019 202.023497 
L 220.168019 202.023497 
L 219.179267 202.023497 
L 219.179267 202.023497 
L 218.190515 202.023497 
L 218.190515 202.023497 
L 217.201763 202.023497 
L 217.201763 202.023497 
L 216.707387 202.023497 
L 216.707387 202.023497 
L 216.213011 202.023497 
L 216.213011 202.023497 
L 215.718635 202.023497 
L 215.718635 202.023497 
L 215.224259 202.023497 
L 215.224259 202.023497 
L 214.235507 202.023497 
L 214.235507 202.023497 
L 213.246755 202.023497 
L 213.246755 202.023497 
L 208.302995 202.023497 
L 208.302995 202.023497 
L 207.808619 202.023497 
L 207.808619 202.023497 
L 206.325491 202.023497 
L 206.325491 202.172709 
L 205.831115 202.172709 
L 205.831115 202.471131 
L 205.336739 202.471131 
L 205.336739 202.620343 
L 203.853611 202.620343 
L 203.853611 203.067977 
L 203.359235 203.067977 
L 203.359235 203.217189 
L 202.370483 203.217189 
L 202.370483 203.3664 
L 197.426724 203.3664 
L 197.426724 203.664823 
L 196.932348 203.664823 
L 196.932348 203.664823 
L 196.437972 203.664823 
L 196.437972 203.963246 
L 195.943596 203.963246 
L 195.943596 204.41088 
L 195.44922 204.41088 
L 195.44922 204.41088 
L 194.460468 204.41088 
L 194.460468 204.709303 
L 193.966092 204.709303 
L 193.966092 204.858514 
L 192.482964 204.858514 
L 192.482964 205.156937 
L 191.988588 205.156937 
L 191.988588 206.649051 
L 190.999836 206.649051 
L 190.999836 206.947474 
L 190.50546 206.947474 
L 190.50546 207.096686 
L 189.516708 207.096686 
L 189.516708 207.693531 
L 189.022332 207.693531 
L 189.022332 207.693531 
L 188.527956 207.693531 
L 188.527956 207.842743 
L 185.5617 207.842743 
L 185.5617 208.141166 
L 184.572948 208.141166 
L 184.572948 208.5888 
L 184.078572 208.5888 
L 184.078572 208.887223 
L 183.584196 208.887223 
L 183.584196 209.782491 
L 183.08982 209.782491 
L 183.08982 210.230126 
L 182.595444 210.230126 
L 182.595444 211.125394 
L 182.101068 211.125394 
L 182.101068 211.573029 
L 181.112316 211.573029 
L 181.112316 211.72224 
L 179.134812 211.72224 
L 179.134812 211.871451 
L 178.640436 211.871451 
L 178.640436 212.169874 
L 177.157308 212.169874 
L 177.157308 212.169874 
L 175.179804 212.169874 
L 175.179804 212.468297 
L 174.685428 212.468297 
L 174.685428 212.617509 
L 174.191052 212.617509 
L 174.191052 212.76672 
L 173.2023 212.76672 
L 173.2023 213.214354 
L 172.707924 213.214354 
L 172.707924 213.214354 
L 172.213548 213.214354 
L 172.213548 213.512777 
L 171.719172 213.512777 
L 171.719172 214.258834 
L 170.73042 214.258834 
L 170.73042 214.557257 
L 169.741668 214.557257 
L 169.741668 214.557257 
L 168.752916 214.557257 
L 168.752916 214.706469 
L 168.25854 214.706469 
L 168.25854 214.85568 
L 167.764164 214.85568 
L 167.764164 215.154103 
L 167.269789 215.154103 
L 167.269789 215.303314 
L 166.775413 215.303314 
L 166.775413 215.452526 
L 166.281037 215.452526 
L 166.281037 215.750949 
L 165.786661 215.750949 
L 165.786661 215.750949 
L 165.292285 215.750949 
L 165.292285 215.90016 
L 161.337277 215.90016 
L 161.337277 215.90016 
L 160.842901 215.90016 
L 160.842901 216.198583 
L 160.348525 216.198583 
L 160.348525 216.347794 
L 159.854149 216.347794 
L 159.854149 216.497006 
L 159.359773 216.497006 
L 159.359773 216.646217 
L 158.865397 216.646217 
L 158.865397 216.94464 
L 157.876645 216.94464 
L 157.876645 216.94464 
L 157.382269 216.94464 
L 157.382269 217.243063 
L 156.393517 217.243063 
L 156.393517 217.541486 
L 155.404765 217.541486 
L 155.404765 217.98912 
L 154.416013 217.98912 
L 154.416013 218.287543 
L 152.438509 218.287543 
L 152.438509 218.287543 
L 150.461005 218.287543 
L 150.461005 218.436754 
L 149.472253 218.436754 
L 149.472253 218.735177 
L 148.977877 218.735177 
L 148.977877 218.884389 
L 148.483501 218.884389 
L 148.483501 219.182811 
L 147.989125 219.182811 
L 147.989125 219.481234 
L 147.494749 219.481234 
L 147.494749 219.779657 
L 147.000373 219.779657 
L 147.000373 219.928869 
L 146.011621 219.928869 
L 146.011621 220.227291 
L 145.517245 220.227291 
L 145.517245 220.525714 
L 145.022869 220.525714 
L 145.022869 220.973349 
L 144.528493 220.973349 
L 144.528493 221.271771 
L 144.034117 221.271771 
L 144.034117 221.570194 
L 143.539741 221.570194 
L 143.539741 221.719406 
L 143.045365 221.719406 
L 143.045365 222.316251 
L 142.550989 222.316251 
L 142.550989 222.465463 
L 142.056613 222.465463 
L 142.056613 222.763886 
L 138.101605 222.763886 
L 138.101605 223.509943 
L 137.607229 223.509943 
L 137.607229 223.659154 
L 135.629725 223.659154 
L 135.629725 224.256 
L 134.146597 224.256 
L 134.146597 224.554423 
L 133.652222 224.554423 
L 133.652222 225.002057 
L 132.66347 225.002057 
L 132.66347 225.151269 
L 132.169094 225.151269 
L 132.169094 225.30048 
L 131.180342 225.30048 
L 131.180342 225.449691 
L 122.77595 225.449691 
L 122.77595 225.598903 
L 120.798446 225.598903 
L 120.798446 225.748114 
L 120.30407 225.748114 
L 120.30407 226.046537 
L 119.809694 226.046537 
L 119.809694 226.195749 
L 119.315318 226.195749 
L 119.315318 226.34496 
L 118.326566 226.34496 
L 118.326566 226.643383 
L 113.877182 226.643383 
L 113.877182 227.240229 
L 113.382806 227.240229 
L 113.382806 227.38944 
L 112.88843 227.38944 
L 112.88843 227.538651 
L 112.394054 227.538651 
L 112.394054 227.687863 
L 111.899678 227.687863 
L 111.899678 227.837074 
L 111.405302 227.837074 
L 111.405302 227.837074 
L 110.910926 227.837074 
L 110.910926 228.135497 
L 110.41655 228.135497 
L 110.41655 228.43392 
L 109.922174 228.43392 
L 109.922174 228.732343 
L 109.427798 228.732343 
L 109.427798 229.179977 
L 108.933422 229.179977 
L 108.933422 229.627611 
L 108.439046 229.627611 
L 108.439046 229.926034 
L 107.450294 229.926034 
L 107.450294 230.224457 
L 106.955918 230.224457 
L 106.955918 230.373669 
L 106.461542 230.373669 
L 106.461542 230.52288 
L 104.978414 230.52288 
L 104.978414 230.672091 
L 102.012158 230.672091 
L 102.012158 231.119726 
L 101.517782 231.119726 
L 101.517782 231.268937 
L 101.023406 231.268937 
L 101.023406 231.418149 
L 100.52903 231.418149 
L 100.52903 231.716571 
L 100.034654 231.716571 
L 100.034654 232.014994 
L 99.540279 232.014994 
L 99.540279 232.61184 
L 99.045903 232.61184 
L 99.045903 232.910263 
L 98.551527 232.910263 
L 98.551527 233.65632 
L 98.057151 233.65632 
L 98.057151 234.103954 
L 97.562775 234.103954 
L 97.562775 234.850011 
L 97.068399 234.850011 
L 97.068399 234.999223 
L 96.574023 234.999223 
L 96.574023 235.297646 
L 96.079647 235.297646 
L 96.079647 236.043703 
L 95.585271 236.043703 
L 95.585271 236.342126 
L 95.090895 236.342126 
L 95.090895 236.640549 
L 94.596519 236.640549 
L 94.596519 236.78976 
L 94.102143 236.78976 
L 94.102143 237.088183 
L 93.607767 237.088183 
L 93.607767 237.237394 
L 90.147135 237.237394 
L 90.147135 237.386606 
L 89.652759 237.386606 
L 89.652759 237.685029 
L 89.158383 237.685029 
L 89.158383 238.281874 
L 88.169631 238.281874 
L 88.169631 238.87872 
L 87.180879 238.87872 
L 87.180879 239.326354 
L 86.686503 239.326354 
L 86.686503 239.773989 
L 86.192127 239.773989 
L 86.192127 239.773989 
L 85.697751 239.773989 
L 85.697751 240.370834 
L 85.203375 240.370834 
L 85.203375 241.713737 
L 84.708999 241.713737 
L 84.708999 242.310583 
L 84.214623 242.310583 
L 84.214623 243.205851 
L 83.720247 243.205851 
L 83.720247 244.250331 
L 83.225871 244.250331 
L 83.225871 244.548754 
L 82.731495 244.548754 
L 82.731495 245.1456 
L 81.742743 245.1456 
L 81.742743 245.444023 
L 81.248367 245.444023 
L 81.248367 245.593234 
L 80.753991 245.593234 
L 80.753991 245.742446 
L 80.259615 245.742446 
L 80.259615 245.742446 
L 79.765239 245.742446 
L 79.765239 246.040869 
L 79.270863 246.040869 
L 79.270863 246.19008 
L 78.776487 246.19008 
L 78.776487 246.339291 
L 78.282111 246.339291 
L 78.282111 247.532983 
L 77.787735 247.532983 
L 77.787735 249.025097 
L 77.293359 249.025097 
L 77.293359 252.009326 
L 76.798983 252.009326 
L 76.798983 254.396709 
L 76.304607 254.396709 
L 76.304607 257.380937 
L 75.810231 257.380937 
L 75.810231 261.708069 
L 75.315855 261.708069 
L 75.315855 269.019429 
L 74.821479 269.019429 
L 74.821479 273.794194 
L 74.327103 273.794194 
L 74.327103 275.584731 
L 73.832727 275.584731 
L 73.832727 276.48 
L 73.832727 276.48 
z
" clip-path="url(#p68bf212b63)" style="fill: #fa448c; fill-opacity: 0.8"/>
   </g>
   <g id="PolyCollection_2">
    <path d="M 73.832727 276.48 
L 73.832727 276.48 
L 73.832727 276.48 
L 73.832727 275.584731 
L 74.327103 275.584731 
L 74.327103 273.794194 
L 74.821479 273.794194 
L 74.821479 269.019429 
L 75.315855 269.019429 
L 75.315855 261.708069 
L 75.810231 261.708069 
L 75.810231 257.380937 
L 76.304607 257.380937 
L 76.304607 254.396709 
L 76.798983 254.396709 
L 76.798983 252.009326 
L 77.293359 252.009326 
L 77.293359 249.025097 
L 77.787735 249.025097 
L 77.787735 247.532983 
L 78.282111 247.532983 
L 78.282111 246.339291 
L 78.776487 246.339291 
L 78.776487 246.19008 
L 79.270863 246.19008 
L 79.270863 246.040869 
L 79.765239 246.040869 
L 79.765239 245.742446 
L 80.259615 245.742446 
L 80.259615 245.742446 
L 80.753991 245.742446 
L 80.753991 245.593234 
L 81.248367 245.593234 
L 81.248367 245.444023 
L 81.742743 245.444023 
L 81.742743 245.1456 
L 82.731495 245.1456 
L 82.731495 244.548754 
L 83.225871 244.548754 
L 83.225871 244.250331 
L 83.720247 244.250331 
L 83.720247 243.205851 
L 84.214623 243.205851 
L 84.214623 242.310583 
L 84.708999 242.310583 
L 84.708999 241.713737 
L 85.203375 241.713737 
L 85.203375 240.370834 
L 85.697751 240.370834 
L 85.697751 239.773989 
L 86.192127 239.773989 
L 86.192127 239.773989 
L 86.686503 239.773989 
L 86.686503 239.326354 
L 87.180879 239.326354 
L 87.180879 238.87872 
L 88.169631 238.87872 
L 88.169631 238.281874 
L 89.158383 238.281874 
L 89.158383 237.685029 
L 89.652759 237.685029 
L 89.652759 237.386606 
L 90.147135 237.386606 
L 90.147135 237.237394 
L 93.607767 237.237394 
L 93.607767 237.088183 
L 94.102143 237.088183 
L 94.102143 236.78976 
L 94.596519 236.78976 
L 94.596519 236.640549 
L 95.090895 236.640549 
L 95.090895 236.342126 
L 95.585271 236.342126 
L 95.585271 236.043703 
L 96.079647 236.043703 
L 96.079647 235.297646 
L 96.574023 235.297646 
L 96.574023 234.999223 
L 97.068399 234.999223 
L 97.068399 234.850011 
L 97.562775 234.850011 
L 97.562775 234.103954 
L 98.057151 234.103954 
L 98.057151 233.65632 
L 98.551527 233.65632 
L 98.551527 232.910263 
L 99.045903 232.910263 
L 99.045903 232.61184 
L 99.540279 232.61184 
L 99.540279 232.014994 
L 100.034654 232.014994 
L 100.034654 231.716571 
L 100.52903 231.716571 
L 100.52903 231.418149 
L 101.023406 231.418149 
L 101.023406 231.268937 
L 101.517782 231.268937 
L 101.517782 231.119726 
L 102.012158 231.119726 
L 102.012158 230.672091 
L 104.978414 230.672091 
L 104.978414 230.52288 
L 106.461542 230.52288 
L 106.461542 230.373669 
L 106.955918 230.373669 
L 106.955918 230.224457 
L 107.450294 230.224457 
L 107.450294 229.926034 
L 108.439046 229.926034 
L 108.439046 229.627611 
L 108.933422 229.627611 
L 108.933422 229.179977 
L 109.427798 229.179977 
L 109.427798 228.732343 
L 109.922174 228.732343 
L 109.922174 228.43392 
L 110.41655 228.43392 
L 110.41655 228.135497 
L 110.910926 228.135497 
L 110.910926 227.837074 
L 111.405302 227.837074 
L 111.405302 227.837074 
L 111.899678 227.837074 
L 111.899678 227.687863 
L 112.394054 227.687863 
L 112.394054 227.538651 
L 112.88843 227.538651 
L 112.88843 227.38944 
L 113.382806 227.38944 
L 113.382806 227.240229 
L 113.877182 227.240229 
L 113.877182 226.643383 
L 118.326566 226.643383 
L 118.326566 226.34496 
L 119.315318 226.34496 
L 119.315318 226.195749 
L 119.809694 226.195749 
L 119.809694 226.046537 
L 120.30407 226.046537 
L 120.30407 225.748114 
L 120.798446 225.748114 
L 120.798446 225.598903 
L 122.77595 225.598903 
L 122.77595 225.449691 
L 131.180342 225.449691 
L 131.180342 225.30048 
L 132.169094 225.30048 
L 132.169094 225.151269 
L 132.66347 225.151269 
L 132.66347 225.002057 
L 133.652222 225.002057 
L 133.652222 224.554423 
L 134.146597 224.554423 
L 134.146597 224.256 
L 135.629725 224.256 
L 135.629725 223.659154 
L 137.607229 223.659154 
L 137.607229 223.509943 
L 138.101605 223.509943 
L 138.101605 222.763886 
L 142.056613 222.763886 
L 142.056613 222.465463 
L 142.550989 222.465463 
L 142.550989 222.316251 
L 143.045365 222.316251 
L 143.045365 221.719406 
L 143.539741 221.719406 
L 143.539741 221.570194 
L 144.034117 221.570194 
L 144.034117 221.271771 
L 144.528493 221.271771 
L 144.528493 220.973349 
L 145.022869 220.973349 
L 145.022869 220.525714 
L 145.517245 220.525714 
L 145.517245 220.227291 
L 146.011621 220.227291 
L 146.011621 219.928869 
L 147.000373 219.928869 
L 147.000373 219.779657 
L 147.494749 219.779657 
L 147.494749 219.481234 
L 147.989125 219.481234 
L 147.989125 219.182811 
L 148.483501 219.182811 
L 148.483501 218.884389 
L 148.977877 218.884389 
L 148.977877 218.735177 
L 149.472253 218.735177 
L 149.472253 218.436754 
L 150.461005 218.436754 
L 150.461005 218.287543 
L 152.438509 218.287543 
L 152.438509 218.287543 
L 154.416013 218.287543 
L 154.416013 217.98912 
L 155.404765 217.98912 
L 155.404765 217.541486 
L 156.393517 217.541486 
L 156.393517 217.243063 
L 157.382269 217.243063 
L 157.382269 216.94464 
L 157.876645 216.94464 
L 157.876645 216.94464 
L 158.865397 216.94464 
L 158.865397 216.646217 
L 159.359773 216.646217 
L 159.359773 216.497006 
L 159.854149 216.497006 
L 159.854149 216.347794 
L 160.348525 216.347794 
L 160.348525 216.198583 
L 160.842901 216.198583 
L 160.842901 215.90016 
L 161.337277 215.90016 
L 161.337277 215.90016 
L 165.292285 215.90016 
L 165.292285 215.750949 
L 165.786661 215.750949 
L 165.786661 215.750949 
L 166.281037 215.750949 
L 166.281037 215.452526 
L 166.775413 215.452526 
L 166.775413 215.303314 
L 167.269789 215.303314 
L 167.269789 215.154103 
L 167.764164 215.154103 
L 167.764164 214.85568 
L 168.25854 214.85568 
L 168.25854 214.706469 
L 168.752916 214.706469 
L 168.752916 214.557257 
L 169.741668 214.557257 
L 169.741668 214.557257 
L 170.73042 214.557257 
L 170.73042 214.258834 
L 171.719172 214.258834 
L 171.719172 213.512777 
L 172.213548 213.512777 
L 172.213548 213.214354 
L 172.707924 213.214354 
L 172.707924 213.214354 
L 173.2023 213.214354 
L 173.2023 212.76672 
L 174.191052 212.76672 
L 174.191052 212.617509 
L 174.685428 212.617509 
L 174.685428 212.468297 
L 175.179804 212.468297 
L 175.179804 212.169874 
L 177.157308 212.169874 
L 177.157308 212.169874 
L 178.640436 212.169874 
L 178.640436 211.871451 
L 179.134812 211.871451 
L 179.134812 211.72224 
L 181.112316 211.72224 
L 181.112316 211.573029 
L 182.101068 211.573029 
L 182.101068 211.125394 
L 182.595444 211.125394 
L 182.595444 210.230126 
L 183.08982 210.230126 
L 183.08982 209.782491 
L 183.584196 209.782491 
L 183.584196 208.887223 
L 184.078572 208.887223 
L 184.078572 208.5888 
L 184.572948 208.5888 
L 184.572948 208.141166 
L 185.5617 208.141166 
L 185.5617 207.842743 
L 188.527956 207.842743 
L 188.527956 207.693531 
L 189.022332 207.693531 
L 189.022332 207.693531 
L 189.516708 207.693531 
L 189.516708 207.096686 
L 190.50546 207.096686 
L 190.50546 206.947474 
L 190.999836 206.947474 
L 190.999836 206.649051 
L 191.988588 206.649051 
L 191.988588 205.156937 
L 192.482964 205.156937 
L 192.482964 204.858514 
L 193.966092 204.858514 
L 193.966092 204.709303 
L 194.460468 204.709303 
L 194.460468 204.41088 
L 195.44922 204.41088 
L 195.44922 204.41088 
L 195.943596 204.41088 
L 195.943596 203.963246 
L 196.437972 203.963246 
L 196.437972 203.664823 
L 196.932348 203.664823 
L 196.932348 203.664823 
L 197.426724 203.664823 
L 197.426724 203.3664 
L 202.370483 203.3664 
L 202.370483 203.217189 
L 203.359235 203.217189 
L 203.359235 203.067977 
L 203.853611 203.067977 
L 203.853611 202.620343 
L 205.336739 202.620343 
L 205.336739 202.471131 
L 205.831115 202.471131 
L 205.831115 202.172709 
L 206.325491 202.172709 
L 206.325491 202.023497 
L 207.808619 202.023497 
L 207.808619 202.023497 
L 208.302995 202.023497 
L 208.302995 202.023497 
L 213.246755 202.023497 
L 213.246755 202.023497 
L 214.235507 202.023497 
L 214.235507 202.023497 
L 215.224259 202.023497 
L 215.224259 202.023497 
L 215.718635 202.023497 
L 215.718635 202.023497 
L 216.213011 202.023497 
L 216.213011 202.023497 
L 216.707387 202.023497 
L 216.707387 202.023497 
L 217.201763 202.023497 
L 217.201763 202.023497 
L 218.190515 202.023497 
L 218.190515 202.023497 
L 219.179267 202.023497 
L 219.179267 202.023497 
L 220.168019 202.023497 
L 220.168019 202.023497 
L 220.662395 202.023497 
L 220.662395 202.023497 
L 221.156771 202.023497 
L 221.156771 202.023497 
L 225.111779 202.023497 
L 225.111779 202.023497 
L 226.594907 202.023497 
L 226.594907 202.023497 
L 227.089283 202.023497 
L 227.089283 202.023497 
L 228.572411 202.023497 
L 228.572411 202.023497 
L 229.561163 202.023497 
L 229.561163 202.023497 
L 230.055539 202.023497 
L 230.055539 202.023497 
L 230.549915 202.023497 
L 230.549915 202.023497 
L 231.044291 202.023497 
L 231.044291 202.023497 
L 232.033043 202.023497 
L 232.033043 202.023497 
L 236.482426 202.023497 
L 236.482426 202.023497 
L 238.954306 202.023497 
L 238.954306 202.023497 
L 239.448682 202.023497 
L 239.448682 202.023497 
L 240.93181 202.023497 
L 240.93181 202.023497 
L 241.920562 202.023497 
L 241.920562 202.023497 
L 242.414938 202.023497 
L 242.414938 202.023497 
L 242.909314 202.023497 
L 242.909314 202.023497 
L 243.40369 202.023497 
L 243.40369 202.023497 
L 243.898066 202.023497 
L 243.898066 202.023497 
L 244.392442 202.023497 
L 244.392442 202.023497 
L 248.34745 202.023497 
L 248.34745 202.023497 
L 249.336202 202.023497 
L 249.336202 202.023497 
L 249.830578 202.023497 
L 249.830578 202.023497 
L 250.324954 202.023497 
L 250.324954 202.023497 
L 250.81933 202.023497 
L 250.81933 202.023497 
L 251.313706 202.023497 
L 251.313706 202.023497 
L 251.808082 202.023497 
L 251.808082 202.023497 
L 252.302458 202.023497 
L 252.302458 202.023497 
L 252.796834 202.023497 
L 252.796834 202.023497 
L 253.785586 202.023497 
L 253.785586 202.023497 
L 260.212474 202.023497 
L 260.212474 202.023497 
L 262.189978 202.023497 
L 262.189978 202.023497 
L 263.17873 202.023497 
L 263.17873 202.023497 
L 263.673106 202.023497 
L 263.673106 202.023497 
L 265.156234 202.023497 
L 265.156234 202.023497 
L 265.65061 202.023497 
L 265.65061 202.023497 
L 266.144986 202.023497 
L 266.144986 202.023497 
L 267.628114 202.023497 
L 267.628114 202.023497 
L 269.111242 202.023497 
L 269.111242 202.023497 
L 272.571873 202.023497 
L 272.571873 202.023497 
L 273.066249 202.023497 
L 273.066249 202.023497 
L 273.560625 202.023497 
L 273.560625 202.023497 
L 274.055001 202.023497 
L 274.055001 202.023497 
L 274.549377 202.023497 
L 274.549377 202.023497 
L 276.032505 202.023497 
L 276.032505 202.023497 
L 277.515633 202.023497 
L 277.515633 202.023497 
L 278.998761 202.023497 
L 278.998761 202.023497 
L 286.908777 202.023497 
L 286.908777 202.023497 
L 288.886281 202.023497 
L 288.886281 202.023497 
L 289.380657 202.023497 
L 289.380657 202.023497 
L 298.279425 202.023497 
L 298.279425 202.023497 
L 298.773801 202.023497 
L 298.773801 202.023497 
L 299.268177 202.023497 
L 299.268177 202.023497 
L 300.256929 202.023497 
L 300.256929 202.023497 
L 300.751305 202.023497 
L 300.751305 202.023497 
L 301.245681 202.023497 
L 301.245681 202.023497 
L 302.234433 202.023497 
L 302.234433 202.023497 
L 306.683816 202.023497 
L 306.683816 202.023497 
L 307.672568 202.023497 
L 307.672568 202.023497 
L 309.155696 202.023497 
L 309.155696 202.023497 
L 310.144448 202.023497 
L 310.144448 202.023497 
L 312.121952 202.023497 
L 312.121952 202.023497 
L 315.088208 202.023497 
L 315.088208 202.023497 
L 321.515096 202.023497 
L 321.515096 202.023497 
L 322.009472 202.023497 
L 322.009472 202.023497 
L 323.4926 202.023497 
L 323.4926 202.023497 
L 324.481352 202.023497 
L 324.481352 202.023497 
L 324.975728 202.023497 
L 324.975728 202.023497 
L 325.96448 202.023497 
L 325.96448 202.023497 
L 330.413864 202.023497 
L 330.413864 202.023497 
L 331.896992 202.023497 
L 331.896992 202.023497 
L 332.885744 202.023497 
L 332.885744 202.023497 
L 333.38012 202.023497 
L 333.38012 202.023497 
L 333.874496 202.023497 
L 333.874496 202.023497 
L 335.852 202.023497 
L 335.852 202.023497 
L 337.335127 202.023497 
L 337.335127 202.023497 
L 337.829503 202.023497 
L 337.829503 202.023497 
L 338.323879 202.023497 
L 338.323879 202.023497 
L 338.818255 202.023497 
L 338.818255 202.023497 
L 343.762015 202.023497 
L 343.762015 202.023497 
L 344.750767 202.023497 
L 344.750767 202.023497 
L 347.222647 202.023497 
L 347.222647 202.023497 
L 349.694527 202.023497 
L 349.694527 202.023497 
L 350.188903 202.023497 
L 350.188903 202.023497 
L 350.683279 202.023497 
L 350.683279 202.023497 
L 351.672031 202.023497 
L 351.672031 202.023497 
L 354.143911 202.023497 
L 354.143911 202.023497 
L 355.132663 202.023497 
L 355.132663 202.023497 
L 357.110167 202.023497 
L 357.110167 202.023497 
L 361.065175 202.023497 
L 361.065175 202.023497 
L 363.042679 202.023497 
L 363.042679 202.023497 
L 365.953234 202.023497 
L 365.953234 200.083749 
L 366.155905 200.083749 
L 366.155905 200.083749 
L 366.332776 200.083749 
L 366.332776 200.083749 
L 366.68345 200.083749 
L 366.68345 200.083749 
L 366.905837 200.083749 
L 366.905837 200.083749 
L 367.13923 200.083749 
L 367.13923 200.083749 
L 367.314018 200.083749 
L 367.314018 200.083749 
L 367.674507 200.083749 
L 367.674507 200.083749 
L 367.871032 200.083749 
L 367.871032 200.083749 
L 368.135588 200.083749 
L 368.135588 200.083749 
L 368.329975 200.083749 
L 368.329975 200.083749 
L 368.639448 200.083749 
L 368.639448 200.083749 
L 368.834058 200.083749 
L 368.834058 200.083749 
L 369.096108 200.083749 
L 369.096108 200.083749 
L 369.279513 200.083749 
L 369.279513 200.083749 
L 369.708854 200.083749 
L 369.708854 200.083749 
L 369.987558 200.083749 
L 369.987558 200.083749 
L 370.308574 200.083749 
L 370.308574 200.083749 
L 370.333004 200.083749 
L 370.333004 200.083749 
L 370.347395 200.083749 
L 370.347395 200.083749 
L 370.591513 200.083749 
L 370.591513 200.083749 
L 370.778065 200.083749 
L 370.778065 200.083749 
L 371.105867 200.083749 
L 371.105867 200.083749 
L 371.317781 200.083749 
L 371.317781 200.083749 
L 371.674501 200.083749 
L 371.674501 200.083749 
L 372.379491 200.083749 
L 372.379491 200.083749 
L 372.399899 200.083749 
L 372.399899 200.083749 
L 372.425117 200.083749 
L 372.425117 200.083749 
L 372.610376 200.083749 
L 372.610376 200.083749 
L 372.820016 200.083749 
L 372.820016 200.083749 
L 373.047693 200.083749 
L 373.047693 200.083749 
L 373.23531 200.083749 
L 373.23531 200.083749 
L 373.579663 200.083749 
L 373.579663 200.083749 
L 374.043726 200.083749 
L 374.043726 200.083749 
L 379.535626 200.083749 
L 379.535626 200.083749 
L 380.960367 200.083749 
L 380.960367 200.083749 
L 382.174605 200.083749 
L 382.174605 200.083749 
L 382.456367 200.083749 
L 382.456367 200.083749 
L 383.838507 200.083749 
L 383.838507 200.083749 
L 384.18897 200.083749 
L 384.18897 200.083749 
L 384.472138 200.083749 
L 384.472138 200.083749 
L 384.914172 200.083749 
L 384.914172 200.083749 
L 392.380189 200.083749 
L 392.380189 200.083749 
L 395.416799 200.083749 
L 395.416799 200.083749 
L 397.503041 200.083749 
L 397.503041 200.083749 
L 397.779595 200.083749 
L 397.779595 200.083749 
L 398.487273 200.083749 
L 398.487273 200.083749 
L 398.487273 146.367634 
L 398.487273 146.367634 
L 398.487273 146.367634 
L 397.779595 146.367634 
L 397.779595 146.815269 
L 397.503041 146.815269 
L 397.503041 146.96448 
L 395.416799 146.96448 
L 395.416799 147.113691 
L 392.380189 147.113691 
L 392.380189 147.262903 
L 384.914172 147.262903 
L 384.914172 147.561326 
L 384.472138 147.561326 
L 384.472138 147.710537 
L 384.18897 147.710537 
L 384.18897 148.00896 
L 383.838507 148.00896 
L 383.838507 148.158171 
L 382.456367 148.158171 
L 382.456367 148.307383 
L 382.174605 148.307383 
L 382.174605 148.456594 
L 380.960367 148.456594 
L 380.960367 148.605806 
L 379.535626 148.605806 
L 379.535626 148.755017 
L 374.043726 148.755017 
L 374.043726 149.05344 
L 373.579663 149.05344 
L 373.579663 149.202651 
L 373.23531 149.202651 
L 373.23531 149.202651 
L 373.047693 149.202651 
L 373.047693 149.202651 
L 372.820016 149.202651 
L 372.820016 149.202651 
L 372.610376 149.202651 
L 372.610376 149.202651 
L 372.425117 149.202651 
L 372.425117 149.202651 
L 372.399899 149.202651 
L 372.399899 149.202651 
L 372.379491 149.202651 
L 372.379491 149.202651 
L 371.674501 149.202651 
L 371.674501 149.202651 
L 371.317781 149.202651 
L 371.317781 149.202651 
L 371.105867 149.202651 
L 371.105867 149.202651 
L 370.778065 149.202651 
L 370.778065 149.202651 
L 370.591513 149.202651 
L 370.591513 149.202651 
L 370.347395 149.202651 
L 370.347395 149.202651 
L 370.333004 149.202651 
L 370.333004 149.202651 
L 370.308574 149.202651 
L 370.308574 149.202651 
L 369.987558 149.202651 
L 369.987558 149.501074 
L 369.708854 149.501074 
L 369.708854 149.650286 
L 369.279513 149.650286 
L 369.279513 149.650286 
L 369.096108 149.650286 
L 369.096108 150.247131 
L 368.834058 150.247131 
L 368.834058 150.396343 
L 368.639448 150.396343 
L 368.639448 150.396343 
L 368.329975 150.396343 
L 368.329975 150.396343 
L 368.135588 150.396343 
L 368.135588 150.396343 
L 367.871032 150.396343 
L 367.871032 150.396343 
L 367.674507 150.396343 
L 367.674507 150.396343 
L 367.314018 150.396343 
L 367.314018 150.396343 
L 367.13923 150.396343 
L 367.13923 150.396343 
L 366.905837 150.396343 
L 366.905837 150.396343 
L 366.68345 150.396343 
L 366.68345 150.396343 
L 366.332776 150.396343 
L 366.332776 150.396343 
L 366.155905 150.396343 
L 366.155905 150.396343 
L 365.953234 150.396343 
L 365.953234 153.828206 
L 363.042679 153.828206 
L 363.042679 153.977417 
L 361.065175 153.977417 
L 361.065175 153.977417 
L 357.110167 153.977417 
L 357.110167 154.126629 
L 355.132663 154.126629 
L 355.132663 154.27584 
L 354.143911 154.27584 
L 354.143911 154.425051 
L 351.672031 154.425051 
L 351.672031 154.872686 
L 350.683279 154.872686 
L 350.683279 154.872686 
L 350.188903 154.872686 
L 350.188903 155.171109 
L 349.694527 155.171109 
L 349.694527 156.514011 
L 347.222647 156.514011 
L 347.222647 156.961646 
L 344.750767 156.961646 
L 344.750767 157.110857 
L 343.762015 157.110857 
L 343.762015 157.260069 
L 338.818255 157.260069 
L 338.818255 157.707703 
L 338.323879 157.707703 
L 338.323879 158.155337 
L 337.829503 158.155337 
L 337.829503 158.45376 
L 337.335127 158.45376 
L 337.335127 158.602971 
L 335.852 158.602971 
L 335.852 158.752183 
L 333.874496 158.752183 
L 333.874496 158.752183 
L 333.38012 158.752183 
L 333.38012 158.901394 
L 332.885744 158.901394 
L 332.885744 159.050606 
L 331.896992 159.050606 
L 331.896992 159.199817 
L 330.413864 159.199817 
L 330.413864 159.349029 
L 325.96448 159.349029 
L 325.96448 159.49824 
L 324.975728 159.49824 
L 324.975728 159.796663 
L 324.481352 159.796663 
L 324.481352 160.095086 
L 323.4926 160.095086 
L 323.4926 160.54272 
L 322.009472 160.54272 
L 322.009472 160.691931 
L 321.515096 160.691931 
L 321.515096 160.691931 
L 315.088208 160.691931 
L 315.088208 160.841143 
L 312.121952 160.841143 
L 312.121952 160.990354 
L 310.144448 160.990354 
L 310.144448 161.288777 
L 309.155696 161.288777 
L 309.155696 161.288777 
L 307.672568 161.288777 
L 307.672568 161.5872 
L 306.683816 161.5872 
L 306.683816 161.5872 
L 302.234433 161.5872 
L 302.234433 161.885623 
L 301.245681 161.885623 
L 301.245681 162.034834 
L 300.751305 162.034834 
L 300.751305 162.333257 
L 300.256929 162.333257 
L 300.256929 162.333257 
L 299.268177 162.333257 
L 299.268177 162.333257 
L 298.773801 162.333257 
L 298.773801 162.780891 
L 298.279425 162.780891 
L 298.279425 162.780891 
L 289.380657 162.780891 
L 289.380657 162.930103 
L 288.886281 162.930103 
L 288.886281 163.079314 
L 286.908777 163.079314 
L 286.908777 163.228526 
L 278.998761 163.228526 
L 278.998761 163.377737 
L 277.515633 163.377737 
L 277.515633 163.526949 
L 276.032505 163.526949 
L 276.032505 163.974583 
L 274.549377 163.974583 
L 274.549377 164.72064 
L 274.055001 164.72064 
L 274.055001 165.019063 
L 273.560625 165.019063 
L 273.560625 165.168274 
L 273.066249 165.168274 
L 273.066249 165.168274 
L 272.571873 165.168274 
L 272.571873 165.317486 
L 269.111242 165.317486 
L 269.111242 165.317486 
L 267.628114 165.317486 
L 267.628114 165.914331 
L 266.144986 165.914331 
L 266.144986 166.063543 
L 265.65061 166.063543 
L 265.65061 166.511177 
L 265.156234 166.511177 
L 265.156234 166.660389 
L 263.673106 166.660389 
L 263.673106 166.8096 
L 263.17873 166.8096 
L 263.17873 167.108023 
L 262.189978 167.108023 
L 262.189978 167.108023 
L 260.212474 167.108023 
L 260.212474 167.406446 
L 253.785586 167.406446 
L 253.785586 167.406446 
L 252.796834 167.406446 
L 252.796834 167.555657 
L 252.302458 167.555657 
L 252.302458 167.704869 
L 251.808082 167.704869 
L 251.808082 167.85408 
L 251.313706 167.85408 
L 251.313706 168.003291 
L 250.81933 168.003291 
L 250.81933 168.152503 
L 250.324954 168.152503 
L 250.324954 168.450926 
L 249.830578 168.450926 
L 249.830578 169.495406 
L 249.336202 169.495406 
L 249.336202 170.092251 
L 248.34745 170.092251 
L 248.34745 170.539886 
L 244.392442 170.539886 
L 244.392442 170.689097 
L 243.898066 170.689097 
L 243.898066 170.838309 
L 243.40369 170.838309 
L 243.40369 171.136731 
L 242.909314 171.136731 
L 242.909314 171.584366 
L 242.414938 171.584366 
L 242.414938 172.181211 
L 241.920562 172.181211 
L 241.920562 172.927269 
L 240.93181 172.927269 
L 240.93181 173.374903 
L 239.448682 173.374903 
L 239.448682 173.524114 
L 238.954306 173.524114 
L 238.954306 173.822537 
L 236.482426 173.822537 
L 236.482426 173.971749 
L 232.033043 173.971749 
L 232.033043 174.12096 
L 231.044291 174.12096 
L 231.044291 174.270171 
L 230.549915 174.270171 
L 230.549915 174.419383 
L 230.055539 174.419383 
L 230.055539 174.568594 
L 229.561163 174.568594 
L 229.561163 174.867017 
L 228.572411 174.867017 
L 228.572411 175.463863 
L 227.089283 175.463863 
L 227.089283 175.613074 
L 226.594907 175.613074 
L 226.594907 175.762286 
L 225.111779 175.762286 
L 225.111779 176.060709 
L 221.156771 176.060709 
L 221.156771 176.20992 
L 220.662395 176.20992 
L 220.662395 176.359131 
L 220.168019 176.359131 
L 220.168019 176.359131 
L 219.179267 176.359131 
L 219.179267 176.508343 
L 218.190515 176.508343 
L 218.190515 176.657554 
L 217.201763 176.657554 
L 217.201763 177.2544 
L 216.707387 177.2544 
L 216.707387 177.851246 
L 216.213011 177.851246 
L 216.213011 178.149669 
L 215.718635 178.149669 
L 215.718635 178.448091 
L 215.224259 178.448091 
L 215.224259 178.746514 
L 214.235507 178.746514 
L 214.235507 179.044937 
L 213.246755 179.044937 
L 213.246755 179.194149 
L 208.302995 179.194149 
L 208.302995 179.492571 
L 207.808619 179.492571 
L 207.808619 179.940206 
L 206.325491 179.940206 
L 206.325491 180.089417 
L 205.831115 180.089417 
L 205.831115 180.537051 
L 205.336739 180.537051 
L 205.336739 180.686263 
L 203.853611 180.686263 
L 203.853611 181.133897 
L 203.359235 181.133897 
L 203.359235 181.283109 
L 202.370483 181.283109 
L 202.370483 181.43232 
L 197.426724 181.43232 
L 197.426724 182.029166 
L 196.932348 182.029166 
L 196.932348 182.029166 
L 196.437972 182.029166 
L 196.437972 182.4768 
L 195.943596 182.4768 
L 195.943596 182.924434 
L 195.44922 182.924434 
L 195.44922 183.073646 
L 194.460468 183.073646 
L 194.460468 183.670491 
L 193.966092 183.670491 
L 193.966092 183.819703 
L 192.482964 183.819703 
L 192.482964 184.118126 
L 191.988588 184.118126 
L 191.988588 185.759451 
L 190.999836 185.759451 
L 190.999836 186.057874 
L 190.50546 186.057874 
L 190.50546 186.207086 
L 189.516708 186.207086 
L 189.516708 186.803931 
L 189.022332 186.803931 
L 189.022332 186.953143 
L 188.527956 186.953143 
L 188.527956 187.102354 
L 185.5617 187.102354 
L 185.5617 187.400777 
L 184.572948 187.400777 
L 184.572948 187.848411 
L 184.078572 187.848411 
L 184.078572 188.445257 
L 183.584196 188.445257 
L 183.584196 189.340526 
L 183.08982 189.340526 
L 183.08982 189.937371 
L 182.595444 189.937371 
L 182.595444 190.83264 
L 182.101068 190.83264 
L 182.101068 192.026331 
L 181.112316 192.026331 
L 181.112316 192.175543 
L 179.134812 192.175543 
L 179.134812 192.324754 
L 178.640436 192.324754 
L 178.640436 192.623177 
L 177.157308 192.623177 
L 177.157308 192.772389 
L 175.179804 192.772389 
L 175.179804 193.070811 
L 174.685428 193.070811 
L 174.685428 193.220023 
L 174.191052 193.220023 
L 174.191052 193.369234 
L 173.2023 193.369234 
L 173.2023 193.816869 
L 172.707924 193.816869 
L 172.707924 194.264503 
L 172.213548 194.264503 
L 172.213548 194.861349 
L 171.719172 194.861349 
L 171.719172 195.607406 
L 170.73042 195.607406 
L 170.73042 195.905829 
L 169.741668 195.905829 
L 169.741668 196.05504 
L 168.752916 196.05504 
L 168.752916 196.204251 
L 168.25854 196.204251 
L 168.25854 196.502674 
L 167.764164 196.502674 
L 167.764164 196.801097 
L 167.269789 196.801097 
L 167.269789 196.950309 
L 166.775413 196.950309 
L 166.775413 197.09952 
L 166.281037 197.09952 
L 166.281037 197.397943 
L 165.786661 197.397943 
L 165.786661 197.547154 
L 165.292285 197.547154 
L 165.292285 197.696366 
L 161.337277 197.696366 
L 161.337277 197.845577 
L 160.842901 197.845577 
L 160.842901 198.144 
L 160.348525 198.144 
L 160.348525 198.293211 
L 159.854149 198.293211 
L 159.854149 198.442423 
L 159.359773 198.442423 
L 159.359773 198.591634 
L 158.865397 198.591634 
L 158.865397 199.337691 
L 157.876645 199.337691 
L 157.876645 199.486903 
L 157.382269 199.486903 
L 157.382269 199.934537 
L 156.393517 199.934537 
L 156.393517 200.23296 
L 155.404765 200.23296 
L 155.404765 200.979017 
L 154.416013 200.979017 
L 154.416013 201.575863 
L 152.438509 201.575863 
L 152.438509 201.874286 
L 150.461005 201.874286 
L 150.461005 202.023497 
L 149.472253 202.023497 
L 149.472253 202.32192 
L 148.977877 202.32192 
L 148.977877 202.620343 
L 148.483501 202.620343 
L 148.483501 203.067977 
L 147.989125 203.067977 
L 147.989125 203.3664 
L 147.494749 203.3664 
L 147.494749 203.814034 
L 147.000373 203.814034 
L 147.000373 203.963246 
L 146.011621 203.963246 
L 146.011621 204.261669 
L 145.517245 204.261669 
L 145.517245 204.560091 
L 145.022869 204.560091 
L 145.022869 205.156937 
L 144.528493 205.156937 
L 144.528493 205.45536 
L 144.034117 205.45536 
L 144.034117 205.753783 
L 143.539741 205.753783 
L 143.539741 205.902994 
L 143.045365 205.902994 
L 143.045365 206.649051 
L 142.550989 206.649051 
L 142.550989 206.798263 
L 142.056613 206.798263 
L 142.056613 207.096686 
L 138.101605 207.096686 
L 138.101605 207.991954 
L 137.607229 207.991954 
L 137.607229 208.141166 
L 135.629725 208.141166 
L 135.629725 209.036434 
L 134.146597 209.036434 
L 134.146597 209.334857 
L 133.652222 209.334857 
L 133.652222 209.931703 
L 132.66347 209.931703 
L 132.66347 210.080914 
L 132.169094 210.080914 
L 132.169094 210.230126 
L 131.180342 210.230126 
L 131.180342 210.379337 
L 122.77595 210.379337 
L 122.77595 210.528549 
L 120.798446 210.528549 
L 120.798446 210.67776 
L 120.30407 210.67776 
L 120.30407 210.976183 
L 119.809694 210.976183 
L 119.809694 211.125394 
L 119.315318 211.125394 
L 119.315318 211.274606 
L 118.326566 211.274606 
L 118.326566 211.573029 
L 113.877182 211.573029 
L 113.877182 212.319086 
L 113.382806 212.319086 
L 113.382806 213.065143 
L 112.88843 213.065143 
L 112.88843 213.214354 
L 112.394054 213.214354 
L 112.394054 213.363566 
L 111.899678 213.363566 
L 111.899678 213.512777 
L 111.405302 213.512777 
L 111.405302 213.661989 
L 110.910926 213.661989 
L 110.910926 214.109623 
L 110.41655 214.109623 
L 110.41655 214.408046 
L 109.922174 214.408046 
L 109.922174 214.85568 
L 109.427798 214.85568 
L 109.427798 215.303314 
L 108.933422 215.303314 
L 108.933422 215.750949 
L 108.439046 215.750949 
L 108.439046 216.049371 
L 107.450294 216.049371 
L 107.450294 216.795429 
L 106.955918 216.795429 
L 106.955918 216.94464 
L 106.461542 216.94464 
L 106.461542 217.093851 
L 104.978414 217.093851 
L 104.978414 217.243063 
L 102.012158 217.243063 
L 102.012158 217.690697 
L 101.517782 217.690697 
L 101.517782 217.98912 
L 101.023406 217.98912 
L 101.023406 218.138331 
L 100.52903 218.138331 
L 100.52903 219.182811 
L 100.034654 219.182811 
L 100.034654 219.481234 
L 99.540279 219.481234 
L 99.540279 220.07808 
L 99.045903 220.07808 
L 99.045903 220.525714 
L 98.551527 220.525714 
L 98.551527 221.420983 
L 98.057151 221.420983 
L 98.057151 221.868617 
L 97.562775 221.868617 
L 97.562775 222.614674 
L 97.068399 222.614674 
L 97.068399 222.763886 
L 96.574023 222.763886 
L 96.574023 223.21152 
L 96.079647 223.21152 
L 96.079647 223.957577 
L 95.585271 223.957577 
L 95.585271 224.256 
L 95.090895 224.256 
L 95.090895 224.554423 
L 94.596519 224.554423 
L 94.596519 224.703634 
L 94.102143 224.703634 
L 94.102143 225.151269 
L 93.607767 225.151269 
L 93.607767 225.30048 
L 90.147135 225.30048 
L 90.147135 225.449691 
L 89.652759 225.449691 
L 89.652759 225.748114 
L 89.158383 225.748114 
L 89.158383 226.34496 
L 88.169631 226.34496 
L 88.169631 226.941806 
L 87.180879 226.941806 
L 87.180879 227.38944 
L 86.686503 227.38944 
L 86.686503 227.986286 
L 86.192127 227.986286 
L 86.192127 228.284709 
L 85.697751 228.284709 
L 85.697751 228.881554 
L 85.203375 228.881554 
L 85.203375 230.373669 
L 84.708999 230.373669 
L 84.708999 231.268937 
L 84.214623 231.268937 
L 84.214623 233.208686 
L 83.720247 233.208686 
L 83.720247 234.253166 
L 83.225871 234.253166 
L 83.225871 235.446857 
L 82.731495 235.446857 
L 82.731495 236.192914 
L 81.742743 236.192914 
L 81.742743 236.938971 
L 81.248367 236.938971 
L 81.248367 237.088183 
L 80.753991 237.088183 
L 80.753991 237.237394 
L 80.259615 237.237394 
L 80.259615 237.386606 
L 79.765239 237.386606 
L 79.765239 237.685029 
L 79.270863 237.685029 
L 79.270863 237.83424 
L 78.776487 237.83424 
L 78.776487 237.983451 
L 78.282111 237.983451 
L 78.282111 239.177143 
L 77.787735 239.177143 
L 77.787735 241.564526 
L 77.293359 241.564526 
L 77.293359 245.593234 
L 76.798983 245.593234 
L 76.798983 248.428251 
L 76.304607 248.428251 
L 76.304607 252.158537 
L 75.810231 252.158537 
L 75.810231 257.380937 
L 75.315855 257.380937 
L 75.315855 266.0352 
L 74.821479 266.0352 
L 74.821479 272.749714 
L 74.327103 272.749714 
L 74.327103 275.43552 
L 73.832727 275.43552 
L 73.832727 276.48 
L 73.832727 276.48 
z
" clip-path="url(#p68bf212b63)" style="fill: #43b5a0; fill-opacity: 0.8"/>
   </g>
   <g id="matplotlib.axis_1">
    <g id="xtick_1">
     <g id="line2d_1">
      <defs>
       <path id="mf1b0f7394a" d="M 0 0 
L 0 3.5 
" style="stroke: #ffffff; stroke-width: 0.8"/>
      </defs>
      <g>
       <use xlink:href="#mf1b0f7394a" x="102.506534" y="276.48" style="fill: #ffffff; stroke: #ffffff; stroke-width: 0.8"/>
      </g>
     </g>
     <g id="text_1">
      <!-- Fri 12/24 -->
      <g style="fill: #ffffff" transform="translate(63.43735 312.01669)rotate(-30)scale(0.1 -0.1)">
       <defs>
        <path id="DejaVuSans-46" d="M 628 4666 
L 3309 4666 
L 3309 4134 
L 1259 4134 
L 1259 2759 
L 3109 2759 
L 3109 2228 
L 1259 2228 
L 1259 0 
L 628 0 
L 628 4666 
z
" transform="scale(0.015625)"/>
        <path id="DejaVuSans-72" d="M 2631 2963 
Q 2534 3019 2420 3045 
Q 2306 3072 2169 3072 
Q 1681 3072 1420 2755 
Q 1159 2438 1159 1844 
L 1159 0 
L 581 0 
L 581 3500 
L 1159 3500 
L 1159 2956 
Q 1341 3275 1631 3429 
Q 1922 3584 2338 3584 
Q 2397 3584 2469 3576 
Q 2541 3569 2628 3553 
L 2631 2963 
z
" transform="scale(0.015625)"/>
        <path id="DejaVuSans-69" d="M 603 3500 
L 1178 3500 
L 1178 0 
L 603 0 
L 603 3500 
z
M 603 4863 
L 1178 4863 
L 1178 4134 
L 603 4134 
L 603 4863 
z
" transform="scale(0.015625)"/>
        <path id="DejaVuSans-20" transform="scale(0.015625)"/>
        <path id="DejaVuSans-31" d="M 794 531 
L 1825 531 
L 1825 4091 
L 703 3866 
L 703 4441 
L 1819 4666 
L 2450 4666 
L 2450 531 
L 3481 531 
L 3481 0 
L 794 0 
L 794 531 
z
" transform="scale(0.015625)"/>
        <path id="DejaVuSans-32" d="M 1228 531 
L 3431 531 
L 3431 0 
L 469 0 
L 469 531 
Q 828 903 1448 1529 
Q 2069 2156 2228 2338 
Q 2531 2678 2651 2914 
Q 2772 3150 2772 3378 
Q 2772 3750 2511 3984 
Q 2250 4219 1831 4219 
Q 1534 4219 1204 4116 
Q 875 4013 500 3803 
L 500 4441 
Q 881 4594 1212 4672 
Q 1544 4750 1819 4750 
Q 2544 4750 2975 4387 
Q 3406 4025 3406 3419 
Q 3406 3131 3298 2873 
Q 3191 2616 2906 2266 
Q 2828 2175 2409 1742 
Q 1991 1309 1228 531 
z
" transform="scale(0.015625)"/>
        <path id="DejaVuSans-2f" d="M 1625 4666 
L 2156 4666 
L 531 -594 
L 0 -594 
L 1625 4666 
z
" transform="scale(0.015625)"/>
        <path id="DejaVuSans-34" d="M 2419 4116 
L 825 1625 
L 2419 1625 
L 2419 4116 
z
M 2253 4666 
L 3047 4666 
L 3047 1625 
L 3713 1625 
L 3713 1100 
L 3047 1100 
L 3047 0 
L 2419 0 
L 2419 1100 
L 313 1100 
L 313 1709 
L 2253 4666 
z
" transform="scale(0.015625)"/>
       </defs>
       <use xlink:href="#DejaVuSans-46"/>
       <use xlink:href="#DejaVuSans-72" x="50.269531"/>
       <use xlink:href="#DejaVuSans-69" x="91.382812"/>
       <use xlink:href="#DejaVuSans-20" x="119.166016"/>
       <use xlink:href="#DejaVuSans-31" x="150.953125"/>
       <use xlink:href="#DejaVuSans-32" x="214.576172"/>
       <use xlink:href="#DejaVuSans-2f" x="278.199219"/>
       <use xlink:href="#DejaVuSans-32" x="311.890625"/>
       <use xlink:href="#DejaVuSans-34" x="375.513672"/>
      </g>
     </g>
    </g>
    <g id="xtick_2">
     <g id="line2d_2">
      <g>
       <use xlink:href="#mf1b0f7394a" x="138.101605" y="276.48" style="fill: #ffffff; stroke: #ffffff; stroke-width: 0.8"/>
      </g>
     </g>
     <g id="text_2">
      <!-- Mon 12/27 -->
      <g style="fill: #ffffff" transform="translate(91.092051 316.601065)rotate(-30)scale(0.1 -0.1)">
       <defs>
        <path id="DejaVuSans-4d" d="M 628 4666 
L 1569 4666 
L 2759 1491 
L 3956 4666 
L 4897 4666 
L 4897 0 
L 4281 0 
L 4281 4097 
L 3078 897 
L 2444 897 
L 1241 4097 
L 1241 0 
L 628 0 
L 628 4666 
z
" transform="scale(0.015625)"/>
        <path id="DejaVuSans-6f" d="M 1959 3097 
Q 1497 3097 1228 2736 
Q 959 2375 959 1747 
Q 959 1119 1226 758 
Q 1494 397 1959 397 
Q 2419 397 2687 759 
Q 2956 1122 2956 1747 
Q 2956 2369 2687 2733 
Q 2419 3097 1959 3097 
z
M 1959 3584 
Q 2709 3584 3137 3096 
Q 3566 2609 3566 1747 
Q 3566 888 3137 398 
Q 2709 -91 1959 -91 
Q 1206 -91 779 398 
Q 353 888 353 1747 
Q 353 2609 779 3096 
Q 1206 3584 1959 3584 
z
" transform="scale(0.015625)"/>
        <path id="DejaVuSans-6e" d="M 3513 2113 
L 3513 0 
L 2938 0 
L 2938 2094 
Q 2938 2591 2744 2837 
Q 2550 3084 2163 3084 
Q 1697 3084 1428 2787 
Q 1159 2491 1159 1978 
L 1159 0 
L 581 0 
L 581 3500 
L 1159 3500 
L 1159 2956 
Q 1366 3272 1645 3428 
Q 1925 3584 2291 3584 
Q 2894 3584 3203 3211 
Q 3513 2838 3513 2113 
z
" transform="scale(0.015625)"/>
        <path id="DejaVuSans-37" d="M 525 4666 
L 3525 4666 
L 3525 4397 
L 1831 0 
L 1172 0 
L 2766 4134 
L 525 4134 
L 525 4666 
z
" transform="scale(0.015625)"/>
       </defs>
       <use xlink:href="#DejaVuSans-4d"/>
       <use xlink:href="#DejaVuSans-6f" x="86.279297"/>
       <use xlink:href="#DejaVuSans-6e" x="147.460938"/>
       <use xlink:href="#DejaVuSans-20" x="210.839844"/>
       <use xlink:href="#DejaVuSans-31" x="242.626953"/>
       <use xlink:href="#DejaVuSans-32" x="306.25"/>
       <use xlink:href="#DejaVuSans-2f" x="369.873047"/>
       <use xlink:href="#DejaVuSans-32" x="403.564453"/>
       <use xlink:href="#DejaVuSans-37" x="467.1875"/>
      </g>
     </g>
    </g>
    <g id="xtick_3">
     <g id="line2d_3">
      <g>
       <use xlink:href="#mf1b0f7394a" x="185.5617" y="276.48" style="fill: #ffffff; stroke: #ffffff; stroke-width: 0.8"/>
      </g>
     </g>
     <g id="text_3">
      <!-- Fri 12/31 -->
      <g style="fill: #ffffff" transform="translate(146.492516 312.01669)rotate(-30)scale(0.1 -0.1)">
       <defs>
        <path id="DejaVuSans-33" d="M 2597 2516 
Q 3050 2419 3304 2112 
Q 3559 1806 3559 1356 
Q 3559 666 3084 287 
Q 2609 -91 1734 -91 
Q 1441 -91 1130 -33 
Q 819 25 488 141 
L 488 750 
Q 750 597 1062 519 
Q 1375 441 1716 441 
Q 2309 441 2620 675 
Q 2931 909 2931 1356 
Q 2931 1769 2642 2001 
Q 2353 2234 1838 2234 
L 1294 2234 
L 1294 2753 
L 1863 2753 
Q 2328 2753 2575 2939 
Q 2822 3125 2822 3475 
Q 2822 3834 2567 4026 
Q 2313 4219 1838 4219 
Q 1578 4219 1281 4162 
Q 984 4106 628 3988 
L 628 4550 
Q 988 4650 1302 4700 
Q 1616 4750 1894 4750 
Q 2613 4750 3031 4423 
Q 3450 4097 3450 3541 
Q 3450 3153 3228 2886 
Q 3006 2619 2597 2516 
z
" transform="scale(0.015625)"/>
       </defs>
       <use xlink:href="#DejaVuSans-46"/>
       <use xlink:href="#DejaVuSans-72" x="50.269531"/>
       <use xlink:href="#DejaVuSans-69" x="91.382812"/>
       <use xlink:href="#DejaVuSans-20" x="119.166016"/>
       <use xlink:href="#DejaVuSans-31" x="150.953125"/>
       <use xlink:href="#DejaVuSans-32" x="214.576172"/>
       <use xlink:href="#DejaVuSans-2f" x="278.199219"/>
       <use xlink:href="#DejaVuSans-33" x="311.890625"/>
       <use xlink:href="#DejaVuSans-31" x="375.513672"/>
      </g>
     </g>
    </g>
    <g id="xtick_4">
     <g id="line2d_4">
      <g>
       <use xlink:href="#mf1b0f7394a" x="221.156771" y="276.48" style="fill: #ffffff; stroke: #ffffff; stroke-width: 0.8"/>
      </g>
     </g>
     <g id="text_4">
      <!-- Mon 01/03 -->
      <g style="fill: #ffffff" transform="translate(174.147216 316.601065)rotate(-30)scale(0.1 -0.1)">
       <defs>
        <path id="DejaVuSans-30" d="M 2034 4250 
Q 1547 4250 1301 3770 
Q 1056 3291 1056 2328 
Q 1056 1369 1301 889 
Q 1547 409 2034 409 
Q 2525 409 2770 889 
Q 3016 1369 3016 2328 
Q 3016 3291 2770 3770 
Q 2525 4250 2034 4250 
z
M 2034 4750 
Q 2819 4750 3233 4129 
Q 3647 3509 3647 2328 
Q 3647 1150 3233 529 
Q 2819 -91 2034 -91 
Q 1250 -91 836 529 
Q 422 1150 422 2328 
Q 422 3509 836 4129 
Q 1250 4750 2034 4750 
z
" transform="scale(0.015625)"/>
       </defs>
       <use xlink:href="#DejaVuSans-4d"/>
       <use xlink:href="#DejaVuSans-6f" x="86.279297"/>
       <use xlink:href="#DejaVuSans-6e" x="147.460938"/>
       <use xlink:href="#DejaVuSans-20" x="210.839844"/>
       <use xlink:href="#DejaVuSans-30" x="242.626953"/>
       <use xlink:href="#DejaVuSans-31" x="306.25"/>
       <use xlink:href="#DejaVuSans-2f" x="369.873047"/>
       <use xlink:href="#DejaVuSans-30" x="403.564453"/>
       <use xlink:href="#DejaVuSans-33" x="467.1875"/>
      </g>
     </g>
    </g>
    <g id="xtick_5">
     <g id="line2d_5">
      <g>
       <use xlink:href="#mf1b0f7394a" x="268.616866" y="276.48" style="fill: #ffffff; stroke: #ffffff; stroke-width: 0.8"/>
      </g>
     </g>
     <g id="text_5">
      <!-- Fri 01/07 -->
      <g style="fill: #ffffff" transform="translate(229.547681 312.01669)rotate(-30)scale(0.1 -0.1)">
       <use xlink:href="#DejaVuSans-46"/>
       <use xlink:href="#DejaVuSans-72" x="50.269531"/>
       <use xlink:href="#DejaVuSans-69" x="91.382812"/>
       <use xlink:href="#DejaVuSans-20" x="119.166016"/>
       <use xlink:href="#DejaVuSans-30" x="150.953125"/>
       <use xlink:href="#DejaVuSans-31" x="214.576172"/>
       <use xlink:href="#DejaVuSans-2f" x="278.199219"/>
       <use xlink:href="#DejaVuSans-30" x="311.890625"/>
       <use xlink:href="#DejaVuSans-37" x="375.513672"/>
      </g>
     </g>
    </g>
    <g id="xtick_6">
     <g id="line2d_6">
      <g>
       <use xlink:href="#mf1b0f7394a" x="304.211936" y="276.48" style="fill: #ffffff; stroke: #ffffff; stroke-width: 0.8"/>
      </g>
     </g>
     <g id="text_6">
      <!-- Mon 01/10 -->
      <g style="fill: #ffffff" transform="translate(257.202382 316.601065)rotate(-30)scale(0.1 -0.1)">
       <use xlink:href="#DejaVuSans-4d"/>
       <use xlink:href="#DejaVuSans-6f" x="86.279297"/>
       <use xlink:href="#DejaVuSans-6e" x="147.460938"/>
       <use xlink:href="#DejaVuSans-20" x="210.839844"/>
       <use xlink:href="#DejaVuSans-30" x="242.626953"/>
       <use xlink:href="#DejaVuSans-31" x="306.25"/>
       <use xlink:href="#DejaVuSans-2f" x="369.873047"/>
       <use xlink:href="#DejaVuSans-31" x="403.564453"/>
       <use xlink:href="#DejaVuSans-30" x="467.1875"/>
      </g>
     </g>
    </g>
    <g id="xtick_7">
     <g id="line2d_7">
      <g>
       <use xlink:href="#mf1b0f7394a" x="351.672031" y="276.48" style="fill: #ffffff; stroke: #ffffff; stroke-width: 0.8"/>
      </g>
     </g>
     <g id="text_7">
      <!-- Fri 01/14 -->
      <g style="fill: #ffffff" transform="translate(312.602847 312.01669)rotate(-30)scale(0.1 -0.1)">
       <use xlink:href="#DejaVuSans-46"/>
       <use xlink:href="#DejaVuSans-72" x="50.269531"/>
       <use xlink:href="#DejaVuSans-69" x="91.382812"/>
       <use xlink:href="#DejaVuSans-20" x="119.166016"/>
       <use xlink:href="#DejaVuSans-30" x="150.953125"/>
       <use xlink:href="#DejaVuSans-31" x="214.576172"/>
       <use xlink:href="#DejaVuSans-2f" x="278.199219"/>
       <use xlink:href="#DejaVuSans-31" x="311.890625"/>
       <use xlink:href="#DejaVuSans-34" x="375.513672"/>
      </g>
     </g>
    </g>
    <g id="xtick_8">
     <g id="line2d_8">
      <g>
       <use xlink:href="#mf1b0f7394a" x="387.267102" y="276.48" style="fill: #ffffff; stroke: #ffffff; stroke-width: 0.8"/>
      </g>
     </g>
     <g id="text_8">
      <!-- Mon 01/17 -->
      <g style="fill: #ffffff" transform="translate(340.257547 316.601065)rotate(-30)scale(0.1 -0.1)">
       <use xlink:href="#DejaVuSans-4d"/>
       <use xlink:href="#DejaVuSans-6f" x="86.279297"/>
       <use xlink:href="#DejaVuSans-6e" x="147.460938"/>
       <use xlink:href="#DejaVuSans-20" x="210.839844"/>
       <use xlink:href="#DejaVuSans-30" x="242.626953"/>
       <use xlink:href="#DejaVuSans-31" x="306.25"/>
       <use xlink:href="#DejaVuSans-2f" x="369.873047"/>
       <use xlink:href="#DejaVuSans-31" x="403.564453"/>
       <use xlink:href="#DejaVuSans-37" x="467.1875"/>
      </g>
     </g>
    </g>
    <g id="xtick_9">
     <g id="line2d_9">
      <defs>
       <path id="m5a3677a8fa" d="M 0 0 
L 0 2 
" style="stroke: #ffffff; stroke-width: 0.6"/>
      </defs>
      <g>
       <use xlink:href="#m5a3677a8fa" x="66.911463" y="276.48" style="fill: #ffffff; stroke: #ffffff; stroke-width: 0.6"/>
      </g>
     </g>
    </g>
    <g id="xtick_10">
     <g id="line2d_10">
      <g>
       <use xlink:href="#m5a3677a8fa" x="78.776487" y="276.48" style="fill: #ffffff; stroke: #ffffff; stroke-width: 0.6"/>
      </g>
     </g>
    </g>
    <g id="xtick_11">
     <g id="line2d_11">
      <g>
       <use xlink:href="#m5a3677a8fa" x="90.641511" y="276.48" style="fill: #ffffff; stroke: #ffffff; stroke-width: 0.6"/>
      </g>
     </g>
    </g>
    <g id="xtick_12">
     <g id="line2d_12">
      <g>
       <use xlink:href="#m5a3677a8fa" x="114.371558" y="276.48" style="fill: #ffffff; stroke: #ffffff; stroke-width: 0.6"/>
      </g>
     </g>
    </g>
    <g id="xtick_13">
     <g id="line2d_13">
      <g>
       <use xlink:href="#m5a3677a8fa" x="126.236582" y="276.48" style="fill: #ffffff; stroke: #ffffff; stroke-width: 0.6"/>
      </g>
     </g>
    </g>
    <g id="xtick_14">
     <g id="line2d_14">
      <g>
       <use xlink:href="#m5a3677a8fa" x="149.966629" y="276.48" style="fill: #ffffff; stroke: #ffffff; stroke-width: 0.6"/>
      </g>
     </g>
    </g>
    <g id="xtick_15">
     <g id="line2d_15">
      <g>
       <use xlink:href="#m5a3677a8fa" x="161.831653" y="276.48" style="fill: #ffffff; stroke: #ffffff; stroke-width: 0.6"/>
      </g>
     </g>
    </g>
    <g id="xtick_16">
     <g id="line2d_16">
      <g>
       <use xlink:href="#m5a3677a8fa" x="173.696676" y="276.48" style="fill: #ffffff; stroke: #ffffff; stroke-width: 0.6"/>
      </g>
     </g>
    </g>
    <g id="xtick_17">
     <g id="line2d_17">
      <g>
       <use xlink:href="#m5a3677a8fa" x="197.426724" y="276.48" style="fill: #ffffff; stroke: #ffffff; stroke-width: 0.6"/>
      </g>
     </g>
    </g>
    <g id="xtick_18">
     <g id="line2d_18">
      <g>
       <use xlink:href="#m5a3677a8fa" x="209.291747" y="276.48" style="fill: #ffffff; stroke: #ffffff; stroke-width: 0.6"/>
      </g>
     </g>
    </g>
    <g id="xtick_19">
     <g id="line2d_19">
      <g>
       <use xlink:href="#m5a3677a8fa" x="233.021795" y="276.48" style="fill: #ffffff; stroke: #ffffff; stroke-width: 0.6"/>
      </g>
     </g>
    </g>
    <g id="xtick_20">
     <g id="line2d_20">
      <g>
       <use xlink:href="#m5a3677a8fa" x="244.886818" y="276.48" style="fill: #ffffff; stroke: #ffffff; stroke-width: 0.6"/>
      </g>
     </g>
    </g>
    <g id="xtick_21">
     <g id="line2d_21">
      <g>
       <use xlink:href="#m5a3677a8fa" x="256.751842" y="276.48" style="fill: #ffffff; stroke: #ffffff; stroke-width: 0.6"/>
      </g>
     </g>
    </g>
    <g id="xtick_22">
     <g id="line2d_22">
      <g>
       <use xlink:href="#m5a3677a8fa" x="280.481889" y="276.48" style="fill: #ffffff; stroke: #ffffff; stroke-width: 0.6"/>
      </g>
     </g>
    </g>
    <g id="xtick_23">
     <g id="line2d_23">
      <g>
       <use xlink:href="#m5a3677a8fa" x="292.346913" y="276.48" style="fill: #ffffff; stroke: #ffffff; stroke-width: 0.6"/>
      </g>
     </g>
    </g>
    <g id="xtick_24">
     <g id="line2d_24">
      <g>
       <use xlink:href="#m5a3677a8fa" x="316.07696" y="276.48" style="fill: #ffffff; stroke: #ffffff; stroke-width: 0.6"/>
      </g>
     </g>
    </g>
    <g id="xtick_25">
     <g id="line2d_25">
      <g>
       <use xlink:href="#m5a3677a8fa" x="327.941984" y="276.48" style="fill: #ffffff; stroke: #ffffff; stroke-width: 0.6"/>
      </g>
     </g>
    </g>
    <g id="xtick_26">
     <g id="line2d_26">
      <g>
       <use xlink:href="#m5a3677a8fa" x="339.807007" y="276.48" style="fill: #ffffff; stroke: #ffffff; stroke-width: 0.6"/>
      </g>
     </g>
    </g>
    <g id="xtick_27">
     <g id="line2d_27">
      <g>
       <use xlink:href="#m5a3677a8fa" x="363.537055" y="276.48" style="fill: #ffffff; stroke: #ffffff; stroke-width: 0.6"/>
      </g>
     </g>
    </g>
    <g id="xtick_28">
     <g id="line2d_28">
      <g>
       <use xlink:href="#m5a3677a8fa" x="375.402078" y="276.48" style="fill: #ffffff; stroke: #ffffff; stroke-width: 0.6"/>
      </g>
     </g>
    </g>
    <g id="xtick_29">
     <g id="line2d_29">
      <g>
       <use xlink:href="#m5a3677a8fa" x="399.132126" y="276.48" style="fill: #ffffff; stroke: #ffffff; stroke-width: 0.6"/>
      </g>
     </g>
    </g>
    <g id="xtick_30">
     <g id="line2d_30">
      <g>
       <use xlink:href="#m5a3677a8fa" x="410.997149" y="276.48" style="fill: #ffffff; stroke: #ffffff; stroke-width: 0.6"/>
      </g>
     </g>
    </g>
   </g>
   <g id="matplotlib.axis_2">
    <g id="ytick_1">
     <g id="line2d_31">
      <defs>
       <path id="ma3ab51e18a" d="M 0 0 
L -3.5 0 
" style="stroke: #ffffff; stroke-width: 0.8"/>
      </defs>
      <g>
       <use xlink:href="#ma3ab51e18a" x="57.6" y="276.48" style="fill: #ffffff; stroke: #ffffff; stroke-width: 0.8"/>
      </g>
     </g>
     <g id="text_9">
      <!-- 0 -->
      <g style="fill: #ffffff" transform="translate(44.2375 280.279219)scale(0.1 -0.1)">
       <use xlink:href="#DejaVuSans-30"/>
      </g>
     </g>
    </g>
    <g id="ytick_2">
     <g id="line2d_32">
      <g>
       <use xlink:href="#ma3ab51e18a" x="57.6" y="246.637714" style="fill: #ffffff; stroke: #ffffff; stroke-width: 0.8"/>
      </g>
     </g>
     <g id="text_10">
      <!-- 200 -->
      <g style="fill: #ffffff" transform="translate(31.5125 250.436933)scale(0.1 -0.1)">
       <use xlink:href="#DejaVuSans-32"/>
       <use xlink:href="#DejaVuSans-30" x="63.623047"/>
       <use xlink:href="#DejaVuSans-30" x="127.246094"/>
      </g>
     </g>
    </g>
    <g id="ytick_3">
     <g id="line2d_33">
      <g>
       <use xlink:href="#ma3ab51e18a" x="57.6" y="216.795429" style="fill: #ffffff; stroke: #ffffff; stroke-width: 0.8"/>
      </g>
     </g>
     <g id="text_11">
      <!-- 400 -->
      <g style="fill: #ffffff" transform="translate(31.5125 220.594647)scale(0.1 -0.1)">
       <use xlink:href="#DejaVuSans-34"/>
       <use xlink:href="#DejaVuSans-30" x="63.623047"/>
       <use xlink:href="#DejaVuSans-30" x="127.246094"/>
      </g>
     </g>
    </g>
    <g id="ytick_4">
     <g id="line2d_34">
      <g>
       <use xlink:href="#ma3ab51e18a" x="57.6" y="186.953143" style="fill: #ffffff; stroke: #ffffff; stroke-width: 0.8"/>
      </g>
     </g>
     <g id="text_12">
      <!-- 600 -->
      <g style="fill: #ffffff" transform="translate(31.5125 190.752362)scale(0.1 -0.1)">
       <defs>
        <path id="DejaVuSans-36" d="M 2113 2584 
Q 1688 2584 1439 2293 
Q 1191 2003 1191 1497 
Q 1191 994 1439 701 
Q 1688 409 2113 409 
Q 2538 409 2786 701 
Q 3034 994 3034 1497 
Q 3034 2003 2786 2293 
Q 2538 2584 2113 2584 
z
M 3366 4563 
L 3366 3988 
Q 3128 4100 2886 4159 
Q 2644 4219 2406 4219 
Q 1781 4219 1451 3797 
Q 1122 3375 1075 2522 
Q 1259 2794 1537 2939 
Q 1816 3084 2150 3084 
Q 2853 3084 3261 2657 
Q 3669 2231 3669 1497 
Q 3669 778 3244 343 
Q 2819 -91 2113 -91 
Q 1303 -91 875 529 
Q 447 1150 447 2328 
Q 447 3434 972 4092 
Q 1497 4750 2381 4750 
Q 2619 4750 2861 4703 
Q 3103 4656 3366 4563 
z
" transform="scale(0.015625)"/>
       </defs>
       <use xlink:href="#DejaVuSans-36"/>
       <use xlink:href="#DejaVuSans-30" x="63.623047"/>
       <use xlink:href="#DejaVuSans-30" x="127.246094"/>
      </g>
     </g>
    </g>
    <g id="ytick_5">
     <g id="line2d_35">
      <g>
       <use xlink:href="#ma3ab51e18a" x="57.6" y="157.110857" style="fill: #ffffff; stroke: #ffffff; stroke-width: 0.8"/>
      </g>
     </g>
     <g id="text_13">
      <!-- 800 -->
      <g style="fill: #ffffff" transform="translate(31.5125 160.910076)scale(0.1 -0.1)">
       <defs>
        <path id="DejaVuSans-38" d="M 2034 2216 
Q 1584 2216 1326 1975 
Q 1069 1734 1069 1313 
Q 1069 891 1326 650 
Q 1584 409 2034 409 
Q 2484 409 2743 651 
Q 3003 894 3003 1313 
Q 3003 1734 2745 1975 
Q 2488 2216 2034 2216 
z
M 1403 2484 
Q 997 2584 770 2862 
Q 544 3141 544 3541 
Q 544 4100 942 4425 
Q 1341 4750 2034 4750 
Q 2731 4750 3128 4425 
Q 3525 4100 3525 3541 
Q 3525 3141 3298 2862 
Q 3072 2584 2669 2484 
Q 3125 2378 3379 2068 
Q 3634 1759 3634 1313 
Q 3634 634 3220 271 
Q 2806 -91 2034 -91 
Q 1263 -91 848 271 
Q 434 634 434 1313 
Q 434 1759 690 2068 
Q 947 2378 1403 2484 
z
M 1172 3481 
Q 1172 3119 1398 2916 
Q 1625 2713 2034 2713 
Q 2441 2713 2670 2916 
Q 2900 3119 2900 3481 
Q 2900 3844 2670 4047 
Q 2441 4250 2034 4250 
Q 1625 4250 1398 4047 
Q 1172 3844 1172 3481 
z
" transform="scale(0.015625)"/>
       </defs>
       <use xlink:href="#DejaVuSans-38"/>
       <use xlink:href="#DejaVuSans-30" x="63.623047"/>
       <use xlink:href="#DejaVuSans-30" x="127.246094"/>
      </g>
     </g>
    </g>
    <g id="ytick_6">
     <g id="line2d_36">
      <g>
       <use xlink:href="#ma3ab51e18a" x="57.6" y="127.268571" style="fill: #ffffff; stroke: #ffffff; stroke-width: 0.8"/>
      </g>
     </g>
     <g id="text_14">
      <!-- 1000 -->
      <g style="fill: #ffffff" transform="translate(25.15 131.06779)scale(0.1 -0.1)">
       <use xlink:href="#DejaVuSans-31"/>
       <use xlink:href="#DejaVuSans-30" x="63.623047"/>
       <use xlink:href="#DejaVuSans-30" x="127.246094"/>
       <use xlink:href="#DejaVuSans-30" x="190.869141"/>
      </g>
     </g>
    </g>
    <g id="ytick_7">
     <g id="line2d_37">
      <g>
       <use xlink:href="#ma3ab51e18a" x="57.6" y="97.426286" style="fill: #ffffff; stroke: #ffffff; stroke-width: 0.8"/>
      </g>
     </g>
     <g id="text_15">
      <!-- 1200 -->
      <g style="fill: #ffffff" transform="translate(25.15 101.225504)scale(0.1 -0.1)">
       <use xlink:href="#DejaVuSans-31"/>
       <use xlink:href="#DejaVuSans-32" x="63.623047"/>
       <use xlink:href="#DejaVuSans-30" x="127.246094"/>
       <use xlink:href="#DejaVuSans-30" x="190.869141"/>
      </g>
     </g>
    </g>
    <g id="ytick_8">
     <g id="line2d_38">
      <g>
       <use xlink:href="#ma3ab51e18a" x="57.6" y="67.584" style="fill: #ffffff; stroke: #ffffff; stroke-width: 0.8"/>
      </g>
     </g>
     <g id="text_16">
      <!-- 1400 -->
      <g style="fill: #ffffff" transform="translate(25.15 71.383219)scale(0.1 -0.1)">
       <use xlink:href="#DejaVuSans-31"/>
       <use xlink:href="#DejaVuSans-34" x="63.623047"/>
       <use xlink:href="#DejaVuSans-30" x="127.246094"/>
       <use xlink:href="#DejaVuSans-30" x="190.869141"/>
      </g>
     </g>
    </g>
    <g id="text_17">
     <!-- Number of tickets sold -->
     <g style="fill: #ffffff" transform="translate(19.070312 215.329906)rotate(-90)scale(0.1 -0.1)">
      <defs>
       <path id="DejaVuSans-4e" d="M 628 4666 
L 1478 4666 
L 3547 763 
L 3547 4666 
L 4159 4666 
L 4159 0 
L 3309 0 
L 1241 3903 
L 1241 0 
L 628 0 
L 628 4666 
z
" transform="scale(0.015625)"/>
       <path id="DejaVuSans-75" d="M 544 1381 
L 544 3500 
L 1119 3500 
L 1119 1403 
Q 1119 906 1312 657 
Q 1506 409 1894 409 
Q 2359 409 2629 706 
Q 2900 1003 2900 1516 
L 2900 3500 
L 3475 3500 
L 3475 0 
L 2900 0 
L 2900 538 
Q 2691 219 2414 64 
Q 2138 -91 1772 -91 
Q 1169 -91 856 284 
Q 544 659 544 1381 
z
M 1991 3584 
L 1991 3584 
z
" transform="scale(0.015625)"/>
       <path id="DejaVuSans-6d" d="M 3328 2828 
Q 3544 3216 3844 3400 
Q 4144 3584 4550 3584 
Q 5097 3584 5394 3201 
Q 5691 2819 5691 2113 
L 5691 0 
L 5113 0 
L 5113 2094 
Q 5113 2597 4934 2840 
Q 4756 3084 4391 3084 
Q 3944 3084 3684 2787 
Q 3425 2491 3425 1978 
L 3425 0 
L 2847 0 
L 2847 2094 
Q 2847 2600 2669 2842 
Q 2491 3084 2119 3084 
Q 1678 3084 1418 2786 
Q 1159 2488 1159 1978 
L 1159 0 
L 581 0 
L 581 3500 
L 1159 3500 
L 1159 2956 
Q 1356 3278 1631 3431 
Q 1906 3584 2284 3584 
Q 2666 3584 2933 3390 
Q 3200 3197 3328 2828 
z
" transform="scale(0.015625)"/>
       <path id="DejaVuSans-62" d="M 3116 1747 
Q 3116 2381 2855 2742 
Q 2594 3103 2138 3103 
Q 1681 3103 1420 2742 
Q 1159 2381 1159 1747 
Q 1159 1113 1420 752 
Q 1681 391 2138 391 
Q 2594 391 2855 752 
Q 3116 1113 3116 1747 
z
M 1159 2969 
Q 1341 3281 1617 3432 
Q 1894 3584 2278 3584 
Q 2916 3584 3314 3078 
Q 3713 2572 3713 1747 
Q 3713 922 3314 415 
Q 2916 -91 2278 -91 
Q 1894 -91 1617 61 
Q 1341 213 1159 525 
L 1159 0 
L 581 0 
L 581 4863 
L 1159 4863 
L 1159 2969 
z
" transform="scale(0.015625)"/>
       <path id="DejaVuSans-65" d="M 3597 1894 
L 3597 1613 
L 953 1613 
Q 991 1019 1311 708 
Q 1631 397 2203 397 
Q 2534 397 2845 478 
Q 3156 559 3463 722 
L 3463 178 
Q 3153 47 2828 -22 
Q 2503 -91 2169 -91 
Q 1331 -91 842 396 
Q 353 884 353 1716 
Q 353 2575 817 3079 
Q 1281 3584 2069 3584 
Q 2775 3584 3186 3129 
Q 3597 2675 3597 1894 
z
M 3022 2063 
Q 3016 2534 2758 2815 
Q 2500 3097 2075 3097 
Q 1594 3097 1305 2825 
Q 1016 2553 972 2059 
L 3022 2063 
z
" transform="scale(0.015625)"/>
       <path id="DejaVuSans-66" d="M 2375 4863 
L 2375 4384 
L 1825 4384 
Q 1516 4384 1395 4259 
Q 1275 4134 1275 3809 
L 1275 3500 
L 2222 3500 
L 2222 3053 
L 1275 3053 
L 1275 0 
L 697 0 
L 697 3053 
L 147 3053 
L 147 3500 
L 697 3500 
L 697 3744 
Q 697 4328 969 4595 
Q 1241 4863 1831 4863 
L 2375 4863 
z
" transform="scale(0.015625)"/>
       <path id="DejaVuSans-74" d="M 1172 4494 
L 1172 3500 
L 2356 3500 
L 2356 3053 
L 1172 3053 
L 1172 1153 
Q 1172 725 1289 603 
Q 1406 481 1766 481 
L 2356 481 
L 2356 0 
L 1766 0 
Q 1100 0 847 248 
Q 594 497 594 1153 
L 594 3053 
L 172 3053 
L 172 3500 
L 594 3500 
L 594 4494 
L 1172 4494 
z
" transform="scale(0.015625)"/>
       <path id="DejaVuSans-63" d="M 3122 3366 
L 3122 2828 
Q 2878 2963 2633 3030 
Q 2388 3097 2138 3097 
Q 1578 3097 1268 2742 
Q 959 2388 959 1747 
Q 959 1106 1268 751 
Q 1578 397 2138 397 
Q 2388 397 2633 464 
Q 2878 531 3122 666 
L 3122 134 
Q 2881 22 2623 -34 
Q 2366 -91 2075 -91 
Q 1284 -91 818 406 
Q 353 903 353 1747 
Q 353 2603 823 3093 
Q 1294 3584 2113 3584 
Q 2378 3584 2631 3529 
Q 2884 3475 3122 3366 
z
" transform="scale(0.015625)"/>
       <path id="DejaVuSans-6b" d="M 581 4863 
L 1159 4863 
L 1159 1991 
L 2875 3500 
L 3609 3500 
L 1753 1863 
L 3688 0 
L 2938 0 
L 1159 1709 
L 1159 0 
L 581 0 
L 581 4863 
z
" transform="scale(0.015625)"/>
       <path id="DejaVuSans-73" d="M 2834 3397 
L 2834 2853 
Q 2591 2978 2328 3040 
Q 2066 3103 1784 3103 
Q 1356 3103 1142 2972 
Q 928 2841 928 2578 
Q 928 2378 1081 2264 
Q 1234 2150 1697 2047 
L 1894 2003 
Q 2506 1872 2764 1633 
Q 3022 1394 3022 966 
Q 3022 478 2636 193 
Q 2250 -91 1575 -91 
Q 1294 -91 989 -36 
Q 684 19 347 128 
L 347 722 
Q 666 556 975 473 
Q 1284 391 1588 391 
Q 1994 391 2212 530 
Q 2431 669 2431 922 
Q 2431 1156 2273 1281 
Q 2116 1406 1581 1522 
L 1381 1569 
Q 847 1681 609 1914 
Q 372 2147 372 2553 
Q 372 3047 722 3315 
Q 1072 3584 1716 3584 
Q 2034 3584 2315 3537 
Q 2597 3491 2834 3397 
z
" transform="scale(0.015625)"/>
       <path id="DejaVuSans-6c" d="M 603 4863 
L 1178 4863 
L 1178 0 
L 603 0 
L 603 4863 
z
" transform="scale(0.015625)"/>
       <path id="DejaVuSans-64" d="M 2906 2969 
L 2906 4863 
L 3481 4863 
L 3481 0 
L 2906 0 
L 2906 525 
Q 2725 213 2448 61 
Q 2172 -91 1784 -91 
Q 1150 -91 751 415 
Q 353 922 353 1747 
Q 353 2572 751 3078 
Q 1150 3584 1784 3584 
Q 2172 3584 2448 3432 
Q 2725 3281 2906 2969 
z
M 947 1747 
Q 947 1113 1208 752 
Q 1469 391 1925 391 
Q 2381 391 2643 752 
Q 2906 1113 2906 1747 
Q 2906 2381 2643 2742 
Q 2381 3103 1925 3103 
Q 1469 3103 1208 2742 
Q 947 2381 947 1747 
z
" transform="scale(0.015625)"/>
      </defs>
      <use xlink:href="#DejaVuSans-4e"/>
      <use xlink:href="#DejaVuSans-75" x="74.804688"/>
      <use xlink:href="#DejaVuSans-6d" x="138.183594"/>
      <use xlink:href="#DejaVuSans-62" x="235.595703"/>
      <use xlink:href="#DejaVuSans-65" x="299.072266"/>
      <use xlink:href="#DejaVuSans-72" x="360.595703"/>
      <use xlink:href="#DejaVuSans-20" x="401.708984"/>
      <use xlink:href="#DejaVuSans-6f" x="433.496094"/>
      <use xlink:href="#DejaVuSans-66" x="494.677734"/>
      <use xlink:href="#DejaVuSans-20" x="529.882812"/>
      <use xlink:href="#DejaVuSans-74" x="561.669922"/>
      <use xlink:href="#DejaVuSans-69" x="600.878906"/>
      <use xlink:href="#DejaVuSans-63" x="628.662109"/>
      <use xlink:href="#DejaVuSans-6b" x="683.642578"/>
      <use xlink:href="#DejaVuSans-65" x="737.927734"/>
      <use xlink:href="#DejaVuSans-74" x="799.451172"/>
      <use xlink:href="#DejaVuSans-73" x="838.660156"/>
      <use xlink:href="#DejaVuSans-20" x="890.759766"/>
      <use xlink:href="#DejaVuSans-73" x="922.546875"/>
      <use xlink:href="#DejaVuSans-6f" x="974.646484"/>
      <use xlink:href="#DejaVuSans-6c" x="1035.828125"/>
      <use xlink:href="#DejaVuSans-64" x="1063.611328"/>
     </g>
    </g>
   </g>
   <g id="line2d_39">
    <path d="M 57.6 52.662857 
L 414.72 52.662857 
" clip-path="url(#p68bf212b63)" style="fill: none; stroke-dasharray: 5.55,2.4; stroke-dashoffset: 0; stroke: #32cd32; stroke-width: 1.5"/>
   </g>
   <g id="patch_3">
    <path d="M 57.6 276.48 
L 57.6 41.472 
" style="fill: none; stroke: #000000; stroke-width: 0.8; stroke-linejoin: miter; stroke-linecap: square"/>
   </g>
   <g id="patch_4">
    <path d="M 414.72 276.48 
L 414.72 41.472 
" style="fill: none; stroke: #000000; stroke-width: 0.8; stroke-linejoin: miter; stroke-linecap: square"/>
   </g>
   <g id="patch_5">
    <path d="M 57.6 276.48 
L 414.72 276.48 
" style="fill: none; stroke: #000000; stroke-width: 0.8; stroke-linejoin: miter; stroke-linecap: square"/>
   </g>
   <g id="patch_6">
    <path d="M 57.6 41.472 
L 414.72 41.472 
" style="fill: none; stroke: #000000; stroke-width: 0.8; stroke-linejoin: miter; stroke-linecap: square"/>
   </g>
   <g id="text_18">
    <!-- MCH Tickets -->
    <g style="fill: #ffffff" transform="translate(199.504687 35.472)scale(0.12 -0.12)">
     <defs>
      <path id="DejaVuSans-43" d="M 4122 4306 
L 4122 3641 
Q 3803 3938 3442 4084 
Q 3081 4231 2675 4231 
Q 1875 4231 1450 3742 
Q 1025 3253 1025 2328 
Q 1025 1406 1450 917 
Q 1875 428 2675 428 
Q 3081 428 3442 575 
Q 3803 722 4122 1019 
L 4122 359 
Q 3791 134 3420 21 
Q 3050 -91 2638 -91 
Q 1578 -91 968 557 
Q 359 1206 359 2328 
Q 359 3453 968 4101 
Q 1578 4750 2638 4750 
Q 3056 4750 3426 4639 
Q 3797 4528 4122 4306 
z
" transform="scale(0.015625)"/>
      <path id="DejaVuSans-48" d="M 628 4666 
L 1259 4666 
L 1259 2753 
L 3553 2753 
L 3553 4666 
L 4184 4666 
L 4184 0 
L 3553 0 
L 3553 2222 
L 1259 2222 
L 1259 0 
L 628 0 
L 628 4666 
z
" transform="scale(0.015625)"/>
      <path id="DejaVuSans-54" d="M -19 4666 
L 3928 4666 
L 3928 4134 
L 2272 4134 
L 2272 0 
L 1638 0 
L 1638 4134 
L -19 4134 
L -19 4666 
z
" transform="scale(0.015625)"/>
     </defs>
     <use xlink:href="#DejaVuSans-4d"/>
     <use xlink:href="#DejaVuSans-43" x="86.279297"/>
     <use xlink:href="#DejaVuSans-48" x="156.103516"/>
     <use xlink:href="#DejaVuSans-20" x="231.298828"/>
     <use xlink:href="#DejaVuSans-54" x="263.085938"/>
     <use xlink:href="#DejaVuSans-69" x="321.044922"/>
     <use xlink:href="#DejaVuSans-63" x="348.828125"/>
     <use xlink:href="#DejaVuSans-6b" x="403.808594"/>
     <use xlink:href="#DejaVuSans-65" x="458.09375"/>
     <use xlink:href="#DejaVuSans-74" x="519.617188"/>
     <use xlink:href="#DejaVuSans-73" x="558.826172"/>
    </g>
   </g>
   <g id="legend_1">
    <g id="patch_7">
     <path d="M 64.6 93.506375 
L 244.389062 93.506375 
Q 246.389062 93.506375 246.389062 91.506375 
L 246.389062 48.472 
Q 246.389062 46.472 244.389062 46.472 
L 64.6 46.472 
Q 62.6 46.472 62.6 48.472 
L 62.6 91.506375 
Q 62.6 93.506375 64.6 93.506375 
z
" style="fill: #ffffff; opacity: 0.8; stroke: #cccccc; stroke-linejoin: miter"/>
    </g>
    <g id="patch_8">
     <path d="M 66.6 58.070437 
L 86.6 58.070437 
L 86.6 51.070437 
L 66.6 51.070437 
z
" style="fill: #fa448c; fill-opacity: 0.8"/>
    </g>
    <g id="text_19">
     <!-- Early-BirdTickets -->
     <g transform="translate(94.6 58.070437)scale(0.1 -0.1)">
      <defs>
       <path id="DejaVuSans-45" d="M 628 4666 
L 3578 4666 
L 3578 4134 
L 1259 4134 
L 1259 2753 
L 3481 2753 
L 3481 2222 
L 1259 2222 
L 1259 531 
L 3634 531 
L 3634 0 
L 628 0 
L 628 4666 
z
" transform="scale(0.015625)"/>
       <path id="DejaVuSans-61" d="M 2194 1759 
Q 1497 1759 1228 1600 
Q 959 1441 959 1056 
Q 959 750 1161 570 
Q 1363 391 1709 391 
Q 2188 391 2477 730 
Q 2766 1069 2766 1631 
L 2766 1759 
L 2194 1759 
z
M 3341 1997 
L 3341 0 
L 2766 0 
L 2766 531 
Q 2569 213 2275 61 
Q 1981 -91 1556 -91 
Q 1019 -91 701 211 
Q 384 513 384 1019 
Q 384 1609 779 1909 
Q 1175 2209 1959 2209 
L 2766 2209 
L 2766 2266 
Q 2766 2663 2505 2880 
Q 2244 3097 1772 3097 
Q 1472 3097 1187 3025 
Q 903 2953 641 2809 
L 641 3341 
Q 956 3463 1253 3523 
Q 1550 3584 1831 3584 
Q 2591 3584 2966 3190 
Q 3341 2797 3341 1997 
z
" transform="scale(0.015625)"/>
       <path id="DejaVuSans-79" d="M 2059 -325 
Q 1816 -950 1584 -1140 
Q 1353 -1331 966 -1331 
L 506 -1331 
L 506 -850 
L 844 -850 
Q 1081 -850 1212 -737 
Q 1344 -625 1503 -206 
L 1606 56 
L 191 3500 
L 800 3500 
L 1894 763 
L 2988 3500 
L 3597 3500 
L 2059 -325 
z
" transform="scale(0.015625)"/>
       <path id="DejaVuSans-2d" d="M 313 2009 
L 1997 2009 
L 1997 1497 
L 313 1497 
L 313 2009 
z
" transform="scale(0.015625)"/>
       <path id="DejaVuSans-42" d="M 1259 2228 
L 1259 519 
L 2272 519 
Q 2781 519 3026 730 
Q 3272 941 3272 1375 
Q 3272 1813 3026 2020 
Q 2781 2228 2272 2228 
L 1259 2228 
z
M 1259 4147 
L 1259 2741 
L 2194 2741 
Q 2656 2741 2882 2914 
Q 3109 3088 3109 3444 
Q 3109 3797 2882 3972 
Q 2656 4147 2194 4147 
L 1259 4147 
z
M 628 4666 
L 2241 4666 
Q 2963 4666 3353 4366 
Q 3744 4066 3744 3513 
Q 3744 3084 3544 2831 
Q 3344 2578 2956 2516 
Q 3422 2416 3680 2098 
Q 3938 1781 3938 1306 
Q 3938 681 3513 340 
Q 3088 0 2303 0 
L 628 0 
L 628 4666 
z
" transform="scale(0.015625)"/>
      </defs>
      <use xlink:href="#DejaVuSans-45"/>
      <use xlink:href="#DejaVuSans-61" x="63.183594"/>
      <use xlink:href="#DejaVuSans-72" x="124.462891"/>
      <use xlink:href="#DejaVuSans-6c" x="165.576172"/>
      <use xlink:href="#DejaVuSans-79" x="193.359375"/>
      <use xlink:href="#DejaVuSans-2d" x="250.789062"/>
      <use xlink:href="#DejaVuSans-42" x="283.248047"/>
      <use xlink:href="#DejaVuSans-69" x="351.851562"/>
      <use xlink:href="#DejaVuSans-72" x="379.634766"/>
      <use xlink:href="#DejaVuSans-64" x="418.998047"/>
      <use xlink:href="#DejaVuSans-54" x="482.474609"/>
      <use xlink:href="#DejaVuSans-69" x="540.433594"/>
      <use xlink:href="#DejaVuSans-63" x="568.216797"/>
      <use xlink:href="#DejaVuSans-6b" x="623.197266"/>
      <use xlink:href="#DejaVuSans-65" x="677.482422"/>
      <use xlink:href="#DejaVuSans-74" x="739.005859"/>
      <use xlink:href="#DejaVuSans-73" x="778.214844"/>
     </g>
    </g>
    <g id="patch_9">
     <path d="M 66.6 72.748562 
L 86.6 72.748562 
L 86.6 65.748562 
L 66.6 65.748562 
z
" style="fill: #43b5a0; fill-opacity: 0.8"/>
    </g>
    <g id="text_20">
     <!-- RegularTickets -->
     <g transform="translate(94.6 72.748562)scale(0.1 -0.1)">
      <defs>
       <path id="DejaVuSans-52" d="M 2841 2188 
Q 3044 2119 3236 1894 
Q 3428 1669 3622 1275 
L 4263 0 
L 3584 0 
L 2988 1197 
Q 2756 1666 2539 1819 
Q 2322 1972 1947 1972 
L 1259 1972 
L 1259 0 
L 628 0 
L 628 4666 
L 2053 4666 
Q 2853 4666 3247 4331 
Q 3641 3997 3641 3322 
Q 3641 2881 3436 2590 
Q 3231 2300 2841 2188 
z
M 1259 4147 
L 1259 2491 
L 2053 2491 
Q 2509 2491 2742 2702 
Q 2975 2913 2975 3322 
Q 2975 3731 2742 3939 
Q 2509 4147 2053 4147 
L 1259 4147 
z
" transform="scale(0.015625)"/>
       <path id="DejaVuSans-67" d="M 2906 1791 
Q 2906 2416 2648 2759 
Q 2391 3103 1925 3103 
Q 1463 3103 1205 2759 
Q 947 2416 947 1791 
Q 947 1169 1205 825 
Q 1463 481 1925 481 
Q 2391 481 2648 825 
Q 2906 1169 2906 1791 
z
M 3481 434 
Q 3481 -459 3084 -895 
Q 2688 -1331 1869 -1331 
Q 1566 -1331 1297 -1286 
Q 1028 -1241 775 -1147 
L 775 -588 
Q 1028 -725 1275 -790 
Q 1522 -856 1778 -856 
Q 2344 -856 2625 -561 
Q 2906 -266 2906 331 
L 2906 616 
Q 2728 306 2450 153 
Q 2172 0 1784 0 
Q 1141 0 747 490 
Q 353 981 353 1791 
Q 353 2603 747 3093 
Q 1141 3584 1784 3584 
Q 2172 3584 2450 3431 
Q 2728 3278 2906 2969 
L 2906 3500 
L 3481 3500 
L 3481 434 
z
" transform="scale(0.015625)"/>
      </defs>
      <use xlink:href="#DejaVuSans-52"/>
      <use xlink:href="#DejaVuSans-65" x="64.982422"/>
      <use xlink:href="#DejaVuSans-67" x="126.505859"/>
      <use xlink:href="#DejaVuSans-75" x="189.982422"/>
      <use xlink:href="#DejaVuSans-6c" x="253.361328"/>
      <use xlink:href="#DejaVuSans-61" x="281.144531"/>
      <use xlink:href="#DejaVuSans-72" x="342.423828"/>
      <use xlink:href="#DejaVuSans-54" x="383.537109"/>
      <use xlink:href="#DejaVuSans-69" x="441.496094"/>
      <use xlink:href="#DejaVuSans-63" x="469.279297"/>
      <use xlink:href="#DejaVuSans-6b" x="524.259766"/>
      <use xlink:href="#DejaVuSans-65" x="578.544922"/>
      <use xlink:href="#DejaVuSans-74" x="640.068359"/>
      <use xlink:href="#DejaVuSans-73" x="679.277344"/>
     </g>
    </g>
    <g id="line2d_40">
     <path d="M 66.6 83.926687 
L 76.6 83.926687 
L 86.6 83.926687 
" style="fill: none; stroke-dasharray: 5.55,2.4; stroke-dashoffset: 0; stroke: #32cd32; stroke-width: 1.5"/>
    </g>
    <g id="text_21">
     <!-- Required tickets w/ donations -->
     <g transform="translate(94.6 87.426687)scale(0.1 -0.1)">
      <defs>
       <path id="DejaVuSans-71" d="M 947 1747 
Q 947 1113 1208 752 
Q 1469 391 1925 391 
Q 2381 391 2643 752 
Q 2906 1113 2906 1747 
Q 2906 2381 2643 2742 
Q 2381 3103 1925 3103 
Q 1469 3103 1208 2742 
Q 947 2381 947 1747 
z
M 2906 525 
Q 2725 213 2448 61 
Q 2172 -91 1784 -91 
Q 1150 -91 751 415 
Q 353 922 353 1747 
Q 353 2572 751 3078 
Q 1150 3584 1784 3584 
Q 2172 3584 2448 3432 
Q 2725 3281 2906 2969 
L 2906 3500 
L 3481 3500 
L 3481 -1331 
L 2906 -1331 
L 2906 525 
z
" transform="scale(0.015625)"/>
       <path id="DejaVuSans-77" d="M 269 3500 
L 844 3500 
L 1563 769 
L 2278 3500 
L 2956 3500 
L 3675 769 
L 4391 3500 
L 4966 3500 
L 4050 0 
L 3372 0 
L 2619 2869 
L 1863 0 
L 1184 0 
L 269 3500 
z
" transform="scale(0.015625)"/>
      </defs>
      <use xlink:href="#DejaVuSans-52"/>
      <use xlink:href="#DejaVuSans-65" x="64.982422"/>
      <use xlink:href="#DejaVuSans-71" x="126.505859"/>
      <use xlink:href="#DejaVuSans-75" x="189.982422"/>
      <use xlink:href="#DejaVuSans-69" x="253.361328"/>
      <use xlink:href="#DejaVuSans-72" x="281.144531"/>
      <use xlink:href="#DejaVuSans-65" x="320.007812"/>
      <use xlink:href="#DejaVuSans-64" x="381.53125"/>
      <use xlink:href="#DejaVuSans-20" x="445.007812"/>
      <use xlink:href="#DejaVuSans-74" x="476.794922"/>
      <use xlink:href="#DejaVuSans-69" x="516.003906"/>
      <use xlink:href="#DejaVuSans-63" x="543.787109"/>
      <use xlink:href="#DejaVuSans-6b" x="598.767578"/>
      <use xlink:href="#DejaVuSans-65" x="653.052734"/>
      <use xlink:href="#DejaVuSans-74" x="714.576172"/>
      <use xlink:href="#DejaVuSans-73" x="753.785156"/>
      <use xlink:href="#DejaVuSans-20" x="805.884766"/>
      <use xlink:href="#DejaVuSans-77" x="837.671875"/>
      <use xlink:href="#DejaVuSans-2f" x="919.458984"/>
      <use xlink:href="#DejaVuSans-20" x="953.150391"/>
      <use xlink:href="#DejaVuSans-64" x="984.9375"/>
      <use xlink:href="#DejaVuSans-6f" x="1048.414062"/>
      <use xlink:href="#DejaVuSans-6e" x="1109.595703"/>
      <use xlink:href="#DejaVuSans-61" x="1172.974609"/>
      <use xlink:href="#DejaVuSans-74" x="1234.253906"/>
      <use xlink:href="#DejaVuSans-69" x="1273.462891"/>
      <use xlink:href="#DejaVuSans-6f" x="1301.246094"/>
      <use xlink:href="#DejaVuSans-6e" x="1362.427734"/>
      <use xlink:href="#DejaVuSans-73" x="1425.806641"/>
     </g>
    </g>
   </g>
  </g>
 </g>
 <defs>
  <clipPath id="p68bf212b63">
   <rect x="57.6" y="41.472" width="357.12" height="235.008"/>
  </clipPath>
 </defs>
</svg>
