<?xml version="1.0" encoding="utf-8" standalone="no"?>
<!DOCTYPE svg PUBLIC "-//W3C//DTD SVG 1.1//EN"
  "http://www.w3.org/Graphics/SVG/1.1/DTD/svg11.dtd">
<svg xmlns:xlink="http://www.w3.org/1999/xlink" width="460.8pt" height="345.6pt" viewBox="0 0 460.8 345.6" xmlns="http://www.w3.org/2000/svg" version="1.1">
 <metadata>
  <rdf:RDF xmlns:dc="http://purl.org/dc/elements/1.1/" xmlns:cc="http://creativecommons.org/ns#" xmlns:rdf="http://www.w3.org/1999/02/22-rdf-syntax-ns#">
   <cc:Work>
    <dc:type rdf:resource="http://purl.org/dc/dcmitype/StillImage"/>
    <dc:date>2022-01-18T06:44:01.022382</dc:date>
    <dc:format>image/svg+xml</dc:format>
    <dc:creator>
     <cc:Agent>
      <dc:title>Matplotlib v3.5.1, https://matplotlib.org/</dc:title>
     </cc:Agent>
    </dc:creator>
   </cc:Work>
  </rdf:RDF>
 </metadata>
 <defs>
  <style type="text/css">*{stroke-linejoin: round; stroke-linecap: butt}</style>
 </defs>
 <g id="figure_1">
  <g id="patch_1">
   <path d="M 0 345.6 
L 460.8 345.6 
L 460.8 0 
L 0 0 
L 0 345.6 
z
" style="fill: none; opacity: 0"/>
  </g>
  <g id="axes_1">
   <g id="patch_2">
    <path d="M 57.6 276.48 
L 414.72 276.48 
L 414.72 41.472 
L 57.6 41.472 
z
" style="fill: #fec859"/>
   </g>
   <g id="PolyCollection_1">
    <path d="M 73.832727 276.48 
L 73.832727 276.48 
L 73.832727 276.48 
L 73.832727 276.48 
L 74.321125 276.48 
L 74.321125 276.48 
L 74.809523 276.48 
L 74.809523 276.48 
L 75.297921 276.48 
L 75.297921 276.48 
L 75.786319 276.48 
L 75.786319 276.48 
L 76.274717 276.48 
L 76.274717 276.48 
L 76.763115 276.48 
L 76.763115 276.48 
L 77.251513 276.48 
L 77.251513 276.48 
L 77.739911 276.48 
L 77.739911 276.48 
L 78.228309 276.48 
L 78.228309 276.48 
L 78.716707 276.48 
L 78.716707 276.48 
L 79.205105 276.48 
L 79.205105 276.48 
L 79.693503 276.48 
L 79.693503 276.48 
L 80.181901 276.48 
L 80.181901 276.48 
L 80.670299 276.48 
L 80.670299 276.48 
L 81.158697 276.48 
L 81.158697 276.48 
L 81.647095 276.48 
L 81.647095 276.48 
L 82.623891 276.48 
L 82.623891 276.48 
L 83.112289 276.48 
L 83.112289 276.48 
L 83.600687 276.48 
L 83.600687 276.48 
L 84.089085 276.48 
L 84.089085 276.48 
L 84.577483 276.48 
L 84.577483 276.48 
L 85.065881 276.48 
L 85.065881 276.48 
L 85.554279 276.48 
L 85.554279 276.48 
L 86.042677 276.48 
L 86.042677 276.48 
L 86.531075 276.48 
L 86.531075 276.48 
L 87.019473 276.48 
L 87.019473 276.48 
L 87.996269 276.48 
L 87.996269 276.48 
L 88.973064 276.48 
L 88.973064 276.48 
L 89.461462 276.48 
L 89.461462 276.48 
L 89.94986 276.48 
L 89.94986 276.48 
L 93.368646 276.48 
L 93.368646 276.48 
L 93.857044 276.48 
L 93.857044 276.48 
L 94.345442 276.48 
L 94.345442 276.48 
L 94.83384 276.48 
L 94.83384 276.48 
L 95.322238 276.48 
L 95.322238 276.48 
L 95.810636 276.48 
L 95.810636 276.48 
L 96.299034 276.48 
L 96.299034 276.48 
L 96.787432 276.48 
L 96.787432 276.48 
L 97.27583 276.48 
L 97.27583 276.48 
L 97.764228 276.48 
L 97.764228 276.48 
L 98.252626 276.48 
L 98.252626 276.48 
L 98.741024 276.48 
L 98.741024 276.48 
L 99.229422 276.48 
L 99.229422 276.48 
L 99.71782 276.48 
L 99.71782 276.48 
L 100.206218 276.48 
L 100.206218 276.48 
L 100.694616 276.48 
L 100.694616 276.48 
L 101.183014 276.48 
L 101.183014 276.48 
L 101.671412 276.48 
L 101.671412 276.48 
L 104.6018 276.48 
L 104.6018 276.48 
L 106.066994 276.48 
L 106.066994 276.48 
L 106.555392 276.48 
L 106.555392 276.48 
L 107.043789 276.48 
L 107.043789 276.48 
L 108.020585 276.48 
L 108.020585 276.48 
L 108.508983 276.48 
L 108.508983 276.48 
L 108.997381 276.48 
L 108.997381 276.48 
L 109.485779 276.48 
L 109.485779 276.48 
L 109.974177 276.48 
L 109.974177 276.48 
L 110.462575 276.48 
L 110.462575 276.48 
L 110.950973 276.48 
L 110.950973 276.48 
L 111.439371 276.48 
L 111.439371 276.48 
L 111.927769 276.48 
L 111.927769 276.48 
L 112.416167 276.48 
L 112.416167 276.48 
L 112.904565 276.48 
L 112.904565 276.48 
L 113.392963 276.48 
L 113.392963 276.48 
L 117.788545 276.48 
L 117.788545 276.48 
L 118.765341 276.48 
L 118.765341 276.48 
L 119.253739 276.48 
L 119.253739 276.48 
L 119.742137 276.48 
L 119.742137 276.48 
L 120.230535 276.48 
L 120.230535 276.48 
L 122.184127 276.48 
L 122.184127 276.48 
L 130.486892 276.48 
L 130.486892 276.48 
L 131.463688 276.48 
L 131.463688 276.48 
L 131.952086 276.48 
L 131.952086 276.48 
L 132.928882 276.48 
L 132.928882 276.48 
L 133.41728 276.48 
L 133.41728 276.48 
L 134.882474 276.48 
L 134.882474 276.48 
L 136.836066 276.48 
L 136.836066 276.48 
L 137.324464 276.48 
L 137.324464 276.48 
L 141.231648 276.48 
L 141.231648 276.48 
L 141.720046 276.48 
L 141.720046 276.48 
L 142.208444 276.48 
L 142.208444 276.48 
L 142.696842 276.48 
L 142.696842 276.48 
L 143.18524 276.48 
L 143.18524 276.48 
L 143.673638 276.48 
L 143.673638 276.48 
L 144.162036 276.48 
L 144.162036 276.48 
L 144.650433 276.48 
L 144.650433 276.48 
L 145.138831 276.48 
L 145.138831 276.48 
L 146.115627 276.48 
L 146.115627 276.48 
L 146.604025 276.48 
L 146.604025 276.48 
L 147.092423 276.48 
L 147.092423 276.48 
L 147.580821 276.48 
L 147.580821 276.48 
L 148.069219 276.48 
L 148.069219 276.48 
L 148.557617 276.48 
L 148.557617 276.48 
L 149.534413 276.48 
L 149.534413 276.48 
L 151.488005 276.48 
L 151.488005 276.48 
L 153.441597 276.48 
L 153.441597 276.48 
L 154.418393 276.48 
L 154.418393 276.48 
L 155.395189 276.48 
L 155.395189 276.48 
L 156.371985 276.48 
L 156.371985 276.48 
L 156.860383 276.48 
L 156.860383 276.48 
L 157.837179 276.48 
L 157.837179 276.48 
L 158.325577 276.48 
L 158.325577 276.48 
L 158.813975 276.48 
L 158.813975 276.48 
L 159.302373 276.48 
L 159.302373 276.48 
L 159.790771 276.48 
L 159.790771 276.48 
L 160.279169 276.48 
L 160.279169 276.48 
L 164.186352 276.48 
L 164.186352 276.48 
L 164.67475 276.48 
L 164.67475 276.48 
L 165.163148 276.48 
L 165.163148 276.48 
L 165.651546 276.48 
L 165.651546 276.48 
L 166.139944 276.48 
L 166.139944 276.48 
L 166.628342 276.48 
L 166.628342 276.48 
L 167.11674 276.48 
L 167.11674 276.48 
L 167.605138 276.48 
L 167.605138 276.48 
L 168.581934 276.48 
L 168.581934 276.48 
L 169.55873 276.48 
L 169.55873 276.48 
L 170.535526 276.48 
L 170.535526 276.48 
L 171.023924 276.48 
L 171.023924 276.48 
L 171.512322 276.48 
L 171.512322 276.48 
L 172.00072 276.48 
L 172.00072 276.48 
L 172.977516 276.48 
L 172.977516 276.48 
L 173.465914 276.48 
L 173.465914 276.48 
L 173.954312 276.48 
L 173.954312 276.48 
L 175.907904 276.48 
L 175.907904 276.48 
L 177.373098 276.48 
L 177.373098 276.48 
L 177.861496 276.48 
L 177.861496 276.48 
L 179.815088 276.48 
L 179.815088 276.48 
L 180.791884 276.48 
L 180.791884 276.48 
L 181.280282 276.48 
L 181.280282 276.48 
L 181.768679 276.48 
L 181.768679 276.48 
L 182.257077 276.48 
L 182.257077 276.48 
L 182.745475 276.48 
L 182.745475 276.48 
L 183.233873 276.48 
L 183.233873 276.48 
L 184.210669 276.48 
L 184.210669 276.48 
L 187.141057 276.48 
L 187.141057 276.48 
L 187.629455 276.48 
L 187.629455 276.48 
L 188.117853 276.48 
L 188.117853 276.48 
L 189.094649 276.48 
L 189.094649 276.48 
L 189.583047 276.48 
L 189.583047 276.48 
L 190.559843 276.48 
L 190.559843 276.48 
L 191.048241 276.48 
L 191.048241 276.48 
L 192.513435 276.48 
L 192.513435 276.48 
L 193.001833 276.48 
L 193.001833 276.48 
L 193.978629 276.48 
L 193.978629 276.48 
L 194.467027 276.48 
L 194.467027 276.48 
L 194.955425 276.48 
L 194.955425 276.48 
L 195.443823 276.48 
L 195.443823 276.48 
L 195.932221 276.48 
L 195.932221 276.48 
L 200.8162 276.48 
L 200.8162 276.48 
L 201.792996 276.48 
L 201.792996 276.48 
L 202.281394 276.48 
L 202.281394 276.48 
L 203.746588 276.48 
L 203.746588 276.48 
L 204.234986 276.48 
L 204.234986 276.48 
L 204.723384 276.48 
L 204.723384 276.48 
L 206.188578 276.48 
L 206.188578 276.48 
L 206.676976 276.48 
L 206.676976 276.48 
L 211.560956 276.48 
L 211.560956 276.48 
L 212.537752 276.48 
L 212.537752 276.48 
L 213.514548 276.48 
L 213.514548 276.48 
L 214.002946 276.48 
L 214.002946 276.48 
L 214.491344 276.48 
L 214.491344 276.48 
L 214.979742 276.48 
L 214.979742 276.48 
L 215.46814 276.48 
L 215.46814 276.48 
L 216.444936 276.48 
L 216.444936 276.48 
L 217.421732 276.48 
L 217.421732 276.48 
L 218.398528 276.48 
L 218.398528 276.48 
L 218.886926 276.48 
L 218.886926 276.48 
L 219.375323 276.48 
L 219.375323 276.48 
L 223.282507 276.48 
L 223.282507 276.48 
L 224.747701 276.48 
L 224.747701 276.48 
L 225.236099 276.48 
L 225.236099 276.48 
L 226.701293 276.48 
L 226.701293 276.48 
L 227.678089 276.48 
L 227.678089 276.48 
L 228.166487 276.48 
L 228.166487 276.48 
L 228.654885 276.48 
L 228.654885 276.48 
L 229.143283 276.48 
L 229.143283 276.48 
L 230.120079 276.48 
L 230.120079 276.48 
L 234.515661 276.48 
L 234.515661 276.48 
L 236.957651 276.48 
L 236.957651 276.48 
L 237.446049 276.48 
L 237.446049 276.48 
L 238.911242 276.48 
L 238.911242 276.48 
L 239.888038 276.48 
L 239.888038 276.48 
L 240.376436 276.48 
L 240.376436 276.48 
L 240.864834 276.48 
L 240.864834 276.48 
L 241.353232 276.48 
L 241.353232 276.48 
L 241.84163 276.48 
L 241.84163 276.48 
L 242.330028 276.48 
L 242.330028 276.48 
L 246.237212 276.48 
L 246.237212 276.48 
L 247.214008 276.48 
L 247.214008 276.48 
L 247.702406 276.48 
L 247.702406 276.48 
L 248.190804 276.48 
L 248.190804 276.48 
L 248.679202 276.48 
L 248.679202 276.48 
L 249.1676 276.48 
L 249.1676 276.48 
L 249.655998 276.48 
L 249.655998 276.48 
L 250.144396 276.48 
L 250.144396 276.48 
L 250.632794 276.48 
L 250.632794 276.48 
L 251.60959 276.48 
L 251.60959 276.48 
L 257.958763 276.48 
L 257.958763 276.48 
L 259.912355 276.48 
L 259.912355 276.48 
L 260.889151 276.48 
L 260.889151 276.48 
L 261.377549 276.48 
L 261.377549 276.48 
L 262.842743 276.48 
L 262.842743 276.48 
L 263.331141 276.48 
L 263.331141 276.48 
L 263.819539 276.48 
L 263.819539 276.48 
L 265.284733 276.48 
L 265.284733 276.48 
L 266.749927 276.48 
L 266.749927 276.48 
L 270.168713 276.48 
L 270.168713 276.48 
L 270.657111 276.48 
L 270.657111 276.48 
L 271.145509 276.48 
L 271.145509 276.48 
L 271.633907 276.48 
L 271.633907 276.48 
L 272.122305 276.48 
L 272.122305 276.48 
L 273.587499 276.48 
L 273.587499 276.48 
L 275.052692 276.48 
L 275.052692 276.48 
L 276.517886 276.48 
L 276.517886 276.48 
L 284.332254 276.48 
L 284.332254 276.48 
L 286.285846 276.48 
L 286.285846 276.48 
L 286.774244 276.48 
L 286.774244 276.48 
L 295.565407 276.48 
L 295.565407 276.48 
L 296.053805 276.48 
L 296.053805 276.48 
L 296.542203 276.48 
L 296.542203 276.48 
L 297.518999 276.48 
L 297.518999 276.48 
L 298.007397 276.48 
L 298.007397 276.48 
L 298.495795 276.48 
L 298.495795 276.48 
L 299.472591 276.48 
L 299.472591 276.48 
L 303.868173 276.48 
L 303.868173 276.48 
L 304.844969 276.48 
L 304.844969 276.48 
L 306.310163 276.48 
L 306.310163 276.48 
L 307.286959 276.48 
L 307.286959 276.48 
L 309.240551 276.48 
L 309.240551 276.48 
L 312.170939 276.48 
L 312.170939 276.48 
L 318.520112 276.48 
L 318.520112 276.48 
L 319.00851 276.48 
L 319.00851 276.48 
L 320.473704 276.48 
L 320.473704 276.48 
L 321.4505 276.48 
L 321.4505 276.48 
L 321.938898 276.48 
L 321.938898 276.48 
L 322.915694 276.48 
L 322.915694 276.48 
L 327.311276 276.48 
L 327.311276 276.48 
L 328.77647 276.48 
L 328.77647 276.48 
L 329.753266 276.48 
L 329.753266 276.48 
L 330.241664 276.48 
L 330.241664 276.48 
L 330.730062 276.48 
L 330.730062 276.48 
L 332.683653 276.48 
L 332.683653 276.48 
L 334.148847 276.48 
L 334.148847 276.48 
L 334.637245 276.48 
L 334.637245 276.48 
L 335.125643 276.48 
L 335.125643 276.48 
L 335.614041 276.48 
L 335.614041 276.48 
L 340.498021 276.48 
L 340.498021 276.48 
L 341.474817 276.48 
L 341.474817 276.48 
L 343.916807 276.48 
L 343.916807 276.48 
L 346.358797 276.48 
L 346.358797 276.48 
L 346.847195 276.48 
L 346.847195 276.48 
L 347.335593 276.48 
L 347.335593 276.48 
L 348.312389 276.48 
L 348.312389 276.48 
L 350.754378 276.48 
L 350.754378 276.48 
L 351.731174 276.48 
L 351.731174 276.48 
L 353.684766 276.48 
L 353.684766 276.48 
L 357.59195 276.48 
L 357.59195 276.48 
L 359.545542 276.48 
L 359.545542 276.48 
L 362.420903 276.48 
L 362.420903 276.48 
L 362.621123 276.48 
L 362.621123 276.48 
L 362.795855 276.48 
L 362.795855 276.48 
L 363.142289 276.48 
L 363.142289 276.48 
L 363.361987 276.48 
L 363.361987 276.48 
L 363.592558 276.48 
L 363.592558 276.48 
L 363.765232 276.48 
L 363.765232 276.48 
L 364.121362 276.48 
L 364.121362 276.48 
L 364.315511 276.48 
L 364.315511 276.48 
L 364.576868 276.48 
L 364.576868 276.48 
L 364.768904 276.48 
L 364.768904 276.48 
L 365.074635 276.48 
L 365.074635 276.48 
L 365.266892 276.48 
L 365.266892 276.48 
L 365.525773 276.48 
L 365.525773 276.48 
L 365.70696 276.48 
L 365.70696 276.48 
L 366.131109 276.48 
L 366.131109 276.48 
L 366.406443 276.48 
L 366.406443 276.48 
L 366.723578 276.48 
L 366.723578 276.48 
L 366.747712 276.48 
L 366.747712 276.48 
L 366.761929 276.48 
L 366.761929 276.48 
L 367.003095 276.48 
L 367.003095 276.48 
L 367.187392 276.48 
L 367.187392 276.48 
L 367.51123 276.48 
L 367.51123 276.48 
L 367.720582 276.48 
L 367.720582 276.48 
L 368.072988 276.48 
L 368.072988 276.48 
L 368.769453 276.48 
L 368.769453 276.48 
L 368.789614 276.48 
L 368.789614 276.48 
L 368.814528 276.48 
L 368.814528 276.48 
L 368.997546 276.48 
L 368.997546 276.48 
L 369.204651 276.48 
L 369.204651 276.48 
L 369.429575 276.48 
L 369.429575 276.48 
L 369.614924 276.48 
L 369.614924 276.48 
L 369.955113 276.48 
L 369.955113 276.48 
L 370.413564 276.48 
L 370.413564 276.48 
L 375.839056 276.48 
L 375.839056 276.48 
L 377.246569 276.48 
L 377.246569 276.48 
L 378.446124 276.48 
L 378.446124 276.48 
L 378.72448 276.48 
L 378.72448 276.48 
L 380.089906 276.48 
L 380.089906 276.48 
L 380.436131 276.48 
L 380.436131 276.48 
L 380.715876 276.48 
L 380.715876 276.48 
L 381.152564 276.48 
L 381.152564 276.48 
L 388.528302 276.48 
L 388.528302 276.48 
L 391.528194 276.48 
L 391.528194 276.48 
L 393.589209 276.48 
L 393.589209 276.48 
L 393.862418 276.48 
L 393.862418 276.48 
L 394.860309 276.48 
L 394.860309 276.48 
L 395.719618 276.48 
L 395.719618 276.48 
L 398.487273 276.48 
L 398.487273 276.48 
L 398.487273 200.083749 
L 398.487273 200.083749 
L 398.487273 200.083749 
L 395.719618 200.083749 
L 395.719618 200.083749 
L 394.860309 200.083749 
L 394.860309 200.083749 
L 393.862418 200.083749 
L 393.862418 200.083749 
L 393.589209 200.083749 
L 393.589209 200.083749 
L 391.528194 200.083749 
L 391.528194 200.083749 
L 388.528302 200.083749 
L 388.528302 200.083749 
L 381.152564 200.083749 
L 381.152564 200.083749 
L 380.715876 200.083749 
L 380.715876 200.083749 
L 380.436131 200.083749 
L 380.436131 200.083749 
L 380.089906 200.083749 
L 380.089906 200.083749 
L 378.72448 200.083749 
L 378.72448 200.083749 
L 378.446124 200.083749 
L 378.446124 200.083749 
L 377.246569 200.083749 
L 377.246569 200.083749 
L 375.839056 200.083749 
L 375.839056 200.083749 
L 370.413564 200.083749 
L 370.413564 200.083749 
L 369.955113 200.083749 
L 369.955113 200.083749 
L 369.614924 200.083749 
L 369.614924 200.083749 
L 369.429575 200.083749 
L 369.429575 200.083749 
L 369.204651 200.083749 
L 369.204651 200.083749 
L 368.997546 200.083749 
L 368.997546 200.083749 
L 368.814528 200.083749 
L 368.814528 200.083749 
L 368.789614 200.083749 
L 368.789614 200.083749 
L 368.769453 200.083749 
L 368.769453 200.083749 
L 368.072988 200.083749 
L 368.072988 200.083749 
L 367.720582 200.083749 
L 367.720582 200.083749 
L 367.51123 200.083749 
L 367.51123 200.083749 
L 367.187392 200.083749 
L 367.187392 200.083749 
L 367.003095 200.083749 
L 367.003095 200.083749 
L 366.761929 200.083749 
L 366.761929 200.083749 
L 366.747712 200.083749 
L 366.747712 200.083749 
L 366.723578 200.083749 
L 366.723578 200.083749 
L 366.406443 200.083749 
L 366.406443 200.083749 
L 366.131109 200.083749 
L 366.131109 200.083749 
L 365.70696 200.083749 
L 365.70696 200.083749 
L 365.525773 200.083749 
L 365.525773 200.083749 
L 365.266892 200.083749 
L 365.266892 200.083749 
L 365.074635 200.083749 
L 365.074635 200.083749 
L 364.768904 200.083749 
L 364.768904 200.083749 
L 364.576868 200.083749 
L 364.576868 200.083749 
L 364.315511 200.083749 
L 364.315511 200.083749 
L 364.121362 200.083749 
L 364.121362 200.083749 
L 363.765232 200.083749 
L 363.765232 200.083749 
L 363.592558 200.083749 
L 363.592558 200.083749 
L 363.361987 200.083749 
L 363.361987 200.083749 
L 363.142289 200.083749 
L 363.142289 200.083749 
L 362.795855 200.083749 
L 362.795855 200.083749 
L 362.621123 200.083749 
L 362.621123 200.083749 
L 362.420903 200.083749 
L 362.420903 202.023497 
L 359.545542 202.023497 
L 359.545542 202.023497 
L 357.59195 202.023497 
L 357.59195 202.023497 
L 353.684766 202.023497 
L 353.684766 202.023497 
L 351.731174 202.023497 
L 351.731174 202.023497 
L 350.754378 202.023497 
L 350.754378 202.023497 
L 348.312389 202.023497 
L 348.312389 202.023497 
L 347.335593 202.023497 
L 347.335593 202.023497 
L 346.847195 202.023497 
L 346.847195 202.023497 
L 346.358797 202.023497 
L 346.358797 202.023497 
L 343.916807 202.023497 
L 343.916807 202.023497 
L 341.474817 202.023497 
L 341.474817 202.023497 
L 340.498021 202.023497 
L 340.498021 202.023497 
L 335.614041 202.023497 
L 335.614041 202.023497 
L 335.125643 202.023497 
L 335.125643 202.023497 
L 334.637245 202.023497 
L 334.637245 202.023497 
L 334.148847 202.023497 
L 334.148847 202.023497 
L 332.683653 202.023497 
L 332.683653 202.023497 
L 330.730062 202.023497 
L 330.730062 202.023497 
L 330.241664 202.023497 
L 330.241664 202.023497 
L 329.753266 202.023497 
L 329.753266 202.023497 
L 328.77647 202.023497 
L 328.77647 202.023497 
L 327.311276 202.023497 
L 327.311276 202.023497 
L 322.915694 202.023497 
L 322.915694 202.023497 
L 321.938898 202.023497 
L 321.938898 202.023497 
L 321.4505 202.023497 
L 321.4505 202.023497 
L 320.473704 202.023497 
L 320.473704 202.023497 
L 319.00851 202.023497 
L 319.00851 202.023497 
L 318.520112 202.023497 
L 318.520112 202.023497 
L 312.170939 202.023497 
L 312.170939 202.023497 
L 309.240551 202.023497 
L 309.240551 202.023497 
L 307.286959 202.023497 
L 307.286959 202.023497 
L 306.310163 202.023497 
L 306.310163 202.023497 
L 304.844969 202.023497 
L 304.844969 202.023497 
L 303.868173 202.023497 
L 303.868173 202.023497 
L 299.472591 202.023497 
L 299.472591 202.023497 
L 298.495795 202.023497 
L 298.495795 202.023497 
L 298.007397 202.023497 
L 298.007397 202.023497 
L 297.518999 202.023497 
L 297.518999 202.023497 
L 296.542203 202.023497 
L 296.542203 202.023497 
L 296.053805 202.023497 
L 296.053805 202.023497 
L 295.565407 202.023497 
L 295.565407 202.023497 
L 286.774244 202.023497 
L 286.774244 202.023497 
L 286.285846 202.023497 
L 286.285846 202.023497 
L 284.332254 202.023497 
L 284.332254 202.023497 
L 276.517886 202.023497 
L 276.517886 202.023497 
L 275.052692 202.023497 
L 275.052692 202.023497 
L 273.587499 202.023497 
L 273.587499 202.023497 
L 272.122305 202.023497 
L 272.122305 202.023497 
L 271.633907 202.023497 
L 271.633907 202.023497 
L 271.145509 202.023497 
L 271.145509 202.023497 
L 270.657111 202.023497 
L 270.657111 202.023497 
L 270.168713 202.023497 
L 270.168713 202.023497 
L 266.749927 202.023497 
L 266.749927 202.023497 
L 265.284733 202.023497 
L 265.284733 202.023497 
L 263.819539 202.023497 
L 263.819539 202.023497 
L 263.331141 202.023497 
L 263.331141 202.023497 
L 262.842743 202.023497 
L 262.842743 202.023497 
L 261.377549 202.023497 
L 261.377549 202.023497 
L 260.889151 202.023497 
L 260.889151 202.023497 
L 259.912355 202.023497 
L 259.912355 202.023497 
L 257.958763 202.023497 
L 257.958763 202.023497 
L 251.60959 202.023497 
L 251.60959 202.023497 
L 250.632794 202.023497 
L 250.632794 202.023497 
L 250.144396 202.023497 
L 250.144396 202.023497 
L 249.655998 202.023497 
L 249.655998 202.023497 
L 249.1676 202.023497 
L 249.1676 202.023497 
L 248.679202 202.023497 
L 248.679202 202.023497 
L 248.190804 202.023497 
L 248.190804 202.023497 
L 247.702406 202.023497 
L 247.702406 202.023497 
L 247.214008 202.023497 
L 247.214008 202.023497 
L 246.237212 202.023497 
L 246.237212 202.023497 
L 242.330028 202.023497 
L 242.330028 202.023497 
L 241.84163 202.023497 
L 241.84163 202.023497 
L 241.353232 202.023497 
L 241.353232 202.023497 
L 240.864834 202.023497 
L 240.864834 202.023497 
L 240.376436 202.023497 
L 240.376436 202.023497 
L 239.888038 202.023497 
L 239.888038 202.023497 
L 238.911242 202.023497 
L 238.911242 202.023497 
L 237.446049 202.023497 
L 237.446049 202.023497 
L 236.957651 202.023497 
L 236.957651 202.023497 
L 234.515661 202.023497 
L 234.515661 202.023497 
L 230.120079 202.023497 
L 230.120079 202.023497 
L 229.143283 202.023497 
L 229.143283 202.023497 
L 228.654885 202.023497 
L 228.654885 202.023497 
L 228.166487 202.023497 
L 228.166487 202.023497 
L 227.678089 202.023497 
L 227.678089 202.023497 
L 226.701293 202.023497 
L 226.701293 202.023497 
L 225.236099 202.023497 
L 225.236099 202.023497 
L 224.747701 202.023497 
L 224.747701 202.023497 
L 223.282507 202.023497 
L 223.282507 202.023497 
L 219.375323 202.023497 
L 219.375323 202.023497 
L 218.886926 202.023497 
L 218.886926 202.023497 
L 218.398528 202.023497 
L 218.398528 202.023497 
L 217.421732 202.023497 
L 217.421732 202.023497 
L 216.444936 202.023497 
L 216.444936 202.023497 
L 215.46814 202.023497 
L 215.46814 202.023497 
L 214.979742 202.023497 
L 214.979742 202.023497 
L 214.491344 202.023497 
L 214.491344 202.023497 
L 214.002946 202.023497 
L 214.002946 202.023497 
L 213.514548 202.023497 
L 213.514548 202.023497 
L 212.537752 202.023497 
L 212.537752 202.023497 
L 211.560956 202.023497 
L 211.560956 202.023497 
L 206.676976 202.023497 
L 206.676976 202.023497 
L 206.188578 202.023497 
L 206.188578 202.023497 
L 204.723384 202.023497 
L 204.723384 202.172709 
L 204.234986 202.172709 
L 204.234986 202.471131 
L 203.746588 202.471131 
L 203.746588 202.620343 
L 202.281394 202.620343 
L 202.281394 203.067977 
L 201.792996 203.067977 
L 201.792996 203.217189 
L 200.8162 203.217189 
L 200.8162 203.3664 
L 195.932221 203.3664 
L 195.932221 203.664823 
L 195.443823 203.664823 
L 195.443823 203.664823 
L 194.955425 203.664823 
L 194.955425 203.963246 
L 194.467027 203.963246 
L 194.467027 204.41088 
L 193.978629 204.41088 
L 193.978629 204.41088 
L 193.001833 204.41088 
L 193.001833 204.709303 
L 192.513435 204.709303 
L 192.513435 204.858514 
L 191.048241 204.858514 
L 191.048241 205.156937 
L 190.559843 205.156937 
L 190.559843 206.649051 
L 189.583047 206.649051 
L 189.583047 206.947474 
L 189.094649 206.947474 
L 189.094649 207.096686 
L 188.117853 207.096686 
L 188.117853 207.693531 
L 187.629455 207.693531 
L 187.629455 207.693531 
L 187.141057 207.693531 
L 187.141057 207.842743 
L 184.210669 207.842743 
L 184.210669 208.141166 
L 183.233873 208.141166 
L 183.233873 208.5888 
L 182.745475 208.5888 
L 182.745475 208.887223 
L 182.257077 208.887223 
L 182.257077 209.782491 
L 181.768679 209.782491 
L 181.768679 210.230126 
L 181.280282 210.230126 
L 181.280282 211.125394 
L 180.791884 211.125394 
L 180.791884 211.573029 
L 179.815088 211.573029 
L 179.815088 211.72224 
L 177.861496 211.72224 
L 177.861496 211.871451 
L 177.373098 211.871451 
L 177.373098 212.169874 
L 175.907904 212.169874 
L 175.907904 212.169874 
L 173.954312 212.169874 
L 173.954312 212.468297 
L 173.465914 212.468297 
L 173.465914 212.617509 
L 172.977516 212.617509 
L 172.977516 212.76672 
L 172.00072 212.76672 
L 172.00072 213.214354 
L 171.512322 213.214354 
L 171.512322 213.214354 
L 171.023924 213.214354 
L 171.023924 213.512777 
L 170.535526 213.512777 
L 170.535526 214.258834 
L 169.55873 214.258834 
L 169.55873 214.557257 
L 168.581934 214.557257 
L 168.581934 214.557257 
L 167.605138 214.557257 
L 167.605138 214.706469 
L 167.11674 214.706469 
L 167.11674 214.85568 
L 166.628342 214.85568 
L 166.628342 215.154103 
L 166.139944 215.154103 
L 166.139944 215.303314 
L 165.651546 215.303314 
L 165.651546 215.452526 
L 165.163148 215.452526 
L 165.163148 215.750949 
L 164.67475 215.750949 
L 164.67475 215.750949 
L 164.186352 215.750949 
L 164.186352 215.90016 
L 160.279169 215.90016 
L 160.279169 215.90016 
L 159.790771 215.90016 
L 159.790771 216.198583 
L 159.302373 216.198583 
L 159.302373 216.347794 
L 158.813975 216.347794 
L 158.813975 216.497006 
L 158.325577 216.497006 
L 158.325577 216.646217 
L 157.837179 216.646217 
L 157.837179 216.94464 
L 156.860383 216.94464 
L 156.860383 216.94464 
L 156.371985 216.94464 
L 156.371985 217.243063 
L 155.395189 217.243063 
L 155.395189 217.541486 
L 154.418393 217.541486 
L 154.418393 217.98912 
L 153.441597 217.98912 
L 153.441597 218.287543 
L 151.488005 218.287543 
L 151.488005 218.287543 
L 149.534413 218.287543 
L 149.534413 218.436754 
L 148.557617 218.436754 
L 148.557617 218.735177 
L 148.069219 218.735177 
L 148.069219 218.884389 
L 147.580821 218.884389 
L 147.580821 219.182811 
L 147.092423 219.182811 
L 147.092423 219.481234 
L 146.604025 219.481234 
L 146.604025 219.779657 
L 146.115627 219.779657 
L 146.115627 219.928869 
L 145.138831 219.928869 
L 145.138831 220.227291 
L 144.650433 220.227291 
L 144.650433 220.525714 
L 144.162036 220.525714 
L 144.162036 220.973349 
L 143.673638 220.973349 
L 143.673638 221.271771 
L 143.18524 221.271771 
L 143.18524 221.570194 
L 142.696842 221.570194 
L 142.696842 221.719406 
L 142.208444 221.719406 
L 142.208444 222.316251 
L 141.720046 222.316251 
L 141.720046 222.465463 
L 141.231648 222.465463 
L 141.231648 222.763886 
L 137.324464 222.763886 
L 137.324464 223.509943 
L 136.836066 223.509943 
L 136.836066 223.659154 
L 134.882474 223.659154 
L 134.882474 224.256 
L 133.41728 224.256 
L 133.41728 224.554423 
L 132.928882 224.554423 
L 132.928882 225.002057 
L 131.952086 225.002057 
L 131.952086 225.151269 
L 131.463688 225.151269 
L 131.463688 225.30048 
L 130.486892 225.30048 
L 130.486892 225.449691 
L 122.184127 225.449691 
L 122.184127 225.598903 
L 120.230535 225.598903 
L 120.230535 225.748114 
L 119.742137 225.748114 
L 119.742137 226.046537 
L 119.253739 226.046537 
L 119.253739 226.195749 
L 118.765341 226.195749 
L 118.765341 226.34496 
L 117.788545 226.34496 
L 117.788545 226.643383 
L 113.392963 226.643383 
L 113.392963 227.240229 
L 112.904565 227.240229 
L 112.904565 227.38944 
L 112.416167 227.38944 
L 112.416167 227.538651 
L 111.927769 227.538651 
L 111.927769 227.687863 
L 111.439371 227.687863 
L 111.439371 227.837074 
L 110.950973 227.837074 
L 110.950973 227.837074 
L 110.462575 227.837074 
L 110.462575 228.135497 
L 109.974177 228.135497 
L 109.974177 228.43392 
L 109.485779 228.43392 
L 109.485779 228.732343 
L 108.997381 228.732343 
L 108.997381 229.179977 
L 108.508983 229.179977 
L 108.508983 229.627611 
L 108.020585 229.627611 
L 108.020585 229.926034 
L 107.043789 229.926034 
L 107.043789 230.224457 
L 106.555392 230.224457 
L 106.555392 230.373669 
L 106.066994 230.373669 
L 106.066994 230.52288 
L 104.6018 230.52288 
L 104.6018 230.672091 
L 101.671412 230.672091 
L 101.671412 231.119726 
L 101.183014 231.119726 
L 101.183014 231.268937 
L 100.694616 231.268937 
L 100.694616 231.418149 
L 100.206218 231.418149 
L 100.206218 231.716571 
L 99.71782 231.716571 
L 99.71782 232.014994 
L 99.229422 232.014994 
L 99.229422 232.61184 
L 98.741024 232.61184 
L 98.741024 232.910263 
L 98.252626 232.910263 
L 98.252626 233.65632 
L 97.764228 233.65632 
L 97.764228 234.103954 
L 97.27583 234.103954 
L 97.27583 234.850011 
L 96.787432 234.850011 
L 96.787432 234.999223 
L 96.299034 234.999223 
L 96.299034 235.297646 
L 95.810636 235.297646 
L 95.810636 236.043703 
L 95.322238 236.043703 
L 95.322238 236.342126 
L 94.83384 236.342126 
L 94.83384 236.640549 
L 94.345442 236.640549 
L 94.345442 236.78976 
L 93.857044 236.78976 
L 93.857044 237.088183 
L 93.368646 237.088183 
L 93.368646 237.237394 
L 89.94986 237.237394 
L 89.94986 237.386606 
L 89.461462 237.386606 
L 89.461462 237.685029 
L 88.973064 237.685029 
L 88.973064 238.281874 
L 87.996269 238.281874 
L 87.996269 238.87872 
L 87.019473 238.87872 
L 87.019473 239.326354 
L 86.531075 239.326354 
L 86.531075 239.773989 
L 86.042677 239.773989 
L 86.042677 239.773989 
L 85.554279 239.773989 
L 85.554279 240.370834 
L 85.065881 240.370834 
L 85.065881 241.713737 
L 84.577483 241.713737 
L 84.577483 242.310583 
L 84.089085 242.310583 
L 84.089085 243.205851 
L 83.600687 243.205851 
L 83.600687 244.250331 
L 83.112289 244.250331 
L 83.112289 244.548754 
L 82.623891 244.548754 
L 82.623891 245.1456 
L 81.647095 245.1456 
L 81.647095 245.444023 
L 81.158697 245.444023 
L 81.158697 245.593234 
L 80.670299 245.593234 
L 80.670299 245.742446 
L 80.181901 245.742446 
L 80.181901 245.742446 
L 79.693503 245.742446 
L 79.693503 246.040869 
L 79.205105 246.040869 
L 79.205105 246.19008 
L 78.716707 246.19008 
L 78.716707 246.339291 
L 78.228309 246.339291 
L 78.228309 247.532983 
L 77.739911 247.532983 
L 77.739911 249.025097 
L 77.251513 249.025097 
L 77.251513 252.009326 
L 76.763115 252.009326 
L 76.763115 254.396709 
L 76.274717 254.396709 
L 76.274717 257.380937 
L 75.786319 257.380937 
L 75.786319 261.708069 
L 75.297921 261.708069 
L 75.297921 269.019429 
L 74.809523 269.019429 
L 74.809523 273.794194 
L 74.321125 273.794194 
L 74.321125 275.584731 
L 73.832727 275.584731 
L 73.832727 276.48 
L 73.832727 276.48 
z
" clip-path="url(#p0afeb562eb)" style="fill: #fa448c; fill-opacity: 0.8"/>
   </g>
   <g id="PolyCollection_2">
    <path d="M 73.832727 276.48 
L 73.832727 276.48 
L 73.832727 276.48 
L 73.832727 275.584731 
L 74.321125 275.584731 
L 74.321125 273.794194 
L 74.809523 273.794194 
L 74.809523 269.019429 
L 75.297921 269.019429 
L 75.297921 261.708069 
L 75.786319 261.708069 
L 75.786319 257.380937 
L 76.274717 257.380937 
L 76.274717 254.396709 
L 76.763115 254.396709 
L 76.763115 252.009326 
L 77.251513 252.009326 
L 77.251513 249.025097 
L 77.739911 249.025097 
L 77.739911 247.532983 
L 78.228309 247.532983 
L 78.228309 246.339291 
L 78.716707 246.339291 
L 78.716707 246.19008 
L 79.205105 246.19008 
L 79.205105 246.040869 
L 79.693503 246.040869 
L 79.693503 245.742446 
L 80.181901 245.742446 
L 80.181901 245.742446 
L 80.670299 245.742446 
L 80.670299 245.593234 
L 81.158697 245.593234 
L 81.158697 245.444023 
L 81.647095 245.444023 
L 81.647095 245.1456 
L 82.623891 245.1456 
L 82.623891 244.548754 
L 83.112289 244.548754 
L 83.112289 244.250331 
L 83.600687 244.250331 
L 83.600687 243.205851 
L 84.089085 243.205851 
L 84.089085 242.310583 
L 84.577483 242.310583 
L 84.577483 241.713737 
L 85.065881 241.713737 
L 85.065881 240.370834 
L 85.554279 240.370834 
L 85.554279 239.773989 
L 86.042677 239.773989 
L 86.042677 239.773989 
L 86.531075 239.773989 
L 86.531075 239.326354 
L 87.019473 239.326354 
L 87.019473 238.87872 
L 87.996269 238.87872 
L 87.996269 238.281874 
L 88.973064 238.281874 
L 88.973064 237.685029 
L 89.461462 237.685029 
L 89.461462 237.386606 
L 89.94986 237.386606 
L 89.94986 237.237394 
L 93.368646 237.237394 
L 93.368646 237.088183 
L 93.857044 237.088183 
L 93.857044 236.78976 
L 94.345442 236.78976 
L 94.345442 236.640549 
L 94.83384 236.640549 
L 94.83384 236.342126 
L 95.322238 236.342126 
L 95.322238 236.043703 
L 95.810636 236.043703 
L 95.810636 235.297646 
L 96.299034 235.297646 
L 96.299034 234.999223 
L 96.787432 234.999223 
L 96.787432 234.850011 
L 97.27583 234.850011 
L 97.27583 234.103954 
L 97.764228 234.103954 
L 97.764228 233.65632 
L 98.252626 233.65632 
L 98.252626 232.910263 
L 98.741024 232.910263 
L 98.741024 232.61184 
L 99.229422 232.61184 
L 99.229422 232.014994 
L 99.71782 232.014994 
L 99.71782 231.716571 
L 100.206218 231.716571 
L 100.206218 231.418149 
L 100.694616 231.418149 
L 100.694616 231.268937 
L 101.183014 231.268937 
L 101.183014 231.119726 
L 101.671412 231.119726 
L 101.671412 230.672091 
L 104.6018 230.672091 
L 104.6018 230.52288 
L 106.066994 230.52288 
L 106.066994 230.373669 
L 106.555392 230.373669 
L 106.555392 230.224457 
L 107.043789 230.224457 
L 107.043789 229.926034 
L 108.020585 229.926034 
L 108.020585 229.627611 
L 108.508983 229.627611 
L 108.508983 229.179977 
L 108.997381 229.179977 
L 108.997381 228.732343 
L 109.485779 228.732343 
L 109.485779 228.43392 
L 109.974177 228.43392 
L 109.974177 228.135497 
L 110.462575 228.135497 
L 110.462575 227.837074 
L 110.950973 227.837074 
L 110.950973 227.837074 
L 111.439371 227.837074 
L 111.439371 227.687863 
L 111.927769 227.687863 
L 111.927769 227.538651 
L 112.416167 227.538651 
L 112.416167 227.38944 
L 112.904565 227.38944 
L 112.904565 227.240229 
L 113.392963 227.240229 
L 113.392963 226.643383 
L 117.788545 226.643383 
L 117.788545 226.34496 
L 118.765341 226.34496 
L 118.765341 226.195749 
L 119.253739 226.195749 
L 119.253739 226.046537 
L 119.742137 226.046537 
L 119.742137 225.748114 
L 120.230535 225.748114 
L 120.230535 225.598903 
L 122.184127 225.598903 
L 122.184127 225.449691 
L 130.486892 225.449691 
L 130.486892 225.30048 
L 131.463688 225.30048 
L 131.463688 225.151269 
L 131.952086 225.151269 
L 131.952086 225.002057 
L 132.928882 225.002057 
L 132.928882 224.554423 
L 133.41728 224.554423 
L 133.41728 224.256 
L 134.882474 224.256 
L 134.882474 223.659154 
L 136.836066 223.659154 
L 136.836066 223.509943 
L 137.324464 223.509943 
L 137.324464 222.763886 
L 141.231648 222.763886 
L 141.231648 222.465463 
L 141.720046 222.465463 
L 141.720046 222.316251 
L 142.208444 222.316251 
L 142.208444 221.719406 
L 142.696842 221.719406 
L 142.696842 221.570194 
L 143.18524 221.570194 
L 143.18524 221.271771 
L 143.673638 221.271771 
L 143.673638 220.973349 
L 144.162036 220.973349 
L 144.162036 220.525714 
L 144.650433 220.525714 
L 144.650433 220.227291 
L 145.138831 220.227291 
L 145.138831 219.928869 
L 146.115627 219.928869 
L 146.115627 219.779657 
L 146.604025 219.779657 
L 146.604025 219.481234 
L 147.092423 219.481234 
L 147.092423 219.182811 
L 147.580821 219.182811 
L 147.580821 218.884389 
L 148.069219 218.884389 
L 148.069219 218.735177 
L 148.557617 218.735177 
L 148.557617 218.436754 
L 149.534413 218.436754 
L 149.534413 218.287543 
L 151.488005 218.287543 
L 151.488005 218.287543 
L 153.441597 218.287543 
L 153.441597 217.98912 
L 154.418393 217.98912 
L 154.418393 217.541486 
L 155.395189 217.541486 
L 155.395189 217.243063 
L 156.371985 217.243063 
L 156.371985 216.94464 
L 156.860383 216.94464 
L 156.860383 216.94464 
L 157.837179 216.94464 
L 157.837179 216.646217 
L 158.325577 216.646217 
L 158.325577 216.497006 
L 158.813975 216.497006 
L 158.813975 216.347794 
L 159.302373 216.347794 
L 159.302373 216.198583 
L 159.790771 216.198583 
L 159.790771 215.90016 
L 160.279169 215.90016 
L 160.279169 215.90016 
L 164.186352 215.90016 
L 164.186352 215.750949 
L 164.67475 215.750949 
L 164.67475 215.750949 
L 165.163148 215.750949 
L 165.163148 215.452526 
L 165.651546 215.452526 
L 165.651546 215.303314 
L 166.139944 215.303314 
L 166.139944 215.154103 
L 166.628342 215.154103 
L 166.628342 214.85568 
L 167.11674 214.85568 
L 167.11674 214.706469 
L 167.605138 214.706469 
L 167.605138 214.557257 
L 168.581934 214.557257 
L 168.581934 214.557257 
L 169.55873 214.557257 
L 169.55873 214.258834 
L 170.535526 214.258834 
L 170.535526 213.512777 
L 171.023924 213.512777 
L 171.023924 213.214354 
L 171.512322 213.214354 
L 171.512322 213.214354 
L 172.00072 213.214354 
L 172.00072 212.76672 
L 172.977516 212.76672 
L 172.977516 212.617509 
L 173.465914 212.617509 
L 173.465914 212.468297 
L 173.954312 212.468297 
L 173.954312 212.169874 
L 175.907904 212.169874 
L 175.907904 212.169874 
L 177.373098 212.169874 
L 177.373098 211.871451 
L 177.861496 211.871451 
L 177.861496 211.72224 
L 179.815088 211.72224 
L 179.815088 211.573029 
L 180.791884 211.573029 
L 180.791884 211.125394 
L 181.280282 211.125394 
L 181.280282 210.230126 
L 181.768679 210.230126 
L 181.768679 209.782491 
L 182.257077 209.782491 
L 182.257077 208.887223 
L 182.745475 208.887223 
L 182.745475 208.5888 
L 183.233873 208.5888 
L 183.233873 208.141166 
L 184.210669 208.141166 
L 184.210669 207.842743 
L 187.141057 207.842743 
L 187.141057 207.693531 
L 187.629455 207.693531 
L 187.629455 207.693531 
L 188.117853 207.693531 
L 188.117853 207.096686 
L 189.094649 207.096686 
L 189.094649 206.947474 
L 189.583047 206.947474 
L 189.583047 206.649051 
L 190.559843 206.649051 
L 190.559843 205.156937 
L 191.048241 205.156937 
L 191.048241 204.858514 
L 192.513435 204.858514 
L 192.513435 204.709303 
L 193.001833 204.709303 
L 193.001833 204.41088 
L 193.978629 204.41088 
L 193.978629 204.41088 
L 194.467027 204.41088 
L 194.467027 203.963246 
L 194.955425 203.963246 
L 194.955425 203.664823 
L 195.443823 203.664823 
L 195.443823 203.664823 
L 195.932221 203.664823 
L 195.932221 203.3664 
L 200.8162 203.3664 
L 200.8162 203.217189 
L 201.792996 203.217189 
L 201.792996 203.067977 
L 202.281394 203.067977 
L 202.281394 202.620343 
L 203.746588 202.620343 
L 203.746588 202.471131 
L 204.234986 202.471131 
L 204.234986 202.172709 
L 204.723384 202.172709 
L 204.723384 202.023497 
L 206.188578 202.023497 
L 206.188578 202.023497 
L 206.676976 202.023497 
L 206.676976 202.023497 
L 211.560956 202.023497 
L 211.560956 202.023497 
L 212.537752 202.023497 
L 212.537752 202.023497 
L 213.514548 202.023497 
L 213.514548 202.023497 
L 214.002946 202.023497 
L 214.002946 202.023497 
L 214.491344 202.023497 
L 214.491344 202.023497 
L 214.979742 202.023497 
L 214.979742 202.023497 
L 215.46814 202.023497 
L 215.46814 202.023497 
L 216.444936 202.023497 
L 216.444936 202.023497 
L 217.421732 202.023497 
L 217.421732 202.023497 
L 218.398528 202.023497 
L 218.398528 202.023497 
L 218.886926 202.023497 
L 218.886926 202.023497 
L 219.375323 202.023497 
L 219.375323 202.023497 
L 223.282507 202.023497 
L 223.282507 202.023497 
L 224.747701 202.023497 
L 224.747701 202.023497 
L 225.236099 202.023497 
L 225.236099 202.023497 
L 226.701293 202.023497 
L 226.701293 202.023497 
L 227.678089 202.023497 
L 227.678089 202.023497 
L 228.166487 202.023497 
L 228.166487 202.023497 
L 228.654885 202.023497 
L 228.654885 202.023497 
L 229.143283 202.023497 
L 229.143283 202.023497 
L 230.120079 202.023497 
L 230.120079 202.023497 
L 234.515661 202.023497 
L 234.515661 202.023497 
L 236.957651 202.023497 
L 236.957651 202.023497 
L 237.446049 202.023497 
L 237.446049 202.023497 
L 238.911242 202.023497 
L 238.911242 202.023497 
L 239.888038 202.023497 
L 239.888038 202.023497 
L 240.376436 202.023497 
L 240.376436 202.023497 
L 240.864834 202.023497 
L 240.864834 202.023497 
L 241.353232 202.023497 
L 241.353232 202.023497 
L 241.84163 202.023497 
L 241.84163 202.023497 
L 242.330028 202.023497 
L 242.330028 202.023497 
L 246.237212 202.023497 
L 246.237212 202.023497 
L 247.214008 202.023497 
L 247.214008 202.023497 
L 247.702406 202.023497 
L 247.702406 202.023497 
L 248.190804 202.023497 
L 248.190804 202.023497 
L 248.679202 202.023497 
L 248.679202 202.023497 
L 249.1676 202.023497 
L 249.1676 202.023497 
L 249.655998 202.023497 
L 249.655998 202.023497 
L 250.144396 202.023497 
L 250.144396 202.023497 
L 250.632794 202.023497 
L 250.632794 202.023497 
L 251.60959 202.023497 
L 251.60959 202.023497 
L 257.958763 202.023497 
L 257.958763 202.023497 
L 259.912355 202.023497 
L 259.912355 202.023497 
L 260.889151 202.023497 
L 260.889151 202.023497 
L 261.377549 202.023497 
L 261.377549 202.023497 
L 262.842743 202.023497 
L 262.842743 202.023497 
L 263.331141 202.023497 
L 263.331141 202.023497 
L 263.819539 202.023497 
L 263.819539 202.023497 
L 265.284733 202.023497 
L 265.284733 202.023497 
L 266.749927 202.023497 
L 266.749927 202.023497 
L 270.168713 202.023497 
L 270.168713 202.023497 
L 270.657111 202.023497 
L 270.657111 202.023497 
L 271.145509 202.023497 
L 271.145509 202.023497 
L 271.633907 202.023497 
L 271.633907 202.023497 
L 272.122305 202.023497 
L 272.122305 202.023497 
L 273.587499 202.023497 
L 273.587499 202.023497 
L 275.052692 202.023497 
L 275.052692 202.023497 
L 276.517886 202.023497 
L 276.517886 202.023497 
L 284.332254 202.023497 
L 284.332254 202.023497 
L 286.285846 202.023497 
L 286.285846 202.023497 
L 286.774244 202.023497 
L 286.774244 202.023497 
L 295.565407 202.023497 
L 295.565407 202.023497 
L 296.053805 202.023497 
L 296.053805 202.023497 
L 296.542203 202.023497 
L 296.542203 202.023497 
L 297.518999 202.023497 
L 297.518999 202.023497 
L 298.007397 202.023497 
L 298.007397 202.023497 
L 298.495795 202.023497 
L 298.495795 202.023497 
L 299.472591 202.023497 
L 299.472591 202.023497 
L 303.868173 202.023497 
L 303.868173 202.023497 
L 304.844969 202.023497 
L 304.844969 202.023497 
L 306.310163 202.023497 
L 306.310163 202.023497 
L 307.286959 202.023497 
L 307.286959 202.023497 
L 309.240551 202.023497 
L 309.240551 202.023497 
L 312.170939 202.023497 
L 312.170939 202.023497 
L 318.520112 202.023497 
L 318.520112 202.023497 
L 319.00851 202.023497 
L 319.00851 202.023497 
L 320.473704 202.023497 
L 320.473704 202.023497 
L 321.4505 202.023497 
L 321.4505 202.023497 
L 321.938898 202.023497 
L 321.938898 202.023497 
L 322.915694 202.023497 
L 322.915694 202.023497 
L 327.311276 202.023497 
L 327.311276 202.023497 
L 328.77647 202.023497 
L 328.77647 202.023497 
L 329.753266 202.023497 
L 329.753266 202.023497 
L 330.241664 202.023497 
L 330.241664 202.023497 
L 330.730062 202.023497 
L 330.730062 202.023497 
L 332.683653 202.023497 
L 332.683653 202.023497 
L 334.148847 202.023497 
L 334.148847 202.023497 
L 334.637245 202.023497 
L 334.637245 202.023497 
L 335.125643 202.023497 
L 335.125643 202.023497 
L 335.614041 202.023497 
L 335.614041 202.023497 
L 340.498021 202.023497 
L 340.498021 202.023497 
L 341.474817 202.023497 
L 341.474817 202.023497 
L 343.916807 202.023497 
L 343.916807 202.023497 
L 346.358797 202.023497 
L 346.358797 202.023497 
L 346.847195 202.023497 
L 346.847195 202.023497 
L 347.335593 202.023497 
L 347.335593 202.023497 
L 348.312389 202.023497 
L 348.312389 202.023497 
L 350.754378 202.023497 
L 350.754378 202.023497 
L 351.731174 202.023497 
L 351.731174 202.023497 
L 353.684766 202.023497 
L 353.684766 202.023497 
L 357.59195 202.023497 
L 357.59195 202.023497 
L 359.545542 202.023497 
L 359.545542 202.023497 
L 362.420903 202.023497 
L 362.420903 200.083749 
L 362.621123 200.083749 
L 362.621123 200.083749 
L 362.795855 200.083749 
L 362.795855 200.083749 
L 363.142289 200.083749 
L 363.142289 200.083749 
L 363.361987 200.083749 
L 363.361987 200.083749 
L 363.592558 200.083749 
L 363.592558 200.083749 
L 363.765232 200.083749 
L 363.765232 200.083749 
L 364.121362 200.083749 
L 364.121362 200.083749 
L 364.315511 200.083749 
L 364.315511 200.083749 
L 364.576868 200.083749 
L 364.576868 200.083749 
L 364.768904 200.083749 
L 364.768904 200.083749 
L 365.074635 200.083749 
L 365.074635 200.083749 
L 365.266892 200.083749 
L 365.266892 200.083749 
L 365.525773 200.083749 
L 365.525773 200.083749 
L 365.70696 200.083749 
L 365.70696 200.083749 
L 366.131109 200.083749 
L 366.131109 200.083749 
L 366.406443 200.083749 
L 366.406443 200.083749 
L 366.723578 200.083749 
L 366.723578 200.083749 
L 366.747712 200.083749 
L 366.747712 200.083749 
L 366.761929 200.083749 
L 366.761929 200.083749 
L 367.003095 200.083749 
L 367.003095 200.083749 
L 367.187392 200.083749 
L 367.187392 200.083749 
L 367.51123 200.083749 
L 367.51123 200.083749 
L 367.720582 200.083749 
L 367.720582 200.083749 
L 368.072988 200.083749 
L 368.072988 200.083749 
L 368.769453 200.083749 
L 368.769453 200.083749 
L 368.789614 200.083749 
L 368.789614 200.083749 
L 368.814528 200.083749 
L 368.814528 200.083749 
L 368.997546 200.083749 
L 368.997546 200.083749 
L 369.204651 200.083749 
L 369.204651 200.083749 
L 369.429575 200.083749 
L 369.429575 200.083749 
L 369.614924 200.083749 
L 369.614924 200.083749 
L 369.955113 200.083749 
L 369.955113 200.083749 
L 370.413564 200.083749 
L 370.413564 200.083749 
L 375.839056 200.083749 
L 375.839056 200.083749 
L 377.246569 200.083749 
L 377.246569 200.083749 
L 378.446124 200.083749 
L 378.446124 200.083749 
L 378.72448 200.083749 
L 378.72448 200.083749 
L 380.089906 200.083749 
L 380.089906 200.083749 
L 380.436131 200.083749 
L 380.436131 200.083749 
L 380.715876 200.083749 
L 380.715876 200.083749 
L 381.152564 200.083749 
L 381.152564 200.083749 
L 388.528302 200.083749 
L 388.528302 200.083749 
L 391.528194 200.083749 
L 391.528194 200.083749 
L 393.589209 200.083749 
L 393.589209 200.083749 
L 393.862418 200.083749 
L 393.862418 200.083749 
L 394.860309 200.083749 
L 394.860309 200.083749 
L 395.719618 200.083749 
L 395.719618 200.083749 
L 398.487273 200.083749 
L 398.487273 200.083749 
L 398.487273 147.859749 
L 398.487273 147.859749 
L 398.487273 147.859749 
L 395.719618 147.859749 
L 395.719618 148.00896 
L 394.860309 148.00896 
L 394.860309 146.367634 
L 393.862418 146.367634 
L 393.862418 146.815269 
L 393.589209 146.815269 
L 393.589209 146.96448 
L 391.528194 146.96448 
L 391.528194 147.113691 
L 388.528302 147.113691 
L 388.528302 147.262903 
L 381.152564 147.262903 
L 381.152564 147.561326 
L 380.715876 147.561326 
L 380.715876 147.710537 
L 380.436131 147.710537 
L 380.436131 148.00896 
L 380.089906 148.00896 
L 380.089906 148.158171 
L 378.72448 148.158171 
L 378.72448 148.307383 
L 378.446124 148.307383 
L 378.446124 148.456594 
L 377.246569 148.456594 
L 377.246569 148.605806 
L 375.839056 148.605806 
L 375.839056 148.755017 
L 370.413564 148.755017 
L 370.413564 149.05344 
L 369.955113 149.05344 
L 369.955113 149.202651 
L 369.614924 149.202651 
L 369.614924 149.202651 
L 369.429575 149.202651 
L 369.429575 149.202651 
L 369.204651 149.202651 
L 369.204651 149.202651 
L 368.997546 149.202651 
L 368.997546 149.202651 
L 368.814528 149.202651 
L 368.814528 149.202651 
L 368.789614 149.202651 
L 368.789614 149.202651 
L 368.769453 149.202651 
L 368.769453 149.202651 
L 368.072988 149.202651 
L 368.072988 149.202651 
L 367.720582 149.202651 
L 367.720582 149.202651 
L 367.51123 149.202651 
L 367.51123 149.202651 
L 367.187392 149.202651 
L 367.187392 149.202651 
L 367.003095 149.202651 
L 367.003095 149.202651 
L 366.761929 149.202651 
L 366.761929 149.202651 
L 366.747712 149.202651 
L 366.747712 149.202651 
L 366.723578 149.202651 
L 366.723578 149.202651 
L 366.406443 149.202651 
L 366.406443 149.501074 
L 366.131109 149.501074 
L 366.131109 149.650286 
L 365.70696 149.650286 
L 365.70696 149.650286 
L 365.525773 149.650286 
L 365.525773 150.247131 
L 365.266892 150.247131 
L 365.266892 150.396343 
L 365.074635 150.396343 
L 365.074635 150.396343 
L 364.768904 150.396343 
L 364.768904 150.396343 
L 364.576868 150.396343 
L 364.576868 150.396343 
L 364.315511 150.396343 
L 364.315511 150.396343 
L 364.121362 150.396343 
L 364.121362 150.396343 
L 363.765232 150.396343 
L 363.765232 150.396343 
L 363.592558 150.396343 
L 363.592558 150.396343 
L 363.361987 150.396343 
L 363.361987 150.396343 
L 363.142289 150.396343 
L 363.142289 150.396343 
L 362.795855 150.396343 
L 362.795855 150.396343 
L 362.621123 150.396343 
L 362.621123 150.396343 
L 362.420903 150.396343 
L 362.420903 153.828206 
L 359.545542 153.828206 
L 359.545542 153.977417 
L 357.59195 153.977417 
L 357.59195 153.977417 
L 353.684766 153.977417 
L 353.684766 154.126629 
L 351.731174 154.126629 
L 351.731174 154.27584 
L 350.754378 154.27584 
L 350.754378 154.425051 
L 348.312389 154.425051 
L 348.312389 154.872686 
L 347.335593 154.872686 
L 347.335593 154.872686 
L 346.847195 154.872686 
L 346.847195 155.171109 
L 346.358797 155.171109 
L 346.358797 156.514011 
L 343.916807 156.514011 
L 343.916807 156.961646 
L 341.474817 156.961646 
L 341.474817 157.110857 
L 340.498021 157.110857 
L 340.498021 157.260069 
L 335.614041 157.260069 
L 335.614041 157.707703 
L 335.125643 157.707703 
L 335.125643 158.155337 
L 334.637245 158.155337 
L 334.637245 158.45376 
L 334.148847 158.45376 
L 334.148847 158.602971 
L 332.683653 158.602971 
L 332.683653 158.752183 
L 330.730062 158.752183 
L 330.730062 158.752183 
L 330.241664 158.752183 
L 330.241664 158.901394 
L 329.753266 158.901394 
L 329.753266 159.050606 
L 328.77647 159.050606 
L 328.77647 159.199817 
L 327.311276 159.199817 
L 327.311276 159.349029 
L 322.915694 159.349029 
L 322.915694 159.49824 
L 321.938898 159.49824 
L 321.938898 159.796663 
L 321.4505 159.796663 
L 321.4505 160.095086 
L 320.473704 160.095086 
L 320.473704 160.54272 
L 319.00851 160.54272 
L 319.00851 160.691931 
L 318.520112 160.691931 
L 318.520112 160.691931 
L 312.170939 160.691931 
L 312.170939 160.841143 
L 309.240551 160.841143 
L 309.240551 160.990354 
L 307.286959 160.990354 
L 307.286959 161.288777 
L 306.310163 161.288777 
L 306.310163 161.288777 
L 304.844969 161.288777 
L 304.844969 161.5872 
L 303.868173 161.5872 
L 303.868173 161.5872 
L 299.472591 161.5872 
L 299.472591 161.885623 
L 298.495795 161.885623 
L 298.495795 162.034834 
L 298.007397 162.034834 
L 298.007397 162.333257 
L 297.518999 162.333257 
L 297.518999 162.333257 
L 296.542203 162.333257 
L 296.542203 162.333257 
L 296.053805 162.333257 
L 296.053805 162.780891 
L 295.565407 162.780891 
L 295.565407 162.780891 
L 286.774244 162.780891 
L 286.774244 162.930103 
L 286.285846 162.930103 
L 286.285846 163.079314 
L 284.332254 163.079314 
L 284.332254 163.228526 
L 276.517886 163.228526 
L 276.517886 163.377737 
L 275.052692 163.377737 
L 275.052692 163.526949 
L 273.587499 163.526949 
L 273.587499 163.974583 
L 272.122305 163.974583 
L 272.122305 164.72064 
L 271.633907 164.72064 
L 271.633907 165.019063 
L 271.145509 165.019063 
L 271.145509 165.168274 
L 270.657111 165.168274 
L 270.657111 165.168274 
L 270.168713 165.168274 
L 270.168713 165.317486 
L 266.749927 165.317486 
L 266.749927 165.317486 
L 265.284733 165.317486 
L 265.284733 165.914331 
L 263.819539 165.914331 
L 263.819539 166.063543 
L 263.331141 166.063543 
L 263.331141 166.511177 
L 262.842743 166.511177 
L 262.842743 166.660389 
L 261.377549 166.660389 
L 261.377549 166.8096 
L 260.889151 166.8096 
L 260.889151 167.108023 
L 259.912355 167.108023 
L 259.912355 167.108023 
L 257.958763 167.108023 
L 257.958763 167.406446 
L 251.60959 167.406446 
L 251.60959 167.406446 
L 250.632794 167.406446 
L 250.632794 167.555657 
L 250.144396 167.555657 
L 250.144396 167.704869 
L 249.655998 167.704869 
L 249.655998 167.85408 
L 249.1676 167.85408 
L 249.1676 168.003291 
L 248.679202 168.003291 
L 248.679202 168.152503 
L 248.190804 168.152503 
L 248.190804 168.450926 
L 247.702406 168.450926 
L 247.702406 169.495406 
L 247.214008 169.495406 
L 247.214008 170.092251 
L 246.237212 170.092251 
L 246.237212 170.539886 
L 242.330028 170.539886 
L 242.330028 170.689097 
L 241.84163 170.689097 
L 241.84163 170.838309 
L 241.353232 170.838309 
L 241.353232 171.136731 
L 240.864834 171.136731 
L 240.864834 171.584366 
L 240.376436 171.584366 
L 240.376436 172.181211 
L 239.888038 172.181211 
L 239.888038 172.927269 
L 238.911242 172.927269 
L 238.911242 173.374903 
L 237.446049 173.374903 
L 237.446049 173.524114 
L 236.957651 173.524114 
L 236.957651 173.822537 
L 234.515661 173.822537 
L 234.515661 173.971749 
L 230.120079 173.971749 
L 230.120079 174.12096 
L 229.143283 174.12096 
L 229.143283 174.270171 
L 228.654885 174.270171 
L 228.654885 174.419383 
L 228.166487 174.419383 
L 228.166487 174.568594 
L 227.678089 174.568594 
L 227.678089 174.867017 
L 226.701293 174.867017 
L 226.701293 175.463863 
L 225.236099 175.463863 
L 225.236099 175.613074 
L 224.747701 175.613074 
L 224.747701 175.762286 
L 223.282507 175.762286 
L 223.282507 176.060709 
L 219.375323 176.060709 
L 219.375323 176.20992 
L 218.886926 176.20992 
L 218.886926 176.359131 
L 218.398528 176.359131 
L 218.398528 176.359131 
L 217.421732 176.359131 
L 217.421732 176.508343 
L 216.444936 176.508343 
L 216.444936 176.657554 
L 215.46814 176.657554 
L 215.46814 177.2544 
L 214.979742 177.2544 
L 214.979742 177.851246 
L 214.491344 177.851246 
L 214.491344 178.149669 
L 214.002946 178.149669 
L 214.002946 178.448091 
L 213.514548 178.448091 
L 213.514548 178.746514 
L 212.537752 178.746514 
L 212.537752 179.044937 
L 211.560956 179.044937 
L 211.560956 179.194149 
L 206.676976 179.194149 
L 206.676976 179.492571 
L 206.188578 179.492571 
L 206.188578 179.940206 
L 204.723384 179.940206 
L 204.723384 180.089417 
L 204.234986 180.089417 
L 204.234986 180.537051 
L 203.746588 180.537051 
L 203.746588 180.686263 
L 202.281394 180.686263 
L 202.281394 181.133897 
L 201.792996 181.133897 
L 201.792996 181.283109 
L 200.8162 181.283109 
L 200.8162 181.43232 
L 195.932221 181.43232 
L 195.932221 182.029166 
L 195.443823 182.029166 
L 195.443823 182.029166 
L 194.955425 182.029166 
L 194.955425 182.4768 
L 194.467027 182.4768 
L 194.467027 182.924434 
L 193.978629 182.924434 
L 193.978629 183.073646 
L 193.001833 183.073646 
L 193.001833 183.670491 
L 192.513435 183.670491 
L 192.513435 183.819703 
L 191.048241 183.819703 
L 191.048241 184.118126 
L 190.559843 184.118126 
L 190.559843 185.759451 
L 189.583047 185.759451 
L 189.583047 186.057874 
L 189.094649 186.057874 
L 189.094649 186.207086 
L 188.117853 186.207086 
L 188.117853 186.803931 
L 187.629455 186.803931 
L 187.629455 186.953143 
L 187.141057 186.953143 
L 187.141057 187.102354 
L 184.210669 187.102354 
L 184.210669 187.400777 
L 183.233873 187.400777 
L 183.233873 187.848411 
L 182.745475 187.848411 
L 182.745475 188.445257 
L 182.257077 188.445257 
L 182.257077 189.340526 
L 181.768679 189.340526 
L 181.768679 189.937371 
L 181.280282 189.937371 
L 181.280282 190.83264 
L 180.791884 190.83264 
L 180.791884 192.026331 
L 179.815088 192.026331 
L 179.815088 192.175543 
L 177.861496 192.175543 
L 177.861496 192.324754 
L 177.373098 192.324754 
L 177.373098 192.623177 
L 175.907904 192.623177 
L 175.907904 192.772389 
L 173.954312 192.772389 
L 173.954312 193.070811 
L 173.465914 193.070811 
L 173.465914 193.220023 
L 172.977516 193.220023 
L 172.977516 193.369234 
L 172.00072 193.369234 
L 172.00072 193.816869 
L 171.512322 193.816869 
L 171.512322 194.264503 
L 171.023924 194.264503 
L 171.023924 194.861349 
L 170.535526 194.861349 
L 170.535526 195.607406 
L 169.55873 195.607406 
L 169.55873 195.905829 
L 168.581934 195.905829 
L 168.581934 196.05504 
L 167.605138 196.05504 
L 167.605138 196.204251 
L 167.11674 196.204251 
L 167.11674 196.502674 
L 166.628342 196.502674 
L 166.628342 196.801097 
L 166.139944 196.801097 
L 166.139944 196.950309 
L 165.651546 196.950309 
L 165.651546 197.09952 
L 165.163148 197.09952 
L 165.163148 197.397943 
L 164.67475 197.397943 
L 164.67475 197.547154 
L 164.186352 197.547154 
L 164.186352 197.696366 
L 160.279169 197.696366 
L 160.279169 197.845577 
L 159.790771 197.845577 
L 159.790771 198.144 
L 159.302373 198.144 
L 159.302373 198.293211 
L 158.813975 198.293211 
L 158.813975 198.442423 
L 158.325577 198.442423 
L 158.325577 198.591634 
L 157.837179 198.591634 
L 157.837179 199.337691 
L 156.860383 199.337691 
L 156.860383 199.486903 
L 156.371985 199.486903 
L 156.371985 199.934537 
L 155.395189 199.934537 
L 155.395189 200.23296 
L 154.418393 200.23296 
L 154.418393 200.979017 
L 153.441597 200.979017 
L 153.441597 201.575863 
L 151.488005 201.575863 
L 151.488005 201.874286 
L 149.534413 201.874286 
L 149.534413 202.023497 
L 148.557617 202.023497 
L 148.557617 202.32192 
L 148.069219 202.32192 
L 148.069219 202.620343 
L 147.580821 202.620343 
L 147.580821 203.067977 
L 147.092423 203.067977 
L 147.092423 203.3664 
L 146.604025 203.3664 
L 146.604025 203.814034 
L 146.115627 203.814034 
L 146.115627 203.963246 
L 145.138831 203.963246 
L 145.138831 204.261669 
L 144.650433 204.261669 
L 144.650433 204.560091 
L 144.162036 204.560091 
L 144.162036 205.156937 
L 143.673638 205.156937 
L 143.673638 205.45536 
L 143.18524 205.45536 
L 143.18524 205.753783 
L 142.696842 205.753783 
L 142.696842 205.902994 
L 142.208444 205.902994 
L 142.208444 206.649051 
L 141.720046 206.649051 
L 141.720046 206.798263 
L 141.231648 206.798263 
L 141.231648 207.096686 
L 137.324464 207.096686 
L 137.324464 207.991954 
L 136.836066 207.991954 
L 136.836066 208.141166 
L 134.882474 208.141166 
L 134.882474 209.036434 
L 133.41728 209.036434 
L 133.41728 209.334857 
L 132.928882 209.334857 
L 132.928882 209.931703 
L 131.952086 209.931703 
L 131.952086 210.080914 
L 131.463688 210.080914 
L 131.463688 210.230126 
L 130.486892 210.230126 
L 130.486892 210.379337 
L 122.184127 210.379337 
L 122.184127 210.528549 
L 120.230535 210.528549 
L 120.230535 210.67776 
L 119.742137 210.67776 
L 119.742137 210.976183 
L 119.253739 210.976183 
L 119.253739 211.125394 
L 118.765341 211.125394 
L 118.765341 211.274606 
L 117.788545 211.274606 
L 117.788545 211.573029 
L 113.392963 211.573029 
L 113.392963 212.319086 
L 112.904565 212.319086 
L 112.904565 213.065143 
L 112.416167 213.065143 
L 112.416167 213.214354 
L 111.927769 213.214354 
L 111.927769 213.363566 
L 111.439371 213.363566 
L 111.439371 213.512777 
L 110.950973 213.512777 
L 110.950973 213.661989 
L 110.462575 213.661989 
L 110.462575 214.109623 
L 109.974177 214.109623 
L 109.974177 214.408046 
L 109.485779 214.408046 
L 109.485779 214.85568 
L 108.997381 214.85568 
L 108.997381 215.303314 
L 108.508983 215.303314 
L 108.508983 215.750949 
L 108.020585 215.750949 
L 108.020585 216.049371 
L 107.043789 216.049371 
L 107.043789 216.795429 
L 106.555392 216.795429 
L 106.555392 216.94464 
L 106.066994 216.94464 
L 106.066994 217.093851 
L 104.6018 217.093851 
L 104.6018 217.243063 
L 101.671412 217.243063 
L 101.671412 217.690697 
L 101.183014 217.690697 
L 101.183014 217.98912 
L 100.694616 217.98912 
L 100.694616 218.138331 
L 100.206218 218.138331 
L 100.206218 219.182811 
L 99.71782 219.182811 
L 99.71782 219.481234 
L 99.229422 219.481234 
L 99.229422 220.07808 
L 98.741024 220.07808 
L 98.741024 220.525714 
L 98.252626 220.525714 
L 98.252626 221.420983 
L 97.764228 221.420983 
L 97.764228 221.868617 
L 97.27583 221.868617 
L 97.27583 222.614674 
L 96.787432 222.614674 
L 96.787432 222.763886 
L 96.299034 222.763886 
L 96.299034 223.21152 
L 95.810636 223.21152 
L 95.810636 223.957577 
L 95.322238 223.957577 
L 95.322238 224.256 
L 94.83384 224.256 
L 94.83384 224.554423 
L 94.345442 224.554423 
L 94.345442 224.703634 
L 93.857044 224.703634 
L 93.857044 225.151269 
L 93.368646 225.151269 
L 93.368646 225.30048 
L 89.94986 225.30048 
L 89.94986 225.449691 
L 89.461462 225.449691 
L 89.461462 225.748114 
L 88.973064 225.748114 
L 88.973064 226.34496 
L 87.996269 226.34496 
L 87.996269 226.941806 
L 87.019473 226.941806 
L 87.019473 227.38944 
L 86.531075 227.38944 
L 86.531075 227.986286 
L 86.042677 227.986286 
L 86.042677 228.284709 
L 85.554279 228.284709 
L 85.554279 228.881554 
L 85.065881 228.881554 
L 85.065881 230.373669 
L 84.577483 230.373669 
L 84.577483 231.268937 
L 84.089085 231.268937 
L 84.089085 233.208686 
L 83.600687 233.208686 
L 83.600687 234.253166 
L 83.112289 234.253166 
L 83.112289 235.446857 
L 82.623891 235.446857 
L 82.623891 236.192914 
L 81.647095 236.192914 
L 81.647095 236.938971 
L 81.158697 236.938971 
L 81.158697 237.088183 
L 80.670299 237.088183 
L 80.670299 237.237394 
L 80.181901 237.237394 
L 80.181901 237.386606 
L 79.693503 237.386606 
L 79.693503 237.685029 
L 79.205105 237.685029 
L 79.205105 237.83424 
L 78.716707 237.83424 
L 78.716707 237.983451 
L 78.228309 237.983451 
L 78.228309 239.177143 
L 77.739911 239.177143 
L 77.739911 241.564526 
L 77.251513 241.564526 
L 77.251513 245.593234 
L 76.763115 245.593234 
L 76.763115 248.428251 
L 76.274717 248.428251 
L 76.274717 252.158537 
L 75.786319 252.158537 
L 75.786319 257.380937 
L 75.297921 257.380937 
L 75.297921 266.0352 
L 74.809523 266.0352 
L 74.809523 272.749714 
L 74.321125 272.749714 
L 74.321125 275.43552 
L 73.832727 275.43552 
L 73.832727 276.48 
L 73.832727 276.48 
z
" clip-path="url(#p0afeb562eb)" style="fill: #43b5a0; fill-opacity: 0.8"/>
   </g>
   <g id="matplotlib.axis_1">
    <g id="xtick_1">
     <g id="line2d_1">
      <defs>
       <path id="me68e0ccb0b" d="M 0 0 
L 0 3.5 
" style="stroke: #ffffff; stroke-width: 0.8"/>
      </defs>
      <g>
       <use xlink:href="#me68e0ccb0b" x="102.15981" y="276.48" style="fill: #ffffff; stroke: #ffffff; stroke-width: 0.8"/>
      </g>
     </g>
     <g id="text_1">
      <!-- Fri 12/24 -->
      <g style="fill: #ffffff" transform="translate(63.090625 312.01669)rotate(-30)scale(0.1 -0.1)">
       <defs>
        <path id="DejaVuSans-46" d="M 628 4666 
L 3309 4666 
L 3309 4134 
L 1259 4134 
L 1259 2759 
L 3109 2759 
L 3109 2228 
L 1259 2228 
L 1259 0 
L 628 0 
L 628 4666 
z
" transform="scale(0.015625)"/>
        <path id="DejaVuSans-72" d="M 2631 2963 
Q 2534 3019 2420 3045 
Q 2306 3072 2169 3072 
Q 1681 3072 1420 2755 
Q 1159 2438 1159 1844 
L 1159 0 
L 581 0 
L 581 3500 
L 1159 3500 
L 1159 2956 
Q 1341 3275 1631 3429 
Q 1922 3584 2338 3584 
Q 2397 3584 2469 3576 
Q 2541 3569 2628 3553 
L 2631 2963 
z
" transform="scale(0.015625)"/>
        <path id="DejaVuSans-69" d="M 603 3500 
L 1178 3500 
L 1178 0 
L 603 0 
L 603 3500 
z
M 603 4863 
L 1178 4863 
L 1178 4134 
L 603 4134 
L 603 4863 
z
" transform="scale(0.015625)"/>
        <path id="DejaVuSans-20" transform="scale(0.015625)"/>
        <path id="DejaVuSans-31" d="M 794 531 
L 1825 531 
L 1825 4091 
L 703 3866 
L 703 4441 
L 1819 4666 
L 2450 4666 
L 2450 531 
L 3481 531 
L 3481 0 
L 794 0 
L 794 531 
z
" transform="scale(0.015625)"/>
        <path id="DejaVuSans-32" d="M 1228 531 
L 3431 531 
L 3431 0 
L 469 0 
L 469 531 
Q 828 903 1448 1529 
Q 2069 2156 2228 2338 
Q 2531 2678 2651 2914 
Q 2772 3150 2772 3378 
Q 2772 3750 2511 3984 
Q 2250 4219 1831 4219 
Q 1534 4219 1204 4116 
Q 875 4013 500 3803 
L 500 4441 
Q 881 4594 1212 4672 
Q 1544 4750 1819 4750 
Q 2544 4750 2975 4387 
Q 3406 4025 3406 3419 
Q 3406 3131 3298 2873 
Q 3191 2616 2906 2266 
Q 2828 2175 2409 1742 
Q 1991 1309 1228 531 
z
" transform="scale(0.015625)"/>
        <path id="DejaVuSans-2f" d="M 1625 4666 
L 2156 4666 
L 531 -594 
L 0 -594 
L 1625 4666 
z
" transform="scale(0.015625)"/>
        <path id="DejaVuSans-34" d="M 2419 4116 
L 825 1625 
L 2419 1625 
L 2419 4116 
z
M 2253 4666 
L 3047 4666 
L 3047 1625 
L 3713 1625 
L 3713 1100 
L 3047 1100 
L 3047 0 
L 2419 0 
L 2419 1100 
L 313 1100 
L 313 1709 
L 2253 4666 
z
" transform="scale(0.015625)"/>
       </defs>
       <use xlink:href="#DejaVuSans-46"/>
       <use xlink:href="#DejaVuSans-72" x="50.269531"/>
       <use xlink:href="#DejaVuSans-69" x="91.382812"/>
       <use xlink:href="#DejaVuSans-20" x="119.166016"/>
       <use xlink:href="#DejaVuSans-31" x="150.953125"/>
       <use xlink:href="#DejaVuSans-32" x="214.576172"/>
       <use xlink:href="#DejaVuSans-2f" x="278.199219"/>
       <use xlink:href="#DejaVuSans-32" x="311.890625"/>
       <use xlink:href="#DejaVuSans-34" x="375.513672"/>
      </g>
     </g>
    </g>
    <g id="xtick_2">
     <g id="line2d_2">
      <g>
       <use xlink:href="#me68e0ccb0b" x="137.324464" y="276.48" style="fill: #ffffff; stroke: #ffffff; stroke-width: 0.8"/>
      </g>
     </g>
     <g id="text_2">
      <!-- Mon 12/27 -->
      <g style="fill: #ffffff" transform="translate(90.314909 316.601065)rotate(-30)scale(0.1 -0.1)">
       <defs>
        <path id="DejaVuSans-4d" d="M 628 4666 
L 1569 4666 
L 2759 1491 
L 3956 4666 
L 4897 4666 
L 4897 0 
L 4281 0 
L 4281 4097 
L 3078 897 
L 2444 897 
L 1241 4097 
L 1241 0 
L 628 0 
L 628 4666 
z
" transform="scale(0.015625)"/>
        <path id="DejaVuSans-6f" d="M 1959 3097 
Q 1497 3097 1228 2736 
Q 959 2375 959 1747 
Q 959 1119 1226 758 
Q 1494 397 1959 397 
Q 2419 397 2687 759 
Q 2956 1122 2956 1747 
Q 2956 2369 2687 2733 
Q 2419 3097 1959 3097 
z
M 1959 3584 
Q 2709 3584 3137 3096 
Q 3566 2609 3566 1747 
Q 3566 888 3137 398 
Q 2709 -91 1959 -91 
Q 1206 -91 779 398 
Q 353 888 353 1747 
Q 353 2609 779 3096 
Q 1206 3584 1959 3584 
z
" transform="scale(0.015625)"/>
        <path id="DejaVuSans-6e" d="M 3513 2113 
L 3513 0 
L 2938 0 
L 2938 2094 
Q 2938 2591 2744 2837 
Q 2550 3084 2163 3084 
Q 1697 3084 1428 2787 
Q 1159 2491 1159 1978 
L 1159 0 
L 581 0 
L 581 3500 
L 1159 3500 
L 1159 2956 
Q 1366 3272 1645 3428 
Q 1925 3584 2291 3584 
Q 2894 3584 3203 3211 
Q 3513 2838 3513 2113 
z
" transform="scale(0.015625)"/>
        <path id="DejaVuSans-37" d="M 525 4666 
L 3525 4666 
L 3525 4397 
L 1831 0 
L 1172 0 
L 2766 4134 
L 525 4134 
L 525 4666 
z
" transform="scale(0.015625)"/>
       </defs>
       <use xlink:href="#DejaVuSans-4d"/>
       <use xlink:href="#DejaVuSans-6f" x="86.279297"/>
       <use xlink:href="#DejaVuSans-6e" x="147.460938"/>
       <use xlink:href="#DejaVuSans-20" x="210.839844"/>
       <use xlink:href="#DejaVuSans-31" x="242.626953"/>
       <use xlink:href="#DejaVuSans-32" x="306.25"/>
       <use xlink:href="#DejaVuSans-2f" x="369.873047"/>
       <use xlink:href="#DejaVuSans-32" x="403.564453"/>
       <use xlink:href="#DejaVuSans-37" x="467.1875"/>
      </g>
     </g>
    </g>
    <g id="xtick_3">
     <g id="line2d_3">
      <g>
       <use xlink:href="#me68e0ccb0b" x="184.210669" y="276.48" style="fill: #ffffff; stroke: #ffffff; stroke-width: 0.8"/>
      </g>
     </g>
     <g id="text_3">
      <!-- Fri 12/31 -->
      <g style="fill: #ffffff" transform="translate(145.141485 312.01669)rotate(-30)scale(0.1 -0.1)">
       <defs>
        <path id="DejaVuSans-33" d="M 2597 2516 
Q 3050 2419 3304 2112 
Q 3559 1806 3559 1356 
Q 3559 666 3084 287 
Q 2609 -91 1734 -91 
Q 1441 -91 1130 -33 
Q 819 25 488 141 
L 488 750 
Q 750 597 1062 519 
Q 1375 441 1716 441 
Q 2309 441 2620 675 
Q 2931 909 2931 1356 
Q 2931 1769 2642 2001 
Q 2353 2234 1838 2234 
L 1294 2234 
L 1294 2753 
L 1863 2753 
Q 2328 2753 2575 2939 
Q 2822 3125 2822 3475 
Q 2822 3834 2567 4026 
Q 2313 4219 1838 4219 
Q 1578 4219 1281 4162 
Q 984 4106 628 3988 
L 628 4550 
Q 988 4650 1302 4700 
Q 1616 4750 1894 4750 
Q 2613 4750 3031 4423 
Q 3450 4097 3450 3541 
Q 3450 3153 3228 2886 
Q 3006 2619 2597 2516 
z
" transform="scale(0.015625)"/>
       </defs>
       <use xlink:href="#DejaVuSans-46"/>
       <use xlink:href="#DejaVuSans-72" x="50.269531"/>
       <use xlink:href="#DejaVuSans-69" x="91.382812"/>
       <use xlink:href="#DejaVuSans-20" x="119.166016"/>
       <use xlink:href="#DejaVuSans-31" x="150.953125"/>
       <use xlink:href="#DejaVuSans-32" x="214.576172"/>
       <use xlink:href="#DejaVuSans-2f" x="278.199219"/>
       <use xlink:href="#DejaVuSans-33" x="311.890625"/>
       <use xlink:href="#DejaVuSans-31" x="375.513672"/>
      </g>
     </g>
    </g>
    <g id="xtick_4">
     <g id="line2d_4">
      <g>
       <use xlink:href="#me68e0ccb0b" x="219.375323" y="276.48" style="fill: #ffffff; stroke: #ffffff; stroke-width: 0.8"/>
      </g>
     </g>
     <g id="text_4">
      <!-- Mon 01/03 -->
      <g style="fill: #ffffff" transform="translate(172.365769 316.601065)rotate(-30)scale(0.1 -0.1)">
       <defs>
        <path id="DejaVuSans-30" d="M 2034 4250 
Q 1547 4250 1301 3770 
Q 1056 3291 1056 2328 
Q 1056 1369 1301 889 
Q 1547 409 2034 409 
Q 2525 409 2770 889 
Q 3016 1369 3016 2328 
Q 3016 3291 2770 3770 
Q 2525 4250 2034 4250 
z
M 2034 4750 
Q 2819 4750 3233 4129 
Q 3647 3509 3647 2328 
Q 3647 1150 3233 529 
Q 2819 -91 2034 -91 
Q 1250 -91 836 529 
Q 422 1150 422 2328 
Q 422 3509 836 4129 
Q 1250 4750 2034 4750 
z
" transform="scale(0.015625)"/>
       </defs>
       <use xlink:href="#DejaVuSans-4d"/>
       <use xlink:href="#DejaVuSans-6f" x="86.279297"/>
       <use xlink:href="#DejaVuSans-6e" x="147.460938"/>
       <use xlink:href="#DejaVuSans-20" x="210.839844"/>
       <use xlink:href="#DejaVuSans-30" x="242.626953"/>
       <use xlink:href="#DejaVuSans-31" x="306.25"/>
       <use xlink:href="#DejaVuSans-2f" x="369.873047"/>
       <use xlink:href="#DejaVuSans-30" x="403.564453"/>
       <use xlink:href="#DejaVuSans-33" x="467.1875"/>
      </g>
     </g>
    </g>
    <g id="xtick_5">
     <g id="line2d_5">
      <g>
       <use xlink:href="#me68e0ccb0b" x="266.261529" y="276.48" style="fill: #ffffff; stroke: #ffffff; stroke-width: 0.8"/>
      </g>
     </g>
     <g id="text_5">
      <!-- Fri 01/07 -->
      <g style="fill: #ffffff" transform="translate(227.192345 312.01669)rotate(-30)scale(0.1 -0.1)">
       <use xlink:href="#DejaVuSans-46"/>
       <use xlink:href="#DejaVuSans-72" x="50.269531"/>
       <use xlink:href="#DejaVuSans-69" x="91.382812"/>
       <use xlink:href="#DejaVuSans-20" x="119.166016"/>
       <use xlink:href="#DejaVuSans-30" x="150.953125"/>
       <use xlink:href="#DejaVuSans-31" x="214.576172"/>
       <use xlink:href="#DejaVuSans-2f" x="278.199219"/>
       <use xlink:href="#DejaVuSans-30" x="311.890625"/>
       <use xlink:href="#DejaVuSans-37" x="375.513672"/>
      </g>
     </g>
    </g>
    <g id="xtick_6">
     <g id="line2d_6">
      <g>
       <use xlink:href="#me68e0ccb0b" x="301.426183" y="276.48" style="fill: #ffffff; stroke: #ffffff; stroke-width: 0.8"/>
      </g>
     </g>
     <g id="text_6">
      <!-- Mon 01/10 -->
      <g style="fill: #ffffff" transform="translate(254.416628 316.601065)rotate(-30)scale(0.1 -0.1)">
       <use xlink:href="#DejaVuSans-4d"/>
       <use xlink:href="#DejaVuSans-6f" x="86.279297"/>
       <use xlink:href="#DejaVuSans-6e" x="147.460938"/>
       <use xlink:href="#DejaVuSans-20" x="210.839844"/>
       <use xlink:href="#DejaVuSans-30" x="242.626953"/>
       <use xlink:href="#DejaVuSans-31" x="306.25"/>
       <use xlink:href="#DejaVuSans-2f" x="369.873047"/>
       <use xlink:href="#DejaVuSans-31" x="403.564453"/>
       <use xlink:href="#DejaVuSans-30" x="467.1875"/>
      </g>
     </g>
    </g>
    <g id="xtick_7">
     <g id="line2d_7">
      <g>
       <use xlink:href="#me68e0ccb0b" x="348.312389" y="276.48" style="fill: #ffffff; stroke: #ffffff; stroke-width: 0.8"/>
      </g>
     </g>
     <g id="text_7">
      <!-- Fri 01/14 -->
      <g style="fill: #ffffff" transform="translate(309.243204 312.01669)rotate(-30)scale(0.1 -0.1)">
       <use xlink:href="#DejaVuSans-46"/>
       <use xlink:href="#DejaVuSans-72" x="50.269531"/>
       <use xlink:href="#DejaVuSans-69" x="91.382812"/>
       <use xlink:href="#DejaVuSans-20" x="119.166016"/>
       <use xlink:href="#DejaVuSans-30" x="150.953125"/>
       <use xlink:href="#DejaVuSans-31" x="214.576172"/>
       <use xlink:href="#DejaVuSans-2f" x="278.199219"/>
       <use xlink:href="#DejaVuSans-31" x="311.890625"/>
       <use xlink:href="#DejaVuSans-34" x="375.513672"/>
      </g>
     </g>
    </g>
    <g id="xtick_8">
     <g id="line2d_8">
      <g>
       <use xlink:href="#me68e0ccb0b" x="383.477043" y="276.48" style="fill: #ffffff; stroke: #ffffff; stroke-width: 0.8"/>
      </g>
     </g>
     <g id="text_8">
      <!-- Mon 01/17 -->
      <g style="fill: #ffffff" transform="translate(336.467488 316.601065)rotate(-30)scale(0.1 -0.1)">
       <use xlink:href="#DejaVuSans-4d"/>
       <use xlink:href="#DejaVuSans-6f" x="86.279297"/>
       <use xlink:href="#DejaVuSans-6e" x="147.460938"/>
       <use xlink:href="#DejaVuSans-20" x="210.839844"/>
       <use xlink:href="#DejaVuSans-30" x="242.626953"/>
       <use xlink:href="#DejaVuSans-31" x="306.25"/>
       <use xlink:href="#DejaVuSans-2f" x="369.873047"/>
       <use xlink:href="#DejaVuSans-31" x="403.564453"/>
       <use xlink:href="#DejaVuSans-37" x="467.1875"/>
      </g>
     </g>
    </g>
    <g id="xtick_9">
     <g id="line2d_9">
      <defs>
       <path id="m2d3d53fdb8" d="M 0 0 
L 0 2 
" style="stroke: #ffffff; stroke-width: 0.6"/>
      </defs>
      <g>
       <use xlink:href="#m2d3d53fdb8" x="66.995156" y="276.48" style="fill: #ffffff; stroke: #ffffff; stroke-width: 0.6"/>
      </g>
     </g>
    </g>
    <g id="xtick_10">
     <g id="line2d_10">
      <g>
       <use xlink:href="#m2d3d53fdb8" x="78.716707" y="276.48" style="fill: #ffffff; stroke: #ffffff; stroke-width: 0.6"/>
      </g>
     </g>
    </g>
    <g id="xtick_11">
     <g id="line2d_11">
      <g>
       <use xlink:href="#m2d3d53fdb8" x="90.438258" y="276.48" style="fill: #ffffff; stroke: #ffffff; stroke-width: 0.6"/>
      </g>
     </g>
    </g>
    <g id="xtick_12">
     <g id="line2d_12">
      <g>
       <use xlink:href="#m2d3d53fdb8" x="113.881361" y="276.48" style="fill: #ffffff; stroke: #ffffff; stroke-width: 0.6"/>
      </g>
     </g>
    </g>
    <g id="xtick_13">
     <g id="line2d_13">
      <g>
       <use xlink:href="#m2d3d53fdb8" x="125.602912" y="276.48" style="fill: #ffffff; stroke: #ffffff; stroke-width: 0.6"/>
      </g>
     </g>
    </g>
    <g id="xtick_14">
     <g id="line2d_14">
      <g>
       <use xlink:href="#m2d3d53fdb8" x="149.046015" y="276.48" style="fill: #ffffff; stroke: #ffffff; stroke-width: 0.6"/>
      </g>
     </g>
    </g>
    <g id="xtick_15">
     <g id="line2d_15">
      <g>
       <use xlink:href="#m2d3d53fdb8" x="160.767567" y="276.48" style="fill: #ffffff; stroke: #ffffff; stroke-width: 0.6"/>
      </g>
     </g>
    </g>
    <g id="xtick_16">
     <g id="line2d_16">
      <g>
       <use xlink:href="#m2d3d53fdb8" x="172.489118" y="276.48" style="fill: #ffffff; stroke: #ffffff; stroke-width: 0.6"/>
      </g>
     </g>
    </g>
    <g id="xtick_17">
     <g id="line2d_17">
      <g>
       <use xlink:href="#m2d3d53fdb8" x="195.932221" y="276.48" style="fill: #ffffff; stroke: #ffffff; stroke-width: 0.6"/>
      </g>
     </g>
    </g>
    <g id="xtick_18">
     <g id="line2d_18">
      <g>
       <use xlink:href="#m2d3d53fdb8" x="207.653772" y="276.48" style="fill: #ffffff; stroke: #ffffff; stroke-width: 0.6"/>
      </g>
     </g>
    </g>
    <g id="xtick_19">
     <g id="line2d_19">
      <g>
       <use xlink:href="#m2d3d53fdb8" x="231.096875" y="276.48" style="fill: #ffffff; stroke: #ffffff; stroke-width: 0.6"/>
      </g>
     </g>
    </g>
    <g id="xtick_20">
     <g id="line2d_20">
      <g>
       <use xlink:href="#m2d3d53fdb8" x="242.818426" y="276.48" style="fill: #ffffff; stroke: #ffffff; stroke-width: 0.6"/>
      </g>
     </g>
    </g>
    <g id="xtick_21">
     <g id="line2d_21">
      <g>
       <use xlink:href="#m2d3d53fdb8" x="254.539978" y="276.48" style="fill: #ffffff; stroke: #ffffff; stroke-width: 0.6"/>
      </g>
     </g>
    </g>
    <g id="xtick_22">
     <g id="line2d_22">
      <g>
       <use xlink:href="#m2d3d53fdb8" x="277.98308" y="276.48" style="fill: #ffffff; stroke: #ffffff; stroke-width: 0.6"/>
      </g>
     </g>
    </g>
    <g id="xtick_23">
     <g id="line2d_23">
      <g>
       <use xlink:href="#m2d3d53fdb8" x="289.704632" y="276.48" style="fill: #ffffff; stroke: #ffffff; stroke-width: 0.6"/>
      </g>
     </g>
    </g>
    <g id="xtick_24">
     <g id="line2d_24">
      <g>
       <use xlink:href="#m2d3d53fdb8" x="313.147734" y="276.48" style="fill: #ffffff; stroke: #ffffff; stroke-width: 0.6"/>
      </g>
     </g>
    </g>
    <g id="xtick_25">
     <g id="line2d_25">
      <g>
       <use xlink:href="#m2d3d53fdb8" x="324.869286" y="276.48" style="fill: #ffffff; stroke: #ffffff; stroke-width: 0.6"/>
      </g>
     </g>
    </g>
    <g id="xtick_26">
     <g id="line2d_26">
      <g>
       <use xlink:href="#m2d3d53fdb8" x="336.590837" y="276.48" style="fill: #ffffff; stroke: #ffffff; stroke-width: 0.6"/>
      </g>
     </g>
    </g>
    <g id="xtick_27">
     <g id="line2d_27">
      <g>
       <use xlink:href="#m2d3d53fdb8" x="360.03394" y="276.48" style="fill: #ffffff; stroke: #ffffff; stroke-width: 0.6"/>
      </g>
     </g>
    </g>
    <g id="xtick_28">
     <g id="line2d_28">
      <g>
       <use xlink:href="#m2d3d53fdb8" x="371.755491" y="276.48" style="fill: #ffffff; stroke: #ffffff; stroke-width: 0.6"/>
      </g>
     </g>
    </g>
    <g id="xtick_29">
     <g id="line2d_29">
      <g>
       <use xlink:href="#m2d3d53fdb8" x="395.198594" y="276.48" style="fill: #ffffff; stroke: #ffffff; stroke-width: 0.6"/>
      </g>
     </g>
    </g>
    <g id="xtick_30">
     <g id="line2d_30">
      <g>
       <use xlink:href="#m2d3d53fdb8" x="406.920145" y="276.48" style="fill: #ffffff; stroke: #ffffff; stroke-width: 0.6"/>
      </g>
     </g>
    </g>
   </g>
   <g id="matplotlib.axis_2">
    <g id="ytick_1">
     <g id="line2d_31">
      <defs>
       <path id="mb6740f83ad" d="M 0 0 
L -3.5 0 
" style="stroke: #ffffff; stroke-width: 0.8"/>
      </defs>
      <g>
       <use xlink:href="#mb6740f83ad" x="57.6" y="276.48" style="fill: #ffffff; stroke: #ffffff; stroke-width: 0.8"/>
      </g>
     </g>
     <g id="text_9">
      <!-- 0 -->
      <g style="fill: #ffffff" transform="translate(44.2375 280.279219)scale(0.1 -0.1)">
       <use xlink:href="#DejaVuSans-30"/>
      </g>
     </g>
    </g>
    <g id="ytick_2">
     <g id="line2d_32">
      <g>
       <use xlink:href="#mb6740f83ad" x="57.6" y="246.637714" style="fill: #ffffff; stroke: #ffffff; stroke-width: 0.8"/>
      </g>
     </g>
     <g id="text_10">
      <!-- 200 -->
      <g style="fill: #ffffff" transform="translate(31.5125 250.436933)scale(0.1 -0.1)">
       <use xlink:href="#DejaVuSans-32"/>
       <use xlink:href="#DejaVuSans-30" x="63.623047"/>
       <use xlink:href="#DejaVuSans-30" x="127.246094"/>
      </g>
     </g>
    </g>
    <g id="ytick_3">
     <g id="line2d_33">
      <g>
       <use xlink:href="#mb6740f83ad" x="57.6" y="216.795429" style="fill: #ffffff; stroke: #ffffff; stroke-width: 0.8"/>
      </g>
     </g>
     <g id="text_11">
      <!-- 400 -->
      <g style="fill: #ffffff" transform="translate(31.5125 220.594647)scale(0.1 -0.1)">
       <use xlink:href="#DejaVuSans-34"/>
       <use xlink:href="#DejaVuSans-30" x="63.623047"/>
       <use xlink:href="#DejaVuSans-30" x="127.246094"/>
      </g>
     </g>
    </g>
    <g id="ytick_4">
     <g id="line2d_34">
      <g>
       <use xlink:href="#mb6740f83ad" x="57.6" y="186.953143" style="fill: #ffffff; stroke: #ffffff; stroke-width: 0.8"/>
      </g>
     </g>
     <g id="text_12">
      <!-- 600 -->
      <g style="fill: #ffffff" transform="translate(31.5125 190.752362)scale(0.1 -0.1)">
       <defs>
        <path id="DejaVuSans-36" d="M 2113 2584 
Q 1688 2584 1439 2293 
Q 1191 2003 1191 1497 
Q 1191 994 1439 701 
Q 1688 409 2113 409 
Q 2538 409 2786 701 
Q 3034 994 3034 1497 
Q 3034 2003 2786 2293 
Q 2538 2584 2113 2584 
z
M 3366 4563 
L 3366 3988 
Q 3128 4100 2886 4159 
Q 2644 4219 2406 4219 
Q 1781 4219 1451 3797 
Q 1122 3375 1075 2522 
Q 1259 2794 1537 2939 
Q 1816 3084 2150 3084 
Q 2853 3084 3261 2657 
Q 3669 2231 3669 1497 
Q 3669 778 3244 343 
Q 2819 -91 2113 -91 
Q 1303 -91 875 529 
Q 447 1150 447 2328 
Q 447 3434 972 4092 
Q 1497 4750 2381 4750 
Q 2619 4750 2861 4703 
Q 3103 4656 3366 4563 
z
" transform="scale(0.015625)"/>
       </defs>
       <use xlink:href="#DejaVuSans-36"/>
       <use xlink:href="#DejaVuSans-30" x="63.623047"/>
       <use xlink:href="#DejaVuSans-30" x="127.246094"/>
      </g>
     </g>
    </g>
    <g id="ytick_5">
     <g id="line2d_35">
      <g>
       <use xlink:href="#mb6740f83ad" x="57.6" y="157.110857" style="fill: #ffffff; stroke: #ffffff; stroke-width: 0.8"/>
      </g>
     </g>
     <g id="text_13">
      <!-- 800 -->
      <g style="fill: #ffffff" transform="translate(31.5125 160.910076)scale(0.1 -0.1)">
       <defs>
        <path id="DejaVuSans-38" d="M 2034 2216 
Q 1584 2216 1326 1975 
Q 1069 1734 1069 1313 
Q 1069 891 1326 650 
Q 1584 409 2034 409 
Q 2484 409 2743 651 
Q 3003 894 3003 1313 
Q 3003 1734 2745 1975 
Q 2488 2216 2034 2216 
z
M 1403 2484 
Q 997 2584 770 2862 
Q 544 3141 544 3541 
Q 544 4100 942 4425 
Q 1341 4750 2034 4750 
Q 2731 4750 3128 4425 
Q 3525 4100 3525 3541 
Q 3525 3141 3298 2862 
Q 3072 2584 2669 2484 
Q 3125 2378 3379 2068 
Q 3634 1759 3634 1313 
Q 3634 634 3220 271 
Q 2806 -91 2034 -91 
Q 1263 -91 848 271 
Q 434 634 434 1313 
Q 434 1759 690 2068 
Q 947 2378 1403 2484 
z
M 1172 3481 
Q 1172 3119 1398 2916 
Q 1625 2713 2034 2713 
Q 2441 2713 2670 2916 
Q 2900 3119 2900 3481 
Q 2900 3844 2670 4047 
Q 2441 4250 2034 4250 
Q 1625 4250 1398 4047 
Q 1172 3844 1172 3481 
z
" transform="scale(0.015625)"/>
       </defs>
       <use xlink:href="#DejaVuSans-38"/>
       <use xlink:href="#DejaVuSans-30" x="63.623047"/>
       <use xlink:href="#DejaVuSans-30" x="127.246094"/>
      </g>
     </g>
    </g>
    <g id="ytick_6">
     <g id="line2d_36">
      <g>
       <use xlink:href="#mb6740f83ad" x="57.6" y="127.268571" style="fill: #ffffff; stroke: #ffffff; stroke-width: 0.8"/>
      </g>
     </g>
     <g id="text_14">
      <!-- 1000 -->
      <g style="fill: #ffffff" transform="translate(25.15 131.06779)scale(0.1 -0.1)">
       <use xlink:href="#DejaVuSans-31"/>
       <use xlink:href="#DejaVuSans-30" x="63.623047"/>
       <use xlink:href="#DejaVuSans-30" x="127.246094"/>
       <use xlink:href="#DejaVuSans-30" x="190.869141"/>
      </g>
     </g>
    </g>
    <g id="ytick_7">
     <g id="line2d_37">
      <g>
       <use xlink:href="#mb6740f83ad" x="57.6" y="97.426286" style="fill: #ffffff; stroke: #ffffff; stroke-width: 0.8"/>
      </g>
     </g>
     <g id="text_15">
      <!-- 1200 -->
      <g style="fill: #ffffff" transform="translate(25.15 101.225504)scale(0.1 -0.1)">
       <use xlink:href="#DejaVuSans-31"/>
       <use xlink:href="#DejaVuSans-32" x="63.623047"/>
       <use xlink:href="#DejaVuSans-30" x="127.246094"/>
       <use xlink:href="#DejaVuSans-30" x="190.869141"/>
      </g>
     </g>
    </g>
    <g id="ytick_8">
     <g id="line2d_38">
      <g>
       <use xlink:href="#mb6740f83ad" x="57.6" y="67.584" style="fill: #ffffff; stroke: #ffffff; stroke-width: 0.8"/>
      </g>
     </g>
     <g id="text_16">
      <!-- 1400 -->
      <g style="fill: #ffffff" transform="translate(25.15 71.383219)scale(0.1 -0.1)">
       <use xlink:href="#DejaVuSans-31"/>
       <use xlink:href="#DejaVuSans-34" x="63.623047"/>
       <use xlink:href="#DejaVuSans-30" x="127.246094"/>
       <use xlink:href="#DejaVuSans-30" x="190.869141"/>
      </g>
     </g>
    </g>
    <g id="text_17">
     <!-- Number of tickets sold -->
     <g style="fill: #ffffff" transform="translate(19.070312 215.329906)rotate(-90)scale(0.1 -0.1)">
      <defs>
       <path id="DejaVuSans-4e" d="M 628 4666 
L 1478 4666 
L 3547 763 
L 3547 4666 
L 4159 4666 
L 4159 0 
L 3309 0 
L 1241 3903 
L 1241 0 
L 628 0 
L 628 4666 
z
" transform="scale(0.015625)"/>
       <path id="DejaVuSans-75" d="M 544 1381 
L 544 3500 
L 1119 3500 
L 1119 1403 
Q 1119 906 1312 657 
Q 1506 409 1894 409 
Q 2359 409 2629 706 
Q 2900 1003 2900 1516 
L 2900 3500 
L 3475 3500 
L 3475 0 
L 2900 0 
L 2900 538 
Q 2691 219 2414 64 
Q 2138 -91 1772 -91 
Q 1169 -91 856 284 
Q 544 659 544 1381 
z
M 1991 3584 
L 1991 3584 
z
" transform="scale(0.015625)"/>
       <path id="DejaVuSans-6d" d="M 3328 2828 
Q 3544 3216 3844 3400 
Q 4144 3584 4550 3584 
Q 5097 3584 5394 3201 
Q 5691 2819 5691 2113 
L 5691 0 
L 5113 0 
L 5113 2094 
Q 5113 2597 4934 2840 
Q 4756 3084 4391 3084 
Q 3944 3084 3684 2787 
Q 3425 2491 3425 1978 
L 3425 0 
L 2847 0 
L 2847 2094 
Q 2847 2600 2669 2842 
Q 2491 3084 2119 3084 
Q 1678 3084 1418 2786 
Q 1159 2488 1159 1978 
L 1159 0 
L 581 0 
L 581 3500 
L 1159 3500 
L 1159 2956 
Q 1356 3278 1631 3431 
Q 1906 3584 2284 3584 
Q 2666 3584 2933 3390 
Q 3200 3197 3328 2828 
z
" transform="scale(0.015625)"/>
       <path id="DejaVuSans-62" d="M 3116 1747 
Q 3116 2381 2855 2742 
Q 2594 3103 2138 3103 
Q 1681 3103 1420 2742 
Q 1159 2381 1159 1747 
Q 1159 1113 1420 752 
Q 1681 391 2138 391 
Q 2594 391 2855 752 
Q 3116 1113 3116 1747 
z
M 1159 2969 
Q 1341 3281 1617 3432 
Q 1894 3584 2278 3584 
Q 2916 3584 3314 3078 
Q 3713 2572 3713 1747 
Q 3713 922 3314 415 
Q 2916 -91 2278 -91 
Q 1894 -91 1617 61 
Q 1341 213 1159 525 
L 1159 0 
L 581 0 
L 581 4863 
L 1159 4863 
L 1159 2969 
z
" transform="scale(0.015625)"/>
       <path id="DejaVuSans-65" d="M 3597 1894 
L 3597 1613 
L 953 1613 
Q 991 1019 1311 708 
Q 1631 397 2203 397 
Q 2534 397 2845 478 
Q 3156 559 3463 722 
L 3463 178 
Q 3153 47 2828 -22 
Q 2503 -91 2169 -91 
Q 1331 -91 842 396 
Q 353 884 353 1716 
Q 353 2575 817 3079 
Q 1281 3584 2069 3584 
Q 2775 3584 3186 3129 
Q 3597 2675 3597 1894 
z
M 3022 2063 
Q 3016 2534 2758 2815 
Q 2500 3097 2075 3097 
Q 1594 3097 1305 2825 
Q 1016 2553 972 2059 
L 3022 2063 
z
" transform="scale(0.015625)"/>
       <path id="DejaVuSans-66" d="M 2375 4863 
L 2375 4384 
L 1825 4384 
Q 1516 4384 1395 4259 
Q 1275 4134 1275 3809 
L 1275 3500 
L 2222 3500 
L 2222 3053 
L 1275 3053 
L 1275 0 
L 697 0 
L 697 3053 
L 147 3053 
L 147 3500 
L 697 3500 
L 697 3744 
Q 697 4328 969 4595 
Q 1241 4863 1831 4863 
L 2375 4863 
z
" transform="scale(0.015625)"/>
       <path id="DejaVuSans-74" d="M 1172 4494 
L 1172 3500 
L 2356 3500 
L 2356 3053 
L 1172 3053 
L 1172 1153 
Q 1172 725 1289 603 
Q 1406 481 1766 481 
L 2356 481 
L 2356 0 
L 1766 0 
Q 1100 0 847 248 
Q 594 497 594 1153 
L 594 3053 
L 172 3053 
L 172 3500 
L 594 3500 
L 594 4494 
L 1172 4494 
z
" transform="scale(0.015625)"/>
       <path id="DejaVuSans-63" d="M 3122 3366 
L 3122 2828 
Q 2878 2963 2633 3030 
Q 2388 3097 2138 3097 
Q 1578 3097 1268 2742 
Q 959 2388 959 1747 
Q 959 1106 1268 751 
Q 1578 397 2138 397 
Q 2388 397 2633 464 
Q 2878 531 3122 666 
L 3122 134 
Q 2881 22 2623 -34 
Q 2366 -91 2075 -91 
Q 1284 -91 818 406 
Q 353 903 353 1747 
Q 353 2603 823 3093 
Q 1294 3584 2113 3584 
Q 2378 3584 2631 3529 
Q 2884 3475 3122 3366 
z
" transform="scale(0.015625)"/>
       <path id="DejaVuSans-6b" d="M 581 4863 
L 1159 4863 
L 1159 1991 
L 2875 3500 
L 3609 3500 
L 1753 1863 
L 3688 0 
L 2938 0 
L 1159 1709 
L 1159 0 
L 581 0 
L 581 4863 
z
" transform="scale(0.015625)"/>
       <path id="DejaVuSans-73" d="M 2834 3397 
L 2834 2853 
Q 2591 2978 2328 3040 
Q 2066 3103 1784 3103 
Q 1356 3103 1142 2972 
Q 928 2841 928 2578 
Q 928 2378 1081 2264 
Q 1234 2150 1697 2047 
L 1894 2003 
Q 2506 1872 2764 1633 
Q 3022 1394 3022 966 
Q 3022 478 2636 193 
Q 2250 -91 1575 -91 
Q 1294 -91 989 -36 
Q 684 19 347 128 
L 347 722 
Q 666 556 975 473 
Q 1284 391 1588 391 
Q 1994 391 2212 530 
Q 2431 669 2431 922 
Q 2431 1156 2273 1281 
Q 2116 1406 1581 1522 
L 1381 1569 
Q 847 1681 609 1914 
Q 372 2147 372 2553 
Q 372 3047 722 3315 
Q 1072 3584 1716 3584 
Q 2034 3584 2315 3537 
Q 2597 3491 2834 3397 
z
" transform="scale(0.015625)"/>
       <path id="DejaVuSans-6c" d="M 603 4863 
L 1178 4863 
L 1178 0 
L 603 0 
L 603 4863 
z
" transform="scale(0.015625)"/>
       <path id="DejaVuSans-64" d="M 2906 2969 
L 2906 4863 
L 3481 4863 
L 3481 0 
L 2906 0 
L 2906 525 
Q 2725 213 2448 61 
Q 2172 -91 1784 -91 
Q 1150 -91 751 415 
Q 353 922 353 1747 
Q 353 2572 751 3078 
Q 1150 3584 1784 3584 
Q 2172 3584 2448 3432 
Q 2725 3281 2906 2969 
z
M 947 1747 
Q 947 1113 1208 752 
Q 1469 391 1925 391 
Q 2381 391 2643 752 
Q 2906 1113 2906 1747 
Q 2906 2381 2643 2742 
Q 2381 3103 1925 3103 
Q 1469 3103 1208 2742 
Q 947 2381 947 1747 
z
" transform="scale(0.015625)"/>
      </defs>
      <use xlink:href="#DejaVuSans-4e"/>
      <use xlink:href="#DejaVuSans-75" x="74.804688"/>
      <use xlink:href="#DejaVuSans-6d" x="138.183594"/>
      <use xlink:href="#DejaVuSans-62" x="235.595703"/>
      <use xlink:href="#DejaVuSans-65" x="299.072266"/>
      <use xlink:href="#DejaVuSans-72" x="360.595703"/>
      <use xlink:href="#DejaVuSans-20" x="401.708984"/>
      <use xlink:href="#DejaVuSans-6f" x="433.496094"/>
      <use xlink:href="#DejaVuSans-66" x="494.677734"/>
      <use xlink:href="#DejaVuSans-20" x="529.882812"/>
      <use xlink:href="#DejaVuSans-74" x="561.669922"/>
      <use xlink:href="#DejaVuSans-69" x="600.878906"/>
      <use xlink:href="#DejaVuSans-63" x="628.662109"/>
      <use xlink:href="#DejaVuSans-6b" x="683.642578"/>
      <use xlink:href="#DejaVuSans-65" x="737.927734"/>
      <use xlink:href="#DejaVuSans-74" x="799.451172"/>
      <use xlink:href="#DejaVuSans-73" x="838.660156"/>
      <use xlink:href="#DejaVuSans-20" x="890.759766"/>
      <use xlink:href="#DejaVuSans-73" x="922.546875"/>
      <use xlink:href="#DejaVuSans-6f" x="974.646484"/>
      <use xlink:href="#DejaVuSans-6c" x="1035.828125"/>
      <use xlink:href="#DejaVuSans-64" x="1063.611328"/>
     </g>
    </g>
   </g>
   <g id="line2d_39">
    <path d="M 57.6 52.662857 
L 414.72 52.662857 
" clip-path="url(#p0afeb562eb)" style="fill: none; stroke-dasharray: 5.55,2.4; stroke-dashoffset: 0; stroke: #32cd32; stroke-width: 1.5"/>
   </g>
   <g id="patch_3">
    <path d="M 57.6 276.48 
L 57.6 41.472 
" style="fill: none; stroke: #000000; stroke-width: 0.8; stroke-linejoin: miter; stroke-linecap: square"/>
   </g>
   <g id="patch_4">
    <path d="M 414.72 276.48 
L 414.72 41.472 
" style="fill: none; stroke: #000000; stroke-width: 0.8; stroke-linejoin: miter; stroke-linecap: square"/>
   </g>
   <g id="patch_5">
    <path d="M 57.6 276.48 
L 414.72 276.48 
" style="fill: none; stroke: #000000; stroke-width: 0.8; stroke-linejoin: miter; stroke-linecap: square"/>
   </g>
   <g id="patch_6">
    <path d="M 57.6 41.472 
L 414.72 41.472 
" style="fill: none; stroke: #000000; stroke-width: 0.8; stroke-linejoin: miter; stroke-linecap: square"/>
   </g>
   <g id="text_18">
    <!-- MCH Tickets -->
    <g style="fill: #ffffff" transform="translate(199.504687 35.472)scale(0.12 -0.12)">
     <defs>
      <path id="DejaVuSans-43" d="M 4122 4306 
L 4122 3641 
Q 3803 3938 3442 4084 
Q 3081 4231 2675 4231 
Q 1875 4231 1450 3742 
Q 1025 3253 1025 2328 
Q 1025 1406 1450 917 
Q 1875 428 2675 428 
Q 3081 428 3442 575 
Q 3803 722 4122 1019 
L 4122 359 
Q 3791 134 3420 21 
Q 3050 -91 2638 -91 
Q 1578 -91 968 557 
Q 359 1206 359 2328 
Q 359 3453 968 4101 
Q 1578 4750 2638 4750 
Q 3056 4750 3426 4639 
Q 3797 4528 4122 4306 
z
" transform="scale(0.015625)"/>
      <path id="DejaVuSans-48" d="M 628 4666 
L 1259 4666 
L 1259 2753 
L 3553 2753 
L 3553 4666 
L 4184 4666 
L 4184 0 
L 3553 0 
L 3553 2222 
L 1259 2222 
L 1259 0 
L 628 0 
L 628 4666 
z
" transform="scale(0.015625)"/>
      <path id="DejaVuSans-54" d="M -19 4666 
L 3928 4666 
L 3928 4134 
L 2272 4134 
L 2272 0 
L 1638 0 
L 1638 4134 
L -19 4134 
L -19 4666 
z
" transform="scale(0.015625)"/>
     </defs>
     <use xlink:href="#DejaVuSans-4d"/>
     <use xlink:href="#DejaVuSans-43" x="86.279297"/>
     <use xlink:href="#DejaVuSans-48" x="156.103516"/>
     <use xlink:href="#DejaVuSans-20" x="231.298828"/>
     <use xlink:href="#DejaVuSans-54" x="263.085938"/>
     <use xlink:href="#DejaVuSans-69" x="321.044922"/>
     <use xlink:href="#DejaVuSans-63" x="348.828125"/>
     <use xlink:href="#DejaVuSans-6b" x="403.808594"/>
     <use xlink:href="#DejaVuSans-65" x="458.09375"/>
     <use xlink:href="#DejaVuSans-74" x="519.617188"/>
     <use xlink:href="#DejaVuSans-73" x="558.826172"/>
    </g>
   </g>
   <g id="legend_1">
    <g id="patch_7">
     <path d="M 64.6 93.506375 
L 244.389062 93.506375 
Q 246.389062 93.506375 246.389062 91.506375 
L 246.389062 48.472 
Q 246.389062 46.472 244.389062 46.472 
L 64.6 46.472 
Q 62.6 46.472 62.6 48.472 
L 62.6 91.506375 
Q 62.6 93.506375 64.6 93.506375 
z
" style="fill: #ffffff; opacity: 0.8; stroke: #cccccc; stroke-linejoin: miter"/>
    </g>
    <g id="patch_8">
     <path d="M 66.6 58.070437 
L 86.6 58.070437 
L 86.6 51.070437 
L 66.6 51.070437 
z
" style="fill: #fa448c; fill-opacity: 0.8"/>
    </g>
    <g id="text_19">
     <!-- Early-BirdTickets -->
     <g transform="translate(94.6 58.070437)scale(0.1 -0.1)">
      <defs>
       <path id="DejaVuSans-45" d="M 628 4666 
L 3578 4666 
L 3578 4134 
L 1259 4134 
L 1259 2753 
L 3481 2753 
L 3481 2222 
L 1259 2222 
L 1259 531 
L 3634 531 
L 3634 0 
L 628 0 
L 628 4666 
z
" transform="scale(0.015625)"/>
       <path id="DejaVuSans-61" d="M 2194 1759 
Q 1497 1759 1228 1600 
Q 959 1441 959 1056 
Q 959 750 1161 570 
Q 1363 391 1709 391 
Q 2188 391 2477 730 
Q 2766 1069 2766 1631 
L 2766 1759 
L 2194 1759 
z
M 3341 1997 
L 3341 0 
L 2766 0 
L 2766 531 
Q 2569 213 2275 61 
Q 1981 -91 1556 -91 
Q 1019 -91 701 211 
Q 384 513 384 1019 
Q 384 1609 779 1909 
Q 1175 2209 1959 2209 
L 2766 2209 
L 2766 2266 
Q 2766 2663 2505 2880 
Q 2244 3097 1772 3097 
Q 1472 3097 1187 3025 
Q 903 2953 641 2809 
L 641 3341 
Q 956 3463 1253 3523 
Q 1550 3584 1831 3584 
Q 2591 3584 2966 3190 
Q 3341 2797 3341 1997 
z
" transform="scale(0.015625)"/>
       <path id="DejaVuSans-79" d="M 2059 -325 
Q 1816 -950 1584 -1140 
Q 1353 -1331 966 -1331 
L 506 -1331 
L 506 -850 
L 844 -850 
Q 1081 -850 1212 -737 
Q 1344 -625 1503 -206 
L 1606 56 
L 191 3500 
L 800 3500 
L 1894 763 
L 2988 3500 
L 3597 3500 
L 2059 -325 
z
" transform="scale(0.015625)"/>
       <path id="DejaVuSans-2d" d="M 313 2009 
L 1997 2009 
L 1997 1497 
L 313 1497 
L 313 2009 
z
" transform="scale(0.015625)"/>
       <path id="DejaVuSans-42" d="M 1259 2228 
L 1259 519 
L 2272 519 
Q 2781 519 3026 730 
Q 3272 941 3272 1375 
Q 3272 1813 3026 2020 
Q 2781 2228 2272 2228 
L 1259 2228 
z
M 1259 4147 
L 1259 2741 
L 2194 2741 
Q 2656 2741 2882 2914 
Q 3109 3088 3109 3444 
Q 3109 3797 2882 3972 
Q 2656 4147 2194 4147 
L 1259 4147 
z
M 628 4666 
L 2241 4666 
Q 2963 4666 3353 4366 
Q 3744 4066 3744 3513 
Q 3744 3084 3544 2831 
Q 3344 2578 2956 2516 
Q 3422 2416 3680 2098 
Q 3938 1781 3938 1306 
Q 3938 681 3513 340 
Q 3088 0 2303 0 
L 628 0 
L 628 4666 
z
" transform="scale(0.015625)"/>
      </defs>
      <use xlink:href="#DejaVuSans-45"/>
      <use xlink:href="#DejaVuSans-61" x="63.183594"/>
      <use xlink:href="#DejaVuSans-72" x="124.462891"/>
      <use xlink:href="#DejaVuSans-6c" x="165.576172"/>
      <use xlink:href="#DejaVuSans-79" x="193.359375"/>
      <use xlink:href="#DejaVuSans-2d" x="250.789062"/>
      <use xlink:href="#DejaVuSans-42" x="283.248047"/>
      <use xlink:href="#DejaVuSans-69" x="351.851562"/>
      <use xlink:href="#DejaVuSans-72" x="379.634766"/>
      <use xlink:href="#DejaVuSans-64" x="418.998047"/>
      <use xlink:href="#DejaVuSans-54" x="482.474609"/>
      <use xlink:href="#DejaVuSans-69" x="540.433594"/>
      <use xlink:href="#DejaVuSans-63" x="568.216797"/>
      <use xlink:href="#DejaVuSans-6b" x="623.197266"/>
      <use xlink:href="#DejaVuSans-65" x="677.482422"/>
      <use xlink:href="#DejaVuSans-74" x="739.005859"/>
      <use xlink:href="#DejaVuSans-73" x="778.214844"/>
     </g>
    </g>
    <g id="patch_9">
     <path d="M 66.6 72.748562 
L 86.6 72.748562 
L 86.6 65.748562 
L 66.6 65.748562 
z
" style="fill: #43b5a0; fill-opacity: 0.8"/>
    </g>
    <g id="text_20">
     <!-- RegularTickets -->
     <g transform="translate(94.6 72.748562)scale(0.1 -0.1)">
      <defs>
       <path id="DejaVuSans-52" d="M 2841 2188 
Q 3044 2119 3236 1894 
Q 3428 1669 3622 1275 
L 4263 0 
L 3584 0 
L 2988 1197 
Q 2756 1666 2539 1819 
Q 2322 1972 1947 1972 
L 1259 1972 
L 1259 0 
L 628 0 
L 628 4666 
L 2053 4666 
Q 2853 4666 3247 4331 
Q 3641 3997 3641 3322 
Q 3641 2881 3436 2590 
Q 3231 2300 2841 2188 
z
M 1259 4147 
L 1259 2491 
L 2053 2491 
Q 2509 2491 2742 2702 
Q 2975 2913 2975 3322 
Q 2975 3731 2742 3939 
Q 2509 4147 2053 4147 
L 1259 4147 
z
" transform="scale(0.015625)"/>
       <path id="DejaVuSans-67" d="M 2906 1791 
Q 2906 2416 2648 2759 
Q 2391 3103 1925 3103 
Q 1463 3103 1205 2759 
Q 947 2416 947 1791 
Q 947 1169 1205 825 
Q 1463 481 1925 481 
Q 2391 481 2648 825 
Q 2906 1169 2906 1791 
z
M 3481 434 
Q 3481 -459 3084 -895 
Q 2688 -1331 1869 -1331 
Q 1566 -1331 1297 -1286 
Q 1028 -1241 775 -1147 
L 775 -588 
Q 1028 -725 1275 -790 
Q 1522 -856 1778 -856 
Q 2344 -856 2625 -561 
Q 2906 -266 2906 331 
L 2906 616 
Q 2728 306 2450 153 
Q 2172 0 1784 0 
Q 1141 0 747 490 
Q 353 981 353 1791 
Q 353 2603 747 3093 
Q 1141 3584 1784 3584 
Q 2172 3584 2450 3431 
Q 2728 3278 2906 2969 
L 2906 3500 
L 3481 3500 
L 3481 434 
z
" transform="scale(0.015625)"/>
      </defs>
      <use xlink:href="#DejaVuSans-52"/>
      <use xlink:href="#DejaVuSans-65" x="64.982422"/>
      <use xlink:href="#DejaVuSans-67" x="126.505859"/>
      <use xlink:href="#DejaVuSans-75" x="189.982422"/>
      <use xlink:href="#DejaVuSans-6c" x="253.361328"/>
      <use xlink:href="#DejaVuSans-61" x="281.144531"/>
      <use xlink:href="#DejaVuSans-72" x="342.423828"/>
      <use xlink:href="#DejaVuSans-54" x="383.537109"/>
      <use xlink:href="#DejaVuSans-69" x="441.496094"/>
      <use xlink:href="#DejaVuSans-63" x="469.279297"/>
      <use xlink:href="#DejaVuSans-6b" x="524.259766"/>
      <use xlink:href="#DejaVuSans-65" x="578.544922"/>
      <use xlink:href="#DejaVuSans-74" x="640.068359"/>
      <use xlink:href="#DejaVuSans-73" x="679.277344"/>
     </g>
    </g>
    <g id="line2d_40">
     <path d="M 66.6 83.926687 
L 76.6 83.926687 
L 86.6 83.926687 
" style="fill: none; stroke-dasharray: 5.55,2.4; stroke-dashoffset: 0; stroke: #32cd32; stroke-width: 1.5"/>
    </g>
    <g id="text_21">
     <!-- Required tickets w/ donations -->
     <g transform="translate(94.6 87.426687)scale(0.1 -0.1)">
      <defs>
       <path id="DejaVuSans-71" d="M 947 1747 
Q 947 1113 1208 752 
Q 1469 391 1925 391 
Q 2381 391 2643 752 
Q 2906 1113 2906 1747 
Q 2906 2381 2643 2742 
Q 2381 3103 1925 3103 
Q 1469 3103 1208 2742 
Q 947 2381 947 1747 
z
M 2906 525 
Q 2725 213 2448 61 
Q 2172 -91 1784 -91 
Q 1150 -91 751 415 
Q 353 922 353 1747 
Q 353 2572 751 3078 
Q 1150 3584 1784 3584 
Q 2172 3584 2448 3432 
Q 2725 3281 2906 2969 
L 2906 3500 
L 3481 3500 
L 3481 -1331 
L 2906 -1331 
L 2906 525 
z
" transform="scale(0.015625)"/>
       <path id="DejaVuSans-77" d="M 269 3500 
L 844 3500 
L 1563 769 
L 2278 3500 
L 2956 3500 
L 3675 769 
L 4391 3500 
L 4966 3500 
L 4050 0 
L 3372 0 
L 2619 2869 
L 1863 0 
L 1184 0 
L 269 3500 
z
" transform="scale(0.015625)"/>
      </defs>
      <use xlink:href="#DejaVuSans-52"/>
      <use xlink:href="#DejaVuSans-65" x="64.982422"/>
      <use xlink:href="#DejaVuSans-71" x="126.505859"/>
      <use xlink:href="#DejaVuSans-75" x="189.982422"/>
      <use xlink:href="#DejaVuSans-69" x="253.361328"/>
      <use xlink:href="#DejaVuSans-72" x="281.144531"/>
      <use xlink:href="#DejaVuSans-65" x="320.007812"/>
      <use xlink:href="#DejaVuSans-64" x="381.53125"/>
      <use xlink:href="#DejaVuSans-20" x="445.007812"/>
      <use xlink:href="#DejaVuSans-74" x="476.794922"/>
      <use xlink:href="#DejaVuSans-69" x="516.003906"/>
      <use xlink:href="#DejaVuSans-63" x="543.787109"/>
      <use xlink:href="#DejaVuSans-6b" x="598.767578"/>
      <use xlink:href="#DejaVuSans-65" x="653.052734"/>
      <use xlink:href="#DejaVuSans-74" x="714.576172"/>
      <use xlink:href="#DejaVuSans-73" x="753.785156"/>
      <use xlink:href="#DejaVuSans-20" x="805.884766"/>
      <use xlink:href="#DejaVuSans-77" x="837.671875"/>
      <use xlink:href="#DejaVuSans-2f" x="919.458984"/>
      <use xlink:href="#DejaVuSans-20" x="953.150391"/>
      <use xlink:href="#DejaVuSans-64" x="984.9375"/>
      <use xlink:href="#DejaVuSans-6f" x="1048.414062"/>
      <use xlink:href="#DejaVuSans-6e" x="1109.595703"/>
      <use xlink:href="#DejaVuSans-61" x="1172.974609"/>
      <use xlink:href="#DejaVuSans-74" x="1234.253906"/>
      <use xlink:href="#DejaVuSans-69" x="1273.462891"/>
      <use xlink:href="#DejaVuSans-6f" x="1301.246094"/>
      <use xlink:href="#DejaVuSans-6e" x="1362.427734"/>
      <use xlink:href="#DejaVuSans-73" x="1425.806641"/>
     </g>
    </g>
   </g>
  </g>
 </g>
 <defs>
  <clipPath id="p0afeb562eb">
   <rect x="57.6" y="41.472" width="357.12" height="235.008"/>
  </clipPath>
 </defs>
</svg>
