<?xml version="1.0" encoding="utf-8" standalone="no"?>
<!DOCTYPE svg PUBLIC "-//W3C//DTD SVG 1.1//EN"
  "http://www.w3.org/Graphics/SVG/1.1/DTD/svg11.dtd">
<svg xmlns:xlink="http://www.w3.org/1999/xlink" width="460.8pt" height="345.6pt" viewBox="0 0 460.8 345.6" xmlns="http://www.w3.org/2000/svg" version="1.1">
 <metadata>
  <rdf:RDF xmlns:dc="http://purl.org/dc/elements/1.1/" xmlns:cc="http://creativecommons.org/ns#" xmlns:rdf="http://www.w3.org/1999/02/22-rdf-syntax-ns#">
   <cc:Work>
    <dc:type rdf:resource="http://purl.org/dc/dcmitype/StillImage"/>
    <dc:date>2022-01-18T07:18:06.592748</dc:date>
    <dc:format>image/svg+xml</dc:format>
    <dc:creator>
     <cc:Agent>
      <dc:title>Matplotlib v3.5.1, https://matplotlib.org/</dc:title>
     </cc:Agent>
    </dc:creator>
   </cc:Work>
  </rdf:RDF>
 </metadata>
 <defs>
  <style type="text/css">*{stroke-linejoin: round; stroke-linecap: butt}</style>
 </defs>
 <g id="figure_1">
  <g id="patch_1">
   <path d="M 0 345.6 
L 460.8 345.6 
L 460.8 0 
L 0 0 
L 0 345.6 
z
" style="fill: none; opacity: 0"/>
  </g>
  <g id="axes_1">
   <g id="patch_2">
    <path d="M 57.6 276.48 
L 414.72 276.48 
L 414.72 41.472 
L 57.6 41.472 
z
" style="fill: #fec859"/>
   </g>
   <g id="PolyCollection_1">
    <path d="M 73.832727 276.48 
L 73.832727 276.48 
L 73.832727 276.48 
L 73.832727 276.48 
L 74.320708 276.48 
L 74.320708 276.48 
L 74.808689 276.48 
L 74.808689 276.48 
L 75.29667 276.48 
L 75.29667 276.48 
L 75.784651 276.48 
L 75.784651 276.48 
L 76.272632 276.48 
L 76.272632 276.48 
L 76.760612 276.48 
L 76.760612 276.48 
L 77.248593 276.48 
L 77.248593 276.48 
L 77.736574 276.48 
L 77.736574 276.48 
L 78.224555 276.48 
L 78.224555 276.48 
L 78.712536 276.48 
L 78.712536 276.48 
L 79.200517 276.48 
L 79.200517 276.48 
L 79.688497 276.48 
L 79.688497 276.48 
L 80.176478 276.48 
L 80.176478 276.48 
L 80.664459 276.48 
L 80.664459 276.48 
L 81.15244 276.48 
L 81.15244 276.48 
L 81.640421 276.48 
L 81.640421 276.48 
L 82.616383 276.48 
L 82.616383 276.48 
L 83.104363 276.48 
L 83.104363 276.48 
L 83.592344 276.48 
L 83.592344 276.48 
L 84.080325 276.48 
L 84.080325 276.48 
L 84.568306 276.48 
L 84.568306 276.48 
L 85.056287 276.48 
L 85.056287 276.48 
L 85.544268 276.48 
L 85.544268 276.48 
L 86.032248 276.48 
L 86.032248 276.48 
L 86.520229 276.48 
L 86.520229 276.48 
L 87.00821 276.48 
L 87.00821 276.48 
L 87.984172 276.48 
L 87.984172 276.48 
L 88.960134 276.48 
L 88.960134 276.48 
L 89.448114 276.48 
L 89.448114 276.48 
L 89.936095 276.48 
L 89.936095 276.48 
L 93.351961 276.48 
L 93.351961 276.48 
L 93.839942 276.48 
L 93.839942 276.48 
L 94.327923 276.48 
L 94.327923 276.48 
L 94.815904 276.48 
L 94.815904 276.48 
L 95.303885 276.48 
L 95.303885 276.48 
L 95.791865 276.48 
L 95.791865 276.48 
L 96.279846 276.48 
L 96.279846 276.48 
L 96.767827 276.48 
L 96.767827 276.48 
L 97.255808 276.48 
L 97.255808 276.48 
L 97.743789 276.48 
L 97.743789 276.48 
L 98.23177 276.48 
L 98.23177 276.48 
L 98.719751 276.48 
L 98.719751 276.48 
L 99.207731 276.48 
L 99.207731 276.48 
L 99.695712 276.48 
L 99.695712 276.48 
L 100.183693 276.48 
L 100.183693 276.48 
L 100.671674 276.48 
L 100.671674 276.48 
L 101.159655 276.48 
L 101.159655 276.48 
L 101.647636 276.48 
L 101.647636 276.48 
L 104.575521 276.48 
L 104.575521 276.48 
L 106.039463 276.48 
L 106.039463 276.48 
L 106.527444 276.48 
L 106.527444 276.48 
L 107.015425 276.48 
L 107.015425 276.48 
L 107.991387 276.48 
L 107.991387 276.48 
L 108.479368 276.48 
L 108.479368 276.48 
L 108.967348 276.48 
L 108.967348 276.48 
L 109.455329 276.48 
L 109.455329 276.48 
L 109.94331 276.48 
L 109.94331 276.48 
L 110.431291 276.48 
L 110.431291 276.48 
L 110.919272 276.48 
L 110.919272 276.48 
L 111.407253 276.48 
L 111.407253 276.48 
L 111.895233 276.48 
L 111.895233 276.48 
L 112.383214 276.48 
L 112.383214 276.48 
L 112.871195 276.48 
L 112.871195 276.48 
L 113.359176 276.48 
L 113.359176 276.48 
L 117.751004 276.48 
L 117.751004 276.48 
L 118.726965 276.48 
L 118.726965 276.48 
L 119.214946 276.48 
L 119.214946 276.48 
L 119.702927 276.48 
L 119.702927 276.48 
L 120.190908 276.48 
L 120.190908 276.48 
L 122.142831 276.48 
L 122.142831 276.48 
L 130.438506 276.48 
L 130.438506 276.48 
L 131.414467 276.48 
L 131.414467 276.48 
L 131.902448 276.48 
L 131.902448 276.48 
L 132.87841 276.48 
L 132.87841 276.48 
L 133.366391 276.48 
L 133.366391 276.48 
L 134.830333 276.48 
L 134.830333 276.48 
L 136.782257 276.48 
L 136.782257 276.48 
L 137.270238 276.48 
L 137.270238 276.48 
L 141.174084 276.48 
L 141.174084 276.48 
L 141.662065 276.48 
L 141.662065 276.48 
L 142.150046 276.48 
L 142.150046 276.48 
L 142.638027 276.48 
L 142.638027 276.48 
L 143.126008 276.48 
L 143.126008 276.48 
L 143.613989 276.48 
L 143.613989 276.48 
L 144.101969 276.48 
L 144.101969 276.48 
L 144.58995 276.48 
L 144.58995 276.48 
L 145.077931 276.48 
L 145.077931 276.48 
L 146.053893 276.48 
L 146.053893 276.48 
L 146.541874 276.48 
L 146.541874 276.48 
L 147.029855 276.48 
L 147.029855 276.48 
L 147.517835 276.48 
L 147.517835 276.48 
L 148.005816 276.48 
L 148.005816 276.48 
L 148.493797 276.48 
L 148.493797 276.48 
L 149.469759 276.48 
L 149.469759 276.48 
L 151.421682 276.48 
L 151.421682 276.48 
L 153.373606 276.48 
L 153.373606 276.48 
L 154.349567 276.48 
L 154.349567 276.48 
L 155.325529 276.48 
L 155.325529 276.48 
L 156.301491 276.48 
L 156.301491 276.48 
L 156.789472 276.48 
L 156.789472 276.48 
L 157.765433 276.48 
L 157.765433 276.48 
L 158.253414 276.48 
L 158.253414 276.48 
L 158.741395 276.48 
L 158.741395 276.48 
L 159.229376 276.48 
L 159.229376 276.48 
L 159.717357 276.48 
L 159.717357 276.48 
L 160.205337 276.48 
L 160.205337 276.48 
L 164.109184 276.48 
L 164.109184 276.48 
L 164.597165 276.48 
L 164.597165 276.48 
L 165.085146 276.48 
L 165.085146 276.48 
L 165.573127 276.48 
L 165.573127 276.48 
L 166.061108 276.48 
L 166.061108 276.48 
L 166.549088 276.48 
L 166.549088 276.48 
L 167.037069 276.48 
L 167.037069 276.48 
L 167.52505 276.48 
L 167.52505 276.48 
L 168.501012 276.48 
L 168.501012 276.48 
L 169.476974 276.48 
L 169.476974 276.48 
L 170.452935 276.48 
L 170.452935 276.48 
L 170.940916 276.48 
L 170.940916 276.48 
L 171.428897 276.48 
L 171.428897 276.48 
L 171.916878 276.48 
L 171.916878 276.48 
L 172.89284 276.48 
L 172.89284 276.48 
L 173.38082 276.48 
L 173.38082 276.48 
L 173.868801 276.48 
L 173.868801 276.48 
L 175.820725 276.48 
L 175.820725 276.48 
L 177.284667 276.48 
L 177.284667 276.48 
L 177.772648 276.48 
L 177.772648 276.48 
L 179.724571 276.48 
L 179.724571 276.48 
L 180.700533 276.48 
L 180.700533 276.48 
L 181.188514 276.48 
L 181.188514 276.48 
L 181.676495 276.48 
L 181.676495 276.48 
L 182.164476 276.48 
L 182.164476 276.48 
L 182.652456 276.48 
L 182.652456 276.48 
L 183.140437 276.48 
L 183.140437 276.48 
L 184.116399 276.48 
L 184.116399 276.48 
L 187.044284 276.48 
L 187.044284 276.48 
L 187.532265 276.48 
L 187.532265 276.48 
L 188.020246 276.48 
L 188.020246 276.48 
L 188.996208 276.48 
L 188.996208 276.48 
L 189.484188 276.48 
L 189.484188 276.48 
L 190.46015 276.48 
L 190.46015 276.48 
L 190.948131 276.48 
L 190.948131 276.48 
L 192.412073 276.48 
L 192.412073 276.48 
L 192.900054 276.48 
L 192.900054 276.48 
L 193.876016 276.48 
L 193.876016 276.48 
L 194.363997 276.48 
L 194.363997 276.48 
L 194.851978 276.48 
L 194.851978 276.48 
L 195.339959 276.48 
L 195.339959 276.48 
L 195.827939 276.48 
L 195.827939 276.48 
L 200.707748 276.48 
L 200.707748 276.48 
L 201.68371 276.48 
L 201.68371 276.48 
L 202.17169 276.48 
L 202.17169 276.48 
L 203.635633 276.48 
L 203.635633 276.48 
L 204.123614 276.48 
L 204.123614 276.48 
L 204.611595 276.48 
L 204.611595 276.48 
L 206.075537 276.48 
L 206.075537 276.48 
L 206.563518 276.48 
L 206.563518 276.48 
L 211.443327 276.48 
L 211.443327 276.48 
L 212.419288 276.48 
L 212.419288 276.48 
L 213.39525 276.48 
L 213.39525 276.48 
L 213.883231 276.48 
L 213.883231 276.48 
L 214.371212 276.48 
L 214.371212 276.48 
L 214.859192 276.48 
L 214.859192 276.48 
L 215.347173 276.48 
L 215.347173 276.48 
L 216.323135 276.48 
L 216.323135 276.48 
L 217.299097 276.48 
L 217.299097 276.48 
L 218.275058 276.48 
L 218.275058 276.48 
L 218.763039 276.48 
L 218.763039 276.48 
L 219.25102 276.48 
L 219.25102 276.48 
L 223.154867 276.48 
L 223.154867 276.48 
L 224.618809 276.48 
L 224.618809 276.48 
L 225.10679 276.48 
L 225.10679 276.48 
L 226.570733 276.48 
L 226.570733 276.48 
L 227.546695 276.48 
L 227.546695 276.48 
L 228.034675 276.48 
L 228.034675 276.48 
L 228.522656 276.48 
L 228.522656 276.48 
L 229.010637 276.48 
L 229.010637 276.48 
L 229.986599 276.48 
L 229.986599 276.48 
L 234.378426 276.48 
L 234.378426 276.48 
L 236.818331 276.48 
L 236.818331 276.48 
L 237.306312 276.48 
L 237.306312 276.48 
L 238.770254 276.48 
L 238.770254 276.48 
L 239.746216 276.48 
L 239.746216 276.48 
L 240.234197 276.48 
L 240.234197 276.48 
L 240.722177 276.48 
L 240.722177 276.48 
L 241.210158 276.48 
L 241.210158 276.48 
L 241.698139 276.48 
L 241.698139 276.48 
L 242.18612 276.48 
L 242.18612 276.48 
L 246.089967 276.48 
L 246.089967 276.48 
L 247.065928 276.48 
L 247.065928 276.48 
L 247.553909 276.48 
L 247.553909 276.48 
L 248.04189 276.48 
L 248.04189 276.48 
L 248.529871 276.48 
L 248.529871 276.48 
L 249.017852 276.48 
L 249.017852 276.48 
L 249.505833 276.48 
L 249.505833 276.48 
L 249.993814 276.48 
L 249.993814 276.48 
L 250.481794 276.48 
L 250.481794 276.48 
L 251.457756 276.48 
L 251.457756 276.48 
L 257.801507 276.48 
L 257.801507 276.48 
L 259.753431 276.48 
L 259.753431 276.48 
L 260.729392 276.48 
L 260.729392 276.48 
L 261.217373 276.48 
L 261.217373 276.48 
L 262.681316 276.48 
L 262.681316 276.48 
L 263.169297 276.48 
L 263.169297 276.48 
L 263.657277 276.48 
L 263.657277 276.48 
L 265.12122 276.48 
L 265.12122 276.48 
L 266.585162 276.48 
L 266.585162 276.48 
L 270.001028 276.48 
L 270.001028 276.48 
L 270.489009 276.48 
L 270.489009 276.48 
L 270.97699 276.48 
L 270.97699 276.48 
L 271.464971 276.48 
L 271.464971 276.48 
L 271.952952 276.48 
L 271.952952 276.48 
L 273.416894 276.48 
L 273.416894 276.48 
L 274.880837 276.48 
L 274.880837 276.48 
L 276.344779 276.48 
L 276.344779 276.48 
L 284.152473 276.48 
L 284.152473 276.48 
L 286.104396 276.48 
L 286.104396 276.48 
L 286.592377 276.48 
L 286.592377 276.48 
L 295.376033 276.48 
L 295.376033 276.48 
L 295.864013 276.48 
L 295.864013 276.48 
L 296.351994 276.48 
L 296.351994 276.48 
L 297.327956 276.48 
L 297.327956 276.48 
L 297.815937 276.48 
L 297.815937 276.48 
L 298.303918 276.48 
L 298.303918 276.48 
L 299.279879 276.48 
L 299.279879 276.48 
L 303.671707 276.48 
L 303.671707 276.48 
L 304.647669 276.48 
L 304.647669 276.48 
L 306.111611 276.48 
L 306.111611 276.48 
L 307.087573 276.48 
L 307.087573 276.48 
L 309.039496 276.48 
L 309.039496 276.48 
L 311.967381 276.48 
L 311.967381 276.48 
L 318.311132 276.48 
L 318.311132 276.48 
L 318.799113 276.48 
L 318.799113 276.48 
L 320.263056 276.48 
L 320.263056 276.48 
L 321.239017 276.48 
L 321.239017 276.48 
L 321.726998 276.48 
L 321.726998 276.48 
L 322.70296 276.48 
L 322.70296 276.48 
L 327.094788 276.48 
L 327.094788 276.48 
L 328.55873 276.48 
L 328.55873 276.48 
L 329.534692 276.48 
L 329.534692 276.48 
L 330.022673 276.48 
L 330.022673 276.48 
L 330.510654 276.48 
L 330.510654 276.48 
L 332.462577 276.48 
L 332.462577 276.48 
L 333.92652 276.48 
L 333.92652 276.48 
L 334.4145 276.48 
L 334.4145 276.48 
L 334.902481 276.48 
L 334.902481 276.48 
L 335.390462 276.48 
L 335.390462 276.48 
L 340.270271 276.48 
L 340.270271 276.48 
L 341.246232 276.48 
L 341.246232 276.48 
L 343.686137 276.48 
L 343.686137 276.48 
L 346.126041 276.48 
L 346.126041 276.48 
L 346.614022 276.48 
L 346.614022 276.48 
L 347.102002 276.48 
L 347.102002 276.48 
L 348.077964 276.48 
L 348.077964 276.48 
L 350.517868 276.48 
L 350.517868 276.48 
L 351.49383 276.48 
L 351.49383 276.48 
L 353.445753 276.48 
L 353.445753 276.48 
L 357.3496 276.48 
L 357.3496 276.48 
L 359.301524 276.48 
L 359.301524 276.48 
L 362.174428 276.48 
L 362.174428 276.48 
L 362.374478 276.48 
L 362.374478 276.48 
L 362.549061 276.48 
L 362.549061 276.48 
L 362.895199 276.48 
L 362.895199 276.48 
L 363.114709 276.48 
L 363.114709 276.48 
L 363.345083 276.48 
L 363.345083 276.48 
L 363.51761 276.48 
L 363.51761 276.48 
L 363.873436 276.48 
L 363.873436 276.48 
L 364.067419 276.48 
L 364.067419 276.48 
L 364.328552 276.48 
L 364.328552 276.48 
L 364.520425 276.48 
L 364.520425 276.48 
L 364.825895 276.48 
L 364.825895 276.48 
L 365.017987 276.48 
L 365.017987 276.48 
L 365.276647 276.48 
L 365.276647 276.48 
L 365.45768 276.48 
L 365.45768 276.48 
L 365.881467 276.48 
L 365.881467 276.48 
L 366.156565 276.48 
L 366.156565 276.48 
L 366.473429 276.48 
L 366.473429 276.48 
L 366.497543 276.48 
L 366.497543 276.48 
L 366.511748 276.48 
L 366.511748 276.48 
L 366.752707 276.48 
L 366.752707 276.48 
L 366.936847 276.48 
L 366.936847 276.48 
L 367.260408 276.48 
L 367.260408 276.48 
L 367.469581 276.48 
L 367.469581 276.48 
L 367.821687 276.48 
L 367.821687 276.48 
L 368.517557 276.48 
L 368.517557 276.48 
L 368.537701 276.48 
L 368.537701 276.48 
L 368.562593 276.48 
L 368.562593 276.48 
L 368.745456 276.48 
L 368.745456 276.48 
L 368.952383 276.48 
L 368.952383 276.48 
L 369.177115 276.48 
L 369.177115 276.48 
L 369.362305 276.48 
L 369.362305 276.48 
L 369.702204 276.48 
L 369.702204 276.48 
L 370.160264 276.48 
L 370.160264 276.48 
L 375.581121 276.48 
L 375.581121 276.48 
L 376.987433 276.48 
L 376.987433 276.48 
L 378.185964 276.48 
L 378.185964 276.48 
L 378.464081 276.48 
L 378.464081 276.48 
L 379.828341 276.48 
L 379.828341 276.48 
L 380.174271 276.48 
L 380.174271 276.48 
L 380.453776 276.48 
L 380.453776 276.48 
L 380.890092 276.48 
L 380.890092 276.48 
L 388.259531 276.48 
L 388.259531 276.48 
L 391.25686 276.48 
L 391.25686 276.48 
L 393.316115 276.48 
L 393.316115 276.48 
L 393.589091 276.48 
L 393.589091 276.48 
L 394.58613 276.48 
L 394.58613 276.48 
L 395.444705 276.48 
L 395.444705 276.48 
L 398.487273 276.48 
L 398.487273 276.48 
L 398.487273 200.083749 
L 398.487273 200.083749 
L 398.487273 200.083749 
L 395.444705 200.083749 
L 395.444705 200.083749 
L 394.58613 200.083749 
L 394.58613 200.083749 
L 393.589091 200.083749 
L 393.589091 200.083749 
L 393.316115 200.083749 
L 393.316115 200.083749 
L 391.25686 200.083749 
L 391.25686 200.083749 
L 388.259531 200.083749 
L 388.259531 200.083749 
L 380.890092 200.083749 
L 380.890092 200.083749 
L 380.453776 200.083749 
L 380.453776 200.083749 
L 380.174271 200.083749 
L 380.174271 200.083749 
L 379.828341 200.083749 
L 379.828341 200.083749 
L 378.464081 200.083749 
L 378.464081 200.083749 
L 378.185964 200.083749 
L 378.185964 200.083749 
L 376.987433 200.083749 
L 376.987433 200.083749 
L 375.581121 200.083749 
L 375.581121 200.083749 
L 370.160264 200.083749 
L 370.160264 200.083749 
L 369.702204 200.083749 
L 369.702204 200.083749 
L 369.362305 200.083749 
L 369.362305 200.083749 
L 369.177115 200.083749 
L 369.177115 200.083749 
L 368.952383 200.083749 
L 368.952383 200.083749 
L 368.745456 200.083749 
L 368.745456 200.083749 
L 368.562593 200.083749 
L 368.562593 200.083749 
L 368.537701 200.083749 
L 368.537701 200.083749 
L 368.517557 200.083749 
L 368.517557 200.083749 
L 367.821687 200.083749 
L 367.821687 200.083749 
L 367.469581 200.083749 
L 367.469581 200.083749 
L 367.260408 200.083749 
L 367.260408 200.083749 
L 366.936847 200.083749 
L 366.936847 200.083749 
L 366.752707 200.083749 
L 366.752707 200.083749 
L 366.511748 200.083749 
L 366.511748 200.083749 
L 366.497543 200.083749 
L 366.497543 200.083749 
L 366.473429 200.083749 
L 366.473429 200.083749 
L 366.156565 200.083749 
L 366.156565 200.083749 
L 365.881467 200.083749 
L 365.881467 200.083749 
L 365.45768 200.083749 
L 365.45768 200.083749 
L 365.276647 200.083749 
L 365.276647 200.083749 
L 365.017987 200.083749 
L 365.017987 200.083749 
L 364.825895 200.083749 
L 364.825895 200.083749 
L 364.520425 200.083749 
L 364.520425 200.083749 
L 364.328552 200.083749 
L 364.328552 200.083749 
L 364.067419 200.083749 
L 364.067419 200.083749 
L 363.873436 200.083749 
L 363.873436 200.083749 
L 363.51761 200.083749 
L 363.51761 200.083749 
L 363.345083 200.083749 
L 363.345083 200.083749 
L 363.114709 200.083749 
L 363.114709 200.083749 
L 362.895199 200.083749 
L 362.895199 200.083749 
L 362.549061 200.083749 
L 362.549061 200.083749 
L 362.374478 200.083749 
L 362.374478 200.083749 
L 362.174428 200.083749 
L 362.174428 202.023497 
L 359.301524 202.023497 
L 359.301524 202.023497 
L 357.3496 202.023497 
L 357.3496 202.023497 
L 353.445753 202.023497 
L 353.445753 202.023497 
L 351.49383 202.023497 
L 351.49383 202.023497 
L 350.517868 202.023497 
L 350.517868 202.023497 
L 348.077964 202.023497 
L 348.077964 202.023497 
L 347.102002 202.023497 
L 347.102002 202.023497 
L 346.614022 202.023497 
L 346.614022 202.023497 
L 346.126041 202.023497 
L 346.126041 202.023497 
L 343.686137 202.023497 
L 343.686137 202.023497 
L 341.246232 202.023497 
L 341.246232 202.023497 
L 340.270271 202.023497 
L 340.270271 202.023497 
L 335.390462 202.023497 
L 335.390462 202.023497 
L 334.902481 202.023497 
L 334.902481 202.023497 
L 334.4145 202.023497 
L 334.4145 202.023497 
L 333.92652 202.023497 
L 333.92652 202.023497 
L 332.462577 202.023497 
L 332.462577 202.023497 
L 330.510654 202.023497 
L 330.510654 202.023497 
L 330.022673 202.023497 
L 330.022673 202.023497 
L 329.534692 202.023497 
L 329.534692 202.023497 
L 328.55873 202.023497 
L 328.55873 202.023497 
L 327.094788 202.023497 
L 327.094788 202.023497 
L 322.70296 202.023497 
L 322.70296 202.023497 
L 321.726998 202.023497 
L 321.726998 202.023497 
L 321.239017 202.023497 
L 321.239017 202.023497 
L 320.263056 202.023497 
L 320.263056 202.023497 
L 318.799113 202.023497 
L 318.799113 202.023497 
L 318.311132 202.023497 
L 318.311132 202.023497 
L 311.967381 202.023497 
L 311.967381 202.023497 
L 309.039496 202.023497 
L 309.039496 202.023497 
L 307.087573 202.023497 
L 307.087573 202.023497 
L 306.111611 202.023497 
L 306.111611 202.023497 
L 304.647669 202.023497 
L 304.647669 202.023497 
L 303.671707 202.023497 
L 303.671707 202.023497 
L 299.279879 202.023497 
L 299.279879 202.023497 
L 298.303918 202.023497 
L 298.303918 202.023497 
L 297.815937 202.023497 
L 297.815937 202.023497 
L 297.327956 202.023497 
L 297.327956 202.023497 
L 296.351994 202.023497 
L 296.351994 202.023497 
L 295.864013 202.023497 
L 295.864013 202.023497 
L 295.376033 202.023497 
L 295.376033 202.023497 
L 286.592377 202.023497 
L 286.592377 202.023497 
L 286.104396 202.023497 
L 286.104396 202.023497 
L 284.152473 202.023497 
L 284.152473 202.023497 
L 276.344779 202.023497 
L 276.344779 202.023497 
L 274.880837 202.023497 
L 274.880837 202.023497 
L 273.416894 202.023497 
L 273.416894 202.023497 
L 271.952952 202.023497 
L 271.952952 202.023497 
L 271.464971 202.023497 
L 271.464971 202.023497 
L 270.97699 202.023497 
L 270.97699 202.023497 
L 270.489009 202.023497 
L 270.489009 202.023497 
L 270.001028 202.023497 
L 270.001028 202.023497 
L 266.585162 202.023497 
L 266.585162 202.023497 
L 265.12122 202.023497 
L 265.12122 202.023497 
L 263.657277 202.023497 
L 263.657277 202.023497 
L 263.169297 202.023497 
L 263.169297 202.023497 
L 262.681316 202.023497 
L 262.681316 202.023497 
L 261.217373 202.023497 
L 261.217373 202.023497 
L 260.729392 202.023497 
L 260.729392 202.023497 
L 259.753431 202.023497 
L 259.753431 202.023497 
L 257.801507 202.023497 
L 257.801507 202.023497 
L 251.457756 202.023497 
L 251.457756 202.023497 
L 250.481794 202.023497 
L 250.481794 202.023497 
L 249.993814 202.023497 
L 249.993814 202.023497 
L 249.505833 202.023497 
L 249.505833 202.023497 
L 249.017852 202.023497 
L 249.017852 202.023497 
L 248.529871 202.023497 
L 248.529871 202.023497 
L 248.04189 202.023497 
L 248.04189 202.023497 
L 247.553909 202.023497 
L 247.553909 202.023497 
L 247.065928 202.023497 
L 247.065928 202.023497 
L 246.089967 202.023497 
L 246.089967 202.023497 
L 242.18612 202.023497 
L 242.18612 202.023497 
L 241.698139 202.023497 
L 241.698139 202.023497 
L 241.210158 202.023497 
L 241.210158 202.023497 
L 240.722177 202.023497 
L 240.722177 202.023497 
L 240.234197 202.023497 
L 240.234197 202.023497 
L 239.746216 202.023497 
L 239.746216 202.023497 
L 238.770254 202.023497 
L 238.770254 202.023497 
L 237.306312 202.023497 
L 237.306312 202.023497 
L 236.818331 202.023497 
L 236.818331 202.023497 
L 234.378426 202.023497 
L 234.378426 202.023497 
L 229.986599 202.023497 
L 229.986599 202.023497 
L 229.010637 202.023497 
L 229.010637 202.023497 
L 228.522656 202.023497 
L 228.522656 202.023497 
L 228.034675 202.023497 
L 228.034675 202.023497 
L 227.546695 202.023497 
L 227.546695 202.023497 
L 226.570733 202.023497 
L 226.570733 202.023497 
L 225.10679 202.023497 
L 225.10679 202.023497 
L 224.618809 202.023497 
L 224.618809 202.023497 
L 223.154867 202.023497 
L 223.154867 202.023497 
L 219.25102 202.023497 
L 219.25102 202.023497 
L 218.763039 202.023497 
L 218.763039 202.023497 
L 218.275058 202.023497 
L 218.275058 202.023497 
L 217.299097 202.023497 
L 217.299097 202.023497 
L 216.323135 202.023497 
L 216.323135 202.023497 
L 215.347173 202.023497 
L 215.347173 202.023497 
L 214.859192 202.023497 
L 214.859192 202.023497 
L 214.371212 202.023497 
L 214.371212 202.023497 
L 213.883231 202.023497 
L 213.883231 202.023497 
L 213.39525 202.023497 
L 213.39525 202.023497 
L 212.419288 202.023497 
L 212.419288 202.023497 
L 211.443327 202.023497 
L 211.443327 202.023497 
L 206.563518 202.023497 
L 206.563518 202.023497 
L 206.075537 202.023497 
L 206.075537 202.023497 
L 204.611595 202.023497 
L 204.611595 202.172709 
L 204.123614 202.172709 
L 204.123614 202.471131 
L 203.635633 202.471131 
L 203.635633 202.620343 
L 202.17169 202.620343 
L 202.17169 203.067977 
L 201.68371 203.067977 
L 201.68371 203.217189 
L 200.707748 203.217189 
L 200.707748 203.3664 
L 195.827939 203.3664 
L 195.827939 203.664823 
L 195.339959 203.664823 
L 195.339959 203.664823 
L 194.851978 203.664823 
L 194.851978 203.963246 
L 194.363997 203.963246 
L 194.363997 204.41088 
L 193.876016 204.41088 
L 193.876016 204.41088 
L 192.900054 204.41088 
L 192.900054 204.709303 
L 192.412073 204.709303 
L 192.412073 204.858514 
L 190.948131 204.858514 
L 190.948131 205.156937 
L 190.46015 205.156937 
L 190.46015 206.649051 
L 189.484188 206.649051 
L 189.484188 206.947474 
L 188.996208 206.947474 
L 188.996208 207.096686 
L 188.020246 207.096686 
L 188.020246 207.693531 
L 187.532265 207.693531 
L 187.532265 207.693531 
L 187.044284 207.693531 
L 187.044284 207.842743 
L 184.116399 207.842743 
L 184.116399 208.141166 
L 183.140437 208.141166 
L 183.140437 208.5888 
L 182.652456 208.5888 
L 182.652456 208.887223 
L 182.164476 208.887223 
L 182.164476 209.782491 
L 181.676495 209.782491 
L 181.676495 210.230126 
L 181.188514 210.230126 
L 181.188514 211.125394 
L 180.700533 211.125394 
L 180.700533 211.573029 
L 179.724571 211.573029 
L 179.724571 211.72224 
L 177.772648 211.72224 
L 177.772648 211.871451 
L 177.284667 211.871451 
L 177.284667 212.169874 
L 175.820725 212.169874 
L 175.820725 212.169874 
L 173.868801 212.169874 
L 173.868801 212.468297 
L 173.38082 212.468297 
L 173.38082 212.617509 
L 172.89284 212.617509 
L 172.89284 212.76672 
L 171.916878 212.76672 
L 171.916878 213.214354 
L 171.428897 213.214354 
L 171.428897 213.214354 
L 170.940916 213.214354 
L 170.940916 213.512777 
L 170.452935 213.512777 
L 170.452935 214.258834 
L 169.476974 214.258834 
L 169.476974 214.557257 
L 168.501012 214.557257 
L 168.501012 214.557257 
L 167.52505 214.557257 
L 167.52505 214.706469 
L 167.037069 214.706469 
L 167.037069 214.85568 
L 166.549088 214.85568 
L 166.549088 215.154103 
L 166.061108 215.154103 
L 166.061108 215.303314 
L 165.573127 215.303314 
L 165.573127 215.452526 
L 165.085146 215.452526 
L 165.085146 215.750949 
L 164.597165 215.750949 
L 164.597165 215.750949 
L 164.109184 215.750949 
L 164.109184 215.90016 
L 160.205337 215.90016 
L 160.205337 215.90016 
L 159.717357 215.90016 
L 159.717357 216.198583 
L 159.229376 216.198583 
L 159.229376 216.347794 
L 158.741395 216.347794 
L 158.741395 216.497006 
L 158.253414 216.497006 
L 158.253414 216.646217 
L 157.765433 216.646217 
L 157.765433 216.94464 
L 156.789472 216.94464 
L 156.789472 216.94464 
L 156.301491 216.94464 
L 156.301491 217.243063 
L 155.325529 217.243063 
L 155.325529 217.541486 
L 154.349567 217.541486 
L 154.349567 217.98912 
L 153.373606 217.98912 
L 153.373606 218.287543 
L 151.421682 218.287543 
L 151.421682 218.287543 
L 149.469759 218.287543 
L 149.469759 218.436754 
L 148.493797 218.436754 
L 148.493797 218.735177 
L 148.005816 218.735177 
L 148.005816 218.884389 
L 147.517835 218.884389 
L 147.517835 219.182811 
L 147.029855 219.182811 
L 147.029855 219.481234 
L 146.541874 219.481234 
L 146.541874 219.779657 
L 146.053893 219.779657 
L 146.053893 219.928869 
L 145.077931 219.928869 
L 145.077931 220.227291 
L 144.58995 220.227291 
L 144.58995 220.525714 
L 144.101969 220.525714 
L 144.101969 220.973349 
L 143.613989 220.973349 
L 143.613989 221.271771 
L 143.126008 221.271771 
L 143.126008 221.570194 
L 142.638027 221.570194 
L 142.638027 221.719406 
L 142.150046 221.719406 
L 142.150046 222.316251 
L 141.662065 222.316251 
L 141.662065 222.465463 
L 141.174084 222.465463 
L 141.174084 222.763886 
L 137.270238 222.763886 
L 137.270238 223.509943 
L 136.782257 223.509943 
L 136.782257 223.659154 
L 134.830333 223.659154 
L 134.830333 224.256 
L 133.366391 224.256 
L 133.366391 224.554423 
L 132.87841 224.554423 
L 132.87841 225.002057 
L 131.902448 225.002057 
L 131.902448 225.151269 
L 131.414467 225.151269 
L 131.414467 225.30048 
L 130.438506 225.30048 
L 130.438506 225.449691 
L 122.142831 225.449691 
L 122.142831 225.598903 
L 120.190908 225.598903 
L 120.190908 225.748114 
L 119.702927 225.748114 
L 119.702927 226.046537 
L 119.214946 226.046537 
L 119.214946 226.195749 
L 118.726965 226.195749 
L 118.726965 226.34496 
L 117.751004 226.34496 
L 117.751004 226.643383 
L 113.359176 226.643383 
L 113.359176 227.240229 
L 112.871195 227.240229 
L 112.871195 227.38944 
L 112.383214 227.38944 
L 112.383214 227.538651 
L 111.895233 227.538651 
L 111.895233 227.687863 
L 111.407253 227.687863 
L 111.407253 227.837074 
L 110.919272 227.837074 
L 110.919272 227.837074 
L 110.431291 227.837074 
L 110.431291 228.135497 
L 109.94331 228.135497 
L 109.94331 228.43392 
L 109.455329 228.43392 
L 109.455329 228.732343 
L 108.967348 228.732343 
L 108.967348 229.179977 
L 108.479368 229.179977 
L 108.479368 229.627611 
L 107.991387 229.627611 
L 107.991387 229.926034 
L 107.015425 229.926034 
L 107.015425 230.224457 
L 106.527444 230.224457 
L 106.527444 230.373669 
L 106.039463 230.373669 
L 106.039463 230.52288 
L 104.575521 230.52288 
L 104.575521 230.672091 
L 101.647636 230.672091 
L 101.647636 231.119726 
L 101.159655 231.119726 
L 101.159655 231.268937 
L 100.671674 231.268937 
L 100.671674 231.418149 
L 100.183693 231.418149 
L 100.183693 231.716571 
L 99.695712 231.716571 
L 99.695712 232.014994 
L 99.207731 232.014994 
L 99.207731 232.61184 
L 98.719751 232.61184 
L 98.719751 232.910263 
L 98.23177 232.910263 
L 98.23177 233.65632 
L 97.743789 233.65632 
L 97.743789 234.103954 
L 97.255808 234.103954 
L 97.255808 234.850011 
L 96.767827 234.850011 
L 96.767827 234.999223 
L 96.279846 234.999223 
L 96.279846 235.297646 
L 95.791865 235.297646 
L 95.791865 236.043703 
L 95.303885 236.043703 
L 95.303885 236.342126 
L 94.815904 236.342126 
L 94.815904 236.640549 
L 94.327923 236.640549 
L 94.327923 236.78976 
L 93.839942 236.78976 
L 93.839942 237.088183 
L 93.351961 237.088183 
L 93.351961 237.237394 
L 89.936095 237.237394 
L 89.936095 237.386606 
L 89.448114 237.386606 
L 89.448114 237.685029 
L 88.960134 237.685029 
L 88.960134 238.281874 
L 87.984172 238.281874 
L 87.984172 238.87872 
L 87.00821 238.87872 
L 87.00821 239.326354 
L 86.520229 239.326354 
L 86.520229 239.773989 
L 86.032248 239.773989 
L 86.032248 239.773989 
L 85.544268 239.773989 
L 85.544268 240.370834 
L 85.056287 240.370834 
L 85.056287 241.713737 
L 84.568306 241.713737 
L 84.568306 242.310583 
L 84.080325 242.310583 
L 84.080325 243.205851 
L 83.592344 243.205851 
L 83.592344 244.250331 
L 83.104363 244.250331 
L 83.104363 244.548754 
L 82.616383 244.548754 
L 82.616383 245.1456 
L 81.640421 245.1456 
L 81.640421 245.444023 
L 81.15244 245.444023 
L 81.15244 245.593234 
L 80.664459 245.593234 
L 80.664459 245.742446 
L 80.176478 245.742446 
L 80.176478 245.742446 
L 79.688497 245.742446 
L 79.688497 246.040869 
L 79.200517 246.040869 
L 79.200517 246.19008 
L 78.712536 246.19008 
L 78.712536 246.339291 
L 78.224555 246.339291 
L 78.224555 247.532983 
L 77.736574 247.532983 
L 77.736574 249.025097 
L 77.248593 249.025097 
L 77.248593 252.009326 
L 76.760612 252.009326 
L 76.760612 254.396709 
L 76.272632 254.396709 
L 76.272632 257.380937 
L 75.784651 257.380937 
L 75.784651 261.708069 
L 75.29667 261.708069 
L 75.29667 269.019429 
L 74.808689 269.019429 
L 74.808689 273.794194 
L 74.320708 273.794194 
L 74.320708 275.584731 
L 73.832727 275.584731 
L 73.832727 276.48 
L 73.832727 276.48 
z
" clip-path="url(#p6e086c86a1)" style="fill: #fa448c; fill-opacity: 0.8"/>
   </g>
   <g id="PolyCollection_2">
    <path d="M 73.832727 276.48 
L 73.832727 276.48 
L 73.832727 276.48 
L 73.832727 275.584731 
L 74.320708 275.584731 
L 74.320708 273.794194 
L 74.808689 273.794194 
L 74.808689 269.019429 
L 75.29667 269.019429 
L 75.29667 261.708069 
L 75.784651 261.708069 
L 75.784651 257.380937 
L 76.272632 257.380937 
L 76.272632 254.396709 
L 76.760612 254.396709 
L 76.760612 252.009326 
L 77.248593 252.009326 
L 77.248593 249.025097 
L 77.736574 249.025097 
L 77.736574 247.532983 
L 78.224555 247.532983 
L 78.224555 246.339291 
L 78.712536 246.339291 
L 78.712536 246.19008 
L 79.200517 246.19008 
L 79.200517 246.040869 
L 79.688497 246.040869 
L 79.688497 245.742446 
L 80.176478 245.742446 
L 80.176478 245.742446 
L 80.664459 245.742446 
L 80.664459 245.593234 
L 81.15244 245.593234 
L 81.15244 245.444023 
L 81.640421 245.444023 
L 81.640421 245.1456 
L 82.616383 245.1456 
L 82.616383 244.548754 
L 83.104363 244.548754 
L 83.104363 244.250331 
L 83.592344 244.250331 
L 83.592344 243.205851 
L 84.080325 243.205851 
L 84.080325 242.310583 
L 84.568306 242.310583 
L 84.568306 241.713737 
L 85.056287 241.713737 
L 85.056287 240.370834 
L 85.544268 240.370834 
L 85.544268 239.773989 
L 86.032248 239.773989 
L 86.032248 239.773989 
L 86.520229 239.773989 
L 86.520229 239.326354 
L 87.00821 239.326354 
L 87.00821 238.87872 
L 87.984172 238.87872 
L 87.984172 238.281874 
L 88.960134 238.281874 
L 88.960134 237.685029 
L 89.448114 237.685029 
L 89.448114 237.386606 
L 89.936095 237.386606 
L 89.936095 237.237394 
L 93.351961 237.237394 
L 93.351961 237.088183 
L 93.839942 237.088183 
L 93.839942 236.78976 
L 94.327923 236.78976 
L 94.327923 236.640549 
L 94.815904 236.640549 
L 94.815904 236.342126 
L 95.303885 236.342126 
L 95.303885 236.043703 
L 95.791865 236.043703 
L 95.791865 235.297646 
L 96.279846 235.297646 
L 96.279846 234.999223 
L 96.767827 234.999223 
L 96.767827 234.850011 
L 97.255808 234.850011 
L 97.255808 234.103954 
L 97.743789 234.103954 
L 97.743789 233.65632 
L 98.23177 233.65632 
L 98.23177 232.910263 
L 98.719751 232.910263 
L 98.719751 232.61184 
L 99.207731 232.61184 
L 99.207731 232.014994 
L 99.695712 232.014994 
L 99.695712 231.716571 
L 100.183693 231.716571 
L 100.183693 231.418149 
L 100.671674 231.418149 
L 100.671674 231.268937 
L 101.159655 231.268937 
L 101.159655 231.119726 
L 101.647636 231.119726 
L 101.647636 230.672091 
L 104.575521 230.672091 
L 104.575521 230.52288 
L 106.039463 230.52288 
L 106.039463 230.373669 
L 106.527444 230.373669 
L 106.527444 230.224457 
L 107.015425 230.224457 
L 107.015425 229.926034 
L 107.991387 229.926034 
L 107.991387 229.627611 
L 108.479368 229.627611 
L 108.479368 229.179977 
L 108.967348 229.179977 
L 108.967348 228.732343 
L 109.455329 228.732343 
L 109.455329 228.43392 
L 109.94331 228.43392 
L 109.94331 228.135497 
L 110.431291 228.135497 
L 110.431291 227.837074 
L 110.919272 227.837074 
L 110.919272 227.837074 
L 111.407253 227.837074 
L 111.407253 227.687863 
L 111.895233 227.687863 
L 111.895233 227.538651 
L 112.383214 227.538651 
L 112.383214 227.38944 
L 112.871195 227.38944 
L 112.871195 227.240229 
L 113.359176 227.240229 
L 113.359176 226.643383 
L 117.751004 226.643383 
L 117.751004 226.34496 
L 118.726965 226.34496 
L 118.726965 226.195749 
L 119.214946 226.195749 
L 119.214946 226.046537 
L 119.702927 226.046537 
L 119.702927 225.748114 
L 120.190908 225.748114 
L 120.190908 225.598903 
L 122.142831 225.598903 
L 122.142831 225.449691 
L 130.438506 225.449691 
L 130.438506 225.30048 
L 131.414467 225.30048 
L 131.414467 225.151269 
L 131.902448 225.151269 
L 131.902448 225.002057 
L 132.87841 225.002057 
L 132.87841 224.554423 
L 133.366391 224.554423 
L 133.366391 224.256 
L 134.830333 224.256 
L 134.830333 223.659154 
L 136.782257 223.659154 
L 136.782257 223.509943 
L 137.270238 223.509943 
L 137.270238 222.763886 
L 141.174084 222.763886 
L 141.174084 222.465463 
L 141.662065 222.465463 
L 141.662065 222.316251 
L 142.150046 222.316251 
L 142.150046 221.719406 
L 142.638027 221.719406 
L 142.638027 221.570194 
L 143.126008 221.570194 
L 143.126008 221.271771 
L 143.613989 221.271771 
L 143.613989 220.973349 
L 144.101969 220.973349 
L 144.101969 220.525714 
L 144.58995 220.525714 
L 144.58995 220.227291 
L 145.077931 220.227291 
L 145.077931 219.928869 
L 146.053893 219.928869 
L 146.053893 219.779657 
L 146.541874 219.779657 
L 146.541874 219.481234 
L 147.029855 219.481234 
L 147.029855 219.182811 
L 147.517835 219.182811 
L 147.517835 218.884389 
L 148.005816 218.884389 
L 148.005816 218.735177 
L 148.493797 218.735177 
L 148.493797 218.436754 
L 149.469759 218.436754 
L 149.469759 218.287543 
L 151.421682 218.287543 
L 151.421682 218.287543 
L 153.373606 218.287543 
L 153.373606 217.98912 
L 154.349567 217.98912 
L 154.349567 217.541486 
L 155.325529 217.541486 
L 155.325529 217.243063 
L 156.301491 217.243063 
L 156.301491 216.94464 
L 156.789472 216.94464 
L 156.789472 216.94464 
L 157.765433 216.94464 
L 157.765433 216.646217 
L 158.253414 216.646217 
L 158.253414 216.497006 
L 158.741395 216.497006 
L 158.741395 216.347794 
L 159.229376 216.347794 
L 159.229376 216.198583 
L 159.717357 216.198583 
L 159.717357 215.90016 
L 160.205337 215.90016 
L 160.205337 215.90016 
L 164.109184 215.90016 
L 164.109184 215.750949 
L 164.597165 215.750949 
L 164.597165 215.750949 
L 165.085146 215.750949 
L 165.085146 215.452526 
L 165.573127 215.452526 
L 165.573127 215.303314 
L 166.061108 215.303314 
L 166.061108 215.154103 
L 166.549088 215.154103 
L 166.549088 214.85568 
L 167.037069 214.85568 
L 167.037069 214.706469 
L 167.52505 214.706469 
L 167.52505 214.557257 
L 168.501012 214.557257 
L 168.501012 214.557257 
L 169.476974 214.557257 
L 169.476974 214.258834 
L 170.452935 214.258834 
L 170.452935 213.512777 
L 170.940916 213.512777 
L 170.940916 213.214354 
L 171.428897 213.214354 
L 171.428897 213.214354 
L 171.916878 213.214354 
L 171.916878 212.76672 
L 172.89284 212.76672 
L 172.89284 212.617509 
L 173.38082 212.617509 
L 173.38082 212.468297 
L 173.868801 212.468297 
L 173.868801 212.169874 
L 175.820725 212.169874 
L 175.820725 212.169874 
L 177.284667 212.169874 
L 177.284667 211.871451 
L 177.772648 211.871451 
L 177.772648 211.72224 
L 179.724571 211.72224 
L 179.724571 211.573029 
L 180.700533 211.573029 
L 180.700533 211.125394 
L 181.188514 211.125394 
L 181.188514 210.230126 
L 181.676495 210.230126 
L 181.676495 209.782491 
L 182.164476 209.782491 
L 182.164476 208.887223 
L 182.652456 208.887223 
L 182.652456 208.5888 
L 183.140437 208.5888 
L 183.140437 208.141166 
L 184.116399 208.141166 
L 184.116399 207.842743 
L 187.044284 207.842743 
L 187.044284 207.693531 
L 187.532265 207.693531 
L 187.532265 207.693531 
L 188.020246 207.693531 
L 188.020246 207.096686 
L 188.996208 207.096686 
L 188.996208 206.947474 
L 189.484188 206.947474 
L 189.484188 206.649051 
L 190.46015 206.649051 
L 190.46015 205.156937 
L 190.948131 205.156937 
L 190.948131 204.858514 
L 192.412073 204.858514 
L 192.412073 204.709303 
L 192.900054 204.709303 
L 192.900054 204.41088 
L 193.876016 204.41088 
L 193.876016 204.41088 
L 194.363997 204.41088 
L 194.363997 203.963246 
L 194.851978 203.963246 
L 194.851978 203.664823 
L 195.339959 203.664823 
L 195.339959 203.664823 
L 195.827939 203.664823 
L 195.827939 203.3664 
L 200.707748 203.3664 
L 200.707748 203.217189 
L 201.68371 203.217189 
L 201.68371 203.067977 
L 202.17169 203.067977 
L 202.17169 202.620343 
L 203.635633 202.620343 
L 203.635633 202.471131 
L 204.123614 202.471131 
L 204.123614 202.172709 
L 204.611595 202.172709 
L 204.611595 202.023497 
L 206.075537 202.023497 
L 206.075537 202.023497 
L 206.563518 202.023497 
L 206.563518 202.023497 
L 211.443327 202.023497 
L 211.443327 202.023497 
L 212.419288 202.023497 
L 212.419288 202.023497 
L 213.39525 202.023497 
L 213.39525 202.023497 
L 213.883231 202.023497 
L 213.883231 202.023497 
L 214.371212 202.023497 
L 214.371212 202.023497 
L 214.859192 202.023497 
L 214.859192 202.023497 
L 215.347173 202.023497 
L 215.347173 202.023497 
L 216.323135 202.023497 
L 216.323135 202.023497 
L 217.299097 202.023497 
L 217.299097 202.023497 
L 218.275058 202.023497 
L 218.275058 202.023497 
L 218.763039 202.023497 
L 218.763039 202.023497 
L 219.25102 202.023497 
L 219.25102 202.023497 
L 223.154867 202.023497 
L 223.154867 202.023497 
L 224.618809 202.023497 
L 224.618809 202.023497 
L 225.10679 202.023497 
L 225.10679 202.023497 
L 226.570733 202.023497 
L 226.570733 202.023497 
L 227.546695 202.023497 
L 227.546695 202.023497 
L 228.034675 202.023497 
L 228.034675 202.023497 
L 228.522656 202.023497 
L 228.522656 202.023497 
L 229.010637 202.023497 
L 229.010637 202.023497 
L 229.986599 202.023497 
L 229.986599 202.023497 
L 234.378426 202.023497 
L 234.378426 202.023497 
L 236.818331 202.023497 
L 236.818331 202.023497 
L 237.306312 202.023497 
L 237.306312 202.023497 
L 238.770254 202.023497 
L 238.770254 202.023497 
L 239.746216 202.023497 
L 239.746216 202.023497 
L 240.234197 202.023497 
L 240.234197 202.023497 
L 240.722177 202.023497 
L 240.722177 202.023497 
L 241.210158 202.023497 
L 241.210158 202.023497 
L 241.698139 202.023497 
L 241.698139 202.023497 
L 242.18612 202.023497 
L 242.18612 202.023497 
L 246.089967 202.023497 
L 246.089967 202.023497 
L 247.065928 202.023497 
L 247.065928 202.023497 
L 247.553909 202.023497 
L 247.553909 202.023497 
L 248.04189 202.023497 
L 248.04189 202.023497 
L 248.529871 202.023497 
L 248.529871 202.023497 
L 249.017852 202.023497 
L 249.017852 202.023497 
L 249.505833 202.023497 
L 249.505833 202.023497 
L 249.993814 202.023497 
L 249.993814 202.023497 
L 250.481794 202.023497 
L 250.481794 202.023497 
L 251.457756 202.023497 
L 251.457756 202.023497 
L 257.801507 202.023497 
L 257.801507 202.023497 
L 259.753431 202.023497 
L 259.753431 202.023497 
L 260.729392 202.023497 
L 260.729392 202.023497 
L 261.217373 202.023497 
L 261.217373 202.023497 
L 262.681316 202.023497 
L 262.681316 202.023497 
L 263.169297 202.023497 
L 263.169297 202.023497 
L 263.657277 202.023497 
L 263.657277 202.023497 
L 265.12122 202.023497 
L 265.12122 202.023497 
L 266.585162 202.023497 
L 266.585162 202.023497 
L 270.001028 202.023497 
L 270.001028 202.023497 
L 270.489009 202.023497 
L 270.489009 202.023497 
L 270.97699 202.023497 
L 270.97699 202.023497 
L 271.464971 202.023497 
L 271.464971 202.023497 
L 271.952952 202.023497 
L 271.952952 202.023497 
L 273.416894 202.023497 
L 273.416894 202.023497 
L 274.880837 202.023497 
L 274.880837 202.023497 
L 276.344779 202.023497 
L 276.344779 202.023497 
L 284.152473 202.023497 
L 284.152473 202.023497 
L 286.104396 202.023497 
L 286.104396 202.023497 
L 286.592377 202.023497 
L 286.592377 202.023497 
L 295.376033 202.023497 
L 295.376033 202.023497 
L 295.864013 202.023497 
L 295.864013 202.023497 
L 296.351994 202.023497 
L 296.351994 202.023497 
L 297.327956 202.023497 
L 297.327956 202.023497 
L 297.815937 202.023497 
L 297.815937 202.023497 
L 298.303918 202.023497 
L 298.303918 202.023497 
L 299.279879 202.023497 
L 299.279879 202.023497 
L 303.671707 202.023497 
L 303.671707 202.023497 
L 304.647669 202.023497 
L 304.647669 202.023497 
L 306.111611 202.023497 
L 306.111611 202.023497 
L 307.087573 202.023497 
L 307.087573 202.023497 
L 309.039496 202.023497 
L 309.039496 202.023497 
L 311.967381 202.023497 
L 311.967381 202.023497 
L 318.311132 202.023497 
L 318.311132 202.023497 
L 318.799113 202.023497 
L 318.799113 202.023497 
L 320.263056 202.023497 
L 320.263056 202.023497 
L 321.239017 202.023497 
L 321.239017 202.023497 
L 321.726998 202.023497 
L 321.726998 202.023497 
L 322.70296 202.023497 
L 322.70296 202.023497 
L 327.094788 202.023497 
L 327.094788 202.023497 
L 328.55873 202.023497 
L 328.55873 202.023497 
L 329.534692 202.023497 
L 329.534692 202.023497 
L 330.022673 202.023497 
L 330.022673 202.023497 
L 330.510654 202.023497 
L 330.510654 202.023497 
L 332.462577 202.023497 
L 332.462577 202.023497 
L 333.92652 202.023497 
L 333.92652 202.023497 
L 334.4145 202.023497 
L 334.4145 202.023497 
L 334.902481 202.023497 
L 334.902481 202.023497 
L 335.390462 202.023497 
L 335.390462 202.023497 
L 340.270271 202.023497 
L 340.270271 202.023497 
L 341.246232 202.023497 
L 341.246232 202.023497 
L 343.686137 202.023497 
L 343.686137 202.023497 
L 346.126041 202.023497 
L 346.126041 202.023497 
L 346.614022 202.023497 
L 346.614022 202.023497 
L 347.102002 202.023497 
L 347.102002 202.023497 
L 348.077964 202.023497 
L 348.077964 202.023497 
L 350.517868 202.023497 
L 350.517868 202.023497 
L 351.49383 202.023497 
L 351.49383 202.023497 
L 353.445753 202.023497 
L 353.445753 202.023497 
L 357.3496 202.023497 
L 357.3496 202.023497 
L 359.301524 202.023497 
L 359.301524 202.023497 
L 362.174428 202.023497 
L 362.174428 200.083749 
L 362.374478 200.083749 
L 362.374478 200.083749 
L 362.549061 200.083749 
L 362.549061 200.083749 
L 362.895199 200.083749 
L 362.895199 200.083749 
L 363.114709 200.083749 
L 363.114709 200.083749 
L 363.345083 200.083749 
L 363.345083 200.083749 
L 363.51761 200.083749 
L 363.51761 200.083749 
L 363.873436 200.083749 
L 363.873436 200.083749 
L 364.067419 200.083749 
L 364.067419 200.083749 
L 364.328552 200.083749 
L 364.328552 200.083749 
L 364.520425 200.083749 
L 364.520425 200.083749 
L 364.825895 200.083749 
L 364.825895 200.083749 
L 365.017987 200.083749 
L 365.017987 200.083749 
L 365.276647 200.083749 
L 365.276647 200.083749 
L 365.45768 200.083749 
L 365.45768 200.083749 
L 365.881467 200.083749 
L 365.881467 200.083749 
L 366.156565 200.083749 
L 366.156565 200.083749 
L 366.473429 200.083749 
L 366.473429 200.083749 
L 366.497543 200.083749 
L 366.497543 200.083749 
L 366.511748 200.083749 
L 366.511748 200.083749 
L 366.752707 200.083749 
L 366.752707 200.083749 
L 366.936847 200.083749 
L 366.936847 200.083749 
L 367.260408 200.083749 
L 367.260408 200.083749 
L 367.469581 200.083749 
L 367.469581 200.083749 
L 367.821687 200.083749 
L 367.821687 200.083749 
L 368.517557 200.083749 
L 368.517557 200.083749 
L 368.537701 200.083749 
L 368.537701 200.083749 
L 368.562593 200.083749 
L 368.562593 200.083749 
L 368.745456 200.083749 
L 368.745456 200.083749 
L 368.952383 200.083749 
L 368.952383 200.083749 
L 369.177115 200.083749 
L 369.177115 200.083749 
L 369.362305 200.083749 
L 369.362305 200.083749 
L 369.702204 200.083749 
L 369.702204 200.083749 
L 370.160264 200.083749 
L 370.160264 200.083749 
L 375.581121 200.083749 
L 375.581121 200.083749 
L 376.987433 200.083749 
L 376.987433 200.083749 
L 378.185964 200.083749 
L 378.185964 200.083749 
L 378.464081 200.083749 
L 378.464081 200.083749 
L 379.828341 200.083749 
L 379.828341 200.083749 
L 380.174271 200.083749 
L 380.174271 200.083749 
L 380.453776 200.083749 
L 380.453776 200.083749 
L 380.890092 200.083749 
L 380.890092 200.083749 
L 388.259531 200.083749 
L 388.259531 200.083749 
L 391.25686 200.083749 
L 391.25686 200.083749 
L 393.316115 200.083749 
L 393.316115 200.083749 
L 393.589091 200.083749 
L 393.589091 200.083749 
L 394.58613 200.083749 
L 394.58613 200.083749 
L 395.444705 200.083749 
L 395.444705 200.083749 
L 398.487273 200.083749 
L 398.487273 200.083749 
L 398.487273 147.859749 
L 398.487273 147.859749 
L 398.487273 147.859749 
L 395.444705 147.859749 
L 395.444705 148.00896 
L 394.58613 148.00896 
L 394.58613 146.367634 
L 393.589091 146.367634 
L 393.589091 146.815269 
L 393.316115 146.815269 
L 393.316115 146.96448 
L 391.25686 146.96448 
L 391.25686 147.113691 
L 388.259531 147.113691 
L 388.259531 147.262903 
L 380.890092 147.262903 
L 380.890092 147.561326 
L 380.453776 147.561326 
L 380.453776 147.710537 
L 380.174271 147.710537 
L 380.174271 148.00896 
L 379.828341 148.00896 
L 379.828341 148.158171 
L 378.464081 148.158171 
L 378.464081 148.307383 
L 378.185964 148.307383 
L 378.185964 148.456594 
L 376.987433 148.456594 
L 376.987433 148.605806 
L 375.581121 148.605806 
L 375.581121 148.755017 
L 370.160264 148.755017 
L 370.160264 149.05344 
L 369.702204 149.05344 
L 369.702204 149.202651 
L 369.362305 149.202651 
L 369.362305 149.202651 
L 369.177115 149.202651 
L 369.177115 149.202651 
L 368.952383 149.202651 
L 368.952383 149.202651 
L 368.745456 149.202651 
L 368.745456 149.202651 
L 368.562593 149.202651 
L 368.562593 149.202651 
L 368.537701 149.202651 
L 368.537701 149.202651 
L 368.517557 149.202651 
L 368.517557 149.202651 
L 367.821687 149.202651 
L 367.821687 149.202651 
L 367.469581 149.202651 
L 367.469581 149.202651 
L 367.260408 149.202651 
L 367.260408 149.202651 
L 366.936847 149.202651 
L 366.936847 149.202651 
L 366.752707 149.202651 
L 366.752707 149.202651 
L 366.511748 149.202651 
L 366.511748 149.202651 
L 366.497543 149.202651 
L 366.497543 149.202651 
L 366.473429 149.202651 
L 366.473429 149.202651 
L 366.156565 149.202651 
L 366.156565 149.501074 
L 365.881467 149.501074 
L 365.881467 149.650286 
L 365.45768 149.650286 
L 365.45768 149.650286 
L 365.276647 149.650286 
L 365.276647 150.247131 
L 365.017987 150.247131 
L 365.017987 150.396343 
L 364.825895 150.396343 
L 364.825895 150.396343 
L 364.520425 150.396343 
L 364.520425 150.396343 
L 364.328552 150.396343 
L 364.328552 150.396343 
L 364.067419 150.396343 
L 364.067419 150.396343 
L 363.873436 150.396343 
L 363.873436 150.396343 
L 363.51761 150.396343 
L 363.51761 150.396343 
L 363.345083 150.396343 
L 363.345083 150.396343 
L 363.114709 150.396343 
L 363.114709 150.396343 
L 362.895199 150.396343 
L 362.895199 150.396343 
L 362.549061 150.396343 
L 362.549061 150.396343 
L 362.374478 150.396343 
L 362.374478 150.396343 
L 362.174428 150.396343 
L 362.174428 153.828206 
L 359.301524 153.828206 
L 359.301524 153.977417 
L 357.3496 153.977417 
L 357.3496 153.977417 
L 353.445753 153.977417 
L 353.445753 154.126629 
L 351.49383 154.126629 
L 351.49383 154.27584 
L 350.517868 154.27584 
L 350.517868 154.425051 
L 348.077964 154.425051 
L 348.077964 154.872686 
L 347.102002 154.872686 
L 347.102002 154.872686 
L 346.614022 154.872686 
L 346.614022 155.171109 
L 346.126041 155.171109 
L 346.126041 156.514011 
L 343.686137 156.514011 
L 343.686137 156.961646 
L 341.246232 156.961646 
L 341.246232 157.110857 
L 340.270271 157.110857 
L 340.270271 157.260069 
L 335.390462 157.260069 
L 335.390462 157.707703 
L 334.902481 157.707703 
L 334.902481 158.155337 
L 334.4145 158.155337 
L 334.4145 158.45376 
L 333.92652 158.45376 
L 333.92652 158.602971 
L 332.462577 158.602971 
L 332.462577 158.752183 
L 330.510654 158.752183 
L 330.510654 158.752183 
L 330.022673 158.752183 
L 330.022673 158.901394 
L 329.534692 158.901394 
L 329.534692 159.050606 
L 328.55873 159.050606 
L 328.55873 159.199817 
L 327.094788 159.199817 
L 327.094788 159.349029 
L 322.70296 159.349029 
L 322.70296 159.49824 
L 321.726998 159.49824 
L 321.726998 159.796663 
L 321.239017 159.796663 
L 321.239017 160.095086 
L 320.263056 160.095086 
L 320.263056 160.54272 
L 318.799113 160.54272 
L 318.799113 160.691931 
L 318.311132 160.691931 
L 318.311132 160.691931 
L 311.967381 160.691931 
L 311.967381 160.841143 
L 309.039496 160.841143 
L 309.039496 160.990354 
L 307.087573 160.990354 
L 307.087573 161.288777 
L 306.111611 161.288777 
L 306.111611 161.288777 
L 304.647669 161.288777 
L 304.647669 161.5872 
L 303.671707 161.5872 
L 303.671707 161.5872 
L 299.279879 161.5872 
L 299.279879 161.885623 
L 298.303918 161.885623 
L 298.303918 162.034834 
L 297.815937 162.034834 
L 297.815937 162.333257 
L 297.327956 162.333257 
L 297.327956 162.333257 
L 296.351994 162.333257 
L 296.351994 162.333257 
L 295.864013 162.333257 
L 295.864013 162.780891 
L 295.376033 162.780891 
L 295.376033 162.780891 
L 286.592377 162.780891 
L 286.592377 162.930103 
L 286.104396 162.930103 
L 286.104396 163.079314 
L 284.152473 163.079314 
L 284.152473 163.228526 
L 276.344779 163.228526 
L 276.344779 163.377737 
L 274.880837 163.377737 
L 274.880837 163.526949 
L 273.416894 163.526949 
L 273.416894 163.974583 
L 271.952952 163.974583 
L 271.952952 164.72064 
L 271.464971 164.72064 
L 271.464971 165.019063 
L 270.97699 165.019063 
L 270.97699 165.168274 
L 270.489009 165.168274 
L 270.489009 165.168274 
L 270.001028 165.168274 
L 270.001028 165.317486 
L 266.585162 165.317486 
L 266.585162 165.317486 
L 265.12122 165.317486 
L 265.12122 165.914331 
L 263.657277 165.914331 
L 263.657277 166.063543 
L 263.169297 166.063543 
L 263.169297 166.511177 
L 262.681316 166.511177 
L 262.681316 166.660389 
L 261.217373 166.660389 
L 261.217373 166.8096 
L 260.729392 166.8096 
L 260.729392 167.108023 
L 259.753431 167.108023 
L 259.753431 167.108023 
L 257.801507 167.108023 
L 257.801507 167.406446 
L 251.457756 167.406446 
L 251.457756 167.406446 
L 250.481794 167.406446 
L 250.481794 167.555657 
L 249.993814 167.555657 
L 249.993814 167.704869 
L 249.505833 167.704869 
L 249.505833 167.85408 
L 249.017852 167.85408 
L 249.017852 168.003291 
L 248.529871 168.003291 
L 248.529871 168.152503 
L 248.04189 168.152503 
L 248.04189 168.450926 
L 247.553909 168.450926 
L 247.553909 169.495406 
L 247.065928 169.495406 
L 247.065928 170.092251 
L 246.089967 170.092251 
L 246.089967 170.539886 
L 242.18612 170.539886 
L 242.18612 170.689097 
L 241.698139 170.689097 
L 241.698139 170.838309 
L 241.210158 170.838309 
L 241.210158 171.136731 
L 240.722177 171.136731 
L 240.722177 171.584366 
L 240.234197 171.584366 
L 240.234197 172.181211 
L 239.746216 172.181211 
L 239.746216 172.927269 
L 238.770254 172.927269 
L 238.770254 173.374903 
L 237.306312 173.374903 
L 237.306312 173.524114 
L 236.818331 173.524114 
L 236.818331 173.822537 
L 234.378426 173.822537 
L 234.378426 173.971749 
L 229.986599 173.971749 
L 229.986599 174.12096 
L 229.010637 174.12096 
L 229.010637 174.270171 
L 228.522656 174.270171 
L 228.522656 174.419383 
L 228.034675 174.419383 
L 228.034675 174.568594 
L 227.546695 174.568594 
L 227.546695 174.867017 
L 226.570733 174.867017 
L 226.570733 175.463863 
L 225.10679 175.463863 
L 225.10679 175.613074 
L 224.618809 175.613074 
L 224.618809 175.762286 
L 223.154867 175.762286 
L 223.154867 176.060709 
L 219.25102 176.060709 
L 219.25102 176.20992 
L 218.763039 176.20992 
L 218.763039 176.359131 
L 218.275058 176.359131 
L 218.275058 176.359131 
L 217.299097 176.359131 
L 217.299097 176.508343 
L 216.323135 176.508343 
L 216.323135 176.657554 
L 215.347173 176.657554 
L 215.347173 177.2544 
L 214.859192 177.2544 
L 214.859192 177.851246 
L 214.371212 177.851246 
L 214.371212 178.149669 
L 213.883231 178.149669 
L 213.883231 178.448091 
L 213.39525 178.448091 
L 213.39525 178.746514 
L 212.419288 178.746514 
L 212.419288 179.044937 
L 211.443327 179.044937 
L 211.443327 179.194149 
L 206.563518 179.194149 
L 206.563518 179.492571 
L 206.075537 179.492571 
L 206.075537 179.940206 
L 204.611595 179.940206 
L 204.611595 180.089417 
L 204.123614 180.089417 
L 204.123614 180.537051 
L 203.635633 180.537051 
L 203.635633 180.686263 
L 202.17169 180.686263 
L 202.17169 181.133897 
L 201.68371 181.133897 
L 201.68371 181.283109 
L 200.707748 181.283109 
L 200.707748 181.43232 
L 195.827939 181.43232 
L 195.827939 182.029166 
L 195.339959 182.029166 
L 195.339959 182.029166 
L 194.851978 182.029166 
L 194.851978 182.4768 
L 194.363997 182.4768 
L 194.363997 182.924434 
L 193.876016 182.924434 
L 193.876016 183.073646 
L 192.900054 183.073646 
L 192.900054 183.670491 
L 192.412073 183.670491 
L 192.412073 183.819703 
L 190.948131 183.819703 
L 190.948131 184.118126 
L 190.46015 184.118126 
L 190.46015 185.759451 
L 189.484188 185.759451 
L 189.484188 186.057874 
L 188.996208 186.057874 
L 188.996208 186.207086 
L 188.020246 186.207086 
L 188.020246 186.803931 
L 187.532265 186.803931 
L 187.532265 186.953143 
L 187.044284 186.953143 
L 187.044284 187.102354 
L 184.116399 187.102354 
L 184.116399 187.400777 
L 183.140437 187.400777 
L 183.140437 187.848411 
L 182.652456 187.848411 
L 182.652456 188.445257 
L 182.164476 188.445257 
L 182.164476 189.340526 
L 181.676495 189.340526 
L 181.676495 189.937371 
L 181.188514 189.937371 
L 181.188514 190.83264 
L 180.700533 190.83264 
L 180.700533 192.026331 
L 179.724571 192.026331 
L 179.724571 192.175543 
L 177.772648 192.175543 
L 177.772648 192.324754 
L 177.284667 192.324754 
L 177.284667 192.623177 
L 175.820725 192.623177 
L 175.820725 192.772389 
L 173.868801 192.772389 
L 173.868801 193.070811 
L 173.38082 193.070811 
L 173.38082 193.220023 
L 172.89284 193.220023 
L 172.89284 193.369234 
L 171.916878 193.369234 
L 171.916878 193.816869 
L 171.428897 193.816869 
L 171.428897 194.264503 
L 170.940916 194.264503 
L 170.940916 194.861349 
L 170.452935 194.861349 
L 170.452935 195.607406 
L 169.476974 195.607406 
L 169.476974 195.905829 
L 168.501012 195.905829 
L 168.501012 196.05504 
L 167.52505 196.05504 
L 167.52505 196.204251 
L 167.037069 196.204251 
L 167.037069 196.502674 
L 166.549088 196.502674 
L 166.549088 196.801097 
L 166.061108 196.801097 
L 166.061108 196.950309 
L 165.573127 196.950309 
L 165.573127 197.09952 
L 165.085146 197.09952 
L 165.085146 197.397943 
L 164.597165 197.397943 
L 164.597165 197.547154 
L 164.109184 197.547154 
L 164.109184 197.696366 
L 160.205337 197.696366 
L 160.205337 197.845577 
L 159.717357 197.845577 
L 159.717357 198.144 
L 159.229376 198.144 
L 159.229376 198.293211 
L 158.741395 198.293211 
L 158.741395 198.442423 
L 158.253414 198.442423 
L 158.253414 198.591634 
L 157.765433 198.591634 
L 157.765433 199.337691 
L 156.789472 199.337691 
L 156.789472 199.486903 
L 156.301491 199.486903 
L 156.301491 199.934537 
L 155.325529 199.934537 
L 155.325529 200.23296 
L 154.349567 200.23296 
L 154.349567 200.979017 
L 153.373606 200.979017 
L 153.373606 201.575863 
L 151.421682 201.575863 
L 151.421682 201.874286 
L 149.469759 201.874286 
L 149.469759 202.023497 
L 148.493797 202.023497 
L 148.493797 202.32192 
L 148.005816 202.32192 
L 148.005816 202.620343 
L 147.517835 202.620343 
L 147.517835 203.067977 
L 147.029855 203.067977 
L 147.029855 203.3664 
L 146.541874 203.3664 
L 146.541874 203.814034 
L 146.053893 203.814034 
L 146.053893 203.963246 
L 145.077931 203.963246 
L 145.077931 204.261669 
L 144.58995 204.261669 
L 144.58995 204.560091 
L 144.101969 204.560091 
L 144.101969 205.156937 
L 143.613989 205.156937 
L 143.613989 205.45536 
L 143.126008 205.45536 
L 143.126008 205.753783 
L 142.638027 205.753783 
L 142.638027 205.902994 
L 142.150046 205.902994 
L 142.150046 206.649051 
L 141.662065 206.649051 
L 141.662065 206.798263 
L 141.174084 206.798263 
L 141.174084 207.096686 
L 137.270238 207.096686 
L 137.270238 207.991954 
L 136.782257 207.991954 
L 136.782257 208.141166 
L 134.830333 208.141166 
L 134.830333 209.036434 
L 133.366391 209.036434 
L 133.366391 209.334857 
L 132.87841 209.334857 
L 132.87841 209.931703 
L 131.902448 209.931703 
L 131.902448 210.080914 
L 131.414467 210.080914 
L 131.414467 210.230126 
L 130.438506 210.230126 
L 130.438506 210.379337 
L 122.142831 210.379337 
L 122.142831 210.528549 
L 120.190908 210.528549 
L 120.190908 210.67776 
L 119.702927 210.67776 
L 119.702927 210.976183 
L 119.214946 210.976183 
L 119.214946 211.125394 
L 118.726965 211.125394 
L 118.726965 211.274606 
L 117.751004 211.274606 
L 117.751004 211.573029 
L 113.359176 211.573029 
L 113.359176 212.319086 
L 112.871195 212.319086 
L 112.871195 213.065143 
L 112.383214 213.065143 
L 112.383214 213.214354 
L 111.895233 213.214354 
L 111.895233 213.363566 
L 111.407253 213.363566 
L 111.407253 213.512777 
L 110.919272 213.512777 
L 110.919272 213.661989 
L 110.431291 213.661989 
L 110.431291 214.109623 
L 109.94331 214.109623 
L 109.94331 214.408046 
L 109.455329 214.408046 
L 109.455329 214.85568 
L 108.967348 214.85568 
L 108.967348 215.303314 
L 108.479368 215.303314 
L 108.479368 215.750949 
L 107.991387 215.750949 
L 107.991387 216.049371 
L 107.015425 216.049371 
L 107.015425 216.795429 
L 106.527444 216.795429 
L 106.527444 216.94464 
L 106.039463 216.94464 
L 106.039463 217.093851 
L 104.575521 217.093851 
L 104.575521 217.243063 
L 101.647636 217.243063 
L 101.647636 217.690697 
L 101.159655 217.690697 
L 101.159655 217.98912 
L 100.671674 217.98912 
L 100.671674 218.138331 
L 100.183693 218.138331 
L 100.183693 219.182811 
L 99.695712 219.182811 
L 99.695712 219.481234 
L 99.207731 219.481234 
L 99.207731 220.07808 
L 98.719751 220.07808 
L 98.719751 220.525714 
L 98.23177 220.525714 
L 98.23177 221.420983 
L 97.743789 221.420983 
L 97.743789 221.868617 
L 97.255808 221.868617 
L 97.255808 222.614674 
L 96.767827 222.614674 
L 96.767827 222.763886 
L 96.279846 222.763886 
L 96.279846 223.21152 
L 95.791865 223.21152 
L 95.791865 223.957577 
L 95.303885 223.957577 
L 95.303885 224.256 
L 94.815904 224.256 
L 94.815904 224.554423 
L 94.327923 224.554423 
L 94.327923 224.703634 
L 93.839942 224.703634 
L 93.839942 225.151269 
L 93.351961 225.151269 
L 93.351961 225.30048 
L 89.936095 225.30048 
L 89.936095 225.449691 
L 89.448114 225.449691 
L 89.448114 225.748114 
L 88.960134 225.748114 
L 88.960134 226.34496 
L 87.984172 226.34496 
L 87.984172 226.941806 
L 87.00821 226.941806 
L 87.00821 227.38944 
L 86.520229 227.38944 
L 86.520229 227.986286 
L 86.032248 227.986286 
L 86.032248 228.284709 
L 85.544268 228.284709 
L 85.544268 228.881554 
L 85.056287 228.881554 
L 85.056287 230.373669 
L 84.568306 230.373669 
L 84.568306 231.268937 
L 84.080325 231.268937 
L 84.080325 233.208686 
L 83.592344 233.208686 
L 83.592344 234.253166 
L 83.104363 234.253166 
L 83.104363 235.446857 
L 82.616383 235.446857 
L 82.616383 236.192914 
L 81.640421 236.192914 
L 81.640421 236.938971 
L 81.15244 236.938971 
L 81.15244 237.088183 
L 80.664459 237.088183 
L 80.664459 237.237394 
L 80.176478 237.237394 
L 80.176478 237.386606 
L 79.688497 237.386606 
L 79.688497 237.685029 
L 79.200517 237.685029 
L 79.200517 237.83424 
L 78.712536 237.83424 
L 78.712536 237.983451 
L 78.224555 237.983451 
L 78.224555 239.177143 
L 77.736574 239.177143 
L 77.736574 241.564526 
L 77.248593 241.564526 
L 77.248593 245.593234 
L 76.760612 245.593234 
L 76.760612 248.428251 
L 76.272632 248.428251 
L 76.272632 252.158537 
L 75.784651 252.158537 
L 75.784651 257.380937 
L 75.29667 257.380937 
L 75.29667 266.0352 
L 74.808689 266.0352 
L 74.808689 272.749714 
L 74.320708 272.749714 
L 74.320708 275.43552 
L 73.832727 275.43552 
L 73.832727 276.48 
L 73.832727 276.48 
z
" clip-path="url(#p6e086c86a1)" style="fill: #43b5a0; fill-opacity: 0.8"/>
   </g>
   <g id="matplotlib.axis_1">
    <g id="xtick_1">
     <g id="line2d_1">
      <defs>
       <path id="m79be80f661" d="M 0 0 
L 0 3.5 
" style="stroke: #ffffff; stroke-width: 0.8"/>
      </defs>
      <g>
       <use xlink:href="#m79be80f661" x="102.135616" y="276.48" style="fill: #ffffff; stroke: #ffffff; stroke-width: 0.8"/>
      </g>
     </g>
     <g id="text_1">
      <!-- Fri 12/24 -->
      <g style="fill: #ffffff" transform="translate(63.066432 312.01669)rotate(-30)scale(0.1 -0.1)">
       <defs>
        <path id="DejaVuSans-46" d="M 628 4666 
L 3309 4666 
L 3309 4134 
L 1259 4134 
L 1259 2759 
L 3109 2759 
L 3109 2228 
L 1259 2228 
L 1259 0 
L 628 0 
L 628 4666 
z
" transform="scale(0.015625)"/>
        <path id="DejaVuSans-72" d="M 2631 2963 
Q 2534 3019 2420 3045 
Q 2306 3072 2169 3072 
Q 1681 3072 1420 2755 
Q 1159 2438 1159 1844 
L 1159 0 
L 581 0 
L 581 3500 
L 1159 3500 
L 1159 2956 
Q 1341 3275 1631 3429 
Q 1922 3584 2338 3584 
Q 2397 3584 2469 3576 
Q 2541 3569 2628 3553 
L 2631 2963 
z
" transform="scale(0.015625)"/>
        <path id="DejaVuSans-69" d="M 603 3500 
L 1178 3500 
L 1178 0 
L 603 0 
L 603 3500 
z
M 603 4863 
L 1178 4863 
L 1178 4134 
L 603 4134 
L 603 4863 
z
" transform="scale(0.015625)"/>
        <path id="DejaVuSans-20" transform="scale(0.015625)"/>
        <path id="DejaVuSans-31" d="M 794 531 
L 1825 531 
L 1825 4091 
L 703 3866 
L 703 4441 
L 1819 4666 
L 2450 4666 
L 2450 531 
L 3481 531 
L 3481 0 
L 794 0 
L 794 531 
z
" transform="scale(0.015625)"/>
        <path id="DejaVuSans-32" d="M 1228 531 
L 3431 531 
L 3431 0 
L 469 0 
L 469 531 
Q 828 903 1448 1529 
Q 2069 2156 2228 2338 
Q 2531 2678 2651 2914 
Q 2772 3150 2772 3378 
Q 2772 3750 2511 3984 
Q 2250 4219 1831 4219 
Q 1534 4219 1204 4116 
Q 875 4013 500 3803 
L 500 4441 
Q 881 4594 1212 4672 
Q 1544 4750 1819 4750 
Q 2544 4750 2975 4387 
Q 3406 4025 3406 3419 
Q 3406 3131 3298 2873 
Q 3191 2616 2906 2266 
Q 2828 2175 2409 1742 
Q 1991 1309 1228 531 
z
" transform="scale(0.015625)"/>
        <path id="DejaVuSans-2f" d="M 1625 4666 
L 2156 4666 
L 531 -594 
L 0 -594 
L 1625 4666 
z
" transform="scale(0.015625)"/>
        <path id="DejaVuSans-34" d="M 2419 4116 
L 825 1625 
L 2419 1625 
L 2419 4116 
z
M 2253 4666 
L 3047 4666 
L 3047 1625 
L 3713 1625 
L 3713 1100 
L 3047 1100 
L 3047 0 
L 2419 0 
L 2419 1100 
L 313 1100 
L 313 1709 
L 2253 4666 
z
" transform="scale(0.015625)"/>
       </defs>
       <use xlink:href="#DejaVuSans-46"/>
       <use xlink:href="#DejaVuSans-72" x="50.269531"/>
       <use xlink:href="#DejaVuSans-69" x="91.382812"/>
       <use xlink:href="#DejaVuSans-20" x="119.166016"/>
       <use xlink:href="#DejaVuSans-31" x="150.953125"/>
       <use xlink:href="#DejaVuSans-32" x="214.576172"/>
       <use xlink:href="#DejaVuSans-2f" x="278.199219"/>
       <use xlink:href="#DejaVuSans-32" x="311.890625"/>
       <use xlink:href="#DejaVuSans-34" x="375.513672"/>
      </g>
     </g>
    </g>
    <g id="xtick_2">
     <g id="line2d_2">
      <g>
       <use xlink:href="#m79be80f661" x="137.270238" y="276.48" style="fill: #ffffff; stroke: #ffffff; stroke-width: 0.8"/>
      </g>
     </g>
     <g id="text_2">
      <!-- Mon 12/27 -->
      <g style="fill: #ffffff" transform="translate(90.260683 316.601065)rotate(-30)scale(0.1 -0.1)">
       <defs>
        <path id="DejaVuSans-4d" d="M 628 4666 
L 1569 4666 
L 2759 1491 
L 3956 4666 
L 4897 4666 
L 4897 0 
L 4281 0 
L 4281 4097 
L 3078 897 
L 2444 897 
L 1241 4097 
L 1241 0 
L 628 0 
L 628 4666 
z
" transform="scale(0.015625)"/>
        <path id="DejaVuSans-6f" d="M 1959 3097 
Q 1497 3097 1228 2736 
Q 959 2375 959 1747 
Q 959 1119 1226 758 
Q 1494 397 1959 397 
Q 2419 397 2687 759 
Q 2956 1122 2956 1747 
Q 2956 2369 2687 2733 
Q 2419 3097 1959 3097 
z
M 1959 3584 
Q 2709 3584 3137 3096 
Q 3566 2609 3566 1747 
Q 3566 888 3137 398 
Q 2709 -91 1959 -91 
Q 1206 -91 779 398 
Q 353 888 353 1747 
Q 353 2609 779 3096 
Q 1206 3584 1959 3584 
z
" transform="scale(0.015625)"/>
        <path id="DejaVuSans-6e" d="M 3513 2113 
L 3513 0 
L 2938 0 
L 2938 2094 
Q 2938 2591 2744 2837 
Q 2550 3084 2163 3084 
Q 1697 3084 1428 2787 
Q 1159 2491 1159 1978 
L 1159 0 
L 581 0 
L 581 3500 
L 1159 3500 
L 1159 2956 
Q 1366 3272 1645 3428 
Q 1925 3584 2291 3584 
Q 2894 3584 3203 3211 
Q 3513 2838 3513 2113 
z
" transform="scale(0.015625)"/>
        <path id="DejaVuSans-37" d="M 525 4666 
L 3525 4666 
L 3525 4397 
L 1831 0 
L 1172 0 
L 2766 4134 
L 525 4134 
L 525 4666 
z
" transform="scale(0.015625)"/>
       </defs>
       <use xlink:href="#DejaVuSans-4d"/>
       <use xlink:href="#DejaVuSans-6f" x="86.279297"/>
       <use xlink:href="#DejaVuSans-6e" x="147.460938"/>
       <use xlink:href="#DejaVuSans-20" x="210.839844"/>
       <use xlink:href="#DejaVuSans-31" x="242.626953"/>
       <use xlink:href="#DejaVuSans-32" x="306.25"/>
       <use xlink:href="#DejaVuSans-2f" x="369.873047"/>
       <use xlink:href="#DejaVuSans-32" x="403.564453"/>
       <use xlink:href="#DejaVuSans-37" x="467.1875"/>
      </g>
     </g>
    </g>
    <g id="xtick_3">
     <g id="line2d_3">
      <g>
       <use xlink:href="#m79be80f661" x="184.116399" y="276.48" style="fill: #ffffff; stroke: #ffffff; stroke-width: 0.8"/>
      </g>
     </g>
     <g id="text_3">
      <!-- Fri 12/31 -->
      <g style="fill: #ffffff" transform="translate(145.047215 312.01669)rotate(-30)scale(0.1 -0.1)">
       <defs>
        <path id="DejaVuSans-33" d="M 2597 2516 
Q 3050 2419 3304 2112 
Q 3559 1806 3559 1356 
Q 3559 666 3084 287 
Q 2609 -91 1734 -91 
Q 1441 -91 1130 -33 
Q 819 25 488 141 
L 488 750 
Q 750 597 1062 519 
Q 1375 441 1716 441 
Q 2309 441 2620 675 
Q 2931 909 2931 1356 
Q 2931 1769 2642 2001 
Q 2353 2234 1838 2234 
L 1294 2234 
L 1294 2753 
L 1863 2753 
Q 2328 2753 2575 2939 
Q 2822 3125 2822 3475 
Q 2822 3834 2567 4026 
Q 2313 4219 1838 4219 
Q 1578 4219 1281 4162 
Q 984 4106 628 3988 
L 628 4550 
Q 988 4650 1302 4700 
Q 1616 4750 1894 4750 
Q 2613 4750 3031 4423 
Q 3450 4097 3450 3541 
Q 3450 3153 3228 2886 
Q 3006 2619 2597 2516 
z
" transform="scale(0.015625)"/>
       </defs>
       <use xlink:href="#DejaVuSans-46"/>
       <use xlink:href="#DejaVuSans-72" x="50.269531"/>
       <use xlink:href="#DejaVuSans-69" x="91.382812"/>
       <use xlink:href="#DejaVuSans-20" x="119.166016"/>
       <use xlink:href="#DejaVuSans-31" x="150.953125"/>
       <use xlink:href="#DejaVuSans-32" x="214.576172"/>
       <use xlink:href="#DejaVuSans-2f" x="278.199219"/>
       <use xlink:href="#DejaVuSans-33" x="311.890625"/>
       <use xlink:href="#DejaVuSans-31" x="375.513672"/>
      </g>
     </g>
    </g>
    <g id="xtick_4">
     <g id="line2d_4">
      <g>
       <use xlink:href="#m79be80f661" x="219.25102" y="276.48" style="fill: #ffffff; stroke: #ffffff; stroke-width: 0.8"/>
      </g>
     </g>
     <g id="text_4">
      <!-- Mon 01/03 -->
      <g style="fill: #ffffff" transform="translate(172.241465 316.601065)rotate(-30)scale(0.1 -0.1)">
       <defs>
        <path id="DejaVuSans-30" d="M 2034 4250 
Q 1547 4250 1301 3770 
Q 1056 3291 1056 2328 
Q 1056 1369 1301 889 
Q 1547 409 2034 409 
Q 2525 409 2770 889 
Q 3016 1369 3016 2328 
Q 3016 3291 2770 3770 
Q 2525 4250 2034 4250 
z
M 2034 4750 
Q 2819 4750 3233 4129 
Q 3647 3509 3647 2328 
Q 3647 1150 3233 529 
Q 2819 -91 2034 -91 
Q 1250 -91 836 529 
Q 422 1150 422 2328 
Q 422 3509 836 4129 
Q 1250 4750 2034 4750 
z
" transform="scale(0.015625)"/>
       </defs>
       <use xlink:href="#DejaVuSans-4d"/>
       <use xlink:href="#DejaVuSans-6f" x="86.279297"/>
       <use xlink:href="#DejaVuSans-6e" x="147.460938"/>
       <use xlink:href="#DejaVuSans-20" x="210.839844"/>
       <use xlink:href="#DejaVuSans-30" x="242.626953"/>
       <use xlink:href="#DejaVuSans-31" x="306.25"/>
       <use xlink:href="#DejaVuSans-2f" x="369.873047"/>
       <use xlink:href="#DejaVuSans-30" x="403.564453"/>
       <use xlink:href="#DejaVuSans-33" x="467.1875"/>
      </g>
     </g>
    </g>
    <g id="xtick_5">
     <g id="line2d_5">
      <g>
       <use xlink:href="#m79be80f661" x="266.097182" y="276.48" style="fill: #ffffff; stroke: #ffffff; stroke-width: 0.8"/>
      </g>
     </g>
     <g id="text_5">
      <!-- Fri 01/07 -->
      <g style="fill: #ffffff" transform="translate(227.027997 312.01669)rotate(-30)scale(0.1 -0.1)">
       <use xlink:href="#DejaVuSans-46"/>
       <use xlink:href="#DejaVuSans-72" x="50.269531"/>
       <use xlink:href="#DejaVuSans-69" x="91.382812"/>
       <use xlink:href="#DejaVuSans-20" x="119.166016"/>
       <use xlink:href="#DejaVuSans-30" x="150.953125"/>
       <use xlink:href="#DejaVuSans-31" x="214.576172"/>
       <use xlink:href="#DejaVuSans-2f" x="278.199219"/>
       <use xlink:href="#DejaVuSans-30" x="311.890625"/>
       <use xlink:href="#DejaVuSans-37" x="375.513672"/>
      </g>
     </g>
    </g>
    <g id="xtick_6">
     <g id="line2d_6">
      <g>
       <use xlink:href="#m79be80f661" x="301.231803" y="276.48" style="fill: #ffffff; stroke: #ffffff; stroke-width: 0.8"/>
      </g>
     </g>
     <g id="text_6">
      <!-- Mon 01/10 -->
      <g style="fill: #ffffff" transform="translate(254.222248 316.601065)rotate(-30)scale(0.1 -0.1)">
       <use xlink:href="#DejaVuSans-4d"/>
       <use xlink:href="#DejaVuSans-6f" x="86.279297"/>
       <use xlink:href="#DejaVuSans-6e" x="147.460938"/>
       <use xlink:href="#DejaVuSans-20" x="210.839844"/>
       <use xlink:href="#DejaVuSans-30" x="242.626953"/>
       <use xlink:href="#DejaVuSans-31" x="306.25"/>
       <use xlink:href="#DejaVuSans-2f" x="369.873047"/>
       <use xlink:href="#DejaVuSans-31" x="403.564453"/>
       <use xlink:href="#DejaVuSans-30" x="467.1875"/>
      </g>
     </g>
    </g>
    <g id="xtick_7">
     <g id="line2d_7">
      <g>
       <use xlink:href="#m79be80f661" x="348.077964" y="276.48" style="fill: #ffffff; stroke: #ffffff; stroke-width: 0.8"/>
      </g>
     </g>
     <g id="text_7">
      <!-- Fri 01/14 -->
      <g style="fill: #ffffff" transform="translate(309.00878 312.01669)rotate(-30)scale(0.1 -0.1)">
       <use xlink:href="#DejaVuSans-46"/>
       <use xlink:href="#DejaVuSans-72" x="50.269531"/>
       <use xlink:href="#DejaVuSans-69" x="91.382812"/>
       <use xlink:href="#DejaVuSans-20" x="119.166016"/>
       <use xlink:href="#DejaVuSans-30" x="150.953125"/>
       <use xlink:href="#DejaVuSans-31" x="214.576172"/>
       <use xlink:href="#DejaVuSans-2f" x="278.199219"/>
       <use xlink:href="#DejaVuSans-31" x="311.890625"/>
       <use xlink:href="#DejaVuSans-34" x="375.513672"/>
      </g>
     </g>
    </g>
    <g id="xtick_8">
     <g id="line2d_8">
      <g>
       <use xlink:href="#m79be80f661" x="383.212585" y="276.48" style="fill: #ffffff; stroke: #ffffff; stroke-width: 0.8"/>
      </g>
     </g>
     <g id="text_8">
      <!-- Mon 01/17 -->
      <g style="fill: #ffffff" transform="translate(336.203031 316.601065)rotate(-30)scale(0.1 -0.1)">
       <use xlink:href="#DejaVuSans-4d"/>
       <use xlink:href="#DejaVuSans-6f" x="86.279297"/>
       <use xlink:href="#DejaVuSans-6e" x="147.460938"/>
       <use xlink:href="#DejaVuSans-20" x="210.839844"/>
       <use xlink:href="#DejaVuSans-30" x="242.626953"/>
       <use xlink:href="#DejaVuSans-31" x="306.25"/>
       <use xlink:href="#DejaVuSans-2f" x="369.873047"/>
       <use xlink:href="#DejaVuSans-31" x="403.564453"/>
       <use xlink:href="#DejaVuSans-37" x="467.1875"/>
      </g>
     </g>
    </g>
    <g id="xtick_9">
     <g id="line2d_9">
      <defs>
       <path id="mb17ba4425d" d="M 0 0 
L 0 2 
" style="stroke: #ffffff; stroke-width: 0.6"/>
      </defs>
      <g>
       <use xlink:href="#mb17ba4425d" x="67.000995" y="276.48" style="fill: #ffffff; stroke: #ffffff; stroke-width: 0.6"/>
      </g>
     </g>
    </g>
    <g id="xtick_10">
     <g id="line2d_10">
      <g>
       <use xlink:href="#mb17ba4425d" x="78.712536" y="276.48" style="fill: #ffffff; stroke: #ffffff; stroke-width: 0.6"/>
      </g>
     </g>
    </g>
    <g id="xtick_11">
     <g id="line2d_11">
      <g>
       <use xlink:href="#mb17ba4425d" x="90.424076" y="276.48" style="fill: #ffffff; stroke: #ffffff; stroke-width: 0.6"/>
      </g>
     </g>
    </g>
    <g id="xtick_12">
     <g id="line2d_12">
      <g>
       <use xlink:href="#mb17ba4425d" x="113.847157" y="276.48" style="fill: #ffffff; stroke: #ffffff; stroke-width: 0.6"/>
      </g>
     </g>
    </g>
    <g id="xtick_13">
     <g id="line2d_13">
      <g>
       <use xlink:href="#mb17ba4425d" x="125.558697" y="276.48" style="fill: #ffffff; stroke: #ffffff; stroke-width: 0.6"/>
      </g>
     </g>
    </g>
    <g id="xtick_14">
     <g id="line2d_14">
      <g>
       <use xlink:href="#mb17ba4425d" x="148.981778" y="276.48" style="fill: #ffffff; stroke: #ffffff; stroke-width: 0.6"/>
      </g>
     </g>
    </g>
    <g id="xtick_15">
     <g id="line2d_15">
      <g>
       <use xlink:href="#mb17ba4425d" x="160.693318" y="276.48" style="fill: #ffffff; stroke: #ffffff; stroke-width: 0.6"/>
      </g>
     </g>
    </g>
    <g id="xtick_16">
     <g id="line2d_16">
      <g>
       <use xlink:href="#mb17ba4425d" x="172.404859" y="276.48" style="fill: #ffffff; stroke: #ffffff; stroke-width: 0.6"/>
      </g>
     </g>
    </g>
    <g id="xtick_17">
     <g id="line2d_17">
      <g>
       <use xlink:href="#mb17ba4425d" x="195.827939" y="276.48" style="fill: #ffffff; stroke: #ffffff; stroke-width: 0.6"/>
      </g>
     </g>
    </g>
    <g id="xtick_18">
     <g id="line2d_18">
      <g>
       <use xlink:href="#mb17ba4425d" x="207.53948" y="276.48" style="fill: #ffffff; stroke: #ffffff; stroke-width: 0.6"/>
      </g>
     </g>
    </g>
    <g id="xtick_19">
     <g id="line2d_19">
      <g>
       <use xlink:href="#mb17ba4425d" x="230.96256" y="276.48" style="fill: #ffffff; stroke: #ffffff; stroke-width: 0.6"/>
      </g>
     </g>
    </g>
    <g id="xtick_20">
     <g id="line2d_20">
      <g>
       <use xlink:href="#mb17ba4425d" x="242.674101" y="276.48" style="fill: #ffffff; stroke: #ffffff; stroke-width: 0.6"/>
      </g>
     </g>
    </g>
    <g id="xtick_21">
     <g id="line2d_21">
      <g>
       <use xlink:href="#mb17ba4425d" x="254.385641" y="276.48" style="fill: #ffffff; stroke: #ffffff; stroke-width: 0.6"/>
      </g>
     </g>
    </g>
    <g id="xtick_22">
     <g id="line2d_22">
      <g>
       <use xlink:href="#mb17ba4425d" x="277.808722" y="276.48" style="fill: #ffffff; stroke: #ffffff; stroke-width: 0.6"/>
      </g>
     </g>
    </g>
    <g id="xtick_23">
     <g id="line2d_23">
      <g>
       <use xlink:href="#mb17ba4425d" x="289.520262" y="276.48" style="fill: #ffffff; stroke: #ffffff; stroke-width: 0.6"/>
      </g>
     </g>
    </g>
    <g id="xtick_24">
     <g id="line2d_24">
      <g>
       <use xlink:href="#mb17ba4425d" x="312.943343" y="276.48" style="fill: #ffffff; stroke: #ffffff; stroke-width: 0.6"/>
      </g>
     </g>
    </g>
    <g id="xtick_25">
     <g id="line2d_25">
      <g>
       <use xlink:href="#mb17ba4425d" x="324.654883" y="276.48" style="fill: #ffffff; stroke: #ffffff; stroke-width: 0.6"/>
      </g>
     </g>
    </g>
    <g id="xtick_26">
     <g id="line2d_26">
      <g>
       <use xlink:href="#mb17ba4425d" x="336.366424" y="276.48" style="fill: #ffffff; stroke: #ffffff; stroke-width: 0.6"/>
      </g>
     </g>
    </g>
    <g id="xtick_27">
     <g id="line2d_27">
      <g>
       <use xlink:href="#mb17ba4425d" x="359.789505" y="276.48" style="fill: #ffffff; stroke: #ffffff; stroke-width: 0.6"/>
      </g>
     </g>
    </g>
    <g id="xtick_28">
     <g id="line2d_28">
      <g>
       <use xlink:href="#mb17ba4425d" x="371.501045" y="276.48" style="fill: #ffffff; stroke: #ffffff; stroke-width: 0.6"/>
      </g>
     </g>
    </g>
    <g id="xtick_29">
     <g id="line2d_29">
      <g>
       <use xlink:href="#mb17ba4425d" x="394.924126" y="276.48" style="fill: #ffffff; stroke: #ffffff; stroke-width: 0.6"/>
      </g>
     </g>
    </g>
    <g id="xtick_30">
     <g id="line2d_30">
      <g>
       <use xlink:href="#mb17ba4425d" x="406.635666" y="276.48" style="fill: #ffffff; stroke: #ffffff; stroke-width: 0.6"/>
      </g>
     </g>
    </g>
   </g>
   <g id="matplotlib.axis_2">
    <g id="ytick_1">
     <g id="line2d_31">
      <defs>
       <path id="ma6aaba37f8" d="M 0 0 
L -3.5 0 
" style="stroke: #ffffff; stroke-width: 0.8"/>
      </defs>
      <g>
       <use xlink:href="#ma6aaba37f8" x="57.6" y="276.48" style="fill: #ffffff; stroke: #ffffff; stroke-width: 0.8"/>
      </g>
     </g>
     <g id="text_9">
      <!-- 0 -->
      <g style="fill: #ffffff" transform="translate(44.2375 280.279219)scale(0.1 -0.1)">
       <use xlink:href="#DejaVuSans-30"/>
      </g>
     </g>
    </g>
    <g id="ytick_2">
     <g id="line2d_32">
      <g>
       <use xlink:href="#ma6aaba37f8" x="57.6" y="246.637714" style="fill: #ffffff; stroke: #ffffff; stroke-width: 0.8"/>
      </g>
     </g>
     <g id="text_10">
      <!-- 200 -->
      <g style="fill: #ffffff" transform="translate(31.5125 250.436933)scale(0.1 -0.1)">
       <use xlink:href="#DejaVuSans-32"/>
       <use xlink:href="#DejaVuSans-30" x="63.623047"/>
       <use xlink:href="#DejaVuSans-30" x="127.246094"/>
      </g>
     </g>
    </g>
    <g id="ytick_3">
     <g id="line2d_33">
      <g>
       <use xlink:href="#ma6aaba37f8" x="57.6" y="216.795429" style="fill: #ffffff; stroke: #ffffff; stroke-width: 0.8"/>
      </g>
     </g>
     <g id="text_11">
      <!-- 400 -->
      <g style="fill: #ffffff" transform="translate(31.5125 220.594647)scale(0.1 -0.1)">
       <use xlink:href="#DejaVuSans-34"/>
       <use xlink:href="#DejaVuSans-30" x="63.623047"/>
       <use xlink:href="#DejaVuSans-30" x="127.246094"/>
      </g>
     </g>
    </g>
    <g id="ytick_4">
     <g id="line2d_34">
      <g>
       <use xlink:href="#ma6aaba37f8" x="57.6" y="186.953143" style="fill: #ffffff; stroke: #ffffff; stroke-width: 0.8"/>
      </g>
     </g>
     <g id="text_12">
      <!-- 600 -->
      <g style="fill: #ffffff" transform="translate(31.5125 190.752362)scale(0.1 -0.1)">
       <defs>
        <path id="DejaVuSans-36" d="M 2113 2584 
Q 1688 2584 1439 2293 
Q 1191 2003 1191 1497 
Q 1191 994 1439 701 
Q 1688 409 2113 409 
Q 2538 409 2786 701 
Q 3034 994 3034 1497 
Q 3034 2003 2786 2293 
Q 2538 2584 2113 2584 
z
M 3366 4563 
L 3366 3988 
Q 3128 4100 2886 4159 
Q 2644 4219 2406 4219 
Q 1781 4219 1451 3797 
Q 1122 3375 1075 2522 
Q 1259 2794 1537 2939 
Q 1816 3084 2150 3084 
Q 2853 3084 3261 2657 
Q 3669 2231 3669 1497 
Q 3669 778 3244 343 
Q 2819 -91 2113 -91 
Q 1303 -91 875 529 
Q 447 1150 447 2328 
Q 447 3434 972 4092 
Q 1497 4750 2381 4750 
Q 2619 4750 2861 4703 
Q 3103 4656 3366 4563 
z
" transform="scale(0.015625)"/>
       </defs>
       <use xlink:href="#DejaVuSans-36"/>
       <use xlink:href="#DejaVuSans-30" x="63.623047"/>
       <use xlink:href="#DejaVuSans-30" x="127.246094"/>
      </g>
     </g>
    </g>
    <g id="ytick_5">
     <g id="line2d_35">
      <g>
       <use xlink:href="#ma6aaba37f8" x="57.6" y="157.110857" style="fill: #ffffff; stroke: #ffffff; stroke-width: 0.8"/>
      </g>
     </g>
     <g id="text_13">
      <!-- 800 -->
      <g style="fill: #ffffff" transform="translate(31.5125 160.910076)scale(0.1 -0.1)">
       <defs>
        <path id="DejaVuSans-38" d="M 2034 2216 
Q 1584 2216 1326 1975 
Q 1069 1734 1069 1313 
Q 1069 891 1326 650 
Q 1584 409 2034 409 
Q 2484 409 2743 651 
Q 3003 894 3003 1313 
Q 3003 1734 2745 1975 
Q 2488 2216 2034 2216 
z
M 1403 2484 
Q 997 2584 770 2862 
Q 544 3141 544 3541 
Q 544 4100 942 4425 
Q 1341 4750 2034 4750 
Q 2731 4750 3128 4425 
Q 3525 4100 3525 3541 
Q 3525 3141 3298 2862 
Q 3072 2584 2669 2484 
Q 3125 2378 3379 2068 
Q 3634 1759 3634 1313 
Q 3634 634 3220 271 
Q 2806 -91 2034 -91 
Q 1263 -91 848 271 
Q 434 634 434 1313 
Q 434 1759 690 2068 
Q 947 2378 1403 2484 
z
M 1172 3481 
Q 1172 3119 1398 2916 
Q 1625 2713 2034 2713 
Q 2441 2713 2670 2916 
Q 2900 3119 2900 3481 
Q 2900 3844 2670 4047 
Q 2441 4250 2034 4250 
Q 1625 4250 1398 4047 
Q 1172 3844 1172 3481 
z
" transform="scale(0.015625)"/>
       </defs>
       <use xlink:href="#DejaVuSans-38"/>
       <use xlink:href="#DejaVuSans-30" x="63.623047"/>
       <use xlink:href="#DejaVuSans-30" x="127.246094"/>
      </g>
     </g>
    </g>
    <g id="ytick_6">
     <g id="line2d_36">
      <g>
       <use xlink:href="#ma6aaba37f8" x="57.6" y="127.268571" style="fill: #ffffff; stroke: #ffffff; stroke-width: 0.8"/>
      </g>
     </g>
     <g id="text_14">
      <!-- 1000 -->
      <g style="fill: #ffffff" transform="translate(25.15 131.06779)scale(0.1 -0.1)">
       <use xlink:href="#DejaVuSans-31"/>
       <use xlink:href="#DejaVuSans-30" x="63.623047"/>
       <use xlink:href="#DejaVuSans-30" x="127.246094"/>
       <use xlink:href="#DejaVuSans-30" x="190.869141"/>
      </g>
     </g>
    </g>
    <g id="ytick_7">
     <g id="line2d_37">
      <g>
       <use xlink:href="#ma6aaba37f8" x="57.6" y="97.426286" style="fill: #ffffff; stroke: #ffffff; stroke-width: 0.8"/>
      </g>
     </g>
     <g id="text_15">
      <!-- 1200 -->
      <g style="fill: #ffffff" transform="translate(25.15 101.225504)scale(0.1 -0.1)">
       <use xlink:href="#DejaVuSans-31"/>
       <use xlink:href="#DejaVuSans-32" x="63.623047"/>
       <use xlink:href="#DejaVuSans-30" x="127.246094"/>
       <use xlink:href="#DejaVuSans-30" x="190.869141"/>
      </g>
     </g>
    </g>
    <g id="ytick_8">
     <g id="line2d_38">
      <g>
       <use xlink:href="#ma6aaba37f8" x="57.6" y="67.584" style="fill: #ffffff; stroke: #ffffff; stroke-width: 0.8"/>
      </g>
     </g>
     <g id="text_16">
      <!-- 1400 -->
      <g style="fill: #ffffff" transform="translate(25.15 71.383219)scale(0.1 -0.1)">
       <use xlink:href="#DejaVuSans-31"/>
       <use xlink:href="#DejaVuSans-34" x="63.623047"/>
       <use xlink:href="#DejaVuSans-30" x="127.246094"/>
       <use xlink:href="#DejaVuSans-30" x="190.869141"/>
      </g>
     </g>
    </g>
    <g id="text_17">
     <!-- Number of tickets sold -->
     <g style="fill: #ffffff" transform="translate(19.070312 215.329906)rotate(-90)scale(0.1 -0.1)">
      <defs>
       <path id="DejaVuSans-4e" d="M 628 4666 
L 1478 4666 
L 3547 763 
L 3547 4666 
L 4159 4666 
L 4159 0 
L 3309 0 
L 1241 3903 
L 1241 0 
L 628 0 
L 628 4666 
z
" transform="scale(0.015625)"/>
       <path id="DejaVuSans-75" d="M 544 1381 
L 544 3500 
L 1119 3500 
L 1119 1403 
Q 1119 906 1312 657 
Q 1506 409 1894 409 
Q 2359 409 2629 706 
Q 2900 1003 2900 1516 
L 2900 3500 
L 3475 3500 
L 3475 0 
L 2900 0 
L 2900 538 
Q 2691 219 2414 64 
Q 2138 -91 1772 -91 
Q 1169 -91 856 284 
Q 544 659 544 1381 
z
M 1991 3584 
L 1991 3584 
z
" transform="scale(0.015625)"/>
       <path id="DejaVuSans-6d" d="M 3328 2828 
Q 3544 3216 3844 3400 
Q 4144 3584 4550 3584 
Q 5097 3584 5394 3201 
Q 5691 2819 5691 2113 
L 5691 0 
L 5113 0 
L 5113 2094 
Q 5113 2597 4934 2840 
Q 4756 3084 4391 3084 
Q 3944 3084 3684 2787 
Q 3425 2491 3425 1978 
L 3425 0 
L 2847 0 
L 2847 2094 
Q 2847 2600 2669 2842 
Q 2491 3084 2119 3084 
Q 1678 3084 1418 2786 
Q 1159 2488 1159 1978 
L 1159 0 
L 581 0 
L 581 3500 
L 1159 3500 
L 1159 2956 
Q 1356 3278 1631 3431 
Q 1906 3584 2284 3584 
Q 2666 3584 2933 3390 
Q 3200 3197 3328 2828 
z
" transform="scale(0.015625)"/>
       <path id="DejaVuSans-62" d="M 3116 1747 
Q 3116 2381 2855 2742 
Q 2594 3103 2138 3103 
Q 1681 3103 1420 2742 
Q 1159 2381 1159 1747 
Q 1159 1113 1420 752 
Q 1681 391 2138 391 
Q 2594 391 2855 752 
Q 3116 1113 3116 1747 
z
M 1159 2969 
Q 1341 3281 1617 3432 
Q 1894 3584 2278 3584 
Q 2916 3584 3314 3078 
Q 3713 2572 3713 1747 
Q 3713 922 3314 415 
Q 2916 -91 2278 -91 
Q 1894 -91 1617 61 
Q 1341 213 1159 525 
L 1159 0 
L 581 0 
L 581 4863 
L 1159 4863 
L 1159 2969 
z
" transform="scale(0.015625)"/>
       <path id="DejaVuSans-65" d="M 3597 1894 
L 3597 1613 
L 953 1613 
Q 991 1019 1311 708 
Q 1631 397 2203 397 
Q 2534 397 2845 478 
Q 3156 559 3463 722 
L 3463 178 
Q 3153 47 2828 -22 
Q 2503 -91 2169 -91 
Q 1331 -91 842 396 
Q 353 884 353 1716 
Q 353 2575 817 3079 
Q 1281 3584 2069 3584 
Q 2775 3584 3186 3129 
Q 3597 2675 3597 1894 
z
M 3022 2063 
Q 3016 2534 2758 2815 
Q 2500 3097 2075 3097 
Q 1594 3097 1305 2825 
Q 1016 2553 972 2059 
L 3022 2063 
z
" transform="scale(0.015625)"/>
       <path id="DejaVuSans-66" d="M 2375 4863 
L 2375 4384 
L 1825 4384 
Q 1516 4384 1395 4259 
Q 1275 4134 1275 3809 
L 1275 3500 
L 2222 3500 
L 2222 3053 
L 1275 3053 
L 1275 0 
L 697 0 
L 697 3053 
L 147 3053 
L 147 3500 
L 697 3500 
L 697 3744 
Q 697 4328 969 4595 
Q 1241 4863 1831 4863 
L 2375 4863 
z
" transform="scale(0.015625)"/>
       <path id="DejaVuSans-74" d="M 1172 4494 
L 1172 3500 
L 2356 3500 
L 2356 3053 
L 1172 3053 
L 1172 1153 
Q 1172 725 1289 603 
Q 1406 481 1766 481 
L 2356 481 
L 2356 0 
L 1766 0 
Q 1100 0 847 248 
Q 594 497 594 1153 
L 594 3053 
L 172 3053 
L 172 3500 
L 594 3500 
L 594 4494 
L 1172 4494 
z
" transform="scale(0.015625)"/>
       <path id="DejaVuSans-63" d="M 3122 3366 
L 3122 2828 
Q 2878 2963 2633 3030 
Q 2388 3097 2138 3097 
Q 1578 3097 1268 2742 
Q 959 2388 959 1747 
Q 959 1106 1268 751 
Q 1578 397 2138 397 
Q 2388 397 2633 464 
Q 2878 531 3122 666 
L 3122 134 
Q 2881 22 2623 -34 
Q 2366 -91 2075 -91 
Q 1284 -91 818 406 
Q 353 903 353 1747 
Q 353 2603 823 3093 
Q 1294 3584 2113 3584 
Q 2378 3584 2631 3529 
Q 2884 3475 3122 3366 
z
" transform="scale(0.015625)"/>
       <path id="DejaVuSans-6b" d="M 581 4863 
L 1159 4863 
L 1159 1991 
L 2875 3500 
L 3609 3500 
L 1753 1863 
L 3688 0 
L 2938 0 
L 1159 1709 
L 1159 0 
L 581 0 
L 581 4863 
z
" transform="scale(0.015625)"/>
       <path id="DejaVuSans-73" d="M 2834 3397 
L 2834 2853 
Q 2591 2978 2328 3040 
Q 2066 3103 1784 3103 
Q 1356 3103 1142 2972 
Q 928 2841 928 2578 
Q 928 2378 1081 2264 
Q 1234 2150 1697 2047 
L 1894 2003 
Q 2506 1872 2764 1633 
Q 3022 1394 3022 966 
Q 3022 478 2636 193 
Q 2250 -91 1575 -91 
Q 1294 -91 989 -36 
Q 684 19 347 128 
L 347 722 
Q 666 556 975 473 
Q 1284 391 1588 391 
Q 1994 391 2212 530 
Q 2431 669 2431 922 
Q 2431 1156 2273 1281 
Q 2116 1406 1581 1522 
L 1381 1569 
Q 847 1681 609 1914 
Q 372 2147 372 2553 
Q 372 3047 722 3315 
Q 1072 3584 1716 3584 
Q 2034 3584 2315 3537 
Q 2597 3491 2834 3397 
z
" transform="scale(0.015625)"/>
       <path id="DejaVuSans-6c" d="M 603 4863 
L 1178 4863 
L 1178 0 
L 603 0 
L 603 4863 
z
" transform="scale(0.015625)"/>
       <path id="DejaVuSans-64" d="M 2906 2969 
L 2906 4863 
L 3481 4863 
L 3481 0 
L 2906 0 
L 2906 525 
Q 2725 213 2448 61 
Q 2172 -91 1784 -91 
Q 1150 -91 751 415 
Q 353 922 353 1747 
Q 353 2572 751 3078 
Q 1150 3584 1784 3584 
Q 2172 3584 2448 3432 
Q 2725 3281 2906 2969 
z
M 947 1747 
Q 947 1113 1208 752 
Q 1469 391 1925 391 
Q 2381 391 2643 752 
Q 2906 1113 2906 1747 
Q 2906 2381 2643 2742 
Q 2381 3103 1925 3103 
Q 1469 3103 1208 2742 
Q 947 2381 947 1747 
z
" transform="scale(0.015625)"/>
      </defs>
      <use xlink:href="#DejaVuSans-4e"/>
      <use xlink:href="#DejaVuSans-75" x="74.804688"/>
      <use xlink:href="#DejaVuSans-6d" x="138.183594"/>
      <use xlink:href="#DejaVuSans-62" x="235.595703"/>
      <use xlink:href="#DejaVuSans-65" x="299.072266"/>
      <use xlink:href="#DejaVuSans-72" x="360.595703"/>
      <use xlink:href="#DejaVuSans-20" x="401.708984"/>
      <use xlink:href="#DejaVuSans-6f" x="433.496094"/>
      <use xlink:href="#DejaVuSans-66" x="494.677734"/>
      <use xlink:href="#DejaVuSans-20" x="529.882812"/>
      <use xlink:href="#DejaVuSans-74" x="561.669922"/>
      <use xlink:href="#DejaVuSans-69" x="600.878906"/>
      <use xlink:href="#DejaVuSans-63" x="628.662109"/>
      <use xlink:href="#DejaVuSans-6b" x="683.642578"/>
      <use xlink:href="#DejaVuSans-65" x="737.927734"/>
      <use xlink:href="#DejaVuSans-74" x="799.451172"/>
      <use xlink:href="#DejaVuSans-73" x="838.660156"/>
      <use xlink:href="#DejaVuSans-20" x="890.759766"/>
      <use xlink:href="#DejaVuSans-73" x="922.546875"/>
      <use xlink:href="#DejaVuSans-6f" x="974.646484"/>
      <use xlink:href="#DejaVuSans-6c" x="1035.828125"/>
      <use xlink:href="#DejaVuSans-64" x="1063.611328"/>
     </g>
    </g>
   </g>
   <g id="line2d_39">
    <path d="M 57.6 52.662857 
L 414.72 52.662857 
" clip-path="url(#p6e086c86a1)" style="fill: none; stroke-dasharray: 5.55,2.4; stroke-dashoffset: 0; stroke: #32cd32; stroke-width: 1.5"/>
   </g>
   <g id="patch_3">
    <path d="M 57.6 276.48 
L 57.6 41.472 
" style="fill: none; stroke: #000000; stroke-width: 0.8; stroke-linejoin: miter; stroke-linecap: square"/>
   </g>
   <g id="patch_4">
    <path d="M 414.72 276.48 
L 414.72 41.472 
" style="fill: none; stroke: #000000; stroke-width: 0.8; stroke-linejoin: miter; stroke-linecap: square"/>
   </g>
   <g id="patch_5">
    <path d="M 57.6 276.48 
L 414.72 276.48 
" style="fill: none; stroke: #000000; stroke-width: 0.8; stroke-linejoin: miter; stroke-linecap: square"/>
   </g>
   <g id="patch_6">
    <path d="M 57.6 41.472 
L 414.72 41.472 
" style="fill: none; stroke: #000000; stroke-width: 0.8; stroke-linejoin: miter; stroke-linecap: square"/>
   </g>
   <g id="text_18">
    <!-- MCH Tickets -->
    <g style="fill: #ffffff" transform="translate(199.504687 35.472)scale(0.12 -0.12)">
     <defs>
      <path id="DejaVuSans-43" d="M 4122 4306 
L 4122 3641 
Q 3803 3938 3442 4084 
Q 3081 4231 2675 4231 
Q 1875 4231 1450 3742 
Q 1025 3253 1025 2328 
Q 1025 1406 1450 917 
Q 1875 428 2675 428 
Q 3081 428 3442 575 
Q 3803 722 4122 1019 
L 4122 359 
Q 3791 134 3420 21 
Q 3050 -91 2638 -91 
Q 1578 -91 968 557 
Q 359 1206 359 2328 
Q 359 3453 968 4101 
Q 1578 4750 2638 4750 
Q 3056 4750 3426 4639 
Q 3797 4528 4122 4306 
z
" transform="scale(0.015625)"/>
      <path id="DejaVuSans-48" d="M 628 4666 
L 1259 4666 
L 1259 2753 
L 3553 2753 
L 3553 4666 
L 4184 4666 
L 4184 0 
L 3553 0 
L 3553 2222 
L 1259 2222 
L 1259 0 
L 628 0 
L 628 4666 
z
" transform="scale(0.015625)"/>
      <path id="DejaVuSans-54" d="M -19 4666 
L 3928 4666 
L 3928 4134 
L 2272 4134 
L 2272 0 
L 1638 0 
L 1638 4134 
L -19 4134 
L -19 4666 
z
" transform="scale(0.015625)"/>
     </defs>
     <use xlink:href="#DejaVuSans-4d"/>
     <use xlink:href="#DejaVuSans-43" x="86.279297"/>
     <use xlink:href="#DejaVuSans-48" x="156.103516"/>
     <use xlink:href="#DejaVuSans-20" x="231.298828"/>
     <use xlink:href="#DejaVuSans-54" x="263.085938"/>
     <use xlink:href="#DejaVuSans-69" x="321.044922"/>
     <use xlink:href="#DejaVuSans-63" x="348.828125"/>
     <use xlink:href="#DejaVuSans-6b" x="403.808594"/>
     <use xlink:href="#DejaVuSans-65" x="458.09375"/>
     <use xlink:href="#DejaVuSans-74" x="519.617188"/>
     <use xlink:href="#DejaVuSans-73" x="558.826172"/>
    </g>
   </g>
   <g id="legend_1">
    <g id="patch_7">
     <path d="M 64.6 93.506375 
L 244.389062 93.506375 
Q 246.389062 93.506375 246.389062 91.506375 
L 246.389062 48.472 
Q 246.389062 46.472 244.389062 46.472 
L 64.6 46.472 
Q 62.6 46.472 62.6 48.472 
L 62.6 91.506375 
Q 62.6 93.506375 64.6 93.506375 
z
" style="fill: #ffffff; opacity: 0.8; stroke: #cccccc; stroke-linejoin: miter"/>
    </g>
    <g id="patch_8">
     <path d="M 66.6 58.070437 
L 86.6 58.070437 
L 86.6 51.070437 
L 66.6 51.070437 
z
" style="fill: #fa448c; fill-opacity: 0.8"/>
    </g>
    <g id="text_19">
     <!-- Early-BirdTickets -->
     <g transform="translate(94.6 58.070437)scale(0.1 -0.1)">
      <defs>
       <path id="DejaVuSans-45" d="M 628 4666 
L 3578 4666 
L 3578 4134 
L 1259 4134 
L 1259 2753 
L 3481 2753 
L 3481 2222 
L 1259 2222 
L 1259 531 
L 3634 531 
L 3634 0 
L 628 0 
L 628 4666 
z
" transform="scale(0.015625)"/>
       <path id="DejaVuSans-61" d="M 2194 1759 
Q 1497 1759 1228 1600 
Q 959 1441 959 1056 
Q 959 750 1161 570 
Q 1363 391 1709 391 
Q 2188 391 2477 730 
Q 2766 1069 2766 1631 
L 2766 1759 
L 2194 1759 
z
M 3341 1997 
L 3341 0 
L 2766 0 
L 2766 531 
Q 2569 213 2275 61 
Q 1981 -91 1556 -91 
Q 1019 -91 701 211 
Q 384 513 384 1019 
Q 384 1609 779 1909 
Q 1175 2209 1959 2209 
L 2766 2209 
L 2766 2266 
Q 2766 2663 2505 2880 
Q 2244 3097 1772 3097 
Q 1472 3097 1187 3025 
Q 903 2953 641 2809 
L 641 3341 
Q 956 3463 1253 3523 
Q 1550 3584 1831 3584 
Q 2591 3584 2966 3190 
Q 3341 2797 3341 1997 
z
" transform="scale(0.015625)"/>
       <path id="DejaVuSans-79" d="M 2059 -325 
Q 1816 -950 1584 -1140 
Q 1353 -1331 966 -1331 
L 506 -1331 
L 506 -850 
L 844 -850 
Q 1081 -850 1212 -737 
Q 1344 -625 1503 -206 
L 1606 56 
L 191 3500 
L 800 3500 
L 1894 763 
L 2988 3500 
L 3597 3500 
L 2059 -325 
z
" transform="scale(0.015625)"/>
       <path id="DejaVuSans-2d" d="M 313 2009 
L 1997 2009 
L 1997 1497 
L 313 1497 
L 313 2009 
z
" transform="scale(0.015625)"/>
       <path id="DejaVuSans-42" d="M 1259 2228 
L 1259 519 
L 2272 519 
Q 2781 519 3026 730 
Q 3272 941 3272 1375 
Q 3272 1813 3026 2020 
Q 2781 2228 2272 2228 
L 1259 2228 
z
M 1259 4147 
L 1259 2741 
L 2194 2741 
Q 2656 2741 2882 2914 
Q 3109 3088 3109 3444 
Q 3109 3797 2882 3972 
Q 2656 4147 2194 4147 
L 1259 4147 
z
M 628 4666 
L 2241 4666 
Q 2963 4666 3353 4366 
Q 3744 4066 3744 3513 
Q 3744 3084 3544 2831 
Q 3344 2578 2956 2516 
Q 3422 2416 3680 2098 
Q 3938 1781 3938 1306 
Q 3938 681 3513 340 
Q 3088 0 2303 0 
L 628 0 
L 628 4666 
z
" transform="scale(0.015625)"/>
      </defs>
      <use xlink:href="#DejaVuSans-45"/>
      <use xlink:href="#DejaVuSans-61" x="63.183594"/>
      <use xlink:href="#DejaVuSans-72" x="124.462891"/>
      <use xlink:href="#DejaVuSans-6c" x="165.576172"/>
      <use xlink:href="#DejaVuSans-79" x="193.359375"/>
      <use xlink:href="#DejaVuSans-2d" x="250.789062"/>
      <use xlink:href="#DejaVuSans-42" x="283.248047"/>
      <use xlink:href="#DejaVuSans-69" x="351.851562"/>
      <use xlink:href="#DejaVuSans-72" x="379.634766"/>
      <use xlink:href="#DejaVuSans-64" x="418.998047"/>
      <use xlink:href="#DejaVuSans-54" x="482.474609"/>
      <use xlink:href="#DejaVuSans-69" x="540.433594"/>
      <use xlink:href="#DejaVuSans-63" x="568.216797"/>
      <use xlink:href="#DejaVuSans-6b" x="623.197266"/>
      <use xlink:href="#DejaVuSans-65" x="677.482422"/>
      <use xlink:href="#DejaVuSans-74" x="739.005859"/>
      <use xlink:href="#DejaVuSans-73" x="778.214844"/>
     </g>
    </g>
    <g id="patch_9">
     <path d="M 66.6 72.748562 
L 86.6 72.748562 
L 86.6 65.748562 
L 66.6 65.748562 
z
" style="fill: #43b5a0; fill-opacity: 0.8"/>
    </g>
    <g id="text_20">
     <!-- RegularTickets -->
     <g transform="translate(94.6 72.748562)scale(0.1 -0.1)">
      <defs>
       <path id="DejaVuSans-52" d="M 2841 2188 
Q 3044 2119 3236 1894 
Q 3428 1669 3622 1275 
L 4263 0 
L 3584 0 
L 2988 1197 
Q 2756 1666 2539 1819 
Q 2322 1972 1947 1972 
L 1259 1972 
L 1259 0 
L 628 0 
L 628 4666 
L 2053 4666 
Q 2853 4666 3247 4331 
Q 3641 3997 3641 3322 
Q 3641 2881 3436 2590 
Q 3231 2300 2841 2188 
z
M 1259 4147 
L 1259 2491 
L 2053 2491 
Q 2509 2491 2742 2702 
Q 2975 2913 2975 3322 
Q 2975 3731 2742 3939 
Q 2509 4147 2053 4147 
L 1259 4147 
z
" transform="scale(0.015625)"/>
       <path id="DejaVuSans-67" d="M 2906 1791 
Q 2906 2416 2648 2759 
Q 2391 3103 1925 3103 
Q 1463 3103 1205 2759 
Q 947 2416 947 1791 
Q 947 1169 1205 825 
Q 1463 481 1925 481 
Q 2391 481 2648 825 
Q 2906 1169 2906 1791 
z
M 3481 434 
Q 3481 -459 3084 -895 
Q 2688 -1331 1869 -1331 
Q 1566 -1331 1297 -1286 
Q 1028 -1241 775 -1147 
L 775 -588 
Q 1028 -725 1275 -790 
Q 1522 -856 1778 -856 
Q 2344 -856 2625 -561 
Q 2906 -266 2906 331 
L 2906 616 
Q 2728 306 2450 153 
Q 2172 0 1784 0 
Q 1141 0 747 490 
Q 353 981 353 1791 
Q 353 2603 747 3093 
Q 1141 3584 1784 3584 
Q 2172 3584 2450 3431 
Q 2728 3278 2906 2969 
L 2906 3500 
L 3481 3500 
L 3481 434 
z
" transform="scale(0.015625)"/>
      </defs>
      <use xlink:href="#DejaVuSans-52"/>
      <use xlink:href="#DejaVuSans-65" x="64.982422"/>
      <use xlink:href="#DejaVuSans-67" x="126.505859"/>
      <use xlink:href="#DejaVuSans-75" x="189.982422"/>
      <use xlink:href="#DejaVuSans-6c" x="253.361328"/>
      <use xlink:href="#DejaVuSans-61" x="281.144531"/>
      <use xlink:href="#DejaVuSans-72" x="342.423828"/>
      <use xlink:href="#DejaVuSans-54" x="383.537109"/>
      <use xlink:href="#DejaVuSans-69" x="441.496094"/>
      <use xlink:href="#DejaVuSans-63" x="469.279297"/>
      <use xlink:href="#DejaVuSans-6b" x="524.259766"/>
      <use xlink:href="#DejaVuSans-65" x="578.544922"/>
      <use xlink:href="#DejaVuSans-74" x="640.068359"/>
      <use xlink:href="#DejaVuSans-73" x="679.277344"/>
     </g>
    </g>
    <g id="line2d_40">
     <path d="M 66.6 83.926687 
L 76.6 83.926687 
L 86.6 83.926687 
" style="fill: none; stroke-dasharray: 5.55,2.4; stroke-dashoffset: 0; stroke: #32cd32; stroke-width: 1.5"/>
    </g>
    <g id="text_21">
     <!-- Required tickets w/ donations -->
     <g transform="translate(94.6 87.426687)scale(0.1 -0.1)">
      <defs>
       <path id="DejaVuSans-71" d="M 947 1747 
Q 947 1113 1208 752 
Q 1469 391 1925 391 
Q 2381 391 2643 752 
Q 2906 1113 2906 1747 
Q 2906 2381 2643 2742 
Q 2381 3103 1925 3103 
Q 1469 3103 1208 2742 
Q 947 2381 947 1747 
z
M 2906 525 
Q 2725 213 2448 61 
Q 2172 -91 1784 -91 
Q 1150 -91 751 415 
Q 353 922 353 1747 
Q 353 2572 751 3078 
Q 1150 3584 1784 3584 
Q 2172 3584 2448 3432 
Q 2725 3281 2906 2969 
L 2906 3500 
L 3481 3500 
L 3481 -1331 
L 2906 -1331 
L 2906 525 
z
" transform="scale(0.015625)"/>
       <path id="DejaVuSans-77" d="M 269 3500 
L 844 3500 
L 1563 769 
L 2278 3500 
L 2956 3500 
L 3675 769 
L 4391 3500 
L 4966 3500 
L 4050 0 
L 3372 0 
L 2619 2869 
L 1863 0 
L 1184 0 
L 269 3500 
z
" transform="scale(0.015625)"/>
      </defs>
      <use xlink:href="#DejaVuSans-52"/>
      <use xlink:href="#DejaVuSans-65" x="64.982422"/>
      <use xlink:href="#DejaVuSans-71" x="126.505859"/>
      <use xlink:href="#DejaVuSans-75" x="189.982422"/>
      <use xlink:href="#DejaVuSans-69" x="253.361328"/>
      <use xlink:href="#DejaVuSans-72" x="281.144531"/>
      <use xlink:href="#DejaVuSans-65" x="320.007812"/>
      <use xlink:href="#DejaVuSans-64" x="381.53125"/>
      <use xlink:href="#DejaVuSans-20" x="445.007812"/>
      <use xlink:href="#DejaVuSans-74" x="476.794922"/>
      <use xlink:href="#DejaVuSans-69" x="516.003906"/>
      <use xlink:href="#DejaVuSans-63" x="543.787109"/>
      <use xlink:href="#DejaVuSans-6b" x="598.767578"/>
      <use xlink:href="#DejaVuSans-65" x="653.052734"/>
      <use xlink:href="#DejaVuSans-74" x="714.576172"/>
      <use xlink:href="#DejaVuSans-73" x="753.785156"/>
      <use xlink:href="#DejaVuSans-20" x="805.884766"/>
      <use xlink:href="#DejaVuSans-77" x="837.671875"/>
      <use xlink:href="#DejaVuSans-2f" x="919.458984"/>
      <use xlink:href="#DejaVuSans-20" x="953.150391"/>
      <use xlink:href="#DejaVuSans-64" x="984.9375"/>
      <use xlink:href="#DejaVuSans-6f" x="1048.414062"/>
      <use xlink:href="#DejaVuSans-6e" x="1109.595703"/>
      <use xlink:href="#DejaVuSans-61" x="1172.974609"/>
      <use xlink:href="#DejaVuSans-74" x="1234.253906"/>
      <use xlink:href="#DejaVuSans-69" x="1273.462891"/>
      <use xlink:href="#DejaVuSans-6f" x="1301.246094"/>
      <use xlink:href="#DejaVuSans-6e" x="1362.427734"/>
      <use xlink:href="#DejaVuSans-73" x="1425.806641"/>
     </g>
    </g>
   </g>
  </g>
 </g>
 <defs>
  <clipPath id="p6e086c86a1">
   <rect x="57.6" y="41.472" width="357.12" height="235.008"/>
  </clipPath>
 </defs>
</svg>
