<?xml version="1.0" encoding="utf-8" standalone="no"?>
<!DOCTYPE svg PUBLIC "-//W3C//DTD SVG 1.1//EN"
  "http://www.w3.org/Graphics/SVG/1.1/DTD/svg11.dtd">
<svg xmlns:xlink="http://www.w3.org/1999/xlink" width="460.8pt" height="345.6pt" viewBox="0 0 460.8 345.6" xmlns="http://www.w3.org/2000/svg" version="1.1">
 <metadata>
  <rdf:RDF xmlns:dc="http://purl.org/dc/elements/1.1/" xmlns:cc="http://creativecommons.org/ns#" xmlns:rdf="http://www.w3.org/1999/02/22-rdf-syntax-ns#">
   <cc:Work>
    <dc:type rdf:resource="http://purl.org/dc/dcmitype/StillImage"/>
    <dc:date>2022-01-17T19:37:00.484839</dc:date>
    <dc:format>image/svg+xml</dc:format>
    <dc:creator>
     <cc:Agent>
      <dc:title>Matplotlib v3.5.1, https://matplotlib.org/</dc:title>
     </cc:Agent>
    </dc:creator>
   </cc:Work>
  </rdf:RDF>
 </metadata>
 <defs>
  <style type="text/css">*{stroke-linejoin: round; stroke-linecap: butt}</style>
 </defs>
 <g id="figure_1">
  <g id="patch_1">
   <path d="M 0 345.6 
L 460.8 345.6 
L 460.8 0 
L 0 0 
L 0 345.6 
z
" style="fill: none; opacity: 0"/>
  </g>
  <g id="axes_1">
   <g id="patch_2">
    <path d="M 57.6 276.48 
L 414.72 276.48 
L 414.72 41.472 
L 57.6 41.472 
z
" style="fill: #fec859"/>
   </g>
   <g id="PolyCollection_1">
    <path d="M 73.832727 276.48 
L 73.832727 276.48 
L 73.832727 276.48 
L 73.832727 276.48 
L 74.329432 276.48 
L 74.329432 276.48 
L 74.826137 276.48 
L 74.826137 276.48 
L 75.322841 276.48 
L 75.322841 276.48 
L 75.819546 276.48 
L 75.819546 276.48 
L 76.316251 276.48 
L 76.316251 276.48 
L 76.812956 276.48 
L 76.812956 276.48 
L 77.30966 276.48 
L 77.30966 276.48 
L 77.806365 276.48 
L 77.806365 276.48 
L 78.30307 276.48 
L 78.30307 276.48 
L 78.799774 276.48 
L 78.799774 276.48 
L 79.296479 276.48 
L 79.296479 276.48 
L 79.793184 276.48 
L 79.793184 276.48 
L 80.289889 276.48 
L 80.289889 276.48 
L 80.786593 276.48 
L 80.786593 276.48 
L 81.283298 276.48 
L 81.283298 276.48 
L 81.780003 276.48 
L 81.780003 276.48 
L 82.773412 276.48 
L 82.773412 276.48 
L 83.270117 276.48 
L 83.270117 276.48 
L 83.766822 276.48 
L 83.766822 276.48 
L 84.263526 276.48 
L 84.263526 276.48 
L 84.760231 276.48 
L 84.760231 276.48 
L 85.256936 276.48 
L 85.256936 276.48 
L 85.753641 276.48 
L 85.753641 276.48 
L 86.250345 276.48 
L 86.250345 276.48 
L 86.74705 276.48 
L 86.74705 276.48 
L 87.243755 276.48 
L 87.243755 276.48 
L 88.237164 276.48 
L 88.237164 276.48 
L 89.230574 276.48 
L 89.230574 276.48 
L 89.727278 276.48 
L 89.727278 276.48 
L 90.223983 276.48 
L 90.223983 276.48 
L 93.700916 276.48 
L 93.700916 276.48 
L 94.197621 276.48 
L 94.197621 276.48 
L 94.694326 276.48 
L 94.694326 276.48 
L 95.19103 276.48 
L 95.19103 276.48 
L 95.687735 276.48 
L 95.687735 276.48 
L 96.18444 276.48 
L 96.18444 276.48 
L 96.681144 276.48 
L 96.681144 276.48 
L 97.177849 276.48 
L 97.177849 276.48 
L 97.674554 276.48 
L 97.674554 276.48 
L 98.171259 276.48 
L 98.171259 276.48 
L 98.667963 276.48 
L 98.667963 276.48 
L 99.164668 276.48 
L 99.164668 276.48 
L 99.661373 276.48 
L 99.661373 276.48 
L 100.158077 276.48 
L 100.158077 276.48 
L 100.654782 276.48 
L 100.654782 276.48 
L 101.151487 276.48 
L 101.151487 276.48 
L 101.648192 276.48 
L 101.648192 276.48 
L 102.144896 276.48 
L 102.144896 276.48 
L 105.125125 276.48 
L 105.125125 276.48 
L 106.615239 276.48 
L 106.615239 276.48 
L 107.111944 276.48 
L 107.111944 276.48 
L 107.608648 276.48 
L 107.608648 276.48 
L 108.602058 276.48 
L 108.602058 276.48 
L 109.098762 276.48 
L 109.098762 276.48 
L 109.595467 276.48 
L 109.595467 276.48 
L 110.092172 276.48 
L 110.092172 276.48 
L 110.588877 276.48 
L 110.588877 276.48 
L 111.085581 276.48 
L 111.085581 276.48 
L 111.582286 276.48 
L 111.582286 276.48 
L 112.078991 276.48 
L 112.078991 276.48 
L 112.575695 276.48 
L 112.575695 276.48 
L 113.0724 276.48 
L 113.0724 276.48 
L 113.569105 276.48 
L 113.569105 276.48 
L 114.06581 276.48 
L 114.06581 276.48 
L 118.536152 276.48 
L 118.536152 276.48 
L 119.529562 276.48 
L 119.529562 276.48 
L 120.026266 276.48 
L 120.026266 276.48 
L 120.522971 276.48 
L 120.522971 276.48 
L 121.019676 276.48 
L 121.019676 276.48 
L 123.006495 276.48 
L 123.006495 276.48 
L 131.450475 276.48 
L 131.450475 276.48 
L 132.443884 276.48 
L 132.443884 276.48 
L 132.940589 276.48 
L 132.940589 276.48 
L 133.933998 276.48 
L 133.933998 276.48 
L 134.430703 276.48 
L 134.430703 276.48 
L 135.920817 276.48 
L 135.920817 276.48 
L 137.907636 276.48 
L 137.907636 276.48 
L 138.404341 276.48 
L 138.404341 276.48 
L 142.377979 276.48 
L 142.377979 276.48 
L 142.874683 276.48 
L 142.874683 276.48 
L 143.371388 276.48 
L 143.371388 276.48 
L 143.868093 276.48 
L 143.868093 276.48 
L 144.364798 276.48 
L 144.364798 276.48 
L 144.861502 276.48 
L 144.861502 276.48 
L 145.358207 276.48 
L 145.358207 276.48 
L 145.854912 276.48 
L 145.854912 276.48 
L 146.351616 276.48 
L 146.351616 276.48 
L 147.345026 276.48 
L 147.345026 276.48 
L 147.841731 276.48 
L 147.841731 276.48 
L 148.338435 276.48 
L 148.338435 276.48 
L 148.83514 276.48 
L 148.83514 276.48 
L 149.331845 276.48 
L 149.331845 276.48 
L 149.82855 276.48 
L 149.82855 276.48 
L 150.821959 276.48 
L 150.821959 276.48 
L 152.808778 276.48 
L 152.808778 276.48 
L 154.795597 276.48 
L 154.795597 276.48 
L 155.789006 276.48 
L 155.789006 276.48 
L 156.782416 276.48 
L 156.782416 276.48 
L 157.775825 276.48 
L 157.775825 276.48 
L 158.27253 276.48 
L 158.27253 276.48 
L 159.265939 276.48 
L 159.265939 276.48 
L 159.762644 276.48 
L 159.762644 276.48 
L 160.259349 276.48 
L 160.259349 276.48 
L 160.756053 276.48 
L 160.756053 276.48 
L 161.252758 276.48 
L 161.252758 276.48 
L 161.749463 276.48 
L 161.749463 276.48 
L 165.723101 276.48 
L 165.723101 276.48 
L 166.219805 276.48 
L 166.219805 276.48 
L 166.71651 276.48 
L 166.71651 276.48 
L 167.213215 276.48 
L 167.213215 276.48 
L 167.709919 276.48 
L 167.709919 276.48 
L 168.206624 276.48 
L 168.206624 276.48 
L 168.703329 276.48 
L 168.703329 276.48 
L 169.200034 276.48 
L 169.200034 276.48 
L 170.193443 276.48 
L 170.193443 276.48 
L 171.186853 276.48 
L 171.186853 276.48 
L 172.180262 276.48 
L 172.180262 276.48 
L 172.676967 276.48 
L 172.676967 276.48 
L 173.173671 276.48 
L 173.173671 276.48 
L 173.670376 276.48 
L 173.670376 276.48 
L 174.663786 276.48 
L 174.663786 276.48 
L 175.16049 276.48 
L 175.16049 276.48 
L 175.657195 276.48 
L 175.657195 276.48 
L 177.644014 276.48 
L 177.644014 276.48 
L 179.134128 276.48 
L 179.134128 276.48 
L 179.630833 276.48 
L 179.630833 276.48 
L 181.617652 276.48 
L 181.617652 276.48 
L 182.611061 276.48 
L 182.611061 276.48 
L 183.107766 276.48 
L 183.107766 276.48 
L 183.604471 276.48 
L 183.604471 276.48 
L 184.101175 276.48 
L 184.101175 276.48 
L 184.59788 276.48 
L 184.59788 276.48 
L 185.094585 276.48 
L 185.094585 276.48 
L 186.087994 276.48 
L 186.087994 276.48 
L 189.068222 276.48 
L 189.068222 276.48 
L 189.564927 276.48 
L 189.564927 276.48 
L 190.061632 276.48 
L 190.061632 276.48 
L 191.055041 276.48 
L 191.055041 276.48 
L 191.551746 276.48 
L 191.551746 276.48 
L 192.545155 276.48 
L 192.545155 276.48 
L 193.04186 276.48 
L 193.04186 276.48 
L 194.531974 276.48 
L 194.531974 276.48 
L 195.028679 276.48 
L 195.028679 276.48 
L 196.022089 276.48 
L 196.022089 276.48 
L 196.518793 276.48 
L 196.518793 276.48 
L 197.015498 276.48 
L 197.015498 276.48 
L 197.512203 276.48 
L 197.512203 276.48 
L 198.008907 276.48 
L 198.008907 276.48 
L 202.975955 276.48 
L 202.975955 276.48 
L 203.969364 276.48 
L 203.969364 276.48 
L 204.466069 276.48 
L 204.466069 276.48 
L 205.956183 276.48 
L 205.956183 276.48 
L 206.452888 276.48 
L 206.452888 276.48 
L 206.949592 276.48 
L 206.949592 276.48 
L 208.439707 276.48 
L 208.439707 276.48 
L 208.936411 276.48 
L 208.936411 276.48 
L 213.903458 276.48 
L 213.903458 276.48 
L 214.896868 276.48 
L 214.896868 276.48 
L 215.890277 276.48 
L 215.890277 276.48 
L 216.386982 276.48 
L 216.386982 276.48 
L 216.883687 276.48 
L 216.883687 276.48 
L 217.380392 276.48 
L 217.380392 276.48 
L 217.877096 276.48 
L 217.877096 276.48 
L 218.870506 276.48 
L 218.870506 276.48 
L 219.863915 276.48 
L 219.863915 276.48 
L 220.857325 276.48 
L 220.857325 276.48 
L 221.354029 276.48 
L 221.354029 276.48 
L 221.850734 276.48 
L 221.850734 276.48 
L 225.824372 276.48 
L 225.824372 276.48 
L 227.314486 276.48 
L 227.314486 276.48 
L 227.811191 276.48 
L 227.811191 276.48 
L 229.301305 276.48 
L 229.301305 276.48 
L 230.294714 276.48 
L 230.294714 276.48 
L 230.791419 276.48 
L 230.791419 276.48 
L 231.288124 276.48 
L 231.288124 276.48 
L 231.784828 276.48 
L 231.784828 276.48 
L 232.778238 276.48 
L 232.778238 276.48 
L 237.24858 276.48 
L 237.24858 276.48 
L 239.732104 276.48 
L 239.732104 276.48 
L 240.228809 276.48 
L 240.228809 276.48 
L 241.718923 276.48 
L 241.718923 276.48 
L 242.712332 276.48 
L 242.712332 276.48 
L 243.209037 276.48 
L 243.209037 276.48 
L 243.705742 276.48 
L 243.705742 276.48 
L 244.202446 276.48 
L 244.202446 276.48 
L 244.699151 276.48 
L 244.699151 276.48 
L 245.195856 276.48 
L 245.195856 276.48 
L 249.169494 276.48 
L 249.169494 276.48 
L 250.162903 276.48 
L 250.162903 276.48 
L 250.659608 276.48 
L 250.659608 276.48 
L 251.156313 276.48 
L 251.156313 276.48 
L 251.653017 276.48 
L 251.653017 276.48 
L 252.149722 276.48 
L 252.149722 276.48 
L 252.646427 276.48 
L 252.646427 276.48 
L 253.143131 276.48 
L 253.143131 276.48 
L 253.639836 276.48 
L 253.639836 276.48 
L 254.633246 276.48 
L 254.633246 276.48 
L 261.090407 276.48 
L 261.090407 276.48 
L 263.077226 276.48 
L 263.077226 276.48 
L 264.070635 276.48 
L 264.070635 276.48 
L 264.56734 276.48 
L 264.56734 276.48 
L 266.057454 276.48 
L 266.057454 276.48 
L 266.554159 276.48 
L 266.554159 276.48 
L 267.050864 276.48 
L 267.050864 276.48 
L 268.540978 276.48 
L 268.540978 276.48 
L 270.031092 276.48 
L 270.031092 276.48 
L 273.508025 276.48 
L 273.508025 276.48 
L 274.00473 276.48 
L 274.00473 276.48 
L 274.501434 276.48 
L 274.501434 276.48 
L 274.998139 276.48 
L 274.998139 276.48 
L 275.494844 276.48 
L 275.494844 276.48 
L 276.984958 276.48 
L 276.984958 276.48 
L 278.475072 276.48 
L 278.475072 276.48 
L 279.965186 276.48 
L 279.965186 276.48 
L 287.912462 276.48 
L 287.912462 276.48 
L 289.899281 276.48 
L 289.899281 276.48 
L 290.395985 276.48 
L 290.395985 276.48 
L 299.33667 276.48 
L 299.33667 276.48 
L 299.833375 276.48 
L 299.833375 276.48 
L 300.33008 276.48 
L 300.33008 276.48 
L 301.323489 276.48 
L 301.323489 276.48 
L 301.820194 276.48 
L 301.820194 276.48 
L 302.316899 276.48 
L 302.316899 276.48 
L 303.310308 276.48 
L 303.310308 276.48 
L 307.780651 276.48 
L 307.780651 276.48 
L 308.77406 276.48 
L 308.77406 276.48 
L 310.264174 276.48 
L 310.264174 276.48 
L 311.257584 276.48 
L 311.257584 276.48 
L 313.244403 276.48 
L 313.244403 276.48 
L 316.224631 276.48 
L 316.224631 276.48 
L 322.681792 276.48 
L 322.681792 276.48 
L 323.178497 276.48 
L 323.178497 276.48 
L 324.668611 276.48 
L 324.668611 276.48 
L 325.662021 276.48 
L 325.662021 276.48 
L 326.158725 276.48 
L 326.158725 276.48 
L 327.152135 276.48 
L 327.152135 276.48 
L 331.622477 276.48 
L 331.622477 276.48 
L 333.112591 276.48 
L 333.112591 276.48 
L 334.106001 276.48 
L 334.106001 276.48 
L 334.602706 276.48 
L 334.602706 276.48 
L 335.09941 276.48 
L 335.09941 276.48 
L 337.086229 276.48 
L 337.086229 276.48 
L 338.576343 276.48 
L 338.576343 276.48 
L 339.073048 276.48 
L 339.073048 276.48 
L 339.569753 276.48 
L 339.569753 276.48 
L 340.066458 276.48 
L 340.066458 276.48 
L 345.033505 276.48 
L 345.033505 276.48 
L 346.026914 276.48 
L 346.026914 276.48 
L 348.510438 276.48 
L 348.510438 276.48 
L 350.993961 276.48 
L 350.993961 276.48 
L 351.490666 276.48 
L 351.490666 276.48 
L 351.987371 276.48 
L 351.987371 276.48 
L 352.98078 276.48 
L 352.98078 276.48 
L 355.464304 276.48 
L 355.464304 276.48 
L 356.457713 276.48 
L 356.457713 276.48 
L 358.444532 276.48 
L 358.444532 276.48 
L 362.41817 276.48 
L 362.41817 276.48 
L 364.404989 276.48 
L 364.404989 276.48 
L 367.329254 276.48 
L 367.329254 276.48 
L 367.53288 276.48 
L 367.53288 276.48 
L 367.710584 276.48 
L 367.710584 276.48 
L 368.06291 276.48 
L 368.06291 276.48 
L 368.286344 276.48 
L 368.286344 276.48 
L 368.520837 276.48 
L 368.520837 276.48 
L 368.696448 276.48 
L 368.696448 276.48 
L 369.058635 276.48 
L 369.058635 276.48 
L 369.256086 276.48 
L 369.256086 276.48 
L 369.521888 276.48 
L 369.521888 276.48 
L 369.717191 276.48 
L 369.717191 276.48 
L 370.028122 276.48 
L 370.028122 276.48 
L 370.223648 276.48 
L 370.223648 276.48 
L 370.486932 276.48 
L 370.486932 276.48 
L 370.671201 276.48 
L 370.671201 276.48 
L 371.102565 276.48 
L 371.102565 276.48 
L 371.382581 276.48 
L 371.382581 276.48 
L 371.70511 276.48 
L 371.70511 276.48 
L 371.729654 276.48 
L 371.729654 276.48 
L 371.744114 276.48 
L 371.744114 276.48 
L 371.989381 276.48 
L 371.989381 276.48 
L 372.176813 276.48 
L 372.176813 276.48 
L 372.506158 276.48 
L 372.506158 276.48 
L 372.719071 276.48 
L 372.719071 276.48 
L 373.077471 276.48 
L 373.077471 276.48 
L 373.785782 276.48 
L 373.785782 276.48 
L 373.806286 276.48 
L 373.806286 276.48 
L 373.831623 276.48 
L 373.831623 276.48 
L 374.017754 276.48 
L 374.017754 276.48 
L 374.228382 276.48 
L 374.228382 276.48 
L 374.457131 276.48 
L 374.457131 276.48 
L 374.645632 276.48 
L 374.645632 276.48 
L 374.991607 276.48 
L 374.991607 276.48 
L 375.457856 276.48 
L 375.457856 276.48 
L 380.975625 276.48 
L 380.975625 276.48 
L 382.407078 276.48 
L 382.407078 276.48 
L 383.627035 276.48 
L 383.627035 276.48 
L 383.910125 276.48 
L 383.910125 276.48 
L 385.298775 276.48 
L 385.298775 276.48 
L 385.650889 276.48 
L 385.650889 276.48 
L 385.935391 276.48 
L 385.935391 276.48 
L 386.379506 276.48 
L 386.379506 276.48 
L 393.880692 276.48 
L 393.880692 276.48 
L 396.931606 276.48 
L 396.931606 276.48 
L 398.487273 276.48 
L 398.487273 276.48 
L 398.487273 200.083749 
L 398.487273 200.083749 
L 398.487273 200.083749 
L 396.931606 200.083749 
L 396.931606 200.083749 
L 393.880692 200.083749 
L 393.880692 200.083749 
L 386.379506 200.083749 
L 386.379506 200.083749 
L 385.935391 200.083749 
L 385.935391 200.083749 
L 385.650889 200.083749 
L 385.650889 200.083749 
L 385.298775 200.083749 
L 385.298775 200.083749 
L 383.910125 200.083749 
L 383.910125 200.083749 
L 383.627035 200.083749 
L 383.627035 200.083749 
L 382.407078 200.083749 
L 382.407078 200.083749 
L 380.975625 200.083749 
L 380.975625 200.083749 
L 375.457856 200.083749 
L 375.457856 200.083749 
L 374.991607 200.083749 
L 374.991607 200.083749 
L 374.645632 200.083749 
L 374.645632 200.083749 
L 374.457131 200.083749 
L 374.457131 200.083749 
L 374.228382 200.083749 
L 374.228382 200.083749 
L 374.017754 200.083749 
L 374.017754 200.083749 
L 373.831623 200.083749 
L 373.831623 200.083749 
L 373.806286 200.083749 
L 373.806286 200.083749 
L 373.785782 200.083749 
L 373.785782 200.083749 
L 373.077471 200.083749 
L 373.077471 200.083749 
L 372.719071 200.083749 
L 372.719071 200.083749 
L 372.506158 200.083749 
L 372.506158 200.083749 
L 372.176813 200.083749 
L 372.176813 200.083749 
L 371.989381 200.083749 
L 371.989381 200.083749 
L 371.744114 200.083749 
L 371.744114 200.083749 
L 371.729654 200.083749 
L 371.729654 200.083749 
L 371.70511 200.083749 
L 371.70511 200.083749 
L 371.382581 200.083749 
L 371.382581 200.083749 
L 371.102565 200.083749 
L 371.102565 200.083749 
L 370.671201 200.083749 
L 370.671201 200.083749 
L 370.486932 200.083749 
L 370.486932 200.083749 
L 370.223648 200.083749 
L 370.223648 200.083749 
L 370.028122 200.083749 
L 370.028122 200.083749 
L 369.717191 200.083749 
L 369.717191 200.083749 
L 369.521888 200.083749 
L 369.521888 200.083749 
L 369.256086 200.083749 
L 369.256086 200.083749 
L 369.058635 200.083749 
L 369.058635 200.083749 
L 368.696448 200.083749 
L 368.696448 200.083749 
L 368.520837 200.083749 
L 368.520837 200.083749 
L 368.286344 200.083749 
L 368.286344 200.083749 
L 368.06291 200.083749 
L 368.06291 200.083749 
L 367.710584 200.083749 
L 367.710584 200.083749 
L 367.53288 200.083749 
L 367.53288 200.083749 
L 367.329254 200.083749 
L 367.329254 202.023497 
L 364.404989 202.023497 
L 364.404989 202.023497 
L 362.41817 202.023497 
L 362.41817 202.023497 
L 358.444532 202.023497 
L 358.444532 202.023497 
L 356.457713 202.023497 
L 356.457713 202.023497 
L 355.464304 202.023497 
L 355.464304 202.023497 
L 352.98078 202.023497 
L 352.98078 202.023497 
L 351.987371 202.023497 
L 351.987371 202.023497 
L 351.490666 202.023497 
L 351.490666 202.023497 
L 350.993961 202.023497 
L 350.993961 202.023497 
L 348.510438 202.023497 
L 348.510438 202.023497 
L 346.026914 202.023497 
L 346.026914 202.023497 
L 345.033505 202.023497 
L 345.033505 202.023497 
L 340.066458 202.023497 
L 340.066458 202.023497 
L 339.569753 202.023497 
L 339.569753 202.023497 
L 339.073048 202.023497 
L 339.073048 202.023497 
L 338.576343 202.023497 
L 338.576343 202.023497 
L 337.086229 202.023497 
L 337.086229 202.023497 
L 335.09941 202.023497 
L 335.09941 202.023497 
L 334.602706 202.023497 
L 334.602706 202.023497 
L 334.106001 202.023497 
L 334.106001 202.023497 
L 333.112591 202.023497 
L 333.112591 202.023497 
L 331.622477 202.023497 
L 331.622477 202.023497 
L 327.152135 202.023497 
L 327.152135 202.023497 
L 326.158725 202.023497 
L 326.158725 202.023497 
L 325.662021 202.023497 
L 325.662021 202.023497 
L 324.668611 202.023497 
L 324.668611 202.023497 
L 323.178497 202.023497 
L 323.178497 202.023497 
L 322.681792 202.023497 
L 322.681792 202.023497 
L 316.224631 202.023497 
L 316.224631 202.023497 
L 313.244403 202.023497 
L 313.244403 202.023497 
L 311.257584 202.023497 
L 311.257584 202.023497 
L 310.264174 202.023497 
L 310.264174 202.023497 
L 308.77406 202.023497 
L 308.77406 202.023497 
L 307.780651 202.023497 
L 307.780651 202.023497 
L 303.310308 202.023497 
L 303.310308 202.023497 
L 302.316899 202.023497 
L 302.316899 202.023497 
L 301.820194 202.023497 
L 301.820194 202.023497 
L 301.323489 202.023497 
L 301.323489 202.023497 
L 300.33008 202.023497 
L 300.33008 202.023497 
L 299.833375 202.023497 
L 299.833375 202.023497 
L 299.33667 202.023497 
L 299.33667 202.023497 
L 290.395985 202.023497 
L 290.395985 202.023497 
L 289.899281 202.023497 
L 289.899281 202.023497 
L 287.912462 202.023497 
L 287.912462 202.023497 
L 279.965186 202.023497 
L 279.965186 202.023497 
L 278.475072 202.023497 
L 278.475072 202.023497 
L 276.984958 202.023497 
L 276.984958 202.023497 
L 275.494844 202.023497 
L 275.494844 202.023497 
L 274.998139 202.023497 
L 274.998139 202.023497 
L 274.501434 202.023497 
L 274.501434 202.023497 
L 274.00473 202.023497 
L 274.00473 202.023497 
L 273.508025 202.023497 
L 273.508025 202.023497 
L 270.031092 202.023497 
L 270.031092 202.023497 
L 268.540978 202.023497 
L 268.540978 202.023497 
L 267.050864 202.023497 
L 267.050864 202.023497 
L 266.554159 202.023497 
L 266.554159 202.023497 
L 266.057454 202.023497 
L 266.057454 202.023497 
L 264.56734 202.023497 
L 264.56734 202.023497 
L 264.070635 202.023497 
L 264.070635 202.023497 
L 263.077226 202.023497 
L 263.077226 202.023497 
L 261.090407 202.023497 
L 261.090407 202.023497 
L 254.633246 202.023497 
L 254.633246 202.023497 
L 253.639836 202.023497 
L 253.639836 202.023497 
L 253.143131 202.023497 
L 253.143131 202.023497 
L 252.646427 202.023497 
L 252.646427 202.023497 
L 252.149722 202.023497 
L 252.149722 202.023497 
L 251.653017 202.023497 
L 251.653017 202.023497 
L 251.156313 202.023497 
L 251.156313 202.023497 
L 250.659608 202.023497 
L 250.659608 202.023497 
L 250.162903 202.023497 
L 250.162903 202.023497 
L 249.169494 202.023497 
L 249.169494 202.023497 
L 245.195856 202.023497 
L 245.195856 202.023497 
L 244.699151 202.023497 
L 244.699151 202.023497 
L 244.202446 202.023497 
L 244.202446 202.023497 
L 243.705742 202.023497 
L 243.705742 202.023497 
L 243.209037 202.023497 
L 243.209037 202.023497 
L 242.712332 202.023497 
L 242.712332 202.023497 
L 241.718923 202.023497 
L 241.718923 202.023497 
L 240.228809 202.023497 
L 240.228809 202.023497 
L 239.732104 202.023497 
L 239.732104 202.023497 
L 237.24858 202.023497 
L 237.24858 202.023497 
L 232.778238 202.023497 
L 232.778238 202.023497 
L 231.784828 202.023497 
L 231.784828 202.023497 
L 231.288124 202.023497 
L 231.288124 202.023497 
L 230.791419 202.023497 
L 230.791419 202.023497 
L 230.294714 202.023497 
L 230.294714 202.023497 
L 229.301305 202.023497 
L 229.301305 202.023497 
L 227.811191 202.023497 
L 227.811191 202.023497 
L 227.314486 202.023497 
L 227.314486 202.023497 
L 225.824372 202.023497 
L 225.824372 202.023497 
L 221.850734 202.023497 
L 221.850734 202.023497 
L 221.354029 202.023497 
L 221.354029 202.023497 
L 220.857325 202.023497 
L 220.857325 202.023497 
L 219.863915 202.023497 
L 219.863915 202.023497 
L 218.870506 202.023497 
L 218.870506 202.023497 
L 217.877096 202.023497 
L 217.877096 202.023497 
L 217.380392 202.023497 
L 217.380392 202.023497 
L 216.883687 202.023497 
L 216.883687 202.023497 
L 216.386982 202.023497 
L 216.386982 202.023497 
L 215.890277 202.023497 
L 215.890277 202.023497 
L 214.896868 202.023497 
L 214.896868 202.023497 
L 213.903458 202.023497 
L 213.903458 202.023497 
L 208.936411 202.023497 
L 208.936411 202.023497 
L 208.439707 202.023497 
L 208.439707 202.023497 
L 206.949592 202.023497 
L 206.949592 202.172709 
L 206.452888 202.172709 
L 206.452888 202.471131 
L 205.956183 202.471131 
L 205.956183 202.620343 
L 204.466069 202.620343 
L 204.466069 203.067977 
L 203.969364 203.067977 
L 203.969364 203.217189 
L 202.975955 203.217189 
L 202.975955 203.3664 
L 198.008907 203.3664 
L 198.008907 203.664823 
L 197.512203 203.664823 
L 197.512203 203.664823 
L 197.015498 203.664823 
L 197.015498 203.963246 
L 196.518793 203.963246 
L 196.518793 204.41088 
L 196.022089 204.41088 
L 196.022089 204.41088 
L 195.028679 204.41088 
L 195.028679 204.709303 
L 194.531974 204.709303 
L 194.531974 204.858514 
L 193.04186 204.858514 
L 193.04186 205.156937 
L 192.545155 205.156937 
L 192.545155 206.649051 
L 191.551746 206.649051 
L 191.551746 206.947474 
L 191.055041 206.947474 
L 191.055041 207.096686 
L 190.061632 207.096686 
L 190.061632 207.693531 
L 189.564927 207.693531 
L 189.564927 207.693531 
L 189.068222 207.693531 
L 189.068222 207.842743 
L 186.087994 207.842743 
L 186.087994 208.141166 
L 185.094585 208.141166 
L 185.094585 208.5888 
L 184.59788 208.5888 
L 184.59788 208.887223 
L 184.101175 208.887223 
L 184.101175 209.782491 
L 183.604471 209.782491 
L 183.604471 210.230126 
L 183.107766 210.230126 
L 183.107766 211.125394 
L 182.611061 211.125394 
L 182.611061 211.573029 
L 181.617652 211.573029 
L 181.617652 211.72224 
L 179.630833 211.72224 
L 179.630833 211.871451 
L 179.134128 211.871451 
L 179.134128 212.169874 
L 177.644014 212.169874 
L 177.644014 212.169874 
L 175.657195 212.169874 
L 175.657195 212.468297 
L 175.16049 212.468297 
L 175.16049 212.617509 
L 174.663786 212.617509 
L 174.663786 212.76672 
L 173.670376 212.76672 
L 173.670376 213.214354 
L 173.173671 213.214354 
L 173.173671 213.214354 
L 172.676967 213.214354 
L 172.676967 213.512777 
L 172.180262 213.512777 
L 172.180262 214.258834 
L 171.186853 214.258834 
L 171.186853 214.557257 
L 170.193443 214.557257 
L 170.193443 214.557257 
L 169.200034 214.557257 
L 169.200034 214.706469 
L 168.703329 214.706469 
L 168.703329 214.85568 
L 168.206624 214.85568 
L 168.206624 215.154103 
L 167.709919 215.154103 
L 167.709919 215.303314 
L 167.213215 215.303314 
L 167.213215 215.452526 
L 166.71651 215.452526 
L 166.71651 215.750949 
L 166.219805 215.750949 
L 166.219805 215.750949 
L 165.723101 215.750949 
L 165.723101 215.90016 
L 161.749463 215.90016 
L 161.749463 215.90016 
L 161.252758 215.90016 
L 161.252758 216.198583 
L 160.756053 216.198583 
L 160.756053 216.347794 
L 160.259349 216.347794 
L 160.259349 216.497006 
L 159.762644 216.497006 
L 159.762644 216.646217 
L 159.265939 216.646217 
L 159.265939 216.94464 
L 158.27253 216.94464 
L 158.27253 216.94464 
L 157.775825 216.94464 
L 157.775825 217.243063 
L 156.782416 217.243063 
L 156.782416 217.541486 
L 155.789006 217.541486 
L 155.789006 217.98912 
L 154.795597 217.98912 
L 154.795597 218.287543 
L 152.808778 218.287543 
L 152.808778 218.287543 
L 150.821959 218.287543 
L 150.821959 218.436754 
L 149.82855 218.436754 
L 149.82855 218.735177 
L 149.331845 218.735177 
L 149.331845 218.884389 
L 148.83514 218.884389 
L 148.83514 219.182811 
L 148.338435 219.182811 
L 148.338435 219.481234 
L 147.841731 219.481234 
L 147.841731 219.779657 
L 147.345026 219.779657 
L 147.345026 219.928869 
L 146.351616 219.928869 
L 146.351616 220.227291 
L 145.854912 220.227291 
L 145.854912 220.525714 
L 145.358207 220.525714 
L 145.358207 220.973349 
L 144.861502 220.973349 
L 144.861502 221.271771 
L 144.364798 221.271771 
L 144.364798 221.570194 
L 143.868093 221.570194 
L 143.868093 221.719406 
L 143.371388 221.719406 
L 143.371388 222.316251 
L 142.874683 222.316251 
L 142.874683 222.465463 
L 142.377979 222.465463 
L 142.377979 222.763886 
L 138.404341 222.763886 
L 138.404341 223.509943 
L 137.907636 223.509943 
L 137.907636 223.659154 
L 135.920817 223.659154 
L 135.920817 224.256 
L 134.430703 224.256 
L 134.430703 224.554423 
L 133.933998 224.554423 
L 133.933998 225.002057 
L 132.940589 225.002057 
L 132.940589 225.151269 
L 132.443884 225.151269 
L 132.443884 225.30048 
L 131.450475 225.30048 
L 131.450475 225.449691 
L 123.006495 225.449691 
L 123.006495 225.598903 
L 121.019676 225.598903 
L 121.019676 225.748114 
L 120.522971 225.748114 
L 120.522971 226.046537 
L 120.026266 226.046537 
L 120.026266 226.195749 
L 119.529562 226.195749 
L 119.529562 226.34496 
L 118.536152 226.34496 
L 118.536152 226.643383 
L 114.06581 226.643383 
L 114.06581 227.240229 
L 113.569105 227.240229 
L 113.569105 227.38944 
L 113.0724 227.38944 
L 113.0724 227.538651 
L 112.575695 227.538651 
L 112.575695 227.687863 
L 112.078991 227.687863 
L 112.078991 227.837074 
L 111.582286 227.837074 
L 111.582286 227.837074 
L 111.085581 227.837074 
L 111.085581 228.135497 
L 110.588877 228.135497 
L 110.588877 228.43392 
L 110.092172 228.43392 
L 110.092172 228.732343 
L 109.595467 228.732343 
L 109.595467 229.179977 
L 109.098762 229.179977 
L 109.098762 229.627611 
L 108.602058 229.627611 
L 108.602058 229.926034 
L 107.608648 229.926034 
L 107.608648 230.224457 
L 107.111944 230.224457 
L 107.111944 230.373669 
L 106.615239 230.373669 
L 106.615239 230.52288 
L 105.125125 230.52288 
L 105.125125 230.672091 
L 102.144896 230.672091 
L 102.144896 231.119726 
L 101.648192 231.119726 
L 101.648192 231.268937 
L 101.151487 231.268937 
L 101.151487 231.418149 
L 100.654782 231.418149 
L 100.654782 231.716571 
L 100.158077 231.716571 
L 100.158077 232.014994 
L 99.661373 232.014994 
L 99.661373 232.61184 
L 99.164668 232.61184 
L 99.164668 232.910263 
L 98.667963 232.910263 
L 98.667963 233.65632 
L 98.171259 233.65632 
L 98.171259 234.103954 
L 97.674554 234.103954 
L 97.674554 234.850011 
L 97.177849 234.850011 
L 97.177849 234.999223 
L 96.681144 234.999223 
L 96.681144 235.297646 
L 96.18444 235.297646 
L 96.18444 236.043703 
L 95.687735 236.043703 
L 95.687735 236.342126 
L 95.19103 236.342126 
L 95.19103 236.640549 
L 94.694326 236.640549 
L 94.694326 236.78976 
L 94.197621 236.78976 
L 94.197621 237.088183 
L 93.700916 237.088183 
L 93.700916 237.237394 
L 90.223983 237.237394 
L 90.223983 237.386606 
L 89.727278 237.386606 
L 89.727278 237.685029 
L 89.230574 237.685029 
L 89.230574 238.281874 
L 88.237164 238.281874 
L 88.237164 238.87872 
L 87.243755 238.87872 
L 87.243755 239.326354 
L 86.74705 239.326354 
L 86.74705 239.773989 
L 86.250345 239.773989 
L 86.250345 239.773989 
L 85.753641 239.773989 
L 85.753641 240.370834 
L 85.256936 240.370834 
L 85.256936 241.713737 
L 84.760231 241.713737 
L 84.760231 242.310583 
L 84.263526 242.310583 
L 84.263526 243.205851 
L 83.766822 243.205851 
L 83.766822 244.250331 
L 83.270117 244.250331 
L 83.270117 244.548754 
L 82.773412 244.548754 
L 82.773412 245.1456 
L 81.780003 245.1456 
L 81.780003 245.444023 
L 81.283298 245.444023 
L 81.283298 245.593234 
L 80.786593 245.593234 
L 80.786593 245.742446 
L 80.289889 245.742446 
L 80.289889 245.742446 
L 79.793184 245.742446 
L 79.793184 246.040869 
L 79.296479 246.040869 
L 79.296479 246.19008 
L 78.799774 246.19008 
L 78.799774 246.339291 
L 78.30307 246.339291 
L 78.30307 247.532983 
L 77.806365 247.532983 
L 77.806365 249.025097 
L 77.30966 249.025097 
L 77.30966 252.009326 
L 76.812956 252.009326 
L 76.812956 254.396709 
L 76.316251 254.396709 
L 76.316251 257.380937 
L 75.819546 257.380937 
L 75.819546 261.708069 
L 75.322841 261.708069 
L 75.322841 269.019429 
L 74.826137 269.019429 
L 74.826137 273.794194 
L 74.329432 273.794194 
L 74.329432 275.584731 
L 73.832727 275.584731 
L 73.832727 276.48 
L 73.832727 276.48 
z
" clip-path="url(#peeaccb5bb2)" style="fill: #fa448c; fill-opacity: 0.8"/>
   </g>
   <g id="PolyCollection_2">
    <path d="M 73.832727 276.48 
L 73.832727 276.48 
L 73.832727 276.48 
L 73.832727 275.584731 
L 74.329432 275.584731 
L 74.329432 273.794194 
L 74.826137 273.794194 
L 74.826137 269.019429 
L 75.322841 269.019429 
L 75.322841 261.708069 
L 75.819546 261.708069 
L 75.819546 257.380937 
L 76.316251 257.380937 
L 76.316251 254.396709 
L 76.812956 254.396709 
L 76.812956 252.009326 
L 77.30966 252.009326 
L 77.30966 249.025097 
L 77.806365 249.025097 
L 77.806365 247.532983 
L 78.30307 247.532983 
L 78.30307 246.339291 
L 78.799774 246.339291 
L 78.799774 246.19008 
L 79.296479 246.19008 
L 79.296479 246.040869 
L 79.793184 246.040869 
L 79.793184 245.742446 
L 80.289889 245.742446 
L 80.289889 245.742446 
L 80.786593 245.742446 
L 80.786593 245.593234 
L 81.283298 245.593234 
L 81.283298 245.444023 
L 81.780003 245.444023 
L 81.780003 245.1456 
L 82.773412 245.1456 
L 82.773412 244.548754 
L 83.270117 244.548754 
L 83.270117 244.250331 
L 83.766822 244.250331 
L 83.766822 243.205851 
L 84.263526 243.205851 
L 84.263526 242.310583 
L 84.760231 242.310583 
L 84.760231 241.713737 
L 85.256936 241.713737 
L 85.256936 240.370834 
L 85.753641 240.370834 
L 85.753641 239.773989 
L 86.250345 239.773989 
L 86.250345 239.773989 
L 86.74705 239.773989 
L 86.74705 239.326354 
L 87.243755 239.326354 
L 87.243755 238.87872 
L 88.237164 238.87872 
L 88.237164 238.281874 
L 89.230574 238.281874 
L 89.230574 237.685029 
L 89.727278 237.685029 
L 89.727278 237.386606 
L 90.223983 237.386606 
L 90.223983 237.237394 
L 93.700916 237.237394 
L 93.700916 237.088183 
L 94.197621 237.088183 
L 94.197621 236.78976 
L 94.694326 236.78976 
L 94.694326 236.640549 
L 95.19103 236.640549 
L 95.19103 236.342126 
L 95.687735 236.342126 
L 95.687735 236.043703 
L 96.18444 236.043703 
L 96.18444 235.297646 
L 96.681144 235.297646 
L 96.681144 234.999223 
L 97.177849 234.999223 
L 97.177849 234.850011 
L 97.674554 234.850011 
L 97.674554 234.103954 
L 98.171259 234.103954 
L 98.171259 233.65632 
L 98.667963 233.65632 
L 98.667963 232.910263 
L 99.164668 232.910263 
L 99.164668 232.61184 
L 99.661373 232.61184 
L 99.661373 232.014994 
L 100.158077 232.014994 
L 100.158077 231.716571 
L 100.654782 231.716571 
L 100.654782 231.418149 
L 101.151487 231.418149 
L 101.151487 231.268937 
L 101.648192 231.268937 
L 101.648192 231.119726 
L 102.144896 231.119726 
L 102.144896 230.672091 
L 105.125125 230.672091 
L 105.125125 230.52288 
L 106.615239 230.52288 
L 106.615239 230.373669 
L 107.111944 230.373669 
L 107.111944 230.224457 
L 107.608648 230.224457 
L 107.608648 229.926034 
L 108.602058 229.926034 
L 108.602058 229.627611 
L 109.098762 229.627611 
L 109.098762 229.179977 
L 109.595467 229.179977 
L 109.595467 228.732343 
L 110.092172 228.732343 
L 110.092172 228.43392 
L 110.588877 228.43392 
L 110.588877 228.135497 
L 111.085581 228.135497 
L 111.085581 227.837074 
L 111.582286 227.837074 
L 111.582286 227.837074 
L 112.078991 227.837074 
L 112.078991 227.687863 
L 112.575695 227.687863 
L 112.575695 227.538651 
L 113.0724 227.538651 
L 113.0724 227.38944 
L 113.569105 227.38944 
L 113.569105 227.240229 
L 114.06581 227.240229 
L 114.06581 226.643383 
L 118.536152 226.643383 
L 118.536152 226.34496 
L 119.529562 226.34496 
L 119.529562 226.195749 
L 120.026266 226.195749 
L 120.026266 226.046537 
L 120.522971 226.046537 
L 120.522971 225.748114 
L 121.019676 225.748114 
L 121.019676 225.598903 
L 123.006495 225.598903 
L 123.006495 225.449691 
L 131.450475 225.449691 
L 131.450475 225.30048 
L 132.443884 225.30048 
L 132.443884 225.151269 
L 132.940589 225.151269 
L 132.940589 225.002057 
L 133.933998 225.002057 
L 133.933998 224.554423 
L 134.430703 224.554423 
L 134.430703 224.256 
L 135.920817 224.256 
L 135.920817 223.659154 
L 137.907636 223.659154 
L 137.907636 223.509943 
L 138.404341 223.509943 
L 138.404341 222.763886 
L 142.377979 222.763886 
L 142.377979 222.465463 
L 142.874683 222.465463 
L 142.874683 222.316251 
L 143.371388 222.316251 
L 143.371388 221.719406 
L 143.868093 221.719406 
L 143.868093 221.570194 
L 144.364798 221.570194 
L 144.364798 221.271771 
L 144.861502 221.271771 
L 144.861502 220.973349 
L 145.358207 220.973349 
L 145.358207 220.525714 
L 145.854912 220.525714 
L 145.854912 220.227291 
L 146.351616 220.227291 
L 146.351616 219.928869 
L 147.345026 219.928869 
L 147.345026 219.779657 
L 147.841731 219.779657 
L 147.841731 219.481234 
L 148.338435 219.481234 
L 148.338435 219.182811 
L 148.83514 219.182811 
L 148.83514 218.884389 
L 149.331845 218.884389 
L 149.331845 218.735177 
L 149.82855 218.735177 
L 149.82855 218.436754 
L 150.821959 218.436754 
L 150.821959 218.287543 
L 152.808778 218.287543 
L 152.808778 218.287543 
L 154.795597 218.287543 
L 154.795597 217.98912 
L 155.789006 217.98912 
L 155.789006 217.541486 
L 156.782416 217.541486 
L 156.782416 217.243063 
L 157.775825 217.243063 
L 157.775825 216.94464 
L 158.27253 216.94464 
L 158.27253 216.94464 
L 159.265939 216.94464 
L 159.265939 216.646217 
L 159.762644 216.646217 
L 159.762644 216.497006 
L 160.259349 216.497006 
L 160.259349 216.347794 
L 160.756053 216.347794 
L 160.756053 216.198583 
L 161.252758 216.198583 
L 161.252758 215.90016 
L 161.749463 215.90016 
L 161.749463 215.90016 
L 165.723101 215.90016 
L 165.723101 215.750949 
L 166.219805 215.750949 
L 166.219805 215.750949 
L 166.71651 215.750949 
L 166.71651 215.452526 
L 167.213215 215.452526 
L 167.213215 215.303314 
L 167.709919 215.303314 
L 167.709919 215.154103 
L 168.206624 215.154103 
L 168.206624 214.85568 
L 168.703329 214.85568 
L 168.703329 214.706469 
L 169.200034 214.706469 
L 169.200034 214.557257 
L 170.193443 214.557257 
L 170.193443 214.557257 
L 171.186853 214.557257 
L 171.186853 214.258834 
L 172.180262 214.258834 
L 172.180262 213.512777 
L 172.676967 213.512777 
L 172.676967 213.214354 
L 173.173671 213.214354 
L 173.173671 213.214354 
L 173.670376 213.214354 
L 173.670376 212.76672 
L 174.663786 212.76672 
L 174.663786 212.617509 
L 175.16049 212.617509 
L 175.16049 212.468297 
L 175.657195 212.468297 
L 175.657195 212.169874 
L 177.644014 212.169874 
L 177.644014 212.169874 
L 179.134128 212.169874 
L 179.134128 211.871451 
L 179.630833 211.871451 
L 179.630833 211.72224 
L 181.617652 211.72224 
L 181.617652 211.573029 
L 182.611061 211.573029 
L 182.611061 211.125394 
L 183.107766 211.125394 
L 183.107766 210.230126 
L 183.604471 210.230126 
L 183.604471 209.782491 
L 184.101175 209.782491 
L 184.101175 208.887223 
L 184.59788 208.887223 
L 184.59788 208.5888 
L 185.094585 208.5888 
L 185.094585 208.141166 
L 186.087994 208.141166 
L 186.087994 207.842743 
L 189.068222 207.842743 
L 189.068222 207.693531 
L 189.564927 207.693531 
L 189.564927 207.693531 
L 190.061632 207.693531 
L 190.061632 207.096686 
L 191.055041 207.096686 
L 191.055041 206.947474 
L 191.551746 206.947474 
L 191.551746 206.649051 
L 192.545155 206.649051 
L 192.545155 205.156937 
L 193.04186 205.156937 
L 193.04186 204.858514 
L 194.531974 204.858514 
L 194.531974 204.709303 
L 195.028679 204.709303 
L 195.028679 204.41088 
L 196.022089 204.41088 
L 196.022089 204.41088 
L 196.518793 204.41088 
L 196.518793 203.963246 
L 197.015498 203.963246 
L 197.015498 203.664823 
L 197.512203 203.664823 
L 197.512203 203.664823 
L 198.008907 203.664823 
L 198.008907 203.3664 
L 202.975955 203.3664 
L 202.975955 203.217189 
L 203.969364 203.217189 
L 203.969364 203.067977 
L 204.466069 203.067977 
L 204.466069 202.620343 
L 205.956183 202.620343 
L 205.956183 202.471131 
L 206.452888 202.471131 
L 206.452888 202.172709 
L 206.949592 202.172709 
L 206.949592 202.023497 
L 208.439707 202.023497 
L 208.439707 202.023497 
L 208.936411 202.023497 
L 208.936411 202.023497 
L 213.903458 202.023497 
L 213.903458 202.023497 
L 214.896868 202.023497 
L 214.896868 202.023497 
L 215.890277 202.023497 
L 215.890277 202.023497 
L 216.386982 202.023497 
L 216.386982 202.023497 
L 216.883687 202.023497 
L 216.883687 202.023497 
L 217.380392 202.023497 
L 217.380392 202.023497 
L 217.877096 202.023497 
L 217.877096 202.023497 
L 218.870506 202.023497 
L 218.870506 202.023497 
L 219.863915 202.023497 
L 219.863915 202.023497 
L 220.857325 202.023497 
L 220.857325 202.023497 
L 221.354029 202.023497 
L 221.354029 202.023497 
L 221.850734 202.023497 
L 221.850734 202.023497 
L 225.824372 202.023497 
L 225.824372 202.023497 
L 227.314486 202.023497 
L 227.314486 202.023497 
L 227.811191 202.023497 
L 227.811191 202.023497 
L 229.301305 202.023497 
L 229.301305 202.023497 
L 230.294714 202.023497 
L 230.294714 202.023497 
L 230.791419 202.023497 
L 230.791419 202.023497 
L 231.288124 202.023497 
L 231.288124 202.023497 
L 231.784828 202.023497 
L 231.784828 202.023497 
L 232.778238 202.023497 
L 232.778238 202.023497 
L 237.24858 202.023497 
L 237.24858 202.023497 
L 239.732104 202.023497 
L 239.732104 202.023497 
L 240.228809 202.023497 
L 240.228809 202.023497 
L 241.718923 202.023497 
L 241.718923 202.023497 
L 242.712332 202.023497 
L 242.712332 202.023497 
L 243.209037 202.023497 
L 243.209037 202.023497 
L 243.705742 202.023497 
L 243.705742 202.023497 
L 244.202446 202.023497 
L 244.202446 202.023497 
L 244.699151 202.023497 
L 244.699151 202.023497 
L 245.195856 202.023497 
L 245.195856 202.023497 
L 249.169494 202.023497 
L 249.169494 202.023497 
L 250.162903 202.023497 
L 250.162903 202.023497 
L 250.659608 202.023497 
L 250.659608 202.023497 
L 251.156313 202.023497 
L 251.156313 202.023497 
L 251.653017 202.023497 
L 251.653017 202.023497 
L 252.149722 202.023497 
L 252.149722 202.023497 
L 252.646427 202.023497 
L 252.646427 202.023497 
L 253.143131 202.023497 
L 253.143131 202.023497 
L 253.639836 202.023497 
L 253.639836 202.023497 
L 254.633246 202.023497 
L 254.633246 202.023497 
L 261.090407 202.023497 
L 261.090407 202.023497 
L 263.077226 202.023497 
L 263.077226 202.023497 
L 264.070635 202.023497 
L 264.070635 202.023497 
L 264.56734 202.023497 
L 264.56734 202.023497 
L 266.057454 202.023497 
L 266.057454 202.023497 
L 266.554159 202.023497 
L 266.554159 202.023497 
L 267.050864 202.023497 
L 267.050864 202.023497 
L 268.540978 202.023497 
L 268.540978 202.023497 
L 270.031092 202.023497 
L 270.031092 202.023497 
L 273.508025 202.023497 
L 273.508025 202.023497 
L 274.00473 202.023497 
L 274.00473 202.023497 
L 274.501434 202.023497 
L 274.501434 202.023497 
L 274.998139 202.023497 
L 274.998139 202.023497 
L 275.494844 202.023497 
L 275.494844 202.023497 
L 276.984958 202.023497 
L 276.984958 202.023497 
L 278.475072 202.023497 
L 278.475072 202.023497 
L 279.965186 202.023497 
L 279.965186 202.023497 
L 287.912462 202.023497 
L 287.912462 202.023497 
L 289.899281 202.023497 
L 289.899281 202.023497 
L 290.395985 202.023497 
L 290.395985 202.023497 
L 299.33667 202.023497 
L 299.33667 202.023497 
L 299.833375 202.023497 
L 299.833375 202.023497 
L 300.33008 202.023497 
L 300.33008 202.023497 
L 301.323489 202.023497 
L 301.323489 202.023497 
L 301.820194 202.023497 
L 301.820194 202.023497 
L 302.316899 202.023497 
L 302.316899 202.023497 
L 303.310308 202.023497 
L 303.310308 202.023497 
L 307.780651 202.023497 
L 307.780651 202.023497 
L 308.77406 202.023497 
L 308.77406 202.023497 
L 310.264174 202.023497 
L 310.264174 202.023497 
L 311.257584 202.023497 
L 311.257584 202.023497 
L 313.244403 202.023497 
L 313.244403 202.023497 
L 316.224631 202.023497 
L 316.224631 202.023497 
L 322.681792 202.023497 
L 322.681792 202.023497 
L 323.178497 202.023497 
L 323.178497 202.023497 
L 324.668611 202.023497 
L 324.668611 202.023497 
L 325.662021 202.023497 
L 325.662021 202.023497 
L 326.158725 202.023497 
L 326.158725 202.023497 
L 327.152135 202.023497 
L 327.152135 202.023497 
L 331.622477 202.023497 
L 331.622477 202.023497 
L 333.112591 202.023497 
L 333.112591 202.023497 
L 334.106001 202.023497 
L 334.106001 202.023497 
L 334.602706 202.023497 
L 334.602706 202.023497 
L 335.09941 202.023497 
L 335.09941 202.023497 
L 337.086229 202.023497 
L 337.086229 202.023497 
L 338.576343 202.023497 
L 338.576343 202.023497 
L 339.073048 202.023497 
L 339.073048 202.023497 
L 339.569753 202.023497 
L 339.569753 202.023497 
L 340.066458 202.023497 
L 340.066458 202.023497 
L 345.033505 202.023497 
L 345.033505 202.023497 
L 346.026914 202.023497 
L 346.026914 202.023497 
L 348.510438 202.023497 
L 348.510438 202.023497 
L 350.993961 202.023497 
L 350.993961 202.023497 
L 351.490666 202.023497 
L 351.490666 202.023497 
L 351.987371 202.023497 
L 351.987371 202.023497 
L 352.98078 202.023497 
L 352.98078 202.023497 
L 355.464304 202.023497 
L 355.464304 202.023497 
L 356.457713 202.023497 
L 356.457713 202.023497 
L 358.444532 202.023497 
L 358.444532 202.023497 
L 362.41817 202.023497 
L 362.41817 202.023497 
L 364.404989 202.023497 
L 364.404989 202.023497 
L 367.329254 202.023497 
L 367.329254 200.083749 
L 367.53288 200.083749 
L 367.53288 200.083749 
L 367.710584 200.083749 
L 367.710584 200.083749 
L 368.06291 200.083749 
L 368.06291 200.083749 
L 368.286344 200.083749 
L 368.286344 200.083749 
L 368.520837 200.083749 
L 368.520837 200.083749 
L 368.696448 200.083749 
L 368.696448 200.083749 
L 369.058635 200.083749 
L 369.058635 200.083749 
L 369.256086 200.083749 
L 369.256086 200.083749 
L 369.521888 200.083749 
L 369.521888 200.083749 
L 369.717191 200.083749 
L 369.717191 200.083749 
L 370.028122 200.083749 
L 370.028122 200.083749 
L 370.223648 200.083749 
L 370.223648 200.083749 
L 370.486932 200.083749 
L 370.486932 200.083749 
L 370.671201 200.083749 
L 370.671201 200.083749 
L 371.102565 200.083749 
L 371.102565 200.083749 
L 371.382581 200.083749 
L 371.382581 200.083749 
L 371.70511 200.083749 
L 371.70511 200.083749 
L 371.729654 200.083749 
L 371.729654 200.083749 
L 371.744114 200.083749 
L 371.744114 200.083749 
L 371.989381 200.083749 
L 371.989381 200.083749 
L 372.176813 200.083749 
L 372.176813 200.083749 
L 372.506158 200.083749 
L 372.506158 200.083749 
L 372.719071 200.083749 
L 372.719071 200.083749 
L 373.077471 200.083749 
L 373.077471 200.083749 
L 373.785782 200.083749 
L 373.785782 200.083749 
L 373.806286 200.083749 
L 373.806286 200.083749 
L 373.831623 200.083749 
L 373.831623 200.083749 
L 374.017754 200.083749 
L 374.017754 200.083749 
L 374.228382 200.083749 
L 374.228382 200.083749 
L 374.457131 200.083749 
L 374.457131 200.083749 
L 374.645632 200.083749 
L 374.645632 200.083749 
L 374.991607 200.083749 
L 374.991607 200.083749 
L 375.457856 200.083749 
L 375.457856 200.083749 
L 380.975625 200.083749 
L 380.975625 200.083749 
L 382.407078 200.083749 
L 382.407078 200.083749 
L 383.627035 200.083749 
L 383.627035 200.083749 
L 383.910125 200.083749 
L 383.910125 200.083749 
L 385.298775 200.083749 
L 385.298775 200.083749 
L 385.650889 200.083749 
L 385.650889 200.083749 
L 385.935391 200.083749 
L 385.935391 200.083749 
L 386.379506 200.083749 
L 386.379506 200.083749 
L 393.880692 200.083749 
L 393.880692 200.083749 
L 396.931606 200.083749 
L 396.931606 200.083749 
L 398.487273 200.083749 
L 398.487273 200.083749 
L 398.487273 146.96448 
L 398.487273 146.96448 
L 398.487273 146.96448 
L 396.931606 146.96448 
L 396.931606 147.113691 
L 393.880692 147.113691 
L 393.880692 147.262903 
L 386.379506 147.262903 
L 386.379506 147.561326 
L 385.935391 147.561326 
L 385.935391 147.710537 
L 385.650889 147.710537 
L 385.650889 148.00896 
L 385.298775 148.00896 
L 385.298775 148.158171 
L 383.910125 148.158171 
L 383.910125 148.307383 
L 383.627035 148.307383 
L 383.627035 148.456594 
L 382.407078 148.456594 
L 382.407078 148.605806 
L 380.975625 148.605806 
L 380.975625 148.755017 
L 375.457856 148.755017 
L 375.457856 149.05344 
L 374.991607 149.05344 
L 374.991607 149.202651 
L 374.645632 149.202651 
L 374.645632 149.202651 
L 374.457131 149.202651 
L 374.457131 149.202651 
L 374.228382 149.202651 
L 374.228382 149.202651 
L 374.017754 149.202651 
L 374.017754 149.202651 
L 373.831623 149.202651 
L 373.831623 149.202651 
L 373.806286 149.202651 
L 373.806286 149.202651 
L 373.785782 149.202651 
L 373.785782 149.202651 
L 373.077471 149.202651 
L 373.077471 149.202651 
L 372.719071 149.202651 
L 372.719071 149.202651 
L 372.506158 149.202651 
L 372.506158 149.202651 
L 372.176813 149.202651 
L 372.176813 149.202651 
L 371.989381 149.202651 
L 371.989381 149.202651 
L 371.744114 149.202651 
L 371.744114 149.202651 
L 371.729654 149.202651 
L 371.729654 149.202651 
L 371.70511 149.202651 
L 371.70511 149.202651 
L 371.382581 149.202651 
L 371.382581 149.501074 
L 371.102565 149.501074 
L 371.102565 149.650286 
L 370.671201 149.650286 
L 370.671201 149.650286 
L 370.486932 149.650286 
L 370.486932 150.247131 
L 370.223648 150.247131 
L 370.223648 150.396343 
L 370.028122 150.396343 
L 370.028122 150.396343 
L 369.717191 150.396343 
L 369.717191 150.396343 
L 369.521888 150.396343 
L 369.521888 150.396343 
L 369.256086 150.396343 
L 369.256086 150.396343 
L 369.058635 150.396343 
L 369.058635 150.396343 
L 368.696448 150.396343 
L 368.696448 150.396343 
L 368.520837 150.396343 
L 368.520837 150.396343 
L 368.286344 150.396343 
L 368.286344 150.396343 
L 368.06291 150.396343 
L 368.06291 150.396343 
L 367.710584 150.396343 
L 367.710584 150.396343 
L 367.53288 150.396343 
L 367.53288 150.396343 
L 367.329254 150.396343 
L 367.329254 153.828206 
L 364.404989 153.828206 
L 364.404989 153.977417 
L 362.41817 153.977417 
L 362.41817 153.977417 
L 358.444532 153.977417 
L 358.444532 154.126629 
L 356.457713 154.126629 
L 356.457713 154.27584 
L 355.464304 154.27584 
L 355.464304 154.425051 
L 352.98078 154.425051 
L 352.98078 154.872686 
L 351.987371 154.872686 
L 351.987371 154.872686 
L 351.490666 154.872686 
L 351.490666 155.171109 
L 350.993961 155.171109 
L 350.993961 156.514011 
L 348.510438 156.514011 
L 348.510438 156.961646 
L 346.026914 156.961646 
L 346.026914 157.110857 
L 345.033505 157.110857 
L 345.033505 157.260069 
L 340.066458 157.260069 
L 340.066458 157.707703 
L 339.569753 157.707703 
L 339.569753 158.155337 
L 339.073048 158.155337 
L 339.073048 158.45376 
L 338.576343 158.45376 
L 338.576343 158.602971 
L 337.086229 158.602971 
L 337.086229 158.752183 
L 335.09941 158.752183 
L 335.09941 158.752183 
L 334.602706 158.752183 
L 334.602706 158.901394 
L 334.106001 158.901394 
L 334.106001 159.050606 
L 333.112591 159.050606 
L 333.112591 159.199817 
L 331.622477 159.199817 
L 331.622477 159.349029 
L 327.152135 159.349029 
L 327.152135 159.49824 
L 326.158725 159.49824 
L 326.158725 159.796663 
L 325.662021 159.796663 
L 325.662021 160.095086 
L 324.668611 160.095086 
L 324.668611 160.54272 
L 323.178497 160.54272 
L 323.178497 160.691931 
L 322.681792 160.691931 
L 322.681792 160.691931 
L 316.224631 160.691931 
L 316.224631 160.841143 
L 313.244403 160.841143 
L 313.244403 160.990354 
L 311.257584 160.990354 
L 311.257584 161.288777 
L 310.264174 161.288777 
L 310.264174 161.288777 
L 308.77406 161.288777 
L 308.77406 161.5872 
L 307.780651 161.5872 
L 307.780651 161.5872 
L 303.310308 161.5872 
L 303.310308 161.885623 
L 302.316899 161.885623 
L 302.316899 162.034834 
L 301.820194 162.034834 
L 301.820194 162.333257 
L 301.323489 162.333257 
L 301.323489 162.333257 
L 300.33008 162.333257 
L 300.33008 162.333257 
L 299.833375 162.333257 
L 299.833375 162.780891 
L 299.33667 162.780891 
L 299.33667 162.780891 
L 290.395985 162.780891 
L 290.395985 162.930103 
L 289.899281 162.930103 
L 289.899281 163.079314 
L 287.912462 163.079314 
L 287.912462 163.228526 
L 279.965186 163.228526 
L 279.965186 163.377737 
L 278.475072 163.377737 
L 278.475072 163.526949 
L 276.984958 163.526949 
L 276.984958 163.974583 
L 275.494844 163.974583 
L 275.494844 164.72064 
L 274.998139 164.72064 
L 274.998139 165.019063 
L 274.501434 165.019063 
L 274.501434 165.168274 
L 274.00473 165.168274 
L 274.00473 165.168274 
L 273.508025 165.168274 
L 273.508025 165.317486 
L 270.031092 165.317486 
L 270.031092 165.317486 
L 268.540978 165.317486 
L 268.540978 165.914331 
L 267.050864 165.914331 
L 267.050864 166.063543 
L 266.554159 166.063543 
L 266.554159 166.511177 
L 266.057454 166.511177 
L 266.057454 166.660389 
L 264.56734 166.660389 
L 264.56734 166.8096 
L 264.070635 166.8096 
L 264.070635 167.108023 
L 263.077226 167.108023 
L 263.077226 167.108023 
L 261.090407 167.108023 
L 261.090407 167.406446 
L 254.633246 167.406446 
L 254.633246 167.406446 
L 253.639836 167.406446 
L 253.639836 167.555657 
L 253.143131 167.555657 
L 253.143131 167.704869 
L 252.646427 167.704869 
L 252.646427 167.85408 
L 252.149722 167.85408 
L 252.149722 168.003291 
L 251.653017 168.003291 
L 251.653017 168.152503 
L 251.156313 168.152503 
L 251.156313 168.450926 
L 250.659608 168.450926 
L 250.659608 169.495406 
L 250.162903 169.495406 
L 250.162903 170.092251 
L 249.169494 170.092251 
L 249.169494 170.539886 
L 245.195856 170.539886 
L 245.195856 170.689097 
L 244.699151 170.689097 
L 244.699151 170.838309 
L 244.202446 170.838309 
L 244.202446 171.136731 
L 243.705742 171.136731 
L 243.705742 171.584366 
L 243.209037 171.584366 
L 243.209037 172.181211 
L 242.712332 172.181211 
L 242.712332 172.927269 
L 241.718923 172.927269 
L 241.718923 173.374903 
L 240.228809 173.374903 
L 240.228809 173.524114 
L 239.732104 173.524114 
L 239.732104 173.822537 
L 237.24858 173.822537 
L 237.24858 173.971749 
L 232.778238 173.971749 
L 232.778238 174.12096 
L 231.784828 174.12096 
L 231.784828 174.270171 
L 231.288124 174.270171 
L 231.288124 174.419383 
L 230.791419 174.419383 
L 230.791419 174.568594 
L 230.294714 174.568594 
L 230.294714 174.867017 
L 229.301305 174.867017 
L 229.301305 175.463863 
L 227.811191 175.463863 
L 227.811191 175.613074 
L 227.314486 175.613074 
L 227.314486 175.762286 
L 225.824372 175.762286 
L 225.824372 176.060709 
L 221.850734 176.060709 
L 221.850734 176.20992 
L 221.354029 176.20992 
L 221.354029 176.359131 
L 220.857325 176.359131 
L 220.857325 176.359131 
L 219.863915 176.359131 
L 219.863915 176.508343 
L 218.870506 176.508343 
L 218.870506 176.657554 
L 217.877096 176.657554 
L 217.877096 177.2544 
L 217.380392 177.2544 
L 217.380392 177.851246 
L 216.883687 177.851246 
L 216.883687 178.149669 
L 216.386982 178.149669 
L 216.386982 178.448091 
L 215.890277 178.448091 
L 215.890277 178.746514 
L 214.896868 178.746514 
L 214.896868 179.044937 
L 213.903458 179.044937 
L 213.903458 179.194149 
L 208.936411 179.194149 
L 208.936411 179.492571 
L 208.439707 179.492571 
L 208.439707 179.940206 
L 206.949592 179.940206 
L 206.949592 180.089417 
L 206.452888 180.089417 
L 206.452888 180.537051 
L 205.956183 180.537051 
L 205.956183 180.686263 
L 204.466069 180.686263 
L 204.466069 181.133897 
L 203.969364 181.133897 
L 203.969364 181.283109 
L 202.975955 181.283109 
L 202.975955 181.43232 
L 198.008907 181.43232 
L 198.008907 182.029166 
L 197.512203 182.029166 
L 197.512203 182.029166 
L 197.015498 182.029166 
L 197.015498 182.4768 
L 196.518793 182.4768 
L 196.518793 182.924434 
L 196.022089 182.924434 
L 196.022089 183.073646 
L 195.028679 183.073646 
L 195.028679 183.670491 
L 194.531974 183.670491 
L 194.531974 183.819703 
L 193.04186 183.819703 
L 193.04186 184.118126 
L 192.545155 184.118126 
L 192.545155 185.759451 
L 191.551746 185.759451 
L 191.551746 186.057874 
L 191.055041 186.057874 
L 191.055041 186.207086 
L 190.061632 186.207086 
L 190.061632 186.803931 
L 189.564927 186.803931 
L 189.564927 186.953143 
L 189.068222 186.953143 
L 189.068222 187.102354 
L 186.087994 187.102354 
L 186.087994 187.400777 
L 185.094585 187.400777 
L 185.094585 187.848411 
L 184.59788 187.848411 
L 184.59788 188.445257 
L 184.101175 188.445257 
L 184.101175 189.340526 
L 183.604471 189.340526 
L 183.604471 189.937371 
L 183.107766 189.937371 
L 183.107766 190.83264 
L 182.611061 190.83264 
L 182.611061 192.026331 
L 181.617652 192.026331 
L 181.617652 192.175543 
L 179.630833 192.175543 
L 179.630833 192.324754 
L 179.134128 192.324754 
L 179.134128 192.623177 
L 177.644014 192.623177 
L 177.644014 192.772389 
L 175.657195 192.772389 
L 175.657195 193.070811 
L 175.16049 193.070811 
L 175.16049 193.220023 
L 174.663786 193.220023 
L 174.663786 193.369234 
L 173.670376 193.369234 
L 173.670376 193.816869 
L 173.173671 193.816869 
L 173.173671 194.264503 
L 172.676967 194.264503 
L 172.676967 194.861349 
L 172.180262 194.861349 
L 172.180262 195.607406 
L 171.186853 195.607406 
L 171.186853 195.905829 
L 170.193443 195.905829 
L 170.193443 196.05504 
L 169.200034 196.05504 
L 169.200034 196.204251 
L 168.703329 196.204251 
L 168.703329 196.502674 
L 168.206624 196.502674 
L 168.206624 196.801097 
L 167.709919 196.801097 
L 167.709919 196.950309 
L 167.213215 196.950309 
L 167.213215 197.09952 
L 166.71651 197.09952 
L 166.71651 197.397943 
L 166.219805 197.397943 
L 166.219805 197.547154 
L 165.723101 197.547154 
L 165.723101 197.696366 
L 161.749463 197.696366 
L 161.749463 197.845577 
L 161.252758 197.845577 
L 161.252758 198.144 
L 160.756053 198.144 
L 160.756053 198.293211 
L 160.259349 198.293211 
L 160.259349 198.442423 
L 159.762644 198.442423 
L 159.762644 198.591634 
L 159.265939 198.591634 
L 159.265939 199.337691 
L 158.27253 199.337691 
L 158.27253 199.486903 
L 157.775825 199.486903 
L 157.775825 199.934537 
L 156.782416 199.934537 
L 156.782416 200.23296 
L 155.789006 200.23296 
L 155.789006 200.979017 
L 154.795597 200.979017 
L 154.795597 201.575863 
L 152.808778 201.575863 
L 152.808778 201.874286 
L 150.821959 201.874286 
L 150.821959 202.023497 
L 149.82855 202.023497 
L 149.82855 202.32192 
L 149.331845 202.32192 
L 149.331845 202.620343 
L 148.83514 202.620343 
L 148.83514 203.067977 
L 148.338435 203.067977 
L 148.338435 203.3664 
L 147.841731 203.3664 
L 147.841731 203.814034 
L 147.345026 203.814034 
L 147.345026 203.963246 
L 146.351616 203.963246 
L 146.351616 204.261669 
L 145.854912 204.261669 
L 145.854912 204.560091 
L 145.358207 204.560091 
L 145.358207 205.156937 
L 144.861502 205.156937 
L 144.861502 205.45536 
L 144.364798 205.45536 
L 144.364798 205.753783 
L 143.868093 205.753783 
L 143.868093 205.902994 
L 143.371388 205.902994 
L 143.371388 206.649051 
L 142.874683 206.649051 
L 142.874683 206.798263 
L 142.377979 206.798263 
L 142.377979 207.096686 
L 138.404341 207.096686 
L 138.404341 207.991954 
L 137.907636 207.991954 
L 137.907636 208.141166 
L 135.920817 208.141166 
L 135.920817 209.036434 
L 134.430703 209.036434 
L 134.430703 209.334857 
L 133.933998 209.334857 
L 133.933998 209.931703 
L 132.940589 209.931703 
L 132.940589 210.080914 
L 132.443884 210.080914 
L 132.443884 210.230126 
L 131.450475 210.230126 
L 131.450475 210.379337 
L 123.006495 210.379337 
L 123.006495 210.528549 
L 121.019676 210.528549 
L 121.019676 210.67776 
L 120.522971 210.67776 
L 120.522971 210.976183 
L 120.026266 210.976183 
L 120.026266 211.125394 
L 119.529562 211.125394 
L 119.529562 211.274606 
L 118.536152 211.274606 
L 118.536152 211.573029 
L 114.06581 211.573029 
L 114.06581 212.319086 
L 113.569105 212.319086 
L 113.569105 213.065143 
L 113.0724 213.065143 
L 113.0724 213.214354 
L 112.575695 213.214354 
L 112.575695 213.363566 
L 112.078991 213.363566 
L 112.078991 213.512777 
L 111.582286 213.512777 
L 111.582286 213.661989 
L 111.085581 213.661989 
L 111.085581 214.109623 
L 110.588877 214.109623 
L 110.588877 214.408046 
L 110.092172 214.408046 
L 110.092172 214.85568 
L 109.595467 214.85568 
L 109.595467 215.303314 
L 109.098762 215.303314 
L 109.098762 215.750949 
L 108.602058 215.750949 
L 108.602058 216.049371 
L 107.608648 216.049371 
L 107.608648 216.795429 
L 107.111944 216.795429 
L 107.111944 216.94464 
L 106.615239 216.94464 
L 106.615239 217.093851 
L 105.125125 217.093851 
L 105.125125 217.243063 
L 102.144896 217.243063 
L 102.144896 217.690697 
L 101.648192 217.690697 
L 101.648192 217.98912 
L 101.151487 217.98912 
L 101.151487 218.138331 
L 100.654782 218.138331 
L 100.654782 219.182811 
L 100.158077 219.182811 
L 100.158077 219.481234 
L 99.661373 219.481234 
L 99.661373 220.07808 
L 99.164668 220.07808 
L 99.164668 220.525714 
L 98.667963 220.525714 
L 98.667963 221.420983 
L 98.171259 221.420983 
L 98.171259 221.868617 
L 97.674554 221.868617 
L 97.674554 222.614674 
L 97.177849 222.614674 
L 97.177849 222.763886 
L 96.681144 222.763886 
L 96.681144 223.21152 
L 96.18444 223.21152 
L 96.18444 223.957577 
L 95.687735 223.957577 
L 95.687735 224.256 
L 95.19103 224.256 
L 95.19103 224.554423 
L 94.694326 224.554423 
L 94.694326 224.703634 
L 94.197621 224.703634 
L 94.197621 225.151269 
L 93.700916 225.151269 
L 93.700916 225.30048 
L 90.223983 225.30048 
L 90.223983 225.449691 
L 89.727278 225.449691 
L 89.727278 225.748114 
L 89.230574 225.748114 
L 89.230574 226.34496 
L 88.237164 226.34496 
L 88.237164 226.941806 
L 87.243755 226.941806 
L 87.243755 227.38944 
L 86.74705 227.38944 
L 86.74705 227.986286 
L 86.250345 227.986286 
L 86.250345 228.284709 
L 85.753641 228.284709 
L 85.753641 228.881554 
L 85.256936 228.881554 
L 85.256936 230.373669 
L 84.760231 230.373669 
L 84.760231 231.268937 
L 84.263526 231.268937 
L 84.263526 233.208686 
L 83.766822 233.208686 
L 83.766822 234.253166 
L 83.270117 234.253166 
L 83.270117 235.446857 
L 82.773412 235.446857 
L 82.773412 236.192914 
L 81.780003 236.192914 
L 81.780003 236.938971 
L 81.283298 236.938971 
L 81.283298 237.088183 
L 80.786593 237.088183 
L 80.786593 237.237394 
L 80.289889 237.237394 
L 80.289889 237.386606 
L 79.793184 237.386606 
L 79.793184 237.685029 
L 79.296479 237.685029 
L 79.296479 237.83424 
L 78.799774 237.83424 
L 78.799774 237.983451 
L 78.30307 237.983451 
L 78.30307 239.177143 
L 77.806365 239.177143 
L 77.806365 241.564526 
L 77.30966 241.564526 
L 77.30966 245.593234 
L 76.812956 245.593234 
L 76.812956 248.428251 
L 76.316251 248.428251 
L 76.316251 252.158537 
L 75.819546 252.158537 
L 75.819546 257.380937 
L 75.322841 257.380937 
L 75.322841 266.0352 
L 74.826137 266.0352 
L 74.826137 272.749714 
L 74.329432 272.749714 
L 74.329432 275.43552 
L 73.832727 275.43552 
L 73.832727 276.48 
L 73.832727 276.48 
z
" clip-path="url(#peeaccb5bb2)" style="fill: #43b5a0; fill-opacity: 0.8"/>
   </g>
   <g id="matplotlib.axis_1">
    <g id="xtick_1">
     <g id="line2d_1">
      <defs>
       <path id="m7530119dec" d="M 0 0 
L 0 3.5 
" style="stroke: #ffffff; stroke-width: 0.8"/>
      </defs>
      <g>
       <use xlink:href="#m7530119dec" x="102.641601" y="276.48" style="fill: #ffffff; stroke: #ffffff; stroke-width: 0.8"/>
      </g>
     </g>
     <g id="text_1">
      <!-- Fri 12/24 -->
      <g style="fill: #ffffff" transform="translate(63.572417 312.01669)rotate(-30)scale(0.1 -0.1)">
       <defs>
        <path id="DejaVuSans-46" d="M 628 4666 
L 3309 4666 
L 3309 4134 
L 1259 4134 
L 1259 2759 
L 3109 2759 
L 3109 2228 
L 1259 2228 
L 1259 0 
L 628 0 
L 628 4666 
z
" transform="scale(0.015625)"/>
        <path id="DejaVuSans-72" d="M 2631 2963 
Q 2534 3019 2420 3045 
Q 2306 3072 2169 3072 
Q 1681 3072 1420 2755 
Q 1159 2438 1159 1844 
L 1159 0 
L 581 0 
L 581 3500 
L 1159 3500 
L 1159 2956 
Q 1341 3275 1631 3429 
Q 1922 3584 2338 3584 
Q 2397 3584 2469 3576 
Q 2541 3569 2628 3553 
L 2631 2963 
z
" transform="scale(0.015625)"/>
        <path id="DejaVuSans-69" d="M 603 3500 
L 1178 3500 
L 1178 0 
L 603 0 
L 603 3500 
z
M 603 4863 
L 1178 4863 
L 1178 4134 
L 603 4134 
L 603 4863 
z
" transform="scale(0.015625)"/>
        <path id="DejaVuSans-20" transform="scale(0.015625)"/>
        <path id="DejaVuSans-31" d="M 794 531 
L 1825 531 
L 1825 4091 
L 703 3866 
L 703 4441 
L 1819 4666 
L 2450 4666 
L 2450 531 
L 3481 531 
L 3481 0 
L 794 0 
L 794 531 
z
" transform="scale(0.015625)"/>
        <path id="DejaVuSans-32" d="M 1228 531 
L 3431 531 
L 3431 0 
L 469 0 
L 469 531 
Q 828 903 1448 1529 
Q 2069 2156 2228 2338 
Q 2531 2678 2651 2914 
Q 2772 3150 2772 3378 
Q 2772 3750 2511 3984 
Q 2250 4219 1831 4219 
Q 1534 4219 1204 4116 
Q 875 4013 500 3803 
L 500 4441 
Q 881 4594 1212 4672 
Q 1544 4750 1819 4750 
Q 2544 4750 2975 4387 
Q 3406 4025 3406 3419 
Q 3406 3131 3298 2873 
Q 3191 2616 2906 2266 
Q 2828 2175 2409 1742 
Q 1991 1309 1228 531 
z
" transform="scale(0.015625)"/>
        <path id="DejaVuSans-2f" d="M 1625 4666 
L 2156 4666 
L 531 -594 
L 0 -594 
L 1625 4666 
z
" transform="scale(0.015625)"/>
        <path id="DejaVuSans-34" d="M 2419 4116 
L 825 1625 
L 2419 1625 
L 2419 4116 
z
M 2253 4666 
L 3047 4666 
L 3047 1625 
L 3713 1625 
L 3713 1100 
L 3047 1100 
L 3047 0 
L 2419 0 
L 2419 1100 
L 313 1100 
L 313 1709 
L 2253 4666 
z
" transform="scale(0.015625)"/>
       </defs>
       <use xlink:href="#DejaVuSans-46"/>
       <use xlink:href="#DejaVuSans-72" x="50.269531"/>
       <use xlink:href="#DejaVuSans-69" x="91.382812"/>
       <use xlink:href="#DejaVuSans-20" x="119.166016"/>
       <use xlink:href="#DejaVuSans-31" x="150.953125"/>
       <use xlink:href="#DejaVuSans-32" x="214.576172"/>
       <use xlink:href="#DejaVuSans-2f" x="278.199219"/>
       <use xlink:href="#DejaVuSans-32" x="311.890625"/>
       <use xlink:href="#DejaVuSans-34" x="375.513672"/>
      </g>
     </g>
    </g>
    <g id="xtick_2">
     <g id="line2d_2">
      <g>
       <use xlink:href="#m7530119dec" x="138.404341" y="276.48" style="fill: #ffffff; stroke: #ffffff; stroke-width: 0.8"/>
      </g>
     </g>
     <g id="text_2">
      <!-- Mon 12/27 -->
      <g style="fill: #ffffff" transform="translate(91.394786 316.601065)rotate(-30)scale(0.1 -0.1)">
       <defs>
        <path id="DejaVuSans-4d" d="M 628 4666 
L 1569 4666 
L 2759 1491 
L 3956 4666 
L 4897 4666 
L 4897 0 
L 4281 0 
L 4281 4097 
L 3078 897 
L 2444 897 
L 1241 4097 
L 1241 0 
L 628 0 
L 628 4666 
z
" transform="scale(0.015625)"/>
        <path id="DejaVuSans-6f" d="M 1959 3097 
Q 1497 3097 1228 2736 
Q 959 2375 959 1747 
Q 959 1119 1226 758 
Q 1494 397 1959 397 
Q 2419 397 2687 759 
Q 2956 1122 2956 1747 
Q 2956 2369 2687 2733 
Q 2419 3097 1959 3097 
z
M 1959 3584 
Q 2709 3584 3137 3096 
Q 3566 2609 3566 1747 
Q 3566 888 3137 398 
Q 2709 -91 1959 -91 
Q 1206 -91 779 398 
Q 353 888 353 1747 
Q 353 2609 779 3096 
Q 1206 3584 1959 3584 
z
" transform="scale(0.015625)"/>
        <path id="DejaVuSans-6e" d="M 3513 2113 
L 3513 0 
L 2938 0 
L 2938 2094 
Q 2938 2591 2744 2837 
Q 2550 3084 2163 3084 
Q 1697 3084 1428 2787 
Q 1159 2491 1159 1978 
L 1159 0 
L 581 0 
L 581 3500 
L 1159 3500 
L 1159 2956 
Q 1366 3272 1645 3428 
Q 1925 3584 2291 3584 
Q 2894 3584 3203 3211 
Q 3513 2838 3513 2113 
z
" transform="scale(0.015625)"/>
        <path id="DejaVuSans-37" d="M 525 4666 
L 3525 4666 
L 3525 4397 
L 1831 0 
L 1172 0 
L 2766 4134 
L 525 4134 
L 525 4666 
z
" transform="scale(0.015625)"/>
       </defs>
       <use xlink:href="#DejaVuSans-4d"/>
       <use xlink:href="#DejaVuSans-6f" x="86.279297"/>
       <use xlink:href="#DejaVuSans-6e" x="147.460938"/>
       <use xlink:href="#DejaVuSans-20" x="210.839844"/>
       <use xlink:href="#DejaVuSans-31" x="242.626953"/>
       <use xlink:href="#DejaVuSans-32" x="306.25"/>
       <use xlink:href="#DejaVuSans-2f" x="369.873047"/>
       <use xlink:href="#DejaVuSans-32" x="403.564453"/>
       <use xlink:href="#DejaVuSans-37" x="467.1875"/>
      </g>
     </g>
    </g>
    <g id="xtick_3">
     <g id="line2d_3">
      <g>
       <use xlink:href="#m7530119dec" x="186.087994" y="276.48" style="fill: #ffffff; stroke: #ffffff; stroke-width: 0.8"/>
      </g>
     </g>
     <g id="text_3">
      <!-- Fri 12/31 -->
      <g style="fill: #ffffff" transform="translate(147.01881 312.01669)rotate(-30)scale(0.1 -0.1)">
       <defs>
        <path id="DejaVuSans-33" d="M 2597 2516 
Q 3050 2419 3304 2112 
Q 3559 1806 3559 1356 
Q 3559 666 3084 287 
Q 2609 -91 1734 -91 
Q 1441 -91 1130 -33 
Q 819 25 488 141 
L 488 750 
Q 750 597 1062 519 
Q 1375 441 1716 441 
Q 2309 441 2620 675 
Q 2931 909 2931 1356 
Q 2931 1769 2642 2001 
Q 2353 2234 1838 2234 
L 1294 2234 
L 1294 2753 
L 1863 2753 
Q 2328 2753 2575 2939 
Q 2822 3125 2822 3475 
Q 2822 3834 2567 4026 
Q 2313 4219 1838 4219 
Q 1578 4219 1281 4162 
Q 984 4106 628 3988 
L 628 4550 
Q 988 4650 1302 4700 
Q 1616 4750 1894 4750 
Q 2613 4750 3031 4423 
Q 3450 4097 3450 3541 
Q 3450 3153 3228 2886 
Q 3006 2619 2597 2516 
z
" transform="scale(0.015625)"/>
       </defs>
       <use xlink:href="#DejaVuSans-46"/>
       <use xlink:href="#DejaVuSans-72" x="50.269531"/>
       <use xlink:href="#DejaVuSans-69" x="91.382812"/>
       <use xlink:href="#DejaVuSans-20" x="119.166016"/>
       <use xlink:href="#DejaVuSans-31" x="150.953125"/>
       <use xlink:href="#DejaVuSans-32" x="214.576172"/>
       <use xlink:href="#DejaVuSans-2f" x="278.199219"/>
       <use xlink:href="#DejaVuSans-33" x="311.890625"/>
       <use xlink:href="#DejaVuSans-31" x="375.513672"/>
      </g>
     </g>
    </g>
    <g id="xtick_4">
     <g id="line2d_4">
      <g>
       <use xlink:href="#m7530119dec" x="221.850734" y="276.48" style="fill: #ffffff; stroke: #ffffff; stroke-width: 0.8"/>
      </g>
     </g>
     <g id="text_4">
      <!-- Mon 01/03 -->
      <g style="fill: #ffffff" transform="translate(174.841179 316.601065)rotate(-30)scale(0.1 -0.1)">
       <defs>
        <path id="DejaVuSans-30" d="M 2034 4250 
Q 1547 4250 1301 3770 
Q 1056 3291 1056 2328 
Q 1056 1369 1301 889 
Q 1547 409 2034 409 
Q 2525 409 2770 889 
Q 3016 1369 3016 2328 
Q 3016 3291 2770 3770 
Q 2525 4250 2034 4250 
z
M 2034 4750 
Q 2819 4750 3233 4129 
Q 3647 3509 3647 2328 
Q 3647 1150 3233 529 
Q 2819 -91 2034 -91 
Q 1250 -91 836 529 
Q 422 1150 422 2328 
Q 422 3509 836 4129 
Q 1250 4750 2034 4750 
z
" transform="scale(0.015625)"/>
       </defs>
       <use xlink:href="#DejaVuSans-4d"/>
       <use xlink:href="#DejaVuSans-6f" x="86.279297"/>
       <use xlink:href="#DejaVuSans-6e" x="147.460938"/>
       <use xlink:href="#DejaVuSans-20" x="210.839844"/>
       <use xlink:href="#DejaVuSans-30" x="242.626953"/>
       <use xlink:href="#DejaVuSans-31" x="306.25"/>
       <use xlink:href="#DejaVuSans-2f" x="369.873047"/>
       <use xlink:href="#DejaVuSans-30" x="403.564453"/>
       <use xlink:href="#DejaVuSans-33" x="467.1875"/>
      </g>
     </g>
    </g>
    <g id="xtick_5">
     <g id="line2d_5">
      <g>
       <use xlink:href="#m7530119dec" x="269.534387" y="276.48" style="fill: #ffffff; stroke: #ffffff; stroke-width: 0.8"/>
      </g>
     </g>
     <g id="text_5">
      <!-- Fri 01/07 -->
      <g style="fill: #ffffff" transform="translate(230.465203 312.01669)rotate(-30)scale(0.1 -0.1)">
       <use xlink:href="#DejaVuSans-46"/>
       <use xlink:href="#DejaVuSans-72" x="50.269531"/>
       <use xlink:href="#DejaVuSans-69" x="91.382812"/>
       <use xlink:href="#DejaVuSans-20" x="119.166016"/>
       <use xlink:href="#DejaVuSans-30" x="150.953125"/>
       <use xlink:href="#DejaVuSans-31" x="214.576172"/>
       <use xlink:href="#DejaVuSans-2f" x="278.199219"/>
       <use xlink:href="#DejaVuSans-30" x="311.890625"/>
       <use xlink:href="#DejaVuSans-37" x="375.513672"/>
      </g>
     </g>
    </g>
    <g id="xtick_6">
     <g id="line2d_6">
      <g>
       <use xlink:href="#m7530119dec" x="305.297127" y="276.48" style="fill: #ffffff; stroke: #ffffff; stroke-width: 0.8"/>
      </g>
     </g>
     <g id="text_6">
      <!-- Mon 01/10 -->
      <g style="fill: #ffffff" transform="translate(258.287572 316.601065)rotate(-30)scale(0.1 -0.1)">
       <use xlink:href="#DejaVuSans-4d"/>
       <use xlink:href="#DejaVuSans-6f" x="86.279297"/>
       <use xlink:href="#DejaVuSans-6e" x="147.460938"/>
       <use xlink:href="#DejaVuSans-20" x="210.839844"/>
       <use xlink:href="#DejaVuSans-30" x="242.626953"/>
       <use xlink:href="#DejaVuSans-31" x="306.25"/>
       <use xlink:href="#DejaVuSans-2f" x="369.873047"/>
       <use xlink:href="#DejaVuSans-31" x="403.564453"/>
       <use xlink:href="#DejaVuSans-30" x="467.1875"/>
      </g>
     </g>
    </g>
    <g id="xtick_7">
     <g id="line2d_7">
      <g>
       <use xlink:href="#m7530119dec" x="352.98078" y="276.48" style="fill: #ffffff; stroke: #ffffff; stroke-width: 0.8"/>
      </g>
     </g>
     <g id="text_7">
      <!-- Fri 01/14 -->
      <g style="fill: #ffffff" transform="translate(313.911596 312.01669)rotate(-30)scale(0.1 -0.1)">
       <use xlink:href="#DejaVuSans-46"/>
       <use xlink:href="#DejaVuSans-72" x="50.269531"/>
       <use xlink:href="#DejaVuSans-69" x="91.382812"/>
       <use xlink:href="#DejaVuSans-20" x="119.166016"/>
       <use xlink:href="#DejaVuSans-30" x="150.953125"/>
       <use xlink:href="#DejaVuSans-31" x="214.576172"/>
       <use xlink:href="#DejaVuSans-2f" x="278.199219"/>
       <use xlink:href="#DejaVuSans-31" x="311.890625"/>
       <use xlink:href="#DejaVuSans-34" x="375.513672"/>
      </g>
     </g>
    </g>
    <g id="xtick_8">
     <g id="line2d_8">
      <g>
       <use xlink:href="#m7530119dec" x="388.74352" y="276.48" style="fill: #ffffff; stroke: #ffffff; stroke-width: 0.8"/>
      </g>
     </g>
     <g id="text_8">
      <!-- Mon 01/17 -->
      <g style="fill: #ffffff" transform="translate(341.733965 316.601065)rotate(-30)scale(0.1 -0.1)">
       <use xlink:href="#DejaVuSans-4d"/>
       <use xlink:href="#DejaVuSans-6f" x="86.279297"/>
       <use xlink:href="#DejaVuSans-6e" x="147.460938"/>
       <use xlink:href="#DejaVuSans-20" x="210.839844"/>
       <use xlink:href="#DejaVuSans-30" x="242.626953"/>
       <use xlink:href="#DejaVuSans-31" x="306.25"/>
       <use xlink:href="#DejaVuSans-2f" x="369.873047"/>
       <use xlink:href="#DejaVuSans-31" x="403.564453"/>
       <use xlink:href="#DejaVuSans-37" x="467.1875"/>
      </g>
     </g>
    </g>
    <g id="xtick_9">
     <g id="line2d_9">
      <defs>
       <path id="mb13198cca3" d="M 0 0 
L 0 2 
" style="stroke: #ffffff; stroke-width: 0.6"/>
      </defs>
      <g>
       <use xlink:href="#mb13198cca3" x="66.878861" y="276.48" style="fill: #ffffff; stroke: #ffffff; stroke-width: 0.6"/>
      </g>
     </g>
    </g>
    <g id="xtick_10">
     <g id="line2d_10">
      <g>
       <use xlink:href="#mb13198cca3" x="78.799774" y="276.48" style="fill: #ffffff; stroke: #ffffff; stroke-width: 0.6"/>
      </g>
     </g>
    </g>
    <g id="xtick_11">
     <g id="line2d_11">
      <g>
       <use xlink:href="#mb13198cca3" x="90.720688" y="276.48" style="fill: #ffffff; stroke: #ffffff; stroke-width: 0.6"/>
      </g>
     </g>
    </g>
    <g id="xtick_12">
     <g id="line2d_12">
      <g>
       <use xlink:href="#mb13198cca3" x="114.562514" y="276.48" style="fill: #ffffff; stroke: #ffffff; stroke-width: 0.6"/>
      </g>
     </g>
    </g>
    <g id="xtick_13">
     <g id="line2d_13">
      <g>
       <use xlink:href="#mb13198cca3" x="126.483428" y="276.48" style="fill: #ffffff; stroke: #ffffff; stroke-width: 0.6"/>
      </g>
     </g>
    </g>
    <g id="xtick_14">
     <g id="line2d_14">
      <g>
       <use xlink:href="#mb13198cca3" x="150.325254" y="276.48" style="fill: #ffffff; stroke: #ffffff; stroke-width: 0.6"/>
      </g>
     </g>
    </g>
    <g id="xtick_15">
     <g id="line2d_15">
      <g>
       <use xlink:href="#mb13198cca3" x="162.246168" y="276.48" style="fill: #ffffff; stroke: #ffffff; stroke-width: 0.6"/>
      </g>
     </g>
    </g>
    <g id="xtick_16">
     <g id="line2d_16">
      <g>
       <use xlink:href="#mb13198cca3" x="174.167081" y="276.48" style="fill: #ffffff; stroke: #ffffff; stroke-width: 0.6"/>
      </g>
     </g>
    </g>
    <g id="xtick_17">
     <g id="line2d_17">
      <g>
       <use xlink:href="#mb13198cca3" x="198.008907" y="276.48" style="fill: #ffffff; stroke: #ffffff; stroke-width: 0.6"/>
      </g>
     </g>
    </g>
    <g id="xtick_18">
     <g id="line2d_18">
      <g>
       <use xlink:href="#mb13198cca3" x="209.929821" y="276.48" style="fill: #ffffff; stroke: #ffffff; stroke-width: 0.6"/>
      </g>
     </g>
    </g>
    <g id="xtick_19">
     <g id="line2d_19">
      <g>
       <use xlink:href="#mb13198cca3" x="233.771647" y="276.48" style="fill: #ffffff; stroke: #ffffff; stroke-width: 0.6"/>
      </g>
     </g>
    </g>
    <g id="xtick_20">
     <g id="line2d_20">
      <g>
       <use xlink:href="#mb13198cca3" x="245.692561" y="276.48" style="fill: #ffffff; stroke: #ffffff; stroke-width: 0.6"/>
      </g>
     </g>
    </g>
    <g id="xtick_21">
     <g id="line2d_21">
      <g>
       <use xlink:href="#mb13198cca3" x="257.613474" y="276.48" style="fill: #ffffff; stroke: #ffffff; stroke-width: 0.6"/>
      </g>
     </g>
    </g>
    <g id="xtick_22">
     <g id="line2d_22">
      <g>
       <use xlink:href="#mb13198cca3" x="281.4553" y="276.48" style="fill: #ffffff; stroke: #ffffff; stroke-width: 0.6"/>
      </g>
     </g>
    </g>
    <g id="xtick_23">
     <g id="line2d_23">
      <g>
       <use xlink:href="#mb13198cca3" x="293.376214" y="276.48" style="fill: #ffffff; stroke: #ffffff; stroke-width: 0.6"/>
      </g>
     </g>
    </g>
    <g id="xtick_24">
     <g id="line2d_24">
      <g>
       <use xlink:href="#mb13198cca3" x="317.21804" y="276.48" style="fill: #ffffff; stroke: #ffffff; stroke-width: 0.6"/>
      </g>
     </g>
    </g>
    <g id="xtick_25">
     <g id="line2d_25">
      <g>
       <use xlink:href="#mb13198cca3" x="329.138954" y="276.48" style="fill: #ffffff; stroke: #ffffff; stroke-width: 0.6"/>
      </g>
     </g>
    </g>
    <g id="xtick_26">
     <g id="line2d_26">
      <g>
       <use xlink:href="#mb13198cca3" x="341.059867" y="276.48" style="fill: #ffffff; stroke: #ffffff; stroke-width: 0.6"/>
      </g>
     </g>
    </g>
    <g id="xtick_27">
     <g id="line2d_27">
      <g>
       <use xlink:href="#mb13198cca3" x="364.901694" y="276.48" style="fill: #ffffff; stroke: #ffffff; stroke-width: 0.6"/>
      </g>
     </g>
    </g>
    <g id="xtick_28">
     <g id="line2d_28">
      <g>
       <use xlink:href="#mb13198cca3" x="376.822607" y="276.48" style="fill: #ffffff; stroke: #ffffff; stroke-width: 0.6"/>
      </g>
     </g>
    </g>
    <g id="xtick_29">
     <g id="line2d_29">
      <g>
       <use xlink:href="#mb13198cca3" x="400.664433" y="276.48" style="fill: #ffffff; stroke: #ffffff; stroke-width: 0.6"/>
      </g>
     </g>
    </g>
    <g id="xtick_30">
     <g id="line2d_30">
      <g>
       <use xlink:href="#mb13198cca3" x="412.585347" y="276.48" style="fill: #ffffff; stroke: #ffffff; stroke-width: 0.6"/>
      </g>
     </g>
    </g>
   </g>
   <g id="matplotlib.axis_2">
    <g id="ytick_1">
     <g id="line2d_31">
      <defs>
       <path id="mc7b4caf420" d="M 0 0 
L -3.5 0 
" style="stroke: #ffffff; stroke-width: 0.8"/>
      </defs>
      <g>
       <use xlink:href="#mc7b4caf420" x="57.6" y="276.48" style="fill: #ffffff; stroke: #ffffff; stroke-width: 0.8"/>
      </g>
     </g>
     <g id="text_9">
      <!-- 0 -->
      <g style="fill: #ffffff" transform="translate(44.2375 280.279219)scale(0.1 -0.1)">
       <use xlink:href="#DejaVuSans-30"/>
      </g>
     </g>
    </g>
    <g id="ytick_2">
     <g id="line2d_32">
      <g>
       <use xlink:href="#mc7b4caf420" x="57.6" y="246.637714" style="fill: #ffffff; stroke: #ffffff; stroke-width: 0.8"/>
      </g>
     </g>
     <g id="text_10">
      <!-- 200 -->
      <g style="fill: #ffffff" transform="translate(31.5125 250.436933)scale(0.1 -0.1)">
       <use xlink:href="#DejaVuSans-32"/>
       <use xlink:href="#DejaVuSans-30" x="63.623047"/>
       <use xlink:href="#DejaVuSans-30" x="127.246094"/>
      </g>
     </g>
    </g>
    <g id="ytick_3">
     <g id="line2d_33">
      <g>
       <use xlink:href="#mc7b4caf420" x="57.6" y="216.795429" style="fill: #ffffff; stroke: #ffffff; stroke-width: 0.8"/>
      </g>
     </g>
     <g id="text_11">
      <!-- 400 -->
      <g style="fill: #ffffff" transform="translate(31.5125 220.594647)scale(0.1 -0.1)">
       <use xlink:href="#DejaVuSans-34"/>
       <use xlink:href="#DejaVuSans-30" x="63.623047"/>
       <use xlink:href="#DejaVuSans-30" x="127.246094"/>
      </g>
     </g>
    </g>
    <g id="ytick_4">
     <g id="line2d_34">
      <g>
       <use xlink:href="#mc7b4caf420" x="57.6" y="186.953143" style="fill: #ffffff; stroke: #ffffff; stroke-width: 0.8"/>
      </g>
     </g>
     <g id="text_12">
      <!-- 600 -->
      <g style="fill: #ffffff" transform="translate(31.5125 190.752362)scale(0.1 -0.1)">
       <defs>
        <path id="DejaVuSans-36" d="M 2113 2584 
Q 1688 2584 1439 2293 
Q 1191 2003 1191 1497 
Q 1191 994 1439 701 
Q 1688 409 2113 409 
Q 2538 409 2786 701 
Q 3034 994 3034 1497 
Q 3034 2003 2786 2293 
Q 2538 2584 2113 2584 
z
M 3366 4563 
L 3366 3988 
Q 3128 4100 2886 4159 
Q 2644 4219 2406 4219 
Q 1781 4219 1451 3797 
Q 1122 3375 1075 2522 
Q 1259 2794 1537 2939 
Q 1816 3084 2150 3084 
Q 2853 3084 3261 2657 
Q 3669 2231 3669 1497 
Q 3669 778 3244 343 
Q 2819 -91 2113 -91 
Q 1303 -91 875 529 
Q 447 1150 447 2328 
Q 447 3434 972 4092 
Q 1497 4750 2381 4750 
Q 2619 4750 2861 4703 
Q 3103 4656 3366 4563 
z
" transform="scale(0.015625)"/>
       </defs>
       <use xlink:href="#DejaVuSans-36"/>
       <use xlink:href="#DejaVuSans-30" x="63.623047"/>
       <use xlink:href="#DejaVuSans-30" x="127.246094"/>
      </g>
     </g>
    </g>
    <g id="ytick_5">
     <g id="line2d_35">
      <g>
       <use xlink:href="#mc7b4caf420" x="57.6" y="157.110857" style="fill: #ffffff; stroke: #ffffff; stroke-width: 0.8"/>
      </g>
     </g>
     <g id="text_13">
      <!-- 800 -->
      <g style="fill: #ffffff" transform="translate(31.5125 160.910076)scale(0.1 -0.1)">
       <defs>
        <path id="DejaVuSans-38" d="M 2034 2216 
Q 1584 2216 1326 1975 
Q 1069 1734 1069 1313 
Q 1069 891 1326 650 
Q 1584 409 2034 409 
Q 2484 409 2743 651 
Q 3003 894 3003 1313 
Q 3003 1734 2745 1975 
Q 2488 2216 2034 2216 
z
M 1403 2484 
Q 997 2584 770 2862 
Q 544 3141 544 3541 
Q 544 4100 942 4425 
Q 1341 4750 2034 4750 
Q 2731 4750 3128 4425 
Q 3525 4100 3525 3541 
Q 3525 3141 3298 2862 
Q 3072 2584 2669 2484 
Q 3125 2378 3379 2068 
Q 3634 1759 3634 1313 
Q 3634 634 3220 271 
Q 2806 -91 2034 -91 
Q 1263 -91 848 271 
Q 434 634 434 1313 
Q 434 1759 690 2068 
Q 947 2378 1403 2484 
z
M 1172 3481 
Q 1172 3119 1398 2916 
Q 1625 2713 2034 2713 
Q 2441 2713 2670 2916 
Q 2900 3119 2900 3481 
Q 2900 3844 2670 4047 
Q 2441 4250 2034 4250 
Q 1625 4250 1398 4047 
Q 1172 3844 1172 3481 
z
" transform="scale(0.015625)"/>
       </defs>
       <use xlink:href="#DejaVuSans-38"/>
       <use xlink:href="#DejaVuSans-30" x="63.623047"/>
       <use xlink:href="#DejaVuSans-30" x="127.246094"/>
      </g>
     </g>
    </g>
    <g id="ytick_6">
     <g id="line2d_36">
      <g>
       <use xlink:href="#mc7b4caf420" x="57.6" y="127.268571" style="fill: #ffffff; stroke: #ffffff; stroke-width: 0.8"/>
      </g>
     </g>
     <g id="text_14">
      <!-- 1000 -->
      <g style="fill: #ffffff" transform="translate(25.15 131.06779)scale(0.1 -0.1)">
       <use xlink:href="#DejaVuSans-31"/>
       <use xlink:href="#DejaVuSans-30" x="63.623047"/>
       <use xlink:href="#DejaVuSans-30" x="127.246094"/>
       <use xlink:href="#DejaVuSans-30" x="190.869141"/>
      </g>
     </g>
    </g>
    <g id="ytick_7">
     <g id="line2d_37">
      <g>
       <use xlink:href="#mc7b4caf420" x="57.6" y="97.426286" style="fill: #ffffff; stroke: #ffffff; stroke-width: 0.8"/>
      </g>
     </g>
     <g id="text_15">
      <!-- 1200 -->
      <g style="fill: #ffffff" transform="translate(25.15 101.225504)scale(0.1 -0.1)">
       <use xlink:href="#DejaVuSans-31"/>
       <use xlink:href="#DejaVuSans-32" x="63.623047"/>
       <use xlink:href="#DejaVuSans-30" x="127.246094"/>
       <use xlink:href="#DejaVuSans-30" x="190.869141"/>
      </g>
     </g>
    </g>
    <g id="ytick_8">
     <g id="line2d_38">
      <g>
       <use xlink:href="#mc7b4caf420" x="57.6" y="67.584" style="fill: #ffffff; stroke: #ffffff; stroke-width: 0.8"/>
      </g>
     </g>
     <g id="text_16">
      <!-- 1400 -->
      <g style="fill: #ffffff" transform="translate(25.15 71.383219)scale(0.1 -0.1)">
       <use xlink:href="#DejaVuSans-31"/>
       <use xlink:href="#DejaVuSans-34" x="63.623047"/>
       <use xlink:href="#DejaVuSans-30" x="127.246094"/>
       <use xlink:href="#DejaVuSans-30" x="190.869141"/>
      </g>
     </g>
    </g>
    <g id="text_17">
     <!-- Number of tickets sold -->
     <g style="fill: #ffffff" transform="translate(19.070312 215.329906)rotate(-90)scale(0.1 -0.1)">
      <defs>
       <path id="DejaVuSans-4e" d="M 628 4666 
L 1478 4666 
L 3547 763 
L 3547 4666 
L 4159 4666 
L 4159 0 
L 3309 0 
L 1241 3903 
L 1241 0 
L 628 0 
L 628 4666 
z
" transform="scale(0.015625)"/>
       <path id="DejaVuSans-75" d="M 544 1381 
L 544 3500 
L 1119 3500 
L 1119 1403 
Q 1119 906 1312 657 
Q 1506 409 1894 409 
Q 2359 409 2629 706 
Q 2900 1003 2900 1516 
L 2900 3500 
L 3475 3500 
L 3475 0 
L 2900 0 
L 2900 538 
Q 2691 219 2414 64 
Q 2138 -91 1772 -91 
Q 1169 -91 856 284 
Q 544 659 544 1381 
z
M 1991 3584 
L 1991 3584 
z
" transform="scale(0.015625)"/>
       <path id="DejaVuSans-6d" d="M 3328 2828 
Q 3544 3216 3844 3400 
Q 4144 3584 4550 3584 
Q 5097 3584 5394 3201 
Q 5691 2819 5691 2113 
L 5691 0 
L 5113 0 
L 5113 2094 
Q 5113 2597 4934 2840 
Q 4756 3084 4391 3084 
Q 3944 3084 3684 2787 
Q 3425 2491 3425 1978 
L 3425 0 
L 2847 0 
L 2847 2094 
Q 2847 2600 2669 2842 
Q 2491 3084 2119 3084 
Q 1678 3084 1418 2786 
Q 1159 2488 1159 1978 
L 1159 0 
L 581 0 
L 581 3500 
L 1159 3500 
L 1159 2956 
Q 1356 3278 1631 3431 
Q 1906 3584 2284 3584 
Q 2666 3584 2933 3390 
Q 3200 3197 3328 2828 
z
" transform="scale(0.015625)"/>
       <path id="DejaVuSans-62" d="M 3116 1747 
Q 3116 2381 2855 2742 
Q 2594 3103 2138 3103 
Q 1681 3103 1420 2742 
Q 1159 2381 1159 1747 
Q 1159 1113 1420 752 
Q 1681 391 2138 391 
Q 2594 391 2855 752 
Q 3116 1113 3116 1747 
z
M 1159 2969 
Q 1341 3281 1617 3432 
Q 1894 3584 2278 3584 
Q 2916 3584 3314 3078 
Q 3713 2572 3713 1747 
Q 3713 922 3314 415 
Q 2916 -91 2278 -91 
Q 1894 -91 1617 61 
Q 1341 213 1159 525 
L 1159 0 
L 581 0 
L 581 4863 
L 1159 4863 
L 1159 2969 
z
" transform="scale(0.015625)"/>
       <path id="DejaVuSans-65" d="M 3597 1894 
L 3597 1613 
L 953 1613 
Q 991 1019 1311 708 
Q 1631 397 2203 397 
Q 2534 397 2845 478 
Q 3156 559 3463 722 
L 3463 178 
Q 3153 47 2828 -22 
Q 2503 -91 2169 -91 
Q 1331 -91 842 396 
Q 353 884 353 1716 
Q 353 2575 817 3079 
Q 1281 3584 2069 3584 
Q 2775 3584 3186 3129 
Q 3597 2675 3597 1894 
z
M 3022 2063 
Q 3016 2534 2758 2815 
Q 2500 3097 2075 3097 
Q 1594 3097 1305 2825 
Q 1016 2553 972 2059 
L 3022 2063 
z
" transform="scale(0.015625)"/>
       <path id="DejaVuSans-66" d="M 2375 4863 
L 2375 4384 
L 1825 4384 
Q 1516 4384 1395 4259 
Q 1275 4134 1275 3809 
L 1275 3500 
L 2222 3500 
L 2222 3053 
L 1275 3053 
L 1275 0 
L 697 0 
L 697 3053 
L 147 3053 
L 147 3500 
L 697 3500 
L 697 3744 
Q 697 4328 969 4595 
Q 1241 4863 1831 4863 
L 2375 4863 
z
" transform="scale(0.015625)"/>
       <path id="DejaVuSans-74" d="M 1172 4494 
L 1172 3500 
L 2356 3500 
L 2356 3053 
L 1172 3053 
L 1172 1153 
Q 1172 725 1289 603 
Q 1406 481 1766 481 
L 2356 481 
L 2356 0 
L 1766 0 
Q 1100 0 847 248 
Q 594 497 594 1153 
L 594 3053 
L 172 3053 
L 172 3500 
L 594 3500 
L 594 4494 
L 1172 4494 
z
" transform="scale(0.015625)"/>
       <path id="DejaVuSans-63" d="M 3122 3366 
L 3122 2828 
Q 2878 2963 2633 3030 
Q 2388 3097 2138 3097 
Q 1578 3097 1268 2742 
Q 959 2388 959 1747 
Q 959 1106 1268 751 
Q 1578 397 2138 397 
Q 2388 397 2633 464 
Q 2878 531 3122 666 
L 3122 134 
Q 2881 22 2623 -34 
Q 2366 -91 2075 -91 
Q 1284 -91 818 406 
Q 353 903 353 1747 
Q 353 2603 823 3093 
Q 1294 3584 2113 3584 
Q 2378 3584 2631 3529 
Q 2884 3475 3122 3366 
z
" transform="scale(0.015625)"/>
       <path id="DejaVuSans-6b" d="M 581 4863 
L 1159 4863 
L 1159 1991 
L 2875 3500 
L 3609 3500 
L 1753 1863 
L 3688 0 
L 2938 0 
L 1159 1709 
L 1159 0 
L 581 0 
L 581 4863 
z
" transform="scale(0.015625)"/>
       <path id="DejaVuSans-73" d="M 2834 3397 
L 2834 2853 
Q 2591 2978 2328 3040 
Q 2066 3103 1784 3103 
Q 1356 3103 1142 2972 
Q 928 2841 928 2578 
Q 928 2378 1081 2264 
Q 1234 2150 1697 2047 
L 1894 2003 
Q 2506 1872 2764 1633 
Q 3022 1394 3022 966 
Q 3022 478 2636 193 
Q 2250 -91 1575 -91 
Q 1294 -91 989 -36 
Q 684 19 347 128 
L 347 722 
Q 666 556 975 473 
Q 1284 391 1588 391 
Q 1994 391 2212 530 
Q 2431 669 2431 922 
Q 2431 1156 2273 1281 
Q 2116 1406 1581 1522 
L 1381 1569 
Q 847 1681 609 1914 
Q 372 2147 372 2553 
Q 372 3047 722 3315 
Q 1072 3584 1716 3584 
Q 2034 3584 2315 3537 
Q 2597 3491 2834 3397 
z
" transform="scale(0.015625)"/>
       <path id="DejaVuSans-6c" d="M 603 4863 
L 1178 4863 
L 1178 0 
L 603 0 
L 603 4863 
z
" transform="scale(0.015625)"/>
       <path id="DejaVuSans-64" d="M 2906 2969 
L 2906 4863 
L 3481 4863 
L 3481 0 
L 2906 0 
L 2906 525 
Q 2725 213 2448 61 
Q 2172 -91 1784 -91 
Q 1150 -91 751 415 
Q 353 922 353 1747 
Q 353 2572 751 3078 
Q 1150 3584 1784 3584 
Q 2172 3584 2448 3432 
Q 2725 3281 2906 2969 
z
M 947 1747 
Q 947 1113 1208 752 
Q 1469 391 1925 391 
Q 2381 391 2643 752 
Q 2906 1113 2906 1747 
Q 2906 2381 2643 2742 
Q 2381 3103 1925 3103 
Q 1469 3103 1208 2742 
Q 947 2381 947 1747 
z
" transform="scale(0.015625)"/>
      </defs>
      <use xlink:href="#DejaVuSans-4e"/>
      <use xlink:href="#DejaVuSans-75" x="74.804688"/>
      <use xlink:href="#DejaVuSans-6d" x="138.183594"/>
      <use xlink:href="#DejaVuSans-62" x="235.595703"/>
      <use xlink:href="#DejaVuSans-65" x="299.072266"/>
      <use xlink:href="#DejaVuSans-72" x="360.595703"/>
      <use xlink:href="#DejaVuSans-20" x="401.708984"/>
      <use xlink:href="#DejaVuSans-6f" x="433.496094"/>
      <use xlink:href="#DejaVuSans-66" x="494.677734"/>
      <use xlink:href="#DejaVuSans-20" x="529.882812"/>
      <use xlink:href="#DejaVuSans-74" x="561.669922"/>
      <use xlink:href="#DejaVuSans-69" x="600.878906"/>
      <use xlink:href="#DejaVuSans-63" x="628.662109"/>
      <use xlink:href="#DejaVuSans-6b" x="683.642578"/>
      <use xlink:href="#DejaVuSans-65" x="737.927734"/>
      <use xlink:href="#DejaVuSans-74" x="799.451172"/>
      <use xlink:href="#DejaVuSans-73" x="838.660156"/>
      <use xlink:href="#DejaVuSans-20" x="890.759766"/>
      <use xlink:href="#DejaVuSans-73" x="922.546875"/>
      <use xlink:href="#DejaVuSans-6f" x="974.646484"/>
      <use xlink:href="#DejaVuSans-6c" x="1035.828125"/>
      <use xlink:href="#DejaVuSans-64" x="1063.611328"/>
     </g>
    </g>
   </g>
   <g id="line2d_39">
    <path d="M 57.6 52.662857 
L 414.72 52.662857 
" clip-path="url(#peeaccb5bb2)" style="fill: none; stroke-dasharray: 5.55,2.4; stroke-dashoffset: 0; stroke: #32cd32; stroke-width: 1.5"/>
   </g>
   <g id="patch_3">
    <path d="M 57.6 276.48 
L 57.6 41.472 
" style="fill: none; stroke: #000000; stroke-width: 0.8; stroke-linejoin: miter; stroke-linecap: square"/>
   </g>
   <g id="patch_4">
    <path d="M 414.72 276.48 
L 414.72 41.472 
" style="fill: none; stroke: #000000; stroke-width: 0.8; stroke-linejoin: miter; stroke-linecap: square"/>
   </g>
   <g id="patch_5">
    <path d="M 57.6 276.48 
L 414.72 276.48 
" style="fill: none; stroke: #000000; stroke-width: 0.8; stroke-linejoin: miter; stroke-linecap: square"/>
   </g>
   <g id="patch_6">
    <path d="M 57.6 41.472 
L 414.72 41.472 
" style="fill: none; stroke: #000000; stroke-width: 0.8; stroke-linejoin: miter; stroke-linecap: square"/>
   </g>
   <g id="text_18">
    <!-- MCH Tickets -->
    <g style="fill: #ffffff" transform="translate(199.504687 35.472)scale(0.12 -0.12)">
     <defs>
      <path id="DejaVuSans-43" d="M 4122 4306 
L 4122 3641 
Q 3803 3938 3442 4084 
Q 3081 4231 2675 4231 
Q 1875 4231 1450 3742 
Q 1025 3253 1025 2328 
Q 1025 1406 1450 917 
Q 1875 428 2675 428 
Q 3081 428 3442 575 
Q 3803 722 4122 1019 
L 4122 359 
Q 3791 134 3420 21 
Q 3050 -91 2638 -91 
Q 1578 -91 968 557 
Q 359 1206 359 2328 
Q 359 3453 968 4101 
Q 1578 4750 2638 4750 
Q 3056 4750 3426 4639 
Q 3797 4528 4122 4306 
z
" transform="scale(0.015625)"/>
      <path id="DejaVuSans-48" d="M 628 4666 
L 1259 4666 
L 1259 2753 
L 3553 2753 
L 3553 4666 
L 4184 4666 
L 4184 0 
L 3553 0 
L 3553 2222 
L 1259 2222 
L 1259 0 
L 628 0 
L 628 4666 
z
" transform="scale(0.015625)"/>
      <path id="DejaVuSans-54" d="M -19 4666 
L 3928 4666 
L 3928 4134 
L 2272 4134 
L 2272 0 
L 1638 0 
L 1638 4134 
L -19 4134 
L -19 4666 
z
" transform="scale(0.015625)"/>
     </defs>
     <use xlink:href="#DejaVuSans-4d"/>
     <use xlink:href="#DejaVuSans-43" x="86.279297"/>
     <use xlink:href="#DejaVuSans-48" x="156.103516"/>
     <use xlink:href="#DejaVuSans-20" x="231.298828"/>
     <use xlink:href="#DejaVuSans-54" x="263.085938"/>
     <use xlink:href="#DejaVuSans-69" x="321.044922"/>
     <use xlink:href="#DejaVuSans-63" x="348.828125"/>
     <use xlink:href="#DejaVuSans-6b" x="403.808594"/>
     <use xlink:href="#DejaVuSans-65" x="458.09375"/>
     <use xlink:href="#DejaVuSans-74" x="519.617188"/>
     <use xlink:href="#DejaVuSans-73" x="558.826172"/>
    </g>
   </g>
   <g id="legend_1">
    <g id="patch_7">
     <path d="M 64.6 93.506375 
L 244.389062 93.506375 
Q 246.389062 93.506375 246.389062 91.506375 
L 246.389062 48.472 
Q 246.389062 46.472 244.389062 46.472 
L 64.6 46.472 
Q 62.6 46.472 62.6 48.472 
L 62.6 91.506375 
Q 62.6 93.506375 64.6 93.506375 
z
" style="fill: #ffffff; opacity: 0.8; stroke: #cccccc; stroke-linejoin: miter"/>
    </g>
    <g id="patch_8">
     <path d="M 66.6 58.070437 
L 86.6 58.070437 
L 86.6 51.070437 
L 66.6 51.070437 
z
" style="fill: #fa448c; fill-opacity: 0.8"/>
    </g>
    <g id="text_19">
     <!-- Early-BirdTickets -->
     <g transform="translate(94.6 58.070437)scale(0.1 -0.1)">
      <defs>
       <path id="DejaVuSans-45" d="M 628 4666 
L 3578 4666 
L 3578 4134 
L 1259 4134 
L 1259 2753 
L 3481 2753 
L 3481 2222 
L 1259 2222 
L 1259 531 
L 3634 531 
L 3634 0 
L 628 0 
L 628 4666 
z
" transform="scale(0.015625)"/>
       <path id="DejaVuSans-61" d="M 2194 1759 
Q 1497 1759 1228 1600 
Q 959 1441 959 1056 
Q 959 750 1161 570 
Q 1363 391 1709 391 
Q 2188 391 2477 730 
Q 2766 1069 2766 1631 
L 2766 1759 
L 2194 1759 
z
M 3341 1997 
L 3341 0 
L 2766 0 
L 2766 531 
Q 2569 213 2275 61 
Q 1981 -91 1556 -91 
Q 1019 -91 701 211 
Q 384 513 384 1019 
Q 384 1609 779 1909 
Q 1175 2209 1959 2209 
L 2766 2209 
L 2766 2266 
Q 2766 2663 2505 2880 
Q 2244 3097 1772 3097 
Q 1472 3097 1187 3025 
Q 903 2953 641 2809 
L 641 3341 
Q 956 3463 1253 3523 
Q 1550 3584 1831 3584 
Q 2591 3584 2966 3190 
Q 3341 2797 3341 1997 
z
" transform="scale(0.015625)"/>
       <path id="DejaVuSans-79" d="M 2059 -325 
Q 1816 -950 1584 -1140 
Q 1353 -1331 966 -1331 
L 506 -1331 
L 506 -850 
L 844 -850 
Q 1081 -850 1212 -737 
Q 1344 -625 1503 -206 
L 1606 56 
L 191 3500 
L 800 3500 
L 1894 763 
L 2988 3500 
L 3597 3500 
L 2059 -325 
z
" transform="scale(0.015625)"/>
       <path id="DejaVuSans-2d" d="M 313 2009 
L 1997 2009 
L 1997 1497 
L 313 1497 
L 313 2009 
z
" transform="scale(0.015625)"/>
       <path id="DejaVuSans-42" d="M 1259 2228 
L 1259 519 
L 2272 519 
Q 2781 519 3026 730 
Q 3272 941 3272 1375 
Q 3272 1813 3026 2020 
Q 2781 2228 2272 2228 
L 1259 2228 
z
M 1259 4147 
L 1259 2741 
L 2194 2741 
Q 2656 2741 2882 2914 
Q 3109 3088 3109 3444 
Q 3109 3797 2882 3972 
Q 2656 4147 2194 4147 
L 1259 4147 
z
M 628 4666 
L 2241 4666 
Q 2963 4666 3353 4366 
Q 3744 4066 3744 3513 
Q 3744 3084 3544 2831 
Q 3344 2578 2956 2516 
Q 3422 2416 3680 2098 
Q 3938 1781 3938 1306 
Q 3938 681 3513 340 
Q 3088 0 2303 0 
L 628 0 
L 628 4666 
z
" transform="scale(0.015625)"/>
      </defs>
      <use xlink:href="#DejaVuSans-45"/>
      <use xlink:href="#DejaVuSans-61" x="63.183594"/>
      <use xlink:href="#DejaVuSans-72" x="124.462891"/>
      <use xlink:href="#DejaVuSans-6c" x="165.576172"/>
      <use xlink:href="#DejaVuSans-79" x="193.359375"/>
      <use xlink:href="#DejaVuSans-2d" x="250.789062"/>
      <use xlink:href="#DejaVuSans-42" x="283.248047"/>
      <use xlink:href="#DejaVuSans-69" x="351.851562"/>
      <use xlink:href="#DejaVuSans-72" x="379.634766"/>
      <use xlink:href="#DejaVuSans-64" x="418.998047"/>
      <use xlink:href="#DejaVuSans-54" x="482.474609"/>
      <use xlink:href="#DejaVuSans-69" x="540.433594"/>
      <use xlink:href="#DejaVuSans-63" x="568.216797"/>
      <use xlink:href="#DejaVuSans-6b" x="623.197266"/>
      <use xlink:href="#DejaVuSans-65" x="677.482422"/>
      <use xlink:href="#DejaVuSans-74" x="739.005859"/>
      <use xlink:href="#DejaVuSans-73" x="778.214844"/>
     </g>
    </g>
    <g id="patch_9">
     <path d="M 66.6 72.748562 
L 86.6 72.748562 
L 86.6 65.748562 
L 66.6 65.748562 
z
" style="fill: #43b5a0; fill-opacity: 0.8"/>
    </g>
    <g id="text_20">
     <!-- RegularTickets -->
     <g transform="translate(94.6 72.748562)scale(0.1 -0.1)">
      <defs>
       <path id="DejaVuSans-52" d="M 2841 2188 
Q 3044 2119 3236 1894 
Q 3428 1669 3622 1275 
L 4263 0 
L 3584 0 
L 2988 1197 
Q 2756 1666 2539 1819 
Q 2322 1972 1947 1972 
L 1259 1972 
L 1259 0 
L 628 0 
L 628 4666 
L 2053 4666 
Q 2853 4666 3247 4331 
Q 3641 3997 3641 3322 
Q 3641 2881 3436 2590 
Q 3231 2300 2841 2188 
z
M 1259 4147 
L 1259 2491 
L 2053 2491 
Q 2509 2491 2742 2702 
Q 2975 2913 2975 3322 
Q 2975 3731 2742 3939 
Q 2509 4147 2053 4147 
L 1259 4147 
z
" transform="scale(0.015625)"/>
       <path id="DejaVuSans-67" d="M 2906 1791 
Q 2906 2416 2648 2759 
Q 2391 3103 1925 3103 
Q 1463 3103 1205 2759 
Q 947 2416 947 1791 
Q 947 1169 1205 825 
Q 1463 481 1925 481 
Q 2391 481 2648 825 
Q 2906 1169 2906 1791 
z
M 3481 434 
Q 3481 -459 3084 -895 
Q 2688 -1331 1869 -1331 
Q 1566 -1331 1297 -1286 
Q 1028 -1241 775 -1147 
L 775 -588 
Q 1028 -725 1275 -790 
Q 1522 -856 1778 -856 
Q 2344 -856 2625 -561 
Q 2906 -266 2906 331 
L 2906 616 
Q 2728 306 2450 153 
Q 2172 0 1784 0 
Q 1141 0 747 490 
Q 353 981 353 1791 
Q 353 2603 747 3093 
Q 1141 3584 1784 3584 
Q 2172 3584 2450 3431 
Q 2728 3278 2906 2969 
L 2906 3500 
L 3481 3500 
L 3481 434 
z
" transform="scale(0.015625)"/>
      </defs>
      <use xlink:href="#DejaVuSans-52"/>
      <use xlink:href="#DejaVuSans-65" x="64.982422"/>
      <use xlink:href="#DejaVuSans-67" x="126.505859"/>
      <use xlink:href="#DejaVuSans-75" x="189.982422"/>
      <use xlink:href="#DejaVuSans-6c" x="253.361328"/>
      <use xlink:href="#DejaVuSans-61" x="281.144531"/>
      <use xlink:href="#DejaVuSans-72" x="342.423828"/>
      <use xlink:href="#DejaVuSans-54" x="383.537109"/>
      <use xlink:href="#DejaVuSans-69" x="441.496094"/>
      <use xlink:href="#DejaVuSans-63" x="469.279297"/>
      <use xlink:href="#DejaVuSans-6b" x="524.259766"/>
      <use xlink:href="#DejaVuSans-65" x="578.544922"/>
      <use xlink:href="#DejaVuSans-74" x="640.068359"/>
      <use xlink:href="#DejaVuSans-73" x="679.277344"/>
     </g>
    </g>
    <g id="line2d_40">
     <path d="M 66.6 83.926687 
L 76.6 83.926687 
L 86.6 83.926687 
" style="fill: none; stroke-dasharray: 5.55,2.4; stroke-dashoffset: 0; stroke: #32cd32; stroke-width: 1.5"/>
    </g>
    <g id="text_21">
     <!-- Required tickets w/ donations -->
     <g transform="translate(94.6 87.426687)scale(0.1 -0.1)">
      <defs>
       <path id="DejaVuSans-71" d="M 947 1747 
Q 947 1113 1208 752 
Q 1469 391 1925 391 
Q 2381 391 2643 752 
Q 2906 1113 2906 1747 
Q 2906 2381 2643 2742 
Q 2381 3103 1925 3103 
Q 1469 3103 1208 2742 
Q 947 2381 947 1747 
z
M 2906 525 
Q 2725 213 2448 61 
Q 2172 -91 1784 -91 
Q 1150 -91 751 415 
Q 353 922 353 1747 
Q 353 2572 751 3078 
Q 1150 3584 1784 3584 
Q 2172 3584 2448 3432 
Q 2725 3281 2906 2969 
L 2906 3500 
L 3481 3500 
L 3481 -1331 
L 2906 -1331 
L 2906 525 
z
" transform="scale(0.015625)"/>
       <path id="DejaVuSans-77" d="M 269 3500 
L 844 3500 
L 1563 769 
L 2278 3500 
L 2956 3500 
L 3675 769 
L 4391 3500 
L 4966 3500 
L 4050 0 
L 3372 0 
L 2619 2869 
L 1863 0 
L 1184 0 
L 269 3500 
z
" transform="scale(0.015625)"/>
      </defs>
      <use xlink:href="#DejaVuSans-52"/>
      <use xlink:href="#DejaVuSans-65" x="64.982422"/>
      <use xlink:href="#DejaVuSans-71" x="126.505859"/>
      <use xlink:href="#DejaVuSans-75" x="189.982422"/>
      <use xlink:href="#DejaVuSans-69" x="253.361328"/>
      <use xlink:href="#DejaVuSans-72" x="281.144531"/>
      <use xlink:href="#DejaVuSans-65" x="320.007812"/>
      <use xlink:href="#DejaVuSans-64" x="381.53125"/>
      <use xlink:href="#DejaVuSans-20" x="445.007812"/>
      <use xlink:href="#DejaVuSans-74" x="476.794922"/>
      <use xlink:href="#DejaVuSans-69" x="516.003906"/>
      <use xlink:href="#DejaVuSans-63" x="543.787109"/>
      <use xlink:href="#DejaVuSans-6b" x="598.767578"/>
      <use xlink:href="#DejaVuSans-65" x="653.052734"/>
      <use xlink:href="#DejaVuSans-74" x="714.576172"/>
      <use xlink:href="#DejaVuSans-73" x="753.785156"/>
      <use xlink:href="#DejaVuSans-20" x="805.884766"/>
      <use xlink:href="#DejaVuSans-77" x="837.671875"/>
      <use xlink:href="#DejaVuSans-2f" x="919.458984"/>
      <use xlink:href="#DejaVuSans-20" x="953.150391"/>
      <use xlink:href="#DejaVuSans-64" x="984.9375"/>
      <use xlink:href="#DejaVuSans-6f" x="1048.414062"/>
      <use xlink:href="#DejaVuSans-6e" x="1109.595703"/>
      <use xlink:href="#DejaVuSans-61" x="1172.974609"/>
      <use xlink:href="#DejaVuSans-74" x="1234.253906"/>
      <use xlink:href="#DejaVuSans-69" x="1273.462891"/>
      <use xlink:href="#DejaVuSans-6f" x="1301.246094"/>
      <use xlink:href="#DejaVuSans-6e" x="1362.427734"/>
      <use xlink:href="#DejaVuSans-73" x="1425.806641"/>
     </g>
    </g>
   </g>
  </g>
 </g>
 <defs>
  <clipPath id="peeaccb5bb2">
   <rect x="57.6" y="41.472" width="357.12" height="235.008"/>
  </clipPath>
 </defs>
</svg>
