<?xml version="1.0" encoding="utf-8" standalone="no"?>
<!DOCTYPE svg PUBLIC "-//W3C//DTD SVG 1.1//EN"
  "http://www.w3.org/Graphics/SVG/1.1/DTD/svg11.dtd">
<svg xmlns:xlink="http://www.w3.org/1999/xlink" width="460.8pt" height="345.6pt" viewBox="0 0 460.8 345.6" xmlns="http://www.w3.org/2000/svg" version="1.1">
 <metadata>
  <rdf:RDF xmlns:dc="http://purl.org/dc/elements/1.1/" xmlns:cc="http://creativecommons.org/ns#" xmlns:rdf="http://www.w3.org/1999/02/22-rdf-syntax-ns#">
   <cc:Work>
    <dc:type rdf:resource="http://purl.org/dc/dcmitype/StillImage"/>
    <dc:date>2022-01-18T06:19:31.238350</dc:date>
    <dc:format>image/svg+xml</dc:format>
    <dc:creator>
     <cc:Agent>
      <dc:title>Matplotlib v3.5.1, https://matplotlib.org/</dc:title>
     </cc:Agent>
    </dc:creator>
   </cc:Work>
  </rdf:RDF>
 </metadata>
 <defs>
  <style type="text/css">*{stroke-linejoin: round; stroke-linecap: butt}</style>
 </defs>
 <g id="figure_1">
  <g id="patch_1">
   <path d="M 0 345.6 
L 460.8 345.6 
L 460.8 0 
L 0 0 
z
" style="fill: #491d88"/>
  </g>
  <g id="axes_1">
   <g id="patch_2">
    <path d="M 57.6 276.48 
L 414.72 276.48 
L 414.72 41.472 
L 57.6 41.472 
z
" style="fill: #fec859"/>
   </g>
   <g id="PolyCollection_1">
    <path d="M 73.832727 276.48 
L 73.832727 276.48 
L 73.832727 276.48 
L 73.832727 276.48 
L 74.321425 276.48 
L 74.321425 276.48 
L 74.810124 276.48 
L 74.810124 276.48 
L 75.298822 276.48 
L 75.298822 276.48 
L 75.78752 276.48 
L 75.78752 276.48 
L 76.276218 276.48 
L 76.276218 276.48 
L 76.764916 276.48 
L 76.764916 276.48 
L 77.253614 276.48 
L 77.253614 276.48 
L 77.742313 276.48 
L 77.742313 276.48 
L 78.231011 276.48 
L 78.231011 276.48 
L 78.719709 276.48 
L 78.719709 276.48 
L 79.208407 276.48 
L 79.208407 276.48 
L 79.697105 276.48 
L 79.697105 276.48 
L 80.185803 276.48 
L 80.185803 276.48 
L 80.674502 276.48 
L 80.674502 276.48 
L 81.1632 276.48 
L 81.1632 276.48 
L 81.651898 276.48 
L 81.651898 276.48 
L 82.629294 276.48 
L 82.629294 276.48 
L 83.117992 276.48 
L 83.117992 276.48 
L 83.60669 276.48 
L 83.60669 276.48 
L 84.095389 276.48 
L 84.095389 276.48 
L 84.584087 276.48 
L 84.584087 276.48 
L 85.072785 276.48 
L 85.072785 276.48 
L 85.561483 276.48 
L 85.561483 276.48 
L 86.050181 276.48 
L 86.050181 276.48 
L 86.538879 276.48 
L 86.538879 276.48 
L 87.027578 276.48 
L 87.027578 276.48 
L 88.004974 276.48 
L 88.004974 276.48 
L 88.98237 276.48 
L 88.98237 276.48 
L 89.471068 276.48 
L 89.471068 276.48 
L 89.959767 276.48 
L 89.959767 276.48 
L 93.380654 276.48 
L 93.380654 276.48 
L 93.869352 276.48 
L 93.869352 276.48 
L 94.35805 276.48 
L 94.35805 276.48 
L 94.846748 276.48 
L 94.846748 276.48 
L 95.335446 276.48 
L 95.335446 276.48 
L 95.824144 276.48 
L 95.824144 276.48 
L 96.312843 276.48 
L 96.312843 276.48 
L 96.801541 276.48 
L 96.801541 276.48 
L 97.290239 276.48 
L 97.290239 276.48 
L 97.778937 276.48 
L 97.778937 276.48 
L 98.267635 276.48 
L 98.267635 276.48 
L 98.756333 276.48 
L 98.756333 276.48 
L 99.245032 276.48 
L 99.245032 276.48 
L 99.73373 276.48 
L 99.73373 276.48 
L 100.222428 276.48 
L 100.222428 276.48 
L 100.711126 276.48 
L 100.711126 276.48 
L 101.199824 276.48 
L 101.199824 276.48 
L 101.688522 276.48 
L 101.688522 276.48 
L 104.620711 276.48 
L 104.620711 276.48 
L 106.086806 276.48 
L 106.086806 276.48 
L 106.575504 276.48 
L 106.575504 276.48 
L 107.064202 276.48 
L 107.064202 276.48 
L 108.041598 276.48 
L 108.041598 276.48 
L 108.530297 276.48 
L 108.530297 276.48 
L 109.018995 276.48 
L 109.018995 276.48 
L 109.507693 276.48 
L 109.507693 276.48 
L 109.996391 276.48 
L 109.996391 276.48 
L 110.485089 276.48 
L 110.485089 276.48 
L 110.973787 276.48 
L 110.973787 276.48 
L 111.462486 276.48 
L 111.462486 276.48 
L 111.951184 276.48 
L 111.951184 276.48 
L 112.439882 276.48 
L 112.439882 276.48 
L 112.92858 276.48 
L 112.92858 276.48 
L 113.417278 276.48 
L 113.417278 276.48 
L 117.815562 276.48 
L 117.815562 276.48 
L 118.792958 276.48 
L 118.792958 276.48 
L 119.281656 276.48 
L 119.281656 276.48 
L 119.770354 276.48 
L 119.770354 276.48 
L 120.259052 276.48 
L 120.259052 276.48 
L 122.213845 276.48 
L 122.213845 276.48 
L 130.521714 276.48 
L 130.521714 276.48 
L 131.49911 276.48 
L 131.49911 276.48 
L 131.987808 276.48 
L 131.987808 276.48 
L 132.965205 276.48 
L 132.965205 276.48 
L 133.453903 276.48 
L 133.453903 276.48 
L 134.919997 276.48 
L 134.919997 276.48 
L 136.87479 276.48 
L 136.87479 276.48 
L 137.363488 276.48 
L 137.363488 276.48 
L 141.273073 276.48 
L 141.273073 276.48 
L 141.761771 276.48 
L 141.761771 276.48 
L 142.25047 276.48 
L 142.25047 276.48 
L 142.739168 276.48 
L 142.739168 276.48 
L 143.227866 276.48 
L 143.227866 276.48 
L 143.716564 276.48 
L 143.716564 276.48 
L 144.205262 276.48 
L 144.205262 276.48 
L 144.69396 276.48 
L 144.69396 276.48 
L 145.182659 276.48 
L 145.182659 276.48 
L 146.160055 276.48 
L 146.160055 276.48 
L 146.648753 276.48 
L 146.648753 276.48 
L 147.137451 276.48 
L 147.137451 276.48 
L 147.626149 276.48 
L 147.626149 276.48 
L 148.114848 276.48 
L 148.114848 276.48 
L 148.603546 276.48 
L 148.603546 276.48 
L 149.580942 276.48 
L 149.580942 276.48 
L 151.535735 276.48 
L 151.535735 276.48 
L 153.490527 276.48 
L 153.490527 276.48 
L 154.467924 276.48 
L 154.467924 276.48 
L 155.44532 276.48 
L 155.44532 276.48 
L 156.422716 276.48 
L 156.422716 276.48 
L 156.911414 276.48 
L 156.911414 276.48 
L 157.888811 276.48 
L 157.888811 276.48 
L 158.377509 276.48 
L 158.377509 276.48 
L 158.866207 276.48 
L 158.866207 276.48 
L 159.354905 276.48 
L 159.354905 276.48 
L 159.843603 276.48 
L 159.843603 276.48 
L 160.332301 276.48 
L 160.332301 276.48 
L 164.241887 276.48 
L 164.241887 276.48 
L 164.730585 276.48 
L 164.730585 276.48 
L 165.219283 276.48 
L 165.219283 276.48 
L 165.707981 276.48 
L 165.707981 276.48 
L 166.196679 276.48 
L 166.196679 276.48 
L 166.685378 276.48 
L 166.685378 276.48 
L 167.174076 276.48 
L 167.174076 276.48 
L 167.662774 276.48 
L 167.662774 276.48 
L 168.64017 276.48 
L 168.64017 276.48 
L 169.617567 276.48 
L 169.617567 276.48 
L 170.594963 276.48 
L 170.594963 276.48 
L 171.083661 276.48 
L 171.083661 276.48 
L 171.572359 276.48 
L 171.572359 276.48 
L 172.061057 276.48 
L 172.061057 276.48 
L 173.038454 276.48 
L 173.038454 276.48 
L 173.527152 276.48 
L 173.527152 276.48 
L 174.01585 276.48 
L 174.01585 276.48 
L 175.970643 276.48 
L 175.970643 276.48 
L 177.436737 276.48 
L 177.436737 276.48 
L 177.925435 276.48 
L 177.925435 276.48 
L 179.880228 276.48 
L 179.880228 276.48 
L 180.857624 276.48 
L 180.857624 276.48 
L 181.346322 276.48 
L 181.346322 276.48 
L 181.835021 276.48 
L 181.835021 276.48 
L 182.323719 276.48 
L 182.323719 276.48 
L 182.812417 276.48 
L 182.812417 276.48 
L 183.301115 276.48 
L 183.301115 276.48 
L 184.278511 276.48 
L 184.278511 276.48 
L 187.2107 276.48 
L 187.2107 276.48 
L 187.699398 276.48 
L 187.699398 276.48 
L 188.188097 276.48 
L 188.188097 276.48 
L 189.165493 276.48 
L 189.165493 276.48 
L 189.654191 276.48 
L 189.654191 276.48 
L 190.631587 276.48 
L 190.631587 276.48 
L 191.120286 276.48 
L 191.120286 276.48 
L 192.58638 276.48 
L 192.58638 276.48 
L 193.075078 276.48 
L 193.075078 276.48 
L 194.052474 276.48 
L 194.052474 276.48 
L 194.541173 276.48 
L 194.541173 276.48 
L 195.029871 276.48 
L 195.029871 276.48 
L 195.518569 276.48 
L 195.518569 276.48 
L 196.007267 276.48 
L 196.007267 276.48 
L 200.894249 276.48 
L 200.894249 276.48 
L 201.871645 276.48 
L 201.871645 276.48 
L 202.360343 276.48 
L 202.360343 276.48 
L 203.826438 276.48 
L 203.826438 276.48 
L 204.315136 276.48 
L 204.315136 276.48 
L 204.803834 276.48 
L 204.803834 276.48 
L 206.269928 276.48 
L 206.269928 276.48 
L 206.758627 276.48 
L 206.758627 276.48 
L 211.645608 276.48 
L 211.645608 276.48 
L 212.623005 276.48 
L 212.623005 276.48 
L 213.600401 276.48 
L 213.600401 276.48 
L 214.089099 276.48 
L 214.089099 276.48 
L 214.577797 276.48 
L 214.577797 276.48 
L 215.066495 276.48 
L 215.066495 276.48 
L 215.555194 276.48 
L 215.555194 276.48 
L 216.53259 276.48 
L 216.53259 276.48 
L 217.509986 276.48 
L 217.509986 276.48 
L 218.487382 276.48 
L 218.487382 276.48 
L 218.976081 276.48 
L 218.976081 276.48 
L 219.464779 276.48 
L 219.464779 276.48 
L 223.374364 276.48 
L 223.374364 276.48 
L 224.840459 276.48 
L 224.840459 276.48 
L 225.329157 276.48 
L 225.329157 276.48 
L 226.795251 276.48 
L 226.795251 276.48 
L 227.772647 276.48 
L 227.772647 276.48 
L 228.261346 276.48 
L 228.261346 276.48 
L 228.750044 276.48 
L 228.750044 276.48 
L 229.238742 276.48 
L 229.238742 276.48 
L 230.216138 276.48 
L 230.216138 276.48 
L 234.614422 276.48 
L 234.614422 276.48 
L 237.057913 276.48 
L 237.057913 276.48 
L 237.546611 276.48 
L 237.546611 276.48 
L 239.012705 276.48 
L 239.012705 276.48 
L 239.990101 276.48 
L 239.990101 276.48 
L 240.4788 276.48 
L 240.4788 276.48 
L 240.967498 276.48 
L 240.967498 276.48 
L 241.456196 276.48 
L 241.456196 276.48 
L 241.944894 276.48 
L 241.944894 276.48 
L 242.433592 276.48 
L 242.433592 276.48 
L 246.343178 276.48 
L 246.343178 276.48 
L 247.320574 276.48 
L 247.320574 276.48 
L 247.809272 276.48 
L 247.809272 276.48 
L 248.29797 276.48 
L 248.29797 276.48 
L 248.786668 276.48 
L 248.786668 276.48 
L 249.275367 276.48 
L 249.275367 276.48 
L 249.764065 276.48 
L 249.764065 276.48 
L 250.252763 276.48 
L 250.252763 276.48 
L 250.741461 276.48 
L 250.741461 276.48 
L 251.718857 276.48 
L 251.718857 276.48 
L 258.071933 276.48 
L 258.071933 276.48 
L 260.026726 276.48 
L 260.026726 276.48 
L 261.004122 276.48 
L 261.004122 276.48 
L 261.492821 276.48 
L 261.492821 276.48 
L 262.958915 276.48 
L 262.958915 276.48 
L 263.447613 276.48 
L 263.447613 276.48 
L 263.936311 276.48 
L 263.936311 276.48 
L 265.402406 276.48 
L 265.402406 276.48 
L 266.8685 276.48 
L 266.8685 276.48 
L 270.289387 276.48 
L 270.289387 276.48 
L 270.778086 276.48 
L 270.778086 276.48 
L 271.266784 276.48 
L 271.266784 276.48 
L 271.755482 276.48 
L 271.755482 276.48 
L 272.24418 276.48 
L 272.24418 276.48 
L 273.710274 276.48 
L 273.710274 276.48 
L 275.176369 276.48 
L 275.176369 276.48 
L 276.642463 276.48 
L 276.642463 276.48 
L 284.461634 276.48 
L 284.461634 276.48 
L 286.416427 276.48 
L 286.416427 276.48 
L 286.905125 276.48 
L 286.905125 276.48 
L 295.701692 276.48 
L 295.701692 276.48 
L 296.19039 276.48 
L 296.19039 276.48 
L 296.679088 276.48 
L 296.679088 276.48 
L 297.656484 276.48 
L 297.656484 276.48 
L 298.145182 276.48 
L 298.145182 276.48 
L 298.633881 276.48 
L 298.633881 276.48 
L 299.611277 276.48 
L 299.611277 276.48 
L 304.00956 276.48 
L 304.00956 276.48 
L 304.986957 276.48 
L 304.986957 276.48 
L 306.453051 276.48 
L 306.453051 276.48 
L 307.430447 276.48 
L 307.430447 276.48 
L 309.38524 276.48 
L 309.38524 276.48 
L 312.317429 276.48 
L 312.317429 276.48 
L 318.670505 276.48 
L 318.670505 276.48 
L 319.159203 276.48 
L 319.159203 276.48 
L 320.625298 276.48 
L 320.625298 276.48 
L 321.602694 276.48 
L 321.602694 276.48 
L 322.091392 276.48 
L 322.091392 276.48 
L 323.068789 276.48 
L 323.068789 276.48 
L 327.467072 276.48 
L 327.467072 276.48 
L 328.933167 276.48 
L 328.933167 276.48 
L 329.910563 276.48 
L 329.910563 276.48 
L 330.399261 276.48 
L 330.399261 276.48 
L 330.887959 276.48 
L 330.887959 276.48 
L 332.842752 276.48 
L 332.842752 276.48 
L 334.308846 276.48 
L 334.308846 276.48 
L 334.797544 276.48 
L 334.797544 276.48 
L 335.286243 276.48 
L 335.286243 276.48 
L 335.774941 276.48 
L 335.774941 276.48 
L 340.661922 276.48 
L 340.661922 276.48 
L 341.639319 276.48 
L 341.639319 276.48 
L 344.082809 276.48 
L 344.082809 276.48 
L 346.5263 276.48 
L 346.5263 276.48 
L 347.014998 276.48 
L 347.014998 276.48 
L 347.503697 276.48 
L 347.503697 276.48 
L 348.481093 276.48 
L 348.481093 276.48 
L 350.924584 276.48 
L 350.924584 276.48 
L 351.90198 276.48 
L 351.90198 276.48 
L 353.856773 276.48 
L 353.856773 276.48 
L 357.766358 276.48 
L 357.766358 276.48 
L 359.721151 276.48 
L 359.721151 276.48 
L 362.598278 276.48 
L 362.598278 276.48 
L 362.798622 276.48 
L 362.798622 276.48 
L 362.973461 276.48 
L 362.973461 276.48 
L 363.320108 276.48 
L 363.320108 276.48 
L 363.539941 276.48 
L 363.539941 276.48 
L 363.770654 276.48 
L 363.770654 276.48 
L 363.943435 276.48 
L 363.943435 276.48 
L 364.299783 276.48 
L 364.299783 276.48 
L 364.494051 276.48 
L 364.494051 276.48 
L 364.755569 276.48 
L 364.755569 276.48 
L 364.947724 276.48 
L 364.947724 276.48 
L 365.253642 276.48 
L 365.253642 276.48 
L 365.446017 276.48 
L 365.446017 276.48 
L 365.705057 276.48 
L 365.705057 276.48 
L 365.886356 276.48 
L 365.886356 276.48 
L 366.310766 276.48 
L 366.310766 276.48 
L 366.586269 276.48 
L 366.586269 276.48 
L 366.903598 276.48 
L 366.903598 276.48 
L 366.927747 276.48 
L 366.927747 276.48 
L 366.941973 276.48 
L 366.941973 276.48 
L 367.183287 276.48 
L 367.183287 276.48 
L 367.367697 276.48 
L 367.367697 276.48 
L 367.691734 276.48 
L 367.691734 276.48 
L 367.901215 276.48 
L 367.901215 276.48 
L 368.253838 276.48 
L 368.253838 276.48 
L 368.950731 276.48 
L 368.950731 276.48 
L 368.970904 276.48 
L 368.970904 276.48 
L 368.995834 276.48 
L 368.995834 276.48 
L 369.178965 276.48 
L 369.178965 276.48 
L 369.386196 276.48 
L 369.386196 276.48 
L 369.611259 276.48 
L 369.611259 276.48 
L 369.796721 276.48 
L 369.796721 276.48 
L 370.13712 276.48 
L 370.13712 276.48 
L 370.595853 276.48 
L 370.595853 276.48 
L 376.024679 276.48 
L 376.024679 276.48 
L 377.433057 276.48 
L 377.433057 276.48 
L 378.63335 276.48 
L 378.63335 276.48 
L 378.911876 276.48 
L 378.911876 276.48 
L 380.278142 276.48 
L 380.278142 276.48 
L 380.62458 276.48 
L 380.62458 276.48 
L 380.904496 276.48 
L 380.904496 276.48 
L 381.341453 276.48 
L 381.341453 276.48 
L 388.721724 276.48 
L 388.721724 276.48 
L 391.72346 276.48 
L 391.72346 276.48 
L 393.785742 276.48 
L 393.785742 276.48 
L 394.059119 276.48 
L 394.059119 276.48 
L 395.057623 276.48 
L 395.057623 276.48 
L 395.91746 276.48 
L 395.91746 276.48 
L 398.487273 276.48 
L 398.487273 276.48 
L 398.487273 200.083749 
L 398.487273 200.083749 
L 398.487273 200.083749 
L 395.91746 200.083749 
L 395.91746 200.083749 
L 395.057623 200.083749 
L 395.057623 200.083749 
L 394.059119 200.083749 
L 394.059119 200.083749 
L 393.785742 200.083749 
L 393.785742 200.083749 
L 391.72346 200.083749 
L 391.72346 200.083749 
L 388.721724 200.083749 
L 388.721724 200.083749 
L 381.341453 200.083749 
L 381.341453 200.083749 
L 380.904496 200.083749 
L 380.904496 200.083749 
L 380.62458 200.083749 
L 380.62458 200.083749 
L 380.278142 200.083749 
L 380.278142 200.083749 
L 378.911876 200.083749 
L 378.911876 200.083749 
L 378.63335 200.083749 
L 378.63335 200.083749 
L 377.433057 200.083749 
L 377.433057 200.083749 
L 376.024679 200.083749 
L 376.024679 200.083749 
L 370.595853 200.083749 
L 370.595853 200.083749 
L 370.13712 200.083749 
L 370.13712 200.083749 
L 369.796721 200.083749 
L 369.796721 200.083749 
L 369.611259 200.083749 
L 369.611259 200.083749 
L 369.386196 200.083749 
L 369.386196 200.083749 
L 369.178965 200.083749 
L 369.178965 200.083749 
L 368.995834 200.083749 
L 368.995834 200.083749 
L 368.970904 200.083749 
L 368.970904 200.083749 
L 368.950731 200.083749 
L 368.950731 200.083749 
L 368.253838 200.083749 
L 368.253838 200.083749 
L 367.901215 200.083749 
L 367.901215 200.083749 
L 367.691734 200.083749 
L 367.691734 200.083749 
L 367.367697 200.083749 
L 367.367697 200.083749 
L 367.183287 200.083749 
L 367.183287 200.083749 
L 366.941973 200.083749 
L 366.941973 200.083749 
L 366.927747 200.083749 
L 366.927747 200.083749 
L 366.903598 200.083749 
L 366.903598 200.083749 
L 366.586269 200.083749 
L 366.586269 200.083749 
L 366.310766 200.083749 
L 366.310766 200.083749 
L 365.886356 200.083749 
L 365.886356 200.083749 
L 365.705057 200.083749 
L 365.705057 200.083749 
L 365.446017 200.083749 
L 365.446017 200.083749 
L 365.253642 200.083749 
L 365.253642 200.083749 
L 364.947724 200.083749 
L 364.947724 200.083749 
L 364.755569 200.083749 
L 364.755569 200.083749 
L 364.494051 200.083749 
L 364.494051 200.083749 
L 364.299783 200.083749 
L 364.299783 200.083749 
L 363.943435 200.083749 
L 363.943435 200.083749 
L 363.770654 200.083749 
L 363.770654 200.083749 
L 363.539941 200.083749 
L 363.539941 200.083749 
L 363.320108 200.083749 
L 363.320108 200.083749 
L 362.973461 200.083749 
L 362.973461 200.083749 
L 362.798622 200.083749 
L 362.798622 200.083749 
L 362.598278 200.083749 
L 362.598278 202.023497 
L 359.721151 202.023497 
L 359.721151 202.023497 
L 357.766358 202.023497 
L 357.766358 202.023497 
L 353.856773 202.023497 
L 353.856773 202.023497 
L 351.90198 202.023497 
L 351.90198 202.023497 
L 350.924584 202.023497 
L 350.924584 202.023497 
L 348.481093 202.023497 
L 348.481093 202.023497 
L 347.503697 202.023497 
L 347.503697 202.023497 
L 347.014998 202.023497 
L 347.014998 202.023497 
L 346.5263 202.023497 
L 346.5263 202.023497 
L 344.082809 202.023497 
L 344.082809 202.023497 
L 341.639319 202.023497 
L 341.639319 202.023497 
L 340.661922 202.023497 
L 340.661922 202.023497 
L 335.774941 202.023497 
L 335.774941 202.023497 
L 335.286243 202.023497 
L 335.286243 202.023497 
L 334.797544 202.023497 
L 334.797544 202.023497 
L 334.308846 202.023497 
L 334.308846 202.023497 
L 332.842752 202.023497 
L 332.842752 202.023497 
L 330.887959 202.023497 
L 330.887959 202.023497 
L 330.399261 202.023497 
L 330.399261 202.023497 
L 329.910563 202.023497 
L 329.910563 202.023497 
L 328.933167 202.023497 
L 328.933167 202.023497 
L 327.467072 202.023497 
L 327.467072 202.023497 
L 323.068789 202.023497 
L 323.068789 202.023497 
L 322.091392 202.023497 
L 322.091392 202.023497 
L 321.602694 202.023497 
L 321.602694 202.023497 
L 320.625298 202.023497 
L 320.625298 202.023497 
L 319.159203 202.023497 
L 319.159203 202.023497 
L 318.670505 202.023497 
L 318.670505 202.023497 
L 312.317429 202.023497 
L 312.317429 202.023497 
L 309.38524 202.023497 
L 309.38524 202.023497 
L 307.430447 202.023497 
L 307.430447 202.023497 
L 306.453051 202.023497 
L 306.453051 202.023497 
L 304.986957 202.023497 
L 304.986957 202.023497 
L 304.00956 202.023497 
L 304.00956 202.023497 
L 299.611277 202.023497 
L 299.611277 202.023497 
L 298.633881 202.023497 
L 298.633881 202.023497 
L 298.145182 202.023497 
L 298.145182 202.023497 
L 297.656484 202.023497 
L 297.656484 202.023497 
L 296.679088 202.023497 
L 296.679088 202.023497 
L 296.19039 202.023497 
L 296.19039 202.023497 
L 295.701692 202.023497 
L 295.701692 202.023497 
L 286.905125 202.023497 
L 286.905125 202.023497 
L 286.416427 202.023497 
L 286.416427 202.023497 
L 284.461634 202.023497 
L 284.461634 202.023497 
L 276.642463 202.023497 
L 276.642463 202.023497 
L 275.176369 202.023497 
L 275.176369 202.023497 
L 273.710274 202.023497 
L 273.710274 202.023497 
L 272.24418 202.023497 
L 272.24418 202.023497 
L 271.755482 202.023497 
L 271.755482 202.023497 
L 271.266784 202.023497 
L 271.266784 202.023497 
L 270.778086 202.023497 
L 270.778086 202.023497 
L 270.289387 202.023497 
L 270.289387 202.023497 
L 266.8685 202.023497 
L 266.8685 202.023497 
L 265.402406 202.023497 
L 265.402406 202.023497 
L 263.936311 202.023497 
L 263.936311 202.023497 
L 263.447613 202.023497 
L 263.447613 202.023497 
L 262.958915 202.023497 
L 262.958915 202.023497 
L 261.492821 202.023497 
L 261.492821 202.023497 
L 261.004122 202.023497 
L 261.004122 202.023497 
L 260.026726 202.023497 
L 260.026726 202.023497 
L 258.071933 202.023497 
L 258.071933 202.023497 
L 251.718857 202.023497 
L 251.718857 202.023497 
L 250.741461 202.023497 
L 250.741461 202.023497 
L 250.252763 202.023497 
L 250.252763 202.023497 
L 249.764065 202.023497 
L 249.764065 202.023497 
L 249.275367 202.023497 
L 249.275367 202.023497 
L 248.786668 202.023497 
L 248.786668 202.023497 
L 248.29797 202.023497 
L 248.29797 202.023497 
L 247.809272 202.023497 
L 247.809272 202.023497 
L 247.320574 202.023497 
L 247.320574 202.023497 
L 246.343178 202.023497 
L 246.343178 202.023497 
L 242.433592 202.023497 
L 242.433592 202.023497 
L 241.944894 202.023497 
L 241.944894 202.023497 
L 241.456196 202.023497 
L 241.456196 202.023497 
L 240.967498 202.023497 
L 240.967498 202.023497 
L 240.4788 202.023497 
L 240.4788 202.023497 
L 239.990101 202.023497 
L 239.990101 202.023497 
L 239.012705 202.023497 
L 239.012705 202.023497 
L 237.546611 202.023497 
L 237.546611 202.023497 
L 237.057913 202.023497 
L 237.057913 202.023497 
L 234.614422 202.023497 
L 234.614422 202.023497 
L 230.216138 202.023497 
L 230.216138 202.023497 
L 229.238742 202.023497 
L 229.238742 202.023497 
L 228.750044 202.023497 
L 228.750044 202.023497 
L 228.261346 202.023497 
L 228.261346 202.023497 
L 227.772647 202.023497 
L 227.772647 202.023497 
L 226.795251 202.023497 
L 226.795251 202.023497 
L 225.329157 202.023497 
L 225.329157 202.023497 
L 224.840459 202.023497 
L 224.840459 202.023497 
L 223.374364 202.023497 
L 223.374364 202.023497 
L 219.464779 202.023497 
L 219.464779 202.023497 
L 218.976081 202.023497 
L 218.976081 202.023497 
L 218.487382 202.023497 
L 218.487382 202.023497 
L 217.509986 202.023497 
L 217.509986 202.023497 
L 216.53259 202.023497 
L 216.53259 202.023497 
L 215.555194 202.023497 
L 215.555194 202.023497 
L 215.066495 202.023497 
L 215.066495 202.023497 
L 214.577797 202.023497 
L 214.577797 202.023497 
L 214.089099 202.023497 
L 214.089099 202.023497 
L 213.600401 202.023497 
L 213.600401 202.023497 
L 212.623005 202.023497 
L 212.623005 202.023497 
L 211.645608 202.023497 
L 211.645608 202.023497 
L 206.758627 202.023497 
L 206.758627 202.023497 
L 206.269928 202.023497 
L 206.269928 202.023497 
L 204.803834 202.023497 
L 204.803834 202.172709 
L 204.315136 202.172709 
L 204.315136 202.471131 
L 203.826438 202.471131 
L 203.826438 202.620343 
L 202.360343 202.620343 
L 202.360343 203.067977 
L 201.871645 203.067977 
L 201.871645 203.217189 
L 200.894249 203.217189 
L 200.894249 203.3664 
L 196.007267 203.3664 
L 196.007267 203.664823 
L 195.518569 203.664823 
L 195.518569 203.664823 
L 195.029871 203.664823 
L 195.029871 203.963246 
L 194.541173 203.963246 
L 194.541173 204.41088 
L 194.052474 204.41088 
L 194.052474 204.41088 
L 193.075078 204.41088 
L 193.075078 204.709303 
L 192.58638 204.709303 
L 192.58638 204.858514 
L 191.120286 204.858514 
L 191.120286 205.156937 
L 190.631587 205.156937 
L 190.631587 206.649051 
L 189.654191 206.649051 
L 189.654191 206.947474 
L 189.165493 206.947474 
L 189.165493 207.096686 
L 188.188097 207.096686 
L 188.188097 207.693531 
L 187.699398 207.693531 
L 187.699398 207.693531 
L 187.2107 207.693531 
L 187.2107 207.842743 
L 184.278511 207.842743 
L 184.278511 208.141166 
L 183.301115 208.141166 
L 183.301115 208.5888 
L 182.812417 208.5888 
L 182.812417 208.887223 
L 182.323719 208.887223 
L 182.323719 209.782491 
L 181.835021 209.782491 
L 181.835021 210.230126 
L 181.346322 210.230126 
L 181.346322 211.125394 
L 180.857624 211.125394 
L 180.857624 211.573029 
L 179.880228 211.573029 
L 179.880228 211.72224 
L 177.925435 211.72224 
L 177.925435 211.871451 
L 177.436737 211.871451 
L 177.436737 212.169874 
L 175.970643 212.169874 
L 175.970643 212.169874 
L 174.01585 212.169874 
L 174.01585 212.468297 
L 173.527152 212.468297 
L 173.527152 212.617509 
L 173.038454 212.617509 
L 173.038454 212.76672 
L 172.061057 212.76672 
L 172.061057 213.214354 
L 171.572359 213.214354 
L 171.572359 213.214354 
L 171.083661 213.214354 
L 171.083661 213.512777 
L 170.594963 213.512777 
L 170.594963 214.258834 
L 169.617567 214.258834 
L 169.617567 214.557257 
L 168.64017 214.557257 
L 168.64017 214.557257 
L 167.662774 214.557257 
L 167.662774 214.706469 
L 167.174076 214.706469 
L 167.174076 214.85568 
L 166.685378 214.85568 
L 166.685378 215.154103 
L 166.196679 215.154103 
L 166.196679 215.303314 
L 165.707981 215.303314 
L 165.707981 215.452526 
L 165.219283 215.452526 
L 165.219283 215.750949 
L 164.730585 215.750949 
L 164.730585 215.750949 
L 164.241887 215.750949 
L 164.241887 215.90016 
L 160.332301 215.90016 
L 160.332301 215.90016 
L 159.843603 215.90016 
L 159.843603 216.198583 
L 159.354905 216.198583 
L 159.354905 216.347794 
L 158.866207 216.347794 
L 158.866207 216.497006 
L 158.377509 216.497006 
L 158.377509 216.646217 
L 157.888811 216.646217 
L 157.888811 216.94464 
L 156.911414 216.94464 
L 156.911414 216.94464 
L 156.422716 216.94464 
L 156.422716 217.243063 
L 155.44532 217.243063 
L 155.44532 217.541486 
L 154.467924 217.541486 
L 154.467924 217.98912 
L 153.490527 217.98912 
L 153.490527 218.287543 
L 151.535735 218.287543 
L 151.535735 218.287543 
L 149.580942 218.287543 
L 149.580942 218.436754 
L 148.603546 218.436754 
L 148.603546 218.735177 
L 148.114848 218.735177 
L 148.114848 218.884389 
L 147.626149 218.884389 
L 147.626149 219.182811 
L 147.137451 219.182811 
L 147.137451 219.481234 
L 146.648753 219.481234 
L 146.648753 219.779657 
L 146.160055 219.779657 
L 146.160055 219.928869 
L 145.182659 219.928869 
L 145.182659 220.227291 
L 144.69396 220.227291 
L 144.69396 220.525714 
L 144.205262 220.525714 
L 144.205262 220.973349 
L 143.716564 220.973349 
L 143.716564 221.271771 
L 143.227866 221.271771 
L 143.227866 221.570194 
L 142.739168 221.570194 
L 142.739168 221.719406 
L 142.25047 221.719406 
L 142.25047 222.316251 
L 141.761771 222.316251 
L 141.761771 222.465463 
L 141.273073 222.465463 
L 141.273073 222.763886 
L 137.363488 222.763886 
L 137.363488 223.509943 
L 136.87479 223.509943 
L 136.87479 223.659154 
L 134.919997 223.659154 
L 134.919997 224.256 
L 133.453903 224.256 
L 133.453903 224.554423 
L 132.965205 224.554423 
L 132.965205 225.002057 
L 131.987808 225.002057 
L 131.987808 225.151269 
L 131.49911 225.151269 
L 131.49911 225.30048 
L 130.521714 225.30048 
L 130.521714 225.449691 
L 122.213845 225.449691 
L 122.213845 225.598903 
L 120.259052 225.598903 
L 120.259052 225.748114 
L 119.770354 225.748114 
L 119.770354 226.046537 
L 119.281656 226.046537 
L 119.281656 226.195749 
L 118.792958 226.195749 
L 118.792958 226.34496 
L 117.815562 226.34496 
L 117.815562 226.643383 
L 113.417278 226.643383 
L 113.417278 227.240229 
L 112.92858 227.240229 
L 112.92858 227.38944 
L 112.439882 227.38944 
L 112.439882 227.538651 
L 111.951184 227.538651 
L 111.951184 227.687863 
L 111.462486 227.687863 
L 111.462486 227.837074 
L 110.973787 227.837074 
L 110.973787 227.837074 
L 110.485089 227.837074 
L 110.485089 228.135497 
L 109.996391 228.135497 
L 109.996391 228.43392 
L 109.507693 228.43392 
L 109.507693 228.732343 
L 109.018995 228.732343 
L 109.018995 229.179977 
L 108.530297 229.179977 
L 108.530297 229.627611 
L 108.041598 229.627611 
L 108.041598 229.926034 
L 107.064202 229.926034 
L 107.064202 230.224457 
L 106.575504 230.224457 
L 106.575504 230.373669 
L 106.086806 230.373669 
L 106.086806 230.52288 
L 104.620711 230.52288 
L 104.620711 230.672091 
L 101.688522 230.672091 
L 101.688522 231.119726 
L 101.199824 231.119726 
L 101.199824 231.268937 
L 100.711126 231.268937 
L 100.711126 231.418149 
L 100.222428 231.418149 
L 100.222428 231.716571 
L 99.73373 231.716571 
L 99.73373 232.014994 
L 99.245032 232.014994 
L 99.245032 232.61184 
L 98.756333 232.61184 
L 98.756333 232.910263 
L 98.267635 232.910263 
L 98.267635 233.65632 
L 97.778937 233.65632 
L 97.778937 234.103954 
L 97.290239 234.103954 
L 97.290239 234.850011 
L 96.801541 234.850011 
L 96.801541 234.999223 
L 96.312843 234.999223 
L 96.312843 235.297646 
L 95.824144 235.297646 
L 95.824144 236.043703 
L 95.335446 236.043703 
L 95.335446 236.342126 
L 94.846748 236.342126 
L 94.846748 236.640549 
L 94.35805 236.640549 
L 94.35805 236.78976 
L 93.869352 236.78976 
L 93.869352 237.088183 
L 93.380654 237.088183 
L 93.380654 237.237394 
L 89.959767 237.237394 
L 89.959767 237.386606 
L 89.471068 237.386606 
L 89.471068 237.685029 
L 88.98237 237.685029 
L 88.98237 238.281874 
L 88.004974 238.281874 
L 88.004974 238.87872 
L 87.027578 238.87872 
L 87.027578 239.326354 
L 86.538879 239.326354 
L 86.538879 239.773989 
L 86.050181 239.773989 
L 86.050181 239.773989 
L 85.561483 239.773989 
L 85.561483 240.370834 
L 85.072785 240.370834 
L 85.072785 241.713737 
L 84.584087 241.713737 
L 84.584087 242.310583 
L 84.095389 242.310583 
L 84.095389 243.205851 
L 83.60669 243.205851 
L 83.60669 244.250331 
L 83.117992 244.250331 
L 83.117992 244.548754 
L 82.629294 244.548754 
L 82.629294 245.1456 
L 81.651898 245.1456 
L 81.651898 245.444023 
L 81.1632 245.444023 
L 81.1632 245.593234 
L 80.674502 245.593234 
L 80.674502 245.742446 
L 80.185803 245.742446 
L 80.185803 245.742446 
L 79.697105 245.742446 
L 79.697105 246.040869 
L 79.208407 246.040869 
L 79.208407 246.19008 
L 78.719709 246.19008 
L 78.719709 246.339291 
L 78.231011 246.339291 
L 78.231011 247.532983 
L 77.742313 247.532983 
L 77.742313 249.025097 
L 77.253614 249.025097 
L 77.253614 252.009326 
L 76.764916 252.009326 
L 76.764916 254.396709 
L 76.276218 254.396709 
L 76.276218 257.380937 
L 75.78752 257.380937 
L 75.78752 261.708069 
L 75.298822 261.708069 
L 75.298822 269.019429 
L 74.810124 269.019429 
L 74.810124 273.794194 
L 74.321425 273.794194 
L 74.321425 275.584731 
L 73.832727 275.584731 
L 73.832727 276.48 
L 73.832727 276.48 
z
" clip-path="url(#p88f9127e92)" style="fill: #fa448c; fill-opacity: 0.8"/>
   </g>
   <g id="PolyCollection_2">
    <path d="M 73.832727 276.48 
L 73.832727 276.48 
L 73.832727 276.48 
L 73.832727 275.584731 
L 74.321425 275.584731 
L 74.321425 273.794194 
L 74.810124 273.794194 
L 74.810124 269.019429 
L 75.298822 269.019429 
L 75.298822 261.708069 
L 75.78752 261.708069 
L 75.78752 257.380937 
L 76.276218 257.380937 
L 76.276218 254.396709 
L 76.764916 254.396709 
L 76.764916 252.009326 
L 77.253614 252.009326 
L 77.253614 249.025097 
L 77.742313 249.025097 
L 77.742313 247.532983 
L 78.231011 247.532983 
L 78.231011 246.339291 
L 78.719709 246.339291 
L 78.719709 246.19008 
L 79.208407 246.19008 
L 79.208407 246.040869 
L 79.697105 246.040869 
L 79.697105 245.742446 
L 80.185803 245.742446 
L 80.185803 245.742446 
L 80.674502 245.742446 
L 80.674502 245.593234 
L 81.1632 245.593234 
L 81.1632 245.444023 
L 81.651898 245.444023 
L 81.651898 245.1456 
L 82.629294 245.1456 
L 82.629294 244.548754 
L 83.117992 244.548754 
L 83.117992 244.250331 
L 83.60669 244.250331 
L 83.60669 243.205851 
L 84.095389 243.205851 
L 84.095389 242.310583 
L 84.584087 242.310583 
L 84.584087 241.713737 
L 85.072785 241.713737 
L 85.072785 240.370834 
L 85.561483 240.370834 
L 85.561483 239.773989 
L 86.050181 239.773989 
L 86.050181 239.773989 
L 86.538879 239.773989 
L 86.538879 239.326354 
L 87.027578 239.326354 
L 87.027578 238.87872 
L 88.004974 238.87872 
L 88.004974 238.281874 
L 88.98237 238.281874 
L 88.98237 237.685029 
L 89.471068 237.685029 
L 89.471068 237.386606 
L 89.959767 237.386606 
L 89.959767 237.237394 
L 93.380654 237.237394 
L 93.380654 237.088183 
L 93.869352 237.088183 
L 93.869352 236.78976 
L 94.35805 236.78976 
L 94.35805 236.640549 
L 94.846748 236.640549 
L 94.846748 236.342126 
L 95.335446 236.342126 
L 95.335446 236.043703 
L 95.824144 236.043703 
L 95.824144 235.297646 
L 96.312843 235.297646 
L 96.312843 234.999223 
L 96.801541 234.999223 
L 96.801541 234.850011 
L 97.290239 234.850011 
L 97.290239 234.103954 
L 97.778937 234.103954 
L 97.778937 233.65632 
L 98.267635 233.65632 
L 98.267635 232.910263 
L 98.756333 232.910263 
L 98.756333 232.61184 
L 99.245032 232.61184 
L 99.245032 232.014994 
L 99.73373 232.014994 
L 99.73373 231.716571 
L 100.222428 231.716571 
L 100.222428 231.418149 
L 100.711126 231.418149 
L 100.711126 231.268937 
L 101.199824 231.268937 
L 101.199824 231.119726 
L 101.688522 231.119726 
L 101.688522 230.672091 
L 104.620711 230.672091 
L 104.620711 230.52288 
L 106.086806 230.52288 
L 106.086806 230.373669 
L 106.575504 230.373669 
L 106.575504 230.224457 
L 107.064202 230.224457 
L 107.064202 229.926034 
L 108.041598 229.926034 
L 108.041598 229.627611 
L 108.530297 229.627611 
L 108.530297 229.179977 
L 109.018995 229.179977 
L 109.018995 228.732343 
L 109.507693 228.732343 
L 109.507693 228.43392 
L 109.996391 228.43392 
L 109.996391 228.135497 
L 110.485089 228.135497 
L 110.485089 227.837074 
L 110.973787 227.837074 
L 110.973787 227.837074 
L 111.462486 227.837074 
L 111.462486 227.687863 
L 111.951184 227.687863 
L 111.951184 227.538651 
L 112.439882 227.538651 
L 112.439882 227.38944 
L 112.92858 227.38944 
L 112.92858 227.240229 
L 113.417278 227.240229 
L 113.417278 226.643383 
L 117.815562 226.643383 
L 117.815562 226.34496 
L 118.792958 226.34496 
L 118.792958 226.195749 
L 119.281656 226.195749 
L 119.281656 226.046537 
L 119.770354 226.046537 
L 119.770354 225.748114 
L 120.259052 225.748114 
L 120.259052 225.598903 
L 122.213845 225.598903 
L 122.213845 225.449691 
L 130.521714 225.449691 
L 130.521714 225.30048 
L 131.49911 225.30048 
L 131.49911 225.151269 
L 131.987808 225.151269 
L 131.987808 225.002057 
L 132.965205 225.002057 
L 132.965205 224.554423 
L 133.453903 224.554423 
L 133.453903 224.256 
L 134.919997 224.256 
L 134.919997 223.659154 
L 136.87479 223.659154 
L 136.87479 223.509943 
L 137.363488 223.509943 
L 137.363488 222.763886 
L 141.273073 222.763886 
L 141.273073 222.465463 
L 141.761771 222.465463 
L 141.761771 222.316251 
L 142.25047 222.316251 
L 142.25047 221.719406 
L 142.739168 221.719406 
L 142.739168 221.570194 
L 143.227866 221.570194 
L 143.227866 221.271771 
L 143.716564 221.271771 
L 143.716564 220.973349 
L 144.205262 220.973349 
L 144.205262 220.525714 
L 144.69396 220.525714 
L 144.69396 220.227291 
L 145.182659 220.227291 
L 145.182659 219.928869 
L 146.160055 219.928869 
L 146.160055 219.779657 
L 146.648753 219.779657 
L 146.648753 219.481234 
L 147.137451 219.481234 
L 147.137451 219.182811 
L 147.626149 219.182811 
L 147.626149 218.884389 
L 148.114848 218.884389 
L 148.114848 218.735177 
L 148.603546 218.735177 
L 148.603546 218.436754 
L 149.580942 218.436754 
L 149.580942 218.287543 
L 151.535735 218.287543 
L 151.535735 218.287543 
L 153.490527 218.287543 
L 153.490527 217.98912 
L 154.467924 217.98912 
L 154.467924 217.541486 
L 155.44532 217.541486 
L 155.44532 217.243063 
L 156.422716 217.243063 
L 156.422716 216.94464 
L 156.911414 216.94464 
L 156.911414 216.94464 
L 157.888811 216.94464 
L 157.888811 216.646217 
L 158.377509 216.646217 
L 158.377509 216.497006 
L 158.866207 216.497006 
L 158.866207 216.347794 
L 159.354905 216.347794 
L 159.354905 216.198583 
L 159.843603 216.198583 
L 159.843603 215.90016 
L 160.332301 215.90016 
L 160.332301 215.90016 
L 164.241887 215.90016 
L 164.241887 215.750949 
L 164.730585 215.750949 
L 164.730585 215.750949 
L 165.219283 215.750949 
L 165.219283 215.452526 
L 165.707981 215.452526 
L 165.707981 215.303314 
L 166.196679 215.303314 
L 166.196679 215.154103 
L 166.685378 215.154103 
L 166.685378 214.85568 
L 167.174076 214.85568 
L 167.174076 214.706469 
L 167.662774 214.706469 
L 167.662774 214.557257 
L 168.64017 214.557257 
L 168.64017 214.557257 
L 169.617567 214.557257 
L 169.617567 214.258834 
L 170.594963 214.258834 
L 170.594963 213.512777 
L 171.083661 213.512777 
L 171.083661 213.214354 
L 171.572359 213.214354 
L 171.572359 213.214354 
L 172.061057 213.214354 
L 172.061057 212.76672 
L 173.038454 212.76672 
L 173.038454 212.617509 
L 173.527152 212.617509 
L 173.527152 212.468297 
L 174.01585 212.468297 
L 174.01585 212.169874 
L 175.970643 212.169874 
L 175.970643 212.169874 
L 177.436737 212.169874 
L 177.436737 211.871451 
L 177.925435 211.871451 
L 177.925435 211.72224 
L 179.880228 211.72224 
L 179.880228 211.573029 
L 180.857624 211.573029 
L 180.857624 211.125394 
L 181.346322 211.125394 
L 181.346322 210.230126 
L 181.835021 210.230126 
L 181.835021 209.782491 
L 182.323719 209.782491 
L 182.323719 208.887223 
L 182.812417 208.887223 
L 182.812417 208.5888 
L 183.301115 208.5888 
L 183.301115 208.141166 
L 184.278511 208.141166 
L 184.278511 207.842743 
L 187.2107 207.842743 
L 187.2107 207.693531 
L 187.699398 207.693531 
L 187.699398 207.693531 
L 188.188097 207.693531 
L 188.188097 207.096686 
L 189.165493 207.096686 
L 189.165493 206.947474 
L 189.654191 206.947474 
L 189.654191 206.649051 
L 190.631587 206.649051 
L 190.631587 205.156937 
L 191.120286 205.156937 
L 191.120286 204.858514 
L 192.58638 204.858514 
L 192.58638 204.709303 
L 193.075078 204.709303 
L 193.075078 204.41088 
L 194.052474 204.41088 
L 194.052474 204.41088 
L 194.541173 204.41088 
L 194.541173 203.963246 
L 195.029871 203.963246 
L 195.029871 203.664823 
L 195.518569 203.664823 
L 195.518569 203.664823 
L 196.007267 203.664823 
L 196.007267 203.3664 
L 200.894249 203.3664 
L 200.894249 203.217189 
L 201.871645 203.217189 
L 201.871645 203.067977 
L 202.360343 203.067977 
L 202.360343 202.620343 
L 203.826438 202.620343 
L 203.826438 202.471131 
L 204.315136 202.471131 
L 204.315136 202.172709 
L 204.803834 202.172709 
L 204.803834 202.023497 
L 206.269928 202.023497 
L 206.269928 202.023497 
L 206.758627 202.023497 
L 206.758627 202.023497 
L 211.645608 202.023497 
L 211.645608 202.023497 
L 212.623005 202.023497 
L 212.623005 202.023497 
L 213.600401 202.023497 
L 213.600401 202.023497 
L 214.089099 202.023497 
L 214.089099 202.023497 
L 214.577797 202.023497 
L 214.577797 202.023497 
L 215.066495 202.023497 
L 215.066495 202.023497 
L 215.555194 202.023497 
L 215.555194 202.023497 
L 216.53259 202.023497 
L 216.53259 202.023497 
L 217.509986 202.023497 
L 217.509986 202.023497 
L 218.487382 202.023497 
L 218.487382 202.023497 
L 218.976081 202.023497 
L 218.976081 202.023497 
L 219.464779 202.023497 
L 219.464779 202.023497 
L 223.374364 202.023497 
L 223.374364 202.023497 
L 224.840459 202.023497 
L 224.840459 202.023497 
L 225.329157 202.023497 
L 225.329157 202.023497 
L 226.795251 202.023497 
L 226.795251 202.023497 
L 227.772647 202.023497 
L 227.772647 202.023497 
L 228.261346 202.023497 
L 228.261346 202.023497 
L 228.750044 202.023497 
L 228.750044 202.023497 
L 229.238742 202.023497 
L 229.238742 202.023497 
L 230.216138 202.023497 
L 230.216138 202.023497 
L 234.614422 202.023497 
L 234.614422 202.023497 
L 237.057913 202.023497 
L 237.057913 202.023497 
L 237.546611 202.023497 
L 237.546611 202.023497 
L 239.012705 202.023497 
L 239.012705 202.023497 
L 239.990101 202.023497 
L 239.990101 202.023497 
L 240.4788 202.023497 
L 240.4788 202.023497 
L 240.967498 202.023497 
L 240.967498 202.023497 
L 241.456196 202.023497 
L 241.456196 202.023497 
L 241.944894 202.023497 
L 241.944894 202.023497 
L 242.433592 202.023497 
L 242.433592 202.023497 
L 246.343178 202.023497 
L 246.343178 202.023497 
L 247.320574 202.023497 
L 247.320574 202.023497 
L 247.809272 202.023497 
L 247.809272 202.023497 
L 248.29797 202.023497 
L 248.29797 202.023497 
L 248.786668 202.023497 
L 248.786668 202.023497 
L 249.275367 202.023497 
L 249.275367 202.023497 
L 249.764065 202.023497 
L 249.764065 202.023497 
L 250.252763 202.023497 
L 250.252763 202.023497 
L 250.741461 202.023497 
L 250.741461 202.023497 
L 251.718857 202.023497 
L 251.718857 202.023497 
L 258.071933 202.023497 
L 258.071933 202.023497 
L 260.026726 202.023497 
L 260.026726 202.023497 
L 261.004122 202.023497 
L 261.004122 202.023497 
L 261.492821 202.023497 
L 261.492821 202.023497 
L 262.958915 202.023497 
L 262.958915 202.023497 
L 263.447613 202.023497 
L 263.447613 202.023497 
L 263.936311 202.023497 
L 263.936311 202.023497 
L 265.402406 202.023497 
L 265.402406 202.023497 
L 266.8685 202.023497 
L 266.8685 202.023497 
L 270.289387 202.023497 
L 270.289387 202.023497 
L 270.778086 202.023497 
L 270.778086 202.023497 
L 271.266784 202.023497 
L 271.266784 202.023497 
L 271.755482 202.023497 
L 271.755482 202.023497 
L 272.24418 202.023497 
L 272.24418 202.023497 
L 273.710274 202.023497 
L 273.710274 202.023497 
L 275.176369 202.023497 
L 275.176369 202.023497 
L 276.642463 202.023497 
L 276.642463 202.023497 
L 284.461634 202.023497 
L 284.461634 202.023497 
L 286.416427 202.023497 
L 286.416427 202.023497 
L 286.905125 202.023497 
L 286.905125 202.023497 
L 295.701692 202.023497 
L 295.701692 202.023497 
L 296.19039 202.023497 
L 296.19039 202.023497 
L 296.679088 202.023497 
L 296.679088 202.023497 
L 297.656484 202.023497 
L 297.656484 202.023497 
L 298.145182 202.023497 
L 298.145182 202.023497 
L 298.633881 202.023497 
L 298.633881 202.023497 
L 299.611277 202.023497 
L 299.611277 202.023497 
L 304.00956 202.023497 
L 304.00956 202.023497 
L 304.986957 202.023497 
L 304.986957 202.023497 
L 306.453051 202.023497 
L 306.453051 202.023497 
L 307.430447 202.023497 
L 307.430447 202.023497 
L 309.38524 202.023497 
L 309.38524 202.023497 
L 312.317429 202.023497 
L 312.317429 202.023497 
L 318.670505 202.023497 
L 318.670505 202.023497 
L 319.159203 202.023497 
L 319.159203 202.023497 
L 320.625298 202.023497 
L 320.625298 202.023497 
L 321.602694 202.023497 
L 321.602694 202.023497 
L 322.091392 202.023497 
L 322.091392 202.023497 
L 323.068789 202.023497 
L 323.068789 202.023497 
L 327.467072 202.023497 
L 327.467072 202.023497 
L 328.933167 202.023497 
L 328.933167 202.023497 
L 329.910563 202.023497 
L 329.910563 202.023497 
L 330.399261 202.023497 
L 330.399261 202.023497 
L 330.887959 202.023497 
L 330.887959 202.023497 
L 332.842752 202.023497 
L 332.842752 202.023497 
L 334.308846 202.023497 
L 334.308846 202.023497 
L 334.797544 202.023497 
L 334.797544 202.023497 
L 335.286243 202.023497 
L 335.286243 202.023497 
L 335.774941 202.023497 
L 335.774941 202.023497 
L 340.661922 202.023497 
L 340.661922 202.023497 
L 341.639319 202.023497 
L 341.639319 202.023497 
L 344.082809 202.023497 
L 344.082809 202.023497 
L 346.5263 202.023497 
L 346.5263 202.023497 
L 347.014998 202.023497 
L 347.014998 202.023497 
L 347.503697 202.023497 
L 347.503697 202.023497 
L 348.481093 202.023497 
L 348.481093 202.023497 
L 350.924584 202.023497 
L 350.924584 202.023497 
L 351.90198 202.023497 
L 351.90198 202.023497 
L 353.856773 202.023497 
L 353.856773 202.023497 
L 357.766358 202.023497 
L 357.766358 202.023497 
L 359.721151 202.023497 
L 359.721151 202.023497 
L 362.598278 202.023497 
L 362.598278 200.083749 
L 362.798622 200.083749 
L 362.798622 200.083749 
L 362.973461 200.083749 
L 362.973461 200.083749 
L 363.320108 200.083749 
L 363.320108 200.083749 
L 363.539941 200.083749 
L 363.539941 200.083749 
L 363.770654 200.083749 
L 363.770654 200.083749 
L 363.943435 200.083749 
L 363.943435 200.083749 
L 364.299783 200.083749 
L 364.299783 200.083749 
L 364.494051 200.083749 
L 364.494051 200.083749 
L 364.755569 200.083749 
L 364.755569 200.083749 
L 364.947724 200.083749 
L 364.947724 200.083749 
L 365.253642 200.083749 
L 365.253642 200.083749 
L 365.446017 200.083749 
L 365.446017 200.083749 
L 365.705057 200.083749 
L 365.705057 200.083749 
L 365.886356 200.083749 
L 365.886356 200.083749 
L 366.310766 200.083749 
L 366.310766 200.083749 
L 366.586269 200.083749 
L 366.586269 200.083749 
L 366.903598 200.083749 
L 366.903598 200.083749 
L 366.927747 200.083749 
L 366.927747 200.083749 
L 366.941973 200.083749 
L 366.941973 200.083749 
L 367.183287 200.083749 
L 367.183287 200.083749 
L 367.367697 200.083749 
L 367.367697 200.083749 
L 367.691734 200.083749 
L 367.691734 200.083749 
L 367.901215 200.083749 
L 367.901215 200.083749 
L 368.253838 200.083749 
L 368.253838 200.083749 
L 368.950731 200.083749 
L 368.950731 200.083749 
L 368.970904 200.083749 
L 368.970904 200.083749 
L 368.995834 200.083749 
L 368.995834 200.083749 
L 369.178965 200.083749 
L 369.178965 200.083749 
L 369.386196 200.083749 
L 369.386196 200.083749 
L 369.611259 200.083749 
L 369.611259 200.083749 
L 369.796721 200.083749 
L 369.796721 200.083749 
L 370.13712 200.083749 
L 370.13712 200.083749 
L 370.595853 200.083749 
L 370.595853 200.083749 
L 376.024679 200.083749 
L 376.024679 200.083749 
L 377.433057 200.083749 
L 377.433057 200.083749 
L 378.63335 200.083749 
L 378.63335 200.083749 
L 378.911876 200.083749 
L 378.911876 200.083749 
L 380.278142 200.083749 
L 380.278142 200.083749 
L 380.62458 200.083749 
L 380.62458 200.083749 
L 380.904496 200.083749 
L 380.904496 200.083749 
L 381.341453 200.083749 
L 381.341453 200.083749 
L 388.721724 200.083749 
L 388.721724 200.083749 
L 391.72346 200.083749 
L 391.72346 200.083749 
L 393.785742 200.083749 
L 393.785742 200.083749 
L 394.059119 200.083749 
L 394.059119 200.083749 
L 395.057623 200.083749 
L 395.057623 200.083749 
L 395.91746 200.083749 
L 395.91746 200.083749 
L 398.487273 200.083749 
L 398.487273 200.083749 
L 398.487273 147.859749 
L 398.487273 147.859749 
L 398.487273 147.859749 
L 395.91746 147.859749 
L 395.91746 148.00896 
L 395.057623 148.00896 
L 395.057623 146.367634 
L 394.059119 146.367634 
L 394.059119 146.815269 
L 393.785742 146.815269 
L 393.785742 146.96448 
L 391.72346 146.96448 
L 391.72346 147.113691 
L 388.721724 147.113691 
L 388.721724 147.262903 
L 381.341453 147.262903 
L 381.341453 147.561326 
L 380.904496 147.561326 
L 380.904496 147.710537 
L 380.62458 147.710537 
L 380.62458 148.00896 
L 380.278142 148.00896 
L 380.278142 148.158171 
L 378.911876 148.158171 
L 378.911876 148.307383 
L 378.63335 148.307383 
L 378.63335 148.456594 
L 377.433057 148.456594 
L 377.433057 148.605806 
L 376.024679 148.605806 
L 376.024679 148.755017 
L 370.595853 148.755017 
L 370.595853 149.05344 
L 370.13712 149.05344 
L 370.13712 149.202651 
L 369.796721 149.202651 
L 369.796721 149.202651 
L 369.611259 149.202651 
L 369.611259 149.202651 
L 369.386196 149.202651 
L 369.386196 149.202651 
L 369.178965 149.202651 
L 369.178965 149.202651 
L 368.995834 149.202651 
L 368.995834 149.202651 
L 368.970904 149.202651 
L 368.970904 149.202651 
L 368.950731 149.202651 
L 368.950731 149.202651 
L 368.253838 149.202651 
L 368.253838 149.202651 
L 367.901215 149.202651 
L 367.901215 149.202651 
L 367.691734 149.202651 
L 367.691734 149.202651 
L 367.367697 149.202651 
L 367.367697 149.202651 
L 367.183287 149.202651 
L 367.183287 149.202651 
L 366.941973 149.202651 
L 366.941973 149.202651 
L 366.927747 149.202651 
L 366.927747 149.202651 
L 366.903598 149.202651 
L 366.903598 149.202651 
L 366.586269 149.202651 
L 366.586269 149.501074 
L 366.310766 149.501074 
L 366.310766 149.650286 
L 365.886356 149.650286 
L 365.886356 149.650286 
L 365.705057 149.650286 
L 365.705057 150.247131 
L 365.446017 150.247131 
L 365.446017 150.396343 
L 365.253642 150.396343 
L 365.253642 150.396343 
L 364.947724 150.396343 
L 364.947724 150.396343 
L 364.755569 150.396343 
L 364.755569 150.396343 
L 364.494051 150.396343 
L 364.494051 150.396343 
L 364.299783 150.396343 
L 364.299783 150.396343 
L 363.943435 150.396343 
L 363.943435 150.396343 
L 363.770654 150.396343 
L 363.770654 150.396343 
L 363.539941 150.396343 
L 363.539941 150.396343 
L 363.320108 150.396343 
L 363.320108 150.396343 
L 362.973461 150.396343 
L 362.973461 150.396343 
L 362.798622 150.396343 
L 362.798622 150.396343 
L 362.598278 150.396343 
L 362.598278 153.828206 
L 359.721151 153.828206 
L 359.721151 153.977417 
L 357.766358 153.977417 
L 357.766358 153.977417 
L 353.856773 153.977417 
L 353.856773 154.126629 
L 351.90198 154.126629 
L 351.90198 154.27584 
L 350.924584 154.27584 
L 350.924584 154.425051 
L 348.481093 154.425051 
L 348.481093 154.872686 
L 347.503697 154.872686 
L 347.503697 154.872686 
L 347.014998 154.872686 
L 347.014998 155.171109 
L 346.5263 155.171109 
L 346.5263 156.514011 
L 344.082809 156.514011 
L 344.082809 156.961646 
L 341.639319 156.961646 
L 341.639319 157.110857 
L 340.661922 157.110857 
L 340.661922 157.260069 
L 335.774941 157.260069 
L 335.774941 157.707703 
L 335.286243 157.707703 
L 335.286243 158.155337 
L 334.797544 158.155337 
L 334.797544 158.45376 
L 334.308846 158.45376 
L 334.308846 158.602971 
L 332.842752 158.602971 
L 332.842752 158.752183 
L 330.887959 158.752183 
L 330.887959 158.752183 
L 330.399261 158.752183 
L 330.399261 158.901394 
L 329.910563 158.901394 
L 329.910563 159.050606 
L 328.933167 159.050606 
L 328.933167 159.199817 
L 327.467072 159.199817 
L 327.467072 159.349029 
L 323.068789 159.349029 
L 323.068789 159.49824 
L 322.091392 159.49824 
L 322.091392 159.796663 
L 321.602694 159.796663 
L 321.602694 160.095086 
L 320.625298 160.095086 
L 320.625298 160.54272 
L 319.159203 160.54272 
L 319.159203 160.691931 
L 318.670505 160.691931 
L 318.670505 160.691931 
L 312.317429 160.691931 
L 312.317429 160.841143 
L 309.38524 160.841143 
L 309.38524 160.990354 
L 307.430447 160.990354 
L 307.430447 161.288777 
L 306.453051 161.288777 
L 306.453051 161.288777 
L 304.986957 161.288777 
L 304.986957 161.5872 
L 304.00956 161.5872 
L 304.00956 161.5872 
L 299.611277 161.5872 
L 299.611277 161.885623 
L 298.633881 161.885623 
L 298.633881 162.034834 
L 298.145182 162.034834 
L 298.145182 162.333257 
L 297.656484 162.333257 
L 297.656484 162.333257 
L 296.679088 162.333257 
L 296.679088 162.333257 
L 296.19039 162.333257 
L 296.19039 162.780891 
L 295.701692 162.780891 
L 295.701692 162.780891 
L 286.905125 162.780891 
L 286.905125 162.930103 
L 286.416427 162.930103 
L 286.416427 163.079314 
L 284.461634 163.079314 
L 284.461634 163.228526 
L 276.642463 163.228526 
L 276.642463 163.377737 
L 275.176369 163.377737 
L 275.176369 163.526949 
L 273.710274 163.526949 
L 273.710274 163.974583 
L 272.24418 163.974583 
L 272.24418 164.72064 
L 271.755482 164.72064 
L 271.755482 165.019063 
L 271.266784 165.019063 
L 271.266784 165.168274 
L 270.778086 165.168274 
L 270.778086 165.168274 
L 270.289387 165.168274 
L 270.289387 165.317486 
L 266.8685 165.317486 
L 266.8685 165.317486 
L 265.402406 165.317486 
L 265.402406 165.914331 
L 263.936311 165.914331 
L 263.936311 166.063543 
L 263.447613 166.063543 
L 263.447613 166.511177 
L 262.958915 166.511177 
L 262.958915 166.660389 
L 261.492821 166.660389 
L 261.492821 166.8096 
L 261.004122 166.8096 
L 261.004122 167.108023 
L 260.026726 167.108023 
L 260.026726 167.108023 
L 258.071933 167.108023 
L 258.071933 167.406446 
L 251.718857 167.406446 
L 251.718857 167.406446 
L 250.741461 167.406446 
L 250.741461 167.555657 
L 250.252763 167.555657 
L 250.252763 167.704869 
L 249.764065 167.704869 
L 249.764065 167.85408 
L 249.275367 167.85408 
L 249.275367 168.003291 
L 248.786668 168.003291 
L 248.786668 168.152503 
L 248.29797 168.152503 
L 248.29797 168.450926 
L 247.809272 168.450926 
L 247.809272 169.495406 
L 247.320574 169.495406 
L 247.320574 170.092251 
L 246.343178 170.092251 
L 246.343178 170.539886 
L 242.433592 170.539886 
L 242.433592 170.689097 
L 241.944894 170.689097 
L 241.944894 170.838309 
L 241.456196 170.838309 
L 241.456196 171.136731 
L 240.967498 171.136731 
L 240.967498 171.584366 
L 240.4788 171.584366 
L 240.4788 172.181211 
L 239.990101 172.181211 
L 239.990101 172.927269 
L 239.012705 172.927269 
L 239.012705 173.374903 
L 237.546611 173.374903 
L 237.546611 173.524114 
L 237.057913 173.524114 
L 237.057913 173.822537 
L 234.614422 173.822537 
L 234.614422 173.971749 
L 230.216138 173.971749 
L 230.216138 174.12096 
L 229.238742 174.12096 
L 229.238742 174.270171 
L 228.750044 174.270171 
L 228.750044 174.419383 
L 228.261346 174.419383 
L 228.261346 174.568594 
L 227.772647 174.568594 
L 227.772647 174.867017 
L 226.795251 174.867017 
L 226.795251 175.463863 
L 225.329157 175.463863 
L 225.329157 175.613074 
L 224.840459 175.613074 
L 224.840459 175.762286 
L 223.374364 175.762286 
L 223.374364 176.060709 
L 219.464779 176.060709 
L 219.464779 176.20992 
L 218.976081 176.20992 
L 218.976081 176.359131 
L 218.487382 176.359131 
L 218.487382 176.359131 
L 217.509986 176.359131 
L 217.509986 176.508343 
L 216.53259 176.508343 
L 216.53259 176.657554 
L 215.555194 176.657554 
L 215.555194 177.2544 
L 215.066495 177.2544 
L 215.066495 177.851246 
L 214.577797 177.851246 
L 214.577797 178.149669 
L 214.089099 178.149669 
L 214.089099 178.448091 
L 213.600401 178.448091 
L 213.600401 178.746514 
L 212.623005 178.746514 
L 212.623005 179.044937 
L 211.645608 179.044937 
L 211.645608 179.194149 
L 206.758627 179.194149 
L 206.758627 179.492571 
L 206.269928 179.492571 
L 206.269928 179.940206 
L 204.803834 179.940206 
L 204.803834 180.089417 
L 204.315136 180.089417 
L 204.315136 180.537051 
L 203.826438 180.537051 
L 203.826438 180.686263 
L 202.360343 180.686263 
L 202.360343 181.133897 
L 201.871645 181.133897 
L 201.871645 181.283109 
L 200.894249 181.283109 
L 200.894249 181.43232 
L 196.007267 181.43232 
L 196.007267 182.029166 
L 195.518569 182.029166 
L 195.518569 182.029166 
L 195.029871 182.029166 
L 195.029871 182.4768 
L 194.541173 182.4768 
L 194.541173 182.924434 
L 194.052474 182.924434 
L 194.052474 183.073646 
L 193.075078 183.073646 
L 193.075078 183.670491 
L 192.58638 183.670491 
L 192.58638 183.819703 
L 191.120286 183.819703 
L 191.120286 184.118126 
L 190.631587 184.118126 
L 190.631587 185.759451 
L 189.654191 185.759451 
L 189.654191 186.057874 
L 189.165493 186.057874 
L 189.165493 186.207086 
L 188.188097 186.207086 
L 188.188097 186.803931 
L 187.699398 186.803931 
L 187.699398 186.953143 
L 187.2107 186.953143 
L 187.2107 187.102354 
L 184.278511 187.102354 
L 184.278511 187.400777 
L 183.301115 187.400777 
L 183.301115 187.848411 
L 182.812417 187.848411 
L 182.812417 188.445257 
L 182.323719 188.445257 
L 182.323719 189.340526 
L 181.835021 189.340526 
L 181.835021 189.937371 
L 181.346322 189.937371 
L 181.346322 190.83264 
L 180.857624 190.83264 
L 180.857624 192.026331 
L 179.880228 192.026331 
L 179.880228 192.175543 
L 177.925435 192.175543 
L 177.925435 192.324754 
L 177.436737 192.324754 
L 177.436737 192.623177 
L 175.970643 192.623177 
L 175.970643 192.772389 
L 174.01585 192.772389 
L 174.01585 193.070811 
L 173.527152 193.070811 
L 173.527152 193.220023 
L 173.038454 193.220023 
L 173.038454 193.369234 
L 172.061057 193.369234 
L 172.061057 193.816869 
L 171.572359 193.816869 
L 171.572359 194.264503 
L 171.083661 194.264503 
L 171.083661 194.861349 
L 170.594963 194.861349 
L 170.594963 195.607406 
L 169.617567 195.607406 
L 169.617567 195.905829 
L 168.64017 195.905829 
L 168.64017 196.05504 
L 167.662774 196.05504 
L 167.662774 196.204251 
L 167.174076 196.204251 
L 167.174076 196.502674 
L 166.685378 196.502674 
L 166.685378 196.801097 
L 166.196679 196.801097 
L 166.196679 196.950309 
L 165.707981 196.950309 
L 165.707981 197.09952 
L 165.219283 197.09952 
L 165.219283 197.397943 
L 164.730585 197.397943 
L 164.730585 197.547154 
L 164.241887 197.547154 
L 164.241887 197.696366 
L 160.332301 197.696366 
L 160.332301 197.845577 
L 159.843603 197.845577 
L 159.843603 198.144 
L 159.354905 198.144 
L 159.354905 198.293211 
L 158.866207 198.293211 
L 158.866207 198.442423 
L 158.377509 198.442423 
L 158.377509 198.591634 
L 157.888811 198.591634 
L 157.888811 199.337691 
L 156.911414 199.337691 
L 156.911414 199.486903 
L 156.422716 199.486903 
L 156.422716 199.934537 
L 155.44532 199.934537 
L 155.44532 200.23296 
L 154.467924 200.23296 
L 154.467924 200.979017 
L 153.490527 200.979017 
L 153.490527 201.575863 
L 151.535735 201.575863 
L 151.535735 201.874286 
L 149.580942 201.874286 
L 149.580942 202.023497 
L 148.603546 202.023497 
L 148.603546 202.32192 
L 148.114848 202.32192 
L 148.114848 202.620343 
L 147.626149 202.620343 
L 147.626149 203.067977 
L 147.137451 203.067977 
L 147.137451 203.3664 
L 146.648753 203.3664 
L 146.648753 203.814034 
L 146.160055 203.814034 
L 146.160055 203.963246 
L 145.182659 203.963246 
L 145.182659 204.261669 
L 144.69396 204.261669 
L 144.69396 204.560091 
L 144.205262 204.560091 
L 144.205262 205.156937 
L 143.716564 205.156937 
L 143.716564 205.45536 
L 143.227866 205.45536 
L 143.227866 205.753783 
L 142.739168 205.753783 
L 142.739168 205.902994 
L 142.25047 205.902994 
L 142.25047 206.649051 
L 141.761771 206.649051 
L 141.761771 206.798263 
L 141.273073 206.798263 
L 141.273073 207.096686 
L 137.363488 207.096686 
L 137.363488 207.991954 
L 136.87479 207.991954 
L 136.87479 208.141166 
L 134.919997 208.141166 
L 134.919997 209.036434 
L 133.453903 209.036434 
L 133.453903 209.334857 
L 132.965205 209.334857 
L 132.965205 209.931703 
L 131.987808 209.931703 
L 131.987808 210.080914 
L 131.49911 210.080914 
L 131.49911 210.230126 
L 130.521714 210.230126 
L 130.521714 210.379337 
L 122.213845 210.379337 
L 122.213845 210.528549 
L 120.259052 210.528549 
L 120.259052 210.67776 
L 119.770354 210.67776 
L 119.770354 210.976183 
L 119.281656 210.976183 
L 119.281656 211.125394 
L 118.792958 211.125394 
L 118.792958 211.274606 
L 117.815562 211.274606 
L 117.815562 211.573029 
L 113.417278 211.573029 
L 113.417278 212.319086 
L 112.92858 212.319086 
L 112.92858 213.065143 
L 112.439882 213.065143 
L 112.439882 213.214354 
L 111.951184 213.214354 
L 111.951184 213.363566 
L 111.462486 213.363566 
L 111.462486 213.512777 
L 110.973787 213.512777 
L 110.973787 213.661989 
L 110.485089 213.661989 
L 110.485089 214.109623 
L 109.996391 214.109623 
L 109.996391 214.408046 
L 109.507693 214.408046 
L 109.507693 214.85568 
L 109.018995 214.85568 
L 109.018995 215.303314 
L 108.530297 215.303314 
L 108.530297 215.750949 
L 108.041598 215.750949 
L 108.041598 216.049371 
L 107.064202 216.049371 
L 107.064202 216.795429 
L 106.575504 216.795429 
L 106.575504 216.94464 
L 106.086806 216.94464 
L 106.086806 217.093851 
L 104.620711 217.093851 
L 104.620711 217.243063 
L 101.688522 217.243063 
L 101.688522 217.690697 
L 101.199824 217.690697 
L 101.199824 217.98912 
L 100.711126 217.98912 
L 100.711126 218.138331 
L 100.222428 218.138331 
L 100.222428 219.182811 
L 99.73373 219.182811 
L 99.73373 219.481234 
L 99.245032 219.481234 
L 99.245032 220.07808 
L 98.756333 220.07808 
L 98.756333 220.525714 
L 98.267635 220.525714 
L 98.267635 221.420983 
L 97.778937 221.420983 
L 97.778937 221.868617 
L 97.290239 221.868617 
L 97.290239 222.614674 
L 96.801541 222.614674 
L 96.801541 222.763886 
L 96.312843 222.763886 
L 96.312843 223.21152 
L 95.824144 223.21152 
L 95.824144 223.957577 
L 95.335446 223.957577 
L 95.335446 224.256 
L 94.846748 224.256 
L 94.846748 224.554423 
L 94.35805 224.554423 
L 94.35805 224.703634 
L 93.869352 224.703634 
L 93.869352 225.151269 
L 93.380654 225.151269 
L 93.380654 225.30048 
L 89.959767 225.30048 
L 89.959767 225.449691 
L 89.471068 225.449691 
L 89.471068 225.748114 
L 88.98237 225.748114 
L 88.98237 226.34496 
L 88.004974 226.34496 
L 88.004974 226.941806 
L 87.027578 226.941806 
L 87.027578 227.38944 
L 86.538879 227.38944 
L 86.538879 227.986286 
L 86.050181 227.986286 
L 86.050181 228.284709 
L 85.561483 228.284709 
L 85.561483 228.881554 
L 85.072785 228.881554 
L 85.072785 230.373669 
L 84.584087 230.373669 
L 84.584087 231.268937 
L 84.095389 231.268937 
L 84.095389 233.208686 
L 83.60669 233.208686 
L 83.60669 234.253166 
L 83.117992 234.253166 
L 83.117992 235.446857 
L 82.629294 235.446857 
L 82.629294 236.192914 
L 81.651898 236.192914 
L 81.651898 236.938971 
L 81.1632 236.938971 
L 81.1632 237.088183 
L 80.674502 237.088183 
L 80.674502 237.237394 
L 80.185803 237.237394 
L 80.185803 237.386606 
L 79.697105 237.386606 
L 79.697105 237.685029 
L 79.208407 237.685029 
L 79.208407 237.83424 
L 78.719709 237.83424 
L 78.719709 237.983451 
L 78.231011 237.983451 
L 78.231011 239.177143 
L 77.742313 239.177143 
L 77.742313 241.564526 
L 77.253614 241.564526 
L 77.253614 245.593234 
L 76.764916 245.593234 
L 76.764916 248.428251 
L 76.276218 248.428251 
L 76.276218 252.158537 
L 75.78752 252.158537 
L 75.78752 257.380937 
L 75.298822 257.380937 
L 75.298822 266.0352 
L 74.810124 266.0352 
L 74.810124 272.749714 
L 74.321425 272.749714 
L 74.321425 275.43552 
L 73.832727 275.43552 
L 73.832727 276.48 
L 73.832727 276.48 
z
" clip-path="url(#p88f9127e92)" style="fill: #43b5a0; fill-opacity: 0.8"/>
   </g>
   <g id="matplotlib.axis_1">
    <g id="xtick_1">
     <g id="line2d_1">
      <defs>
       <path id="mc486c941d9" d="M 0 0 
L 0 3.5 
" style="stroke: #ffffff; stroke-width: 0.8"/>
      </defs>
      <g>
       <use xlink:href="#mc486c941d9" x="102.177221" y="276.48" style="fill: #ffffff; stroke: #ffffff; stroke-width: 0.8"/>
      </g>
     </g>
     <g id="text_1">
      <!-- Fri 12/24 -->
      <g style="fill: #ffffff" transform="translate(63.108036 312.01669)rotate(-30)scale(0.1 -0.1)">
       <defs>
        <path id="DejaVuSans-46" d="M 628 4666 
L 3309 4666 
L 3309 4134 
L 1259 4134 
L 1259 2759 
L 3109 2759 
L 3109 2228 
L 1259 2228 
L 1259 0 
L 628 0 
L 628 4666 
z
" transform="scale(0.015625)"/>
        <path id="DejaVuSans-72" d="M 2631 2963 
Q 2534 3019 2420 3045 
Q 2306 3072 2169 3072 
Q 1681 3072 1420 2755 
Q 1159 2438 1159 1844 
L 1159 0 
L 581 0 
L 581 3500 
L 1159 3500 
L 1159 2956 
Q 1341 3275 1631 3429 
Q 1922 3584 2338 3584 
Q 2397 3584 2469 3576 
Q 2541 3569 2628 3553 
L 2631 2963 
z
" transform="scale(0.015625)"/>
        <path id="DejaVuSans-69" d="M 603 3500 
L 1178 3500 
L 1178 0 
L 603 0 
L 603 3500 
z
M 603 4863 
L 1178 4863 
L 1178 4134 
L 603 4134 
L 603 4863 
z
" transform="scale(0.015625)"/>
        <path id="DejaVuSans-20" transform="scale(0.015625)"/>
        <path id="DejaVuSans-31" d="M 794 531 
L 1825 531 
L 1825 4091 
L 703 3866 
L 703 4441 
L 1819 4666 
L 2450 4666 
L 2450 531 
L 3481 531 
L 3481 0 
L 794 0 
L 794 531 
z
" transform="scale(0.015625)"/>
        <path id="DejaVuSans-32" d="M 1228 531 
L 3431 531 
L 3431 0 
L 469 0 
L 469 531 
Q 828 903 1448 1529 
Q 2069 2156 2228 2338 
Q 2531 2678 2651 2914 
Q 2772 3150 2772 3378 
Q 2772 3750 2511 3984 
Q 2250 4219 1831 4219 
Q 1534 4219 1204 4116 
Q 875 4013 500 3803 
L 500 4441 
Q 881 4594 1212 4672 
Q 1544 4750 1819 4750 
Q 2544 4750 2975 4387 
Q 3406 4025 3406 3419 
Q 3406 3131 3298 2873 
Q 3191 2616 2906 2266 
Q 2828 2175 2409 1742 
Q 1991 1309 1228 531 
z
" transform="scale(0.015625)"/>
        <path id="DejaVuSans-2f" d="M 1625 4666 
L 2156 4666 
L 531 -594 
L 0 -594 
L 1625 4666 
z
" transform="scale(0.015625)"/>
        <path id="DejaVuSans-34" d="M 2419 4116 
L 825 1625 
L 2419 1625 
L 2419 4116 
z
M 2253 4666 
L 3047 4666 
L 3047 1625 
L 3713 1625 
L 3713 1100 
L 3047 1100 
L 3047 0 
L 2419 0 
L 2419 1100 
L 313 1100 
L 313 1709 
L 2253 4666 
z
" transform="scale(0.015625)"/>
       </defs>
       <use xlink:href="#DejaVuSans-46"/>
       <use xlink:href="#DejaVuSans-72" x="50.269531"/>
       <use xlink:href="#DejaVuSans-69" x="91.382812"/>
       <use xlink:href="#DejaVuSans-20" x="119.166016"/>
       <use xlink:href="#DejaVuSans-31" x="150.953125"/>
       <use xlink:href="#DejaVuSans-32" x="214.576172"/>
       <use xlink:href="#DejaVuSans-2f" x="278.199219"/>
       <use xlink:href="#DejaVuSans-32" x="311.890625"/>
       <use xlink:href="#DejaVuSans-34" x="375.513672"/>
      </g>
     </g>
    </g>
    <g id="xtick_2">
     <g id="line2d_2">
      <g>
       <use xlink:href="#mc486c941d9" x="137.363488" y="276.48" style="fill: #ffffff; stroke: #ffffff; stroke-width: 0.8"/>
      </g>
     </g>
     <g id="text_2">
      <!-- Mon 12/27 -->
      <g style="fill: #ffffff" transform="translate(90.353933 316.601065)rotate(-30)scale(0.1 -0.1)">
       <defs>
        <path id="DejaVuSans-4d" d="M 628 4666 
L 1569 4666 
L 2759 1491 
L 3956 4666 
L 4897 4666 
L 4897 0 
L 4281 0 
L 4281 4097 
L 3078 897 
L 2444 897 
L 1241 4097 
L 1241 0 
L 628 0 
L 628 4666 
z
" transform="scale(0.015625)"/>
        <path id="DejaVuSans-6f" d="M 1959 3097 
Q 1497 3097 1228 2736 
Q 959 2375 959 1747 
Q 959 1119 1226 758 
Q 1494 397 1959 397 
Q 2419 397 2687 759 
Q 2956 1122 2956 1747 
Q 2956 2369 2687 2733 
Q 2419 3097 1959 3097 
z
M 1959 3584 
Q 2709 3584 3137 3096 
Q 3566 2609 3566 1747 
Q 3566 888 3137 398 
Q 2709 -91 1959 -91 
Q 1206 -91 779 398 
Q 353 888 353 1747 
Q 353 2609 779 3096 
Q 1206 3584 1959 3584 
z
" transform="scale(0.015625)"/>
        <path id="DejaVuSans-6e" d="M 3513 2113 
L 3513 0 
L 2938 0 
L 2938 2094 
Q 2938 2591 2744 2837 
Q 2550 3084 2163 3084 
Q 1697 3084 1428 2787 
Q 1159 2491 1159 1978 
L 1159 0 
L 581 0 
L 581 3500 
L 1159 3500 
L 1159 2956 
Q 1366 3272 1645 3428 
Q 1925 3584 2291 3584 
Q 2894 3584 3203 3211 
Q 3513 2838 3513 2113 
z
" transform="scale(0.015625)"/>
        <path id="DejaVuSans-37" d="M 525 4666 
L 3525 4666 
L 3525 4397 
L 1831 0 
L 1172 0 
L 2766 4134 
L 525 4134 
L 525 4666 
z
" transform="scale(0.015625)"/>
       </defs>
       <use xlink:href="#DejaVuSans-4d"/>
       <use xlink:href="#DejaVuSans-6f" x="86.279297"/>
       <use xlink:href="#DejaVuSans-6e" x="147.460938"/>
       <use xlink:href="#DejaVuSans-20" x="210.839844"/>
       <use xlink:href="#DejaVuSans-31" x="242.626953"/>
       <use xlink:href="#DejaVuSans-32" x="306.25"/>
       <use xlink:href="#DejaVuSans-2f" x="369.873047"/>
       <use xlink:href="#DejaVuSans-32" x="403.564453"/>
       <use xlink:href="#DejaVuSans-37" x="467.1875"/>
      </g>
     </g>
    </g>
    <g id="xtick_3">
     <g id="line2d_3">
      <g>
       <use xlink:href="#mc486c941d9" x="184.278511" y="276.48" style="fill: #ffffff; stroke: #ffffff; stroke-width: 0.8"/>
      </g>
     </g>
     <g id="text_3">
      <!-- Fri 12/31 -->
      <g style="fill: #ffffff" transform="translate(145.209327 312.01669)rotate(-30)scale(0.1 -0.1)">
       <defs>
        <path id="DejaVuSans-33" d="M 2597 2516 
Q 3050 2419 3304 2112 
Q 3559 1806 3559 1356 
Q 3559 666 3084 287 
Q 2609 -91 1734 -91 
Q 1441 -91 1130 -33 
Q 819 25 488 141 
L 488 750 
Q 750 597 1062 519 
Q 1375 441 1716 441 
Q 2309 441 2620 675 
Q 2931 909 2931 1356 
Q 2931 1769 2642 2001 
Q 2353 2234 1838 2234 
L 1294 2234 
L 1294 2753 
L 1863 2753 
Q 2328 2753 2575 2939 
Q 2822 3125 2822 3475 
Q 2822 3834 2567 4026 
Q 2313 4219 1838 4219 
Q 1578 4219 1281 4162 
Q 984 4106 628 3988 
L 628 4550 
Q 988 4650 1302 4700 
Q 1616 4750 1894 4750 
Q 2613 4750 3031 4423 
Q 3450 4097 3450 3541 
Q 3450 3153 3228 2886 
Q 3006 2619 2597 2516 
z
" transform="scale(0.015625)"/>
       </defs>
       <use xlink:href="#DejaVuSans-46"/>
       <use xlink:href="#DejaVuSans-72" x="50.269531"/>
       <use xlink:href="#DejaVuSans-69" x="91.382812"/>
       <use xlink:href="#DejaVuSans-20" x="119.166016"/>
       <use xlink:href="#DejaVuSans-31" x="150.953125"/>
       <use xlink:href="#DejaVuSans-32" x="214.576172"/>
       <use xlink:href="#DejaVuSans-2f" x="278.199219"/>
       <use xlink:href="#DejaVuSans-33" x="311.890625"/>
       <use xlink:href="#DejaVuSans-31" x="375.513672"/>
      </g>
     </g>
    </g>
    <g id="xtick_4">
     <g id="line2d_4">
      <g>
       <use xlink:href="#mc486c941d9" x="219.464779" y="276.48" style="fill: #ffffff; stroke: #ffffff; stroke-width: 0.8"/>
      </g>
     </g>
     <g id="text_4">
      <!-- Mon 01/03 -->
      <g style="fill: #ffffff" transform="translate(172.455224 316.601065)rotate(-30)scale(0.1 -0.1)">
       <defs>
        <path id="DejaVuSans-30" d="M 2034 4250 
Q 1547 4250 1301 3770 
Q 1056 3291 1056 2328 
Q 1056 1369 1301 889 
Q 1547 409 2034 409 
Q 2525 409 2770 889 
Q 3016 1369 3016 2328 
Q 3016 3291 2770 3770 
Q 2525 4250 2034 4250 
z
M 2034 4750 
Q 2819 4750 3233 4129 
Q 3647 3509 3647 2328 
Q 3647 1150 3233 529 
Q 2819 -91 2034 -91 
Q 1250 -91 836 529 
Q 422 1150 422 2328 
Q 422 3509 836 4129 
Q 1250 4750 2034 4750 
z
" transform="scale(0.015625)"/>
       </defs>
       <use xlink:href="#DejaVuSans-4d"/>
       <use xlink:href="#DejaVuSans-6f" x="86.279297"/>
       <use xlink:href="#DejaVuSans-6e" x="147.460938"/>
       <use xlink:href="#DejaVuSans-20" x="210.839844"/>
       <use xlink:href="#DejaVuSans-30" x="242.626953"/>
       <use xlink:href="#DejaVuSans-31" x="306.25"/>
       <use xlink:href="#DejaVuSans-2f" x="369.873047"/>
       <use xlink:href="#DejaVuSans-30" x="403.564453"/>
       <use xlink:href="#DejaVuSans-33" x="467.1875"/>
      </g>
     </g>
    </g>
    <g id="xtick_5">
     <g id="line2d_5">
      <g>
       <use xlink:href="#mc486c941d9" x="266.379802" y="276.48" style="fill: #ffffff; stroke: #ffffff; stroke-width: 0.8"/>
      </g>
     </g>
     <g id="text_5">
      <!-- Fri 01/07 -->
      <g style="fill: #ffffff" transform="translate(227.310618 312.01669)rotate(-30)scale(0.1 -0.1)">
       <use xlink:href="#DejaVuSans-46"/>
       <use xlink:href="#DejaVuSans-72" x="50.269531"/>
       <use xlink:href="#DejaVuSans-69" x="91.382812"/>
       <use xlink:href="#DejaVuSans-20" x="119.166016"/>
       <use xlink:href="#DejaVuSans-30" x="150.953125"/>
       <use xlink:href="#DejaVuSans-31" x="214.576172"/>
       <use xlink:href="#DejaVuSans-2f" x="278.199219"/>
       <use xlink:href="#DejaVuSans-30" x="311.890625"/>
       <use xlink:href="#DejaVuSans-37" x="375.513672"/>
      </g>
     </g>
    </g>
    <g id="xtick_6">
     <g id="line2d_6">
      <g>
       <use xlink:href="#mc486c941d9" x="301.56607" y="276.48" style="fill: #ffffff; stroke: #ffffff; stroke-width: 0.8"/>
      </g>
     </g>
     <g id="text_6">
      <!-- Mon 01/10 -->
      <g style="fill: #ffffff" transform="translate(254.556515 316.601065)rotate(-30)scale(0.1 -0.1)">
       <use xlink:href="#DejaVuSans-4d"/>
       <use xlink:href="#DejaVuSans-6f" x="86.279297"/>
       <use xlink:href="#DejaVuSans-6e" x="147.460938"/>
       <use xlink:href="#DejaVuSans-20" x="210.839844"/>
       <use xlink:href="#DejaVuSans-30" x="242.626953"/>
       <use xlink:href="#DejaVuSans-31" x="306.25"/>
       <use xlink:href="#DejaVuSans-2f" x="369.873047"/>
       <use xlink:href="#DejaVuSans-31" x="403.564453"/>
       <use xlink:href="#DejaVuSans-30" x="467.1875"/>
      </g>
     </g>
    </g>
    <g id="xtick_7">
     <g id="line2d_7">
      <g>
       <use xlink:href="#mc486c941d9" x="348.481093" y="276.48" style="fill: #ffffff; stroke: #ffffff; stroke-width: 0.8"/>
      </g>
     </g>
     <g id="text_7">
      <!-- Fri 01/14 -->
      <g style="fill: #ffffff" transform="translate(309.411909 312.01669)rotate(-30)scale(0.1 -0.1)">
       <use xlink:href="#DejaVuSans-46"/>
       <use xlink:href="#DejaVuSans-72" x="50.269531"/>
       <use xlink:href="#DejaVuSans-69" x="91.382812"/>
       <use xlink:href="#DejaVuSans-20" x="119.166016"/>
       <use xlink:href="#DejaVuSans-30" x="150.953125"/>
       <use xlink:href="#DejaVuSans-31" x="214.576172"/>
       <use xlink:href="#DejaVuSans-2f" x="278.199219"/>
       <use xlink:href="#DejaVuSans-31" x="311.890625"/>
       <use xlink:href="#DejaVuSans-34" x="375.513672"/>
      </g>
     </g>
    </g>
    <g id="xtick_8">
     <g id="line2d_8">
      <g>
       <use xlink:href="#mc486c941d9" x="383.66736" y="276.48" style="fill: #ffffff; stroke: #ffffff; stroke-width: 0.8"/>
      </g>
     </g>
     <g id="text_8">
      <!-- Mon 01/17 -->
      <g style="fill: #ffffff" transform="translate(336.657806 316.601065)rotate(-30)scale(0.1 -0.1)">
       <use xlink:href="#DejaVuSans-4d"/>
       <use xlink:href="#DejaVuSans-6f" x="86.279297"/>
       <use xlink:href="#DejaVuSans-6e" x="147.460938"/>
       <use xlink:href="#DejaVuSans-20" x="210.839844"/>
       <use xlink:href="#DejaVuSans-30" x="242.626953"/>
       <use xlink:href="#DejaVuSans-31" x="306.25"/>
       <use xlink:href="#DejaVuSans-2f" x="369.873047"/>
       <use xlink:href="#DejaVuSans-31" x="403.564453"/>
       <use xlink:href="#DejaVuSans-37" x="467.1875"/>
      </g>
     </g>
    </g>
    <g id="xtick_9">
     <g id="line2d_9">
      <defs>
       <path id="m38a9cd486f" d="M 0 0 
L 0 2 
" style="stroke: #ffffff; stroke-width: 0.6"/>
      </defs>
      <g>
       <use xlink:href="#m38a9cd486f" x="66.990953" y="276.48" style="fill: #ffffff; stroke: #ffffff; stroke-width: 0.6"/>
      </g>
     </g>
    </g>
    <g id="xtick_10">
     <g id="line2d_10">
      <g>
       <use xlink:href="#m38a9cd486f" x="78.719709" y="276.48" style="fill: #ffffff; stroke: #ffffff; stroke-width: 0.6"/>
      </g>
     </g>
    </g>
    <g id="xtick_11">
     <g id="line2d_11">
      <g>
       <use xlink:href="#m38a9cd486f" x="90.448465" y="276.48" style="fill: #ffffff; stroke: #ffffff; stroke-width: 0.6"/>
      </g>
     </g>
    </g>
    <g id="xtick_12">
     <g id="line2d_12">
      <g>
       <use xlink:href="#m38a9cd486f" x="113.905976" y="276.48" style="fill: #ffffff; stroke: #ffffff; stroke-width: 0.6"/>
      </g>
     </g>
    </g>
    <g id="xtick_13">
     <g id="line2d_13">
      <g>
       <use xlink:href="#m38a9cd486f" x="125.634732" y="276.48" style="fill: #ffffff; stroke: #ffffff; stroke-width: 0.6"/>
      </g>
     </g>
    </g>
    <g id="xtick_14">
     <g id="line2d_14">
      <g>
       <use xlink:href="#m38a9cd486f" x="149.092244" y="276.48" style="fill: #ffffff; stroke: #ffffff; stroke-width: 0.6"/>
      </g>
     </g>
    </g>
    <g id="xtick_15">
     <g id="line2d_15">
      <g>
       <use xlink:href="#m38a9cd486f" x="160.821" y="276.48" style="fill: #ffffff; stroke: #ffffff; stroke-width: 0.6"/>
      </g>
     </g>
    </g>
    <g id="xtick_16">
     <g id="line2d_16">
      <g>
       <use xlink:href="#m38a9cd486f" x="172.549755" y="276.48" style="fill: #ffffff; stroke: #ffffff; stroke-width: 0.6"/>
      </g>
     </g>
    </g>
    <g id="xtick_17">
     <g id="line2d_17">
      <g>
       <use xlink:href="#m38a9cd486f" x="196.007267" y="276.48" style="fill: #ffffff; stroke: #ffffff; stroke-width: 0.6"/>
      </g>
     </g>
    </g>
    <g id="xtick_18">
     <g id="line2d_18">
      <g>
       <use xlink:href="#m38a9cd486f" x="207.736023" y="276.48" style="fill: #ffffff; stroke: #ffffff; stroke-width: 0.6"/>
      </g>
     </g>
    </g>
    <g id="xtick_19">
     <g id="line2d_19">
      <g>
       <use xlink:href="#m38a9cd486f" x="231.193535" y="276.48" style="fill: #ffffff; stroke: #ffffff; stroke-width: 0.6"/>
      </g>
     </g>
    </g>
    <g id="xtick_20">
     <g id="line2d_20">
      <g>
       <use xlink:href="#m38a9cd486f" x="242.92229" y="276.48" style="fill: #ffffff; stroke: #ffffff; stroke-width: 0.6"/>
      </g>
     </g>
    </g>
    <g id="xtick_21">
     <g id="line2d_21">
      <g>
       <use xlink:href="#m38a9cd486f" x="254.651046" y="276.48" style="fill: #ffffff; stroke: #ffffff; stroke-width: 0.6"/>
      </g>
     </g>
    </g>
    <g id="xtick_22">
     <g id="line2d_22">
      <g>
       <use xlink:href="#m38a9cd486f" x="278.108558" y="276.48" style="fill: #ffffff; stroke: #ffffff; stroke-width: 0.6"/>
      </g>
     </g>
    </g>
    <g id="xtick_23">
     <g id="line2d_23">
      <g>
       <use xlink:href="#m38a9cd486f" x="289.837314" y="276.48" style="fill: #ffffff; stroke: #ffffff; stroke-width: 0.6"/>
      </g>
     </g>
    </g>
    <g id="xtick_24">
     <g id="line2d_24">
      <g>
       <use xlink:href="#m38a9cd486f" x="313.294825" y="276.48" style="fill: #ffffff; stroke: #ffffff; stroke-width: 0.6"/>
      </g>
     </g>
    </g>
    <g id="xtick_25">
     <g id="line2d_25">
      <g>
       <use xlink:href="#m38a9cd486f" x="325.023581" y="276.48" style="fill: #ffffff; stroke: #ffffff; stroke-width: 0.6"/>
      </g>
     </g>
    </g>
    <g id="xtick_26">
     <g id="line2d_26">
      <g>
       <use xlink:href="#m38a9cd486f" x="336.752337" y="276.48" style="fill: #ffffff; stroke: #ffffff; stroke-width: 0.6"/>
      </g>
     </g>
    </g>
    <g id="xtick_27">
     <g id="line2d_27">
      <g>
       <use xlink:href="#m38a9cd486f" x="360.209849" y="276.48" style="fill: #ffffff; stroke: #ffffff; stroke-width: 0.6"/>
      </g>
     </g>
    </g>
    <g id="xtick_28">
     <g id="line2d_28">
      <g>
       <use xlink:href="#m38a9cd486f" x="371.938605" y="276.48" style="fill: #ffffff; stroke: #ffffff; stroke-width: 0.6"/>
      </g>
     </g>
    </g>
    <g id="xtick_29">
     <g id="line2d_29">
      <g>
       <use xlink:href="#m38a9cd486f" x="395.396116" y="276.48" style="fill: #ffffff; stroke: #ffffff; stroke-width: 0.6"/>
      </g>
     </g>
    </g>
    <g id="xtick_30">
     <g id="line2d_30">
      <g>
       <use xlink:href="#m38a9cd486f" x="407.124872" y="276.48" style="fill: #ffffff; stroke: #ffffff; stroke-width: 0.6"/>
      </g>
     </g>
    </g>
   </g>
   <g id="matplotlib.axis_2">
    <g id="ytick_1">
     <g id="line2d_31">
      <defs>
       <path id="me50398e1d6" d="M 0 0 
L -3.5 0 
" style="stroke: #ffffff; stroke-width: 0.8"/>
      </defs>
      <g>
       <use xlink:href="#me50398e1d6" x="57.6" y="276.48" style="fill: #ffffff; stroke: #ffffff; stroke-width: 0.8"/>
      </g>
     </g>
     <g id="text_9">
      <!-- 0 -->
      <g style="fill: #ffffff" transform="translate(44.2375 280.279219)scale(0.1 -0.1)">
       <use xlink:href="#DejaVuSans-30"/>
      </g>
     </g>
    </g>
    <g id="ytick_2">
     <g id="line2d_32">
      <g>
       <use xlink:href="#me50398e1d6" x="57.6" y="246.637714" style="fill: #ffffff; stroke: #ffffff; stroke-width: 0.8"/>
      </g>
     </g>
     <g id="text_10">
      <!-- 200 -->
      <g style="fill: #ffffff" transform="translate(31.5125 250.436933)scale(0.1 -0.1)">
       <use xlink:href="#DejaVuSans-32"/>
       <use xlink:href="#DejaVuSans-30" x="63.623047"/>
       <use xlink:href="#DejaVuSans-30" x="127.246094"/>
      </g>
     </g>
    </g>
    <g id="ytick_3">
     <g id="line2d_33">
      <g>
       <use xlink:href="#me50398e1d6" x="57.6" y="216.795429" style="fill: #ffffff; stroke: #ffffff; stroke-width: 0.8"/>
      </g>
     </g>
     <g id="text_11">
      <!-- 400 -->
      <g style="fill: #ffffff" transform="translate(31.5125 220.594647)scale(0.1 -0.1)">
       <use xlink:href="#DejaVuSans-34"/>
       <use xlink:href="#DejaVuSans-30" x="63.623047"/>
       <use xlink:href="#DejaVuSans-30" x="127.246094"/>
      </g>
     </g>
    </g>
    <g id="ytick_4">
     <g id="line2d_34">
      <g>
       <use xlink:href="#me50398e1d6" x="57.6" y="186.953143" style="fill: #ffffff; stroke: #ffffff; stroke-width: 0.8"/>
      </g>
     </g>
     <g id="text_12">
      <!-- 600 -->
      <g style="fill: #ffffff" transform="translate(31.5125 190.752362)scale(0.1 -0.1)">
       <defs>
        <path id="DejaVuSans-36" d="M 2113 2584 
Q 1688 2584 1439 2293 
Q 1191 2003 1191 1497 
Q 1191 994 1439 701 
Q 1688 409 2113 409 
Q 2538 409 2786 701 
Q 3034 994 3034 1497 
Q 3034 2003 2786 2293 
Q 2538 2584 2113 2584 
z
M 3366 4563 
L 3366 3988 
Q 3128 4100 2886 4159 
Q 2644 4219 2406 4219 
Q 1781 4219 1451 3797 
Q 1122 3375 1075 2522 
Q 1259 2794 1537 2939 
Q 1816 3084 2150 3084 
Q 2853 3084 3261 2657 
Q 3669 2231 3669 1497 
Q 3669 778 3244 343 
Q 2819 -91 2113 -91 
Q 1303 -91 875 529 
Q 447 1150 447 2328 
Q 447 3434 972 4092 
Q 1497 4750 2381 4750 
Q 2619 4750 2861 4703 
Q 3103 4656 3366 4563 
z
" transform="scale(0.015625)"/>
       </defs>
       <use xlink:href="#DejaVuSans-36"/>
       <use xlink:href="#DejaVuSans-30" x="63.623047"/>
       <use xlink:href="#DejaVuSans-30" x="127.246094"/>
      </g>
     </g>
    </g>
    <g id="ytick_5">
     <g id="line2d_35">
      <g>
       <use xlink:href="#me50398e1d6" x="57.6" y="157.110857" style="fill: #ffffff; stroke: #ffffff; stroke-width: 0.8"/>
      </g>
     </g>
     <g id="text_13">
      <!-- 800 -->
      <g style="fill: #ffffff" transform="translate(31.5125 160.910076)scale(0.1 -0.1)">
       <defs>
        <path id="DejaVuSans-38" d="M 2034 2216 
Q 1584 2216 1326 1975 
Q 1069 1734 1069 1313 
Q 1069 891 1326 650 
Q 1584 409 2034 409 
Q 2484 409 2743 651 
Q 3003 894 3003 1313 
Q 3003 1734 2745 1975 
Q 2488 2216 2034 2216 
z
M 1403 2484 
Q 997 2584 770 2862 
Q 544 3141 544 3541 
Q 544 4100 942 4425 
Q 1341 4750 2034 4750 
Q 2731 4750 3128 4425 
Q 3525 4100 3525 3541 
Q 3525 3141 3298 2862 
Q 3072 2584 2669 2484 
Q 3125 2378 3379 2068 
Q 3634 1759 3634 1313 
Q 3634 634 3220 271 
Q 2806 -91 2034 -91 
Q 1263 -91 848 271 
Q 434 634 434 1313 
Q 434 1759 690 2068 
Q 947 2378 1403 2484 
z
M 1172 3481 
Q 1172 3119 1398 2916 
Q 1625 2713 2034 2713 
Q 2441 2713 2670 2916 
Q 2900 3119 2900 3481 
Q 2900 3844 2670 4047 
Q 2441 4250 2034 4250 
Q 1625 4250 1398 4047 
Q 1172 3844 1172 3481 
z
" transform="scale(0.015625)"/>
       </defs>
       <use xlink:href="#DejaVuSans-38"/>
       <use xlink:href="#DejaVuSans-30" x="63.623047"/>
       <use xlink:href="#DejaVuSans-30" x="127.246094"/>
      </g>
     </g>
    </g>
    <g id="ytick_6">
     <g id="line2d_36">
      <g>
       <use xlink:href="#me50398e1d6" x="57.6" y="127.268571" style="fill: #ffffff; stroke: #ffffff; stroke-width: 0.8"/>
      </g>
     </g>
     <g id="text_14">
      <!-- 1000 -->
      <g style="fill: #ffffff" transform="translate(25.15 131.06779)scale(0.1 -0.1)">
       <use xlink:href="#DejaVuSans-31"/>
       <use xlink:href="#DejaVuSans-30" x="63.623047"/>
       <use xlink:href="#DejaVuSans-30" x="127.246094"/>
       <use xlink:href="#DejaVuSans-30" x="190.869141"/>
      </g>
     </g>
    </g>
    <g id="ytick_7">
     <g id="line2d_37">
      <g>
       <use xlink:href="#me50398e1d6" x="57.6" y="97.426286" style="fill: #ffffff; stroke: #ffffff; stroke-width: 0.8"/>
      </g>
     </g>
     <g id="text_15">
      <!-- 1200 -->
      <g style="fill: #ffffff" transform="translate(25.15 101.225504)scale(0.1 -0.1)">
       <use xlink:href="#DejaVuSans-31"/>
       <use xlink:href="#DejaVuSans-32" x="63.623047"/>
       <use xlink:href="#DejaVuSans-30" x="127.246094"/>
       <use xlink:href="#DejaVuSans-30" x="190.869141"/>
      </g>
     </g>
    </g>
    <g id="ytick_8">
     <g id="line2d_38">
      <g>
       <use xlink:href="#me50398e1d6" x="57.6" y="67.584" style="fill: #ffffff; stroke: #ffffff; stroke-width: 0.8"/>
      </g>
     </g>
     <g id="text_16">
      <!-- 1400 -->
      <g style="fill: #ffffff" transform="translate(25.15 71.383219)scale(0.1 -0.1)">
       <use xlink:href="#DejaVuSans-31"/>
       <use xlink:href="#DejaVuSans-34" x="63.623047"/>
       <use xlink:href="#DejaVuSans-30" x="127.246094"/>
       <use xlink:href="#DejaVuSans-30" x="190.869141"/>
      </g>
     </g>
    </g>
    <g id="text_17">
     <!-- Number of tickets sold -->
     <g style="fill: #ffffff" transform="translate(19.070312 215.329906)rotate(-90)scale(0.1 -0.1)">
      <defs>
       <path id="DejaVuSans-4e" d="M 628 4666 
L 1478 4666 
L 3547 763 
L 3547 4666 
L 4159 4666 
L 4159 0 
L 3309 0 
L 1241 3903 
L 1241 0 
L 628 0 
L 628 4666 
z
" transform="scale(0.015625)"/>
       <path id="DejaVuSans-75" d="M 544 1381 
L 544 3500 
L 1119 3500 
L 1119 1403 
Q 1119 906 1312 657 
Q 1506 409 1894 409 
Q 2359 409 2629 706 
Q 2900 1003 2900 1516 
L 2900 3500 
L 3475 3500 
L 3475 0 
L 2900 0 
L 2900 538 
Q 2691 219 2414 64 
Q 2138 -91 1772 -91 
Q 1169 -91 856 284 
Q 544 659 544 1381 
z
M 1991 3584 
L 1991 3584 
z
" transform="scale(0.015625)"/>
       <path id="DejaVuSans-6d" d="M 3328 2828 
Q 3544 3216 3844 3400 
Q 4144 3584 4550 3584 
Q 5097 3584 5394 3201 
Q 5691 2819 5691 2113 
L 5691 0 
L 5113 0 
L 5113 2094 
Q 5113 2597 4934 2840 
Q 4756 3084 4391 3084 
Q 3944 3084 3684 2787 
Q 3425 2491 3425 1978 
L 3425 0 
L 2847 0 
L 2847 2094 
Q 2847 2600 2669 2842 
Q 2491 3084 2119 3084 
Q 1678 3084 1418 2786 
Q 1159 2488 1159 1978 
L 1159 0 
L 581 0 
L 581 3500 
L 1159 3500 
L 1159 2956 
Q 1356 3278 1631 3431 
Q 1906 3584 2284 3584 
Q 2666 3584 2933 3390 
Q 3200 3197 3328 2828 
z
" transform="scale(0.015625)"/>
       <path id="DejaVuSans-62" d="M 3116 1747 
Q 3116 2381 2855 2742 
Q 2594 3103 2138 3103 
Q 1681 3103 1420 2742 
Q 1159 2381 1159 1747 
Q 1159 1113 1420 752 
Q 1681 391 2138 391 
Q 2594 391 2855 752 
Q 3116 1113 3116 1747 
z
M 1159 2969 
Q 1341 3281 1617 3432 
Q 1894 3584 2278 3584 
Q 2916 3584 3314 3078 
Q 3713 2572 3713 1747 
Q 3713 922 3314 415 
Q 2916 -91 2278 -91 
Q 1894 -91 1617 61 
Q 1341 213 1159 525 
L 1159 0 
L 581 0 
L 581 4863 
L 1159 4863 
L 1159 2969 
z
" transform="scale(0.015625)"/>
       <path id="DejaVuSans-65" d="M 3597 1894 
L 3597 1613 
L 953 1613 
Q 991 1019 1311 708 
Q 1631 397 2203 397 
Q 2534 397 2845 478 
Q 3156 559 3463 722 
L 3463 178 
Q 3153 47 2828 -22 
Q 2503 -91 2169 -91 
Q 1331 -91 842 396 
Q 353 884 353 1716 
Q 353 2575 817 3079 
Q 1281 3584 2069 3584 
Q 2775 3584 3186 3129 
Q 3597 2675 3597 1894 
z
M 3022 2063 
Q 3016 2534 2758 2815 
Q 2500 3097 2075 3097 
Q 1594 3097 1305 2825 
Q 1016 2553 972 2059 
L 3022 2063 
z
" transform="scale(0.015625)"/>
       <path id="DejaVuSans-66" d="M 2375 4863 
L 2375 4384 
L 1825 4384 
Q 1516 4384 1395 4259 
Q 1275 4134 1275 3809 
L 1275 3500 
L 2222 3500 
L 2222 3053 
L 1275 3053 
L 1275 0 
L 697 0 
L 697 3053 
L 147 3053 
L 147 3500 
L 697 3500 
L 697 3744 
Q 697 4328 969 4595 
Q 1241 4863 1831 4863 
L 2375 4863 
z
" transform="scale(0.015625)"/>
       <path id="DejaVuSans-74" d="M 1172 4494 
L 1172 3500 
L 2356 3500 
L 2356 3053 
L 1172 3053 
L 1172 1153 
Q 1172 725 1289 603 
Q 1406 481 1766 481 
L 2356 481 
L 2356 0 
L 1766 0 
Q 1100 0 847 248 
Q 594 497 594 1153 
L 594 3053 
L 172 3053 
L 172 3500 
L 594 3500 
L 594 4494 
L 1172 4494 
z
" transform="scale(0.015625)"/>
       <path id="DejaVuSans-63" d="M 3122 3366 
L 3122 2828 
Q 2878 2963 2633 3030 
Q 2388 3097 2138 3097 
Q 1578 3097 1268 2742 
Q 959 2388 959 1747 
Q 959 1106 1268 751 
Q 1578 397 2138 397 
Q 2388 397 2633 464 
Q 2878 531 3122 666 
L 3122 134 
Q 2881 22 2623 -34 
Q 2366 -91 2075 -91 
Q 1284 -91 818 406 
Q 353 903 353 1747 
Q 353 2603 823 3093 
Q 1294 3584 2113 3584 
Q 2378 3584 2631 3529 
Q 2884 3475 3122 3366 
z
" transform="scale(0.015625)"/>
       <path id="DejaVuSans-6b" d="M 581 4863 
L 1159 4863 
L 1159 1991 
L 2875 3500 
L 3609 3500 
L 1753 1863 
L 3688 0 
L 2938 0 
L 1159 1709 
L 1159 0 
L 581 0 
L 581 4863 
z
" transform="scale(0.015625)"/>
       <path id="DejaVuSans-73" d="M 2834 3397 
L 2834 2853 
Q 2591 2978 2328 3040 
Q 2066 3103 1784 3103 
Q 1356 3103 1142 2972 
Q 928 2841 928 2578 
Q 928 2378 1081 2264 
Q 1234 2150 1697 2047 
L 1894 2003 
Q 2506 1872 2764 1633 
Q 3022 1394 3022 966 
Q 3022 478 2636 193 
Q 2250 -91 1575 -91 
Q 1294 -91 989 -36 
Q 684 19 347 128 
L 347 722 
Q 666 556 975 473 
Q 1284 391 1588 391 
Q 1994 391 2212 530 
Q 2431 669 2431 922 
Q 2431 1156 2273 1281 
Q 2116 1406 1581 1522 
L 1381 1569 
Q 847 1681 609 1914 
Q 372 2147 372 2553 
Q 372 3047 722 3315 
Q 1072 3584 1716 3584 
Q 2034 3584 2315 3537 
Q 2597 3491 2834 3397 
z
" transform="scale(0.015625)"/>
       <path id="DejaVuSans-6c" d="M 603 4863 
L 1178 4863 
L 1178 0 
L 603 0 
L 603 4863 
z
" transform="scale(0.015625)"/>
       <path id="DejaVuSans-64" d="M 2906 2969 
L 2906 4863 
L 3481 4863 
L 3481 0 
L 2906 0 
L 2906 525 
Q 2725 213 2448 61 
Q 2172 -91 1784 -91 
Q 1150 -91 751 415 
Q 353 922 353 1747 
Q 353 2572 751 3078 
Q 1150 3584 1784 3584 
Q 2172 3584 2448 3432 
Q 2725 3281 2906 2969 
z
M 947 1747 
Q 947 1113 1208 752 
Q 1469 391 1925 391 
Q 2381 391 2643 752 
Q 2906 1113 2906 1747 
Q 2906 2381 2643 2742 
Q 2381 3103 1925 3103 
Q 1469 3103 1208 2742 
Q 947 2381 947 1747 
z
" transform="scale(0.015625)"/>
      </defs>
      <use xlink:href="#DejaVuSans-4e"/>
      <use xlink:href="#DejaVuSans-75" x="74.804688"/>
      <use xlink:href="#DejaVuSans-6d" x="138.183594"/>
      <use xlink:href="#DejaVuSans-62" x="235.595703"/>
      <use xlink:href="#DejaVuSans-65" x="299.072266"/>
      <use xlink:href="#DejaVuSans-72" x="360.595703"/>
      <use xlink:href="#DejaVuSans-20" x="401.708984"/>
      <use xlink:href="#DejaVuSans-6f" x="433.496094"/>
      <use xlink:href="#DejaVuSans-66" x="494.677734"/>
      <use xlink:href="#DejaVuSans-20" x="529.882812"/>
      <use xlink:href="#DejaVuSans-74" x="561.669922"/>
      <use xlink:href="#DejaVuSans-69" x="600.878906"/>
      <use xlink:href="#DejaVuSans-63" x="628.662109"/>
      <use xlink:href="#DejaVuSans-6b" x="683.642578"/>
      <use xlink:href="#DejaVuSans-65" x="737.927734"/>
      <use xlink:href="#DejaVuSans-74" x="799.451172"/>
      <use xlink:href="#DejaVuSans-73" x="838.660156"/>
      <use xlink:href="#DejaVuSans-20" x="890.759766"/>
      <use xlink:href="#DejaVuSans-73" x="922.546875"/>
      <use xlink:href="#DejaVuSans-6f" x="974.646484"/>
      <use xlink:href="#DejaVuSans-6c" x="1035.828125"/>
      <use xlink:href="#DejaVuSans-64" x="1063.611328"/>
     </g>
    </g>
   </g>
   <g id="line2d_39">
    <path d="M 57.6 52.662857 
L 414.72 52.662857 
" clip-path="url(#p88f9127e92)" style="fill: none; stroke-dasharray: 5.55,2.4; stroke-dashoffset: 0; stroke: #32cd32; stroke-width: 1.5"/>
   </g>
   <g id="patch_3">
    <path d="M 57.6 276.48 
L 57.6 41.472 
" style="fill: none; stroke: #000000; stroke-width: 0.8; stroke-linejoin: miter; stroke-linecap: square"/>
   </g>
   <g id="patch_4">
    <path d="M 414.72 276.48 
L 414.72 41.472 
" style="fill: none; stroke: #000000; stroke-width: 0.8; stroke-linejoin: miter; stroke-linecap: square"/>
   </g>
   <g id="patch_5">
    <path d="M 57.6 276.48 
L 414.72 276.48 
" style="fill: none; stroke: #000000; stroke-width: 0.8; stroke-linejoin: miter; stroke-linecap: square"/>
   </g>
   <g id="patch_6">
    <path d="M 57.6 41.472 
L 414.72 41.472 
" style="fill: none; stroke: #000000; stroke-width: 0.8; stroke-linejoin: miter; stroke-linecap: square"/>
   </g>
   <g id="text_18">
    <!-- MCH Tickets -->
    <g style="fill: #ffffff" transform="translate(199.504687 35.472)scale(0.12 -0.12)">
     <defs>
      <path id="DejaVuSans-43" d="M 4122 4306 
L 4122 3641 
Q 3803 3938 3442 4084 
Q 3081 4231 2675 4231 
Q 1875 4231 1450 3742 
Q 1025 3253 1025 2328 
Q 1025 1406 1450 917 
Q 1875 428 2675 428 
Q 3081 428 3442 575 
Q 3803 722 4122 1019 
L 4122 359 
Q 3791 134 3420 21 
Q 3050 -91 2638 -91 
Q 1578 -91 968 557 
Q 359 1206 359 2328 
Q 359 3453 968 4101 
Q 1578 4750 2638 4750 
Q 3056 4750 3426 4639 
Q 3797 4528 4122 4306 
z
" transform="scale(0.015625)"/>
      <path id="DejaVuSans-48" d="M 628 4666 
L 1259 4666 
L 1259 2753 
L 3553 2753 
L 3553 4666 
L 4184 4666 
L 4184 0 
L 3553 0 
L 3553 2222 
L 1259 2222 
L 1259 0 
L 628 0 
L 628 4666 
z
" transform="scale(0.015625)"/>
      <path id="DejaVuSans-54" d="M -19 4666 
L 3928 4666 
L 3928 4134 
L 2272 4134 
L 2272 0 
L 1638 0 
L 1638 4134 
L -19 4134 
L -19 4666 
z
" transform="scale(0.015625)"/>
     </defs>
     <use xlink:href="#DejaVuSans-4d"/>
     <use xlink:href="#DejaVuSans-43" x="86.279297"/>
     <use xlink:href="#DejaVuSans-48" x="156.103516"/>
     <use xlink:href="#DejaVuSans-20" x="231.298828"/>
     <use xlink:href="#DejaVuSans-54" x="263.085938"/>
     <use xlink:href="#DejaVuSans-69" x="321.044922"/>
     <use xlink:href="#DejaVuSans-63" x="348.828125"/>
     <use xlink:href="#DejaVuSans-6b" x="403.808594"/>
     <use xlink:href="#DejaVuSans-65" x="458.09375"/>
     <use xlink:href="#DejaVuSans-74" x="519.617188"/>
     <use xlink:href="#DejaVuSans-73" x="558.826172"/>
    </g>
   </g>
   <g id="legend_1">
    <g id="patch_7">
     <path d="M 64.6 93.506375 
L 244.389062 93.506375 
Q 246.389062 93.506375 246.389062 91.506375 
L 246.389062 48.472 
Q 246.389062 46.472 244.389062 46.472 
L 64.6 46.472 
Q 62.6 46.472 62.6 48.472 
L 62.6 91.506375 
Q 62.6 93.506375 64.6 93.506375 
z
" style="fill: #ffffff; opacity: 0.8; stroke: #cccccc; stroke-linejoin: miter"/>
    </g>
    <g id="patch_8">
     <path d="M 66.6 58.070437 
L 86.6 58.070437 
L 86.6 51.070437 
L 66.6 51.070437 
z
" style="fill: #fa448c; fill-opacity: 0.8"/>
    </g>
    <g id="text_19">
     <!-- Early-BirdTickets -->
     <g transform="translate(94.6 58.070437)scale(0.1 -0.1)">
      <defs>
       <path id="DejaVuSans-45" d="M 628 4666 
L 3578 4666 
L 3578 4134 
L 1259 4134 
L 1259 2753 
L 3481 2753 
L 3481 2222 
L 1259 2222 
L 1259 531 
L 3634 531 
L 3634 0 
L 628 0 
L 628 4666 
z
" transform="scale(0.015625)"/>
       <path id="DejaVuSans-61" d="M 2194 1759 
Q 1497 1759 1228 1600 
Q 959 1441 959 1056 
Q 959 750 1161 570 
Q 1363 391 1709 391 
Q 2188 391 2477 730 
Q 2766 1069 2766 1631 
L 2766 1759 
L 2194 1759 
z
M 3341 1997 
L 3341 0 
L 2766 0 
L 2766 531 
Q 2569 213 2275 61 
Q 1981 -91 1556 -91 
Q 1019 -91 701 211 
Q 384 513 384 1019 
Q 384 1609 779 1909 
Q 1175 2209 1959 2209 
L 2766 2209 
L 2766 2266 
Q 2766 2663 2505 2880 
Q 2244 3097 1772 3097 
Q 1472 3097 1187 3025 
Q 903 2953 641 2809 
L 641 3341 
Q 956 3463 1253 3523 
Q 1550 3584 1831 3584 
Q 2591 3584 2966 3190 
Q 3341 2797 3341 1997 
z
" transform="scale(0.015625)"/>
       <path id="DejaVuSans-79" d="M 2059 -325 
Q 1816 -950 1584 -1140 
Q 1353 -1331 966 -1331 
L 506 -1331 
L 506 -850 
L 844 -850 
Q 1081 -850 1212 -737 
Q 1344 -625 1503 -206 
L 1606 56 
L 191 3500 
L 800 3500 
L 1894 763 
L 2988 3500 
L 3597 3500 
L 2059 -325 
z
" transform="scale(0.015625)"/>
       <path id="DejaVuSans-2d" d="M 313 2009 
L 1997 2009 
L 1997 1497 
L 313 1497 
L 313 2009 
z
" transform="scale(0.015625)"/>
       <path id="DejaVuSans-42" d="M 1259 2228 
L 1259 519 
L 2272 519 
Q 2781 519 3026 730 
Q 3272 941 3272 1375 
Q 3272 1813 3026 2020 
Q 2781 2228 2272 2228 
L 1259 2228 
z
M 1259 4147 
L 1259 2741 
L 2194 2741 
Q 2656 2741 2882 2914 
Q 3109 3088 3109 3444 
Q 3109 3797 2882 3972 
Q 2656 4147 2194 4147 
L 1259 4147 
z
M 628 4666 
L 2241 4666 
Q 2963 4666 3353 4366 
Q 3744 4066 3744 3513 
Q 3744 3084 3544 2831 
Q 3344 2578 2956 2516 
Q 3422 2416 3680 2098 
Q 3938 1781 3938 1306 
Q 3938 681 3513 340 
Q 3088 0 2303 0 
L 628 0 
L 628 4666 
z
" transform="scale(0.015625)"/>
      </defs>
      <use xlink:href="#DejaVuSans-45"/>
      <use xlink:href="#DejaVuSans-61" x="63.183594"/>
      <use xlink:href="#DejaVuSans-72" x="124.462891"/>
      <use xlink:href="#DejaVuSans-6c" x="165.576172"/>
      <use xlink:href="#DejaVuSans-79" x="193.359375"/>
      <use xlink:href="#DejaVuSans-2d" x="250.789062"/>
      <use xlink:href="#DejaVuSans-42" x="283.248047"/>
      <use xlink:href="#DejaVuSans-69" x="351.851562"/>
      <use xlink:href="#DejaVuSans-72" x="379.634766"/>
      <use xlink:href="#DejaVuSans-64" x="418.998047"/>
      <use xlink:href="#DejaVuSans-54" x="482.474609"/>
      <use xlink:href="#DejaVuSans-69" x="540.433594"/>
      <use xlink:href="#DejaVuSans-63" x="568.216797"/>
      <use xlink:href="#DejaVuSans-6b" x="623.197266"/>
      <use xlink:href="#DejaVuSans-65" x="677.482422"/>
      <use xlink:href="#DejaVuSans-74" x="739.005859"/>
      <use xlink:href="#DejaVuSans-73" x="778.214844"/>
     </g>
    </g>
    <g id="patch_9">
     <path d="M 66.6 72.748562 
L 86.6 72.748562 
L 86.6 65.748562 
L 66.6 65.748562 
z
" style="fill: #43b5a0; fill-opacity: 0.8"/>
    </g>
    <g id="text_20">
     <!-- RegularTickets -->
     <g transform="translate(94.6 72.748562)scale(0.1 -0.1)">
      <defs>
       <path id="DejaVuSans-52" d="M 2841 2188 
Q 3044 2119 3236 1894 
Q 3428 1669 3622 1275 
L 4263 0 
L 3584 0 
L 2988 1197 
Q 2756 1666 2539 1819 
Q 2322 1972 1947 1972 
L 1259 1972 
L 1259 0 
L 628 0 
L 628 4666 
L 2053 4666 
Q 2853 4666 3247 4331 
Q 3641 3997 3641 3322 
Q 3641 2881 3436 2590 
Q 3231 2300 2841 2188 
z
M 1259 4147 
L 1259 2491 
L 2053 2491 
Q 2509 2491 2742 2702 
Q 2975 2913 2975 3322 
Q 2975 3731 2742 3939 
Q 2509 4147 2053 4147 
L 1259 4147 
z
" transform="scale(0.015625)"/>
       <path id="DejaVuSans-67" d="M 2906 1791 
Q 2906 2416 2648 2759 
Q 2391 3103 1925 3103 
Q 1463 3103 1205 2759 
Q 947 2416 947 1791 
Q 947 1169 1205 825 
Q 1463 481 1925 481 
Q 2391 481 2648 825 
Q 2906 1169 2906 1791 
z
M 3481 434 
Q 3481 -459 3084 -895 
Q 2688 -1331 1869 -1331 
Q 1566 -1331 1297 -1286 
Q 1028 -1241 775 -1147 
L 775 -588 
Q 1028 -725 1275 -790 
Q 1522 -856 1778 -856 
Q 2344 -856 2625 -561 
Q 2906 -266 2906 331 
L 2906 616 
Q 2728 306 2450 153 
Q 2172 0 1784 0 
Q 1141 0 747 490 
Q 353 981 353 1791 
Q 353 2603 747 3093 
Q 1141 3584 1784 3584 
Q 2172 3584 2450 3431 
Q 2728 3278 2906 2969 
L 2906 3500 
L 3481 3500 
L 3481 434 
z
" transform="scale(0.015625)"/>
      </defs>
      <use xlink:href="#DejaVuSans-52"/>
      <use xlink:href="#DejaVuSans-65" x="64.982422"/>
      <use xlink:href="#DejaVuSans-67" x="126.505859"/>
      <use xlink:href="#DejaVuSans-75" x="189.982422"/>
      <use xlink:href="#DejaVuSans-6c" x="253.361328"/>
      <use xlink:href="#DejaVuSans-61" x="281.144531"/>
      <use xlink:href="#DejaVuSans-72" x="342.423828"/>
      <use xlink:href="#DejaVuSans-54" x="383.537109"/>
      <use xlink:href="#DejaVuSans-69" x="441.496094"/>
      <use xlink:href="#DejaVuSans-63" x="469.279297"/>
      <use xlink:href="#DejaVuSans-6b" x="524.259766"/>
      <use xlink:href="#DejaVuSans-65" x="578.544922"/>
      <use xlink:href="#DejaVuSans-74" x="640.068359"/>
      <use xlink:href="#DejaVuSans-73" x="679.277344"/>
     </g>
    </g>
    <g id="line2d_40">
     <path d="M 66.6 83.926687 
L 76.6 83.926687 
L 86.6 83.926687 
" style="fill: none; stroke-dasharray: 5.55,2.4; stroke-dashoffset: 0; stroke: #32cd32; stroke-width: 1.5"/>
    </g>
    <g id="text_21">
     <!-- Required tickets w/ donations -->
     <g transform="translate(94.6 87.426687)scale(0.1 -0.1)">
      <defs>
       <path id="DejaVuSans-71" d="M 947 1747 
Q 947 1113 1208 752 
Q 1469 391 1925 391 
Q 2381 391 2643 752 
Q 2906 1113 2906 1747 
Q 2906 2381 2643 2742 
Q 2381 3103 1925 3103 
Q 1469 3103 1208 2742 
Q 947 2381 947 1747 
z
M 2906 525 
Q 2725 213 2448 61 
Q 2172 -91 1784 -91 
Q 1150 -91 751 415 
Q 353 922 353 1747 
Q 353 2572 751 3078 
Q 1150 3584 1784 3584 
Q 2172 3584 2448 3432 
Q 2725 3281 2906 2969 
L 2906 3500 
L 3481 3500 
L 3481 -1331 
L 2906 -1331 
L 2906 525 
z
" transform="scale(0.015625)"/>
       <path id="DejaVuSans-77" d="M 269 3500 
L 844 3500 
L 1563 769 
L 2278 3500 
L 2956 3500 
L 3675 769 
L 4391 3500 
L 4966 3500 
L 4050 0 
L 3372 0 
L 2619 2869 
L 1863 0 
L 1184 0 
L 269 3500 
z
" transform="scale(0.015625)"/>
      </defs>
      <use xlink:href="#DejaVuSans-52"/>
      <use xlink:href="#DejaVuSans-65" x="64.982422"/>
      <use xlink:href="#DejaVuSans-71" x="126.505859"/>
      <use xlink:href="#DejaVuSans-75" x="189.982422"/>
      <use xlink:href="#DejaVuSans-69" x="253.361328"/>
      <use xlink:href="#DejaVuSans-72" x="281.144531"/>
      <use xlink:href="#DejaVuSans-65" x="320.007812"/>
      <use xlink:href="#DejaVuSans-64" x="381.53125"/>
      <use xlink:href="#DejaVuSans-20" x="445.007812"/>
      <use xlink:href="#DejaVuSans-74" x="476.794922"/>
      <use xlink:href="#DejaVuSans-69" x="516.003906"/>
      <use xlink:href="#DejaVuSans-63" x="543.787109"/>
      <use xlink:href="#DejaVuSans-6b" x="598.767578"/>
      <use xlink:href="#DejaVuSans-65" x="653.052734"/>
      <use xlink:href="#DejaVuSans-74" x="714.576172"/>
      <use xlink:href="#DejaVuSans-73" x="753.785156"/>
      <use xlink:href="#DejaVuSans-20" x="805.884766"/>
      <use xlink:href="#DejaVuSans-77" x="837.671875"/>
      <use xlink:href="#DejaVuSans-2f" x="919.458984"/>
      <use xlink:href="#DejaVuSans-20" x="953.150391"/>
      <use xlink:href="#DejaVuSans-64" x="984.9375"/>
      <use xlink:href="#DejaVuSans-6f" x="1048.414062"/>
      <use xlink:href="#DejaVuSans-6e" x="1109.595703"/>
      <use xlink:href="#DejaVuSans-61" x="1172.974609"/>
      <use xlink:href="#DejaVuSans-74" x="1234.253906"/>
      <use xlink:href="#DejaVuSans-69" x="1273.462891"/>
      <use xlink:href="#DejaVuSans-6f" x="1301.246094"/>
      <use xlink:href="#DejaVuSans-6e" x="1362.427734"/>
      <use xlink:href="#DejaVuSans-73" x="1425.806641"/>
     </g>
    </g>
   </g>
  </g>
 </g>
 <defs>
  <clipPath id="p88f9127e92">
   <rect x="57.6" y="41.472" width="357.12" height="235.008"/>
  </clipPath>
 </defs>
</svg>
