<?xml version="1.0" encoding="utf-8" standalone="no"?>
<!DOCTYPE svg PUBLIC "-//W3C//DTD SVG 1.1//EN"
  "http://www.w3.org/Graphics/SVG/1.1/DTD/svg11.dtd">
<svg xmlns:xlink="http://www.w3.org/1999/xlink" width="460.8pt" height="345.6pt" viewBox="0 0 460.8 345.6" xmlns="http://www.w3.org/2000/svg" version="1.1">
 <metadata>
  <rdf:RDF xmlns:dc="http://purl.org/dc/elements/1.1/" xmlns:cc="http://creativecommons.org/ns#" xmlns:rdf="http://www.w3.org/1999/02/22-rdf-syntax-ns#">
   <cc:Work>
    <dc:type rdf:resource="http://purl.org/dc/dcmitype/StillImage"/>
    <dc:date>2022-01-18T04:24:45.934153</dc:date>
    <dc:format>image/svg+xml</dc:format>
    <dc:creator>
     <cc:Agent>
      <dc:title>Matplotlib v3.5.1, https://matplotlib.org/</dc:title>
     </cc:Agent>
    </dc:creator>
   </cc:Work>
  </rdf:RDF>
 </metadata>
 <defs>
  <style type="text/css">*{stroke-linejoin: round; stroke-linecap: butt}</style>
 </defs>
 <g id="figure_1">
  <g id="patch_1">
   <path d="M 0 345.6 
L 460.8 345.6 
L 460.8 0 
L 0 0 
z
" style="fill: #491d88"/>
  </g>
  <g id="axes_1">
   <g id="patch_2">
    <path d="M 57.6 276.48 
L 414.72 276.48 
L 414.72 41.472 
L 57.6 41.472 
z
" style="fill: #fec859"/>
   </g>
   <g id="PolyCollection_1">
    <path d="M 73.832727 276.48 
L 73.832727 276.48 
L 73.832727 276.48 
L 73.832727 276.48 
L 74.322836 276.48 
L 74.322836 276.48 
L 74.812946 276.48 
L 74.812946 276.48 
L 75.303055 276.48 
L 75.303055 276.48 
L 75.793164 276.48 
L 75.793164 276.48 
L 76.283273 276.48 
L 76.283273 276.48 
L 76.773382 276.48 
L 76.773382 276.48 
L 77.263492 276.48 
L 77.263492 276.48 
L 77.753601 276.48 
L 77.753601 276.48 
L 78.24371 276.48 
L 78.24371 276.48 
L 78.733819 276.48 
L 78.733819 276.48 
L 79.223928 276.48 
L 79.223928 276.48 
L 79.714037 276.48 
L 79.714037 276.48 
L 80.204147 276.48 
L 80.204147 276.48 
L 80.694256 276.48 
L 80.694256 276.48 
L 81.184365 276.48 
L 81.184365 276.48 
L 81.674474 276.48 
L 81.674474 276.48 
L 82.654692 276.48 
L 82.654692 276.48 
L 83.144802 276.48 
L 83.144802 276.48 
L 83.634911 276.48 
L 83.634911 276.48 
L 84.12502 276.48 
L 84.12502 276.48 
L 84.615129 276.48 
L 84.615129 276.48 
L 85.105238 276.48 
L 85.105238 276.48 
L 85.595347 276.48 
L 85.595347 276.48 
L 86.085457 276.48 
L 86.085457 276.48 
L 86.575566 276.48 
L 86.575566 276.48 
L 87.065675 276.48 
L 87.065675 276.48 
L 88.045893 276.48 
L 88.045893 276.48 
L 89.026112 276.48 
L 89.026112 276.48 
L 89.516221 276.48 
L 89.516221 276.48 
L 90.00633 276.48 
L 90.00633 276.48 
L 93.437094 276.48 
L 93.437094 276.48 
L 93.927203 276.48 
L 93.927203 276.48 
L 94.417313 276.48 
L 94.417313 276.48 
L 94.907422 276.48 
L 94.907422 276.48 
L 95.397531 276.48 
L 95.397531 276.48 
L 95.88764 276.48 
L 95.88764 276.48 
L 96.377749 276.48 
L 96.377749 276.48 
L 96.867859 276.48 
L 96.867859 276.48 
L 97.357968 276.48 
L 97.357968 276.48 
L 97.848077 276.48 
L 97.848077 276.48 
L 98.338186 276.48 
L 98.338186 276.48 
L 98.828295 276.48 
L 98.828295 276.48 
L 99.318404 276.48 
L 99.318404 276.48 
L 99.808514 276.48 
L 99.808514 276.48 
L 100.298623 276.48 
L 100.298623 276.48 
L 100.788732 276.48 
L 100.788732 276.48 
L 101.278841 276.48 
L 101.278841 276.48 
L 101.76895 276.48 
L 101.76895 276.48 
L 104.709605 276.48 
L 104.709605 276.48 
L 106.179933 276.48 
L 106.179933 276.48 
L 106.670042 276.48 
L 106.670042 276.48 
L 107.160151 276.48 
L 107.160151 276.48 
L 108.14037 276.48 
L 108.14037 276.48 
L 108.630479 276.48 
L 108.630479 276.48 
L 109.120588 276.48 
L 109.120588 276.48 
L 109.610697 276.48 
L 109.610697 276.48 
L 110.100806 276.48 
L 110.100806 276.48 
L 110.590915 276.48 
L 110.590915 276.48 
L 111.081025 276.48 
L 111.081025 276.48 
L 111.571134 276.48 
L 111.571134 276.48 
L 112.061243 276.48 
L 112.061243 276.48 
L 112.551352 276.48 
L 112.551352 276.48 
L 113.041461 276.48 
L 113.041461 276.48 
L 113.53157 276.48 
L 113.53157 276.48 
L 117.942553 276.48 
L 117.942553 276.48 
L 118.922771 276.48 
L 118.922771 276.48 
L 119.412881 276.48 
L 119.412881 276.48 
L 119.90299 276.48 
L 119.90299 276.48 
L 120.393099 276.48 
L 120.393099 276.48 
L 122.353536 276.48 
L 122.353536 276.48 
L 130.685392 276.48 
L 130.685392 276.48 
L 131.66561 276.48 
L 131.66561 276.48 
L 132.155719 276.48 
L 132.155719 276.48 
L 133.135937 276.48 
L 133.135937 276.48 
L 133.626047 276.48 
L 133.626047 276.48 
L 135.096374 276.48 
L 135.096374 276.48 
L 137.056811 276.48 
L 137.056811 276.48 
L 137.54692 276.48 
L 137.54692 276.48 
L 141.467793 276.48 
L 141.467793 276.48 
L 141.957903 276.48 
L 141.957903 276.48 
L 142.448012 276.48 
L 142.448012 276.48 
L 142.938121 276.48 
L 142.938121 276.48 
L 143.42823 276.48 
L 143.42823 276.48 
L 143.918339 276.48 
L 143.918339 276.48 
L 144.408449 276.48 
L 144.408449 276.48 
L 144.898558 276.48 
L 144.898558 276.48 
L 145.388667 276.48 
L 145.388667 276.48 
L 146.368885 276.48 
L 146.368885 276.48 
L 146.858994 276.48 
L 146.858994 276.48 
L 147.349104 276.48 
L 147.349104 276.48 
L 147.839213 276.48 
L 147.839213 276.48 
L 148.329322 276.48 
L 148.329322 276.48 
L 148.819431 276.48 
L 148.819431 276.48 
L 149.799649 276.48 
L 149.799649 276.48 
L 151.760086 276.48 
L 151.760086 276.48 
L 153.720523 276.48 
L 153.720523 276.48 
L 154.700741 276.48 
L 154.700741 276.48 
L 155.68096 276.48 
L 155.68096 276.48 
L 156.661178 276.48 
L 156.661178 276.48 
L 157.151287 276.48 
L 157.151287 276.48 
L 158.131505 276.48 
L 158.131505 276.48 
L 158.621615 276.48 
L 158.621615 276.48 
L 159.111724 276.48 
L 159.111724 276.48 
L 159.601833 276.48 
L 159.601833 276.48 
L 160.091942 276.48 
L 160.091942 276.48 
L 160.582051 276.48 
L 160.582051 276.48 
L 164.502925 276.48 
L 164.502925 276.48 
L 164.993034 276.48 
L 164.993034 276.48 
L 165.483143 276.48 
L 165.483143 276.48 
L 165.973252 276.48 
L 165.973252 276.48 
L 166.463361 276.48 
L 166.463361 276.48 
L 166.953471 276.48 
L 166.953471 276.48 
L 167.44358 276.48 
L 167.44358 276.48 
L 167.933689 276.48 
L 167.933689 276.48 
L 168.913907 276.48 
L 168.913907 276.48 
L 169.894126 276.48 
L 169.894126 276.48 
L 170.874344 276.48 
L 170.874344 276.48 
L 171.364453 276.48 
L 171.364453 276.48 
L 171.854562 276.48 
L 171.854562 276.48 
L 172.344672 276.48 
L 172.344672 276.48 
L 173.32489 276.48 
L 173.32489 276.48 
L 173.814999 276.48 
L 173.814999 276.48 
L 174.305108 276.48 
L 174.305108 276.48 
L 176.265545 276.48 
L 176.265545 276.48 
L 177.735872 276.48 
L 177.735872 276.48 
L 178.225982 276.48 
L 178.225982 276.48 
L 180.186418 276.48 
L 180.186418 276.48 
L 181.166637 276.48 
L 181.166637 276.48 
L 181.656746 276.48 
L 181.656746 276.48 
L 182.146855 276.48 
L 182.146855 276.48 
L 182.636964 276.48 
L 182.636964 276.48 
L 183.127073 276.48 
L 183.127073 276.48 
L 183.617183 276.48 
L 183.617183 276.48 
L 184.597401 276.48 
L 184.597401 276.48 
L 187.538056 276.48 
L 187.538056 276.48 
L 188.028165 276.48 
L 188.028165 276.48 
L 188.518274 276.48 
L 188.518274 276.48 
L 189.498493 276.48 
L 189.498493 276.48 
L 189.988602 276.48 
L 189.988602 276.48 
L 190.96882 276.48 
L 190.96882 276.48 
L 191.458929 276.48 
L 191.458929 276.48 
L 192.929257 276.48 
L 192.929257 276.48 
L 193.419366 276.48 
L 193.419366 276.48 
L 194.399584 276.48 
L 194.399584 276.48 
L 194.889694 276.48 
L 194.889694 276.48 
L 195.379803 276.48 
L 195.379803 276.48 
L 195.869912 276.48 
L 195.869912 276.48 
L 196.360021 276.48 
L 196.360021 276.48 
L 201.261113 276.48 
L 201.261113 276.48 
L 202.241331 276.48 
L 202.241331 276.48 
L 202.73144 276.48 
L 202.73144 276.48 
L 204.201768 276.48 
L 204.201768 276.48 
L 204.691877 276.48 
L 204.691877 276.48 
L 205.181986 276.48 
L 205.181986 276.48 
L 206.652314 276.48 
L 206.652314 276.48 
L 207.142423 276.48 
L 207.142423 276.48 
L 212.043515 276.48 
L 212.043515 276.48 
L 213.023733 276.48 
L 213.023733 276.48 
L 214.003951 276.48 
L 214.003951 276.48 
L 214.494061 276.48 
L 214.494061 276.48 
L 214.98417 276.48 
L 214.98417 276.48 
L 215.474279 276.48 
L 215.474279 276.48 
L 215.964388 276.48 
L 215.964388 276.48 
L 216.944606 276.48 
L 216.944606 276.48 
L 217.924825 276.48 
L 217.924825 276.48 
L 218.905043 276.48 
L 218.905043 276.48 
L 219.395152 276.48 
L 219.395152 276.48 
L 219.885262 276.48 
L 219.885262 276.48 
L 223.806135 276.48 
L 223.806135 276.48 
L 225.276462 276.48 
L 225.276462 276.48 
L 225.766572 276.48 
L 225.766572 276.48 
L 227.236899 276.48 
L 227.236899 276.48 
L 228.217118 276.48 
L 228.217118 276.48 
L 228.707227 276.48 
L 228.707227 276.48 
L 229.197336 276.48 
L 229.197336 276.48 
L 229.687445 276.48 
L 229.687445 276.48 
L 230.667663 276.48 
L 230.667663 276.48 
L 235.078646 276.48 
L 235.078646 276.48 
L 237.529192 276.48 
L 237.529192 276.48 
L 238.019301 276.48 
L 238.019301 276.48 
L 239.489629 276.48 
L 239.489629 276.48 
L 240.469847 276.48 
L 240.469847 276.48 
L 240.959956 276.48 
L 240.959956 276.48 
L 241.450065 276.48 
L 241.450065 276.48 
L 241.940174 276.48 
L 241.940174 276.48 
L 242.430284 276.48 
L 242.430284 276.48 
L 242.920393 276.48 
L 242.920393 276.48 
L 246.841266 276.48 
L 246.841266 276.48 
L 247.821485 276.48 
L 247.821485 276.48 
L 248.311594 276.48 
L 248.311594 276.48 
L 248.801703 276.48 
L 248.801703 276.48 
L 249.291812 276.48 
L 249.291812 276.48 
L 249.781921 276.48 
L 249.781921 276.48 
L 250.27203 276.48 
L 250.27203 276.48 
L 250.76214 276.48 
L 250.76214 276.48 
L 251.252249 276.48 
L 251.252249 276.48 
L 252.232467 276.48 
L 252.232467 276.48 
L 258.603886 276.48 
L 258.603886 276.48 
L 260.564323 276.48 
L 260.564323 276.48 
L 261.544541 276.48 
L 261.544541 276.48 
L 262.034651 276.48 
L 262.034651 276.48 
L 263.504978 276.48 
L 263.504978 276.48 
L 263.995087 276.48 
L 263.995087 276.48 
L 264.485197 276.48 
L 264.485197 276.48 
L 265.955524 276.48 
L 265.955524 276.48 
L 267.425852 276.48 
L 267.425852 276.48 
L 270.856616 276.48 
L 270.856616 276.48 
L 271.346725 276.48 
L 271.346725 276.48 
L 271.836834 276.48 
L 271.836834 276.48 
L 272.326943 276.48 
L 272.326943 276.48 
L 272.817052 276.48 
L 272.817052 276.48 
L 274.28738 276.48 
L 274.28738 276.48 
L 275.757708 276.48 
L 275.757708 276.48 
L 277.228035 276.48 
L 277.228035 276.48 
L 285.069782 276.48 
L 285.069782 276.48 
L 287.030219 276.48 
L 287.030219 276.48 
L 287.520328 276.48 
L 287.520328 276.48 
L 296.342293 276.48 
L 296.342293 276.48 
L 296.832402 276.48 
L 296.832402 276.48 
L 297.322511 276.48 
L 297.322511 276.48 
L 298.30273 276.48 
L 298.30273 276.48 
L 298.792839 276.48 
L 298.792839 276.48 
L 299.282948 276.48 
L 299.282948 276.48 
L 300.263166 276.48 
L 300.263166 276.48 
L 304.674149 276.48 
L 304.674149 276.48 
L 305.654367 276.48 
L 305.654367 276.48 
L 307.124695 276.48 
L 307.124695 276.48 
L 308.104913 276.48 
L 308.104913 276.48 
L 310.06535 276.48 
L 310.06535 276.48 
L 313.006005 276.48 
L 313.006005 276.48 
L 319.377424 276.48 
L 319.377424 276.48 
L 319.867533 276.48 
L 319.867533 276.48 
L 321.337861 276.48 
L 321.337861 276.48 
L 322.318079 276.48 
L 322.318079 276.48 
L 322.808188 276.48 
L 322.808188 276.48 
L 323.788407 276.48 
L 323.788407 276.48 
L 328.199389 276.48 
L 328.199389 276.48 
L 329.669717 276.48 
L 329.669717 276.48 
L 330.649935 276.48 
L 330.649935 276.48 
L 331.140044 276.48 
L 331.140044 276.48 
L 331.630154 276.48 
L 331.630154 276.48 
L 333.59059 276.48 
L 333.59059 276.48 
L 335.060918 276.48 
L 335.060918 276.48 
L 335.551027 276.48 
L 335.551027 276.48 
L 336.041136 276.48 
L 336.041136 276.48 
L 336.531245 276.48 
L 336.531245 276.48 
L 341.432337 276.48 
L 341.432337 276.48 
L 342.412555 276.48 
L 342.412555 276.48 
L 344.863101 276.48 
L 344.863101 276.48 
L 347.313647 276.48 
L 347.313647 276.48 
L 347.803756 276.48 
L 347.803756 276.48 
L 348.293866 276.48 
L 348.293866 276.48 
L 349.274084 276.48 
L 349.274084 276.48 
L 351.72463 276.48 
L 351.72463 276.48 
L 352.704848 276.48 
L 352.704848 276.48 
L 354.665285 276.48 
L 354.665285 276.48 
L 358.586158 276.48 
L 358.586158 276.48 
L 360.546595 276.48 
L 360.546595 276.48 
L 363.43203 276.48 
L 363.43203 276.48 
L 363.632952 276.48 
L 363.632952 276.48 
L 363.808296 276.48 
L 363.808296 276.48 
L 364.155944 276.48 
L 364.155944 276.48 
L 364.376411 276.48 
L 364.376411 276.48 
L 364.60779 276.48 
L 364.60779 276.48 
L 364.78107 276.48 
L 364.78107 276.48 
L 365.138447 276.48 
L 365.138447 276.48 
L 365.333276 276.48 
L 365.333276 276.48 
L 365.595549 276.48 
L 365.595549 276.48 
L 365.788259 276.48 
L 365.788259 276.48 
L 366.09506 276.48 
L 366.09506 276.48 
L 366.28799 276.48 
L 366.28799 276.48 
L 366.547779 276.48 
L 366.547779 276.48 
L 366.729601 276.48 
L 366.729601 276.48 
L 367.155236 276.48 
L 367.155236 276.48 
L 367.431535 276.48 
L 367.431535 276.48 
L 367.74978 276.48 
L 367.74978 276.48 
L 367.773999 276.48 
L 367.773999 276.48 
L 367.788266 276.48 
L 367.788266 276.48 
L 368.030277 276.48 
L 368.030277 276.48 
L 368.21522 276.48 
L 368.21522 276.48 
L 368.540192 276.48 
L 368.540192 276.48 
L 368.750277 276.48 
L 368.750277 276.48 
L 369.103918 276.48 
L 369.103918 276.48 
L 369.802824 276.48 
L 369.802824 276.48 
L 369.823056 276.48 
L 369.823056 276.48 
L 369.848057 276.48 
L 369.848057 276.48 
L 370.031716 276.48 
L 370.031716 276.48 
L 370.239547 276.48 
L 370.239547 276.48 
L 370.465259 276.48 
L 370.465259 276.48 
L 370.651257 276.48 
L 370.651257 276.48 
L 370.992638 276.48 
L 370.992638 276.48 
L 371.452696 276.48 
L 371.452696 276.48 
L 376.897196 276.48 
L 376.897196 276.48 
L 378.309641 276.48 
L 378.309641 276.48 
L 379.513399 276.48 
L 379.513399 276.48 
L 379.79273 276.48 
L 379.79273 276.48 
L 381.16294 276.48 
L 381.16294 276.48 
L 381.510379 276.48 
L 381.510379 276.48 
L 381.791103 276.48 
L 381.791103 276.48 
L 382.229322 276.48 
L 382.229322 276.48 
L 389.630902 276.48 
L 389.630902 276.48 
L 392.641304 276.48 
L 392.641304 276.48 
L 394.709541 276.48 
L 394.709541 276.48 
L 394.983707 276.48 
L 394.983707 276.48 
L 395.985095 276.48 
L 395.985095 276.48 
L 396.847414 276.48 
L 396.847414 276.48 
L 398.487273 276.48 
L 398.487273 276.48 
L 398.487273 200.083749 
L 398.487273 200.083749 
L 398.487273 200.083749 
L 396.847414 200.083749 
L 396.847414 200.083749 
L 395.985095 200.083749 
L 395.985095 200.083749 
L 394.983707 200.083749 
L 394.983707 200.083749 
L 394.709541 200.083749 
L 394.709541 200.083749 
L 392.641304 200.083749 
L 392.641304 200.083749 
L 389.630902 200.083749 
L 389.630902 200.083749 
L 382.229322 200.083749 
L 382.229322 200.083749 
L 381.791103 200.083749 
L 381.791103 200.083749 
L 381.510379 200.083749 
L 381.510379 200.083749 
L 381.16294 200.083749 
L 381.16294 200.083749 
L 379.79273 200.083749 
L 379.79273 200.083749 
L 379.513399 200.083749 
L 379.513399 200.083749 
L 378.309641 200.083749 
L 378.309641 200.083749 
L 376.897196 200.083749 
L 376.897196 200.083749 
L 371.452696 200.083749 
L 371.452696 200.083749 
L 370.992638 200.083749 
L 370.992638 200.083749 
L 370.651257 200.083749 
L 370.651257 200.083749 
L 370.465259 200.083749 
L 370.465259 200.083749 
L 370.239547 200.083749 
L 370.239547 200.083749 
L 370.031716 200.083749 
L 370.031716 200.083749 
L 369.848057 200.083749 
L 369.848057 200.083749 
L 369.823056 200.083749 
L 369.823056 200.083749 
L 369.802824 200.083749 
L 369.802824 200.083749 
L 369.103918 200.083749 
L 369.103918 200.083749 
L 368.750277 200.083749 
L 368.750277 200.083749 
L 368.540192 200.083749 
L 368.540192 200.083749 
L 368.21522 200.083749 
L 368.21522 200.083749 
L 368.030277 200.083749 
L 368.030277 200.083749 
L 367.788266 200.083749 
L 367.788266 200.083749 
L 367.773999 200.083749 
L 367.773999 200.083749 
L 367.74978 200.083749 
L 367.74978 200.083749 
L 367.431535 200.083749 
L 367.431535 200.083749 
L 367.155236 200.083749 
L 367.155236 200.083749 
L 366.729601 200.083749 
L 366.729601 200.083749 
L 366.547779 200.083749 
L 366.547779 200.083749 
L 366.28799 200.083749 
L 366.28799 200.083749 
L 366.09506 200.083749 
L 366.09506 200.083749 
L 365.788259 200.083749 
L 365.788259 200.083749 
L 365.595549 200.083749 
L 365.595549 200.083749 
L 365.333276 200.083749 
L 365.333276 200.083749 
L 365.138447 200.083749 
L 365.138447 200.083749 
L 364.78107 200.083749 
L 364.78107 200.083749 
L 364.60779 200.083749 
L 364.60779 200.083749 
L 364.376411 200.083749 
L 364.376411 200.083749 
L 364.155944 200.083749 
L 364.155944 200.083749 
L 363.808296 200.083749 
L 363.808296 200.083749 
L 363.632952 200.083749 
L 363.632952 200.083749 
L 363.43203 200.083749 
L 363.43203 202.023497 
L 360.546595 202.023497 
L 360.546595 202.023497 
L 358.586158 202.023497 
L 358.586158 202.023497 
L 354.665285 202.023497 
L 354.665285 202.023497 
L 352.704848 202.023497 
L 352.704848 202.023497 
L 351.72463 202.023497 
L 351.72463 202.023497 
L 349.274084 202.023497 
L 349.274084 202.023497 
L 348.293866 202.023497 
L 348.293866 202.023497 
L 347.803756 202.023497 
L 347.803756 202.023497 
L 347.313647 202.023497 
L 347.313647 202.023497 
L 344.863101 202.023497 
L 344.863101 202.023497 
L 342.412555 202.023497 
L 342.412555 202.023497 
L 341.432337 202.023497 
L 341.432337 202.023497 
L 336.531245 202.023497 
L 336.531245 202.023497 
L 336.041136 202.023497 
L 336.041136 202.023497 
L 335.551027 202.023497 
L 335.551027 202.023497 
L 335.060918 202.023497 
L 335.060918 202.023497 
L 333.59059 202.023497 
L 333.59059 202.023497 
L 331.630154 202.023497 
L 331.630154 202.023497 
L 331.140044 202.023497 
L 331.140044 202.023497 
L 330.649935 202.023497 
L 330.649935 202.023497 
L 329.669717 202.023497 
L 329.669717 202.023497 
L 328.199389 202.023497 
L 328.199389 202.023497 
L 323.788407 202.023497 
L 323.788407 202.023497 
L 322.808188 202.023497 
L 322.808188 202.023497 
L 322.318079 202.023497 
L 322.318079 202.023497 
L 321.337861 202.023497 
L 321.337861 202.023497 
L 319.867533 202.023497 
L 319.867533 202.023497 
L 319.377424 202.023497 
L 319.377424 202.023497 
L 313.006005 202.023497 
L 313.006005 202.023497 
L 310.06535 202.023497 
L 310.06535 202.023497 
L 308.104913 202.023497 
L 308.104913 202.023497 
L 307.124695 202.023497 
L 307.124695 202.023497 
L 305.654367 202.023497 
L 305.654367 202.023497 
L 304.674149 202.023497 
L 304.674149 202.023497 
L 300.263166 202.023497 
L 300.263166 202.023497 
L 299.282948 202.023497 
L 299.282948 202.023497 
L 298.792839 202.023497 
L 298.792839 202.023497 
L 298.30273 202.023497 
L 298.30273 202.023497 
L 297.322511 202.023497 
L 297.322511 202.023497 
L 296.832402 202.023497 
L 296.832402 202.023497 
L 296.342293 202.023497 
L 296.342293 202.023497 
L 287.520328 202.023497 
L 287.520328 202.023497 
L 287.030219 202.023497 
L 287.030219 202.023497 
L 285.069782 202.023497 
L 285.069782 202.023497 
L 277.228035 202.023497 
L 277.228035 202.023497 
L 275.757708 202.023497 
L 275.757708 202.023497 
L 274.28738 202.023497 
L 274.28738 202.023497 
L 272.817052 202.023497 
L 272.817052 202.023497 
L 272.326943 202.023497 
L 272.326943 202.023497 
L 271.836834 202.023497 
L 271.836834 202.023497 
L 271.346725 202.023497 
L 271.346725 202.023497 
L 270.856616 202.023497 
L 270.856616 202.023497 
L 267.425852 202.023497 
L 267.425852 202.023497 
L 265.955524 202.023497 
L 265.955524 202.023497 
L 264.485197 202.023497 
L 264.485197 202.023497 
L 263.995087 202.023497 
L 263.995087 202.023497 
L 263.504978 202.023497 
L 263.504978 202.023497 
L 262.034651 202.023497 
L 262.034651 202.023497 
L 261.544541 202.023497 
L 261.544541 202.023497 
L 260.564323 202.023497 
L 260.564323 202.023497 
L 258.603886 202.023497 
L 258.603886 202.023497 
L 252.232467 202.023497 
L 252.232467 202.023497 
L 251.252249 202.023497 
L 251.252249 202.023497 
L 250.76214 202.023497 
L 250.76214 202.023497 
L 250.27203 202.023497 
L 250.27203 202.023497 
L 249.781921 202.023497 
L 249.781921 202.023497 
L 249.291812 202.023497 
L 249.291812 202.023497 
L 248.801703 202.023497 
L 248.801703 202.023497 
L 248.311594 202.023497 
L 248.311594 202.023497 
L 247.821485 202.023497 
L 247.821485 202.023497 
L 246.841266 202.023497 
L 246.841266 202.023497 
L 242.920393 202.023497 
L 242.920393 202.023497 
L 242.430284 202.023497 
L 242.430284 202.023497 
L 241.940174 202.023497 
L 241.940174 202.023497 
L 241.450065 202.023497 
L 241.450065 202.023497 
L 240.959956 202.023497 
L 240.959956 202.023497 
L 240.469847 202.023497 
L 240.469847 202.023497 
L 239.489629 202.023497 
L 239.489629 202.023497 
L 238.019301 202.023497 
L 238.019301 202.023497 
L 237.529192 202.023497 
L 237.529192 202.023497 
L 235.078646 202.023497 
L 235.078646 202.023497 
L 230.667663 202.023497 
L 230.667663 202.023497 
L 229.687445 202.023497 
L 229.687445 202.023497 
L 229.197336 202.023497 
L 229.197336 202.023497 
L 228.707227 202.023497 
L 228.707227 202.023497 
L 228.217118 202.023497 
L 228.217118 202.023497 
L 227.236899 202.023497 
L 227.236899 202.023497 
L 225.766572 202.023497 
L 225.766572 202.023497 
L 225.276462 202.023497 
L 225.276462 202.023497 
L 223.806135 202.023497 
L 223.806135 202.023497 
L 219.885262 202.023497 
L 219.885262 202.023497 
L 219.395152 202.023497 
L 219.395152 202.023497 
L 218.905043 202.023497 
L 218.905043 202.023497 
L 217.924825 202.023497 
L 217.924825 202.023497 
L 216.944606 202.023497 
L 216.944606 202.023497 
L 215.964388 202.023497 
L 215.964388 202.023497 
L 215.474279 202.023497 
L 215.474279 202.023497 
L 214.98417 202.023497 
L 214.98417 202.023497 
L 214.494061 202.023497 
L 214.494061 202.023497 
L 214.003951 202.023497 
L 214.003951 202.023497 
L 213.023733 202.023497 
L 213.023733 202.023497 
L 212.043515 202.023497 
L 212.043515 202.023497 
L 207.142423 202.023497 
L 207.142423 202.023497 
L 206.652314 202.023497 
L 206.652314 202.023497 
L 205.181986 202.023497 
L 205.181986 202.172709 
L 204.691877 202.172709 
L 204.691877 202.471131 
L 204.201768 202.471131 
L 204.201768 202.620343 
L 202.73144 202.620343 
L 202.73144 203.067977 
L 202.241331 203.067977 
L 202.241331 203.217189 
L 201.261113 203.217189 
L 201.261113 203.3664 
L 196.360021 203.3664 
L 196.360021 203.664823 
L 195.869912 203.664823 
L 195.869912 203.664823 
L 195.379803 203.664823 
L 195.379803 203.963246 
L 194.889694 203.963246 
L 194.889694 204.41088 
L 194.399584 204.41088 
L 194.399584 204.41088 
L 193.419366 204.41088 
L 193.419366 204.709303 
L 192.929257 204.709303 
L 192.929257 204.858514 
L 191.458929 204.858514 
L 191.458929 205.156937 
L 190.96882 205.156937 
L 190.96882 206.649051 
L 189.988602 206.649051 
L 189.988602 206.947474 
L 189.498493 206.947474 
L 189.498493 207.096686 
L 188.518274 207.096686 
L 188.518274 207.693531 
L 188.028165 207.693531 
L 188.028165 207.693531 
L 187.538056 207.693531 
L 187.538056 207.842743 
L 184.597401 207.842743 
L 184.597401 208.141166 
L 183.617183 208.141166 
L 183.617183 208.5888 
L 183.127073 208.5888 
L 183.127073 208.887223 
L 182.636964 208.887223 
L 182.636964 209.782491 
L 182.146855 209.782491 
L 182.146855 210.230126 
L 181.656746 210.230126 
L 181.656746 211.125394 
L 181.166637 211.125394 
L 181.166637 211.573029 
L 180.186418 211.573029 
L 180.186418 211.72224 
L 178.225982 211.72224 
L 178.225982 211.871451 
L 177.735872 211.871451 
L 177.735872 212.169874 
L 176.265545 212.169874 
L 176.265545 212.169874 
L 174.305108 212.169874 
L 174.305108 212.468297 
L 173.814999 212.468297 
L 173.814999 212.617509 
L 173.32489 212.617509 
L 173.32489 212.76672 
L 172.344672 212.76672 
L 172.344672 213.214354 
L 171.854562 213.214354 
L 171.854562 213.214354 
L 171.364453 213.214354 
L 171.364453 213.512777 
L 170.874344 213.512777 
L 170.874344 214.258834 
L 169.894126 214.258834 
L 169.894126 214.557257 
L 168.913907 214.557257 
L 168.913907 214.557257 
L 167.933689 214.557257 
L 167.933689 214.706469 
L 167.44358 214.706469 
L 167.44358 214.85568 
L 166.953471 214.85568 
L 166.953471 215.154103 
L 166.463361 215.154103 
L 166.463361 215.303314 
L 165.973252 215.303314 
L 165.973252 215.452526 
L 165.483143 215.452526 
L 165.483143 215.750949 
L 164.993034 215.750949 
L 164.993034 215.750949 
L 164.502925 215.750949 
L 164.502925 215.90016 
L 160.582051 215.90016 
L 160.582051 215.90016 
L 160.091942 215.90016 
L 160.091942 216.198583 
L 159.601833 216.198583 
L 159.601833 216.347794 
L 159.111724 216.347794 
L 159.111724 216.497006 
L 158.621615 216.497006 
L 158.621615 216.646217 
L 158.131505 216.646217 
L 158.131505 216.94464 
L 157.151287 216.94464 
L 157.151287 216.94464 
L 156.661178 216.94464 
L 156.661178 217.243063 
L 155.68096 217.243063 
L 155.68096 217.541486 
L 154.700741 217.541486 
L 154.700741 217.98912 
L 153.720523 217.98912 
L 153.720523 218.287543 
L 151.760086 218.287543 
L 151.760086 218.287543 
L 149.799649 218.287543 
L 149.799649 218.436754 
L 148.819431 218.436754 
L 148.819431 218.735177 
L 148.329322 218.735177 
L 148.329322 218.884389 
L 147.839213 218.884389 
L 147.839213 219.182811 
L 147.349104 219.182811 
L 147.349104 219.481234 
L 146.858994 219.481234 
L 146.858994 219.779657 
L 146.368885 219.779657 
L 146.368885 219.928869 
L 145.388667 219.928869 
L 145.388667 220.227291 
L 144.898558 220.227291 
L 144.898558 220.525714 
L 144.408449 220.525714 
L 144.408449 220.973349 
L 143.918339 220.973349 
L 143.918339 221.271771 
L 143.42823 221.271771 
L 143.42823 221.570194 
L 142.938121 221.570194 
L 142.938121 221.719406 
L 142.448012 221.719406 
L 142.448012 222.316251 
L 141.957903 222.316251 
L 141.957903 222.465463 
L 141.467793 222.465463 
L 141.467793 222.763886 
L 137.54692 222.763886 
L 137.54692 223.509943 
L 137.056811 223.509943 
L 137.056811 223.659154 
L 135.096374 223.659154 
L 135.096374 224.256 
L 133.626047 224.256 
L 133.626047 224.554423 
L 133.135937 224.554423 
L 133.135937 225.002057 
L 132.155719 225.002057 
L 132.155719 225.151269 
L 131.66561 225.151269 
L 131.66561 225.30048 
L 130.685392 225.30048 
L 130.685392 225.449691 
L 122.353536 225.449691 
L 122.353536 225.598903 
L 120.393099 225.598903 
L 120.393099 225.748114 
L 119.90299 225.748114 
L 119.90299 226.046537 
L 119.412881 226.046537 
L 119.412881 226.195749 
L 118.922771 226.195749 
L 118.922771 226.34496 
L 117.942553 226.34496 
L 117.942553 226.643383 
L 113.53157 226.643383 
L 113.53157 227.240229 
L 113.041461 227.240229 
L 113.041461 227.38944 
L 112.551352 227.38944 
L 112.551352 227.538651 
L 112.061243 227.538651 
L 112.061243 227.687863 
L 111.571134 227.687863 
L 111.571134 227.837074 
L 111.081025 227.837074 
L 111.081025 227.837074 
L 110.590915 227.837074 
L 110.590915 228.135497 
L 110.100806 228.135497 
L 110.100806 228.43392 
L 109.610697 228.43392 
L 109.610697 228.732343 
L 109.120588 228.732343 
L 109.120588 229.179977 
L 108.630479 229.179977 
L 108.630479 229.627611 
L 108.14037 229.627611 
L 108.14037 229.926034 
L 107.160151 229.926034 
L 107.160151 230.224457 
L 106.670042 230.224457 
L 106.670042 230.373669 
L 106.179933 230.373669 
L 106.179933 230.52288 
L 104.709605 230.52288 
L 104.709605 230.672091 
L 101.76895 230.672091 
L 101.76895 231.119726 
L 101.278841 231.119726 
L 101.278841 231.268937 
L 100.788732 231.268937 
L 100.788732 231.418149 
L 100.298623 231.418149 
L 100.298623 231.716571 
L 99.808514 231.716571 
L 99.808514 232.014994 
L 99.318404 232.014994 
L 99.318404 232.61184 
L 98.828295 232.61184 
L 98.828295 232.910263 
L 98.338186 232.910263 
L 98.338186 233.65632 
L 97.848077 233.65632 
L 97.848077 234.103954 
L 97.357968 234.103954 
L 97.357968 234.850011 
L 96.867859 234.850011 
L 96.867859 234.999223 
L 96.377749 234.999223 
L 96.377749 235.297646 
L 95.88764 235.297646 
L 95.88764 236.043703 
L 95.397531 236.043703 
L 95.397531 236.342126 
L 94.907422 236.342126 
L 94.907422 236.640549 
L 94.417313 236.640549 
L 94.417313 236.78976 
L 93.927203 236.78976 
L 93.927203 237.088183 
L 93.437094 237.088183 
L 93.437094 237.237394 
L 90.00633 237.237394 
L 90.00633 237.386606 
L 89.516221 237.386606 
L 89.516221 237.685029 
L 89.026112 237.685029 
L 89.026112 238.281874 
L 88.045893 238.281874 
L 88.045893 238.87872 
L 87.065675 238.87872 
L 87.065675 239.326354 
L 86.575566 239.326354 
L 86.575566 239.773989 
L 86.085457 239.773989 
L 86.085457 239.773989 
L 85.595347 239.773989 
L 85.595347 240.370834 
L 85.105238 240.370834 
L 85.105238 241.713737 
L 84.615129 241.713737 
L 84.615129 242.310583 
L 84.12502 242.310583 
L 84.12502 243.205851 
L 83.634911 243.205851 
L 83.634911 244.250331 
L 83.144802 244.250331 
L 83.144802 244.548754 
L 82.654692 244.548754 
L 82.654692 245.1456 
L 81.674474 245.1456 
L 81.674474 245.444023 
L 81.184365 245.444023 
L 81.184365 245.593234 
L 80.694256 245.593234 
L 80.694256 245.742446 
L 80.204147 245.742446 
L 80.204147 245.742446 
L 79.714037 245.742446 
L 79.714037 246.040869 
L 79.223928 246.040869 
L 79.223928 246.19008 
L 78.733819 246.19008 
L 78.733819 246.339291 
L 78.24371 246.339291 
L 78.24371 247.532983 
L 77.753601 247.532983 
L 77.753601 249.025097 
L 77.263492 249.025097 
L 77.263492 252.009326 
L 76.773382 252.009326 
L 76.773382 254.396709 
L 76.283273 254.396709 
L 76.283273 257.380937 
L 75.793164 257.380937 
L 75.793164 261.708069 
L 75.303055 261.708069 
L 75.303055 269.019429 
L 74.812946 269.019429 
L 74.812946 273.794194 
L 74.322836 273.794194 
L 74.322836 275.584731 
L 73.832727 275.584731 
L 73.832727 276.48 
L 73.832727 276.48 
z
" clip-path="url(#p5219573bfd)" style="fill: #fa448c; fill-opacity: 0.8"/>
   </g>
   <g id="PolyCollection_2">
    <path d="M 73.832727 276.48 
L 73.832727 276.48 
L 73.832727 276.48 
L 73.832727 275.584731 
L 74.322836 275.584731 
L 74.322836 273.794194 
L 74.812946 273.794194 
L 74.812946 269.019429 
L 75.303055 269.019429 
L 75.303055 261.708069 
L 75.793164 261.708069 
L 75.793164 257.380937 
L 76.283273 257.380937 
L 76.283273 254.396709 
L 76.773382 254.396709 
L 76.773382 252.009326 
L 77.263492 252.009326 
L 77.263492 249.025097 
L 77.753601 249.025097 
L 77.753601 247.532983 
L 78.24371 247.532983 
L 78.24371 246.339291 
L 78.733819 246.339291 
L 78.733819 246.19008 
L 79.223928 246.19008 
L 79.223928 246.040869 
L 79.714037 246.040869 
L 79.714037 245.742446 
L 80.204147 245.742446 
L 80.204147 245.742446 
L 80.694256 245.742446 
L 80.694256 245.593234 
L 81.184365 245.593234 
L 81.184365 245.444023 
L 81.674474 245.444023 
L 81.674474 245.1456 
L 82.654692 245.1456 
L 82.654692 244.548754 
L 83.144802 244.548754 
L 83.144802 244.250331 
L 83.634911 244.250331 
L 83.634911 243.205851 
L 84.12502 243.205851 
L 84.12502 242.310583 
L 84.615129 242.310583 
L 84.615129 241.713737 
L 85.105238 241.713737 
L 85.105238 240.370834 
L 85.595347 240.370834 
L 85.595347 239.773989 
L 86.085457 239.773989 
L 86.085457 239.773989 
L 86.575566 239.773989 
L 86.575566 239.326354 
L 87.065675 239.326354 
L 87.065675 238.87872 
L 88.045893 238.87872 
L 88.045893 238.281874 
L 89.026112 238.281874 
L 89.026112 237.685029 
L 89.516221 237.685029 
L 89.516221 237.386606 
L 90.00633 237.386606 
L 90.00633 237.237394 
L 93.437094 237.237394 
L 93.437094 237.088183 
L 93.927203 237.088183 
L 93.927203 236.78976 
L 94.417313 236.78976 
L 94.417313 236.640549 
L 94.907422 236.640549 
L 94.907422 236.342126 
L 95.397531 236.342126 
L 95.397531 236.043703 
L 95.88764 236.043703 
L 95.88764 235.297646 
L 96.377749 235.297646 
L 96.377749 234.999223 
L 96.867859 234.999223 
L 96.867859 234.850011 
L 97.357968 234.850011 
L 97.357968 234.103954 
L 97.848077 234.103954 
L 97.848077 233.65632 
L 98.338186 233.65632 
L 98.338186 232.910263 
L 98.828295 232.910263 
L 98.828295 232.61184 
L 99.318404 232.61184 
L 99.318404 232.014994 
L 99.808514 232.014994 
L 99.808514 231.716571 
L 100.298623 231.716571 
L 100.298623 231.418149 
L 100.788732 231.418149 
L 100.788732 231.268937 
L 101.278841 231.268937 
L 101.278841 231.119726 
L 101.76895 231.119726 
L 101.76895 230.672091 
L 104.709605 230.672091 
L 104.709605 230.52288 
L 106.179933 230.52288 
L 106.179933 230.373669 
L 106.670042 230.373669 
L 106.670042 230.224457 
L 107.160151 230.224457 
L 107.160151 229.926034 
L 108.14037 229.926034 
L 108.14037 229.627611 
L 108.630479 229.627611 
L 108.630479 229.179977 
L 109.120588 229.179977 
L 109.120588 228.732343 
L 109.610697 228.732343 
L 109.610697 228.43392 
L 110.100806 228.43392 
L 110.100806 228.135497 
L 110.590915 228.135497 
L 110.590915 227.837074 
L 111.081025 227.837074 
L 111.081025 227.837074 
L 111.571134 227.837074 
L 111.571134 227.687863 
L 112.061243 227.687863 
L 112.061243 227.538651 
L 112.551352 227.538651 
L 112.551352 227.38944 
L 113.041461 227.38944 
L 113.041461 227.240229 
L 113.53157 227.240229 
L 113.53157 226.643383 
L 117.942553 226.643383 
L 117.942553 226.34496 
L 118.922771 226.34496 
L 118.922771 226.195749 
L 119.412881 226.195749 
L 119.412881 226.046537 
L 119.90299 226.046537 
L 119.90299 225.748114 
L 120.393099 225.748114 
L 120.393099 225.598903 
L 122.353536 225.598903 
L 122.353536 225.449691 
L 130.685392 225.449691 
L 130.685392 225.30048 
L 131.66561 225.30048 
L 131.66561 225.151269 
L 132.155719 225.151269 
L 132.155719 225.002057 
L 133.135937 225.002057 
L 133.135937 224.554423 
L 133.626047 224.554423 
L 133.626047 224.256 
L 135.096374 224.256 
L 135.096374 223.659154 
L 137.056811 223.659154 
L 137.056811 223.509943 
L 137.54692 223.509943 
L 137.54692 222.763886 
L 141.467793 222.763886 
L 141.467793 222.465463 
L 141.957903 222.465463 
L 141.957903 222.316251 
L 142.448012 222.316251 
L 142.448012 221.719406 
L 142.938121 221.719406 
L 142.938121 221.570194 
L 143.42823 221.570194 
L 143.42823 221.271771 
L 143.918339 221.271771 
L 143.918339 220.973349 
L 144.408449 220.973349 
L 144.408449 220.525714 
L 144.898558 220.525714 
L 144.898558 220.227291 
L 145.388667 220.227291 
L 145.388667 219.928869 
L 146.368885 219.928869 
L 146.368885 219.779657 
L 146.858994 219.779657 
L 146.858994 219.481234 
L 147.349104 219.481234 
L 147.349104 219.182811 
L 147.839213 219.182811 
L 147.839213 218.884389 
L 148.329322 218.884389 
L 148.329322 218.735177 
L 148.819431 218.735177 
L 148.819431 218.436754 
L 149.799649 218.436754 
L 149.799649 218.287543 
L 151.760086 218.287543 
L 151.760086 218.287543 
L 153.720523 218.287543 
L 153.720523 217.98912 
L 154.700741 217.98912 
L 154.700741 217.541486 
L 155.68096 217.541486 
L 155.68096 217.243063 
L 156.661178 217.243063 
L 156.661178 216.94464 
L 157.151287 216.94464 
L 157.151287 216.94464 
L 158.131505 216.94464 
L 158.131505 216.646217 
L 158.621615 216.646217 
L 158.621615 216.497006 
L 159.111724 216.497006 
L 159.111724 216.347794 
L 159.601833 216.347794 
L 159.601833 216.198583 
L 160.091942 216.198583 
L 160.091942 215.90016 
L 160.582051 215.90016 
L 160.582051 215.90016 
L 164.502925 215.90016 
L 164.502925 215.750949 
L 164.993034 215.750949 
L 164.993034 215.750949 
L 165.483143 215.750949 
L 165.483143 215.452526 
L 165.973252 215.452526 
L 165.973252 215.303314 
L 166.463361 215.303314 
L 166.463361 215.154103 
L 166.953471 215.154103 
L 166.953471 214.85568 
L 167.44358 214.85568 
L 167.44358 214.706469 
L 167.933689 214.706469 
L 167.933689 214.557257 
L 168.913907 214.557257 
L 168.913907 214.557257 
L 169.894126 214.557257 
L 169.894126 214.258834 
L 170.874344 214.258834 
L 170.874344 213.512777 
L 171.364453 213.512777 
L 171.364453 213.214354 
L 171.854562 213.214354 
L 171.854562 213.214354 
L 172.344672 213.214354 
L 172.344672 212.76672 
L 173.32489 212.76672 
L 173.32489 212.617509 
L 173.814999 212.617509 
L 173.814999 212.468297 
L 174.305108 212.468297 
L 174.305108 212.169874 
L 176.265545 212.169874 
L 176.265545 212.169874 
L 177.735872 212.169874 
L 177.735872 211.871451 
L 178.225982 211.871451 
L 178.225982 211.72224 
L 180.186418 211.72224 
L 180.186418 211.573029 
L 181.166637 211.573029 
L 181.166637 211.125394 
L 181.656746 211.125394 
L 181.656746 210.230126 
L 182.146855 210.230126 
L 182.146855 209.782491 
L 182.636964 209.782491 
L 182.636964 208.887223 
L 183.127073 208.887223 
L 183.127073 208.5888 
L 183.617183 208.5888 
L 183.617183 208.141166 
L 184.597401 208.141166 
L 184.597401 207.842743 
L 187.538056 207.842743 
L 187.538056 207.693531 
L 188.028165 207.693531 
L 188.028165 207.693531 
L 188.518274 207.693531 
L 188.518274 207.096686 
L 189.498493 207.096686 
L 189.498493 206.947474 
L 189.988602 206.947474 
L 189.988602 206.649051 
L 190.96882 206.649051 
L 190.96882 205.156937 
L 191.458929 205.156937 
L 191.458929 204.858514 
L 192.929257 204.858514 
L 192.929257 204.709303 
L 193.419366 204.709303 
L 193.419366 204.41088 
L 194.399584 204.41088 
L 194.399584 204.41088 
L 194.889694 204.41088 
L 194.889694 203.963246 
L 195.379803 203.963246 
L 195.379803 203.664823 
L 195.869912 203.664823 
L 195.869912 203.664823 
L 196.360021 203.664823 
L 196.360021 203.3664 
L 201.261113 203.3664 
L 201.261113 203.217189 
L 202.241331 203.217189 
L 202.241331 203.067977 
L 202.73144 203.067977 
L 202.73144 202.620343 
L 204.201768 202.620343 
L 204.201768 202.471131 
L 204.691877 202.471131 
L 204.691877 202.172709 
L 205.181986 202.172709 
L 205.181986 202.023497 
L 206.652314 202.023497 
L 206.652314 202.023497 
L 207.142423 202.023497 
L 207.142423 202.023497 
L 212.043515 202.023497 
L 212.043515 202.023497 
L 213.023733 202.023497 
L 213.023733 202.023497 
L 214.003951 202.023497 
L 214.003951 202.023497 
L 214.494061 202.023497 
L 214.494061 202.023497 
L 214.98417 202.023497 
L 214.98417 202.023497 
L 215.474279 202.023497 
L 215.474279 202.023497 
L 215.964388 202.023497 
L 215.964388 202.023497 
L 216.944606 202.023497 
L 216.944606 202.023497 
L 217.924825 202.023497 
L 217.924825 202.023497 
L 218.905043 202.023497 
L 218.905043 202.023497 
L 219.395152 202.023497 
L 219.395152 202.023497 
L 219.885262 202.023497 
L 219.885262 202.023497 
L 223.806135 202.023497 
L 223.806135 202.023497 
L 225.276462 202.023497 
L 225.276462 202.023497 
L 225.766572 202.023497 
L 225.766572 202.023497 
L 227.236899 202.023497 
L 227.236899 202.023497 
L 228.217118 202.023497 
L 228.217118 202.023497 
L 228.707227 202.023497 
L 228.707227 202.023497 
L 229.197336 202.023497 
L 229.197336 202.023497 
L 229.687445 202.023497 
L 229.687445 202.023497 
L 230.667663 202.023497 
L 230.667663 202.023497 
L 235.078646 202.023497 
L 235.078646 202.023497 
L 237.529192 202.023497 
L 237.529192 202.023497 
L 238.019301 202.023497 
L 238.019301 202.023497 
L 239.489629 202.023497 
L 239.489629 202.023497 
L 240.469847 202.023497 
L 240.469847 202.023497 
L 240.959956 202.023497 
L 240.959956 202.023497 
L 241.450065 202.023497 
L 241.450065 202.023497 
L 241.940174 202.023497 
L 241.940174 202.023497 
L 242.430284 202.023497 
L 242.430284 202.023497 
L 242.920393 202.023497 
L 242.920393 202.023497 
L 246.841266 202.023497 
L 246.841266 202.023497 
L 247.821485 202.023497 
L 247.821485 202.023497 
L 248.311594 202.023497 
L 248.311594 202.023497 
L 248.801703 202.023497 
L 248.801703 202.023497 
L 249.291812 202.023497 
L 249.291812 202.023497 
L 249.781921 202.023497 
L 249.781921 202.023497 
L 250.27203 202.023497 
L 250.27203 202.023497 
L 250.76214 202.023497 
L 250.76214 202.023497 
L 251.252249 202.023497 
L 251.252249 202.023497 
L 252.232467 202.023497 
L 252.232467 202.023497 
L 258.603886 202.023497 
L 258.603886 202.023497 
L 260.564323 202.023497 
L 260.564323 202.023497 
L 261.544541 202.023497 
L 261.544541 202.023497 
L 262.034651 202.023497 
L 262.034651 202.023497 
L 263.504978 202.023497 
L 263.504978 202.023497 
L 263.995087 202.023497 
L 263.995087 202.023497 
L 264.485197 202.023497 
L 264.485197 202.023497 
L 265.955524 202.023497 
L 265.955524 202.023497 
L 267.425852 202.023497 
L 267.425852 202.023497 
L 270.856616 202.023497 
L 270.856616 202.023497 
L 271.346725 202.023497 
L 271.346725 202.023497 
L 271.836834 202.023497 
L 271.836834 202.023497 
L 272.326943 202.023497 
L 272.326943 202.023497 
L 272.817052 202.023497 
L 272.817052 202.023497 
L 274.28738 202.023497 
L 274.28738 202.023497 
L 275.757708 202.023497 
L 275.757708 202.023497 
L 277.228035 202.023497 
L 277.228035 202.023497 
L 285.069782 202.023497 
L 285.069782 202.023497 
L 287.030219 202.023497 
L 287.030219 202.023497 
L 287.520328 202.023497 
L 287.520328 202.023497 
L 296.342293 202.023497 
L 296.342293 202.023497 
L 296.832402 202.023497 
L 296.832402 202.023497 
L 297.322511 202.023497 
L 297.322511 202.023497 
L 298.30273 202.023497 
L 298.30273 202.023497 
L 298.792839 202.023497 
L 298.792839 202.023497 
L 299.282948 202.023497 
L 299.282948 202.023497 
L 300.263166 202.023497 
L 300.263166 202.023497 
L 304.674149 202.023497 
L 304.674149 202.023497 
L 305.654367 202.023497 
L 305.654367 202.023497 
L 307.124695 202.023497 
L 307.124695 202.023497 
L 308.104913 202.023497 
L 308.104913 202.023497 
L 310.06535 202.023497 
L 310.06535 202.023497 
L 313.006005 202.023497 
L 313.006005 202.023497 
L 319.377424 202.023497 
L 319.377424 202.023497 
L 319.867533 202.023497 
L 319.867533 202.023497 
L 321.337861 202.023497 
L 321.337861 202.023497 
L 322.318079 202.023497 
L 322.318079 202.023497 
L 322.808188 202.023497 
L 322.808188 202.023497 
L 323.788407 202.023497 
L 323.788407 202.023497 
L 328.199389 202.023497 
L 328.199389 202.023497 
L 329.669717 202.023497 
L 329.669717 202.023497 
L 330.649935 202.023497 
L 330.649935 202.023497 
L 331.140044 202.023497 
L 331.140044 202.023497 
L 331.630154 202.023497 
L 331.630154 202.023497 
L 333.59059 202.023497 
L 333.59059 202.023497 
L 335.060918 202.023497 
L 335.060918 202.023497 
L 335.551027 202.023497 
L 335.551027 202.023497 
L 336.041136 202.023497 
L 336.041136 202.023497 
L 336.531245 202.023497 
L 336.531245 202.023497 
L 341.432337 202.023497 
L 341.432337 202.023497 
L 342.412555 202.023497 
L 342.412555 202.023497 
L 344.863101 202.023497 
L 344.863101 202.023497 
L 347.313647 202.023497 
L 347.313647 202.023497 
L 347.803756 202.023497 
L 347.803756 202.023497 
L 348.293866 202.023497 
L 348.293866 202.023497 
L 349.274084 202.023497 
L 349.274084 202.023497 
L 351.72463 202.023497 
L 351.72463 202.023497 
L 352.704848 202.023497 
L 352.704848 202.023497 
L 354.665285 202.023497 
L 354.665285 202.023497 
L 358.586158 202.023497 
L 358.586158 202.023497 
L 360.546595 202.023497 
L 360.546595 202.023497 
L 363.43203 202.023497 
L 363.43203 200.083749 
L 363.632952 200.083749 
L 363.632952 200.083749 
L 363.808296 200.083749 
L 363.808296 200.083749 
L 364.155944 200.083749 
L 364.155944 200.083749 
L 364.376411 200.083749 
L 364.376411 200.083749 
L 364.60779 200.083749 
L 364.60779 200.083749 
L 364.78107 200.083749 
L 364.78107 200.083749 
L 365.138447 200.083749 
L 365.138447 200.083749 
L 365.333276 200.083749 
L 365.333276 200.083749 
L 365.595549 200.083749 
L 365.595549 200.083749 
L 365.788259 200.083749 
L 365.788259 200.083749 
L 366.09506 200.083749 
L 366.09506 200.083749 
L 366.28799 200.083749 
L 366.28799 200.083749 
L 366.547779 200.083749 
L 366.547779 200.083749 
L 366.729601 200.083749 
L 366.729601 200.083749 
L 367.155236 200.083749 
L 367.155236 200.083749 
L 367.431535 200.083749 
L 367.431535 200.083749 
L 367.74978 200.083749 
L 367.74978 200.083749 
L 367.773999 200.083749 
L 367.773999 200.083749 
L 367.788266 200.083749 
L 367.788266 200.083749 
L 368.030277 200.083749 
L 368.030277 200.083749 
L 368.21522 200.083749 
L 368.21522 200.083749 
L 368.540192 200.083749 
L 368.540192 200.083749 
L 368.750277 200.083749 
L 368.750277 200.083749 
L 369.103918 200.083749 
L 369.103918 200.083749 
L 369.802824 200.083749 
L 369.802824 200.083749 
L 369.823056 200.083749 
L 369.823056 200.083749 
L 369.848057 200.083749 
L 369.848057 200.083749 
L 370.031716 200.083749 
L 370.031716 200.083749 
L 370.239547 200.083749 
L 370.239547 200.083749 
L 370.465259 200.083749 
L 370.465259 200.083749 
L 370.651257 200.083749 
L 370.651257 200.083749 
L 370.992638 200.083749 
L 370.992638 200.083749 
L 371.452696 200.083749 
L 371.452696 200.083749 
L 376.897196 200.083749 
L 376.897196 200.083749 
L 378.309641 200.083749 
L 378.309641 200.083749 
L 379.513399 200.083749 
L 379.513399 200.083749 
L 379.79273 200.083749 
L 379.79273 200.083749 
L 381.16294 200.083749 
L 381.16294 200.083749 
L 381.510379 200.083749 
L 381.510379 200.083749 
L 381.791103 200.083749 
L 381.791103 200.083749 
L 382.229322 200.083749 
L 382.229322 200.083749 
L 389.630902 200.083749 
L 389.630902 200.083749 
L 392.641304 200.083749 
L 392.641304 200.083749 
L 394.709541 200.083749 
L 394.709541 200.083749 
L 394.983707 200.083749 
L 394.983707 200.083749 
L 395.985095 200.083749 
L 395.985095 200.083749 
L 396.847414 200.083749 
L 396.847414 200.083749 
L 398.487273 200.083749 
L 398.487273 200.083749 
L 398.487273 147.859749 
L 398.487273 147.859749 
L 398.487273 147.859749 
L 396.847414 147.859749 
L 396.847414 148.00896 
L 395.985095 148.00896 
L 395.985095 146.367634 
L 394.983707 146.367634 
L 394.983707 146.815269 
L 394.709541 146.815269 
L 394.709541 146.96448 
L 392.641304 146.96448 
L 392.641304 147.113691 
L 389.630902 147.113691 
L 389.630902 147.262903 
L 382.229322 147.262903 
L 382.229322 147.561326 
L 381.791103 147.561326 
L 381.791103 147.710537 
L 381.510379 147.710537 
L 381.510379 148.00896 
L 381.16294 148.00896 
L 381.16294 148.158171 
L 379.79273 148.158171 
L 379.79273 148.307383 
L 379.513399 148.307383 
L 379.513399 148.456594 
L 378.309641 148.456594 
L 378.309641 148.605806 
L 376.897196 148.605806 
L 376.897196 148.755017 
L 371.452696 148.755017 
L 371.452696 149.05344 
L 370.992638 149.05344 
L 370.992638 149.202651 
L 370.651257 149.202651 
L 370.651257 149.202651 
L 370.465259 149.202651 
L 370.465259 149.202651 
L 370.239547 149.202651 
L 370.239547 149.202651 
L 370.031716 149.202651 
L 370.031716 149.202651 
L 369.848057 149.202651 
L 369.848057 149.202651 
L 369.823056 149.202651 
L 369.823056 149.202651 
L 369.802824 149.202651 
L 369.802824 149.202651 
L 369.103918 149.202651 
L 369.103918 149.202651 
L 368.750277 149.202651 
L 368.750277 149.202651 
L 368.540192 149.202651 
L 368.540192 149.202651 
L 368.21522 149.202651 
L 368.21522 149.202651 
L 368.030277 149.202651 
L 368.030277 149.202651 
L 367.788266 149.202651 
L 367.788266 149.202651 
L 367.773999 149.202651 
L 367.773999 149.202651 
L 367.74978 149.202651 
L 367.74978 149.202651 
L 367.431535 149.202651 
L 367.431535 149.501074 
L 367.155236 149.501074 
L 367.155236 149.650286 
L 366.729601 149.650286 
L 366.729601 149.650286 
L 366.547779 149.650286 
L 366.547779 150.247131 
L 366.28799 150.247131 
L 366.28799 150.396343 
L 366.09506 150.396343 
L 366.09506 150.396343 
L 365.788259 150.396343 
L 365.788259 150.396343 
L 365.595549 150.396343 
L 365.595549 150.396343 
L 365.333276 150.396343 
L 365.333276 150.396343 
L 365.138447 150.396343 
L 365.138447 150.396343 
L 364.78107 150.396343 
L 364.78107 150.396343 
L 364.60779 150.396343 
L 364.60779 150.396343 
L 364.376411 150.396343 
L 364.376411 150.396343 
L 364.155944 150.396343 
L 364.155944 150.396343 
L 363.808296 150.396343 
L 363.808296 150.396343 
L 363.632952 150.396343 
L 363.632952 150.396343 
L 363.43203 150.396343 
L 363.43203 153.828206 
L 360.546595 153.828206 
L 360.546595 153.977417 
L 358.586158 153.977417 
L 358.586158 153.977417 
L 354.665285 153.977417 
L 354.665285 154.126629 
L 352.704848 154.126629 
L 352.704848 154.27584 
L 351.72463 154.27584 
L 351.72463 154.425051 
L 349.274084 154.425051 
L 349.274084 154.872686 
L 348.293866 154.872686 
L 348.293866 154.872686 
L 347.803756 154.872686 
L 347.803756 155.171109 
L 347.313647 155.171109 
L 347.313647 156.514011 
L 344.863101 156.514011 
L 344.863101 156.961646 
L 342.412555 156.961646 
L 342.412555 157.110857 
L 341.432337 157.110857 
L 341.432337 157.260069 
L 336.531245 157.260069 
L 336.531245 157.707703 
L 336.041136 157.707703 
L 336.041136 158.155337 
L 335.551027 158.155337 
L 335.551027 158.45376 
L 335.060918 158.45376 
L 335.060918 158.602971 
L 333.59059 158.602971 
L 333.59059 158.752183 
L 331.630154 158.752183 
L 331.630154 158.752183 
L 331.140044 158.752183 
L 331.140044 158.901394 
L 330.649935 158.901394 
L 330.649935 159.050606 
L 329.669717 159.050606 
L 329.669717 159.199817 
L 328.199389 159.199817 
L 328.199389 159.349029 
L 323.788407 159.349029 
L 323.788407 159.49824 
L 322.808188 159.49824 
L 322.808188 159.796663 
L 322.318079 159.796663 
L 322.318079 160.095086 
L 321.337861 160.095086 
L 321.337861 160.54272 
L 319.867533 160.54272 
L 319.867533 160.691931 
L 319.377424 160.691931 
L 319.377424 160.691931 
L 313.006005 160.691931 
L 313.006005 160.841143 
L 310.06535 160.841143 
L 310.06535 160.990354 
L 308.104913 160.990354 
L 308.104913 161.288777 
L 307.124695 161.288777 
L 307.124695 161.288777 
L 305.654367 161.288777 
L 305.654367 161.5872 
L 304.674149 161.5872 
L 304.674149 161.5872 
L 300.263166 161.5872 
L 300.263166 161.885623 
L 299.282948 161.885623 
L 299.282948 162.034834 
L 298.792839 162.034834 
L 298.792839 162.333257 
L 298.30273 162.333257 
L 298.30273 162.333257 
L 297.322511 162.333257 
L 297.322511 162.333257 
L 296.832402 162.333257 
L 296.832402 162.780891 
L 296.342293 162.780891 
L 296.342293 162.780891 
L 287.520328 162.780891 
L 287.520328 162.930103 
L 287.030219 162.930103 
L 287.030219 163.079314 
L 285.069782 163.079314 
L 285.069782 163.228526 
L 277.228035 163.228526 
L 277.228035 163.377737 
L 275.757708 163.377737 
L 275.757708 163.526949 
L 274.28738 163.526949 
L 274.28738 163.974583 
L 272.817052 163.974583 
L 272.817052 164.72064 
L 272.326943 164.72064 
L 272.326943 165.019063 
L 271.836834 165.019063 
L 271.836834 165.168274 
L 271.346725 165.168274 
L 271.346725 165.168274 
L 270.856616 165.168274 
L 270.856616 165.317486 
L 267.425852 165.317486 
L 267.425852 165.317486 
L 265.955524 165.317486 
L 265.955524 165.914331 
L 264.485197 165.914331 
L 264.485197 166.063543 
L 263.995087 166.063543 
L 263.995087 166.511177 
L 263.504978 166.511177 
L 263.504978 166.660389 
L 262.034651 166.660389 
L 262.034651 166.8096 
L 261.544541 166.8096 
L 261.544541 167.108023 
L 260.564323 167.108023 
L 260.564323 167.108023 
L 258.603886 167.108023 
L 258.603886 167.406446 
L 252.232467 167.406446 
L 252.232467 167.406446 
L 251.252249 167.406446 
L 251.252249 167.555657 
L 250.76214 167.555657 
L 250.76214 167.704869 
L 250.27203 167.704869 
L 250.27203 167.85408 
L 249.781921 167.85408 
L 249.781921 168.003291 
L 249.291812 168.003291 
L 249.291812 168.152503 
L 248.801703 168.152503 
L 248.801703 168.450926 
L 248.311594 168.450926 
L 248.311594 169.495406 
L 247.821485 169.495406 
L 247.821485 170.092251 
L 246.841266 170.092251 
L 246.841266 170.539886 
L 242.920393 170.539886 
L 242.920393 170.689097 
L 242.430284 170.689097 
L 242.430284 170.838309 
L 241.940174 170.838309 
L 241.940174 171.136731 
L 241.450065 171.136731 
L 241.450065 171.584366 
L 240.959956 171.584366 
L 240.959956 172.181211 
L 240.469847 172.181211 
L 240.469847 172.927269 
L 239.489629 172.927269 
L 239.489629 173.374903 
L 238.019301 173.374903 
L 238.019301 173.524114 
L 237.529192 173.524114 
L 237.529192 173.822537 
L 235.078646 173.822537 
L 235.078646 173.971749 
L 230.667663 173.971749 
L 230.667663 174.12096 
L 229.687445 174.12096 
L 229.687445 174.270171 
L 229.197336 174.270171 
L 229.197336 174.419383 
L 228.707227 174.419383 
L 228.707227 174.568594 
L 228.217118 174.568594 
L 228.217118 174.867017 
L 227.236899 174.867017 
L 227.236899 175.463863 
L 225.766572 175.463863 
L 225.766572 175.613074 
L 225.276462 175.613074 
L 225.276462 175.762286 
L 223.806135 175.762286 
L 223.806135 176.060709 
L 219.885262 176.060709 
L 219.885262 176.20992 
L 219.395152 176.20992 
L 219.395152 176.359131 
L 218.905043 176.359131 
L 218.905043 176.359131 
L 217.924825 176.359131 
L 217.924825 176.508343 
L 216.944606 176.508343 
L 216.944606 176.657554 
L 215.964388 176.657554 
L 215.964388 177.2544 
L 215.474279 177.2544 
L 215.474279 177.851246 
L 214.98417 177.851246 
L 214.98417 178.149669 
L 214.494061 178.149669 
L 214.494061 178.448091 
L 214.003951 178.448091 
L 214.003951 178.746514 
L 213.023733 178.746514 
L 213.023733 179.044937 
L 212.043515 179.044937 
L 212.043515 179.194149 
L 207.142423 179.194149 
L 207.142423 179.492571 
L 206.652314 179.492571 
L 206.652314 179.940206 
L 205.181986 179.940206 
L 205.181986 180.089417 
L 204.691877 180.089417 
L 204.691877 180.537051 
L 204.201768 180.537051 
L 204.201768 180.686263 
L 202.73144 180.686263 
L 202.73144 181.133897 
L 202.241331 181.133897 
L 202.241331 181.283109 
L 201.261113 181.283109 
L 201.261113 181.43232 
L 196.360021 181.43232 
L 196.360021 182.029166 
L 195.869912 182.029166 
L 195.869912 182.029166 
L 195.379803 182.029166 
L 195.379803 182.4768 
L 194.889694 182.4768 
L 194.889694 182.924434 
L 194.399584 182.924434 
L 194.399584 183.073646 
L 193.419366 183.073646 
L 193.419366 183.670491 
L 192.929257 183.670491 
L 192.929257 183.819703 
L 191.458929 183.819703 
L 191.458929 184.118126 
L 190.96882 184.118126 
L 190.96882 185.759451 
L 189.988602 185.759451 
L 189.988602 186.057874 
L 189.498493 186.057874 
L 189.498493 186.207086 
L 188.518274 186.207086 
L 188.518274 186.803931 
L 188.028165 186.803931 
L 188.028165 186.953143 
L 187.538056 186.953143 
L 187.538056 187.102354 
L 184.597401 187.102354 
L 184.597401 187.400777 
L 183.617183 187.400777 
L 183.617183 187.848411 
L 183.127073 187.848411 
L 183.127073 188.445257 
L 182.636964 188.445257 
L 182.636964 189.340526 
L 182.146855 189.340526 
L 182.146855 189.937371 
L 181.656746 189.937371 
L 181.656746 190.83264 
L 181.166637 190.83264 
L 181.166637 192.026331 
L 180.186418 192.026331 
L 180.186418 192.175543 
L 178.225982 192.175543 
L 178.225982 192.324754 
L 177.735872 192.324754 
L 177.735872 192.623177 
L 176.265545 192.623177 
L 176.265545 192.772389 
L 174.305108 192.772389 
L 174.305108 193.070811 
L 173.814999 193.070811 
L 173.814999 193.220023 
L 173.32489 193.220023 
L 173.32489 193.369234 
L 172.344672 193.369234 
L 172.344672 193.816869 
L 171.854562 193.816869 
L 171.854562 194.264503 
L 171.364453 194.264503 
L 171.364453 194.861349 
L 170.874344 194.861349 
L 170.874344 195.607406 
L 169.894126 195.607406 
L 169.894126 195.905829 
L 168.913907 195.905829 
L 168.913907 196.05504 
L 167.933689 196.05504 
L 167.933689 196.204251 
L 167.44358 196.204251 
L 167.44358 196.502674 
L 166.953471 196.502674 
L 166.953471 196.801097 
L 166.463361 196.801097 
L 166.463361 196.950309 
L 165.973252 196.950309 
L 165.973252 197.09952 
L 165.483143 197.09952 
L 165.483143 197.397943 
L 164.993034 197.397943 
L 164.993034 197.547154 
L 164.502925 197.547154 
L 164.502925 197.696366 
L 160.582051 197.696366 
L 160.582051 197.845577 
L 160.091942 197.845577 
L 160.091942 198.144 
L 159.601833 198.144 
L 159.601833 198.293211 
L 159.111724 198.293211 
L 159.111724 198.442423 
L 158.621615 198.442423 
L 158.621615 198.591634 
L 158.131505 198.591634 
L 158.131505 199.337691 
L 157.151287 199.337691 
L 157.151287 199.486903 
L 156.661178 199.486903 
L 156.661178 199.934537 
L 155.68096 199.934537 
L 155.68096 200.23296 
L 154.700741 200.23296 
L 154.700741 200.979017 
L 153.720523 200.979017 
L 153.720523 201.575863 
L 151.760086 201.575863 
L 151.760086 201.874286 
L 149.799649 201.874286 
L 149.799649 202.023497 
L 148.819431 202.023497 
L 148.819431 202.32192 
L 148.329322 202.32192 
L 148.329322 202.620343 
L 147.839213 202.620343 
L 147.839213 203.067977 
L 147.349104 203.067977 
L 147.349104 203.3664 
L 146.858994 203.3664 
L 146.858994 203.814034 
L 146.368885 203.814034 
L 146.368885 203.963246 
L 145.388667 203.963246 
L 145.388667 204.261669 
L 144.898558 204.261669 
L 144.898558 204.560091 
L 144.408449 204.560091 
L 144.408449 205.156937 
L 143.918339 205.156937 
L 143.918339 205.45536 
L 143.42823 205.45536 
L 143.42823 205.753783 
L 142.938121 205.753783 
L 142.938121 205.902994 
L 142.448012 205.902994 
L 142.448012 206.649051 
L 141.957903 206.649051 
L 141.957903 206.798263 
L 141.467793 206.798263 
L 141.467793 207.096686 
L 137.54692 207.096686 
L 137.54692 207.991954 
L 137.056811 207.991954 
L 137.056811 208.141166 
L 135.096374 208.141166 
L 135.096374 209.036434 
L 133.626047 209.036434 
L 133.626047 209.334857 
L 133.135937 209.334857 
L 133.135937 209.931703 
L 132.155719 209.931703 
L 132.155719 210.080914 
L 131.66561 210.080914 
L 131.66561 210.230126 
L 130.685392 210.230126 
L 130.685392 210.379337 
L 122.353536 210.379337 
L 122.353536 210.528549 
L 120.393099 210.528549 
L 120.393099 210.67776 
L 119.90299 210.67776 
L 119.90299 210.976183 
L 119.412881 210.976183 
L 119.412881 211.125394 
L 118.922771 211.125394 
L 118.922771 211.274606 
L 117.942553 211.274606 
L 117.942553 211.573029 
L 113.53157 211.573029 
L 113.53157 212.319086 
L 113.041461 212.319086 
L 113.041461 213.065143 
L 112.551352 213.065143 
L 112.551352 213.214354 
L 112.061243 213.214354 
L 112.061243 213.363566 
L 111.571134 213.363566 
L 111.571134 213.512777 
L 111.081025 213.512777 
L 111.081025 213.661989 
L 110.590915 213.661989 
L 110.590915 214.109623 
L 110.100806 214.109623 
L 110.100806 214.408046 
L 109.610697 214.408046 
L 109.610697 214.85568 
L 109.120588 214.85568 
L 109.120588 215.303314 
L 108.630479 215.303314 
L 108.630479 215.750949 
L 108.14037 215.750949 
L 108.14037 216.049371 
L 107.160151 216.049371 
L 107.160151 216.795429 
L 106.670042 216.795429 
L 106.670042 216.94464 
L 106.179933 216.94464 
L 106.179933 217.093851 
L 104.709605 217.093851 
L 104.709605 217.243063 
L 101.76895 217.243063 
L 101.76895 217.690697 
L 101.278841 217.690697 
L 101.278841 217.98912 
L 100.788732 217.98912 
L 100.788732 218.138331 
L 100.298623 218.138331 
L 100.298623 219.182811 
L 99.808514 219.182811 
L 99.808514 219.481234 
L 99.318404 219.481234 
L 99.318404 220.07808 
L 98.828295 220.07808 
L 98.828295 220.525714 
L 98.338186 220.525714 
L 98.338186 221.420983 
L 97.848077 221.420983 
L 97.848077 221.868617 
L 97.357968 221.868617 
L 97.357968 222.614674 
L 96.867859 222.614674 
L 96.867859 222.763886 
L 96.377749 222.763886 
L 96.377749 223.21152 
L 95.88764 223.21152 
L 95.88764 223.957577 
L 95.397531 223.957577 
L 95.397531 224.256 
L 94.907422 224.256 
L 94.907422 224.554423 
L 94.417313 224.554423 
L 94.417313 224.703634 
L 93.927203 224.703634 
L 93.927203 225.151269 
L 93.437094 225.151269 
L 93.437094 225.30048 
L 90.00633 225.30048 
L 90.00633 225.449691 
L 89.516221 225.449691 
L 89.516221 225.748114 
L 89.026112 225.748114 
L 89.026112 226.34496 
L 88.045893 226.34496 
L 88.045893 226.941806 
L 87.065675 226.941806 
L 87.065675 227.38944 
L 86.575566 227.38944 
L 86.575566 227.986286 
L 86.085457 227.986286 
L 86.085457 228.284709 
L 85.595347 228.284709 
L 85.595347 228.881554 
L 85.105238 228.881554 
L 85.105238 230.373669 
L 84.615129 230.373669 
L 84.615129 231.268937 
L 84.12502 231.268937 
L 84.12502 233.208686 
L 83.634911 233.208686 
L 83.634911 234.253166 
L 83.144802 234.253166 
L 83.144802 235.446857 
L 82.654692 235.446857 
L 82.654692 236.192914 
L 81.674474 236.192914 
L 81.674474 236.938971 
L 81.184365 236.938971 
L 81.184365 237.088183 
L 80.694256 237.088183 
L 80.694256 237.237394 
L 80.204147 237.237394 
L 80.204147 237.386606 
L 79.714037 237.386606 
L 79.714037 237.685029 
L 79.223928 237.685029 
L 79.223928 237.83424 
L 78.733819 237.83424 
L 78.733819 237.983451 
L 78.24371 237.983451 
L 78.24371 239.177143 
L 77.753601 239.177143 
L 77.753601 241.564526 
L 77.263492 241.564526 
L 77.263492 245.593234 
L 76.773382 245.593234 
L 76.773382 248.428251 
L 76.283273 248.428251 
L 76.283273 252.158537 
L 75.793164 252.158537 
L 75.793164 257.380937 
L 75.303055 257.380937 
L 75.303055 266.0352 
L 74.812946 266.0352 
L 74.812946 272.749714 
L 74.322836 272.749714 
L 74.322836 275.43552 
L 73.832727 275.43552 
L 73.832727 276.48 
L 73.832727 276.48 
z
" clip-path="url(#p5219573bfd)" style="fill: #43b5a0; fill-opacity: 0.8"/>
   </g>
   <g id="matplotlib.axis_1">
    <g id="xtick_1">
     <g id="line2d_1">
      <defs>
       <path id="mf9b265de2d" d="M 0 0 
L 0 3.5 
" style="stroke: #ffffff; stroke-width: 0.8"/>
      </defs>
      <g>
       <use xlink:href="#mf9b265de2d" x="102.259059" y="276.48" style="fill: #ffffff; stroke: #ffffff; stroke-width: 0.8"/>
      </g>
     </g>
     <g id="text_1">
      <!-- Fri 12/24 -->
      <g style="fill: #ffffff" transform="translate(63.189875 312.01669)rotate(-30)scale(0.1 -0.1)">
       <defs>
        <path id="DejaVuSans-46" d="M 628 4666 
L 3309 4666 
L 3309 4134 
L 1259 4134 
L 1259 2759 
L 3109 2759 
L 3109 2228 
L 1259 2228 
L 1259 0 
L 628 0 
L 628 4666 
z
" transform="scale(0.015625)"/>
        <path id="DejaVuSans-72" d="M 2631 2963 
Q 2534 3019 2420 3045 
Q 2306 3072 2169 3072 
Q 1681 3072 1420 2755 
Q 1159 2438 1159 1844 
L 1159 0 
L 581 0 
L 581 3500 
L 1159 3500 
L 1159 2956 
Q 1341 3275 1631 3429 
Q 1922 3584 2338 3584 
Q 2397 3584 2469 3576 
Q 2541 3569 2628 3553 
L 2631 2963 
z
" transform="scale(0.015625)"/>
        <path id="DejaVuSans-69" d="M 603 3500 
L 1178 3500 
L 1178 0 
L 603 0 
L 603 3500 
z
M 603 4863 
L 1178 4863 
L 1178 4134 
L 603 4134 
L 603 4863 
z
" transform="scale(0.015625)"/>
        <path id="DejaVuSans-20" transform="scale(0.015625)"/>
        <path id="DejaVuSans-31" d="M 794 531 
L 1825 531 
L 1825 4091 
L 703 3866 
L 703 4441 
L 1819 4666 
L 2450 4666 
L 2450 531 
L 3481 531 
L 3481 0 
L 794 0 
L 794 531 
z
" transform="scale(0.015625)"/>
        <path id="DejaVuSans-32" d="M 1228 531 
L 3431 531 
L 3431 0 
L 469 0 
L 469 531 
Q 828 903 1448 1529 
Q 2069 2156 2228 2338 
Q 2531 2678 2651 2914 
Q 2772 3150 2772 3378 
Q 2772 3750 2511 3984 
Q 2250 4219 1831 4219 
Q 1534 4219 1204 4116 
Q 875 4013 500 3803 
L 500 4441 
Q 881 4594 1212 4672 
Q 1544 4750 1819 4750 
Q 2544 4750 2975 4387 
Q 3406 4025 3406 3419 
Q 3406 3131 3298 2873 
Q 3191 2616 2906 2266 
Q 2828 2175 2409 1742 
Q 1991 1309 1228 531 
z
" transform="scale(0.015625)"/>
        <path id="DejaVuSans-2f" d="M 1625 4666 
L 2156 4666 
L 531 -594 
L 0 -594 
L 1625 4666 
z
" transform="scale(0.015625)"/>
        <path id="DejaVuSans-34" d="M 2419 4116 
L 825 1625 
L 2419 1625 
L 2419 4116 
z
M 2253 4666 
L 3047 4666 
L 3047 1625 
L 3713 1625 
L 3713 1100 
L 3047 1100 
L 3047 0 
L 2419 0 
L 2419 1100 
L 313 1100 
L 313 1709 
L 2253 4666 
z
" transform="scale(0.015625)"/>
       </defs>
       <use xlink:href="#DejaVuSans-46"/>
       <use xlink:href="#DejaVuSans-72" x="50.269531"/>
       <use xlink:href="#DejaVuSans-69" x="91.382812"/>
       <use xlink:href="#DejaVuSans-20" x="119.166016"/>
       <use xlink:href="#DejaVuSans-31" x="150.953125"/>
       <use xlink:href="#DejaVuSans-32" x="214.576172"/>
       <use xlink:href="#DejaVuSans-2f" x="278.199219"/>
       <use xlink:href="#DejaVuSans-32" x="311.890625"/>
       <use xlink:href="#DejaVuSans-34" x="375.513672"/>
      </g>
     </g>
    </g>
    <g id="xtick_2">
     <g id="line2d_2">
      <g>
       <use xlink:href="#mf9b265de2d" x="137.54692" y="276.48" style="fill: #ffffff; stroke: #ffffff; stroke-width: 0.8"/>
      </g>
     </g>
     <g id="text_2">
      <!-- Mon 12/27 -->
      <g style="fill: #ffffff" transform="translate(90.537365 316.601065)rotate(-30)scale(0.1 -0.1)">
       <defs>
        <path id="DejaVuSans-4d" d="M 628 4666 
L 1569 4666 
L 2759 1491 
L 3956 4666 
L 4897 4666 
L 4897 0 
L 4281 0 
L 4281 4097 
L 3078 897 
L 2444 897 
L 1241 4097 
L 1241 0 
L 628 0 
L 628 4666 
z
" transform="scale(0.015625)"/>
        <path id="DejaVuSans-6f" d="M 1959 3097 
Q 1497 3097 1228 2736 
Q 959 2375 959 1747 
Q 959 1119 1226 758 
Q 1494 397 1959 397 
Q 2419 397 2687 759 
Q 2956 1122 2956 1747 
Q 2956 2369 2687 2733 
Q 2419 3097 1959 3097 
z
M 1959 3584 
Q 2709 3584 3137 3096 
Q 3566 2609 3566 1747 
Q 3566 888 3137 398 
Q 2709 -91 1959 -91 
Q 1206 -91 779 398 
Q 353 888 353 1747 
Q 353 2609 779 3096 
Q 1206 3584 1959 3584 
z
" transform="scale(0.015625)"/>
        <path id="DejaVuSans-6e" d="M 3513 2113 
L 3513 0 
L 2938 0 
L 2938 2094 
Q 2938 2591 2744 2837 
Q 2550 3084 2163 3084 
Q 1697 3084 1428 2787 
Q 1159 2491 1159 1978 
L 1159 0 
L 581 0 
L 581 3500 
L 1159 3500 
L 1159 2956 
Q 1366 3272 1645 3428 
Q 1925 3584 2291 3584 
Q 2894 3584 3203 3211 
Q 3513 2838 3513 2113 
z
" transform="scale(0.015625)"/>
        <path id="DejaVuSans-37" d="M 525 4666 
L 3525 4666 
L 3525 4397 
L 1831 0 
L 1172 0 
L 2766 4134 
L 525 4134 
L 525 4666 
z
" transform="scale(0.015625)"/>
       </defs>
       <use xlink:href="#DejaVuSans-4d"/>
       <use xlink:href="#DejaVuSans-6f" x="86.279297"/>
       <use xlink:href="#DejaVuSans-6e" x="147.460938"/>
       <use xlink:href="#DejaVuSans-20" x="210.839844"/>
       <use xlink:href="#DejaVuSans-31" x="242.626953"/>
       <use xlink:href="#DejaVuSans-32" x="306.25"/>
       <use xlink:href="#DejaVuSans-2f" x="369.873047"/>
       <use xlink:href="#DejaVuSans-32" x="403.564453"/>
       <use xlink:href="#DejaVuSans-37" x="467.1875"/>
      </g>
     </g>
    </g>
    <g id="xtick_3">
     <g id="line2d_3">
      <g>
       <use xlink:href="#mf9b265de2d" x="184.597401" y="276.48" style="fill: #ffffff; stroke: #ffffff; stroke-width: 0.8"/>
      </g>
     </g>
     <g id="text_3">
      <!-- Fri 12/31 -->
      <g style="fill: #ffffff" transform="translate(145.528217 312.01669)rotate(-30)scale(0.1 -0.1)">
       <defs>
        <path id="DejaVuSans-33" d="M 2597 2516 
Q 3050 2419 3304 2112 
Q 3559 1806 3559 1356 
Q 3559 666 3084 287 
Q 2609 -91 1734 -91 
Q 1441 -91 1130 -33 
Q 819 25 488 141 
L 488 750 
Q 750 597 1062 519 
Q 1375 441 1716 441 
Q 2309 441 2620 675 
Q 2931 909 2931 1356 
Q 2931 1769 2642 2001 
Q 2353 2234 1838 2234 
L 1294 2234 
L 1294 2753 
L 1863 2753 
Q 2328 2753 2575 2939 
Q 2822 3125 2822 3475 
Q 2822 3834 2567 4026 
Q 2313 4219 1838 4219 
Q 1578 4219 1281 4162 
Q 984 4106 628 3988 
L 628 4550 
Q 988 4650 1302 4700 
Q 1616 4750 1894 4750 
Q 2613 4750 3031 4423 
Q 3450 4097 3450 3541 
Q 3450 3153 3228 2886 
Q 3006 2619 2597 2516 
z
" transform="scale(0.015625)"/>
       </defs>
       <use xlink:href="#DejaVuSans-46"/>
       <use xlink:href="#DejaVuSans-72" x="50.269531"/>
       <use xlink:href="#DejaVuSans-69" x="91.382812"/>
       <use xlink:href="#DejaVuSans-20" x="119.166016"/>
       <use xlink:href="#DejaVuSans-31" x="150.953125"/>
       <use xlink:href="#DejaVuSans-32" x="214.576172"/>
       <use xlink:href="#DejaVuSans-2f" x="278.199219"/>
       <use xlink:href="#DejaVuSans-33" x="311.890625"/>
       <use xlink:href="#DejaVuSans-31" x="375.513672"/>
      </g>
     </g>
    </g>
    <g id="xtick_4">
     <g id="line2d_4">
      <g>
       <use xlink:href="#mf9b265de2d" x="219.885262" y="276.48" style="fill: #ffffff; stroke: #ffffff; stroke-width: 0.8"/>
      </g>
     </g>
     <g id="text_4">
      <!-- Mon 01/03 -->
      <g style="fill: #ffffff" transform="translate(172.875707 316.601065)rotate(-30)scale(0.1 -0.1)">
       <defs>
        <path id="DejaVuSans-30" d="M 2034 4250 
Q 1547 4250 1301 3770 
Q 1056 3291 1056 2328 
Q 1056 1369 1301 889 
Q 1547 409 2034 409 
Q 2525 409 2770 889 
Q 3016 1369 3016 2328 
Q 3016 3291 2770 3770 
Q 2525 4250 2034 4250 
z
M 2034 4750 
Q 2819 4750 3233 4129 
Q 3647 3509 3647 2328 
Q 3647 1150 3233 529 
Q 2819 -91 2034 -91 
Q 1250 -91 836 529 
Q 422 1150 422 2328 
Q 422 3509 836 4129 
Q 1250 4750 2034 4750 
z
" transform="scale(0.015625)"/>
       </defs>
       <use xlink:href="#DejaVuSans-4d"/>
       <use xlink:href="#DejaVuSans-6f" x="86.279297"/>
       <use xlink:href="#DejaVuSans-6e" x="147.460938"/>
       <use xlink:href="#DejaVuSans-20" x="210.839844"/>
       <use xlink:href="#DejaVuSans-30" x="242.626953"/>
       <use xlink:href="#DejaVuSans-31" x="306.25"/>
       <use xlink:href="#DejaVuSans-2f" x="369.873047"/>
       <use xlink:href="#DejaVuSans-30" x="403.564453"/>
       <use xlink:href="#DejaVuSans-33" x="467.1875"/>
      </g>
     </g>
    </g>
    <g id="xtick_5">
     <g id="line2d_5">
      <g>
       <use xlink:href="#mf9b265de2d" x="266.935742" y="276.48" style="fill: #ffffff; stroke: #ffffff; stroke-width: 0.8"/>
      </g>
     </g>
     <g id="text_5">
      <!-- Fri 01/07 -->
      <g style="fill: #ffffff" transform="translate(227.866558 312.01669)rotate(-30)scale(0.1 -0.1)">
       <use xlink:href="#DejaVuSans-46"/>
       <use xlink:href="#DejaVuSans-72" x="50.269531"/>
       <use xlink:href="#DejaVuSans-69" x="91.382812"/>
       <use xlink:href="#DejaVuSans-20" x="119.166016"/>
       <use xlink:href="#DejaVuSans-30" x="150.953125"/>
       <use xlink:href="#DejaVuSans-31" x="214.576172"/>
       <use xlink:href="#DejaVuSans-2f" x="278.199219"/>
       <use xlink:href="#DejaVuSans-30" x="311.890625"/>
       <use xlink:href="#DejaVuSans-37" x="375.513672"/>
      </g>
     </g>
    </g>
    <g id="xtick_6">
     <g id="line2d_6">
      <g>
       <use xlink:href="#mf9b265de2d" x="302.223603" y="276.48" style="fill: #ffffff; stroke: #ffffff; stroke-width: 0.8"/>
      </g>
     </g>
     <g id="text_6">
      <!-- Mon 01/10 -->
      <g style="fill: #ffffff" transform="translate(255.214048 316.601065)rotate(-30)scale(0.1 -0.1)">
       <use xlink:href="#DejaVuSans-4d"/>
       <use xlink:href="#DejaVuSans-6f" x="86.279297"/>
       <use xlink:href="#DejaVuSans-6e" x="147.460938"/>
       <use xlink:href="#DejaVuSans-20" x="210.839844"/>
       <use xlink:href="#DejaVuSans-30" x="242.626953"/>
       <use xlink:href="#DejaVuSans-31" x="306.25"/>
       <use xlink:href="#DejaVuSans-2f" x="369.873047"/>
       <use xlink:href="#DejaVuSans-31" x="403.564453"/>
       <use xlink:href="#DejaVuSans-30" x="467.1875"/>
      </g>
     </g>
    </g>
    <g id="xtick_7">
     <g id="line2d_7">
      <g>
       <use xlink:href="#mf9b265de2d" x="349.274084" y="276.48" style="fill: #ffffff; stroke: #ffffff; stroke-width: 0.8"/>
      </g>
     </g>
     <g id="text_7">
      <!-- Fri 01/14 -->
      <g style="fill: #ffffff" transform="translate(310.2049 312.01669)rotate(-30)scale(0.1 -0.1)">
       <use xlink:href="#DejaVuSans-46"/>
       <use xlink:href="#DejaVuSans-72" x="50.269531"/>
       <use xlink:href="#DejaVuSans-69" x="91.382812"/>
       <use xlink:href="#DejaVuSans-20" x="119.166016"/>
       <use xlink:href="#DejaVuSans-30" x="150.953125"/>
       <use xlink:href="#DejaVuSans-31" x="214.576172"/>
       <use xlink:href="#DejaVuSans-2f" x="278.199219"/>
       <use xlink:href="#DejaVuSans-31" x="311.890625"/>
       <use xlink:href="#DejaVuSans-34" x="375.513672"/>
      </g>
     </g>
    </g>
    <g id="xtick_8">
     <g id="line2d_8">
      <g>
       <use xlink:href="#mf9b265de2d" x="384.561944" y="276.48" style="fill: #ffffff; stroke: #ffffff; stroke-width: 0.8"/>
      </g>
     </g>
     <g id="text_8">
      <!-- Mon 01/17 -->
      <g style="fill: #ffffff" transform="translate(337.55239 316.601065)rotate(-30)scale(0.1 -0.1)">
       <use xlink:href="#DejaVuSans-4d"/>
       <use xlink:href="#DejaVuSans-6f" x="86.279297"/>
       <use xlink:href="#DejaVuSans-6e" x="147.460938"/>
       <use xlink:href="#DejaVuSans-20" x="210.839844"/>
       <use xlink:href="#DejaVuSans-30" x="242.626953"/>
       <use xlink:href="#DejaVuSans-31" x="306.25"/>
       <use xlink:href="#DejaVuSans-2f" x="369.873047"/>
       <use xlink:href="#DejaVuSans-31" x="403.564453"/>
       <use xlink:href="#DejaVuSans-37" x="467.1875"/>
      </g>
     </g>
    </g>
    <g id="xtick_9">
     <g id="line2d_9">
      <defs>
       <path id="m361de75b94" d="M 0 0 
L 0 2 
" style="stroke: #ffffff; stroke-width: 0.6"/>
      </defs>
      <g>
       <use xlink:href="#m361de75b94" x="66.971199" y="276.48" style="fill: #ffffff; stroke: #ffffff; stroke-width: 0.6"/>
      </g>
     </g>
    </g>
    <g id="xtick_10">
     <g id="line2d_10">
      <g>
       <use xlink:href="#m361de75b94" x="78.733819" y="276.48" style="fill: #ffffff; stroke: #ffffff; stroke-width: 0.6"/>
      </g>
     </g>
    </g>
    <g id="xtick_11">
     <g id="line2d_11">
      <g>
       <use xlink:href="#m361de75b94" x="90.496439" y="276.48" style="fill: #ffffff; stroke: #ffffff; stroke-width: 0.6"/>
      </g>
     </g>
    </g>
    <g id="xtick_12">
     <g id="line2d_12">
      <g>
       <use xlink:href="#m361de75b94" x="114.02168" y="276.48" style="fill: #ffffff; stroke: #ffffff; stroke-width: 0.6"/>
      </g>
     </g>
    </g>
    <g id="xtick_13">
     <g id="line2d_13">
      <g>
       <use xlink:href="#m361de75b94" x="125.7843" y="276.48" style="fill: #ffffff; stroke: #ffffff; stroke-width: 0.6"/>
      </g>
     </g>
    </g>
    <g id="xtick_14">
     <g id="line2d_14">
      <g>
       <use xlink:href="#m361de75b94" x="149.30954" y="276.48" style="fill: #ffffff; stroke: #ffffff; stroke-width: 0.6"/>
      </g>
     </g>
    </g>
    <g id="xtick_15">
     <g id="line2d_15">
      <g>
       <use xlink:href="#m361de75b94" x="161.07216" y="276.48" style="fill: #ffffff; stroke: #ffffff; stroke-width: 0.6"/>
      </g>
     </g>
    </g>
    <g id="xtick_16">
     <g id="line2d_16">
      <g>
       <use xlink:href="#m361de75b94" x="172.834781" y="276.48" style="fill: #ffffff; stroke: #ffffff; stroke-width: 0.6"/>
      </g>
     </g>
    </g>
    <g id="xtick_17">
     <g id="line2d_17">
      <g>
       <use xlink:href="#m361de75b94" x="196.360021" y="276.48" style="fill: #ffffff; stroke: #ffffff; stroke-width: 0.6"/>
      </g>
     </g>
    </g>
    <g id="xtick_18">
     <g id="line2d_18">
      <g>
       <use xlink:href="#m361de75b94" x="208.122641" y="276.48" style="fill: #ffffff; stroke: #ffffff; stroke-width: 0.6"/>
      </g>
     </g>
    </g>
    <g id="xtick_19">
     <g id="line2d_19">
      <g>
       <use xlink:href="#m361de75b94" x="231.647882" y="276.48" style="fill: #ffffff; stroke: #ffffff; stroke-width: 0.6"/>
      </g>
     </g>
    </g>
    <g id="xtick_20">
     <g id="line2d_20">
      <g>
       <use xlink:href="#m361de75b94" x="243.410502" y="276.48" style="fill: #ffffff; stroke: #ffffff; stroke-width: 0.6"/>
      </g>
     </g>
    </g>
    <g id="xtick_21">
     <g id="line2d_21">
      <g>
       <use xlink:href="#m361de75b94" x="255.173122" y="276.48" style="fill: #ffffff; stroke: #ffffff; stroke-width: 0.6"/>
      </g>
     </g>
    </g>
    <g id="xtick_22">
     <g id="line2d_22">
      <g>
       <use xlink:href="#m361de75b94" x="278.698363" y="276.48" style="fill: #ffffff; stroke: #ffffff; stroke-width: 0.6"/>
      </g>
     </g>
    </g>
    <g id="xtick_23">
     <g id="line2d_23">
      <g>
       <use xlink:href="#m361de75b94" x="290.460983" y="276.48" style="fill: #ffffff; stroke: #ffffff; stroke-width: 0.6"/>
      </g>
     </g>
    </g>
    <g id="xtick_24">
     <g id="line2d_24">
      <g>
       <use xlink:href="#m361de75b94" x="313.986223" y="276.48" style="fill: #ffffff; stroke: #ffffff; stroke-width: 0.6"/>
      </g>
     </g>
    </g>
    <g id="xtick_25">
     <g id="line2d_25">
      <g>
       <use xlink:href="#m361de75b94" x="325.748843" y="276.48" style="fill: #ffffff; stroke: #ffffff; stroke-width: 0.6"/>
      </g>
     </g>
    </g>
    <g id="xtick_26">
     <g id="line2d_26">
      <g>
       <use xlink:href="#m361de75b94" x="337.511464" y="276.48" style="fill: #ffffff; stroke: #ffffff; stroke-width: 0.6"/>
      </g>
     </g>
    </g>
    <g id="xtick_27">
     <g id="line2d_27">
      <g>
       <use xlink:href="#m361de75b94" x="361.036704" y="276.48" style="fill: #ffffff; stroke: #ffffff; stroke-width: 0.6"/>
      </g>
     </g>
    </g>
    <g id="xtick_28">
     <g id="line2d_28">
      <g>
       <use xlink:href="#m361de75b94" x="372.799324" y="276.48" style="fill: #ffffff; stroke: #ffffff; stroke-width: 0.6"/>
      </g>
     </g>
    </g>
    <g id="xtick_29">
     <g id="line2d_29">
      <g>
       <use xlink:href="#m361de75b94" x="396.324565" y="276.48" style="fill: #ffffff; stroke: #ffffff; stroke-width: 0.6"/>
      </g>
     </g>
    </g>
    <g id="xtick_30">
     <g id="line2d_30">
      <g>
       <use xlink:href="#m361de75b94" x="408.087185" y="276.48" style="fill: #ffffff; stroke: #ffffff; stroke-width: 0.6"/>
      </g>
     </g>
    </g>
   </g>
   <g id="matplotlib.axis_2">
    <g id="ytick_1">
     <g id="line2d_31">
      <defs>
       <path id="m5a79526eed" d="M 0 0 
L -3.5 0 
" style="stroke: #ffffff; stroke-width: 0.8"/>
      </defs>
      <g>
       <use xlink:href="#m5a79526eed" x="57.6" y="276.48" style="fill: #ffffff; stroke: #ffffff; stroke-width: 0.8"/>
      </g>
     </g>
     <g id="text_9">
      <!-- 0 -->
      <g style="fill: #ffffff" transform="translate(44.2375 280.279219)scale(0.1 -0.1)">
       <use xlink:href="#DejaVuSans-30"/>
      </g>
     </g>
    </g>
    <g id="ytick_2">
     <g id="line2d_32">
      <g>
       <use xlink:href="#m5a79526eed" x="57.6" y="246.637714" style="fill: #ffffff; stroke: #ffffff; stroke-width: 0.8"/>
      </g>
     </g>
     <g id="text_10">
      <!-- 200 -->
      <g style="fill: #ffffff" transform="translate(31.5125 250.436933)scale(0.1 -0.1)">
       <use xlink:href="#DejaVuSans-32"/>
       <use xlink:href="#DejaVuSans-30" x="63.623047"/>
       <use xlink:href="#DejaVuSans-30" x="127.246094"/>
      </g>
     </g>
    </g>
    <g id="ytick_3">
     <g id="line2d_33">
      <g>
       <use xlink:href="#m5a79526eed" x="57.6" y="216.795429" style="fill: #ffffff; stroke: #ffffff; stroke-width: 0.8"/>
      </g>
     </g>
     <g id="text_11">
      <!-- 400 -->
      <g style="fill: #ffffff" transform="translate(31.5125 220.594647)scale(0.1 -0.1)">
       <use xlink:href="#DejaVuSans-34"/>
       <use xlink:href="#DejaVuSans-30" x="63.623047"/>
       <use xlink:href="#DejaVuSans-30" x="127.246094"/>
      </g>
     </g>
    </g>
    <g id="ytick_4">
     <g id="line2d_34">
      <g>
       <use xlink:href="#m5a79526eed" x="57.6" y="186.953143" style="fill: #ffffff; stroke: #ffffff; stroke-width: 0.8"/>
      </g>
     </g>
     <g id="text_12">
      <!-- 600 -->
      <g style="fill: #ffffff" transform="translate(31.5125 190.752362)scale(0.1 -0.1)">
       <defs>
        <path id="DejaVuSans-36" d="M 2113 2584 
Q 1688 2584 1439 2293 
Q 1191 2003 1191 1497 
Q 1191 994 1439 701 
Q 1688 409 2113 409 
Q 2538 409 2786 701 
Q 3034 994 3034 1497 
Q 3034 2003 2786 2293 
Q 2538 2584 2113 2584 
z
M 3366 4563 
L 3366 3988 
Q 3128 4100 2886 4159 
Q 2644 4219 2406 4219 
Q 1781 4219 1451 3797 
Q 1122 3375 1075 2522 
Q 1259 2794 1537 2939 
Q 1816 3084 2150 3084 
Q 2853 3084 3261 2657 
Q 3669 2231 3669 1497 
Q 3669 778 3244 343 
Q 2819 -91 2113 -91 
Q 1303 -91 875 529 
Q 447 1150 447 2328 
Q 447 3434 972 4092 
Q 1497 4750 2381 4750 
Q 2619 4750 2861 4703 
Q 3103 4656 3366 4563 
z
" transform="scale(0.015625)"/>
       </defs>
       <use xlink:href="#DejaVuSans-36"/>
       <use xlink:href="#DejaVuSans-30" x="63.623047"/>
       <use xlink:href="#DejaVuSans-30" x="127.246094"/>
      </g>
     </g>
    </g>
    <g id="ytick_5">
     <g id="line2d_35">
      <g>
       <use xlink:href="#m5a79526eed" x="57.6" y="157.110857" style="fill: #ffffff; stroke: #ffffff; stroke-width: 0.8"/>
      </g>
     </g>
     <g id="text_13">
      <!-- 800 -->
      <g style="fill: #ffffff" transform="translate(31.5125 160.910076)scale(0.1 -0.1)">
       <defs>
        <path id="DejaVuSans-38" d="M 2034 2216 
Q 1584 2216 1326 1975 
Q 1069 1734 1069 1313 
Q 1069 891 1326 650 
Q 1584 409 2034 409 
Q 2484 409 2743 651 
Q 3003 894 3003 1313 
Q 3003 1734 2745 1975 
Q 2488 2216 2034 2216 
z
M 1403 2484 
Q 997 2584 770 2862 
Q 544 3141 544 3541 
Q 544 4100 942 4425 
Q 1341 4750 2034 4750 
Q 2731 4750 3128 4425 
Q 3525 4100 3525 3541 
Q 3525 3141 3298 2862 
Q 3072 2584 2669 2484 
Q 3125 2378 3379 2068 
Q 3634 1759 3634 1313 
Q 3634 634 3220 271 
Q 2806 -91 2034 -91 
Q 1263 -91 848 271 
Q 434 634 434 1313 
Q 434 1759 690 2068 
Q 947 2378 1403 2484 
z
M 1172 3481 
Q 1172 3119 1398 2916 
Q 1625 2713 2034 2713 
Q 2441 2713 2670 2916 
Q 2900 3119 2900 3481 
Q 2900 3844 2670 4047 
Q 2441 4250 2034 4250 
Q 1625 4250 1398 4047 
Q 1172 3844 1172 3481 
z
" transform="scale(0.015625)"/>
       </defs>
       <use xlink:href="#DejaVuSans-38"/>
       <use xlink:href="#DejaVuSans-30" x="63.623047"/>
       <use xlink:href="#DejaVuSans-30" x="127.246094"/>
      </g>
     </g>
    </g>
    <g id="ytick_6">
     <g id="line2d_36">
      <g>
       <use xlink:href="#m5a79526eed" x="57.6" y="127.268571" style="fill: #ffffff; stroke: #ffffff; stroke-width: 0.8"/>
      </g>
     </g>
     <g id="text_14">
      <!-- 1000 -->
      <g style="fill: #ffffff" transform="translate(25.15 131.06779)scale(0.1 -0.1)">
       <use xlink:href="#DejaVuSans-31"/>
       <use xlink:href="#DejaVuSans-30" x="63.623047"/>
       <use xlink:href="#DejaVuSans-30" x="127.246094"/>
       <use xlink:href="#DejaVuSans-30" x="190.869141"/>
      </g>
     </g>
    </g>
    <g id="ytick_7">
     <g id="line2d_37">
      <g>
       <use xlink:href="#m5a79526eed" x="57.6" y="97.426286" style="fill: #ffffff; stroke: #ffffff; stroke-width: 0.8"/>
      </g>
     </g>
     <g id="text_15">
      <!-- 1200 -->
      <g style="fill: #ffffff" transform="translate(25.15 101.225504)scale(0.1 -0.1)">
       <use xlink:href="#DejaVuSans-31"/>
       <use xlink:href="#DejaVuSans-32" x="63.623047"/>
       <use xlink:href="#DejaVuSans-30" x="127.246094"/>
       <use xlink:href="#DejaVuSans-30" x="190.869141"/>
      </g>
     </g>
    </g>
    <g id="ytick_8">
     <g id="line2d_38">
      <g>
       <use xlink:href="#m5a79526eed" x="57.6" y="67.584" style="fill: #ffffff; stroke: #ffffff; stroke-width: 0.8"/>
      </g>
     </g>
     <g id="text_16">
      <!-- 1400 -->
      <g style="fill: #ffffff" transform="translate(25.15 71.383219)scale(0.1 -0.1)">
       <use xlink:href="#DejaVuSans-31"/>
       <use xlink:href="#DejaVuSans-34" x="63.623047"/>
       <use xlink:href="#DejaVuSans-30" x="127.246094"/>
       <use xlink:href="#DejaVuSans-30" x="190.869141"/>
      </g>
     </g>
    </g>
    <g id="text_17">
     <!-- Number of tickets sold -->
     <g style="fill: #ffffff" transform="translate(19.070312 215.329906)rotate(-90)scale(0.1 -0.1)">
      <defs>
       <path id="DejaVuSans-4e" d="M 628 4666 
L 1478 4666 
L 3547 763 
L 3547 4666 
L 4159 4666 
L 4159 0 
L 3309 0 
L 1241 3903 
L 1241 0 
L 628 0 
L 628 4666 
z
" transform="scale(0.015625)"/>
       <path id="DejaVuSans-75" d="M 544 1381 
L 544 3500 
L 1119 3500 
L 1119 1403 
Q 1119 906 1312 657 
Q 1506 409 1894 409 
Q 2359 409 2629 706 
Q 2900 1003 2900 1516 
L 2900 3500 
L 3475 3500 
L 3475 0 
L 2900 0 
L 2900 538 
Q 2691 219 2414 64 
Q 2138 -91 1772 -91 
Q 1169 -91 856 284 
Q 544 659 544 1381 
z
M 1991 3584 
L 1991 3584 
z
" transform="scale(0.015625)"/>
       <path id="DejaVuSans-6d" d="M 3328 2828 
Q 3544 3216 3844 3400 
Q 4144 3584 4550 3584 
Q 5097 3584 5394 3201 
Q 5691 2819 5691 2113 
L 5691 0 
L 5113 0 
L 5113 2094 
Q 5113 2597 4934 2840 
Q 4756 3084 4391 3084 
Q 3944 3084 3684 2787 
Q 3425 2491 3425 1978 
L 3425 0 
L 2847 0 
L 2847 2094 
Q 2847 2600 2669 2842 
Q 2491 3084 2119 3084 
Q 1678 3084 1418 2786 
Q 1159 2488 1159 1978 
L 1159 0 
L 581 0 
L 581 3500 
L 1159 3500 
L 1159 2956 
Q 1356 3278 1631 3431 
Q 1906 3584 2284 3584 
Q 2666 3584 2933 3390 
Q 3200 3197 3328 2828 
z
" transform="scale(0.015625)"/>
       <path id="DejaVuSans-62" d="M 3116 1747 
Q 3116 2381 2855 2742 
Q 2594 3103 2138 3103 
Q 1681 3103 1420 2742 
Q 1159 2381 1159 1747 
Q 1159 1113 1420 752 
Q 1681 391 2138 391 
Q 2594 391 2855 752 
Q 3116 1113 3116 1747 
z
M 1159 2969 
Q 1341 3281 1617 3432 
Q 1894 3584 2278 3584 
Q 2916 3584 3314 3078 
Q 3713 2572 3713 1747 
Q 3713 922 3314 415 
Q 2916 -91 2278 -91 
Q 1894 -91 1617 61 
Q 1341 213 1159 525 
L 1159 0 
L 581 0 
L 581 4863 
L 1159 4863 
L 1159 2969 
z
" transform="scale(0.015625)"/>
       <path id="DejaVuSans-65" d="M 3597 1894 
L 3597 1613 
L 953 1613 
Q 991 1019 1311 708 
Q 1631 397 2203 397 
Q 2534 397 2845 478 
Q 3156 559 3463 722 
L 3463 178 
Q 3153 47 2828 -22 
Q 2503 -91 2169 -91 
Q 1331 -91 842 396 
Q 353 884 353 1716 
Q 353 2575 817 3079 
Q 1281 3584 2069 3584 
Q 2775 3584 3186 3129 
Q 3597 2675 3597 1894 
z
M 3022 2063 
Q 3016 2534 2758 2815 
Q 2500 3097 2075 3097 
Q 1594 3097 1305 2825 
Q 1016 2553 972 2059 
L 3022 2063 
z
" transform="scale(0.015625)"/>
       <path id="DejaVuSans-66" d="M 2375 4863 
L 2375 4384 
L 1825 4384 
Q 1516 4384 1395 4259 
Q 1275 4134 1275 3809 
L 1275 3500 
L 2222 3500 
L 2222 3053 
L 1275 3053 
L 1275 0 
L 697 0 
L 697 3053 
L 147 3053 
L 147 3500 
L 697 3500 
L 697 3744 
Q 697 4328 969 4595 
Q 1241 4863 1831 4863 
L 2375 4863 
z
" transform="scale(0.015625)"/>
       <path id="DejaVuSans-74" d="M 1172 4494 
L 1172 3500 
L 2356 3500 
L 2356 3053 
L 1172 3053 
L 1172 1153 
Q 1172 725 1289 603 
Q 1406 481 1766 481 
L 2356 481 
L 2356 0 
L 1766 0 
Q 1100 0 847 248 
Q 594 497 594 1153 
L 594 3053 
L 172 3053 
L 172 3500 
L 594 3500 
L 594 4494 
L 1172 4494 
z
" transform="scale(0.015625)"/>
       <path id="DejaVuSans-63" d="M 3122 3366 
L 3122 2828 
Q 2878 2963 2633 3030 
Q 2388 3097 2138 3097 
Q 1578 3097 1268 2742 
Q 959 2388 959 1747 
Q 959 1106 1268 751 
Q 1578 397 2138 397 
Q 2388 397 2633 464 
Q 2878 531 3122 666 
L 3122 134 
Q 2881 22 2623 -34 
Q 2366 -91 2075 -91 
Q 1284 -91 818 406 
Q 353 903 353 1747 
Q 353 2603 823 3093 
Q 1294 3584 2113 3584 
Q 2378 3584 2631 3529 
Q 2884 3475 3122 3366 
z
" transform="scale(0.015625)"/>
       <path id="DejaVuSans-6b" d="M 581 4863 
L 1159 4863 
L 1159 1991 
L 2875 3500 
L 3609 3500 
L 1753 1863 
L 3688 0 
L 2938 0 
L 1159 1709 
L 1159 0 
L 581 0 
L 581 4863 
z
" transform="scale(0.015625)"/>
       <path id="DejaVuSans-73" d="M 2834 3397 
L 2834 2853 
Q 2591 2978 2328 3040 
Q 2066 3103 1784 3103 
Q 1356 3103 1142 2972 
Q 928 2841 928 2578 
Q 928 2378 1081 2264 
Q 1234 2150 1697 2047 
L 1894 2003 
Q 2506 1872 2764 1633 
Q 3022 1394 3022 966 
Q 3022 478 2636 193 
Q 2250 -91 1575 -91 
Q 1294 -91 989 -36 
Q 684 19 347 128 
L 347 722 
Q 666 556 975 473 
Q 1284 391 1588 391 
Q 1994 391 2212 530 
Q 2431 669 2431 922 
Q 2431 1156 2273 1281 
Q 2116 1406 1581 1522 
L 1381 1569 
Q 847 1681 609 1914 
Q 372 2147 372 2553 
Q 372 3047 722 3315 
Q 1072 3584 1716 3584 
Q 2034 3584 2315 3537 
Q 2597 3491 2834 3397 
z
" transform="scale(0.015625)"/>
       <path id="DejaVuSans-6c" d="M 603 4863 
L 1178 4863 
L 1178 0 
L 603 0 
L 603 4863 
z
" transform="scale(0.015625)"/>
       <path id="DejaVuSans-64" d="M 2906 2969 
L 2906 4863 
L 3481 4863 
L 3481 0 
L 2906 0 
L 2906 525 
Q 2725 213 2448 61 
Q 2172 -91 1784 -91 
Q 1150 -91 751 415 
Q 353 922 353 1747 
Q 353 2572 751 3078 
Q 1150 3584 1784 3584 
Q 2172 3584 2448 3432 
Q 2725 3281 2906 2969 
z
M 947 1747 
Q 947 1113 1208 752 
Q 1469 391 1925 391 
Q 2381 391 2643 752 
Q 2906 1113 2906 1747 
Q 2906 2381 2643 2742 
Q 2381 3103 1925 3103 
Q 1469 3103 1208 2742 
Q 947 2381 947 1747 
z
" transform="scale(0.015625)"/>
      </defs>
      <use xlink:href="#DejaVuSans-4e"/>
      <use xlink:href="#DejaVuSans-75" x="74.804688"/>
      <use xlink:href="#DejaVuSans-6d" x="138.183594"/>
      <use xlink:href="#DejaVuSans-62" x="235.595703"/>
      <use xlink:href="#DejaVuSans-65" x="299.072266"/>
      <use xlink:href="#DejaVuSans-72" x="360.595703"/>
      <use xlink:href="#DejaVuSans-20" x="401.708984"/>
      <use xlink:href="#DejaVuSans-6f" x="433.496094"/>
      <use xlink:href="#DejaVuSans-66" x="494.677734"/>
      <use xlink:href="#DejaVuSans-20" x="529.882812"/>
      <use xlink:href="#DejaVuSans-74" x="561.669922"/>
      <use xlink:href="#DejaVuSans-69" x="600.878906"/>
      <use xlink:href="#DejaVuSans-63" x="628.662109"/>
      <use xlink:href="#DejaVuSans-6b" x="683.642578"/>
      <use xlink:href="#DejaVuSans-65" x="737.927734"/>
      <use xlink:href="#DejaVuSans-74" x="799.451172"/>
      <use xlink:href="#DejaVuSans-73" x="838.660156"/>
      <use xlink:href="#DejaVuSans-20" x="890.759766"/>
      <use xlink:href="#DejaVuSans-73" x="922.546875"/>
      <use xlink:href="#DejaVuSans-6f" x="974.646484"/>
      <use xlink:href="#DejaVuSans-6c" x="1035.828125"/>
      <use xlink:href="#DejaVuSans-64" x="1063.611328"/>
     </g>
    </g>
   </g>
   <g id="line2d_39">
    <path d="M 57.6 52.662857 
L 414.72 52.662857 
" clip-path="url(#p5219573bfd)" style="fill: none; stroke-dasharray: 5.55,2.4; stroke-dashoffset: 0; stroke: #32cd32; stroke-width: 1.5"/>
   </g>
   <g id="patch_3">
    <path d="M 57.6 276.48 
L 57.6 41.472 
" style="fill: none; stroke: #000000; stroke-width: 0.8; stroke-linejoin: miter; stroke-linecap: square"/>
   </g>
   <g id="patch_4">
    <path d="M 414.72 276.48 
L 414.72 41.472 
" style="fill: none; stroke: #000000; stroke-width: 0.8; stroke-linejoin: miter; stroke-linecap: square"/>
   </g>
   <g id="patch_5">
    <path d="M 57.6 276.48 
L 414.72 276.48 
" style="fill: none; stroke: #000000; stroke-width: 0.8; stroke-linejoin: miter; stroke-linecap: square"/>
   </g>
   <g id="patch_6">
    <path d="M 57.6 41.472 
L 414.72 41.472 
" style="fill: none; stroke: #000000; stroke-width: 0.8; stroke-linejoin: miter; stroke-linecap: square"/>
   </g>
   <g id="text_18">
    <!-- MCH Tickets -->
    <g style="fill: #ffffff" transform="translate(199.504687 35.472)scale(0.12 -0.12)">
     <defs>
      <path id="DejaVuSans-43" d="M 4122 4306 
L 4122 3641 
Q 3803 3938 3442 4084 
Q 3081 4231 2675 4231 
Q 1875 4231 1450 3742 
Q 1025 3253 1025 2328 
Q 1025 1406 1450 917 
Q 1875 428 2675 428 
Q 3081 428 3442 575 
Q 3803 722 4122 1019 
L 4122 359 
Q 3791 134 3420 21 
Q 3050 -91 2638 -91 
Q 1578 -91 968 557 
Q 359 1206 359 2328 
Q 359 3453 968 4101 
Q 1578 4750 2638 4750 
Q 3056 4750 3426 4639 
Q 3797 4528 4122 4306 
z
" transform="scale(0.015625)"/>
      <path id="DejaVuSans-48" d="M 628 4666 
L 1259 4666 
L 1259 2753 
L 3553 2753 
L 3553 4666 
L 4184 4666 
L 4184 0 
L 3553 0 
L 3553 2222 
L 1259 2222 
L 1259 0 
L 628 0 
L 628 4666 
z
" transform="scale(0.015625)"/>
      <path id="DejaVuSans-54" d="M -19 4666 
L 3928 4666 
L 3928 4134 
L 2272 4134 
L 2272 0 
L 1638 0 
L 1638 4134 
L -19 4134 
L -19 4666 
z
" transform="scale(0.015625)"/>
     </defs>
     <use xlink:href="#DejaVuSans-4d"/>
     <use xlink:href="#DejaVuSans-43" x="86.279297"/>
     <use xlink:href="#DejaVuSans-48" x="156.103516"/>
     <use xlink:href="#DejaVuSans-20" x="231.298828"/>
     <use xlink:href="#DejaVuSans-54" x="263.085938"/>
     <use xlink:href="#DejaVuSans-69" x="321.044922"/>
     <use xlink:href="#DejaVuSans-63" x="348.828125"/>
     <use xlink:href="#DejaVuSans-6b" x="403.808594"/>
     <use xlink:href="#DejaVuSans-65" x="458.09375"/>
     <use xlink:href="#DejaVuSans-74" x="519.617188"/>
     <use xlink:href="#DejaVuSans-73" x="558.826172"/>
    </g>
   </g>
   <g id="legend_1">
    <g id="patch_7">
     <path d="M 64.6 93.506375 
L 244.389062 93.506375 
Q 246.389062 93.506375 246.389062 91.506375 
L 246.389062 48.472 
Q 246.389062 46.472 244.389062 46.472 
L 64.6 46.472 
Q 62.6 46.472 62.6 48.472 
L 62.6 91.506375 
Q 62.6 93.506375 64.6 93.506375 
z
" style="fill: #ffffff; opacity: 0.8; stroke: #cccccc; stroke-linejoin: miter"/>
    </g>
    <g id="patch_8">
     <path d="M 66.6 58.070437 
L 86.6 58.070437 
L 86.6 51.070437 
L 66.6 51.070437 
z
" style="fill: #fa448c; fill-opacity: 0.8"/>
    </g>
    <g id="text_19">
     <!-- Early-BirdTickets -->
     <g transform="translate(94.6 58.070437)scale(0.1 -0.1)">
      <defs>
       <path id="DejaVuSans-45" d="M 628 4666 
L 3578 4666 
L 3578 4134 
L 1259 4134 
L 1259 2753 
L 3481 2753 
L 3481 2222 
L 1259 2222 
L 1259 531 
L 3634 531 
L 3634 0 
L 628 0 
L 628 4666 
z
" transform="scale(0.015625)"/>
       <path id="DejaVuSans-61" d="M 2194 1759 
Q 1497 1759 1228 1600 
Q 959 1441 959 1056 
Q 959 750 1161 570 
Q 1363 391 1709 391 
Q 2188 391 2477 730 
Q 2766 1069 2766 1631 
L 2766 1759 
L 2194 1759 
z
M 3341 1997 
L 3341 0 
L 2766 0 
L 2766 531 
Q 2569 213 2275 61 
Q 1981 -91 1556 -91 
Q 1019 -91 701 211 
Q 384 513 384 1019 
Q 384 1609 779 1909 
Q 1175 2209 1959 2209 
L 2766 2209 
L 2766 2266 
Q 2766 2663 2505 2880 
Q 2244 3097 1772 3097 
Q 1472 3097 1187 3025 
Q 903 2953 641 2809 
L 641 3341 
Q 956 3463 1253 3523 
Q 1550 3584 1831 3584 
Q 2591 3584 2966 3190 
Q 3341 2797 3341 1997 
z
" transform="scale(0.015625)"/>
       <path id="DejaVuSans-79" d="M 2059 -325 
Q 1816 -950 1584 -1140 
Q 1353 -1331 966 -1331 
L 506 -1331 
L 506 -850 
L 844 -850 
Q 1081 -850 1212 -737 
Q 1344 -625 1503 -206 
L 1606 56 
L 191 3500 
L 800 3500 
L 1894 763 
L 2988 3500 
L 3597 3500 
L 2059 -325 
z
" transform="scale(0.015625)"/>
       <path id="DejaVuSans-2d" d="M 313 2009 
L 1997 2009 
L 1997 1497 
L 313 1497 
L 313 2009 
z
" transform="scale(0.015625)"/>
       <path id="DejaVuSans-42" d="M 1259 2228 
L 1259 519 
L 2272 519 
Q 2781 519 3026 730 
Q 3272 941 3272 1375 
Q 3272 1813 3026 2020 
Q 2781 2228 2272 2228 
L 1259 2228 
z
M 1259 4147 
L 1259 2741 
L 2194 2741 
Q 2656 2741 2882 2914 
Q 3109 3088 3109 3444 
Q 3109 3797 2882 3972 
Q 2656 4147 2194 4147 
L 1259 4147 
z
M 628 4666 
L 2241 4666 
Q 2963 4666 3353 4366 
Q 3744 4066 3744 3513 
Q 3744 3084 3544 2831 
Q 3344 2578 2956 2516 
Q 3422 2416 3680 2098 
Q 3938 1781 3938 1306 
Q 3938 681 3513 340 
Q 3088 0 2303 0 
L 628 0 
L 628 4666 
z
" transform="scale(0.015625)"/>
      </defs>
      <use xlink:href="#DejaVuSans-45"/>
      <use xlink:href="#DejaVuSans-61" x="63.183594"/>
      <use xlink:href="#DejaVuSans-72" x="124.462891"/>
      <use xlink:href="#DejaVuSans-6c" x="165.576172"/>
      <use xlink:href="#DejaVuSans-79" x="193.359375"/>
      <use xlink:href="#DejaVuSans-2d" x="250.789062"/>
      <use xlink:href="#DejaVuSans-42" x="283.248047"/>
      <use xlink:href="#DejaVuSans-69" x="351.851562"/>
      <use xlink:href="#DejaVuSans-72" x="379.634766"/>
      <use xlink:href="#DejaVuSans-64" x="418.998047"/>
      <use xlink:href="#DejaVuSans-54" x="482.474609"/>
      <use xlink:href="#DejaVuSans-69" x="540.433594"/>
      <use xlink:href="#DejaVuSans-63" x="568.216797"/>
      <use xlink:href="#DejaVuSans-6b" x="623.197266"/>
      <use xlink:href="#DejaVuSans-65" x="677.482422"/>
      <use xlink:href="#DejaVuSans-74" x="739.005859"/>
      <use xlink:href="#DejaVuSans-73" x="778.214844"/>
     </g>
    </g>
    <g id="patch_9">
     <path d="M 66.6 72.748562 
L 86.6 72.748562 
L 86.6 65.748562 
L 66.6 65.748562 
z
" style="fill: #43b5a0; fill-opacity: 0.8"/>
    </g>
    <g id="text_20">
     <!-- RegularTickets -->
     <g transform="translate(94.6 72.748562)scale(0.1 -0.1)">
      <defs>
       <path id="DejaVuSans-52" d="M 2841 2188 
Q 3044 2119 3236 1894 
Q 3428 1669 3622 1275 
L 4263 0 
L 3584 0 
L 2988 1197 
Q 2756 1666 2539 1819 
Q 2322 1972 1947 1972 
L 1259 1972 
L 1259 0 
L 628 0 
L 628 4666 
L 2053 4666 
Q 2853 4666 3247 4331 
Q 3641 3997 3641 3322 
Q 3641 2881 3436 2590 
Q 3231 2300 2841 2188 
z
M 1259 4147 
L 1259 2491 
L 2053 2491 
Q 2509 2491 2742 2702 
Q 2975 2913 2975 3322 
Q 2975 3731 2742 3939 
Q 2509 4147 2053 4147 
L 1259 4147 
z
" transform="scale(0.015625)"/>
       <path id="DejaVuSans-67" d="M 2906 1791 
Q 2906 2416 2648 2759 
Q 2391 3103 1925 3103 
Q 1463 3103 1205 2759 
Q 947 2416 947 1791 
Q 947 1169 1205 825 
Q 1463 481 1925 481 
Q 2391 481 2648 825 
Q 2906 1169 2906 1791 
z
M 3481 434 
Q 3481 -459 3084 -895 
Q 2688 -1331 1869 -1331 
Q 1566 -1331 1297 -1286 
Q 1028 -1241 775 -1147 
L 775 -588 
Q 1028 -725 1275 -790 
Q 1522 -856 1778 -856 
Q 2344 -856 2625 -561 
Q 2906 -266 2906 331 
L 2906 616 
Q 2728 306 2450 153 
Q 2172 0 1784 0 
Q 1141 0 747 490 
Q 353 981 353 1791 
Q 353 2603 747 3093 
Q 1141 3584 1784 3584 
Q 2172 3584 2450 3431 
Q 2728 3278 2906 2969 
L 2906 3500 
L 3481 3500 
L 3481 434 
z
" transform="scale(0.015625)"/>
      </defs>
      <use xlink:href="#DejaVuSans-52"/>
      <use xlink:href="#DejaVuSans-65" x="64.982422"/>
      <use xlink:href="#DejaVuSans-67" x="126.505859"/>
      <use xlink:href="#DejaVuSans-75" x="189.982422"/>
      <use xlink:href="#DejaVuSans-6c" x="253.361328"/>
      <use xlink:href="#DejaVuSans-61" x="281.144531"/>
      <use xlink:href="#DejaVuSans-72" x="342.423828"/>
      <use xlink:href="#DejaVuSans-54" x="383.537109"/>
      <use xlink:href="#DejaVuSans-69" x="441.496094"/>
      <use xlink:href="#DejaVuSans-63" x="469.279297"/>
      <use xlink:href="#DejaVuSans-6b" x="524.259766"/>
      <use xlink:href="#DejaVuSans-65" x="578.544922"/>
      <use xlink:href="#DejaVuSans-74" x="640.068359"/>
      <use xlink:href="#DejaVuSans-73" x="679.277344"/>
     </g>
    </g>
    <g id="line2d_40">
     <path d="M 66.6 83.926687 
L 76.6 83.926687 
L 86.6 83.926687 
" style="fill: none; stroke-dasharray: 5.55,2.4; stroke-dashoffset: 0; stroke: #32cd32; stroke-width: 1.5"/>
    </g>
    <g id="text_21">
     <!-- Required tickets w/ donations -->
     <g transform="translate(94.6 87.426687)scale(0.1 -0.1)">
      <defs>
       <path id="DejaVuSans-71" d="M 947 1747 
Q 947 1113 1208 752 
Q 1469 391 1925 391 
Q 2381 391 2643 752 
Q 2906 1113 2906 1747 
Q 2906 2381 2643 2742 
Q 2381 3103 1925 3103 
Q 1469 3103 1208 2742 
Q 947 2381 947 1747 
z
M 2906 525 
Q 2725 213 2448 61 
Q 2172 -91 1784 -91 
Q 1150 -91 751 415 
Q 353 922 353 1747 
Q 353 2572 751 3078 
Q 1150 3584 1784 3584 
Q 2172 3584 2448 3432 
Q 2725 3281 2906 2969 
L 2906 3500 
L 3481 3500 
L 3481 -1331 
L 2906 -1331 
L 2906 525 
z
" transform="scale(0.015625)"/>
       <path id="DejaVuSans-77" d="M 269 3500 
L 844 3500 
L 1563 769 
L 2278 3500 
L 2956 3500 
L 3675 769 
L 4391 3500 
L 4966 3500 
L 4050 0 
L 3372 0 
L 2619 2869 
L 1863 0 
L 1184 0 
L 269 3500 
z
" transform="scale(0.015625)"/>
      </defs>
      <use xlink:href="#DejaVuSans-52"/>
      <use xlink:href="#DejaVuSans-65" x="64.982422"/>
      <use xlink:href="#DejaVuSans-71" x="126.505859"/>
      <use xlink:href="#DejaVuSans-75" x="189.982422"/>
      <use xlink:href="#DejaVuSans-69" x="253.361328"/>
      <use xlink:href="#DejaVuSans-72" x="281.144531"/>
      <use xlink:href="#DejaVuSans-65" x="320.007812"/>
      <use xlink:href="#DejaVuSans-64" x="381.53125"/>
      <use xlink:href="#DejaVuSans-20" x="445.007812"/>
      <use xlink:href="#DejaVuSans-74" x="476.794922"/>
      <use xlink:href="#DejaVuSans-69" x="516.003906"/>
      <use xlink:href="#DejaVuSans-63" x="543.787109"/>
      <use xlink:href="#DejaVuSans-6b" x="598.767578"/>
      <use xlink:href="#DejaVuSans-65" x="653.052734"/>
      <use xlink:href="#DejaVuSans-74" x="714.576172"/>
      <use xlink:href="#DejaVuSans-73" x="753.785156"/>
      <use xlink:href="#DejaVuSans-20" x="805.884766"/>
      <use xlink:href="#DejaVuSans-77" x="837.671875"/>
      <use xlink:href="#DejaVuSans-2f" x="919.458984"/>
      <use xlink:href="#DejaVuSans-20" x="953.150391"/>
      <use xlink:href="#DejaVuSans-64" x="984.9375"/>
      <use xlink:href="#DejaVuSans-6f" x="1048.414062"/>
      <use xlink:href="#DejaVuSans-6e" x="1109.595703"/>
      <use xlink:href="#DejaVuSans-61" x="1172.974609"/>
      <use xlink:href="#DejaVuSans-74" x="1234.253906"/>
      <use xlink:href="#DejaVuSans-69" x="1273.462891"/>
      <use xlink:href="#DejaVuSans-6f" x="1301.246094"/>
      <use xlink:href="#DejaVuSans-6e" x="1362.427734"/>
      <use xlink:href="#DejaVuSans-73" x="1425.806641"/>
     </g>
    </g>
   </g>
  </g>
 </g>
 <defs>
  <clipPath id="p5219573bfd">
   <rect x="57.6" y="41.472" width="357.12" height="235.008"/>
  </clipPath>
 </defs>
</svg>
