<?xml version="1.0" encoding="utf-8" standalone="no"?>
<!DOCTYPE svg PUBLIC "-//W3C//DTD SVG 1.1//EN"
  "http://www.w3.org/Graphics/SVG/1.1/DTD/svg11.dtd">
<svg xmlns:xlink="http://www.w3.org/1999/xlink" width="460.8pt" height="345.6pt" viewBox="0 0 460.8 345.6" xmlns="http://www.w3.org/2000/svg" version="1.1">
 <metadata>
  <rdf:RDF xmlns:dc="http://purl.org/dc/elements/1.1/" xmlns:cc="http://creativecommons.org/ns#" xmlns:rdf="http://www.w3.org/1999/02/22-rdf-syntax-ns#">
   <cc:Work>
    <dc:type rdf:resource="http://purl.org/dc/dcmitype/StillImage"/>
    <dc:date>2022-01-17T17:06:12.860968</dc:date>
    <dc:format>image/svg+xml</dc:format>
    <dc:creator>
     <cc:Agent>
      <dc:title>Matplotlib v3.5.1, https://matplotlib.org/</dc:title>
     </cc:Agent>
    </dc:creator>
   </cc:Work>
  </rdf:RDF>
 </metadata>
 <defs>
  <style type="text/css">*{stroke-linejoin: round; stroke-linecap: butt}</style>
 </defs>
 <g id="figure_1">
  <g id="patch_1">
   <path d="M 0 345.6 
L 460.8 345.6 
L 460.8 0 
L 0 0 
L 0 345.6 
z
" style="fill: none; opacity: 0"/>
  </g>
  <g id="axes_1">
   <g id="patch_2">
    <path d="M 57.6 276.48 
L 414.72 276.48 
L 414.72 41.472 
L 57.6 41.472 
z
" style="fill: #fec859"/>
   </g>
   <g id="PolyCollection_1">
    <path d="M 73.832727 276.48 
L 73.832727 276.48 
L 73.832727 276.48 
L 73.832727 276.48 
L 74.331349 276.48 
L 74.331349 276.48 
L 74.829971 276.48 
L 74.829971 276.48 
L 75.328593 276.48 
L 75.328593 276.48 
L 75.827215 276.48 
L 75.827215 276.48 
L 76.325837 276.48 
L 76.325837 276.48 
L 76.824459 276.48 
L 76.824459 276.48 
L 77.323081 276.48 
L 77.323081 276.48 
L 77.821703 276.48 
L 77.821703 276.48 
L 78.320325 276.48 
L 78.320325 276.48 
L 78.818947 276.48 
L 78.818947 276.48 
L 79.317569 276.48 
L 79.317569 276.48 
L 79.816191 276.48 
L 79.816191 276.48 
L 80.314813 276.48 
L 80.314813 276.48 
L 80.813435 276.48 
L 80.813435 276.48 
L 81.312057 276.48 
L 81.312057 276.48 
L 81.810679 276.48 
L 81.810679 276.48 
L 82.807923 276.48 
L 82.807923 276.48 
L 83.306545 276.48 
L 83.306545 276.48 
L 83.805167 276.48 
L 83.805167 276.48 
L 84.303789 276.48 
L 84.303789 276.48 
L 84.802411 276.48 
L 84.802411 276.48 
L 85.301033 276.48 
L 85.301033 276.48 
L 85.799655 276.48 
L 85.799655 276.48 
L 86.298277 276.48 
L 86.298277 276.48 
L 86.796899 276.48 
L 86.796899 276.48 
L 87.295521 276.48 
L 87.295521 276.48 
L 88.292765 276.48 
L 88.292765 276.48 
L 89.290009 276.48 
L 89.290009 276.48 
L 89.788631 276.48 
L 89.788631 276.48 
L 90.287253 276.48 
L 90.287253 276.48 
L 93.777606 276.48 
L 93.777606 276.48 
L 94.276228 276.48 
L 94.276228 276.48 
L 94.77485 276.48 
L 94.77485 276.48 
L 95.273472 276.48 
L 95.273472 276.48 
L 95.772094 276.48 
L 95.772094 276.48 
L 96.270716 276.48 
L 96.270716 276.48 
L 96.769338 276.48 
L 96.769338 276.48 
L 97.26796 276.48 
L 97.26796 276.48 
L 97.766582 276.48 
L 97.766582 276.48 
L 98.265204 276.48 
L 98.265204 276.48 
L 98.763826 276.48 
L 98.763826 276.48 
L 99.262448 276.48 
L 99.262448 276.48 
L 99.76107 276.48 
L 99.76107 276.48 
L 100.259692 276.48 
L 100.259692 276.48 
L 100.758314 276.48 
L 100.758314 276.48 
L 101.256936 276.48 
L 101.256936 276.48 
L 101.755558 276.48 
L 101.755558 276.48 
L 102.25418 276.48 
L 102.25418 276.48 
L 105.245912 276.48 
L 105.245912 276.48 
L 106.741778 276.48 
L 106.741778 276.48 
L 107.2404 276.48 
L 107.2404 276.48 
L 107.739022 276.48 
L 107.739022 276.48 
L 108.736266 276.48 
L 108.736266 276.48 
L 109.234888 276.48 
L 109.234888 276.48 
L 109.73351 276.48 
L 109.73351 276.48 
L 110.232132 276.48 
L 110.232132 276.48 
L 110.730754 276.48 
L 110.730754 276.48 
L 111.229376 276.48 
L 111.229376 276.48 
L 111.727998 276.48 
L 111.727998 276.48 
L 112.22662 276.48 
L 112.22662 276.48 
L 112.725242 276.48 
L 112.725242 276.48 
L 113.223864 276.48 
L 113.223864 276.48 
L 113.722485 276.48 
L 113.722485 276.48 
L 114.221107 276.48 
L 114.221107 276.48 
L 118.708705 276.48 
L 118.708705 276.48 
L 119.705949 276.48 
L 119.705949 276.48 
L 120.204571 276.48 
L 120.204571 276.48 
L 120.703193 276.48 
L 120.703193 276.48 
L 121.201815 276.48 
L 121.201815 276.48 
L 123.196303 276.48 
L 123.196303 276.48 
L 131.672877 276.48 
L 131.672877 276.48 
L 132.670121 276.48 
L 132.670121 276.48 
L 133.168743 276.48 
L 133.168743 276.48 
L 134.165987 276.48 
L 134.165987 276.48 
L 134.664609 276.48 
L 134.664609 276.48 
L 136.160474 276.48 
L 136.160474 276.48 
L 138.154962 276.48 
L 138.154962 276.48 
L 138.653584 276.48 
L 138.653584 276.48 
L 142.64256 276.48 
L 142.64256 276.48 
L 143.141182 276.48 
L 143.141182 276.48 
L 143.639804 276.48 
L 143.639804 276.48 
L 144.138426 276.48 
L 144.138426 276.48 
L 144.637048 276.48 
L 144.637048 276.48 
L 145.13567 276.48 
L 145.13567 276.48 
L 145.634292 276.48 
L 145.634292 276.48 
L 146.132914 276.48 
L 146.132914 276.48 
L 146.631536 276.48 
L 146.631536 276.48 
L 147.62878 276.48 
L 147.62878 276.48 
L 148.127402 276.48 
L 148.127402 276.48 
L 148.626024 276.48 
L 148.626024 276.48 
L 149.124646 276.48 
L 149.124646 276.48 
L 149.623268 276.48 
L 149.623268 276.48 
L 150.12189 276.48 
L 150.12189 276.48 
L 151.119134 276.48 
L 151.119134 276.48 
L 153.113622 276.48 
L 153.113622 276.48 
L 155.10811 276.48 
L 155.10811 276.48 
L 156.105354 276.48 
L 156.105354 276.48 
L 157.102598 276.48 
L 157.102598 276.48 
L 158.099842 276.48 
L 158.099842 276.48 
L 158.598463 276.48 
L 158.598463 276.48 
L 159.595707 276.48 
L 159.595707 276.48 
L 160.094329 276.48 
L 160.094329 276.48 
L 160.592951 276.48 
L 160.592951 276.48 
L 161.091573 276.48 
L 161.091573 276.48 
L 161.590195 276.48 
L 161.590195 276.48 
L 162.088817 276.48 
L 162.088817 276.48 
L 166.077793 276.48 
L 166.077793 276.48 
L 166.576415 276.48 
L 166.576415 276.48 
L 167.075037 276.48 
L 167.075037 276.48 
L 167.573659 276.48 
L 167.573659 276.48 
L 168.072281 276.48 
L 168.072281 276.48 
L 168.570903 276.48 
L 168.570903 276.48 
L 169.069525 276.48 
L 169.069525 276.48 
L 169.568147 276.48 
L 169.568147 276.48 
L 170.565391 276.48 
L 170.565391 276.48 
L 171.562635 276.48 
L 171.562635 276.48 
L 172.559879 276.48 
L 172.559879 276.48 
L 173.058501 276.48 
L 173.058501 276.48 
L 173.557123 276.48 
L 173.557123 276.48 
L 174.055745 276.48 
L 174.055745 276.48 
L 175.052989 276.48 
L 175.052989 276.48 
L 175.551611 276.48 
L 175.551611 276.48 
L 176.050233 276.48 
L 176.050233 276.48 
L 178.044721 276.48 
L 178.044721 276.48 
L 179.540587 276.48 
L 179.540587 276.48 
L 180.039209 276.48 
L 180.039209 276.48 
L 182.033696 276.48 
L 182.033696 276.48 
L 183.03094 276.48 
L 183.03094 276.48 
L 183.529562 276.48 
L 183.529562 276.48 
L 184.028184 276.48 
L 184.028184 276.48 
L 184.526806 276.48 
L 184.526806 276.48 
L 185.025428 276.48 
L 185.025428 276.48 
L 185.52405 276.48 
L 185.52405 276.48 
L 186.521294 276.48 
L 186.521294 276.48 
L 189.513026 276.48 
L 189.513026 276.48 
L 190.011648 276.48 
L 190.011648 276.48 
L 190.51027 276.48 
L 190.51027 276.48 
L 191.507514 276.48 
L 191.507514 276.48 
L 192.006136 276.48 
L 192.006136 276.48 
L 193.00338 276.48 
L 193.00338 276.48 
L 193.502002 276.48 
L 193.502002 276.48 
L 194.997868 276.48 
L 194.997868 276.48 
L 195.49649 276.48 
L 195.49649 276.48 
L 196.493734 276.48 
L 196.493734 276.48 
L 196.992356 276.48 
L 196.992356 276.48 
L 197.490978 276.48 
L 197.490978 276.48 
L 197.9896 276.48 
L 197.9896 276.48 
L 198.488222 276.48 
L 198.488222 276.48 
L 203.474441 276.48 
L 203.474441 276.48 
L 204.471685 276.48 
L 204.471685 276.48 
L 204.970307 276.48 
L 204.970307 276.48 
L 206.466173 276.48 
L 206.466173 276.48 
L 206.964795 276.48 
L 206.964795 276.48 
L 207.463417 276.48 
L 207.463417 276.48 
L 208.959283 276.48 
L 208.959283 276.48 
L 209.457905 276.48 
L 209.457905 276.48 
L 214.444125 276.48 
L 214.444125 276.48 
L 215.441369 276.48 
L 215.441369 276.48 
L 216.438613 276.48 
L 216.438613 276.48 
L 216.937235 276.48 
L 216.937235 276.48 
L 217.435857 276.48 
L 217.435857 276.48 
L 217.934479 276.48 
L 217.934479 276.48 
L 218.433101 276.48 
L 218.433101 276.48 
L 219.430345 276.48 
L 219.430345 276.48 
L 220.427589 276.48 
L 220.427589 276.48 
L 221.424833 276.48 
L 221.424833 276.48 
L 221.923455 276.48 
L 221.923455 276.48 
L 222.422077 276.48 
L 222.422077 276.48 
L 226.411052 276.48 
L 226.411052 276.48 
L 227.906918 276.48 
L 227.906918 276.48 
L 228.40554 276.48 
L 228.40554 276.48 
L 229.901406 276.48 
L 229.901406 276.48 
L 230.89865 276.48 
L 230.89865 276.48 
L 231.397272 276.48 
L 231.397272 276.48 
L 231.895894 276.48 
L 231.895894 276.48 
L 232.394516 276.48 
L 232.394516 276.48 
L 233.39176 276.48 
L 233.39176 276.48 
L 237.879358 276.48 
L 237.879358 276.48 
L 240.372468 276.48 
L 240.372468 276.48 
L 240.87109 276.48 
L 240.87109 276.48 
L 242.366956 276.48 
L 242.366956 276.48 
L 243.3642 276.48 
L 243.3642 276.48 
L 243.862822 276.48 
L 243.862822 276.48 
L 244.361444 276.48 
L 244.361444 276.48 
L 244.860066 276.48 
L 244.860066 276.48 
L 245.358688 276.48 
L 245.358688 276.48 
L 245.85731 276.48 
L 245.85731 276.48 
L 249.846285 276.48 
L 249.846285 276.48 
L 250.843529 276.48 
L 250.843529 276.48 
L 251.342151 276.48 
L 251.342151 276.48 
L 251.840773 276.48 
L 251.840773 276.48 
L 252.339395 276.48 
L 252.339395 276.48 
L 252.838017 276.48 
L 252.838017 276.48 
L 253.336639 276.48 
L 253.336639 276.48 
L 253.835261 276.48 
L 253.835261 276.48 
L 254.333883 276.48 
L 254.333883 276.48 
L 255.331127 276.48 
L 255.331127 276.48 
L 261.813213 276.48 
L 261.813213 276.48 
L 263.807701 276.48 
L 263.807701 276.48 
L 264.804945 276.48 
L 264.804945 276.48 
L 265.303567 276.48 
L 265.303567 276.48 
L 266.799433 276.48 
L 266.799433 276.48 
L 267.298055 276.48 
L 267.298055 276.48 
L 267.796677 276.48 
L 267.796677 276.48 
L 269.292543 276.48 
L 269.292543 276.48 
L 270.788408 276.48 
L 270.788408 276.48 
L 274.278762 276.48 
L 274.278762 276.48 
L 274.777384 276.48 
L 274.777384 276.48 
L 275.276006 276.48 
L 275.276006 276.48 
L 275.774628 276.48 
L 275.774628 276.48 
L 276.27325 276.48 
L 276.27325 276.48 
L 277.769116 276.48 
L 277.769116 276.48 
L 279.264982 276.48 
L 279.264982 276.48 
L 280.760848 276.48 
L 280.760848 276.48 
L 288.7388 276.48 
L 288.7388 276.48 
L 290.733288 276.48 
L 290.733288 276.48 
L 291.23191 276.48 
L 291.23191 276.48 
L 300.207105 276.48 
L 300.207105 276.48 
L 300.705727 276.48 
L 300.705727 276.48 
L 301.204349 276.48 
L 301.204349 276.48 
L 302.201593 276.48 
L 302.201593 276.48 
L 302.700215 276.48 
L 302.700215 276.48 
L 303.198837 276.48 
L 303.198837 276.48 
L 304.196081 276.48 
L 304.196081 276.48 
L 308.683679 276.48 
L 308.683679 276.48 
L 309.680923 276.48 
L 309.680923 276.48 
L 311.176789 276.48 
L 311.176789 276.48 
L 312.174033 276.48 
L 312.174033 276.48 
L 314.168521 276.48 
L 314.168521 276.48 
L 317.160252 276.48 
L 317.160252 276.48 
L 323.642338 276.48 
L 323.642338 276.48 
L 324.14096 276.48 
L 324.14096 276.48 
L 325.636826 276.48 
L 325.636826 276.48 
L 326.63407 276.48 
L 326.63407 276.48 
L 327.132692 276.48 
L 327.132692 276.48 
L 328.129936 276.48 
L 328.129936 276.48 
L 332.617534 276.48 
L 332.617534 276.48 
L 334.1134 276.48 
L 334.1134 276.48 
L 335.110644 276.48 
L 335.110644 276.48 
L 335.609266 276.48 
L 335.609266 276.48 
L 336.107888 276.48 
L 336.107888 276.48 
L 338.102375 276.48 
L 338.102375 276.48 
L 339.598241 276.48 
L 339.598241 276.48 
L 340.096863 276.48 
L 340.096863 276.48 
L 340.595485 276.48 
L 340.595485 276.48 
L 341.094107 276.48 
L 341.094107 276.48 
L 346.080327 276.48 
L 346.080327 276.48 
L 347.077571 276.48 
L 347.077571 276.48 
L 349.570681 276.48 
L 349.570681 276.48 
L 352.063791 276.48 
L 352.063791 276.48 
L 352.562413 276.48 
L 352.562413 276.48 
L 353.061035 276.48 
L 353.061035 276.48 
L 354.058279 276.48 
L 354.058279 276.48 
L 356.551389 276.48 
L 356.551389 276.48 
L 357.548633 276.48 
L 357.548633 276.48 
L 359.54312 276.48 
L 359.54312 276.48 
L 363.532096 276.48 
L 363.532096 276.48 
L 365.526584 276.48 
L 365.526584 276.48 
L 368.462137 276.48 
L 368.462137 276.48 
L 368.666549 276.48 
L 368.666549 276.48 
L 368.844938 276.48 
L 368.844938 276.48 
L 369.198625 276.48 
L 369.198625 276.48 
L 369.422922 276.48 
L 369.422922 276.48 
L 369.658319 276.48 
L 369.658319 276.48 
L 369.834609 276.48 
L 369.834609 276.48 
L 370.198194 276.48 
L 370.198194 276.48 
L 370.396407 276.48 
L 370.396407 276.48 
L 370.663235 276.48 
L 370.663235 276.48 
L 370.859291 276.48 
L 370.859291 276.48 
L 371.171422 276.48 
L 371.171422 276.48 
L 371.367703 276.48 
L 371.367703 276.48 
L 371.632004 276.48 
L 371.632004 276.48 
L 371.816984 276.48 
L 371.816984 276.48 
L 372.250012 276.48 
L 372.250012 276.48 
L 372.53111 276.48 
L 372.53111 276.48 
L 372.854883 276.48 
L 372.854883 276.48 
L 372.879523 276.48 
L 372.879523 276.48 
L 372.894038 276.48 
L 372.894038 276.48 
L 373.140252 276.48 
L 373.140252 276.48 
L 373.328407 276.48 
L 373.328407 276.48 
L 373.659024 276.48 
L 373.659024 276.48 
L 373.872758 276.48 
L 373.872758 276.48 
L 374.232542 276.48 
L 374.232542 276.48 
L 374.943587 276.48 
L 374.943587 276.48 
L 374.96417 276.48 
L 374.96417 276.48 
L 374.989605 276.48 
L 374.989605 276.48 
L 375.176455 276.48 
L 375.176455 276.48 
L 375.387895 276.48 
L 375.387895 276.48 
L 375.617527 276.48 
L 375.617527 276.48 
L 375.806756 276.48 
L 375.806756 276.48 
L 376.154067 276.48 
L 376.154067 276.48 
L 376.622115 276.48 
L 376.622115 276.48 
L 382.161182 276.48 
L 382.161182 276.48 
L 383.59816 276.48 
L 383.59816 276.48 
L 384.822827 276.48 
L 384.822827 276.48 
L 385.107009 276.48 
L 385.107009 276.48 
L 386.501019 276.48 
L 386.501019 276.48 
L 386.854492 276.48 
L 386.854492 276.48 
L 387.140092 276.48 
L 387.140092 276.48 
L 387.585922 276.48 
L 387.585922 276.48 
L 395.116062 276.48 
L 395.116062 276.48 
L 398.178753 276.48 
L 398.178753 276.48 
L 398.487273 276.48 
L 398.487273 276.48 
L 398.487273 200.083749 
L 398.487273 200.083749 
L 398.487273 200.083749 
L 398.178753 200.083749 
L 398.178753 200.083749 
L 395.116062 200.083749 
L 395.116062 200.083749 
L 387.585922 200.083749 
L 387.585922 200.083749 
L 387.140092 200.083749 
L 387.140092 200.083749 
L 386.854492 200.083749 
L 386.854492 200.083749 
L 386.501019 200.083749 
L 386.501019 200.083749 
L 385.107009 200.083749 
L 385.107009 200.083749 
L 384.822827 200.083749 
L 384.822827 200.083749 
L 383.59816 200.083749 
L 383.59816 200.083749 
L 382.161182 200.083749 
L 382.161182 200.083749 
L 376.622115 200.083749 
L 376.622115 200.083749 
L 376.154067 200.083749 
L 376.154067 200.083749 
L 375.806756 200.083749 
L 375.806756 200.083749 
L 375.617527 200.083749 
L 375.617527 200.083749 
L 375.387895 200.083749 
L 375.387895 200.083749 
L 375.176455 200.083749 
L 375.176455 200.083749 
L 374.989605 200.083749 
L 374.989605 200.083749 
L 374.96417 200.083749 
L 374.96417 200.083749 
L 374.943587 200.083749 
L 374.943587 200.083749 
L 374.232542 200.083749 
L 374.232542 200.083749 
L 373.872758 200.083749 
L 373.872758 200.083749 
L 373.659024 200.083749 
L 373.659024 200.083749 
L 373.328407 200.083749 
L 373.328407 200.083749 
L 373.140252 200.083749 
L 373.140252 200.083749 
L 372.894038 200.083749 
L 372.894038 200.083749 
L 372.879523 200.083749 
L 372.879523 200.083749 
L 372.854883 200.083749 
L 372.854883 200.083749 
L 372.53111 200.083749 
L 372.53111 200.083749 
L 372.250012 200.083749 
L 372.250012 200.083749 
L 371.816984 200.083749 
L 371.816984 200.083749 
L 371.632004 200.083749 
L 371.632004 200.083749 
L 371.367703 200.083749 
L 371.367703 200.083749 
L 371.171422 200.083749 
L 371.171422 200.083749 
L 370.859291 200.083749 
L 370.859291 200.083749 
L 370.663235 200.083749 
L 370.663235 200.083749 
L 370.396407 200.083749 
L 370.396407 200.083749 
L 370.198194 200.083749 
L 370.198194 200.083749 
L 369.834609 200.083749 
L 369.834609 200.083749 
L 369.658319 200.083749 
L 369.658319 200.083749 
L 369.422922 200.083749 
L 369.422922 200.083749 
L 369.198625 200.083749 
L 369.198625 200.083749 
L 368.844938 200.083749 
L 368.844938 200.083749 
L 368.666549 200.083749 
L 368.666549 200.083749 
L 368.462137 200.083749 
L 368.462137 202.023497 
L 365.526584 202.023497 
L 365.526584 202.023497 
L 363.532096 202.023497 
L 363.532096 202.023497 
L 359.54312 202.023497 
L 359.54312 202.023497 
L 357.548633 202.023497 
L 357.548633 202.023497 
L 356.551389 202.023497 
L 356.551389 202.023497 
L 354.058279 202.023497 
L 354.058279 202.023497 
L 353.061035 202.023497 
L 353.061035 202.023497 
L 352.562413 202.023497 
L 352.562413 202.023497 
L 352.063791 202.023497 
L 352.063791 202.023497 
L 349.570681 202.023497 
L 349.570681 202.023497 
L 347.077571 202.023497 
L 347.077571 202.023497 
L 346.080327 202.023497 
L 346.080327 202.023497 
L 341.094107 202.023497 
L 341.094107 202.023497 
L 340.595485 202.023497 
L 340.595485 202.023497 
L 340.096863 202.023497 
L 340.096863 202.023497 
L 339.598241 202.023497 
L 339.598241 202.023497 
L 338.102375 202.023497 
L 338.102375 202.023497 
L 336.107888 202.023497 
L 336.107888 202.023497 
L 335.609266 202.023497 
L 335.609266 202.023497 
L 335.110644 202.023497 
L 335.110644 202.023497 
L 334.1134 202.023497 
L 334.1134 202.023497 
L 332.617534 202.023497 
L 332.617534 202.023497 
L 328.129936 202.023497 
L 328.129936 202.023497 
L 327.132692 202.023497 
L 327.132692 202.023497 
L 326.63407 202.023497 
L 326.63407 202.023497 
L 325.636826 202.023497 
L 325.636826 202.023497 
L 324.14096 202.023497 
L 324.14096 202.023497 
L 323.642338 202.023497 
L 323.642338 202.023497 
L 317.160252 202.023497 
L 317.160252 202.023497 
L 314.168521 202.023497 
L 314.168521 202.023497 
L 312.174033 202.023497 
L 312.174033 202.023497 
L 311.176789 202.023497 
L 311.176789 202.023497 
L 309.680923 202.023497 
L 309.680923 202.023497 
L 308.683679 202.023497 
L 308.683679 202.023497 
L 304.196081 202.023497 
L 304.196081 202.023497 
L 303.198837 202.023497 
L 303.198837 202.023497 
L 302.700215 202.023497 
L 302.700215 202.023497 
L 302.201593 202.023497 
L 302.201593 202.023497 
L 301.204349 202.023497 
L 301.204349 202.023497 
L 300.705727 202.023497 
L 300.705727 202.023497 
L 300.207105 202.023497 
L 300.207105 202.023497 
L 291.23191 202.023497 
L 291.23191 202.023497 
L 290.733288 202.023497 
L 290.733288 202.023497 
L 288.7388 202.023497 
L 288.7388 202.023497 
L 280.760848 202.023497 
L 280.760848 202.023497 
L 279.264982 202.023497 
L 279.264982 202.023497 
L 277.769116 202.023497 
L 277.769116 202.023497 
L 276.27325 202.023497 
L 276.27325 202.023497 
L 275.774628 202.023497 
L 275.774628 202.023497 
L 275.276006 202.023497 
L 275.276006 202.023497 
L 274.777384 202.023497 
L 274.777384 202.023497 
L 274.278762 202.023497 
L 274.278762 202.023497 
L 270.788408 202.023497 
L 270.788408 202.023497 
L 269.292543 202.023497 
L 269.292543 202.023497 
L 267.796677 202.023497 
L 267.796677 202.023497 
L 267.298055 202.023497 
L 267.298055 202.023497 
L 266.799433 202.023497 
L 266.799433 202.023497 
L 265.303567 202.023497 
L 265.303567 202.023497 
L 264.804945 202.023497 
L 264.804945 202.023497 
L 263.807701 202.023497 
L 263.807701 202.023497 
L 261.813213 202.023497 
L 261.813213 202.023497 
L 255.331127 202.023497 
L 255.331127 202.023497 
L 254.333883 202.023497 
L 254.333883 202.023497 
L 253.835261 202.023497 
L 253.835261 202.023497 
L 253.336639 202.023497 
L 253.336639 202.023497 
L 252.838017 202.023497 
L 252.838017 202.023497 
L 252.339395 202.023497 
L 252.339395 202.023497 
L 251.840773 202.023497 
L 251.840773 202.023497 
L 251.342151 202.023497 
L 251.342151 202.023497 
L 250.843529 202.023497 
L 250.843529 202.023497 
L 249.846285 202.023497 
L 249.846285 202.023497 
L 245.85731 202.023497 
L 245.85731 202.023497 
L 245.358688 202.023497 
L 245.358688 202.023497 
L 244.860066 202.023497 
L 244.860066 202.023497 
L 244.361444 202.023497 
L 244.361444 202.023497 
L 243.862822 202.023497 
L 243.862822 202.023497 
L 243.3642 202.023497 
L 243.3642 202.023497 
L 242.366956 202.023497 
L 242.366956 202.023497 
L 240.87109 202.023497 
L 240.87109 202.023497 
L 240.372468 202.023497 
L 240.372468 202.023497 
L 237.879358 202.023497 
L 237.879358 202.023497 
L 233.39176 202.023497 
L 233.39176 202.023497 
L 232.394516 202.023497 
L 232.394516 202.023497 
L 231.895894 202.023497 
L 231.895894 202.023497 
L 231.397272 202.023497 
L 231.397272 202.023497 
L 230.89865 202.023497 
L 230.89865 202.023497 
L 229.901406 202.023497 
L 229.901406 202.023497 
L 228.40554 202.023497 
L 228.40554 202.023497 
L 227.906918 202.023497 
L 227.906918 202.023497 
L 226.411052 202.023497 
L 226.411052 202.023497 
L 222.422077 202.023497 
L 222.422077 202.023497 
L 221.923455 202.023497 
L 221.923455 202.023497 
L 221.424833 202.023497 
L 221.424833 202.023497 
L 220.427589 202.023497 
L 220.427589 202.023497 
L 219.430345 202.023497 
L 219.430345 202.023497 
L 218.433101 202.023497 
L 218.433101 202.023497 
L 217.934479 202.023497 
L 217.934479 202.023497 
L 217.435857 202.023497 
L 217.435857 202.023497 
L 216.937235 202.023497 
L 216.937235 202.023497 
L 216.438613 202.023497 
L 216.438613 202.023497 
L 215.441369 202.023497 
L 215.441369 202.023497 
L 214.444125 202.023497 
L 214.444125 202.023497 
L 209.457905 202.023497 
L 209.457905 202.023497 
L 208.959283 202.023497 
L 208.959283 202.023497 
L 207.463417 202.023497 
L 207.463417 202.172709 
L 206.964795 202.172709 
L 206.964795 202.471131 
L 206.466173 202.471131 
L 206.466173 202.620343 
L 204.970307 202.620343 
L 204.970307 203.067977 
L 204.471685 203.067977 
L 204.471685 203.217189 
L 203.474441 203.217189 
L 203.474441 203.3664 
L 198.488222 203.3664 
L 198.488222 203.664823 
L 197.9896 203.664823 
L 197.9896 203.664823 
L 197.490978 203.664823 
L 197.490978 203.963246 
L 196.992356 203.963246 
L 196.992356 204.41088 
L 196.493734 204.41088 
L 196.493734 204.41088 
L 195.49649 204.41088 
L 195.49649 204.709303 
L 194.997868 204.709303 
L 194.997868 204.858514 
L 193.502002 204.858514 
L 193.502002 205.156937 
L 193.00338 205.156937 
L 193.00338 206.649051 
L 192.006136 206.649051 
L 192.006136 206.947474 
L 191.507514 206.947474 
L 191.507514 207.096686 
L 190.51027 207.096686 
L 190.51027 207.693531 
L 190.011648 207.693531 
L 190.011648 207.693531 
L 189.513026 207.693531 
L 189.513026 207.842743 
L 186.521294 207.842743 
L 186.521294 208.141166 
L 185.52405 208.141166 
L 185.52405 208.5888 
L 185.025428 208.5888 
L 185.025428 208.887223 
L 184.526806 208.887223 
L 184.526806 209.782491 
L 184.028184 209.782491 
L 184.028184 210.230126 
L 183.529562 210.230126 
L 183.529562 211.125394 
L 183.03094 211.125394 
L 183.03094 211.573029 
L 182.033696 211.573029 
L 182.033696 211.72224 
L 180.039209 211.72224 
L 180.039209 211.871451 
L 179.540587 211.871451 
L 179.540587 212.169874 
L 178.044721 212.169874 
L 178.044721 212.169874 
L 176.050233 212.169874 
L 176.050233 212.468297 
L 175.551611 212.468297 
L 175.551611 212.617509 
L 175.052989 212.617509 
L 175.052989 212.76672 
L 174.055745 212.76672 
L 174.055745 213.214354 
L 173.557123 213.214354 
L 173.557123 213.214354 
L 173.058501 213.214354 
L 173.058501 213.512777 
L 172.559879 213.512777 
L 172.559879 214.258834 
L 171.562635 214.258834 
L 171.562635 214.557257 
L 170.565391 214.557257 
L 170.565391 214.557257 
L 169.568147 214.557257 
L 169.568147 214.706469 
L 169.069525 214.706469 
L 169.069525 214.85568 
L 168.570903 214.85568 
L 168.570903 215.154103 
L 168.072281 215.154103 
L 168.072281 215.303314 
L 167.573659 215.303314 
L 167.573659 215.452526 
L 167.075037 215.452526 
L 167.075037 215.750949 
L 166.576415 215.750949 
L 166.576415 215.750949 
L 166.077793 215.750949 
L 166.077793 215.90016 
L 162.088817 215.90016 
L 162.088817 215.90016 
L 161.590195 215.90016 
L 161.590195 216.198583 
L 161.091573 216.198583 
L 161.091573 216.347794 
L 160.592951 216.347794 
L 160.592951 216.497006 
L 160.094329 216.497006 
L 160.094329 216.646217 
L 159.595707 216.646217 
L 159.595707 216.94464 
L 158.598463 216.94464 
L 158.598463 216.94464 
L 158.099842 216.94464 
L 158.099842 217.243063 
L 157.102598 217.243063 
L 157.102598 217.541486 
L 156.105354 217.541486 
L 156.105354 217.98912 
L 155.10811 217.98912 
L 155.10811 218.287543 
L 153.113622 218.287543 
L 153.113622 218.287543 
L 151.119134 218.287543 
L 151.119134 218.436754 
L 150.12189 218.436754 
L 150.12189 218.735177 
L 149.623268 218.735177 
L 149.623268 218.884389 
L 149.124646 218.884389 
L 149.124646 219.182811 
L 148.626024 219.182811 
L 148.626024 219.481234 
L 148.127402 219.481234 
L 148.127402 219.779657 
L 147.62878 219.779657 
L 147.62878 219.928869 
L 146.631536 219.928869 
L 146.631536 220.227291 
L 146.132914 220.227291 
L 146.132914 220.525714 
L 145.634292 220.525714 
L 145.634292 220.973349 
L 145.13567 220.973349 
L 145.13567 221.271771 
L 144.637048 221.271771 
L 144.637048 221.570194 
L 144.138426 221.570194 
L 144.138426 221.719406 
L 143.639804 221.719406 
L 143.639804 222.316251 
L 143.141182 222.316251 
L 143.141182 222.465463 
L 142.64256 222.465463 
L 142.64256 222.763886 
L 138.653584 222.763886 
L 138.653584 223.509943 
L 138.154962 223.509943 
L 138.154962 223.659154 
L 136.160474 223.659154 
L 136.160474 224.256 
L 134.664609 224.256 
L 134.664609 224.554423 
L 134.165987 224.554423 
L 134.165987 225.002057 
L 133.168743 225.002057 
L 133.168743 225.151269 
L 132.670121 225.151269 
L 132.670121 225.30048 
L 131.672877 225.30048 
L 131.672877 225.449691 
L 123.196303 225.449691 
L 123.196303 225.598903 
L 121.201815 225.598903 
L 121.201815 225.748114 
L 120.703193 225.748114 
L 120.703193 226.046537 
L 120.204571 226.046537 
L 120.204571 226.195749 
L 119.705949 226.195749 
L 119.705949 226.34496 
L 118.708705 226.34496 
L 118.708705 226.643383 
L 114.221107 226.643383 
L 114.221107 227.240229 
L 113.722485 227.240229 
L 113.722485 227.38944 
L 113.223864 227.38944 
L 113.223864 227.538651 
L 112.725242 227.538651 
L 112.725242 227.687863 
L 112.22662 227.687863 
L 112.22662 227.837074 
L 111.727998 227.837074 
L 111.727998 227.837074 
L 111.229376 227.837074 
L 111.229376 228.135497 
L 110.730754 228.135497 
L 110.730754 228.43392 
L 110.232132 228.43392 
L 110.232132 228.732343 
L 109.73351 228.732343 
L 109.73351 229.179977 
L 109.234888 229.179977 
L 109.234888 229.627611 
L 108.736266 229.627611 
L 108.736266 229.926034 
L 107.739022 229.926034 
L 107.739022 230.224457 
L 107.2404 230.224457 
L 107.2404 230.373669 
L 106.741778 230.373669 
L 106.741778 230.52288 
L 105.245912 230.52288 
L 105.245912 230.672091 
L 102.25418 230.672091 
L 102.25418 231.119726 
L 101.755558 231.119726 
L 101.755558 231.268937 
L 101.256936 231.268937 
L 101.256936 231.418149 
L 100.758314 231.418149 
L 100.758314 231.716571 
L 100.259692 231.716571 
L 100.259692 232.014994 
L 99.76107 232.014994 
L 99.76107 232.61184 
L 99.262448 232.61184 
L 99.262448 232.910263 
L 98.763826 232.910263 
L 98.763826 233.65632 
L 98.265204 233.65632 
L 98.265204 234.103954 
L 97.766582 234.103954 
L 97.766582 234.850011 
L 97.26796 234.850011 
L 97.26796 234.999223 
L 96.769338 234.999223 
L 96.769338 235.297646 
L 96.270716 235.297646 
L 96.270716 236.043703 
L 95.772094 236.043703 
L 95.772094 236.342126 
L 95.273472 236.342126 
L 95.273472 236.640549 
L 94.77485 236.640549 
L 94.77485 236.78976 
L 94.276228 236.78976 
L 94.276228 237.088183 
L 93.777606 237.088183 
L 93.777606 237.237394 
L 90.287253 237.237394 
L 90.287253 237.386606 
L 89.788631 237.386606 
L 89.788631 237.685029 
L 89.290009 237.685029 
L 89.290009 238.281874 
L 88.292765 238.281874 
L 88.292765 238.87872 
L 87.295521 238.87872 
L 87.295521 239.326354 
L 86.796899 239.326354 
L 86.796899 239.773989 
L 86.298277 239.773989 
L 86.298277 239.773989 
L 85.799655 239.773989 
L 85.799655 240.370834 
L 85.301033 240.370834 
L 85.301033 241.713737 
L 84.802411 241.713737 
L 84.802411 242.310583 
L 84.303789 242.310583 
L 84.303789 243.205851 
L 83.805167 243.205851 
L 83.805167 244.250331 
L 83.306545 244.250331 
L 83.306545 244.548754 
L 82.807923 244.548754 
L 82.807923 245.1456 
L 81.810679 245.1456 
L 81.810679 245.444023 
L 81.312057 245.444023 
L 81.312057 245.593234 
L 80.813435 245.593234 
L 80.813435 245.742446 
L 80.314813 245.742446 
L 80.314813 245.742446 
L 79.816191 245.742446 
L 79.816191 246.040869 
L 79.317569 246.040869 
L 79.317569 246.19008 
L 78.818947 246.19008 
L 78.818947 246.339291 
L 78.320325 246.339291 
L 78.320325 247.532983 
L 77.821703 247.532983 
L 77.821703 249.025097 
L 77.323081 249.025097 
L 77.323081 252.009326 
L 76.824459 252.009326 
L 76.824459 254.396709 
L 76.325837 254.396709 
L 76.325837 257.380937 
L 75.827215 257.380937 
L 75.827215 261.708069 
L 75.328593 261.708069 
L 75.328593 269.019429 
L 74.829971 269.019429 
L 74.829971 273.794194 
L 74.331349 273.794194 
L 74.331349 275.584731 
L 73.832727 275.584731 
L 73.832727 276.48 
L 73.832727 276.48 
z
" clip-path="url(#pa4f50b6491)" style="fill: #fa448c; fill-opacity: 0.8"/>
   </g>
   <g id="PolyCollection_2">
    <path d="M 73.832727 276.48 
L 73.832727 276.48 
L 73.832727 276.48 
L 73.832727 275.584731 
L 74.331349 275.584731 
L 74.331349 273.794194 
L 74.829971 273.794194 
L 74.829971 269.019429 
L 75.328593 269.019429 
L 75.328593 261.708069 
L 75.827215 261.708069 
L 75.827215 257.380937 
L 76.325837 257.380937 
L 76.325837 254.396709 
L 76.824459 254.396709 
L 76.824459 252.009326 
L 77.323081 252.009326 
L 77.323081 249.025097 
L 77.821703 249.025097 
L 77.821703 247.532983 
L 78.320325 247.532983 
L 78.320325 246.339291 
L 78.818947 246.339291 
L 78.818947 246.19008 
L 79.317569 246.19008 
L 79.317569 246.040869 
L 79.816191 246.040869 
L 79.816191 245.742446 
L 80.314813 245.742446 
L 80.314813 245.742446 
L 80.813435 245.742446 
L 80.813435 245.593234 
L 81.312057 245.593234 
L 81.312057 245.444023 
L 81.810679 245.444023 
L 81.810679 245.1456 
L 82.807923 245.1456 
L 82.807923 244.548754 
L 83.306545 244.548754 
L 83.306545 244.250331 
L 83.805167 244.250331 
L 83.805167 243.205851 
L 84.303789 243.205851 
L 84.303789 242.310583 
L 84.802411 242.310583 
L 84.802411 241.713737 
L 85.301033 241.713737 
L 85.301033 240.370834 
L 85.799655 240.370834 
L 85.799655 239.773989 
L 86.298277 239.773989 
L 86.298277 239.773989 
L 86.796899 239.773989 
L 86.796899 239.326354 
L 87.295521 239.326354 
L 87.295521 238.87872 
L 88.292765 238.87872 
L 88.292765 238.281874 
L 89.290009 238.281874 
L 89.290009 237.685029 
L 89.788631 237.685029 
L 89.788631 237.386606 
L 90.287253 237.386606 
L 90.287253 237.237394 
L 93.777606 237.237394 
L 93.777606 237.088183 
L 94.276228 237.088183 
L 94.276228 236.78976 
L 94.77485 236.78976 
L 94.77485 236.640549 
L 95.273472 236.640549 
L 95.273472 236.342126 
L 95.772094 236.342126 
L 95.772094 236.043703 
L 96.270716 236.043703 
L 96.270716 235.297646 
L 96.769338 235.297646 
L 96.769338 234.999223 
L 97.26796 234.999223 
L 97.26796 234.850011 
L 97.766582 234.850011 
L 97.766582 234.103954 
L 98.265204 234.103954 
L 98.265204 233.65632 
L 98.763826 233.65632 
L 98.763826 232.910263 
L 99.262448 232.910263 
L 99.262448 232.61184 
L 99.76107 232.61184 
L 99.76107 232.014994 
L 100.259692 232.014994 
L 100.259692 231.716571 
L 100.758314 231.716571 
L 100.758314 231.418149 
L 101.256936 231.418149 
L 101.256936 231.268937 
L 101.755558 231.268937 
L 101.755558 231.119726 
L 102.25418 231.119726 
L 102.25418 230.672091 
L 105.245912 230.672091 
L 105.245912 230.52288 
L 106.741778 230.52288 
L 106.741778 230.373669 
L 107.2404 230.373669 
L 107.2404 230.224457 
L 107.739022 230.224457 
L 107.739022 229.926034 
L 108.736266 229.926034 
L 108.736266 229.627611 
L 109.234888 229.627611 
L 109.234888 229.179977 
L 109.73351 229.179977 
L 109.73351 228.732343 
L 110.232132 228.732343 
L 110.232132 228.43392 
L 110.730754 228.43392 
L 110.730754 228.135497 
L 111.229376 228.135497 
L 111.229376 227.837074 
L 111.727998 227.837074 
L 111.727998 227.837074 
L 112.22662 227.837074 
L 112.22662 227.687863 
L 112.725242 227.687863 
L 112.725242 227.538651 
L 113.223864 227.538651 
L 113.223864 227.38944 
L 113.722485 227.38944 
L 113.722485 227.240229 
L 114.221107 227.240229 
L 114.221107 226.643383 
L 118.708705 226.643383 
L 118.708705 226.34496 
L 119.705949 226.34496 
L 119.705949 226.195749 
L 120.204571 226.195749 
L 120.204571 226.046537 
L 120.703193 226.046537 
L 120.703193 225.748114 
L 121.201815 225.748114 
L 121.201815 225.598903 
L 123.196303 225.598903 
L 123.196303 225.449691 
L 131.672877 225.449691 
L 131.672877 225.30048 
L 132.670121 225.30048 
L 132.670121 225.151269 
L 133.168743 225.151269 
L 133.168743 225.002057 
L 134.165987 225.002057 
L 134.165987 224.554423 
L 134.664609 224.554423 
L 134.664609 224.256 
L 136.160474 224.256 
L 136.160474 223.659154 
L 138.154962 223.659154 
L 138.154962 223.509943 
L 138.653584 223.509943 
L 138.653584 222.763886 
L 142.64256 222.763886 
L 142.64256 222.465463 
L 143.141182 222.465463 
L 143.141182 222.316251 
L 143.639804 222.316251 
L 143.639804 221.719406 
L 144.138426 221.719406 
L 144.138426 221.570194 
L 144.637048 221.570194 
L 144.637048 221.271771 
L 145.13567 221.271771 
L 145.13567 220.973349 
L 145.634292 220.973349 
L 145.634292 220.525714 
L 146.132914 220.525714 
L 146.132914 220.227291 
L 146.631536 220.227291 
L 146.631536 219.928869 
L 147.62878 219.928869 
L 147.62878 219.779657 
L 148.127402 219.779657 
L 148.127402 219.481234 
L 148.626024 219.481234 
L 148.626024 219.182811 
L 149.124646 219.182811 
L 149.124646 218.884389 
L 149.623268 218.884389 
L 149.623268 218.735177 
L 150.12189 218.735177 
L 150.12189 218.436754 
L 151.119134 218.436754 
L 151.119134 218.287543 
L 153.113622 218.287543 
L 153.113622 218.287543 
L 155.10811 218.287543 
L 155.10811 217.98912 
L 156.105354 217.98912 
L 156.105354 217.541486 
L 157.102598 217.541486 
L 157.102598 217.243063 
L 158.099842 217.243063 
L 158.099842 216.94464 
L 158.598463 216.94464 
L 158.598463 216.94464 
L 159.595707 216.94464 
L 159.595707 216.646217 
L 160.094329 216.646217 
L 160.094329 216.497006 
L 160.592951 216.497006 
L 160.592951 216.347794 
L 161.091573 216.347794 
L 161.091573 216.198583 
L 161.590195 216.198583 
L 161.590195 215.90016 
L 162.088817 215.90016 
L 162.088817 215.90016 
L 166.077793 215.90016 
L 166.077793 215.750949 
L 166.576415 215.750949 
L 166.576415 215.750949 
L 167.075037 215.750949 
L 167.075037 215.452526 
L 167.573659 215.452526 
L 167.573659 215.303314 
L 168.072281 215.303314 
L 168.072281 215.154103 
L 168.570903 215.154103 
L 168.570903 214.85568 
L 169.069525 214.85568 
L 169.069525 214.706469 
L 169.568147 214.706469 
L 169.568147 214.557257 
L 170.565391 214.557257 
L 170.565391 214.557257 
L 171.562635 214.557257 
L 171.562635 214.258834 
L 172.559879 214.258834 
L 172.559879 213.512777 
L 173.058501 213.512777 
L 173.058501 213.214354 
L 173.557123 213.214354 
L 173.557123 213.214354 
L 174.055745 213.214354 
L 174.055745 212.76672 
L 175.052989 212.76672 
L 175.052989 212.617509 
L 175.551611 212.617509 
L 175.551611 212.468297 
L 176.050233 212.468297 
L 176.050233 212.169874 
L 178.044721 212.169874 
L 178.044721 212.169874 
L 179.540587 212.169874 
L 179.540587 211.871451 
L 180.039209 211.871451 
L 180.039209 211.72224 
L 182.033696 211.72224 
L 182.033696 211.573029 
L 183.03094 211.573029 
L 183.03094 211.125394 
L 183.529562 211.125394 
L 183.529562 210.230126 
L 184.028184 210.230126 
L 184.028184 209.782491 
L 184.526806 209.782491 
L 184.526806 208.887223 
L 185.025428 208.887223 
L 185.025428 208.5888 
L 185.52405 208.5888 
L 185.52405 208.141166 
L 186.521294 208.141166 
L 186.521294 207.842743 
L 189.513026 207.842743 
L 189.513026 207.693531 
L 190.011648 207.693531 
L 190.011648 207.693531 
L 190.51027 207.693531 
L 190.51027 207.096686 
L 191.507514 207.096686 
L 191.507514 206.947474 
L 192.006136 206.947474 
L 192.006136 206.649051 
L 193.00338 206.649051 
L 193.00338 205.156937 
L 193.502002 205.156937 
L 193.502002 204.858514 
L 194.997868 204.858514 
L 194.997868 204.709303 
L 195.49649 204.709303 
L 195.49649 204.41088 
L 196.493734 204.41088 
L 196.493734 204.41088 
L 196.992356 204.41088 
L 196.992356 203.963246 
L 197.490978 203.963246 
L 197.490978 203.664823 
L 197.9896 203.664823 
L 197.9896 203.664823 
L 198.488222 203.664823 
L 198.488222 203.3664 
L 203.474441 203.3664 
L 203.474441 203.217189 
L 204.471685 203.217189 
L 204.471685 203.067977 
L 204.970307 203.067977 
L 204.970307 202.620343 
L 206.466173 202.620343 
L 206.466173 202.471131 
L 206.964795 202.471131 
L 206.964795 202.172709 
L 207.463417 202.172709 
L 207.463417 202.023497 
L 208.959283 202.023497 
L 208.959283 202.023497 
L 209.457905 202.023497 
L 209.457905 202.023497 
L 214.444125 202.023497 
L 214.444125 202.023497 
L 215.441369 202.023497 
L 215.441369 202.023497 
L 216.438613 202.023497 
L 216.438613 202.023497 
L 216.937235 202.023497 
L 216.937235 202.023497 
L 217.435857 202.023497 
L 217.435857 202.023497 
L 217.934479 202.023497 
L 217.934479 202.023497 
L 218.433101 202.023497 
L 218.433101 202.023497 
L 219.430345 202.023497 
L 219.430345 202.023497 
L 220.427589 202.023497 
L 220.427589 202.023497 
L 221.424833 202.023497 
L 221.424833 202.023497 
L 221.923455 202.023497 
L 221.923455 202.023497 
L 222.422077 202.023497 
L 222.422077 202.023497 
L 226.411052 202.023497 
L 226.411052 202.023497 
L 227.906918 202.023497 
L 227.906918 202.023497 
L 228.40554 202.023497 
L 228.40554 202.023497 
L 229.901406 202.023497 
L 229.901406 202.023497 
L 230.89865 202.023497 
L 230.89865 202.023497 
L 231.397272 202.023497 
L 231.397272 202.023497 
L 231.895894 202.023497 
L 231.895894 202.023497 
L 232.394516 202.023497 
L 232.394516 202.023497 
L 233.39176 202.023497 
L 233.39176 202.023497 
L 237.879358 202.023497 
L 237.879358 202.023497 
L 240.372468 202.023497 
L 240.372468 202.023497 
L 240.87109 202.023497 
L 240.87109 202.023497 
L 242.366956 202.023497 
L 242.366956 202.023497 
L 243.3642 202.023497 
L 243.3642 202.023497 
L 243.862822 202.023497 
L 243.862822 202.023497 
L 244.361444 202.023497 
L 244.361444 202.023497 
L 244.860066 202.023497 
L 244.860066 202.023497 
L 245.358688 202.023497 
L 245.358688 202.023497 
L 245.85731 202.023497 
L 245.85731 202.023497 
L 249.846285 202.023497 
L 249.846285 202.023497 
L 250.843529 202.023497 
L 250.843529 202.023497 
L 251.342151 202.023497 
L 251.342151 202.023497 
L 251.840773 202.023497 
L 251.840773 202.023497 
L 252.339395 202.023497 
L 252.339395 202.023497 
L 252.838017 202.023497 
L 252.838017 202.023497 
L 253.336639 202.023497 
L 253.336639 202.023497 
L 253.835261 202.023497 
L 253.835261 202.023497 
L 254.333883 202.023497 
L 254.333883 202.023497 
L 255.331127 202.023497 
L 255.331127 202.023497 
L 261.813213 202.023497 
L 261.813213 202.023497 
L 263.807701 202.023497 
L 263.807701 202.023497 
L 264.804945 202.023497 
L 264.804945 202.023497 
L 265.303567 202.023497 
L 265.303567 202.023497 
L 266.799433 202.023497 
L 266.799433 202.023497 
L 267.298055 202.023497 
L 267.298055 202.023497 
L 267.796677 202.023497 
L 267.796677 202.023497 
L 269.292543 202.023497 
L 269.292543 202.023497 
L 270.788408 202.023497 
L 270.788408 202.023497 
L 274.278762 202.023497 
L 274.278762 202.023497 
L 274.777384 202.023497 
L 274.777384 202.023497 
L 275.276006 202.023497 
L 275.276006 202.023497 
L 275.774628 202.023497 
L 275.774628 202.023497 
L 276.27325 202.023497 
L 276.27325 202.023497 
L 277.769116 202.023497 
L 277.769116 202.023497 
L 279.264982 202.023497 
L 279.264982 202.023497 
L 280.760848 202.023497 
L 280.760848 202.023497 
L 288.7388 202.023497 
L 288.7388 202.023497 
L 290.733288 202.023497 
L 290.733288 202.023497 
L 291.23191 202.023497 
L 291.23191 202.023497 
L 300.207105 202.023497 
L 300.207105 202.023497 
L 300.705727 202.023497 
L 300.705727 202.023497 
L 301.204349 202.023497 
L 301.204349 202.023497 
L 302.201593 202.023497 
L 302.201593 202.023497 
L 302.700215 202.023497 
L 302.700215 202.023497 
L 303.198837 202.023497 
L 303.198837 202.023497 
L 304.196081 202.023497 
L 304.196081 202.023497 
L 308.683679 202.023497 
L 308.683679 202.023497 
L 309.680923 202.023497 
L 309.680923 202.023497 
L 311.176789 202.023497 
L 311.176789 202.023497 
L 312.174033 202.023497 
L 312.174033 202.023497 
L 314.168521 202.023497 
L 314.168521 202.023497 
L 317.160252 202.023497 
L 317.160252 202.023497 
L 323.642338 202.023497 
L 323.642338 202.023497 
L 324.14096 202.023497 
L 324.14096 202.023497 
L 325.636826 202.023497 
L 325.636826 202.023497 
L 326.63407 202.023497 
L 326.63407 202.023497 
L 327.132692 202.023497 
L 327.132692 202.023497 
L 328.129936 202.023497 
L 328.129936 202.023497 
L 332.617534 202.023497 
L 332.617534 202.023497 
L 334.1134 202.023497 
L 334.1134 202.023497 
L 335.110644 202.023497 
L 335.110644 202.023497 
L 335.609266 202.023497 
L 335.609266 202.023497 
L 336.107888 202.023497 
L 336.107888 202.023497 
L 338.102375 202.023497 
L 338.102375 202.023497 
L 339.598241 202.023497 
L 339.598241 202.023497 
L 340.096863 202.023497 
L 340.096863 202.023497 
L 340.595485 202.023497 
L 340.595485 202.023497 
L 341.094107 202.023497 
L 341.094107 202.023497 
L 346.080327 202.023497 
L 346.080327 202.023497 
L 347.077571 202.023497 
L 347.077571 202.023497 
L 349.570681 202.023497 
L 349.570681 202.023497 
L 352.063791 202.023497 
L 352.063791 202.023497 
L 352.562413 202.023497 
L 352.562413 202.023497 
L 353.061035 202.023497 
L 353.061035 202.023497 
L 354.058279 202.023497 
L 354.058279 202.023497 
L 356.551389 202.023497 
L 356.551389 202.023497 
L 357.548633 202.023497 
L 357.548633 202.023497 
L 359.54312 202.023497 
L 359.54312 202.023497 
L 363.532096 202.023497 
L 363.532096 202.023497 
L 365.526584 202.023497 
L 365.526584 202.023497 
L 368.462137 202.023497 
L 368.462137 200.083749 
L 368.666549 200.083749 
L 368.666549 200.083749 
L 368.844938 200.083749 
L 368.844938 200.083749 
L 369.198625 200.083749 
L 369.198625 200.083749 
L 369.422922 200.083749 
L 369.422922 200.083749 
L 369.658319 200.083749 
L 369.658319 200.083749 
L 369.834609 200.083749 
L 369.834609 200.083749 
L 370.198194 200.083749 
L 370.198194 200.083749 
L 370.396407 200.083749 
L 370.396407 200.083749 
L 370.663235 200.083749 
L 370.663235 200.083749 
L 370.859291 200.083749 
L 370.859291 200.083749 
L 371.171422 200.083749 
L 371.171422 200.083749 
L 371.367703 200.083749 
L 371.367703 200.083749 
L 371.632004 200.083749 
L 371.632004 200.083749 
L 371.816984 200.083749 
L 371.816984 200.083749 
L 372.250012 200.083749 
L 372.250012 200.083749 
L 372.53111 200.083749 
L 372.53111 200.083749 
L 372.854883 200.083749 
L 372.854883 200.083749 
L 372.879523 200.083749 
L 372.879523 200.083749 
L 372.894038 200.083749 
L 372.894038 200.083749 
L 373.140252 200.083749 
L 373.140252 200.083749 
L 373.328407 200.083749 
L 373.328407 200.083749 
L 373.659024 200.083749 
L 373.659024 200.083749 
L 373.872758 200.083749 
L 373.872758 200.083749 
L 374.232542 200.083749 
L 374.232542 200.083749 
L 374.943587 200.083749 
L 374.943587 200.083749 
L 374.96417 200.083749 
L 374.96417 200.083749 
L 374.989605 200.083749 
L 374.989605 200.083749 
L 375.176455 200.083749 
L 375.176455 200.083749 
L 375.387895 200.083749 
L 375.387895 200.083749 
L 375.617527 200.083749 
L 375.617527 200.083749 
L 375.806756 200.083749 
L 375.806756 200.083749 
L 376.154067 200.083749 
L 376.154067 200.083749 
L 376.622115 200.083749 
L 376.622115 200.083749 
L 382.161182 200.083749 
L 382.161182 200.083749 
L 383.59816 200.083749 
L 383.59816 200.083749 
L 384.822827 200.083749 
L 384.822827 200.083749 
L 385.107009 200.083749 
L 385.107009 200.083749 
L 386.501019 200.083749 
L 386.501019 200.083749 
L 386.854492 200.083749 
L 386.854492 200.083749 
L 387.140092 200.083749 
L 387.140092 200.083749 
L 387.585922 200.083749 
L 387.585922 200.083749 
L 395.116062 200.083749 
L 395.116062 200.083749 
L 398.178753 200.083749 
L 398.178753 200.083749 
L 398.487273 200.083749 
L 398.487273 200.083749 
L 398.487273 146.96448 
L 398.487273 146.96448 
L 398.487273 146.96448 
L 398.178753 146.96448 
L 398.178753 147.113691 
L 395.116062 147.113691 
L 395.116062 147.262903 
L 387.585922 147.262903 
L 387.585922 147.561326 
L 387.140092 147.561326 
L 387.140092 147.710537 
L 386.854492 147.710537 
L 386.854492 148.00896 
L 386.501019 148.00896 
L 386.501019 148.158171 
L 385.107009 148.158171 
L 385.107009 148.307383 
L 384.822827 148.307383 
L 384.822827 148.456594 
L 383.59816 148.456594 
L 383.59816 148.605806 
L 382.161182 148.605806 
L 382.161182 148.755017 
L 376.622115 148.755017 
L 376.622115 149.05344 
L 376.154067 149.05344 
L 376.154067 149.202651 
L 375.806756 149.202651 
L 375.806756 149.202651 
L 375.617527 149.202651 
L 375.617527 149.202651 
L 375.387895 149.202651 
L 375.387895 149.202651 
L 375.176455 149.202651 
L 375.176455 149.202651 
L 374.989605 149.202651 
L 374.989605 149.202651 
L 374.96417 149.202651 
L 374.96417 149.202651 
L 374.943587 149.202651 
L 374.943587 149.202651 
L 374.232542 149.202651 
L 374.232542 149.202651 
L 373.872758 149.202651 
L 373.872758 149.202651 
L 373.659024 149.202651 
L 373.659024 149.202651 
L 373.328407 149.202651 
L 373.328407 149.202651 
L 373.140252 149.202651 
L 373.140252 149.202651 
L 372.894038 149.202651 
L 372.894038 149.202651 
L 372.879523 149.202651 
L 372.879523 149.202651 
L 372.854883 149.202651 
L 372.854883 149.202651 
L 372.53111 149.202651 
L 372.53111 149.501074 
L 372.250012 149.501074 
L 372.250012 149.650286 
L 371.816984 149.650286 
L 371.816984 149.650286 
L 371.632004 149.650286 
L 371.632004 150.247131 
L 371.367703 150.247131 
L 371.367703 150.396343 
L 371.171422 150.396343 
L 371.171422 150.396343 
L 370.859291 150.396343 
L 370.859291 150.396343 
L 370.663235 150.396343 
L 370.663235 150.396343 
L 370.396407 150.396343 
L 370.396407 150.396343 
L 370.198194 150.396343 
L 370.198194 150.396343 
L 369.834609 150.396343 
L 369.834609 150.396343 
L 369.658319 150.396343 
L 369.658319 150.396343 
L 369.422922 150.396343 
L 369.422922 150.396343 
L 369.198625 150.396343 
L 369.198625 150.396343 
L 368.844938 150.396343 
L 368.844938 150.396343 
L 368.666549 150.396343 
L 368.666549 150.396343 
L 368.462137 150.396343 
L 368.462137 153.828206 
L 365.526584 153.828206 
L 365.526584 153.977417 
L 363.532096 153.977417 
L 363.532096 153.977417 
L 359.54312 153.977417 
L 359.54312 154.126629 
L 357.548633 154.126629 
L 357.548633 154.27584 
L 356.551389 154.27584 
L 356.551389 154.425051 
L 354.058279 154.425051 
L 354.058279 154.872686 
L 353.061035 154.872686 
L 353.061035 154.872686 
L 352.562413 154.872686 
L 352.562413 155.171109 
L 352.063791 155.171109 
L 352.063791 156.514011 
L 349.570681 156.514011 
L 349.570681 156.961646 
L 347.077571 156.961646 
L 347.077571 157.110857 
L 346.080327 157.110857 
L 346.080327 157.260069 
L 341.094107 157.260069 
L 341.094107 157.707703 
L 340.595485 157.707703 
L 340.595485 158.155337 
L 340.096863 158.155337 
L 340.096863 158.45376 
L 339.598241 158.45376 
L 339.598241 158.602971 
L 338.102375 158.602971 
L 338.102375 158.752183 
L 336.107888 158.752183 
L 336.107888 158.752183 
L 335.609266 158.752183 
L 335.609266 158.901394 
L 335.110644 158.901394 
L 335.110644 159.050606 
L 334.1134 159.050606 
L 334.1134 159.199817 
L 332.617534 159.199817 
L 332.617534 159.349029 
L 328.129936 159.349029 
L 328.129936 159.49824 
L 327.132692 159.49824 
L 327.132692 159.796663 
L 326.63407 159.796663 
L 326.63407 160.095086 
L 325.636826 160.095086 
L 325.636826 160.54272 
L 324.14096 160.54272 
L 324.14096 160.691931 
L 323.642338 160.691931 
L 323.642338 160.691931 
L 317.160252 160.691931 
L 317.160252 160.841143 
L 314.168521 160.841143 
L 314.168521 160.990354 
L 312.174033 160.990354 
L 312.174033 161.288777 
L 311.176789 161.288777 
L 311.176789 161.288777 
L 309.680923 161.288777 
L 309.680923 161.5872 
L 308.683679 161.5872 
L 308.683679 161.5872 
L 304.196081 161.5872 
L 304.196081 161.885623 
L 303.198837 161.885623 
L 303.198837 162.034834 
L 302.700215 162.034834 
L 302.700215 162.333257 
L 302.201593 162.333257 
L 302.201593 162.333257 
L 301.204349 162.333257 
L 301.204349 162.333257 
L 300.705727 162.333257 
L 300.705727 162.780891 
L 300.207105 162.780891 
L 300.207105 162.780891 
L 291.23191 162.780891 
L 291.23191 162.930103 
L 290.733288 162.930103 
L 290.733288 163.079314 
L 288.7388 163.079314 
L 288.7388 163.228526 
L 280.760848 163.228526 
L 280.760848 163.377737 
L 279.264982 163.377737 
L 279.264982 163.526949 
L 277.769116 163.526949 
L 277.769116 163.974583 
L 276.27325 163.974583 
L 276.27325 164.72064 
L 275.774628 164.72064 
L 275.774628 165.019063 
L 275.276006 165.019063 
L 275.276006 165.168274 
L 274.777384 165.168274 
L 274.777384 165.168274 
L 274.278762 165.168274 
L 274.278762 165.317486 
L 270.788408 165.317486 
L 270.788408 165.317486 
L 269.292543 165.317486 
L 269.292543 165.914331 
L 267.796677 165.914331 
L 267.796677 166.063543 
L 267.298055 166.063543 
L 267.298055 166.511177 
L 266.799433 166.511177 
L 266.799433 166.660389 
L 265.303567 166.660389 
L 265.303567 166.8096 
L 264.804945 166.8096 
L 264.804945 167.108023 
L 263.807701 167.108023 
L 263.807701 167.108023 
L 261.813213 167.108023 
L 261.813213 167.406446 
L 255.331127 167.406446 
L 255.331127 167.406446 
L 254.333883 167.406446 
L 254.333883 167.555657 
L 253.835261 167.555657 
L 253.835261 167.704869 
L 253.336639 167.704869 
L 253.336639 167.85408 
L 252.838017 167.85408 
L 252.838017 168.003291 
L 252.339395 168.003291 
L 252.339395 168.152503 
L 251.840773 168.152503 
L 251.840773 168.450926 
L 251.342151 168.450926 
L 251.342151 169.495406 
L 250.843529 169.495406 
L 250.843529 170.092251 
L 249.846285 170.092251 
L 249.846285 170.539886 
L 245.85731 170.539886 
L 245.85731 170.689097 
L 245.358688 170.689097 
L 245.358688 170.838309 
L 244.860066 170.838309 
L 244.860066 171.136731 
L 244.361444 171.136731 
L 244.361444 171.584366 
L 243.862822 171.584366 
L 243.862822 172.181211 
L 243.3642 172.181211 
L 243.3642 172.927269 
L 242.366956 172.927269 
L 242.366956 173.374903 
L 240.87109 173.374903 
L 240.87109 173.524114 
L 240.372468 173.524114 
L 240.372468 173.822537 
L 237.879358 173.822537 
L 237.879358 173.971749 
L 233.39176 173.971749 
L 233.39176 174.12096 
L 232.394516 174.12096 
L 232.394516 174.270171 
L 231.895894 174.270171 
L 231.895894 174.419383 
L 231.397272 174.419383 
L 231.397272 174.568594 
L 230.89865 174.568594 
L 230.89865 174.867017 
L 229.901406 174.867017 
L 229.901406 175.463863 
L 228.40554 175.463863 
L 228.40554 175.613074 
L 227.906918 175.613074 
L 227.906918 175.762286 
L 226.411052 175.762286 
L 226.411052 176.060709 
L 222.422077 176.060709 
L 222.422077 176.20992 
L 221.923455 176.20992 
L 221.923455 176.359131 
L 221.424833 176.359131 
L 221.424833 176.359131 
L 220.427589 176.359131 
L 220.427589 176.508343 
L 219.430345 176.508343 
L 219.430345 176.657554 
L 218.433101 176.657554 
L 218.433101 177.2544 
L 217.934479 177.2544 
L 217.934479 177.851246 
L 217.435857 177.851246 
L 217.435857 178.149669 
L 216.937235 178.149669 
L 216.937235 178.448091 
L 216.438613 178.448091 
L 216.438613 178.746514 
L 215.441369 178.746514 
L 215.441369 179.044937 
L 214.444125 179.044937 
L 214.444125 179.194149 
L 209.457905 179.194149 
L 209.457905 179.492571 
L 208.959283 179.492571 
L 208.959283 179.940206 
L 207.463417 179.940206 
L 207.463417 180.089417 
L 206.964795 180.089417 
L 206.964795 180.537051 
L 206.466173 180.537051 
L 206.466173 180.686263 
L 204.970307 180.686263 
L 204.970307 181.133897 
L 204.471685 181.133897 
L 204.471685 181.283109 
L 203.474441 181.283109 
L 203.474441 181.43232 
L 198.488222 181.43232 
L 198.488222 182.029166 
L 197.9896 182.029166 
L 197.9896 182.029166 
L 197.490978 182.029166 
L 197.490978 182.4768 
L 196.992356 182.4768 
L 196.992356 182.924434 
L 196.493734 182.924434 
L 196.493734 183.073646 
L 195.49649 183.073646 
L 195.49649 183.670491 
L 194.997868 183.670491 
L 194.997868 183.819703 
L 193.502002 183.819703 
L 193.502002 184.118126 
L 193.00338 184.118126 
L 193.00338 185.759451 
L 192.006136 185.759451 
L 192.006136 186.057874 
L 191.507514 186.057874 
L 191.507514 186.207086 
L 190.51027 186.207086 
L 190.51027 186.803931 
L 190.011648 186.803931 
L 190.011648 186.953143 
L 189.513026 186.953143 
L 189.513026 187.102354 
L 186.521294 187.102354 
L 186.521294 187.400777 
L 185.52405 187.400777 
L 185.52405 187.848411 
L 185.025428 187.848411 
L 185.025428 188.445257 
L 184.526806 188.445257 
L 184.526806 189.340526 
L 184.028184 189.340526 
L 184.028184 189.937371 
L 183.529562 189.937371 
L 183.529562 190.83264 
L 183.03094 190.83264 
L 183.03094 192.026331 
L 182.033696 192.026331 
L 182.033696 192.175543 
L 180.039209 192.175543 
L 180.039209 192.324754 
L 179.540587 192.324754 
L 179.540587 192.623177 
L 178.044721 192.623177 
L 178.044721 192.772389 
L 176.050233 192.772389 
L 176.050233 193.070811 
L 175.551611 193.070811 
L 175.551611 193.220023 
L 175.052989 193.220023 
L 175.052989 193.369234 
L 174.055745 193.369234 
L 174.055745 193.816869 
L 173.557123 193.816869 
L 173.557123 194.264503 
L 173.058501 194.264503 
L 173.058501 194.861349 
L 172.559879 194.861349 
L 172.559879 195.607406 
L 171.562635 195.607406 
L 171.562635 195.905829 
L 170.565391 195.905829 
L 170.565391 196.05504 
L 169.568147 196.05504 
L 169.568147 196.204251 
L 169.069525 196.204251 
L 169.069525 196.502674 
L 168.570903 196.502674 
L 168.570903 196.801097 
L 168.072281 196.801097 
L 168.072281 196.950309 
L 167.573659 196.950309 
L 167.573659 197.09952 
L 167.075037 197.09952 
L 167.075037 197.397943 
L 166.576415 197.397943 
L 166.576415 197.547154 
L 166.077793 197.547154 
L 166.077793 197.696366 
L 162.088817 197.696366 
L 162.088817 197.845577 
L 161.590195 197.845577 
L 161.590195 198.144 
L 161.091573 198.144 
L 161.091573 198.293211 
L 160.592951 198.293211 
L 160.592951 198.442423 
L 160.094329 198.442423 
L 160.094329 198.591634 
L 159.595707 198.591634 
L 159.595707 199.337691 
L 158.598463 199.337691 
L 158.598463 199.486903 
L 158.099842 199.486903 
L 158.099842 199.934537 
L 157.102598 199.934537 
L 157.102598 200.23296 
L 156.105354 200.23296 
L 156.105354 200.979017 
L 155.10811 200.979017 
L 155.10811 201.575863 
L 153.113622 201.575863 
L 153.113622 201.874286 
L 151.119134 201.874286 
L 151.119134 202.023497 
L 150.12189 202.023497 
L 150.12189 202.32192 
L 149.623268 202.32192 
L 149.623268 202.620343 
L 149.124646 202.620343 
L 149.124646 203.067977 
L 148.626024 203.067977 
L 148.626024 203.3664 
L 148.127402 203.3664 
L 148.127402 203.814034 
L 147.62878 203.814034 
L 147.62878 203.963246 
L 146.631536 203.963246 
L 146.631536 204.261669 
L 146.132914 204.261669 
L 146.132914 204.560091 
L 145.634292 204.560091 
L 145.634292 205.156937 
L 145.13567 205.156937 
L 145.13567 205.45536 
L 144.637048 205.45536 
L 144.637048 205.753783 
L 144.138426 205.753783 
L 144.138426 205.902994 
L 143.639804 205.902994 
L 143.639804 206.649051 
L 143.141182 206.649051 
L 143.141182 206.798263 
L 142.64256 206.798263 
L 142.64256 207.096686 
L 138.653584 207.096686 
L 138.653584 207.991954 
L 138.154962 207.991954 
L 138.154962 208.141166 
L 136.160474 208.141166 
L 136.160474 209.036434 
L 134.664609 209.036434 
L 134.664609 209.334857 
L 134.165987 209.334857 
L 134.165987 209.931703 
L 133.168743 209.931703 
L 133.168743 210.080914 
L 132.670121 210.080914 
L 132.670121 210.230126 
L 131.672877 210.230126 
L 131.672877 210.379337 
L 123.196303 210.379337 
L 123.196303 210.528549 
L 121.201815 210.528549 
L 121.201815 210.67776 
L 120.703193 210.67776 
L 120.703193 210.976183 
L 120.204571 210.976183 
L 120.204571 211.125394 
L 119.705949 211.125394 
L 119.705949 211.274606 
L 118.708705 211.274606 
L 118.708705 211.573029 
L 114.221107 211.573029 
L 114.221107 212.319086 
L 113.722485 212.319086 
L 113.722485 213.065143 
L 113.223864 213.065143 
L 113.223864 213.214354 
L 112.725242 213.214354 
L 112.725242 213.363566 
L 112.22662 213.363566 
L 112.22662 213.512777 
L 111.727998 213.512777 
L 111.727998 213.661989 
L 111.229376 213.661989 
L 111.229376 214.109623 
L 110.730754 214.109623 
L 110.730754 214.408046 
L 110.232132 214.408046 
L 110.232132 214.85568 
L 109.73351 214.85568 
L 109.73351 215.303314 
L 109.234888 215.303314 
L 109.234888 215.750949 
L 108.736266 215.750949 
L 108.736266 216.049371 
L 107.739022 216.049371 
L 107.739022 216.795429 
L 107.2404 216.795429 
L 107.2404 216.94464 
L 106.741778 216.94464 
L 106.741778 217.093851 
L 105.245912 217.093851 
L 105.245912 217.243063 
L 102.25418 217.243063 
L 102.25418 217.690697 
L 101.755558 217.690697 
L 101.755558 217.98912 
L 101.256936 217.98912 
L 101.256936 218.138331 
L 100.758314 218.138331 
L 100.758314 219.182811 
L 100.259692 219.182811 
L 100.259692 219.481234 
L 99.76107 219.481234 
L 99.76107 220.07808 
L 99.262448 220.07808 
L 99.262448 220.525714 
L 98.763826 220.525714 
L 98.763826 221.420983 
L 98.265204 221.420983 
L 98.265204 221.868617 
L 97.766582 221.868617 
L 97.766582 222.614674 
L 97.26796 222.614674 
L 97.26796 222.763886 
L 96.769338 222.763886 
L 96.769338 223.21152 
L 96.270716 223.21152 
L 96.270716 223.957577 
L 95.772094 223.957577 
L 95.772094 224.256 
L 95.273472 224.256 
L 95.273472 224.554423 
L 94.77485 224.554423 
L 94.77485 224.703634 
L 94.276228 224.703634 
L 94.276228 225.151269 
L 93.777606 225.151269 
L 93.777606 225.30048 
L 90.287253 225.30048 
L 90.287253 225.449691 
L 89.788631 225.449691 
L 89.788631 225.748114 
L 89.290009 225.748114 
L 89.290009 226.34496 
L 88.292765 226.34496 
L 88.292765 226.941806 
L 87.295521 226.941806 
L 87.295521 227.38944 
L 86.796899 227.38944 
L 86.796899 227.986286 
L 86.298277 227.986286 
L 86.298277 228.284709 
L 85.799655 228.284709 
L 85.799655 228.881554 
L 85.301033 228.881554 
L 85.301033 230.373669 
L 84.802411 230.373669 
L 84.802411 231.268937 
L 84.303789 231.268937 
L 84.303789 233.208686 
L 83.805167 233.208686 
L 83.805167 234.253166 
L 83.306545 234.253166 
L 83.306545 235.446857 
L 82.807923 235.446857 
L 82.807923 236.192914 
L 81.810679 236.192914 
L 81.810679 236.938971 
L 81.312057 236.938971 
L 81.312057 237.088183 
L 80.813435 237.088183 
L 80.813435 237.237394 
L 80.314813 237.237394 
L 80.314813 237.386606 
L 79.816191 237.386606 
L 79.816191 237.685029 
L 79.317569 237.685029 
L 79.317569 237.83424 
L 78.818947 237.83424 
L 78.818947 237.983451 
L 78.320325 237.983451 
L 78.320325 239.177143 
L 77.821703 239.177143 
L 77.821703 241.564526 
L 77.323081 241.564526 
L 77.323081 245.593234 
L 76.824459 245.593234 
L 76.824459 248.428251 
L 76.325837 248.428251 
L 76.325837 252.158537 
L 75.827215 252.158537 
L 75.827215 257.380937 
L 75.328593 257.380937 
L 75.328593 266.0352 
L 74.829971 266.0352 
L 74.829971 272.749714 
L 74.331349 272.749714 
L 74.331349 275.43552 
L 73.832727 275.43552 
L 73.832727 276.48 
L 73.832727 276.48 
z
" clip-path="url(#pa4f50b6491)" style="fill: #43b5a0; fill-opacity: 0.8"/>
   </g>
   <g id="matplotlib.axis_1">
    <g id="xtick_1">
     <g id="line2d_1">
      <defs>
       <path id="mafbfe55174" d="M 0 0 
L 0 3.5 
" style="stroke: #ffffff; stroke-width: 0.8"/>
      </defs>
      <g>
       <use xlink:href="#mafbfe55174" x="102.752802" y="276.48" style="fill: #ffffff; stroke: #ffffff; stroke-width: 0.8"/>
      </g>
     </g>
     <g id="text_1">
      <!-- Fri 12/24 -->
      <g style="fill: #ffffff" transform="translate(63.683618 312.01669)rotate(-30)scale(0.1 -0.1)">
       <defs>
        <path id="DejaVuSans-46" d="M 628 4666 
L 3309 4666 
L 3309 4134 
L 1259 4134 
L 1259 2759 
L 3109 2759 
L 3109 2228 
L 1259 2228 
L 1259 0 
L 628 0 
L 628 4666 
z
" transform="scale(0.015625)"/>
        <path id="DejaVuSans-72" d="M 2631 2963 
Q 2534 3019 2420 3045 
Q 2306 3072 2169 3072 
Q 1681 3072 1420 2755 
Q 1159 2438 1159 1844 
L 1159 0 
L 581 0 
L 581 3500 
L 1159 3500 
L 1159 2956 
Q 1341 3275 1631 3429 
Q 1922 3584 2338 3584 
Q 2397 3584 2469 3576 
Q 2541 3569 2628 3553 
L 2631 2963 
z
" transform="scale(0.015625)"/>
        <path id="DejaVuSans-69" d="M 603 3500 
L 1178 3500 
L 1178 0 
L 603 0 
L 603 3500 
z
M 603 4863 
L 1178 4863 
L 1178 4134 
L 603 4134 
L 603 4863 
z
" transform="scale(0.015625)"/>
        <path id="DejaVuSans-20" transform="scale(0.015625)"/>
        <path id="DejaVuSans-31" d="M 794 531 
L 1825 531 
L 1825 4091 
L 703 3866 
L 703 4441 
L 1819 4666 
L 2450 4666 
L 2450 531 
L 3481 531 
L 3481 0 
L 794 0 
L 794 531 
z
" transform="scale(0.015625)"/>
        <path id="DejaVuSans-32" d="M 1228 531 
L 3431 531 
L 3431 0 
L 469 0 
L 469 531 
Q 828 903 1448 1529 
Q 2069 2156 2228 2338 
Q 2531 2678 2651 2914 
Q 2772 3150 2772 3378 
Q 2772 3750 2511 3984 
Q 2250 4219 1831 4219 
Q 1534 4219 1204 4116 
Q 875 4013 500 3803 
L 500 4441 
Q 881 4594 1212 4672 
Q 1544 4750 1819 4750 
Q 2544 4750 2975 4387 
Q 3406 4025 3406 3419 
Q 3406 3131 3298 2873 
Q 3191 2616 2906 2266 
Q 2828 2175 2409 1742 
Q 1991 1309 1228 531 
z
" transform="scale(0.015625)"/>
        <path id="DejaVuSans-2f" d="M 1625 4666 
L 2156 4666 
L 531 -594 
L 0 -594 
L 1625 4666 
z
" transform="scale(0.015625)"/>
        <path id="DejaVuSans-34" d="M 2419 4116 
L 825 1625 
L 2419 1625 
L 2419 4116 
z
M 2253 4666 
L 3047 4666 
L 3047 1625 
L 3713 1625 
L 3713 1100 
L 3047 1100 
L 3047 0 
L 2419 0 
L 2419 1100 
L 313 1100 
L 313 1709 
L 2253 4666 
z
" transform="scale(0.015625)"/>
       </defs>
       <use xlink:href="#DejaVuSans-46"/>
       <use xlink:href="#DejaVuSans-72" x="50.269531"/>
       <use xlink:href="#DejaVuSans-69" x="91.382812"/>
       <use xlink:href="#DejaVuSans-20" x="119.166016"/>
       <use xlink:href="#DejaVuSans-31" x="150.953125"/>
       <use xlink:href="#DejaVuSans-32" x="214.576172"/>
       <use xlink:href="#DejaVuSans-2f" x="278.199219"/>
       <use xlink:href="#DejaVuSans-32" x="311.890625"/>
       <use xlink:href="#DejaVuSans-34" x="375.513672"/>
      </g>
     </g>
    </g>
    <g id="xtick_2">
     <g id="line2d_2">
      <g>
       <use xlink:href="#mafbfe55174" x="138.653584" y="276.48" style="fill: #ffffff; stroke: #ffffff; stroke-width: 0.8"/>
      </g>
     </g>
     <g id="text_2">
      <!-- Mon 12/27 -->
      <g style="fill: #ffffff" transform="translate(91.64403 316.601065)rotate(-30)scale(0.1 -0.1)">
       <defs>
        <path id="DejaVuSans-4d" d="M 628 4666 
L 1569 4666 
L 2759 1491 
L 3956 4666 
L 4897 4666 
L 4897 0 
L 4281 0 
L 4281 4097 
L 3078 897 
L 2444 897 
L 1241 4097 
L 1241 0 
L 628 0 
L 628 4666 
z
" transform="scale(0.015625)"/>
        <path id="DejaVuSans-6f" d="M 1959 3097 
Q 1497 3097 1228 2736 
Q 959 2375 959 1747 
Q 959 1119 1226 758 
Q 1494 397 1959 397 
Q 2419 397 2687 759 
Q 2956 1122 2956 1747 
Q 2956 2369 2687 2733 
Q 2419 3097 1959 3097 
z
M 1959 3584 
Q 2709 3584 3137 3096 
Q 3566 2609 3566 1747 
Q 3566 888 3137 398 
Q 2709 -91 1959 -91 
Q 1206 -91 779 398 
Q 353 888 353 1747 
Q 353 2609 779 3096 
Q 1206 3584 1959 3584 
z
" transform="scale(0.015625)"/>
        <path id="DejaVuSans-6e" d="M 3513 2113 
L 3513 0 
L 2938 0 
L 2938 2094 
Q 2938 2591 2744 2837 
Q 2550 3084 2163 3084 
Q 1697 3084 1428 2787 
Q 1159 2491 1159 1978 
L 1159 0 
L 581 0 
L 581 3500 
L 1159 3500 
L 1159 2956 
Q 1366 3272 1645 3428 
Q 1925 3584 2291 3584 
Q 2894 3584 3203 3211 
Q 3513 2838 3513 2113 
z
" transform="scale(0.015625)"/>
        <path id="DejaVuSans-37" d="M 525 4666 
L 3525 4666 
L 3525 4397 
L 1831 0 
L 1172 0 
L 2766 4134 
L 525 4134 
L 525 4666 
z
" transform="scale(0.015625)"/>
       </defs>
       <use xlink:href="#DejaVuSans-4d"/>
       <use xlink:href="#DejaVuSans-6f" x="86.279297"/>
       <use xlink:href="#DejaVuSans-6e" x="147.460938"/>
       <use xlink:href="#DejaVuSans-20" x="210.839844"/>
       <use xlink:href="#DejaVuSans-31" x="242.626953"/>
       <use xlink:href="#DejaVuSans-32" x="306.25"/>
       <use xlink:href="#DejaVuSans-2f" x="369.873047"/>
       <use xlink:href="#DejaVuSans-32" x="403.564453"/>
       <use xlink:href="#DejaVuSans-37" x="467.1875"/>
      </g>
     </g>
    </g>
    <g id="xtick_3">
     <g id="line2d_3">
      <g>
       <use xlink:href="#mafbfe55174" x="186.521294" y="276.48" style="fill: #ffffff; stroke: #ffffff; stroke-width: 0.8"/>
      </g>
     </g>
     <g id="text_3">
      <!-- Fri 12/31 -->
      <g style="fill: #ffffff" transform="translate(147.45211 312.01669)rotate(-30)scale(0.1 -0.1)">
       <defs>
        <path id="DejaVuSans-33" d="M 2597 2516 
Q 3050 2419 3304 2112 
Q 3559 1806 3559 1356 
Q 3559 666 3084 287 
Q 2609 -91 1734 -91 
Q 1441 -91 1130 -33 
Q 819 25 488 141 
L 488 750 
Q 750 597 1062 519 
Q 1375 441 1716 441 
Q 2309 441 2620 675 
Q 2931 909 2931 1356 
Q 2931 1769 2642 2001 
Q 2353 2234 1838 2234 
L 1294 2234 
L 1294 2753 
L 1863 2753 
Q 2328 2753 2575 2939 
Q 2822 3125 2822 3475 
Q 2822 3834 2567 4026 
Q 2313 4219 1838 4219 
Q 1578 4219 1281 4162 
Q 984 4106 628 3988 
L 628 4550 
Q 988 4650 1302 4700 
Q 1616 4750 1894 4750 
Q 2613 4750 3031 4423 
Q 3450 4097 3450 3541 
Q 3450 3153 3228 2886 
Q 3006 2619 2597 2516 
z
" transform="scale(0.015625)"/>
       </defs>
       <use xlink:href="#DejaVuSans-46"/>
       <use xlink:href="#DejaVuSans-72" x="50.269531"/>
       <use xlink:href="#DejaVuSans-69" x="91.382812"/>
       <use xlink:href="#DejaVuSans-20" x="119.166016"/>
       <use xlink:href="#DejaVuSans-31" x="150.953125"/>
       <use xlink:href="#DejaVuSans-32" x="214.576172"/>
       <use xlink:href="#DejaVuSans-2f" x="278.199219"/>
       <use xlink:href="#DejaVuSans-33" x="311.890625"/>
       <use xlink:href="#DejaVuSans-31" x="375.513672"/>
      </g>
     </g>
    </g>
    <g id="xtick_4">
     <g id="line2d_4">
      <g>
       <use xlink:href="#mafbfe55174" x="222.422077" y="276.48" style="fill: #ffffff; stroke: #ffffff; stroke-width: 0.8"/>
      </g>
     </g>
     <g id="text_4">
      <!-- Mon 01/03 -->
      <g style="fill: #ffffff" transform="translate(175.412522 316.601065)rotate(-30)scale(0.1 -0.1)">
       <defs>
        <path id="DejaVuSans-30" d="M 2034 4250 
Q 1547 4250 1301 3770 
Q 1056 3291 1056 2328 
Q 1056 1369 1301 889 
Q 1547 409 2034 409 
Q 2525 409 2770 889 
Q 3016 1369 3016 2328 
Q 3016 3291 2770 3770 
Q 2525 4250 2034 4250 
z
M 2034 4750 
Q 2819 4750 3233 4129 
Q 3647 3509 3647 2328 
Q 3647 1150 3233 529 
Q 2819 -91 2034 -91 
Q 1250 -91 836 529 
Q 422 1150 422 2328 
Q 422 3509 836 4129 
Q 1250 4750 2034 4750 
z
" transform="scale(0.015625)"/>
       </defs>
       <use xlink:href="#DejaVuSans-4d"/>
       <use xlink:href="#DejaVuSans-6f" x="86.279297"/>
       <use xlink:href="#DejaVuSans-6e" x="147.460938"/>
       <use xlink:href="#DejaVuSans-20" x="210.839844"/>
       <use xlink:href="#DejaVuSans-30" x="242.626953"/>
       <use xlink:href="#DejaVuSans-31" x="306.25"/>
       <use xlink:href="#DejaVuSans-2f" x="369.873047"/>
       <use xlink:href="#DejaVuSans-30" x="403.564453"/>
       <use xlink:href="#DejaVuSans-33" x="467.1875"/>
      </g>
     </g>
    </g>
    <g id="xtick_5">
     <g id="line2d_5">
      <g>
       <use xlink:href="#mafbfe55174" x="270.289786" y="276.48" style="fill: #ffffff; stroke: #ffffff; stroke-width: 0.8"/>
      </g>
     </g>
     <g id="text_5">
      <!-- Fri 01/07 -->
      <g style="fill: #ffffff" transform="translate(231.220602 312.01669)rotate(-30)scale(0.1 -0.1)">
       <use xlink:href="#DejaVuSans-46"/>
       <use xlink:href="#DejaVuSans-72" x="50.269531"/>
       <use xlink:href="#DejaVuSans-69" x="91.382812"/>
       <use xlink:href="#DejaVuSans-20" x="119.166016"/>
       <use xlink:href="#DejaVuSans-30" x="150.953125"/>
       <use xlink:href="#DejaVuSans-31" x="214.576172"/>
       <use xlink:href="#DejaVuSans-2f" x="278.199219"/>
       <use xlink:href="#DejaVuSans-30" x="311.890625"/>
       <use xlink:href="#DejaVuSans-37" x="375.513672"/>
      </g>
     </g>
    </g>
    <g id="xtick_6">
     <g id="line2d_6">
      <g>
       <use xlink:href="#mafbfe55174" x="306.190569" y="276.48" style="fill: #ffffff; stroke: #ffffff; stroke-width: 0.8"/>
      </g>
     </g>
     <g id="text_6">
      <!-- Mon 01/10 -->
      <g style="fill: #ffffff" transform="translate(259.181014 316.601065)rotate(-30)scale(0.1 -0.1)">
       <use xlink:href="#DejaVuSans-4d"/>
       <use xlink:href="#DejaVuSans-6f" x="86.279297"/>
       <use xlink:href="#DejaVuSans-6e" x="147.460938"/>
       <use xlink:href="#DejaVuSans-20" x="210.839844"/>
       <use xlink:href="#DejaVuSans-30" x="242.626953"/>
       <use xlink:href="#DejaVuSans-31" x="306.25"/>
       <use xlink:href="#DejaVuSans-2f" x="369.873047"/>
       <use xlink:href="#DejaVuSans-31" x="403.564453"/>
       <use xlink:href="#DejaVuSans-30" x="467.1875"/>
      </g>
     </g>
    </g>
    <g id="xtick_7">
     <g id="line2d_7">
      <g>
       <use xlink:href="#mafbfe55174" x="354.058279" y="276.48" style="fill: #ffffff; stroke: #ffffff; stroke-width: 0.8"/>
      </g>
     </g>
     <g id="text_7">
      <!-- Fri 01/14 -->
      <g style="fill: #ffffff" transform="translate(314.989094 312.01669)rotate(-30)scale(0.1 -0.1)">
       <use xlink:href="#DejaVuSans-46"/>
       <use xlink:href="#DejaVuSans-72" x="50.269531"/>
       <use xlink:href="#DejaVuSans-69" x="91.382812"/>
       <use xlink:href="#DejaVuSans-20" x="119.166016"/>
       <use xlink:href="#DejaVuSans-30" x="150.953125"/>
       <use xlink:href="#DejaVuSans-31" x="214.576172"/>
       <use xlink:href="#DejaVuSans-2f" x="278.199219"/>
       <use xlink:href="#DejaVuSans-31" x="311.890625"/>
       <use xlink:href="#DejaVuSans-34" x="375.513672"/>
      </g>
     </g>
    </g>
    <g id="xtick_8">
     <g id="line2d_8">
      <g>
       <use xlink:href="#mafbfe55174" x="389.959061" y="276.48" style="fill: #ffffff; stroke: #ffffff; stroke-width: 0.8"/>
      </g>
     </g>
     <g id="text_8">
      <!-- Mon 01/17 -->
      <g style="fill: #ffffff" transform="translate(342.949506 316.601065)rotate(-30)scale(0.1 -0.1)">
       <use xlink:href="#DejaVuSans-4d"/>
       <use xlink:href="#DejaVuSans-6f" x="86.279297"/>
       <use xlink:href="#DejaVuSans-6e" x="147.460938"/>
       <use xlink:href="#DejaVuSans-20" x="210.839844"/>
       <use xlink:href="#DejaVuSans-30" x="242.626953"/>
       <use xlink:href="#DejaVuSans-31" x="306.25"/>
       <use xlink:href="#DejaVuSans-2f" x="369.873047"/>
       <use xlink:href="#DejaVuSans-31" x="403.564453"/>
       <use xlink:href="#DejaVuSans-37" x="467.1875"/>
      </g>
     </g>
    </g>
    <g id="xtick_9">
     <g id="line2d_9">
      <defs>
       <path id="m40d09c2786" d="M 0 0 
L 0 2 
" style="stroke: #ffffff; stroke-width: 0.6"/>
      </defs>
      <g>
       <use xlink:href="#m40d09c2786" x="66.85202" y="276.48" style="fill: #ffffff; stroke: #ffffff; stroke-width: 0.6"/>
      </g>
     </g>
    </g>
    <g id="xtick_10">
     <g id="line2d_10">
      <g>
       <use xlink:href="#m40d09c2786" x="78.818947" y="276.48" style="fill: #ffffff; stroke: #ffffff; stroke-width: 0.6"/>
      </g>
     </g>
    </g>
    <g id="xtick_11">
     <g id="line2d_11">
      <g>
       <use xlink:href="#m40d09c2786" x="90.785875" y="276.48" style="fill: #ffffff; stroke: #ffffff; stroke-width: 0.6"/>
      </g>
     </g>
    </g>
    <g id="xtick_12">
     <g id="line2d_12">
      <g>
       <use xlink:href="#m40d09c2786" x="114.719729" y="276.48" style="fill: #ffffff; stroke: #ffffff; stroke-width: 0.6"/>
      </g>
     </g>
    </g>
    <g id="xtick_13">
     <g id="line2d_13">
      <g>
       <use xlink:href="#m40d09c2786" x="126.686657" y="276.48" style="fill: #ffffff; stroke: #ffffff; stroke-width: 0.6"/>
      </g>
     </g>
    </g>
    <g id="xtick_14">
     <g id="line2d_14">
      <g>
       <use xlink:href="#m40d09c2786" x="150.620512" y="276.48" style="fill: #ffffff; stroke: #ffffff; stroke-width: 0.6"/>
      </g>
     </g>
    </g>
    <g id="xtick_15">
     <g id="line2d_15">
      <g>
       <use xlink:href="#m40d09c2786" x="162.587439" y="276.48" style="fill: #ffffff; stroke: #ffffff; stroke-width: 0.6"/>
      </g>
     </g>
    </g>
    <g id="xtick_16">
     <g id="line2d_16">
      <g>
       <use xlink:href="#m40d09c2786" x="174.554367" y="276.48" style="fill: #ffffff; stroke: #ffffff; stroke-width: 0.6"/>
      </g>
     </g>
    </g>
    <g id="xtick_17">
     <g id="line2d_17">
      <g>
       <use xlink:href="#m40d09c2786" x="198.488222" y="276.48" style="fill: #ffffff; stroke: #ffffff; stroke-width: 0.6"/>
      </g>
     </g>
    </g>
    <g id="xtick_18">
     <g id="line2d_18">
      <g>
       <use xlink:href="#m40d09c2786" x="210.455149" y="276.48" style="fill: #ffffff; stroke: #ffffff; stroke-width: 0.6"/>
      </g>
     </g>
    </g>
    <g id="xtick_19">
     <g id="line2d_19">
      <g>
       <use xlink:href="#m40d09c2786" x="234.389004" y="276.48" style="fill: #ffffff; stroke: #ffffff; stroke-width: 0.6"/>
      </g>
     </g>
    </g>
    <g id="xtick_20">
     <g id="line2d_20">
      <g>
       <use xlink:href="#m40d09c2786" x="246.355932" y="276.48" style="fill: #ffffff; stroke: #ffffff; stroke-width: 0.6"/>
      </g>
     </g>
    </g>
    <g id="xtick_21">
     <g id="line2d_21">
      <g>
       <use xlink:href="#m40d09c2786" x="258.322859" y="276.48" style="fill: #ffffff; stroke: #ffffff; stroke-width: 0.6"/>
      </g>
     </g>
    </g>
    <g id="xtick_22">
     <g id="line2d_22">
      <g>
       <use xlink:href="#m40d09c2786" x="282.256714" y="276.48" style="fill: #ffffff; stroke: #ffffff; stroke-width: 0.6"/>
      </g>
     </g>
    </g>
    <g id="xtick_23">
     <g id="line2d_23">
      <g>
       <use xlink:href="#m40d09c2786" x="294.223641" y="276.48" style="fill: #ffffff; stroke: #ffffff; stroke-width: 0.6"/>
      </g>
     </g>
    </g>
    <g id="xtick_24">
     <g id="line2d_24">
      <g>
       <use xlink:href="#m40d09c2786" x="318.157496" y="276.48" style="fill: #ffffff; stroke: #ffffff; stroke-width: 0.6"/>
      </g>
     </g>
    </g>
    <g id="xtick_25">
     <g id="line2d_25">
      <g>
       <use xlink:href="#m40d09c2786" x="330.124424" y="276.48" style="fill: #ffffff; stroke: #ffffff; stroke-width: 0.6"/>
      </g>
     </g>
    </g>
    <g id="xtick_26">
     <g id="line2d_26">
      <g>
       <use xlink:href="#m40d09c2786" x="342.091351" y="276.48" style="fill: #ffffff; stroke: #ffffff; stroke-width: 0.6"/>
      </g>
     </g>
    </g>
    <g id="xtick_27">
     <g id="line2d_27">
      <g>
       <use xlink:href="#m40d09c2786" x="366.025206" y="276.48" style="fill: #ffffff; stroke: #ffffff; stroke-width: 0.6"/>
      </g>
     </g>
    </g>
    <g id="xtick_28">
     <g id="line2d_28">
      <g>
       <use xlink:href="#m40d09c2786" x="377.992134" y="276.48" style="fill: #ffffff; stroke: #ffffff; stroke-width: 0.6"/>
      </g>
     </g>
    </g>
    <g id="xtick_29">
     <g id="line2d_29">
      <g>
       <use xlink:href="#m40d09c2786" x="401.925989" y="276.48" style="fill: #ffffff; stroke: #ffffff; stroke-width: 0.6"/>
      </g>
     </g>
    </g>
    <g id="xtick_30">
     <g id="line2d_30">
      <g>
       <use xlink:href="#m40d09c2786" x="413.892916" y="276.48" style="fill: #ffffff; stroke: #ffffff; stroke-width: 0.6"/>
      </g>
     </g>
    </g>
   </g>
   <g id="matplotlib.axis_2">
    <g id="ytick_1">
     <g id="line2d_31">
      <defs>
       <path id="mb510f34047" d="M 0 0 
L -3.5 0 
" style="stroke: #ffffff; stroke-width: 0.8"/>
      </defs>
      <g>
       <use xlink:href="#mb510f34047" x="57.6" y="276.48" style="fill: #ffffff; stroke: #ffffff; stroke-width: 0.8"/>
      </g>
     </g>
     <g id="text_9">
      <!-- 0 -->
      <g style="fill: #ffffff" transform="translate(44.2375 280.279219)scale(0.1 -0.1)">
       <use xlink:href="#DejaVuSans-30"/>
      </g>
     </g>
    </g>
    <g id="ytick_2">
     <g id="line2d_32">
      <g>
       <use xlink:href="#mb510f34047" x="57.6" y="246.637714" style="fill: #ffffff; stroke: #ffffff; stroke-width: 0.8"/>
      </g>
     </g>
     <g id="text_10">
      <!-- 200 -->
      <g style="fill: #ffffff" transform="translate(31.5125 250.436933)scale(0.1 -0.1)">
       <use xlink:href="#DejaVuSans-32"/>
       <use xlink:href="#DejaVuSans-30" x="63.623047"/>
       <use xlink:href="#DejaVuSans-30" x="127.246094"/>
      </g>
     </g>
    </g>
    <g id="ytick_3">
     <g id="line2d_33">
      <g>
       <use xlink:href="#mb510f34047" x="57.6" y="216.795429" style="fill: #ffffff; stroke: #ffffff; stroke-width: 0.8"/>
      </g>
     </g>
     <g id="text_11">
      <!-- 400 -->
      <g style="fill: #ffffff" transform="translate(31.5125 220.594647)scale(0.1 -0.1)">
       <use xlink:href="#DejaVuSans-34"/>
       <use xlink:href="#DejaVuSans-30" x="63.623047"/>
       <use xlink:href="#DejaVuSans-30" x="127.246094"/>
      </g>
     </g>
    </g>
    <g id="ytick_4">
     <g id="line2d_34">
      <g>
       <use xlink:href="#mb510f34047" x="57.6" y="186.953143" style="fill: #ffffff; stroke: #ffffff; stroke-width: 0.8"/>
      </g>
     </g>
     <g id="text_12">
      <!-- 600 -->
      <g style="fill: #ffffff" transform="translate(31.5125 190.752362)scale(0.1 -0.1)">
       <defs>
        <path id="DejaVuSans-36" d="M 2113 2584 
Q 1688 2584 1439 2293 
Q 1191 2003 1191 1497 
Q 1191 994 1439 701 
Q 1688 409 2113 409 
Q 2538 409 2786 701 
Q 3034 994 3034 1497 
Q 3034 2003 2786 2293 
Q 2538 2584 2113 2584 
z
M 3366 4563 
L 3366 3988 
Q 3128 4100 2886 4159 
Q 2644 4219 2406 4219 
Q 1781 4219 1451 3797 
Q 1122 3375 1075 2522 
Q 1259 2794 1537 2939 
Q 1816 3084 2150 3084 
Q 2853 3084 3261 2657 
Q 3669 2231 3669 1497 
Q 3669 778 3244 343 
Q 2819 -91 2113 -91 
Q 1303 -91 875 529 
Q 447 1150 447 2328 
Q 447 3434 972 4092 
Q 1497 4750 2381 4750 
Q 2619 4750 2861 4703 
Q 3103 4656 3366 4563 
z
" transform="scale(0.015625)"/>
       </defs>
       <use xlink:href="#DejaVuSans-36"/>
       <use xlink:href="#DejaVuSans-30" x="63.623047"/>
       <use xlink:href="#DejaVuSans-30" x="127.246094"/>
      </g>
     </g>
    </g>
    <g id="ytick_5">
     <g id="line2d_35">
      <g>
       <use xlink:href="#mb510f34047" x="57.6" y="157.110857" style="fill: #ffffff; stroke: #ffffff; stroke-width: 0.8"/>
      </g>
     </g>
     <g id="text_13">
      <!-- 800 -->
      <g style="fill: #ffffff" transform="translate(31.5125 160.910076)scale(0.1 -0.1)">
       <defs>
        <path id="DejaVuSans-38" d="M 2034 2216 
Q 1584 2216 1326 1975 
Q 1069 1734 1069 1313 
Q 1069 891 1326 650 
Q 1584 409 2034 409 
Q 2484 409 2743 651 
Q 3003 894 3003 1313 
Q 3003 1734 2745 1975 
Q 2488 2216 2034 2216 
z
M 1403 2484 
Q 997 2584 770 2862 
Q 544 3141 544 3541 
Q 544 4100 942 4425 
Q 1341 4750 2034 4750 
Q 2731 4750 3128 4425 
Q 3525 4100 3525 3541 
Q 3525 3141 3298 2862 
Q 3072 2584 2669 2484 
Q 3125 2378 3379 2068 
Q 3634 1759 3634 1313 
Q 3634 634 3220 271 
Q 2806 -91 2034 -91 
Q 1263 -91 848 271 
Q 434 634 434 1313 
Q 434 1759 690 2068 
Q 947 2378 1403 2484 
z
M 1172 3481 
Q 1172 3119 1398 2916 
Q 1625 2713 2034 2713 
Q 2441 2713 2670 2916 
Q 2900 3119 2900 3481 
Q 2900 3844 2670 4047 
Q 2441 4250 2034 4250 
Q 1625 4250 1398 4047 
Q 1172 3844 1172 3481 
z
" transform="scale(0.015625)"/>
       </defs>
       <use xlink:href="#DejaVuSans-38"/>
       <use xlink:href="#DejaVuSans-30" x="63.623047"/>
       <use xlink:href="#DejaVuSans-30" x="127.246094"/>
      </g>
     </g>
    </g>
    <g id="ytick_6">
     <g id="line2d_36">
      <g>
       <use xlink:href="#mb510f34047" x="57.6" y="127.268571" style="fill: #ffffff; stroke: #ffffff; stroke-width: 0.8"/>
      </g>
     </g>
     <g id="text_14">
      <!-- 1000 -->
      <g style="fill: #ffffff" transform="translate(25.15 131.06779)scale(0.1 -0.1)">
       <use xlink:href="#DejaVuSans-31"/>
       <use xlink:href="#DejaVuSans-30" x="63.623047"/>
       <use xlink:href="#DejaVuSans-30" x="127.246094"/>
       <use xlink:href="#DejaVuSans-30" x="190.869141"/>
      </g>
     </g>
    </g>
    <g id="ytick_7">
     <g id="line2d_37">
      <g>
       <use xlink:href="#mb510f34047" x="57.6" y="97.426286" style="fill: #ffffff; stroke: #ffffff; stroke-width: 0.8"/>
      </g>
     </g>
     <g id="text_15">
      <!-- 1200 -->
      <g style="fill: #ffffff" transform="translate(25.15 101.225504)scale(0.1 -0.1)">
       <use xlink:href="#DejaVuSans-31"/>
       <use xlink:href="#DejaVuSans-32" x="63.623047"/>
       <use xlink:href="#DejaVuSans-30" x="127.246094"/>
       <use xlink:href="#DejaVuSans-30" x="190.869141"/>
      </g>
     </g>
    </g>
    <g id="ytick_8">
     <g id="line2d_38">
      <g>
       <use xlink:href="#mb510f34047" x="57.6" y="67.584" style="fill: #ffffff; stroke: #ffffff; stroke-width: 0.8"/>
      </g>
     </g>
     <g id="text_16">
      <!-- 1400 -->
      <g style="fill: #ffffff" transform="translate(25.15 71.383219)scale(0.1 -0.1)">
       <use xlink:href="#DejaVuSans-31"/>
       <use xlink:href="#DejaVuSans-34" x="63.623047"/>
       <use xlink:href="#DejaVuSans-30" x="127.246094"/>
       <use xlink:href="#DejaVuSans-30" x="190.869141"/>
      </g>
     </g>
    </g>
    <g id="text_17">
     <!-- Number of tickets sold -->
     <g style="fill: #ffffff" transform="translate(19.070312 215.329906)rotate(-90)scale(0.1 -0.1)">
      <defs>
       <path id="DejaVuSans-4e" d="M 628 4666 
L 1478 4666 
L 3547 763 
L 3547 4666 
L 4159 4666 
L 4159 0 
L 3309 0 
L 1241 3903 
L 1241 0 
L 628 0 
L 628 4666 
z
" transform="scale(0.015625)"/>
       <path id="DejaVuSans-75" d="M 544 1381 
L 544 3500 
L 1119 3500 
L 1119 1403 
Q 1119 906 1312 657 
Q 1506 409 1894 409 
Q 2359 409 2629 706 
Q 2900 1003 2900 1516 
L 2900 3500 
L 3475 3500 
L 3475 0 
L 2900 0 
L 2900 538 
Q 2691 219 2414 64 
Q 2138 -91 1772 -91 
Q 1169 -91 856 284 
Q 544 659 544 1381 
z
M 1991 3584 
L 1991 3584 
z
" transform="scale(0.015625)"/>
       <path id="DejaVuSans-6d" d="M 3328 2828 
Q 3544 3216 3844 3400 
Q 4144 3584 4550 3584 
Q 5097 3584 5394 3201 
Q 5691 2819 5691 2113 
L 5691 0 
L 5113 0 
L 5113 2094 
Q 5113 2597 4934 2840 
Q 4756 3084 4391 3084 
Q 3944 3084 3684 2787 
Q 3425 2491 3425 1978 
L 3425 0 
L 2847 0 
L 2847 2094 
Q 2847 2600 2669 2842 
Q 2491 3084 2119 3084 
Q 1678 3084 1418 2786 
Q 1159 2488 1159 1978 
L 1159 0 
L 581 0 
L 581 3500 
L 1159 3500 
L 1159 2956 
Q 1356 3278 1631 3431 
Q 1906 3584 2284 3584 
Q 2666 3584 2933 3390 
Q 3200 3197 3328 2828 
z
" transform="scale(0.015625)"/>
       <path id="DejaVuSans-62" d="M 3116 1747 
Q 3116 2381 2855 2742 
Q 2594 3103 2138 3103 
Q 1681 3103 1420 2742 
Q 1159 2381 1159 1747 
Q 1159 1113 1420 752 
Q 1681 391 2138 391 
Q 2594 391 2855 752 
Q 3116 1113 3116 1747 
z
M 1159 2969 
Q 1341 3281 1617 3432 
Q 1894 3584 2278 3584 
Q 2916 3584 3314 3078 
Q 3713 2572 3713 1747 
Q 3713 922 3314 415 
Q 2916 -91 2278 -91 
Q 1894 -91 1617 61 
Q 1341 213 1159 525 
L 1159 0 
L 581 0 
L 581 4863 
L 1159 4863 
L 1159 2969 
z
" transform="scale(0.015625)"/>
       <path id="DejaVuSans-65" d="M 3597 1894 
L 3597 1613 
L 953 1613 
Q 991 1019 1311 708 
Q 1631 397 2203 397 
Q 2534 397 2845 478 
Q 3156 559 3463 722 
L 3463 178 
Q 3153 47 2828 -22 
Q 2503 -91 2169 -91 
Q 1331 -91 842 396 
Q 353 884 353 1716 
Q 353 2575 817 3079 
Q 1281 3584 2069 3584 
Q 2775 3584 3186 3129 
Q 3597 2675 3597 1894 
z
M 3022 2063 
Q 3016 2534 2758 2815 
Q 2500 3097 2075 3097 
Q 1594 3097 1305 2825 
Q 1016 2553 972 2059 
L 3022 2063 
z
" transform="scale(0.015625)"/>
       <path id="DejaVuSans-66" d="M 2375 4863 
L 2375 4384 
L 1825 4384 
Q 1516 4384 1395 4259 
Q 1275 4134 1275 3809 
L 1275 3500 
L 2222 3500 
L 2222 3053 
L 1275 3053 
L 1275 0 
L 697 0 
L 697 3053 
L 147 3053 
L 147 3500 
L 697 3500 
L 697 3744 
Q 697 4328 969 4595 
Q 1241 4863 1831 4863 
L 2375 4863 
z
" transform="scale(0.015625)"/>
       <path id="DejaVuSans-74" d="M 1172 4494 
L 1172 3500 
L 2356 3500 
L 2356 3053 
L 1172 3053 
L 1172 1153 
Q 1172 725 1289 603 
Q 1406 481 1766 481 
L 2356 481 
L 2356 0 
L 1766 0 
Q 1100 0 847 248 
Q 594 497 594 1153 
L 594 3053 
L 172 3053 
L 172 3500 
L 594 3500 
L 594 4494 
L 1172 4494 
z
" transform="scale(0.015625)"/>
       <path id="DejaVuSans-63" d="M 3122 3366 
L 3122 2828 
Q 2878 2963 2633 3030 
Q 2388 3097 2138 3097 
Q 1578 3097 1268 2742 
Q 959 2388 959 1747 
Q 959 1106 1268 751 
Q 1578 397 2138 397 
Q 2388 397 2633 464 
Q 2878 531 3122 666 
L 3122 134 
Q 2881 22 2623 -34 
Q 2366 -91 2075 -91 
Q 1284 -91 818 406 
Q 353 903 353 1747 
Q 353 2603 823 3093 
Q 1294 3584 2113 3584 
Q 2378 3584 2631 3529 
Q 2884 3475 3122 3366 
z
" transform="scale(0.015625)"/>
       <path id="DejaVuSans-6b" d="M 581 4863 
L 1159 4863 
L 1159 1991 
L 2875 3500 
L 3609 3500 
L 1753 1863 
L 3688 0 
L 2938 0 
L 1159 1709 
L 1159 0 
L 581 0 
L 581 4863 
z
" transform="scale(0.015625)"/>
       <path id="DejaVuSans-73" d="M 2834 3397 
L 2834 2853 
Q 2591 2978 2328 3040 
Q 2066 3103 1784 3103 
Q 1356 3103 1142 2972 
Q 928 2841 928 2578 
Q 928 2378 1081 2264 
Q 1234 2150 1697 2047 
L 1894 2003 
Q 2506 1872 2764 1633 
Q 3022 1394 3022 966 
Q 3022 478 2636 193 
Q 2250 -91 1575 -91 
Q 1294 -91 989 -36 
Q 684 19 347 128 
L 347 722 
Q 666 556 975 473 
Q 1284 391 1588 391 
Q 1994 391 2212 530 
Q 2431 669 2431 922 
Q 2431 1156 2273 1281 
Q 2116 1406 1581 1522 
L 1381 1569 
Q 847 1681 609 1914 
Q 372 2147 372 2553 
Q 372 3047 722 3315 
Q 1072 3584 1716 3584 
Q 2034 3584 2315 3537 
Q 2597 3491 2834 3397 
z
" transform="scale(0.015625)"/>
       <path id="DejaVuSans-6c" d="M 603 4863 
L 1178 4863 
L 1178 0 
L 603 0 
L 603 4863 
z
" transform="scale(0.015625)"/>
       <path id="DejaVuSans-64" d="M 2906 2969 
L 2906 4863 
L 3481 4863 
L 3481 0 
L 2906 0 
L 2906 525 
Q 2725 213 2448 61 
Q 2172 -91 1784 -91 
Q 1150 -91 751 415 
Q 353 922 353 1747 
Q 353 2572 751 3078 
Q 1150 3584 1784 3584 
Q 2172 3584 2448 3432 
Q 2725 3281 2906 2969 
z
M 947 1747 
Q 947 1113 1208 752 
Q 1469 391 1925 391 
Q 2381 391 2643 752 
Q 2906 1113 2906 1747 
Q 2906 2381 2643 2742 
Q 2381 3103 1925 3103 
Q 1469 3103 1208 2742 
Q 947 2381 947 1747 
z
" transform="scale(0.015625)"/>
      </defs>
      <use xlink:href="#DejaVuSans-4e"/>
      <use xlink:href="#DejaVuSans-75" x="74.804688"/>
      <use xlink:href="#DejaVuSans-6d" x="138.183594"/>
      <use xlink:href="#DejaVuSans-62" x="235.595703"/>
      <use xlink:href="#DejaVuSans-65" x="299.072266"/>
      <use xlink:href="#DejaVuSans-72" x="360.595703"/>
      <use xlink:href="#DejaVuSans-20" x="401.708984"/>
      <use xlink:href="#DejaVuSans-6f" x="433.496094"/>
      <use xlink:href="#DejaVuSans-66" x="494.677734"/>
      <use xlink:href="#DejaVuSans-20" x="529.882812"/>
      <use xlink:href="#DejaVuSans-74" x="561.669922"/>
      <use xlink:href="#DejaVuSans-69" x="600.878906"/>
      <use xlink:href="#DejaVuSans-63" x="628.662109"/>
      <use xlink:href="#DejaVuSans-6b" x="683.642578"/>
      <use xlink:href="#DejaVuSans-65" x="737.927734"/>
      <use xlink:href="#DejaVuSans-74" x="799.451172"/>
      <use xlink:href="#DejaVuSans-73" x="838.660156"/>
      <use xlink:href="#DejaVuSans-20" x="890.759766"/>
      <use xlink:href="#DejaVuSans-73" x="922.546875"/>
      <use xlink:href="#DejaVuSans-6f" x="974.646484"/>
      <use xlink:href="#DejaVuSans-6c" x="1035.828125"/>
      <use xlink:href="#DejaVuSans-64" x="1063.611328"/>
     </g>
    </g>
   </g>
   <g id="line2d_39">
    <path d="M 57.6 52.662857 
L 414.72 52.662857 
" clip-path="url(#pa4f50b6491)" style="fill: none; stroke-dasharray: 5.55,2.4; stroke-dashoffset: 0; stroke: #32cd32; stroke-width: 1.5"/>
   </g>
   <g id="patch_3">
    <path d="M 57.6 276.48 
L 57.6 41.472 
" style="fill: none; stroke: #000000; stroke-width: 0.8; stroke-linejoin: miter; stroke-linecap: square"/>
   </g>
   <g id="patch_4">
    <path d="M 414.72 276.48 
L 414.72 41.472 
" style="fill: none; stroke: #000000; stroke-width: 0.8; stroke-linejoin: miter; stroke-linecap: square"/>
   </g>
   <g id="patch_5">
    <path d="M 57.6 276.48 
L 414.72 276.48 
" style="fill: none; stroke: #000000; stroke-width: 0.8; stroke-linejoin: miter; stroke-linecap: square"/>
   </g>
   <g id="patch_6">
    <path d="M 57.6 41.472 
L 414.72 41.472 
" style="fill: none; stroke: #000000; stroke-width: 0.8; stroke-linejoin: miter; stroke-linecap: square"/>
   </g>
   <g id="text_18">
    <!-- MCH Tickets -->
    <g style="fill: #ffffff" transform="translate(199.504687 35.472)scale(0.12 -0.12)">
     <defs>
      <path id="DejaVuSans-43" d="M 4122 4306 
L 4122 3641 
Q 3803 3938 3442 4084 
Q 3081 4231 2675 4231 
Q 1875 4231 1450 3742 
Q 1025 3253 1025 2328 
Q 1025 1406 1450 917 
Q 1875 428 2675 428 
Q 3081 428 3442 575 
Q 3803 722 4122 1019 
L 4122 359 
Q 3791 134 3420 21 
Q 3050 -91 2638 -91 
Q 1578 -91 968 557 
Q 359 1206 359 2328 
Q 359 3453 968 4101 
Q 1578 4750 2638 4750 
Q 3056 4750 3426 4639 
Q 3797 4528 4122 4306 
z
" transform="scale(0.015625)"/>
      <path id="DejaVuSans-48" d="M 628 4666 
L 1259 4666 
L 1259 2753 
L 3553 2753 
L 3553 4666 
L 4184 4666 
L 4184 0 
L 3553 0 
L 3553 2222 
L 1259 2222 
L 1259 0 
L 628 0 
L 628 4666 
z
" transform="scale(0.015625)"/>
      <path id="DejaVuSans-54" d="M -19 4666 
L 3928 4666 
L 3928 4134 
L 2272 4134 
L 2272 0 
L 1638 0 
L 1638 4134 
L -19 4134 
L -19 4666 
z
" transform="scale(0.015625)"/>
     </defs>
     <use xlink:href="#DejaVuSans-4d"/>
     <use xlink:href="#DejaVuSans-43" x="86.279297"/>
     <use xlink:href="#DejaVuSans-48" x="156.103516"/>
     <use xlink:href="#DejaVuSans-20" x="231.298828"/>
     <use xlink:href="#DejaVuSans-54" x="263.085938"/>
     <use xlink:href="#DejaVuSans-69" x="321.044922"/>
     <use xlink:href="#DejaVuSans-63" x="348.828125"/>
     <use xlink:href="#DejaVuSans-6b" x="403.808594"/>
     <use xlink:href="#DejaVuSans-65" x="458.09375"/>
     <use xlink:href="#DejaVuSans-74" x="519.617188"/>
     <use xlink:href="#DejaVuSans-73" x="558.826172"/>
    </g>
   </g>
   <g id="legend_1">
    <g id="patch_7">
     <path d="M 64.6 93.506375 
L 244.389062 93.506375 
Q 246.389062 93.506375 246.389062 91.506375 
L 246.389062 48.472 
Q 246.389062 46.472 244.389062 46.472 
L 64.6 46.472 
Q 62.6 46.472 62.6 48.472 
L 62.6 91.506375 
Q 62.6 93.506375 64.6 93.506375 
z
" style="fill: #ffffff; opacity: 0.8; stroke: #cccccc; stroke-linejoin: miter"/>
    </g>
    <g id="patch_8">
     <path d="M 66.6 58.070437 
L 86.6 58.070437 
L 86.6 51.070437 
L 66.6 51.070437 
z
" style="fill: #fa448c; fill-opacity: 0.8"/>
    </g>
    <g id="text_19">
     <!-- Early-BirdTickets -->
     <g transform="translate(94.6 58.070437)scale(0.1 -0.1)">
      <defs>
       <path id="DejaVuSans-45" d="M 628 4666 
L 3578 4666 
L 3578 4134 
L 1259 4134 
L 1259 2753 
L 3481 2753 
L 3481 2222 
L 1259 2222 
L 1259 531 
L 3634 531 
L 3634 0 
L 628 0 
L 628 4666 
z
" transform="scale(0.015625)"/>
       <path id="DejaVuSans-61" d="M 2194 1759 
Q 1497 1759 1228 1600 
Q 959 1441 959 1056 
Q 959 750 1161 570 
Q 1363 391 1709 391 
Q 2188 391 2477 730 
Q 2766 1069 2766 1631 
L 2766 1759 
L 2194 1759 
z
M 3341 1997 
L 3341 0 
L 2766 0 
L 2766 531 
Q 2569 213 2275 61 
Q 1981 -91 1556 -91 
Q 1019 -91 701 211 
Q 384 513 384 1019 
Q 384 1609 779 1909 
Q 1175 2209 1959 2209 
L 2766 2209 
L 2766 2266 
Q 2766 2663 2505 2880 
Q 2244 3097 1772 3097 
Q 1472 3097 1187 3025 
Q 903 2953 641 2809 
L 641 3341 
Q 956 3463 1253 3523 
Q 1550 3584 1831 3584 
Q 2591 3584 2966 3190 
Q 3341 2797 3341 1997 
z
" transform="scale(0.015625)"/>
       <path id="DejaVuSans-79" d="M 2059 -325 
Q 1816 -950 1584 -1140 
Q 1353 -1331 966 -1331 
L 506 -1331 
L 506 -850 
L 844 -850 
Q 1081 -850 1212 -737 
Q 1344 -625 1503 -206 
L 1606 56 
L 191 3500 
L 800 3500 
L 1894 763 
L 2988 3500 
L 3597 3500 
L 2059 -325 
z
" transform="scale(0.015625)"/>
       <path id="DejaVuSans-2d" d="M 313 2009 
L 1997 2009 
L 1997 1497 
L 313 1497 
L 313 2009 
z
" transform="scale(0.015625)"/>
       <path id="DejaVuSans-42" d="M 1259 2228 
L 1259 519 
L 2272 519 
Q 2781 519 3026 730 
Q 3272 941 3272 1375 
Q 3272 1813 3026 2020 
Q 2781 2228 2272 2228 
L 1259 2228 
z
M 1259 4147 
L 1259 2741 
L 2194 2741 
Q 2656 2741 2882 2914 
Q 3109 3088 3109 3444 
Q 3109 3797 2882 3972 
Q 2656 4147 2194 4147 
L 1259 4147 
z
M 628 4666 
L 2241 4666 
Q 2963 4666 3353 4366 
Q 3744 4066 3744 3513 
Q 3744 3084 3544 2831 
Q 3344 2578 2956 2516 
Q 3422 2416 3680 2098 
Q 3938 1781 3938 1306 
Q 3938 681 3513 340 
Q 3088 0 2303 0 
L 628 0 
L 628 4666 
z
" transform="scale(0.015625)"/>
      </defs>
      <use xlink:href="#DejaVuSans-45"/>
      <use xlink:href="#DejaVuSans-61" x="63.183594"/>
      <use xlink:href="#DejaVuSans-72" x="124.462891"/>
      <use xlink:href="#DejaVuSans-6c" x="165.576172"/>
      <use xlink:href="#DejaVuSans-79" x="193.359375"/>
      <use xlink:href="#DejaVuSans-2d" x="250.789062"/>
      <use xlink:href="#DejaVuSans-42" x="283.248047"/>
      <use xlink:href="#DejaVuSans-69" x="351.851562"/>
      <use xlink:href="#DejaVuSans-72" x="379.634766"/>
      <use xlink:href="#DejaVuSans-64" x="418.998047"/>
      <use xlink:href="#DejaVuSans-54" x="482.474609"/>
      <use xlink:href="#DejaVuSans-69" x="540.433594"/>
      <use xlink:href="#DejaVuSans-63" x="568.216797"/>
      <use xlink:href="#DejaVuSans-6b" x="623.197266"/>
      <use xlink:href="#DejaVuSans-65" x="677.482422"/>
      <use xlink:href="#DejaVuSans-74" x="739.005859"/>
      <use xlink:href="#DejaVuSans-73" x="778.214844"/>
     </g>
    </g>
    <g id="patch_9">
     <path d="M 66.6 72.748562 
L 86.6 72.748562 
L 86.6 65.748562 
L 66.6 65.748562 
z
" style="fill: #43b5a0; fill-opacity: 0.8"/>
    </g>
    <g id="text_20">
     <!-- RegularTickets -->
     <g transform="translate(94.6 72.748562)scale(0.1 -0.1)">
      <defs>
       <path id="DejaVuSans-52" d="M 2841 2188 
Q 3044 2119 3236 1894 
Q 3428 1669 3622 1275 
L 4263 0 
L 3584 0 
L 2988 1197 
Q 2756 1666 2539 1819 
Q 2322 1972 1947 1972 
L 1259 1972 
L 1259 0 
L 628 0 
L 628 4666 
L 2053 4666 
Q 2853 4666 3247 4331 
Q 3641 3997 3641 3322 
Q 3641 2881 3436 2590 
Q 3231 2300 2841 2188 
z
M 1259 4147 
L 1259 2491 
L 2053 2491 
Q 2509 2491 2742 2702 
Q 2975 2913 2975 3322 
Q 2975 3731 2742 3939 
Q 2509 4147 2053 4147 
L 1259 4147 
z
" transform="scale(0.015625)"/>
       <path id="DejaVuSans-67" d="M 2906 1791 
Q 2906 2416 2648 2759 
Q 2391 3103 1925 3103 
Q 1463 3103 1205 2759 
Q 947 2416 947 1791 
Q 947 1169 1205 825 
Q 1463 481 1925 481 
Q 2391 481 2648 825 
Q 2906 1169 2906 1791 
z
M 3481 434 
Q 3481 -459 3084 -895 
Q 2688 -1331 1869 -1331 
Q 1566 -1331 1297 -1286 
Q 1028 -1241 775 -1147 
L 775 -588 
Q 1028 -725 1275 -790 
Q 1522 -856 1778 -856 
Q 2344 -856 2625 -561 
Q 2906 -266 2906 331 
L 2906 616 
Q 2728 306 2450 153 
Q 2172 0 1784 0 
Q 1141 0 747 490 
Q 353 981 353 1791 
Q 353 2603 747 3093 
Q 1141 3584 1784 3584 
Q 2172 3584 2450 3431 
Q 2728 3278 2906 2969 
L 2906 3500 
L 3481 3500 
L 3481 434 
z
" transform="scale(0.015625)"/>
      </defs>
      <use xlink:href="#DejaVuSans-52"/>
      <use xlink:href="#DejaVuSans-65" x="64.982422"/>
      <use xlink:href="#DejaVuSans-67" x="126.505859"/>
      <use xlink:href="#DejaVuSans-75" x="189.982422"/>
      <use xlink:href="#DejaVuSans-6c" x="253.361328"/>
      <use xlink:href="#DejaVuSans-61" x="281.144531"/>
      <use xlink:href="#DejaVuSans-72" x="342.423828"/>
      <use xlink:href="#DejaVuSans-54" x="383.537109"/>
      <use xlink:href="#DejaVuSans-69" x="441.496094"/>
      <use xlink:href="#DejaVuSans-63" x="469.279297"/>
      <use xlink:href="#DejaVuSans-6b" x="524.259766"/>
      <use xlink:href="#DejaVuSans-65" x="578.544922"/>
      <use xlink:href="#DejaVuSans-74" x="640.068359"/>
      <use xlink:href="#DejaVuSans-73" x="679.277344"/>
     </g>
    </g>
    <g id="line2d_40">
     <path d="M 66.6 83.926687 
L 76.6 83.926687 
L 86.6 83.926687 
" style="fill: none; stroke-dasharray: 5.55,2.4; stroke-dashoffset: 0; stroke: #32cd32; stroke-width: 1.5"/>
    </g>
    <g id="text_21">
     <!-- Required tickets w/ donations -->
     <g transform="translate(94.6 87.426687)scale(0.1 -0.1)">
      <defs>
       <path id="DejaVuSans-71" d="M 947 1747 
Q 947 1113 1208 752 
Q 1469 391 1925 391 
Q 2381 391 2643 752 
Q 2906 1113 2906 1747 
Q 2906 2381 2643 2742 
Q 2381 3103 1925 3103 
Q 1469 3103 1208 2742 
Q 947 2381 947 1747 
z
M 2906 525 
Q 2725 213 2448 61 
Q 2172 -91 1784 -91 
Q 1150 -91 751 415 
Q 353 922 353 1747 
Q 353 2572 751 3078 
Q 1150 3584 1784 3584 
Q 2172 3584 2448 3432 
Q 2725 3281 2906 2969 
L 2906 3500 
L 3481 3500 
L 3481 -1331 
L 2906 -1331 
L 2906 525 
z
" transform="scale(0.015625)"/>
       <path id="DejaVuSans-77" d="M 269 3500 
L 844 3500 
L 1563 769 
L 2278 3500 
L 2956 3500 
L 3675 769 
L 4391 3500 
L 4966 3500 
L 4050 0 
L 3372 0 
L 2619 2869 
L 1863 0 
L 1184 0 
L 269 3500 
z
" transform="scale(0.015625)"/>
      </defs>
      <use xlink:href="#DejaVuSans-52"/>
      <use xlink:href="#DejaVuSans-65" x="64.982422"/>
      <use xlink:href="#DejaVuSans-71" x="126.505859"/>
      <use xlink:href="#DejaVuSans-75" x="189.982422"/>
      <use xlink:href="#DejaVuSans-69" x="253.361328"/>
      <use xlink:href="#DejaVuSans-72" x="281.144531"/>
      <use xlink:href="#DejaVuSans-65" x="320.007812"/>
      <use xlink:href="#DejaVuSans-64" x="381.53125"/>
      <use xlink:href="#DejaVuSans-20" x="445.007812"/>
      <use xlink:href="#DejaVuSans-74" x="476.794922"/>
      <use xlink:href="#DejaVuSans-69" x="516.003906"/>
      <use xlink:href="#DejaVuSans-63" x="543.787109"/>
      <use xlink:href="#DejaVuSans-6b" x="598.767578"/>
      <use xlink:href="#DejaVuSans-65" x="653.052734"/>
      <use xlink:href="#DejaVuSans-74" x="714.576172"/>
      <use xlink:href="#DejaVuSans-73" x="753.785156"/>
      <use xlink:href="#DejaVuSans-20" x="805.884766"/>
      <use xlink:href="#DejaVuSans-77" x="837.671875"/>
      <use xlink:href="#DejaVuSans-2f" x="919.458984"/>
      <use xlink:href="#DejaVuSans-20" x="953.150391"/>
      <use xlink:href="#DejaVuSans-64" x="984.9375"/>
      <use xlink:href="#DejaVuSans-6f" x="1048.414062"/>
      <use xlink:href="#DejaVuSans-6e" x="1109.595703"/>
      <use xlink:href="#DejaVuSans-61" x="1172.974609"/>
      <use xlink:href="#DejaVuSans-74" x="1234.253906"/>
      <use xlink:href="#DejaVuSans-69" x="1273.462891"/>
      <use xlink:href="#DejaVuSans-6f" x="1301.246094"/>
      <use xlink:href="#DejaVuSans-6e" x="1362.427734"/>
      <use xlink:href="#DejaVuSans-73" x="1425.806641"/>
     </g>
    </g>
   </g>
  </g>
 </g>
 <defs>
  <clipPath id="pa4f50b6491">
   <rect x="57.6" y="41.472" width="357.12" height="235.008"/>
  </clipPath>
 </defs>
</svg>
